<?xml version="1.0" encoding="utf-8"?>
<!-- Generator: Adobe Illustrator 25.4.1, SVG Export Plug-In . SVG Version: 6.00 Build 0)  -->
<svg version="1.1" id="Слой_1" xmlns="http://www.w3.org/2000/svg" xmlns:xlink="http://www.w3.org/1999/xlink" x="0px" y="0px"
	 viewBox="0 0 1000 1000" style="enable-background:new 0 0 1000 1000;" xml:space="preserve">
<style type="text/css">
	.st0{fill:#AF6646;}
	.st1{fill:#724526;}
	.st2{fill:#8C422F;}
	.st3{fill:#9B5138;}
	.st4{fill:#664435;}
	.st5{fill:#4C291B;}
</style>
<g>
	<g>
		<path class="st0" d="M724.39,364.39l-10.79,78.28l-5.27,38.19l-32.02,232.3c-37.88,10.25-102.71,17-176.31,17
			s-138.43-6.75-176.31-17l-32.02-232.3l-5.27-38.19l-10.79-78.28H724.39z"/>
		<path class="st1" d="M500,735.59c-71.5,0-137.94-6.42-177.72-17.19c-2.1-0.57-3.66-2.34-3.96-4.5l-48.08-348.77
			c-0.21-1.55,0.25-3.12,1.29-4.31c1.03-1.18,2.52-1.86,4.09-1.86h448.77c1.57,0,3.06,0.68,4.09,1.86c1.03,1.18,1.5,2.75,1.29,4.31
			L681.69,713.9c-0.3,2.16-1.86,3.93-3.96,4.5C637.95,729.16,571.51,735.59,500,735.59z M328.58,708.83
			c39.26,9.98,102.88,15.9,171.43,15.9s132.17-5.92,171.43-15.9l46.73-339.01H281.84L328.58,708.83z"/>
	</g>
	<g>
		<ellipse class="st0" cx="500" cy="313.81" rx="244.76" ry="43.97"/>
		<path class="st2" d="M500,363.2c-65.69,0-127.5-4.6-174.03-12.96c-51.24-9.21-76.15-21.12-76.15-36.43
			c0-15.31,24.91-27.23,76.15-36.43c46.53-8.36,108.34-12.96,174.03-12.96s127.51,4.6,174.03,12.96
			c51.24,9.2,76.15,21.12,76.15,36.43c0,15.31-24.91,27.22-76.15,36.43C627.5,358.59,565.69,363.2,500,363.2z M500,275.26
			c-65.08,0-126.2,4.54-172.12,12.79c-66.46,11.94-67.22,25.2-67.22,25.75c0,0.56,0.76,13.81,67.22,25.75
			c45.92,8.25,107.05,12.79,172.12,12.79s126.19-4.54,172.12-12.79c66.46-11.94,67.22-25.19,67.22-25.75
			c0-0.56-0.76-13.82-67.22-25.75C626.2,279.81,565.08,275.26,500,275.26z"/>
	</g>
	<g>
		<path class="st3" d="M286.41,442.67c42.85,13.19,123.55,22.93,213.6,22.93s170.75-9.74,213.6-22.93l-5.27,38.19
			c-43.12,12.54-120.29,20.88-208.33,20.88s-165.2-8.34-208.33-20.88L286.41,442.67z"/>
	</g>
	<g>
		<path class="st4" d="M264.8,359.03c0,0,25.77-72.49,120.67-34.05c0,0,53.89-50.8,124.19-19.77c0,0,56.24-33.23,112.47-1.1
			c0,0,108.96-12.08,101.93,42.83C717.03,401.86,264.8,359.03,264.8,359.03z"/>
		<path class="st5" d="M565.48,380.36c-22.42,0-47.06-0.45-73.86-1.36c-112.8-3.81-226.19-14.47-227.32-14.57
			c-1.67-0.16-3.16-1.07-4.06-2.49c-0.9-1.41-1.1-3.16-0.54-4.73c0.41-1.16,10.41-28.47,40.15-41.83
			c23.3-10.47,51.74-9.34,84.57,3.34c5.11-4.23,17.34-13.39,34.8-20.31c20.81-8.25,53.17-14.67,90.16,0.77
			c11.73-6.15,62.21-29.18,113.93-0.64c11.43-1.07,72.57-5.51,96.58,18.91c7.88,8.02,11.1,18.17,9.56,30.18
			c-2.03,15.84-27.34,25.3-79.64,29.77C626.79,379.38,598.57,380.36,565.48,380.36z M273.07,354.34
			c27.45,2.45,123.43,10.61,218.95,13.83c65.93,2.22,118.71,1.7,156.87-1.56c63.03-5.39,69.35-16.93,69.79-20.34
			c1.11-8.67-1.03-15.6-6.54-21.2c-9.03-9.18-27.2-14.81-52.54-16.27c-19.73-1.14-36.7,0.7-36.87,0.72
			c-1.14,0.13-2.29-0.11-3.29-0.68c-52.89-30.22-106.49,0.74-107.02,1.06c-1.51,0.89-3.35,1-4.95,0.29
			c-66.23-29.24-117.76,18.27-118.27,18.76c-1.54,1.45-3.79,1.88-5.76,1.08c-31.21-12.64-57.78-14.26-78.99-4.8
			C287.23,332.89,277.56,346.33,273.07,354.34z"/>
	</g>
	<g>
		<path class="st1" d="M500,735.59c-71.5,0-137.94-6.42-177.72-17.19c-2.1-0.57-3.66-2.34-3.96-4.5l-48.08-348.77
			c-0.21-1.55,0.25-3.12,1.29-4.31c1.03-1.18,2.52-1.86,4.09-1.86h448.77c1.57,0,3.06,0.68,4.09,1.86c1.03,1.18,1.5,2.75,1.29,4.31
			L681.69,713.9c-0.3,2.16-1.86,3.93-3.96,4.5C637.95,729.16,571.51,735.59,500,735.59z M328.58,708.83
			c39.26,9.98,102.88,15.9,171.43,15.9s132.17-5.92,171.43-15.9l46.73-339.01H281.84L328.58,708.83z"/>
	</g>
	<g>
		<path class="st4" d="M450.26,378.05c0,0,0-48.73,66.21-36.06c0,0,66.21-43.75,111.73,31.33L450.26,378.05z"/>
		<path class="st5" d="M450.26,383.47c-1.41,0-2.77-0.55-3.79-1.54c-1.05-1.02-1.64-2.42-1.64-3.89c0-0.8,0.18-19.73,15.65-32.52
			c12.53-10.36,31.01-13.47,54.93-9.25c7.08-4.14,32.37-17.12,61.4-10.6c22.17,4.98,41.02,20.06,56.04,44.83
			c1,1.65,1.05,3.71,0.12,5.41c-0.93,1.7-2.69,2.77-4.62,2.82l-177.94,4.73C450.36,383.47,450.31,383.47,450.26,383.47z
			 M496.06,345.29c-12.14,0-21.73,2.87-28.66,8.6c-7.04,5.82-9.85,13.45-10.97,18.56l161.9-4.3
			c-12.38-17.37-27.08-28.08-43.79-31.86c-29.01-6.56-54.82,10.06-55.08,10.23c-1.18,0.77-2.62,1.06-4,0.8
			C508.4,345.96,501.93,345.29,496.06,345.29z"/>
	</g>
	<g>
		<path class="st0" d="M744.76,313.81v107.83c0,6.63-8.16,12.91-22.79,18.55C683.02,455.2,598.28,465.6,500,465.6
			s-183.02-10.4-221.98-25.41c-14.62-5.64-22.79-11.92-22.79-18.55V313.81c0,24.28,109.58,43.97,244.76,43.97
			S744.76,338.09,744.76,313.81z"/>
		<path class="st2" d="M500,471.03c-95.39,0-183.29-10.12-223.93-25.78c-17.67-6.82-26.26-14.54-26.26-23.62V313.81
			c0-3,2.43-5.43,5.43-5.43s5.43,2.43,5.43,5.43c0,0.56,0.76,13.81,67.22,25.75c45.92,8.25,107.05,12.79,172.12,12.79
			s126.19-4.54,172.12-12.79c66.46-11.94,67.22-25.19,67.22-25.75c0-3,2.43-5.43,5.43-5.43c3,0,5.43,2.43,5.43,5.43v107.83
			c0,9.07-8.59,16.8-26.26,23.62C683.29,460.91,595.39,471.03,500,471.03z M260.66,329.81v91.82c0,1.01,0.93,6.4,19.31,13.49
			c39.49,15.22,125.86,25.05,220.02,25.05c94.17,0,180.53-9.83,220.02-25.05c18.38-7.09,19.31-12.48,19.31-13.49v-91.82
			c-11.86,7.96-33.52,14.71-65.3,20.42C627.5,358.59,565.69,363.2,500,363.2s-127.5-4.6-174.03-12.96
			C294.18,344.52,272.53,337.77,260.66,329.81z"/>
	</g>
</g>
</svg>
