<?xml version="1.0" encoding="utf-8"?>
<!-- Generator: Adobe Illustrator 25.4.1, SVG Export Plug-In . SVG Version: 6.00 Build 0)  -->
<svg version="1.1" id="Слой_1" xmlns="http://www.w3.org/2000/svg" xmlns:xlink="http://www.w3.org/1999/xlink" x="0px" y="0px"
	 viewBox="0 0 1000 1000" style="enable-background:new 0 0 1000 1000;" xml:space="preserve">
<style type="text/css">
	.st0{fill:#AF6646;}
	.st1{fill:#724526;}
	.st2{fill:#8C422F;}
	.st3{fill:#9B5138;}
	.st4{fill:#664435;}
	.st5{fill:#4C291B;}
	.st6{fill:url(#SVGID_1_);}
</style>
<g>
	<g>
		<path class="st0" d="M724.39,382.62L713.6,460.9l-5.27,38.19l-32.02,232.3c-37.88,10.25-102.71,17-176.31,17
			s-138.43-6.75-176.31-17l-32.02-232.3l-5.27-38.19l-10.79-78.28H724.39z"/>
		<path class="st1" d="M500,753.82c-71.5,0-137.94-6.42-177.72-17.19c-2.1-0.57-3.66-2.34-3.96-4.5l-48.08-348.77
			c-0.21-1.55,0.25-3.12,1.29-4.31c1.03-1.18,2.52-1.86,4.09-1.86h448.77c1.57,0,3.06,0.68,4.09,1.86c1.03,1.18,1.5,2.75,1.29,4.31
			l-48.08,348.77c-0.3,2.16-1.86,3.93-3.96,4.5C637.95,747.39,571.51,753.82,500,753.82z M328.58,727.06
			c39.26,9.98,102.88,15.9,171.43,15.9s132.17-5.92,171.43-15.9l46.73-339.01H281.84L328.58,727.06z"/>
	</g>
	<g>
		<ellipse class="st0" cx="500" cy="332.04" rx="244.76" ry="43.97"/>
		<path class="st2" d="M500,381.43c-65.69,0-127.5-4.6-174.03-12.96c-51.24-9.21-76.15-21.12-76.15-36.43
			c0-15.31,24.91-27.23,76.15-36.43c46.53-8.36,108.34-12.96,174.03-12.96s127.51,4.6,174.03,12.96
			c51.24,9.2,76.15,21.12,76.15,36.43c0,15.31-24.91,27.22-76.15,36.43C627.5,376.82,565.69,381.43,500,381.43z M500,293.49
			c-65.08,0-126.2,4.54-172.12,12.79c-66.46,11.94-67.22,25.2-67.22,25.75c0,0.56,0.76,13.81,67.22,25.75
			c45.92,8.25,107.05,12.79,172.12,12.79s126.19-4.54,172.12-12.79c66.46-11.94,67.22-25.19,67.22-25.75
			c0-0.56-0.76-13.82-67.22-25.75C626.2,298.04,565.08,293.49,500,293.49z"/>
	</g>
	<g>
		<path class="st3" d="M286.41,460.9c42.85,13.19,123.55,22.93,213.6,22.93s170.75-9.74,213.6-22.93l-5.27,38.19
			c-43.12,12.54-120.29,20.88-208.33,20.88s-165.2-8.34-208.33-20.88L286.41,460.9z"/>
	</g>
	<g>
		<path class="st4" d="M264.8,377.26c0,0,25.77-72.49,120.67-34.05c0,0,53.89-50.8,124.19-19.77c0,0,56.24-33.23,112.47-1.1
			c0,0,108.96-12.08,101.93,42.83C717.03,420.09,264.8,377.26,264.8,377.26z"/>
		<path class="st5" d="M565.48,398.59c-22.42,0-47.06-0.45-73.86-1.36c-112.8-3.81-226.19-14.47-227.32-14.57
			c-1.67-0.16-3.16-1.07-4.06-2.49c-0.9-1.41-1.1-3.16-0.54-4.73c0.41-1.16,10.41-28.47,40.15-41.83
			c23.3-10.47,51.74-9.34,84.57,3.34c5.11-4.23,17.34-13.39,34.8-20.31c20.81-8.25,53.17-14.67,90.16,0.77
			c11.73-6.15,62.21-29.18,113.93-0.64c11.43-1.07,72.57-5.51,96.58,18.91c7.88,8.02,11.1,18.17,9.56,30.18
			c-2.03,15.84-27.34,25.3-79.64,29.77C626.79,397.61,598.57,398.59,565.48,398.59z M273.07,372.57
			c27.45,2.45,123.43,10.61,218.95,13.83c65.93,2.22,118.71,1.7,156.87-1.56c63.03-5.39,69.35-16.93,69.79-20.34
			c1.11-8.67-1.03-15.6-6.54-21.2c-9.03-9.18-27.2-14.81-52.54-16.27c-19.73-1.14-36.7,0.7-36.87,0.72
			c-1.14,0.13-2.29-0.11-3.29-0.68c-52.89-30.22-106.49,0.74-107.02,1.06c-1.51,0.89-3.35,1-4.95,0.29
			c-66.23-29.24-117.76,18.27-118.27,18.76c-1.54,1.45-3.79,1.88-5.76,1.08c-31.21-12.64-57.78-14.26-78.99-4.8
			C287.23,351.12,277.56,364.56,273.07,372.57z"/>
	</g>
	<g>
		<path class="st1" d="M500,753.82c-71.5,0-137.94-6.42-177.72-17.19c-2.1-0.57-3.66-2.34-3.96-4.5l-48.08-348.77
			c-0.21-1.55,0.25-3.12,1.29-4.31c1.03-1.18,2.52-1.86,4.09-1.86h448.77c1.57,0,3.06,0.68,4.09,1.86c1.03,1.18,1.5,2.75,1.29,4.31
			l-48.08,348.77c-0.3,2.16-1.86,3.93-3.96,4.5C637.95,747.39,571.51,753.82,500,753.82z M328.58,727.06
			c39.26,9.98,102.88,15.9,171.43,15.9s132.17-5.92,171.43-15.9l46.73-339.01H281.84L328.58,727.06z"/>
	</g>
	
		<radialGradient id="SVGID_1_" cx="500.0041" cy="653.9579" r="79.7344" gradientTransform="matrix(1 0 0 -1 0 1002)" gradientUnits="userSpaceOnUse">
		<stop  offset="0.1643" style="stop-color:#FFDC3F"/>
		<stop  offset="0.9646" style="stop-color:#FFF0AB;stop-opacity:0"/>
	</radialGradient>
	<circle class="st6" cx="500" cy="348.04" r="80.68"/>
	<g>
		<path class="st4" d="M450.26,396.28c0,0,0-48.73,66.21-36.06c0,0,66.21-43.75,111.73,31.33L450.26,396.28z"/>
		<path class="st5" d="M450.26,401.7c-1.41,0-2.77-0.55-3.79-1.54c-1.05-1.02-1.64-2.42-1.64-3.89c0-0.8,0.18-19.73,15.65-32.52
			c12.53-10.36,31.01-13.47,54.93-9.25c7.08-4.14,32.37-17.12,61.4-10.6c22.17,4.98,41.02,20.06,56.04,44.83
			c1,1.65,1.05,3.71,0.12,5.41c-0.93,1.7-2.69,2.77-4.62,2.82l-177.94,4.73C450.36,401.7,450.31,401.7,450.26,401.7z M496.06,363.52
			c-12.14,0-21.73,2.87-28.66,8.6c-7.04,5.82-9.85,13.45-10.97,18.56l161.9-4.3c-12.38-17.37-27.08-28.08-43.79-31.86
			c-29.01-6.56-54.82,10.06-55.08,10.23c-1.18,0.77-2.62,1.06-4,0.8C508.4,364.2,501.93,363.52,496.06,363.52z"/>
	</g>
	<g>
		<path class="st0" d="M744.76,332.04v107.83c0,6.63-8.16,12.91-22.79,18.55c-38.95,15.01-123.69,25.41-221.98,25.41
			s-183.02-10.4-221.98-25.41c-14.62-5.64-22.79-11.92-22.79-18.55V332.04C255.24,356.32,364.82,376,500,376
			S744.76,356.32,744.76,332.04z"/>
		<path class="st2" d="M500,489.26c-95.39,0-183.29-10.12-223.93-25.78c-17.67-6.82-26.26-14.54-26.26-23.62V332.04
			c0-3,2.43-5.43,5.43-5.43s5.43,2.43,5.43,5.43c0,0.56,0.76,13.81,67.22,25.75c45.92,8.25,107.05,12.79,172.12,12.79
			s126.19-4.54,172.12-12.79c66.46-11.94,67.22-25.19,67.22-25.75c0-3,2.43-5.43,5.43-5.43c3,0,5.43,2.43,5.43,5.43v107.83
			c0,9.07-8.59,16.8-26.26,23.62C683.29,479.14,595.39,489.26,500,489.26z M260.66,348.04v91.82c0,1.01,0.93,6.4,19.31,13.49
			c39.49,15.22,125.86,25.05,220.02,25.05c94.17,0,180.53-9.83,220.02-25.05c18.38-7.09,19.31-12.48,19.31-13.49v-91.82
			c-11.86,7.96-33.52,14.71-65.3,20.42c-46.54,8.36-108.34,12.96-174.03,12.96s-127.5-4.6-174.03-12.96
			C294.18,362.75,272.53,356,260.66,348.04z"/>
	</g>
</g>
</svg>
