<?xml version="1.0" encoding="utf-8"?>
<!-- Generator: Adobe Illustrator 25.4.1, SVG Export Plug-In . SVG Version: 6.00 Build 0)  -->
<svg version="1.1" id="Слой_1" xmlns="http://www.w3.org/2000/svg" xmlns:xlink="http://www.w3.org/1999/xlink" x="0px" y="0px"
	 viewBox="0 0 1000 1000" style="enable-background:new 0 0 1000 1000;" xml:space="preserve">
<style type="text/css">
	.st0{fill:#AF6646;}
	.st1{fill:#724526;}
	.st2{fill:#8C422F;}
	.st3{fill:#9B5138;}
	.st4{fill:#664435;}
	.st5{fill:#4C291B;}
	.st6{fill:#97C941;}
	.st7{fill:#779B1E;}
</style>
<g>
	<g>
		<path class="st0" d="M724.39,429.47l-10.79,78.28l-5.27,38.19l-32.02,232.3c-37.88,10.25-102.71,17-176.31,17
			s-138.43-6.75-176.31-17l-32.02-232.3l-5.27-38.19l-10.79-78.28H724.39z"/>
		<path class="st1" d="M500,800.66c-71.5,0-137.94-6.42-177.72-17.19c-2.1-0.57-3.66-2.34-3.96-4.5l-48.08-348.77
			c-0.21-1.55,0.25-3.12,1.28-4.31c1.03-1.18,2.52-1.86,4.09-1.86h448.77c1.57,0,3.06,0.68,4.09,1.86c1.03,1.18,1.5,2.75,1.28,4.31
			l-48.08,348.77c-0.3,2.16-1.86,3.93-3.96,4.5C637.95,794.24,571.51,800.66,500,800.66z M328.58,773.91
			c39.26,9.98,102.88,15.9,171.43,15.9s132.17-5.92,171.43-15.9l46.73-339.01H281.84L328.58,773.91z"/>
	</g>
	<g>
		<ellipse class="st0" cx="500" cy="378.88" rx="244.76" ry="43.97"/>
		<path class="st2" d="M500,428.27c-65.69,0-127.5-4.6-174.03-12.96c-51.24-9.21-76.15-21.12-76.15-36.43
			c0-15.31,24.91-27.23,76.15-36.43c46.53-8.36,108.34-12.96,174.03-12.96s127.51,4.6,174.03,12.96
			c51.24,9.2,76.15,21.12,76.15,36.43c0,15.31-24.91,27.22-76.15,36.43C627.5,423.67,565.69,428.27,500,428.27z M500,340.34
			c-65.08,0-126.2,4.54-172.12,12.79c-66.46,11.94-67.22,25.2-67.22,25.75c0,0.56,0.76,13.81,67.22,25.75
			c45.92,8.25,107.05,12.79,172.12,12.79s126.19-4.54,172.11-12.79c66.46-11.94,67.22-25.19,67.22-25.75
			c0-0.56-0.76-13.82-67.22-25.75C626.2,344.88,565.08,340.34,500,340.34z"/>
	</g>
	<g>
		<path class="st3" d="M286.41,507.75c42.85,13.19,123.55,22.93,213.6,22.93s170.75-9.74,213.6-22.93l-5.27,38.19
			c-43.12,12.54-120.29,20.88-208.33,20.88s-165.2-8.34-208.33-20.88L286.41,507.75z"/>
	</g>
	<g>
		<path class="st4" d="M264.8,424.1c0,0,25.77-72.49,120.67-34.05c0,0,53.89-50.8,124.19-19.77c0,0,56.24-33.23,112.47-1.1
			c0,0,108.96-12.08,101.93,42.83C717.03,466.94,264.8,424.1,264.8,424.1z"/>
		<path class="st5" d="M565.48,445.43c-22.42,0-47.06-0.45-73.86-1.36c-112.8-3.81-226.19-14.47-227.32-14.57
			c-1.66-0.16-3.16-1.07-4.06-2.49c-0.9-1.41-1.1-3.16-0.54-4.73c0.41-1.16,10.41-28.47,40.15-41.83
			c23.3-10.47,51.74-9.34,84.57,3.34c5.11-4.23,17.34-13.39,34.8-20.31c20.81-8.25,53.17-14.67,90.16,0.77
			c11.73-6.15,62.21-29.18,113.92-0.64c11.44-1.07,72.57-5.51,96.59,18.91c7.88,8.02,11.1,18.17,9.56,30.18
			c-2.03,15.84-27.34,25.3-79.65,29.77C626.79,444.45,598.57,445.43,565.48,445.43z M273.07,419.41
			c27.45,2.45,123.43,10.61,218.95,13.83c65.93,2.22,118.71,1.7,156.87-1.56c63.03-5.39,69.35-16.93,69.79-20.34
			c1.11-8.66-1.03-15.6-6.53-21.19c-22.29-22.68-88.75-15.63-89.42-15.56c-1.15,0.13-2.29-0.11-3.29-0.68
			c-52.73-30.13-106.49,0.75-107.03,1.06c-1.5,0.88-3.35,0.99-4.94,0.29c-27.64-12.2-55.87-12.82-83.89-1.82
			c-21.15,8.3-34.26,20.46-34.39,20.58c-1.54,1.45-3.79,1.87-5.75,1.08c-31.21-12.64-57.78-14.26-78.99-4.8
			C287.23,397.96,277.56,411.41,273.07,419.41z"/>
	</g>
	<g>
		<g>
			<path class="st6" d="M507.56,263.96c0,0,7.79-68.11,86.12-58.21C593.69,205.75,551.7,280.06,507.56,263.96z"/>
			<path class="st7" d="M520.31,271.65c-4.98,0-9.86-0.86-14.6-2.59c-2.36-0.86-3.82-3.22-3.53-5.71
				c0.14-1.21,3.67-29.9,27.49-48.59c16.43-12.89,38.19-17.73,64.7-14.38c1.79,0.23,3.36,1.33,4.17,2.95
				c0.81,1.62,0.76,3.53-0.12,5.1c-0.44,0.78-11.03,19.37-27.34,36.24C553.82,262.52,536.53,271.65,520.31,271.65z M513.82,260.13
				c14.94,3.18,31.51-4.49,49.32-22.87c9.35-9.65,16.84-20.13,21.3-26.91c-19.57-1.07-35.68,3.24-47.98,12.85
				C521.34,235.02,515.71,252.11,513.82,260.13z"/>
		</g>
		<g>
			<path class="st7" d="M507.79,413.65c-0.43,0-0.87-0.05-1.31-0.16c-2.91-0.72-4.68-3.66-3.96-6.57
				c15.83-64.01,0.09-149.77-0.07-150.63c-0.55-2.94,1.39-5.78,4.33-6.33c2.94-0.55,5.78,1.39,6.33,4.33
				c0.67,3.6,16.33,88.96-0.07,155.23C512.44,411.99,510.23,413.65,507.79,413.65z"/>
		</g>
		<g>
			<path class="st6" d="M503.63,267.96c0,0-67.07,14.23-82.53-63.2C421.1,204.77,504.89,221,503.63,267.96z"/>
			<path class="st7" d="M491.35,274.44c-10.83,0-26.63-2.08-41.4-11.81c-17.44-11.48-28.94-30.59-34.17-56.8
				c-0.35-1.77,0.2-3.61,1.47-4.89c1.27-1.28,3.1-1.84,4.88-1.5c0.88,0.17,21.87,4.31,43.04,14.42
				c29.28,13.98,44.46,32.74,43.88,54.25c-0.07,2.51-1.84,4.64-4.3,5.16C504.26,273.38,499.07,274.44,491.35,274.44z M503.63,267.96
				h0.01H503.63z M428.4,212.08c5.2,18.89,14.4,32.8,27.42,41.41c16,10.59,34,10.5,42.2,9.76c-1.73-15.18-14.26-28.46-37.34-39.52
				C448.56,217.93,436.24,214.15,428.4,212.08z"/>
		</g>
	</g>
	<g>
		<path class="st1" d="M500,800.66c-71.5,0-137.94-6.42-177.72-17.19c-2.1-0.57-3.66-2.34-3.96-4.5l-48.08-348.77
			c-0.21-1.55,0.25-3.12,1.28-4.31c1.03-1.18,2.52-1.86,4.09-1.86h448.77c1.57,0,3.06,0.68,4.09,1.86c1.03,1.18,1.5,2.75,1.28,4.31
			l-48.08,348.77c-0.3,2.16-1.86,3.93-3.96,4.5C637.95,794.24,571.51,800.66,500,800.66z M328.58,773.91
			c39.26,9.98,102.88,15.9,171.43,15.9s132.17-5.92,171.43-15.9l46.73-339.01H281.84L328.58,773.91z"/>
	</g>
	<g>
		<path class="st4" d="M450.26,443.12c0,0,0-48.73,66.21-36.06c0,0,66.21-43.75,111.73,31.33L450.26,443.12z"/>
		<path class="st5" d="M450.26,448.54c-1.41,0-2.77-0.55-3.79-1.54c-1.05-1.02-1.64-2.42-1.64-3.89c0-0.8,0.18-19.73,15.65-32.52
			c12.53-10.36,31.01-13.47,54.93-9.25c7.08-4.14,32.36-17.12,61.4-10.6c22.17,4.98,41.02,20.06,56.03,44.83
			c1,1.65,1.05,3.71,0.12,5.41c-0.93,1.7-2.69,2.77-4.62,2.82l-177.94,4.73C450.36,448.54,450.31,448.54,450.26,448.54z
			 M496.06,410.36c-12.13,0-21.73,2.87-28.66,8.6c-7.04,5.82-9.85,13.45-10.97,18.56l161.9-4.3
			c-12.38-17.37-27.08-28.08-43.79-31.86c-29.01-6.57-54.82,10.06-55.08,10.23c-1.18,0.77-2.62,1.06-4,0.8
			C508.4,411.04,501.93,410.36,496.06,410.36z"/>
	</g>
	<g>
		<path class="st0" d="M744.76,378.88v107.83c0,6.63-8.16,12.91-22.79,18.55c-38.95,15.01-123.69,25.41-221.98,25.41
			s-183.02-10.4-221.98-25.41c-14.62-5.64-22.79-11.92-22.79-18.55V378.88c0,24.28,109.58,43.97,244.76,43.97
			S744.76,403.16,744.76,378.88z"/>
		<path class="st2" d="M500,536.1c-95.39,0-183.29-10.12-223.93-25.78c-17.67-6.82-26.26-14.54-26.26-23.62V378.88
			c0-3,2.43-5.43,5.43-5.43s5.43,2.43,5.43,5.43c0,0.56,0.76,13.81,67.22,25.75c45.92,8.25,107.05,12.79,172.12,12.79
			s126.19-4.54,172.11-12.79c66.46-11.94,67.22-25.19,67.22-25.75c0-3,2.43-5.43,5.43-5.43c3,0,5.43,2.43,5.43,5.43v107.83
			c0,9.07-8.59,16.8-26.26,23.62C683.29,525.98,595.39,536.1,500,536.1z M260.66,394.88v91.82c0,1.01,0.93,6.4,19.31,13.49
			c39.49,15.22,125.85,25.05,220.02,25.05c94.17,0,180.53-9.83,220.02-25.05c18.38-7.09,19.31-12.48,19.31-13.49v-91.82
			c-11.86,7.96-33.52,14.71-65.3,20.42c-46.54,8.36-108.34,12.96-174.03,12.96s-127.5-4.6-174.03-12.96
			C294.18,409.6,272.53,402.84,260.66,394.88z"/>
	</g>
</g>
</svg>
