<?xml version="1.0" encoding="utf-8"?>
<!-- Generator: Adobe Illustrator 25.4.1, SVG Export Plug-In . SVG Version: 6.00 Build 0)  -->
<svg version="1.1" id="Слой_1" xmlns="http://www.w3.org/2000/svg" xmlns:xlink="http://www.w3.org/1999/xlink" x="0px" y="0px"
	 viewBox="0 0 1000 1000" style="enable-background:new 0 0 1000 1000;" xml:space="preserve">
<style type="text/css">
	.st0{fill:#AF6646;}
	.st1{fill:#724526;}
	.st2{fill:#8C422F;}
	.st3{fill:#9B5138;}
	.st4{fill:#664435;}
	.st5{fill:#4C291B;}
	.st6{fill:#97C941;}
	.st7{fill:#779B1E;}
	.st8{fill:#FFFFFF;}
</style>
<g>
	<g>
		<path class="st0" d="M724.39,552.32L713.6,630.6l-5.27,38.19l-32.02,232.3c-37.88,10.25-102.71,17-176.31,17
			s-138.43-6.75-176.31-17l-32.02-232.3l-5.27-38.19l-10.79-78.28H724.39z"/>
		<path class="st1" d="M500,923.51c-71.5,0-137.94-6.42-177.72-17.19c-2.1-0.57-3.66-2.34-3.96-4.5l-48.08-348.77
			c-0.21-1.55,0.25-3.12,1.28-4.31s2.52-1.86,4.09-1.86h448.77c1.57,0,3.06,0.68,4.09,1.86c1.03,1.18,1.5,2.75,1.28,4.31
			l-48.08,348.77c-0.3,2.16-1.86,3.93-3.96,4.5C637.95,917.09,571.51,923.51,500,923.51z M328.58,896.76
			c39.26,9.98,102.88,15.9,171.43,15.9s132.17-5.92,171.43-15.9l46.73-339.01H281.84L328.58,896.76z"/>
	</g>
	<g>
		<ellipse class="st0" cx="500" cy="501.73" rx="244.76" ry="43.97"/>
		<path class="st2" d="M500,551.12c-65.69,0-127.5-4.6-174.03-12.96c-51.24-9.21-76.15-21.12-76.15-36.43
			c0-15.31,24.91-27.23,76.15-36.43c46.53-8.36,108.34-12.96,174.03-12.96s127.51,4.6,174.03,12.96
			c51.24,9.2,76.15,21.12,76.15,36.43c0,15.31-24.91,27.22-76.15,36.43C627.5,546.52,565.69,551.12,500,551.12z M500,463.19
			c-65.08,0-126.2,4.54-172.12,12.79c-66.46,11.94-67.22,25.2-67.22,25.75c0,0.56,0.76,13.81,67.22,25.75
			c45.92,8.25,107.05,12.79,172.12,12.79s126.19-4.54,172.11-12.79c66.46-11.94,67.22-25.19,67.22-25.75
			c0-0.56-0.76-13.82-67.22-25.75C626.2,467.73,565.08,463.19,500,463.19z"/>
	</g>
	<g>
		<path class="st3" d="M286.41,630.6c42.85,13.19,123.55,22.93,213.6,22.93s170.75-9.74,213.6-22.93l-5.27,38.19
			c-43.12,12.54-120.29,20.88-208.33,20.88s-165.2-8.34-208.33-20.88L286.41,630.6z"/>
	</g>
	<g>
		<path class="st4" d="M264.8,546.96c0,0,25.77-72.49,120.67-34.05c0,0,53.89-50.8,124.19-19.77c0,0,56.24-33.23,112.47-1.1
			c0,0,108.96-12.08,101.93,42.83C717.03,589.79,264.8,546.96,264.8,546.96z"/>
		<path class="st5" d="M565.48,568.29c-22.42,0-47.06-0.45-73.86-1.36c-112.8-3.81-226.19-14.47-227.32-14.57
			c-1.66-0.16-3.16-1.07-4.06-2.49c-0.9-1.41-1.1-3.16-0.54-4.73c0.41-1.16,10.41-28.47,40.15-41.83
			c23.3-10.47,51.74-9.34,84.57,3.34c5.11-4.23,17.34-13.39,34.8-20.31c20.81-8.25,53.17-14.67,90.16,0.77
			c11.73-6.15,62.22-29.18,113.92-0.64c11.44-1.07,72.57-5.51,96.59,18.91c7.88,8.02,11.1,18.17,9.56,30.18
			c-2.03,15.84-27.34,25.3-79.65,29.77C626.79,567.3,598.57,568.29,565.48,568.29z M273.07,542.26
			c27.45,2.45,123.43,10.61,218.95,13.83c65.93,2.22,118.71,1.7,156.87-1.56c63.03-5.39,69.35-16.93,69.79-20.34
			c1.11-8.66-1.03-15.6-6.53-21.19c-22.29-22.68-88.75-15.63-89.42-15.56c-1.15,0.13-2.29-0.11-3.29-0.68
			c-52.88-30.22-106.48,0.74-107.02,1.06c-1.51,0.89-3.35,1-4.95,0.29c-27.64-12.2-55.87-12.82-83.89-1.82
			c-21.15,8.3-34.26,20.46-34.39,20.58c-1.54,1.45-3.79,1.87-5.75,1.08c-31.21-12.64-57.78-14.26-78.99-4.8
			C287.23,520.81,277.56,534.26,273.07,542.26z"/>
	</g>
	<g>
		<path class="st1" d="M500,923.51c-71.5,0-137.94-6.42-177.72-17.19c-2.1-0.57-3.66-2.34-3.96-4.5l-48.08-348.77
			c-0.21-1.55,0.25-3.12,1.28-4.31s2.52-1.86,4.09-1.86h448.77c1.57,0,3.06,0.68,4.09,1.86c1.03,1.18,1.5,2.75,1.28,4.31
			l-48.08,348.77c-0.3,2.16-1.86,3.93-3.96,4.5C637.95,917.09,571.51,923.51,500,923.51z M328.58,896.76
			c39.26,9.98,102.88,15.9,171.43,15.9s132.17-5.92,171.43-15.9l46.73-339.01H281.84L328.58,896.76z"/>
	</g>
	<g>
		<g>
			<path class="st6" d="M360.27,82.82c0,0,97.9-16.2,129.18,89.11C489.45,171.93,373.62,220.63,360.27,82.82z"/>
			<path class="st7" d="M445.44,185.76c-14.31,0-30.15-2.79-44.72-11.48c-26.09-15.57-41.52-46.17-45.86-90.93
				c-0.27-2.84,1.7-5.41,4.52-5.87c1.05-0.17,26.11-4.16,55.4,5.25c27.14,8.71,63.03,31,79.86,87.67c0.79,2.65-0.55,5.47-3.1,6.55
				C490.24,177.49,470.11,185.76,445.44,185.76z M366.25,87.64c4.62,38.18,18.06,64.17,39.98,77.29
				c28.41,16.99,63.96,7.8,76.49,3.67c-12.85-39.08-36.8-64.48-71.25-75.54C392.09,86.83,374.57,87.03,366.25,87.64z"/>
		</g>
		<g>
			<path class="st7" d="M507.36,540.42c-0.02,0-0.04,0-0.06,0c-3-0.03-5.4-2.49-5.37-5.49c1.14-102.58-17.71-370.09-17.9-372.78
				c-0.21-2.99,2.04-5.58,5.03-5.79c2.96-0.23,5.58,2.04,5.79,5.03c0.19,2.69,19.08,270.65,17.93,373.67
				C512.75,538.03,510.33,540.42,507.36,540.42z"/>
		</g>
		<g>
			<path class="st6" d="M499.59,388.85c0,0-156.02,31.74-149.42-92.27C350.17,296.58,491.12,313.53,499.59,388.85z"/>
			<path class="st7" d="M458.35,397.91c-1.51,0-3.05-0.01-4.61-0.05c-35.2-0.71-62.55-9.27-81.31-25.44
				c-20.13-17.36-29.45-42.98-27.68-76.13c0.08-1.5,0.78-2.9,1.93-3.86c1.15-0.97,2.64-1.41,4.14-1.23
				c1.47,0.18,36.31,4.47,72.8,18.2c49.53,18.63,77.66,45.89,81.37,78.85c0.31,2.79-1.56,5.36-4.31,5.92
				C499.87,394.33,481.96,397.91,458.35,397.91z M355.4,302.83c-0.25,26.71,7.85,47.33,24.1,61.36
				c11.51,9.94,33.74,21.96,74.22,22.82c17.28,0.36,32.19-1.46,39.67-2.61C481.46,326.59,380.95,306.92,355.4,302.83z"/>
		</g>
		<g>
			<path class="st6" d="M505.72,477.09c0,0,35.88-110.59,141.92-80.94C647.64,396.14,608.79,515.49,505.72,477.09z"/>
			<path class="st7" d="M544.96,490.13c-13.15,0-26.89-2.65-41.14-7.96c-2.72-1.01-4.16-3.99-3.27-6.76
				c0.38-1.17,9.6-29.07,32.38-53.61c21.31-22.95,58.75-46.94,116.16-30.89c1.42,0.4,2.62,1.36,3.32,2.66
				c0.7,1.3,0.83,2.84,0.38,4.24c-0.8,2.45-20.05,60.17-67.68,83.16C572.48,487.08,559.06,490.13,544.96,490.13z M512.76,473.8
				c24.64,8.04,47.35,7.19,67.59-2.57c35.36-17.04,54.2-56.83,60.08-71.35c-39.24-9.29-72.63,0.47-99.31,29.05
				C525.34,445.84,516.37,464.96,512.76,473.8z"/>
		</g>
		<g>
			<path class="st6" d="M502.99,480.38c0,0-110.83,51.35-152.82-68.93C350.17,411.45,494.52,405.05,502.99,480.38z"/>
			<path class="st7" d="M450.15,496.75c-13.23,0-27.66-2.11-41.89-8.13c-28.73-12.16-49.99-37.52-63.21-75.37
				c-0.57-1.62-0.33-3.41,0.63-4.83c0.96-1.42,2.54-2.3,4.25-2.38c1.5-0.07,37.2-1.54,74.59,6.33
				c51.11,10.76,80.11,34.07,83.86,67.41c0.26,2.32-0.99,4.55-3.11,5.53C503.85,485.96,480.07,496.75,450.15,496.75z M357.93,416.76
				c12.22,30.87,30.52,51.65,54.48,61.83c35.01,14.86,72.78,2.88,84.58-1.61C486.17,420.84,386.38,416.77,357.93,416.76z"/>
		</g>
		<g>
			<path class="st6" d="M499.59,388.85c0,0,15.67-113.06,151.14-83.37C650.73,305.48,657.1,362.51,499.59,388.85z"/>
			<path class="st7" d="M499.59,394.27c-1.4,0-2.76-0.54-3.78-1.54c-1.24-1.2-1.83-2.92-1.59-4.64c0.26-1.88,6.83-46.41,45.53-73.38
				c28.34-19.75,66.07-24.65,112.14-14.55c2.27,0.5,3.97,2.39,4.23,4.7c0.28,2.54,5.09,62.45-155.64,89.32
				C500.19,394.25,499.89,394.27,499.59,394.27z M608.2,305.93c-24.5,0-45.34,5.91-62.25,17.7c-25.87,18.03-35.88,45.41-39.35,58.5
				c42.23-7.63,95.01-21.88,122.63-47.58c11.51-10.7,14.82-19.83,15.76-24.73C631.94,307.22,619.67,305.93,608.2,305.93z"/>
		</g>
		<g>
			<path class="st8" d="M504.44,391.03c-0.61,0-1.23-0.19-1.76-0.57c-1.35-0.97-1.65-2.86-0.67-4.21
				c0.53-0.73,13.24-18.18,33.57-34.81c27.17-22.24,54.9-32.05,80.22-28.37c1.65,0.24,2.79,1.77,2.55,3.42
				c-0.24,1.65-1.77,2.8-3.42,2.55c-57.26-8.34-107.53,60.06-108.03,60.75C506.3,390.6,505.38,391.03,504.44,391.03z"/>
		</g>
		<g>
			<path class="st8" d="M509.44,480.1c-1.1,0-2.16-0.61-2.69-1.66c-0.75-1.49-0.15-3.3,1.33-4.05c0.53-0.27,53.66-27.21,94.99-59.52
				c1.31-1.03,3.21-0.79,4.23,0.52c1.03,1.31,0.79,3.2-0.52,4.23c-41.81,32.68-95.45,59.88-95.99,60.15
				C510.36,479.99,509.89,480.1,509.44,480.1z"/>
		</g>
		<g>
			<path class="st8" d="M499.95,481.32c-0.67,0-1.34-0.22-1.9-0.68c-31.75-25.95-58.58-36.26-75.5-40.34
				c-18.28-4.41-29.23-2.69-29.34-2.67c-1.64,0.27-3.19-0.83-3.47-2.47c-0.28-1.64,0.82-3.19,2.46-3.47
				c1.87-0.32,46.63-7.23,109.66,44.29c1.29,1.05,1.48,2.95,0.43,4.24C501.69,480.94,500.82,481.32,499.95,481.32z"/>
		</g>
		<g>
			<path class="st8" d="M499.59,391.86c-0.84,0-1.67-0.35-2.27-1.03c-40.77-46.47-104.37-55.26-105.01-55.34
				c-1.65-0.22-2.81-1.73-2.6-3.38c0.21-1.65,1.71-2.82,3.38-2.6c2.69,0.35,66.5,9.19,108.75,57.34c1.1,1.25,0.97,3.16-0.28,4.25
				C501,391.62,500.29,391.86,499.59,391.86z"/>
		</g>
		<g>
			<path class="st6" d="M498.45,287.39c0,0,4.32-106.33,134.27-96.05C632.72,191.34,626.27,293.23,498.45,287.39z"/>
			<path class="st7" d="M508.41,293.04c-3.49,0-6.9-0.08-10.21-0.24c-2.98-0.14-5.29-2.66-5.17-5.64
				c0.07-1.76,2.14-43.55,35.74-73.35c24.83-22.02,59.95-31.4,104.38-27.89c2.95,0.23,5.17,2.79,4.99,5.75
				c-0.07,1.1-1.92,27.31-20.2,53.01C590.12,283.83,544.84,293.04,508.41,293.04z M504.48,282.16
				c48.05,0.99,83.26-13.71,104.62-43.75c11.82-16.63,16.04-33.64,17.49-42.04c-38.59-2.08-69.03,6.48-90.51,25.47
				C512.67,242.53,506.21,270.5,504.48,282.16z"/>
		</g>
		<g>
			<path class="st6" d="M353.6,201.7c0,0,110.48-31.79,142,83.01C495.61,284.71,373.74,314.62,353.6,201.7z"/>
			<path class="st7" d="M461,293.79c-20.34,0-46.06-3.65-68.27-18.11c-23.6-15.35-38.56-39.92-44.46-73.03
				c-0.49-2.73,1.17-5.4,3.84-6.17c2.05-0.59,50.63-14.15,93.85,10.1c26.53,14.89,45,40.69,54.89,76.69
				c0.39,1.41,0.19,2.92-0.55,4.18c-0.74,1.26-1.96,2.17-3.38,2.52C495.69,290.28,480.93,293.79,461,293.79z M359.93,205.8
				c5.91,27.45,18.89,47.88,38.65,60.75c32.51,21.19,75.07,16.53,90.14,13.98c-9.38-30.13-25.51-51.79-48-64.44
				C408.98,198.24,372.79,203.2,359.93,205.8z"/>
		</g>
		<g>
			<path class="st8" d="M498.45,289.8c-0.44,0-0.89-0.12-1.29-0.38c-1.12-0.71-1.46-2.2-0.74-3.33
				c0.35-0.55,36.01-55.71,101.85-71.69c1.29-0.32,2.6,0.48,2.91,1.77c0.31,1.29-0.48,2.6-1.77,2.91
				c-63.98,15.53-98.58,69.05-98.92,69.59C500.03,289.4,499.25,289.8,498.45,289.8z"/>
		</g>
		<g>
			<path class="st8" d="M492.49,287.4c-0.88,0-1.75-0.38-2.35-1.12c-46.98-58.23-92.42-60.85-92.87-60.87
				c-1.66-0.07-2.95-1.48-2.88-3.14c0.07-1.66,1.48-2.92,3.13-2.89c1.96,0.08,48.48,2.57,97.32,63.1c1.05,1.3,0.84,3.19-0.45,4.24
				C493.82,287.18,493.15,287.4,492.49,287.4z"/>
		</g>
		<g>
			<path class="st6" d="M489.45,171.35c0,0,10.14-82.48,137.08-89.42C626.53,81.93,607.63,215.74,489.45,171.35z"/>
			<path class="st7" d="M534.13,185.8c-14.38,0-29.94-3.12-46.59-9.38c-2.35-0.88-3.78-3.25-3.48-5.74
				c0.11-0.91,2.96-22.5,22.2-44.97c31.67-36.97,82.72-47.16,119.97-49.2c1.64-0.1,3.2,0.55,4.29,1.75c1.1,1.2,1.6,2.82,1.38,4.43
				c-0.37,2.64-9.66,65.05-54.4,91.6C564.57,181.97,550.06,185.8,534.13,185.8z M495.72,167.84c29.97,10.33,55.61,9.36,76.24-2.88
				c32.25-19.14,44.33-60.91,47.92-77.15c-46.69,3.75-82.88,19.05-104.93,44.45C502.36,146.76,497.46,161.01,495.72,167.84z"/>
		</g>
		<g>
			<path class="st8" d="M493.17,174.41c-0.67,0-1.34-0.22-1.89-0.67c-1.29-1.05-1.49-2.94-0.45-4.24
				c34.88-43.08,98.77-59.99,101.47-60.69c1.61-0.42,3.25,0.55,3.67,2.16c0.42,1.61-0.55,3.26-2.16,3.67
				c-0.64,0.17-64.68,17.14-98.3,58.65C494.92,174.03,494.05,174.41,493.17,174.41z"/>
		</g>
		<g>
			<path class="st8" d="M486.59,176.91c-0.83,0-1.66-0.34-2.25-1.01c-53.63-60.32-93.19-65.05-93.58-65.09
				c-1.65-0.17-2.86-1.65-2.69-3.3c0.17-1.65,1.64-2.86,3.29-2.7c1.69,0.16,42.07,4.75,97.49,67.08c1.11,1.24,0.99,3.15-0.25,4.25
				C488.01,176.66,487.3,176.91,486.59,176.91z"/>
		</g>
		<g>
			<path class="st7" d="M445.44,185.76c-14.31,0-30.15-2.79-44.72-11.48c-26.09-15.57-41.52-46.17-45.86-90.93
				c-0.27-2.84,1.7-5.41,4.52-5.87c1.05-0.17,26.11-4.16,55.4,5.25c27.14,8.71,63.03,31,79.86,87.67c0.79,2.65-0.55,5.47-3.1,6.55
				C490.24,177.49,470.11,185.76,445.44,185.76z M366.25,87.64c4.62,38.18,18.06,64.17,39.98,77.29
				c28.41,16.99,63.96,7.8,76.49,3.67c-12.85-39.08-36.8-64.48-71.25-75.54C392.09,86.83,374.57,87.03,366.25,87.64z"/>
		</g>
		<g>
			<path class="st7" d="M458.35,397.91c-1.51,0-3.05-0.01-4.61-0.05c-35.2-0.71-62.55-9.27-81.31-25.44
				c-20.13-17.36-29.45-42.98-27.68-76.13c0.08-1.5,0.78-2.9,1.93-3.86c1.15-0.97,2.64-1.41,4.14-1.23
				c1.47,0.18,36.31,4.47,72.8,18.2c49.53,18.63,77.66,45.89,81.37,78.85c0.31,2.79-1.56,5.36-4.31,5.92
				C499.87,394.33,481.96,397.91,458.35,397.91z M355.4,302.83c-0.25,26.71,7.85,47.33,24.1,61.36
				c11.51,9.94,33.74,21.96,74.22,22.82c17.28,0.36,32.19-1.46,39.67-2.61C481.46,326.59,380.95,306.92,355.4,302.83z"/>
		</g>
		<g>
			<path class="st7" d="M544.96,490.13c-13.15,0-26.89-2.65-41.14-7.96c-2.72-1.01-4.16-3.99-3.27-6.76
				c0.38-1.17,9.6-29.07,32.38-53.61c21.31-22.95,58.75-46.94,116.16-30.89c1.42,0.4,2.62,1.36,3.32,2.66
				c0.7,1.3,0.83,2.84,0.38,4.24c-0.8,2.45-20.05,60.17-67.68,83.16C572.48,487.08,559.06,490.13,544.96,490.13z M512.76,473.8
				c24.64,8.04,47.35,7.19,67.59-2.57c35.36-17.04,54.2-56.83,60.08-71.35c-39.24-9.29-72.63,0.47-99.31,29.05
				C525.34,445.84,516.37,464.96,512.76,473.8z"/>
		</g>
		<g>
			<path class="st7" d="M450.15,496.75c-13.23,0-27.66-2.11-41.89-8.13c-28.73-12.16-49.99-37.52-63.21-75.37
				c-0.57-1.62-0.33-3.41,0.63-4.83c0.96-1.42,2.54-2.3,4.25-2.38c1.5-0.07,37.2-1.54,74.59,6.33
				c51.11,10.76,80.11,34.07,83.86,67.41c0.26,2.32-0.99,4.55-3.11,5.53C503.85,485.96,480.07,496.75,450.15,496.75z M357.93,416.76
				c12.22,30.87,30.52,51.65,54.48,61.83c35.01,14.86,72.78,2.88,84.58-1.61C486.17,420.84,386.38,416.77,357.93,416.76z"/>
		</g>
		<g>
			<path class="st7" d="M499.59,394.27c-1.4,0-2.76-0.54-3.78-1.54c-1.24-1.2-1.83-2.92-1.59-4.64c0.26-1.88,6.83-46.41,45.53-73.38
				c28.34-19.75,66.07-24.65,112.14-14.55c2.27,0.5,3.97,2.39,4.23,4.7c0.28,2.54,5.09,62.45-155.64,89.32
				C500.19,394.25,499.89,394.27,499.59,394.27z M608.2,305.93c-24.5,0-45.34,5.91-62.25,17.7c-25.87,18.03-35.88,45.41-39.35,58.5
				c42.23-7.63,95.01-21.88,122.63-47.58c11.51-10.7,14.82-19.83,15.76-24.73C631.94,307.22,619.67,305.93,608.2,305.93z"/>
		</g>
		<g>
			<path class="st7" d="M508.41,293.04c-3.49,0-6.9-0.08-10.21-0.24c-2.98-0.14-5.29-2.66-5.17-5.64
				c0.07-1.76,2.14-43.55,35.74-73.35c24.83-22.02,59.95-31.4,104.38-27.89c2.95,0.23,5.17,2.79,4.99,5.75
				c-0.07,1.1-1.92,27.31-20.2,53.01C590.12,283.83,544.84,293.04,508.41,293.04z M504.48,282.16
				c48.05,0.99,83.26-13.71,104.62-43.75c11.82-16.63,16.04-33.64,17.49-42.04c-38.59-2.08-69.03,6.48-90.51,25.47
				C512.67,242.53,506.21,270.5,504.48,282.16z"/>
		</g>
		<g>
			<path class="st7" d="M461,293.79c-20.34,0-46.06-3.65-68.27-18.11c-23.6-15.35-38.56-39.92-44.46-73.03
				c-0.49-2.73,1.17-5.4,3.84-6.17c2.05-0.59,50.63-14.15,93.85,10.1c26.53,14.89,45,40.69,54.89,76.69
				c0.39,1.41,0.19,2.92-0.55,4.18c-0.74,1.26-1.96,2.17-3.38,2.52C495.69,290.28,480.93,293.79,461,293.79z M359.93,205.8
				c5.91,27.45,18.89,47.88,38.65,60.75c32.51,21.19,75.07,16.53,90.14,13.98c-9.38-30.13-25.51-51.79-48-64.44
				C408.98,198.24,372.79,203.2,359.93,205.8z"/>
		</g>
		<g>
			<path class="st7" d="M534.13,185.8c-14.38,0-29.94-3.12-46.59-9.38c-2.35-0.88-3.78-3.25-3.48-5.74
				c0.11-0.91,2.96-22.5,22.2-44.97c31.67-36.97,82.72-47.16,119.97-49.2c1.64-0.1,3.2,0.55,4.29,1.75c1.1,1.2,1.6,2.82,1.38,4.43
				c-0.37,2.64-9.66,65.05-54.4,91.6C564.57,181.97,550.06,185.8,534.13,185.8z M495.72,167.84c29.97,10.33,55.61,9.36,76.24-2.88
				c32.25-19.14,44.33-60.91,47.92-77.15c-46.69,3.75-82.88,19.05-104.93,44.45C502.36,146.76,497.46,161.01,495.72,167.84z"/>
		</g>
	</g>
	<g>
		<path class="st4" d="M450.26,565.97c0,0,0-48.73,66.21-36.06c0,0,66.21-43.75,111.73,31.33L450.26,565.97z"/>
		<path class="st5" d="M450.26,571.4c-1.41,0-2.77-0.55-3.79-1.54c-1.05-1.02-1.64-2.42-1.64-3.89c0-0.8,0.18-19.73,15.65-32.52
			c12.53-10.36,31.01-13.47,54.93-9.25c7.08-4.14,32.36-17.12,61.4-10.6c22.17,4.98,41.02,20.06,56.03,44.83
			c1,1.65,1.05,3.71,0.12,5.41c-0.93,1.7-2.69,2.77-4.62,2.82l-177.94,4.73C450.36,571.39,450.31,571.4,450.26,571.4z
			 M496.06,533.22c-12.13,0-21.73,2.87-28.66,8.6c-7.04,5.82-9.85,13.45-10.97,18.56l161.9-4.3
			c-12.38-17.37-27.08-28.08-43.79-31.86c-29.01-6.57-54.82,10.06-55.08,10.23c-1.18,0.77-2.62,1.06-4,0.8
			C508.4,533.89,501.93,533.22,496.06,533.22z"/>
	</g>
	<g>
		<path class="st0" d="M744.76,501.73v107.83c0,6.63-8.16,12.91-22.79,18.55c-38.95,15.01-123.69,25.41-221.98,25.41
			s-183.02-10.4-221.98-25.41c-14.62-5.64-22.79-11.92-22.79-18.55V501.73c0,24.28,109.58,43.97,244.76,43.97
			S744.76,526.01,744.76,501.73z"/>
		<path class="st2" d="M500,658.95c-95.39,0-183.29-10.12-223.93-25.78c-17.67-6.82-26.26-14.54-26.26-23.62V501.73
			c0-3,2.43-5.43,5.43-5.43s5.43,2.43,5.43,5.43c0,0.56,0.76,13.81,67.22,25.75c45.92,8.25,107.05,12.79,172.12,12.79
			s126.19-4.54,172.11-12.79c66.46-11.94,67.22-25.19,67.22-25.75c0-3,2.43-5.43,5.43-5.43c3,0,5.43,2.43,5.43,5.43v107.83
			c0,9.07-8.59,16.8-26.26,23.62C683.29,648.83,595.39,658.95,500,658.95z M260.66,517.74v91.82c0,1.01,0.93,6.4,19.31,13.49
			C319.47,638.27,405.83,648.1,500,648.1s180.53-9.83,220.02-25.05c18.38-7.09,19.31-12.48,19.31-13.49v-91.82
			c-11.86,7.96-33.52,14.71-65.3,20.42c-46.54,8.36-108.34,12.96-174.03,12.96s-127.5-4.6-174.03-12.96
			C294.18,532.45,272.53,525.69,260.66,517.74z"/>
	</g>
</g>
</svg>
