<?xml version="1.0" encoding="utf-8"?>
<!-- Generator: Adobe Illustrator 25.4.1, SVG Export Plug-In . SVG Version: 6.00 Build 0)  -->
<svg version="1.1" id="Слой_1" xmlns="http://www.w3.org/2000/svg" xmlns:xlink="http://www.w3.org/1999/xlink" x="0px" y="0px"
	 viewBox="0 0 1000 1000" style="enable-background:new 0 0 1000 1000;" xml:space="preserve">
<style type="text/css">
	.st0{fill:#AF6646;}
	.st1{fill:#724526;}
	.st2{fill:#8C422F;}
	.st3{fill:#9B5138;}
	.st4{fill:#664435;}
	.st5{fill:#4C291B;}
	.st6{fill:#779B1E;}
	.st7{fill:#97C941;}
</style>
<g>
	<g>
		<path class="st0" d="M724.39,409.82L713.6,488.1l-5.27,38.19l-32.02,232.3c-37.88,10.25-102.71,17-176.31,17
			s-138.43-6.75-176.31-17l-32.02-232.3l-5.27-38.19l-10.79-78.28H724.39z"/>
		<path class="st1" d="M500,781.01c-71.5,0-137.94-6.42-177.72-17.19c-2.1-0.57-3.66-2.34-3.96-4.5l-48.08-348.77
			c-0.21-1.55,0.25-3.12,1.29-4.31c1.03-1.18,2.52-1.86,4.09-1.86h448.77c1.57,0,3.06,0.68,4.09,1.86c1.03,1.18,1.5,2.75,1.29,4.31
			l-48.08,348.77c-0.3,2.16-1.86,3.93-3.96,4.5C637.95,774.59,571.51,781.01,500,781.01z M328.58,754.26
			c39.26,9.98,102.88,15.9,171.43,15.9s132.17-5.92,171.43-15.9l46.73-339.01H281.84L328.58,754.26z"/>
	</g>
	<g>
		<ellipse class="st0" cx="500" cy="359.23" rx="244.76" ry="43.97"/>
		<path class="st2" d="M500,408.62c-65.69,0-127.5-4.6-174.03-12.96c-51.24-9.21-76.15-21.12-76.15-36.43
			c0-15.31,24.91-27.23,76.15-36.43c46.53-8.36,108.34-12.96,174.03-12.96s127.5,4.6,174.03,12.96
			c51.24,9.2,76.15,21.12,76.15,36.43c0,15.31-24.91,27.22-76.15,36.43C627.5,404.02,565.69,408.62,500,408.62z M500,320.69
			c-65.08,0-126.2,4.54-172.12,12.79c-66.46,11.94-67.22,25.2-67.22,25.75s0.76,13.81,67.22,25.75
			c45.92,8.25,107.05,12.79,172.12,12.79s126.19-4.54,172.12-12.79c66.46-11.94,67.22-25.19,67.22-25.75s-0.76-13.82-67.22-25.75
			C626.2,325.23,565.08,320.69,500,320.69z"/>
	</g>
	<g>
		<path class="st3" d="M286.41,488.1c42.85,13.19,123.55,22.93,213.6,22.93s170.75-9.74,213.6-22.93l-5.27,38.19
			c-43.12,12.54-120.29,20.88-208.33,20.88s-165.2-8.34-208.33-20.88L286.41,488.1z"/>
	</g>
	<g>
		<path class="st4" d="M264.8,404.45c0,0,25.77-72.49,120.67-34.05c0,0,53.89-50.8,124.19-19.77c0,0,56.24-33.23,112.47-1.1
			c0,0,108.96-12.08,101.93,42.83C717.03,447.29,264.8,404.45,264.8,404.45z"/>
		<path class="st5" d="M565.47,425.78c-22.42,0-47.06-0.45-73.86-1.36c-112.8-3.81-226.19-14.47-227.32-14.57
			c-1.67-0.16-3.16-1.07-4.06-2.49c-0.9-1.41-1.1-3.16-0.54-4.73c0.41-1.16,10.41-28.47,40.15-41.83
			c23.3-10.47,51.74-9.34,84.57,3.34c5.11-4.23,17.34-13.39,34.8-20.31c20.81-8.25,53.17-14.67,90.16,0.77
			c11.73-6.15,62.21-29.18,113.93-0.64c11.43-1.07,72.57-5.51,96.59,18.91c7.88,8.02,11.1,18.17,9.56,30.18
			c-2.03,15.84-27.34,25.3-79.64,29.77C626.79,424.8,598.57,425.78,565.47,425.78z M273.07,399.76
			c27.45,2.45,123.43,10.61,218.95,13.83c65.93,2.22,118.71,1.7,156.87-1.56c63.03-5.39,69.35-16.93,69.79-20.34
			c1.11-8.67-1.03-15.6-6.53-21.2c-9.03-9.18-27.2-14.81-52.54-16.27c-19.73-1.14-36.7,0.7-36.87,0.72
			c-1.14,0.13-2.29-0.11-3.29-0.68c-52.89-30.22-106.48,0.74-107.02,1.06c-1.51,0.89-3.35,1-4.95,0.29
			c-27.64-12.2-55.87-12.82-83.88-1.82c-21.15,8.3-34.26,20.46-34.39,20.58c-1.54,1.45-3.79,1.87-5.75,1.08
			c-31.21-12.64-57.79-14.26-78.99-4.8C287.23,378.31,277.56,391.76,273.07,399.76z"/>
	</g>
	<g>
		<g>
			<path class="st6" d="M510.55,395.27c-0.43,0-0.87-0.05-1.31-0.16c-2.91-0.72-4.68-3.66-3.96-6.57
				c10.82-43.74,0.04-102.58-0.07-103.17c-0.55-2.94,1.39-5.78,4.34-6.33c2.94-0.55,5.78,1.39,6.33,4.33
				c0.47,2.5,11.32,61.71-0.07,107.77C515.2,393.62,512.99,395.27,510.55,395.27z"/>
		</g>
		<g>
			<path class="st7" d="M510.44,285.03c0,0,5.38-46.97,59.4-40.14C569.84,244.89,540.88,296.14,510.44,285.03z"/>
			<path class="st6" d="M519.32,292.05c-3.52,0-7.1-0.59-10.74-1.92c-2.36-0.86-3.82-3.22-3.53-5.71
				c0.1-0.86,2.62-21.32,19.59-34.65c11.69-9.18,27.13-12.63,45.87-10.26c1.79,0.23,3.36,1.33,4.17,2.95
				c0.81,1.62,0.76,3.53-0.13,5.1C573.42,249.58,549.04,292.05,519.32,292.05z M516.85,281.02c17.6,2.06,35.22-19.54,43.46-31.38
				c-11.68-0.17-21.36,2.74-28.86,8.59C522.39,265.29,518.45,275.24,516.85,281.02z"/>
		</g>
		<g>
			<path class="st7" d="M510.37,285.18c0,0-14.12-45.12,38.04-60.76C548.41,224.42,542.69,283,510.37,285.18z"/>
			<path class="st6" d="M510.36,290.6c-2.36,0-4.46-1.53-5.18-3.81c-0.26-0.83-6.24-20.55,3.88-39.61
				c6.97-13.13,19.68-22.54,37.78-27.97c1.73-0.52,3.61-0.14,5,1.01c1.4,1.15,2.13,2.92,1.95,4.72
				c-0.25,2.58-6.58,63.19-43.07,65.65C510.61,290.6,510.48,290.6,510.36,290.6z M541.73,232.57c-10.84,4.63-18.59,11.24-23.08,19.7
				c-5.4,10.17-4.96,20.75-4.08,26.64C530.62,273.87,538.67,248.9,541.73,232.57z"/>
		</g>
	</g>
	<g>
		<path class="st1" d="M500,781.01c-71.5,0-137.94-6.42-177.72-17.19c-2.1-0.57-3.66-2.34-3.96-4.5l-48.08-348.77
			c-0.21-1.55,0.25-3.12,1.29-4.31c1.03-1.18,2.52-1.86,4.09-1.86h448.77c1.57,0,3.06,0.68,4.09,1.86c1.03,1.18,1.5,2.75,1.29,4.31
			l-48.08,348.77c-0.3,2.16-1.86,3.93-3.96,4.5C637.95,774.59,571.51,781.01,500,781.01z M328.58,754.26
			c39.26,9.98,102.88,15.9,171.43,15.9s132.17-5.92,171.43-15.9l46.73-339.01H281.84L328.58,754.26z"/>
	</g>
	<g>
		<path class="st4" d="M450.26,423.47c0,0,0-48.73,66.21-36.06c0,0,66.21-43.75,111.73,31.33L450.26,423.47z"/>
		<path class="st5" d="M450.26,428.9c-1.41,0-2.77-0.55-3.79-1.54c-1.05-1.02-1.64-2.42-1.64-3.89c0-0.8,0.18-19.73,15.65-32.52
			c12.53-10.36,31.01-13.47,54.93-9.25c7.08-4.14,32.37-17.12,61.4-10.6c22.17,4.98,41.02,20.06,56.04,44.83
			c1,1.65,1.05,3.71,0.12,5.41c-0.93,1.7-2.69,2.77-4.62,2.82l-177.94,4.73C450.36,428.89,450.31,428.9,450.26,428.9z
			 M496.06,390.71c-12.14,0-21.73,2.87-28.66,8.6c-7.04,5.82-9.85,13.45-10.97,18.56l161.9-4.3
			c-12.38-17.37-27.08-28.08-43.79-31.86c-29.01-6.56-54.82,10.06-55.08,10.23c-1.18,0.77-2.62,1.06-4,0.8
			C508.4,391.39,501.93,390.71,496.06,390.71z"/>
	</g>
	<g>
		<path class="st0" d="M744.76,359.23v107.83c0,6.63-8.16,12.91-22.79,18.55c-38.95,15.01-123.69,25.41-221.98,25.41
			s-183.02-10.4-221.98-25.41c-14.62-5.64-22.79-11.92-22.79-18.55V359.23c0,24.28,109.58,43.97,244.76,43.97
			S744.76,383.51,744.76,359.23z"/>
		<path class="st2" d="M500,516.45c-95.39,0-183.29-10.12-223.93-25.78c-17.67-6.82-26.26-14.54-26.26-23.62V359.23
			c0-3,2.43-5.43,5.43-5.43c3,0,5.43,2.43,5.43,5.43c0,0.56,0.76,13.81,67.22,25.75c45.92,8.25,107.05,12.79,172.12,12.79
			s126.19-4.54,172.12-12.79c66.46-11.94,67.22-25.19,67.22-25.75c0-3,2.43-5.43,5.43-5.43c3,0,5.42,2.43,5.42,5.43v107.83
			c0,9.07-8.59,16.8-26.26,23.62C683.29,506.33,595.39,516.45,500,516.45z M260.66,375.24v91.82c0,1.01,0.93,6.4,19.31,13.49
			C319.47,495.77,405.83,505.6,500,505.6c94.17,0,180.53-9.83,220.02-25.05c18.38-7.09,19.31-12.48,19.31-13.49v-91.82
			c-11.86,7.96-33.52,14.71-65.3,20.42c-46.54,8.36-108.34,12.96-174.03,12.96s-127.5-4.6-174.03-12.96
			C294.18,389.95,272.53,383.19,260.66,375.24z"/>
	</g>
</g>
</svg>
