<svg width="333" height="229" viewBox="0 0 333 229" fill="none" xmlns="http://www.w3.org/2000/svg">
    <path d="M166.038 100.954C166.021 100.969 165.992 100.984 165.95 101C165.858 101.355 165.915 99.2191 166.121 94.5938C166.327 89.9684 166.212 85.0118 165.775 79.7242C165.339 74.4351 164.809 70.1293 164.185 66.8069C163.562 63.4844 162.875 60.0765 162.125 56.5831C161.376 53.091 160.878 50.5001 160.633 48.8103C160.388 47.1206 160.014 45.1805 159.509 42.9899C159.003 40.8008 158.337 38.8057 157.514 37.0046C156.688 35.205 155.972 33.7086 155.364 32.5156C154.756 31.324 154.259 30.3842 153.874 29.6961C153.488 29.008 153.175 28.4482 152.935 28.0166C152.917 28.0166 152.901 28.0166 152.884 28.0166C152.884 28.0003 152.884 27.984 152.884 27.9677C152.868 27.9677 152.851 27.9677 152.833 27.9677C152.833 27.9528 152.833 27.9372 152.833 27.9209C152.817 27.9209 152.801 27.9209 152.784 27.9209C152.347 27.6494 152.134 27.5163 152.145 27.5218C152.155 27.5286 152.173 27.5395 152.2 27.5545C151.655 27.1392 151.381 26.9266 151.38 26.9171C151.38 26.9063 151.383 26.9063 151.39 26.9171C151.151 26.6498 150.236 26.0357 148.646 25.0748C147.055 24.1139 145.777 23.3695 144.812 22.8415C143.847 22.3136 142.546 21.8847 140.908 21.5549C139.269 21.2251 137.734 20.6449 136.3 19.8143C134.869 18.985 132.757 18.4685 129.967 18.2649C127.177 18.0627 124.971 17.9189 123.351 17.8334C121.729 17.7479 120.281 17.8381 119.006 18.1042C117.732 18.3715 116.766 18.6749 116.109 19.0142C115.454 19.3535 114.972 19.6004 114.664 19.7551C114.354 19.9099 113.71 20.6217 112.732 21.8907C113.353 22.0142 115.133 22.2565 118.07 22.6175C121.007 22.9799 123.242 23.1984 124.776 23.2731C126.311 23.3491 127.54 23.516 128.463 23.7738C129.386 24.0317 130.264 24.3094 131.099 24.6066C131.932 24.9038 133.673 25.4752 136.321 26.3207C138.969 27.1663 141.017 27.8998 142.467 28.5214C143.916 29.143 145.284 29.4986 146.569 29.5882C147.856 29.6777 148.838 29.7375 149.517 29.7673C150.196 29.7972 150.702 29.8467 151.036 29.9159C151.368 29.9865 151.569 29.9805 151.638 29.8977C151.709 29.8149 151.829 29.6906 151.999 29.525C152.168 29.3608 152.271 29.2162 152.308 29.0914C152.345 28.9665 152.347 28.9523 152.316 29.0486C152.284 29.1436 152.344 29.0514 152.497 28.7718C152.649 28.4922 152.86 28.0206 153.129 27.3569C153.397 26.6932 154.354 24.9933 155.999 22.2572C157.644 19.521 159.019 17.3001 160.124 15.5941C161.228 13.8894 162.376 12.2627 163.566 10.7141C164.758 9.16557 165.667 8.0438 166.294 7.34891C166.921 6.65538 167.481 6.08945 167.974 5.65107C168.465 5.21134 168.979 4.83876 169.517 4.53339C170.056 4.22802 170.387 4.04009 170.512 3.96952C170.639 3.9003 170.681 3.87862 170.641 3.90441C170.601 3.93019 170.588 3.93284 170.602 3.91248C170.617 3.89348 170.787 3.83248 171.113 3.72933C171.439 3.62754 171.69 3.65186 171.866 3.80251C172.043 3.95317 172.165 4.24571 172.235 4.68001C172.305 5.11568 172.306 5.4909 172.237 5.80577C172.167 6.11929 171.735 6.79588 170.94 7.8355C170.143 8.87648 169.222 10.2439 168.175 11.9377C167.127 13.6315 165.998 15.3436 164.788 17.0741C163.577 18.8045 161.861 20.9522 159.641 23.5174C157.421 26.0839 155.072 28.4189 152.595 30.5226C152.561 30.3746 152.528 30.2268 152.495 30.0788" stroke="#50514F" stroke-width="6.92177" stroke-linecap="round" stroke-linejoin="round"/>
    <path d="M251.435 164.282C251.435 224.4 209.835 214.718 162.482 214.718C115.108 214.718 79.8978 224.4 79.8978 164.282C79.8978 155.141 80.7936 146.245 82.4833 137.755C91.8073 90.4228 125.52 55.4068 165.687 55.4068C205.426 55.4068 238.834 89.6695 248.585 136.229C250.458 145.186 251.435 154.592 251.435 164.282Z" fill="#B0E8A1"/>
    <path d="M251.435 164.282C251.435 224.4 208.211 217.064 160.858 217.064C113.484 217.064 79.8978 224.4 79.8978 164.282C79.8978 155.141 80.7936 146.245 82.4833 137.755C102.719 148.036 131.791 154.47 164.099 154.47C197.955 154.47 228.268 147.405 248.585 136.229C250.458 145.186 251.435 154.592 251.435 164.282Z" fill="#B0E8A1"/>
    <path d="M209.946 144.962C209.946 153.655 204.551 159.152 197.894 159.152C191.236 159.152 185.842 153.676 185.842 144.962C185.842 136.269 188.997 127.637 195.654 127.637C202.311 127.637 209.946 136.269 209.946 144.962Z" fill="#50514F"/>
    <path d="M200.56 138.264C202.573 138.264 204.205 136.633 204.205 134.62C204.205 132.608 202.573 130.976 200.56 130.976C198.548 130.976 196.916 132.608 196.916 134.62C196.916 136.633 198.548 138.264 200.56 138.264Z" fill="white"/>
    <path d="M195.169 155.582C198.288 155.25 200.405 151.111 199.898 146.337C199.39 141.563 196.45 137.962 193.331 138.293C190.212 138.625 188.094 142.764 188.602 147.538C189.109 152.312 192.049 155.913 195.169 155.582Z" fill="white"/>
    <path d="M212.327 117.682C211.35 117.682 210.373 117.214 209.783 116.339C209.518 115.932 203.024 106.506 192.824 108.196C191.175 108.46 189.587 107.34 189.302 105.691C189.017 104.022 190.157 102.455 191.806 102.17C205.569 99.8691 213.915 111.575 214.832 112.939C215.768 114.344 215.402 116.237 213.997 117.173C213.508 117.52 212.918 117.682 212.327 117.682Z" fill="#50514F"/>
    <path d="M120.268 144.962C120.268 153.655 125.663 159.152 132.32 159.152C138.977 159.152 144.372 153.676 144.372 144.962C144.372 136.269 141.217 127.638 134.559 127.638C127.902 127.638 120.268 136.269 120.268 144.962Z" fill="#50514F"/>
    <path d="M129.653 138.265C131.666 138.265 133.297 136.633 133.297 134.62C133.297 132.608 131.666 130.976 129.653 130.976C127.641 130.976 126.009 132.608 126.009 134.62C126.009 136.633 127.641 138.265 129.653 138.265Z" fill="white"/>
    <path d="M141.591 147.552C142.099 142.778 139.981 138.639 136.862 138.308C133.742 137.976 130.802 141.578 130.295 146.352C129.787 151.126 131.905 155.265 135.024 155.596C138.144 155.928 141.084 152.326 141.591 147.552Z" fill="white"/>
    <path d="M117.886 117.682C117.316 117.682 116.726 117.52 116.196 117.173C114.792 116.237 114.405 114.344 115.341 112.939C115.708 112.41 124.238 99.808 138.366 102.17C140.036 102.455 141.155 104.022 140.87 105.691C140.585 107.361 139.018 108.481 137.348 108.196C127.068 106.485 120.675 115.911 120.411 116.318C119.84 117.194 118.884 117.682 117.886 117.682Z" fill="#50514F"/>
    <path d="M162.301 217.785C113.319 217.785 76.8441 226.008 76.8441 164.282C76.8441 155.101 77.7399 145.98 79.4907 137.165C89.3236 87.2266 124.767 52.3531 165.687 52.3531C205.996 52.3531 241.297 86.5955 251.558 135.597C253.512 144.881 254.51 154.531 254.51 164.282C254.489 226.008 211.283 217.785 162.301 217.785ZM165.667 58.4605C127.719 58.4605 94.7389 91.3186 85.4556 138.346C83.7862 146.774 82.9312 155.508 82.9312 164.282C82.9312 222.629 112.008 211.651 157.61 211.651C203.212 211.651 248.361 222.629 248.361 164.282C248.361 154.958 247.405 145.736 245.552 136.86C235.902 90.7078 203.044 58.4605 165.667 58.4605Z" fill="#50514F"/>
    <path d="M329.855 162.979H3.06625V225.133H329.855V162.979Z" fill="white"/>
    <path d="M329.855 228.207L79.4703 228.186C77.7806 228.186 82.524 226.822 82.524 225.133C82.524 223.443 77.7806 222.079 79.4703 222.079L326.801 222.099V166.033H6.11995V222.079H79.4703C81.16 222.079 82.524 223.443 82.524 225.133C82.524 226.822 81.16 228.186 79.4703 228.186H3.06623C1.37651 228.186 0.0125122 226.822 0.0125122 225.133V162.979C0.0125122 161.289 1.37651 159.925 3.06623 159.925H329.855C331.545 159.925 332.909 161.289 332.909 162.979V225.133C332.909 226.822 331.545 228.207 329.855 228.207Z" fill="#50514F"/>
    <path d="M301.761 160.821V160.964C301.761 171.835 294.798 179.306 280.894 179.306C266.989 179.306 251.435 171.835 251.435 160.964C251.435 160.536 251.456 160.109 251.517 159.702C252.596 149.421 266.806 141.44 280.161 141.44C294.004 141.44 301.7 149.991 301.761 160.821Z" fill="#B0E8A1"/>
    <path d="M280.894 182.36C265.198 182.36 248.382 173.769 248.382 160.964C248.382 160.373 248.422 159.803 248.504 159.254C249.807 146.835 265.93 138.407 280.161 138.407C294.819 138.407 304.733 147.405 304.815 160.821V160.984C304.815 174.156 295.653 182.36 280.894 182.36ZM280.161 144.494C267.62 144.494 255.405 151.884 254.55 160.027C254.489 160.434 254.489 160.699 254.489 160.964C254.489 169.718 268.435 176.253 280.894 176.253C292.376 176.253 298.707 170.817 298.707 160.964L301.761 160.821L298.707 160.842C298.646 150.907 291.378 144.494 280.161 144.494Z" fill="#50514F"/>
    <path d="M29.5725 160.821V160.964C29.5725 171.835 36.535 179.306 50.4396 179.306C64.3442 179.306 79.8978 171.835 79.8978 160.964C79.8978 160.536 79.8775 160.109 79.8164 159.702C78.7374 149.421 64.5274 141.44 51.1725 141.44C37.329 141.44 29.6336 149.991 29.5725 160.821Z" fill="#B0E8A1"/>
    <path d="M50.4396 182.36C35.68 182.36 26.5188 174.156 26.5188 160.964V160.801C26.6002 147.405 36.4943 138.387 51.1725 138.387C65.4028 138.387 81.5265 146.815 82.8498 159.376C82.9108 159.803 82.9515 160.373 82.9515 160.943C82.9515 173.749 66.1357 182.36 50.4396 182.36ZM32.6262 160.821V160.943C32.6262 170.797 38.9576 176.232 50.4396 176.232C62.8988 176.232 76.8441 169.697 76.8441 160.943C76.8441 160.679 76.8441 160.394 76.8034 160.129C75.928 151.864 63.7335 144.474 51.1929 144.474C39.9755 144.494 32.6873 150.907 32.6262 160.821Z" fill="#50514F"/>
    <path d="M155.079 24.1479C155.06 24.2646 155.053 24.3094 155.059 24.2823C155.059 24.2891 155.032 24.3982 154.98 24.61C154.925 24.7009 154.945 24.6181 155.039 24.3616C155.132 24.1064 155.275 23.7801 155.468 23.3824C155.659 22.9848 155.915 22.5368 156.234 22.0387C156.551 21.5393 156.819 21.0894 157.038 20.6891C157.256 20.2887 157.528 19.853 157.852 19.382C158.176 18.9111 158.508 18.3879 158.846 17.8124C159.183 17.2356 159.487 16.7857 159.756 16.4627C160.023 16.1397 160.235 15.9021 160.393 15.7501C160.549 15.5981 160.741 15.4014 160.969 15.1598C161.197 14.9182 161.356 14.7451 161.445 14.6406C161.535 14.5361 161.704 14.2871 161.952 13.8935C162.202 13.5013 163.083 12.5796 164.595 11.1288C164.606 11.1464 164.617 11.1648 164.629 11.1838" stroke="white" stroke-width="1.73044" stroke-linecap="round" stroke-linejoin="round"/>
    <path d="M166.647 8.94029C166.64 8.94029 166.634 8.94029 166.628 8.94029C166.9 8.94029 166.993 8.94029 166.907 8.94029C167.172 8.88329 167.266 8.86085 167.188 8.87307C167.122 8.94229 167.204 8.88456 167.435 8.69998C167.667 8.5154 167.843 8.31323 167.964 8.09336C168.085 7.87485 168.142 7.66852 168.137 7.47444C168.13 7.28172 168.056 7.17042 167.915 7.14057C167.775 7.11071 167.681 7.09306 167.632 7.08763C167.585 7.08356 167.492 7.11482 167.355 7.18132C167.218 7.24918 167.105 7.32518 167.015 7.40933C166.924 7.49484 166.874 7.53895 166.865 7.54166C166.854 7.54574 166.85 7.54838 166.854 7.54974C166.86 7.5511 166.854 7.58714 166.836 7.65772C166.82 7.72694 166.808 7.80357 166.802 7.88772C166.796 7.97051 166.787 8.07701 166.773 8.2073C166.759 8.33624 166.755 8.4706 166.761 8.61039C166.852 8.59546 166.886 8.60706 166.865 8.64506C166.843 8.68306 166.906 8.63075 167.054 8.48825C167.201 8.34574 167.296 8.24541 167.341 8.18705" stroke="white" stroke-width="1.73044" stroke-linecap="round" stroke-linejoin="round"/>
    <path d="M119.89 19.5997C119.877 19.6024 119.884 19.599 119.913 19.5895C119.941 19.5814 119.944 19.5848 119.921 19.5997C119.899 19.6146 119.831 19.6431 119.717 19.6852C119.603 19.7286 119.491 19.7661 119.379 19.7973C119.268 19.8285 119.209 19.8488 119.202 19.8583C119.195 19.8678 119.194 19.8658 119.198 19.8522C119.202 19.8386 119.092 19.8868 118.868 19.9967C118.646 20.1066 118.396 20.237 118.119 20.3876C117.842 20.5383 117.659 20.6401 117.569 20.693C117.478 20.746 117.401 20.8131 117.337 20.8946C117.274 20.9774 117.238 21.0241 117.229 21.035C117.22 21.0445 117.211 21.0607 117.203 21.0838C117.195 21.1069 117.196 21.088 117.205 21.0269C117.216 20.9658 117.109 21.2833 116.885 21.9796C116.854 22.0868 117.085 22.0515 117.578 21.8737C118.072 21.6973 118.491 21.5514 118.836 21.4361C119.182 21.3207 119.406 21.2237 119.51 21.145C119.614 21.0649 119.681 21.0214 119.709 21.0146C119.736 21.0065 119.744 21.0031 119.733 21.0044C119.721 21.0044 119.777 20.9767 119.9 20.921C120.024 20.8654 120.139 20.8137 120.244 20.7662C120.349 20.7201 120.456 20.6855 120.566 20.6625C120.676 20.6394 120.786 20.6197 120.896 20.6034C121.007 20.5885 121.051 20.5837 121.028 20.5892C121.005 20.5959 121.066 20.5851 121.209 20.5566C121.355 20.5267 121.45 20.4914 121.494 20.4507C121.541 20.4087 121.732 20.3714 122.069 20.3388C122.405 20.3062 122.685 20.2912 122.909 20.2939C123.132 20.298 123.302 20.2865 123.42 20.2594C123.538 20.2336 123.617 20.2152 123.657 20.2043C123.697 20.1935 123.754 20.178 123.828 20.1576C123.902 20.1373 123.94 20.127 123.942 20.127C123.944 20.127 123.942 20.1284 123.933 20.1311C123.927 20.1352 123.953 20.1264 124.013 20.1047C124.072 20.083 124.41 20.0632 125.027 20.0455C125.641 20.0265 126.091 20.0259 126.376 20.0435C126.661 20.0598 126.835 20.0781 126.898 20.0985C126.96 20.1188 127.107 20.1521 127.339 20.1982C127.57 20.2457 127.746 20.2668 127.867 20.2614C127.987 20.2573 128.071 20.2553 128.117 20.2553C128.164 20.2553 128.225 20.2587 128.298 20.2655C128.37 20.2723 128.363 20.2702 128.276 20.2594C128.189 20.2499 128.305 20.2675 128.624 20.3123C128.944 20.3557 129.167 20.3835 129.294 20.3957C129.42 20.4093 129.533 20.4229 129.634 20.4364C129.733 20.45 129.812 20.4622 129.872 20.4731C129.932 20.4853 129.982 20.4975 130.025 20.5098C130.065 20.5233 130.077 20.5253 130.061 20.5158C130.045 20.5063 130.213 20.5166 130.566 20.5464C130.92 20.5776 131.215 20.6326 131.45 20.7113C131.684 20.79 131.859 20.8578 131.973 20.9148C132.087 20.9705 132.196 21.0322 132.301 21.1001C132.406 21.168 132.513 21.2372 132.62 21.3077C132.726 21.3783 132.763 21.3953 132.73 21.3587C132.699 21.322 132.731 21.3458 132.826 21.43C132.922 21.5128 132.977 21.565 132.991 21.5867C133.004 21.607 133.035 21.6498 133.084 21.7149C133.132 21.7801 133.175 21.8412 133.215 21.8982C133.254 21.9566 133.272 21.981 133.27 21.9715C133.384 22.2144 133.43 22.3196 133.41 22.287C133.391 22.2544 133.39 22.3101 133.406 22.454C133.422 22.5992 133.422 22.6337 133.406 22.5577C133.388 22.4804 133.39 22.625 133.41 22.9914C133.43 23.3592 133.552 23.7446 133.774 24.1477C133.856 24.1464 133.898 24.145 133.901 24.1436C133.903 24.1423 133.905 24.1457 133.907 24.1538C133.908 24.1633 133.965 24.1511 134.076 24.1172C134.186 24.0846 134.259 24.0385 134.296 23.9787C134.332 23.9204 134.446 23.8207 134.638 23.6795C134.828 23.5384 134.992 23.4352 135.13 23.37C135.267 23.3049 135.396 23.2547 135.517 23.2194C135.638 23.1855 135.733 23.1652 135.802 23.1584C135.871 23.1516 135.907 23.1482 135.91 23.1482C135.913 23.1469 135.957 23.1332 136.042 23.1075C136.128 23.083 136.304 23.0572 136.57 23.03C136.834 23.0029 137.085 22.9778 137.321 22.9547C137.556 22.933 137.704 22.9134 137.767 22.8957C137.829 22.8794 138.096 22.8937 138.567 22.9385C139.038 22.9819 139.395 23.0369 139.64 23.1034C139.884 23.1685 140.06 23.2262 140.169 23.2764C140.278 23.3253 140.371 23.362 140.45 23.3864C140.529 23.4095 140.664 23.4325 140.855 23.4556C141.046 23.4773 141.198 23.4984 141.309 23.5187C141.422 23.5391 141.498 23.5438 141.537 23.5329C141.576 23.522 141.783 23.5967 142.158 23.7568C142.533 23.9156 142.835 24.0487 143.064 24.1559C143.293 24.2631 143.461 24.3344 143.567 24.3696C143.674 24.4049 143.862 24.4918 144.131 24.6302C144.398 24.7686 144.603 24.8922 144.745 25.0007C144.887 25.1107 144.985 25.184 145.041 25.2207C145.098 25.2587 145.158 25.2952 145.222 25.3305C145.284 25.3672 145.351 25.4059 145.423 25.4466C145.495 25.4873 145.575 25.5246 145.664 25.5585C145.752 25.5911 146.076 25.7439 146.637 26.0167C147.197 26.2895 147.673 26.5297 148.064 26.7374C148.456 26.9436 148.747 27.1207 148.935 27.2687C149.124 27.4166 149.327 27.5632 149.546 27.7084C149.764 27.8536 149.987 28.0137 150.214 28.1888C150.44 28.3639 150.643 28.5587 150.822 28.7732C151.003 28.9876 151.258 29.2746 151.588 29.6343C151.919 29.9926 152.157 30.2661 152.302 30.4547C152.448 30.6434 152.57 30.79 152.671 30.8945C152.773 30.999 152.843 31.0682 152.881 31.1021C152.919 31.1374 152.981 31.1917 153.068 31.265C153.156 31.3383 153.19 31.364 153.17 31.3423C153.148 31.3206 153.286 31.4503 153.585 31.7312C153.385 31.7298 153.084 31.4285 152.681 30.8272C152.279 30.2246 151.899 29.7021 151.539 29.2596C151.181 28.8172 150.898 28.5043 150.69 28.3211C150.481 28.1365 150.357 28.0341 150.318 28.0137C150.277 27.992 150.107 27.8929 149.809 27.7165C149.509 27.5387 149.239 27.3644 148.998 27.1934C148.757 27.0237 148.453 26.7753 148.086 26.4482C147.718 26.1211 147.263 25.8253 146.72 25.5606C146.179 25.296 145.712 24.9974 145.32 24.6649C144.929 24.3324 144.364 24.01 143.626 23.6978C142.887 23.3843 142.34 23.1352 141.983 22.9506C141.627 22.7647 141.152 22.5985 140.556 22.4519C139.96 22.3067 139.384 22.1927 138.827 22.1099C138.27 22.0258 137.608 21.9185 136.842 21.7882C136.078 21.6579 135.483 21.4991 135.057 21.3118C134.632 21.1259 134.163 20.9861 133.648 20.8925C133.134 20.7975 132.579 20.7269 131.985 20.6807C131.389 20.6332 130.839 20.5328 130.334 20.3794C129.828 20.2247 129.409 20.127 129.078 20.0863C128.747 20.0469 128.311 20.0279 127.771 20.0293C127.232 20.0306 126.695 19.9967 126.161 19.9275C125.626 19.8596 125.078 19.8759 124.516 19.9763C123.952 20.0768 123.487 20.1209 123.119 20.1087C122.75 20.0951 122.402 20.0612 122.075 20.0069C121.748 19.9526 121.438 19.9079 121.146 19.8726C120.853 19.8373 120.64 19.8088 120.507 19.7871C120.374 19.7654 120.244 19.7511 120.116 19.7443C119.989 19.7376 119.916 19.7348 119.898 19.7361C119.881 19.7389 119.774 19.7389 119.579 19.7361C119.383 19.7321 119.224 19.7314 119.1 19.7341C118.977 19.7369 118.867 19.7524 118.771 19.7809C118.676 19.8094 118.655 19.8142 118.707 19.7952C118.762 19.7748 118.587 19.8448 118.184 20.0049C118.319 20.1013 118.52 20.1434 118.789 20.1311C119.059 20.1189 119.239 20.1094 119.33 20.1026" stroke="white" stroke-width="1.73044" stroke-linecap="round" stroke-linejoin="round"/>
    <path d="M134.365 22.7533C134.277 22.8999 134.237 22.9556 134.247 22.9203C134.235 22.9258 134.176 22.9148 134.072 22.8876C134.072 22.8822 134.075 22.8639 134.082 22.8327C133.945 22.8924 134.226 22.8076 134.925 22.5782C134.759 22.5782 134.682 22.5782 134.693 22.5782C134.408 22.6543 134.112 22.7974 133.805 23.0078C133.816 23.0078 133.923 23.0092 134.127 23.0119C134.33 23.0146 134.454 23.0194 134.499 23.0262" stroke="white" stroke-width="1.73044" stroke-linecap="round" stroke-linejoin="round"/>
    <path d="M88.4165 214.727C85.5324 214.727 82.7332 214.371 80.0188 213.659C77.3044 212.946 75.0989 211.996 73.4024 210.808L76.7106 203.378C78.3053 204.43 80.1545 205.278 82.2582 205.923C84.3619 206.567 86.4316 206.89 88.4674 206.89C92.3355 206.89 94.2695 205.923 94.2695 203.989C94.2695 202.971 93.7096 202.224 92.5899 201.749C91.5042 201.24 89.7398 200.714 87.2968 200.171C84.6163 199.595 82.3769 198.984 80.5786 198.339C78.7803 197.661 77.2365 196.592 75.9472 195.133C74.6578 193.674 74.0131 191.706 74.0131 189.229C74.0131 187.057 74.6069 185.106 75.7945 183.376C76.982 181.612 78.7464 180.22 81.0876 179.202C83.4627 178.185 86.3637 177.676 89.7907 177.676C92.1319 177.676 94.4391 177.947 96.7125 178.49C98.9858 178.999 100.988 179.762 102.718 180.78L99.6135 188.262C96.2205 186.43 92.9292 185.514 89.7398 185.514C87.7379 185.514 86.2789 185.819 85.3628 186.43C84.4467 187.006 83.9886 187.77 83.9886 188.72C83.9886 189.67 84.5315 190.382 85.6173 190.858C86.703 191.333 88.4504 191.825 90.8595 192.333C93.5739 192.91 95.8133 193.538 97.5777 194.217C99.376 194.861 100.92 195.913 102.209 197.372C103.532 198.797 104.194 200.748 104.194 203.225C104.194 205.363 103.6 207.297 102.413 209.027C101.225 210.758 99.4438 212.149 97.0687 213.201C94.6936 214.218 91.8095 214.727 88.4165 214.727ZM142.745 178.388V214.015H132.668V200.12H118.926V214.015H108.849V178.388H118.926V191.774H132.668V178.388H142.745ZM165.428 204.548H159.931V214.015H149.854V178.388H166.14C169.363 178.388 172.163 178.931 174.538 180.017C176.913 181.069 178.745 182.596 180.034 184.597C181.324 186.565 181.968 188.89 181.968 191.57C181.968 194.149 181.358 196.405 180.136 198.339C178.949 200.239 177.235 201.732 174.996 202.818L182.681 214.015H171.891L165.428 204.548ZM171.789 191.57C171.789 189.907 171.264 188.618 170.212 187.702C169.16 186.786 167.599 186.328 165.529 186.328H159.931V196.761H165.529C167.599 196.761 169.16 196.32 170.212 195.438C171.264 194.522 171.789 193.233 171.789 191.57ZM203.967 214.727C198.674 214.727 194.552 213.285 191.6 210.401C188.682 207.517 187.223 203.429 187.223 198.136V178.388H197.3V197.83C197.3 203.53 199.556 206.381 204.069 206.381C208.548 206.381 210.787 203.53 210.787 197.83V178.388H220.712V198.136C220.712 203.429 219.236 207.517 216.284 210.401C213.366 213.285 209.26 214.727 203.967 214.727ZM254.92 195.438C256.956 196.151 258.551 197.27 259.704 198.797C260.858 200.29 261.435 202.105 261.435 204.243C261.435 207.365 260.179 209.774 257.669 211.47C255.158 213.167 251.527 214.015 246.777 214.015H227.539V178.388H245.759C250.306 178.388 253.767 179.236 256.142 180.933C258.517 182.596 259.704 184.852 259.704 187.702C259.704 189.399 259.28 190.925 258.432 192.283C257.618 193.606 256.447 194.658 254.92 195.438ZM237.514 185.666V192.537H244.436C247.829 192.537 249.525 191.383 249.525 189.076C249.525 186.803 247.829 185.666 244.436 185.666H237.514ZM245.963 206.737C249.491 206.737 251.256 205.532 251.256 203.123C251.256 200.714 249.491 199.51 245.963 199.51H237.514V206.737H245.963Z" fill="#50514F"/>
</svg>
