<svg width="168" height="165" viewBox="0 0 168 165" fill="none" xmlns="http://www.w3.org/2000/svg">
    <path d="M144.794 135.361H145.308C145.296 135.279 145.253 135.121 145.179 134.888C145.106 134.655 145.02 134.415 144.922 134.17C144.825 133.924 144.797 133.76 144.838 133.677C145.143 133.624 145.362 133.602 145.495 133.611C145.629 133.62 145.9 133.622 146.307 133.619C146.714 133.616 147.383 133.618 148.314 133.625C149.245 133.632 150.15 133.599 151.029 133.525C151.908 133.45 152.475 133.386 152.732 133.332C152.988 133.278 153.24 133.255 153.487 133.262C153.734 133.269 154.017 133.276 154.336 133.284C154.654 133.291 154.952 133.294 155.229 133.291C155.506 133.289 155.625 133.288 155.584 133.287C155.544 133.287 155.62 133.287 155.811 133.288C156.003 133.289 156.179 133.287 156.338 133.284C156.498 133.28 156.646 133.291 156.783 133.317C156.92 133.343 157.081 133.378 157.268 133.421C157.455 133.465 157.733 133.501 158.104 133.53C158.475 133.559 158.761 133.579 158.964 133.59C159.166 133.601 159.473 133.609 159.886 133.613C160.299 133.618 160.829 133.625 161.476 133.634C162.123 133.643 162.637 133.654 163.019 133.668C163.401 133.681 163.514 133.686 163.358 133.681C163.201 133.676 163.268 133.675 163.559 133.677C163.775 133.276 163.88 132.968 163.874 132.753C163.868 132.538 163.862 132.462 163.855 132.527C163.848 132.592 163.848 132.601 163.853 132.552C163.859 132.503 163.862 132.495 163.861 132.527C163.861 132.559 163.861 132.479 163.862 132.286C163.862 132.093 163.862 131.933 163.861 131.804C163.86 131.676 163.861 131.531 163.863 131.369C163.866 131.208 163.864 130.937 163.857 130.558C163.85 130.179 163.86 129.669 163.886 129.029C163.911 128.389 163.932 127.718 163.948 127.016C163.963 126.314 163.969 125.811 163.965 125.507C163.962 125.203 163.954 124.96 163.943 124.779C163.932 124.598 163.949 124.21 163.994 123.613C164.039 123.017 164.072 122.376 164.095 121.691C164.118 121.006 164.141 120.126 164.166 119.053C164.191 117.98 164.207 117.292 164.213 116.991C164.22 116.689 164.223 116.441 164.224 116.247C164.225 116.053 164.226 115.683 164.227 115.136C164.228 114.589 164.229 114.037 164.228 113.48C164.227 112.923 164.245 112.29 164.284 111.583C164.322 110.876 164.346 110.066 164.355 109.151C164.364 108.236 164.363 107.489 164.351 106.909C164.339 106.329 164.332 106.042 164.329 106.048C164.327 106.053 164.315 105.974 164.293 105.809C164.271 105.644 164.259 105.53 164.258 105.465C164.256 105.4 164.231 105.225 164.183 104.94C164.134 104.655 164.035 104.281 163.886 103.818C163.737 103.355 163.59 102.873 163.444 102.372C163.299 101.872 163.082 101.633 162.795 101.654C162.508 101.676 162.409 101.659 162.497 101.602C162.636 101.643 162.496 101.598 162.078 101.465C161.83 101.424 161.669 101.397 161.594 101.384C161.519 101.371 161.482 101.358 161.485 101.343C161.508 101.344 161.517 101.343 161.512 101.34C161.506 101.337 161.38 101.309 161.135 101.255C160.89 101.2 160.748 101.167 160.71 101.155C160.672 101.143 160.644 101.137 160.626 101.138C160.608 101.139 160.579 101.128 160.54 101.103C160.501 101.078 160.264 101.049 159.83 101.016C159.396 100.982 158.725 100.975 157.817 100.996C156.909 101.016 155.589 101.028 153.857 101.032C152.126 101.036 150.637 101.05 149.39 101.073C148.144 101.097 147.19 101.106 146.527 101.101C145.865 101.096 145.036 101.104 144.041 101.124C143.046 101.143 141.898 101.176 140.597 101.221C139.296 101.266 137.784 101.282 136.063 101.269C134.341 101.256 132.934 101.25 131.841 101.251C130.748 101.252 129.916 101.253 129.343 101.254C128.771 101.255 128.196 101.256 127.617 101.256C127.039 101.256 126.322 101.256 125.467 101.256C124.612 101.256 123.447 101.256 121.974 101.256C120.501 101.255 119.171 101.255 117.983 101.256C116.796 101.257 115.342 101.256 113.623 101.255C111.904 101.253 110.803 101.254 110.318 101.259C109.833 101.264 109.11 101.26 108.149 101.247C107.189 101.234 106.031 101.25 104.675 101.294C103.319 101.338 102.272 101.38 101.534 101.42C100.797 101.46 100.17 101.468 99.653 101.444C99.137 101.419 98.3963 101.421 97.431 101.448C96.4657 101.475 95.2343 101.434 93.737 101.326C92.239 101.217 90.9323 101.147 89.817 101.116C88.701 101.085 87.2167 101.04 85.364 100.981C83.512 100.922 82.029 100.896 80.915 100.902C79.8017 100.908 78.7337 100.905 77.711 100.893C76.6883 100.88 75.9333 100.89 75.446 100.923C74.9587 100.955 74.2607 100.967 73.352 100.958C72.444 100.949 71.2127 100.93 69.658 100.901C68.104 100.871 67.3453 100.859 67.382 100.865C67.4187 100.871 67.2077 100.856 66.749 100.821C66.2897 100.786 65.8303 100.761 65.371 100.746C64.9117 100.732 64.637 100.73 64.547 100.741C64.4563 100.752 64.166 100.738 63.676 100.701C63.1853 100.664 62.3587 100.643 61.196 100.637C60.0333 100.63 58.304 100.573 56.008 100.465C53.7113 100.357 52.1497 100.241 51.323 100.116C50.497 99.9913 49.559 99.869 48.509 99.749C47.459 99.6283 46.616 99.5627 45.98 99.552C45.344 99.542 44.2323 99.5236 42.645 99.497C41.0577 99.4703 38.889 99.5093 36.139 99.614C33.3897 99.7186 31.367 99.8026 30.071 99.866C28.775 99.9286 27.3183 99.96 25.701 99.96C24.0843 99.9593 22.7197 99.9583 21.607 99.957C20.4943 99.955 19.1813 99.9813 17.668 100.036C16.1547 100.091 14.5073 100.175 12.726 100.289C10.9447 100.402 9.88433 100.476 9.54499 100.511C9.20566 100.546 8.84766 100.587 8.471 100.633C8.09433 100.679 7.686 100.748 7.246 100.839C6.806 100.93 6.18567 101.032 5.385 101.143C4.58433 101.254 4.12266 101.312 4 101.318C3.87666 101.323 3.83766 101.326 3.88299 101.327C3.92833 101.327 3.89866 101.358 3.794 101.421C3.82933 101.31 3.79833 101.451 3.70099 101.846C3.71699 101.855 3.69633 101.931 3.639 102.074C3.58166 102.217 3.55233 102.292 3.551 102.299C3.549 102.306 3.54533 102.315 3.54 102.327C3.53466 102.34 3.53133 102.35 3.53 102.359C3.528 102.368 3.52499 102.375 3.52099 102.378C3.51633 102.382 3.49966 102.446 3.471 102.571C3.443 102.696 3.37833 102.858 3.277 103.055C3.17566 103.253 3.073 103.533 2.969 103.895C2.865 104.257 2.79733 104.748 2.766 105.367C2.73466 105.986 2.71033 106.345 2.693 106.443C2.67633 106.541 2.66933 106.569 2.67199 106.528C2.67466 106.487 2.64266 106.545 2.57599 106.701C2.50866 106.858 2.44399 107.171 2.38199 107.642C2.31999 108.113 2.28966 108.814 2.291 109.747C2.29233 110.68 2.31933 111.999 2.372 113.706C2.42466 115.413 2.47566 117.301 2.525 119.371C2.57433 121.441 2.653 122.921 2.761 123.812C2.86966 124.703 3.00533 125.379 3.168 125.84C3.33066 126.301 3.42999 127.029 3.46599 128.022C3.50133 129.015 3.50066 130.166 3.46399 131.477C3.42799 132.788 3.43233 133.456 3.47699 133.482C3.46899 133.451 3.47032 133.462 3.48099 133.516C3.49166 133.57 3.529 133.72 3.593 133.965C4.215 133.93 4.58833 133.914 4.71299 133.917C4.83699 133.92 4.873 133.922 4.821 133.925C4.769 133.928 4.77666 133.927 4.844 133.924C4.91133 133.92 4.92766 133.921 4.89299 133.928C4.85766 133.935 4.926 133.928 5.098 133.907C5.27 133.887 5.61866 133.812 6.14399 133.683C6.66866 133.553 7.21499 133.491 7.78299 133.498C8.35099 133.504 8.84666 133.52 9.26999 133.545C9.69333 133.57 9.87366 133.58 9.81099 133.575C9.74833 133.57 9.74533 133.573 9.802 133.583C9.85866 133.593 9.91199 133.603 9.96199 133.614C10.012 133.625 10.1297 133.642 10.315 133.665C10.5003 133.688 10.7033 133.712 10.924 133.737C11.144 133.761 11.287 133.78 11.353 133.795C11.727 133.505 12.0207 133.309 12.234 133.206C12.4473 133.103 12.631 133.032 12.785 132.995L13.126 132.911C13.2053 132.892 13.2703 132.881 13.321 132.88L13.639 132.866L14.281 132.831C14.8057 132.784 15.1863 132.759 15.423 132.756C15.9583 132.729 16.3703 132.717 16.659 132.72C17.4317 132.711 17.9893 132.714 18.332 132.728C19.314 132.714 19.9607 132.719 20.272 132.744C21.3227 132.719 21.8827 132.714 21.952 132.727C22.906 132.73 23.4117 132.742 23.469 132.762L24.197 132.93L25.465 133.22L26.911 133.522L28.555 133.699C29.8283 133.762 30.5407 133.808 30.692 133.838C32.0967 133.831 32.9913 133.85 33.376 133.894C34.832 133.854 35.7967 133.855 36.27 133.897C37.8747 133.855 38.9753 133.854 39.572 133.893C41.2087 133.854 42.3083 133.852 42.871 133.887C44.163 133.82 44.9907 133.805 45.354 133.842L46.117 133.827C47.429 133.762 48.236 133.744 48.538 133.774L49.369 133.742C50.909 133.677 51.972 133.662 52.558 133.695C54.0833 133.651 55.115 133.649 55.653 133.69C57.2243 133.649 58.2953 133.649 58.866 133.689C60.4153 133.649 61.467 133.649 62.021 133.69C63.603 133.649 64.721 133.652 65.375 133.697C67.0337 133.709 68.182 133.745 68.82 133.804C70.1673 133.813 71.021 133.844 71.381 133.897L72.14 133.909C73.5993 133.878 74.5643 133.883 75.035 133.925L76.079 133.895C78.081 133.873 79.498 133.876 80.33 133.905C82.3573 133.876 83.7957 133.876 84.645 133.903C86.7723 133.876 88.285 133.874 89.183 133.899C91.4723 133.874 93.1013 133.873 94.07 133.894C96.364 133.873 97.995 133.873 98.963 133.894C101.337 133.873 103.025 133.872 104.027 133.891C106.318 133.872 107.996 133.874 109.061 133.897C110.939 133.957 112.304 134.024 113.155 134.097L114.496 134.167C116.334 134.286 117.604 134.385 118.305 134.466L119.761 134.504C121.697 134.598 123.056 134.68 123.838 134.751L125.448 134.786C128.374 134.897 130.426 134.98 131.605 135.035C134.602 135.135 136.682 135.211 137.845 135.263C138.99 135.274 139.758 135.283 140.149 135.29C140.54 135.297 140.88 135.303 141.171 135.308C141.462 135.313 141.723 135.317 141.956 135.321C142.189 135.326 142.405 135.33 142.602 135.333C142.8 135.336 142.987 135.339 143.163 135.342C143.34 135.345 143.51 135.348 143.675 135.351C143.84 135.354 144.017 135.357 144.206 135.362" fill="white"/>
    <path d="M144.794 135.361H145.308C145.296 135.279 145.253 135.121 145.179 134.888C145.106 134.655 145.02 134.415 144.922 134.17C144.825 133.924 144.797 133.76 144.838 133.677C145.143 133.624 145.362 133.602 145.495 133.611C145.629 133.62 145.9 133.622 146.307 133.619C146.714 133.616 147.383 133.618 148.314 133.625C149.245 133.632 150.15 133.599 151.029 133.525C151.908 133.45 152.475 133.386 152.732 133.332C152.988 133.278 153.24 133.255 153.487 133.262C153.734 133.269 154.017 133.276 154.336 133.284C154.654 133.291 154.952 133.294 155.229 133.291C155.506 133.289 155.625 133.288 155.584 133.287C155.544 133.287 155.62 133.287 155.811 133.288C156.003 133.289 156.179 133.287 156.338 133.284C156.498 133.28 156.646 133.291 156.783 133.317C156.92 133.343 157.081 133.378 157.268 133.421C157.455 133.465 157.733 133.501 158.104 133.53C158.475 133.559 158.761 133.579 158.964 133.59C159.166 133.601 159.473 133.609 159.886 133.613C160.299 133.618 160.829 133.625 161.476 133.634C162.123 133.643 162.637 133.654 163.019 133.668C163.401 133.681 163.514 133.686 163.358 133.681C163.201 133.676 163.268 133.675 163.559 133.677C163.775 133.276 163.88 132.968 163.874 132.753C163.868 132.538 163.862 132.462 163.855 132.527C163.848 132.592 163.848 132.601 163.853 132.552C163.859 132.503 163.862 132.495 163.861 132.527C163.861 132.559 163.861 132.479 163.862 132.286C163.862 132.093 163.862 131.933 163.861 131.804C163.86 131.676 163.861 131.531 163.863 131.369C163.866 131.208 163.864 130.937 163.857 130.558C163.85 130.179 163.86 129.669 163.886 129.029C163.911 128.389 163.932 127.718 163.948 127.016C163.963 126.314 163.969 125.811 163.965 125.507C163.962 125.203 163.954 124.96 163.943 124.779C163.932 124.598 163.949 124.21 163.994 123.613C164.039 123.017 164.072 122.376 164.095 121.691C164.118 121.006 164.141 120.126 164.166 119.053C164.191 117.98 164.207 117.292 164.213 116.991C164.22 116.689 164.223 116.441 164.224 116.247C164.225 116.053 164.226 115.683 164.227 115.136C164.228 114.589 164.229 114.037 164.228 113.48C164.227 112.923 164.245 112.29 164.284 111.583C164.322 110.876 164.346 110.066 164.355 109.151C164.364 108.236 164.363 107.489 164.351 106.909C164.339 106.329 164.332 106.042 164.329 106.048C164.327 106.053 164.315 105.974 164.293 105.809C164.271 105.644 164.259 105.53 164.258 105.465C164.256 105.4 164.231 105.225 164.183 104.94C164.134 104.655 164.035 104.281 163.886 103.818C163.737 103.355 163.59 102.873 163.444 102.372C163.299 101.872 163.082 101.633 162.795 101.654C162.508 101.676 162.409 101.659 162.497 101.602C162.636 101.643 162.496 101.598 162.078 101.465C161.83 101.424 161.669 101.397 161.594 101.384C161.519 101.371 161.482 101.358 161.485 101.343C161.508 101.344 161.517 101.343 161.512 101.34C161.506 101.337 161.38 101.309 161.135 101.255C160.89 101.2 160.748 101.167 160.71 101.155C160.672 101.143 160.644 101.137 160.626 101.138C160.608 101.139 160.579 101.128 160.54 101.103C160.501 101.078 160.264 101.049 159.83 101.016C159.396 100.982 158.725 100.975 157.817 100.996C156.909 101.016 155.589 101.028 153.857 101.032C152.126 101.036 150.637 101.05 149.39 101.073C148.144 101.097 147.19 101.106 146.527 101.101C145.865 101.096 145.036 101.104 144.041 101.124C143.046 101.143 141.898 101.176 140.597 101.221C139.296 101.266 137.784 101.282 136.063 101.269C134.341 101.256 132.934 101.25 131.841 101.251C130.748 101.252 129.916 101.253 129.343 101.254C128.771 101.255 128.196 101.256 127.617 101.256C127.039 101.256 126.322 101.256 125.467 101.256C124.612 101.256 123.447 101.256 121.974 101.256C120.501 101.255 119.171 101.255 117.983 101.256C116.796 101.257 115.342 101.256 113.623 101.255C111.904 101.253 110.803 101.254 110.318 101.259C109.833 101.264 109.11 101.26 108.149 101.247C107.189 101.234 106.031 101.25 104.675 101.294C103.319 101.338 102.272 101.38 101.534 101.42C100.797 101.46 100.17 101.468 99.653 101.444C99.137 101.419 98.3963 101.421 97.431 101.448C96.4657 101.475 95.2343 101.434 93.737 101.326C92.239 101.217 90.9323 101.147 89.817 101.116C88.701 101.085 87.2167 101.04 85.364 100.981C83.512 100.922 82.029 100.896 80.915 100.902C79.8017 100.908 78.7337 100.905 77.711 100.893C76.6883 100.88 75.9333 100.89 75.446 100.923C74.9587 100.955 74.2607 100.967 73.352 100.958C72.444 100.949 71.2127 100.93 69.658 100.901C68.104 100.871 67.3453 100.859 67.382 100.865C67.4187 100.871 67.2077 100.856 66.749 100.821C66.2897 100.786 65.8303 100.761 65.371 100.746C64.9117 100.732 64.637 100.73 64.547 100.741C64.4563 100.752 64.166 100.738 63.676 100.701C63.1853 100.664 62.3587 100.643 61.196 100.637C60.0333 100.63 58.304 100.573 56.008 100.465C53.7113 100.357 52.1497 100.241 51.323 100.116C50.497 99.9913 49.559 99.869 48.509 99.749C47.459 99.6283 46.616 99.5627 45.98 99.552C45.344 99.542 44.2323 99.5236 42.645 99.497C41.0577 99.4703 38.889 99.5093 36.139 99.614C33.3897 99.7186 31.367 99.8026 30.071 99.866C28.775 99.9286 27.3183 99.96 25.701 99.96C24.0843 99.9593 22.7197 99.9583 21.607 99.957C20.4943 99.955 19.1813 99.9813 17.668 100.036C16.1547 100.091 14.5073 100.175 12.726 100.289C10.9447 100.402 9.88433 100.476 9.54499 100.511C9.20566 100.546 8.84766 100.587 8.471 100.633C8.09433 100.679 7.686 100.748 7.246 100.839C6.806 100.93 6.18567 101.032 5.385 101.143C4.58433 101.254 4.12266 101.312 4 101.318C3.87666 101.323 3.83766 101.326 3.88299 101.327C3.92833 101.327 3.89866 101.358 3.794 101.421C3.82933 101.31 3.79833 101.451 3.70099 101.846C3.71699 101.855 3.69633 101.931 3.639 102.074C3.58166 102.217 3.55233 102.292 3.551 102.299C3.549 102.306 3.54533 102.315 3.54 102.327C3.53466 102.34 3.53133 102.35 3.53 102.359C3.528 102.368 3.52499 102.375 3.52099 102.378C3.51633 102.382 3.49966 102.446 3.471 102.571C3.443 102.696 3.37833 102.858 3.277 103.055C3.17566 103.253 3.073 103.533 2.969 103.895C2.865 104.257 2.79733 104.748 2.766 105.367C2.73466 105.986 2.71033 106.345 2.693 106.443C2.67633 106.541 2.66933 106.569 2.67199 106.528C2.67466 106.487 2.64266 106.545 2.57599 106.701C2.50866 106.858 2.44399 107.171 2.38199 107.642C2.31999 108.113 2.28966 108.814 2.291 109.747C2.29233 110.68 2.31933 111.999 2.372 113.706C2.42466 115.413 2.47566 117.301 2.525 119.371C2.57433 121.441 2.653 122.921 2.761 123.812C2.86966 124.703 3.00533 125.379 3.168 125.84C3.33066 126.301 3.42999 127.029 3.46599 128.022C3.50133 129.015 3.50066 130.166 3.46399 131.477C3.42799 132.788 3.43233 133.456 3.47699 133.482C3.46899 133.451 3.47032 133.462 3.48099 133.516C3.49166 133.57 3.529 133.72 3.593 133.965C4.215 133.93 4.58833 133.914 4.71299 133.917C4.83699 133.92 4.873 133.922 4.821 133.925C4.769 133.928 4.77666 133.927 4.844 133.924C4.91133 133.92 4.92766 133.921 4.89299 133.928C4.85766 133.935 4.926 133.928 5.098 133.907C5.27 133.887 5.61866 133.812 6.14399 133.683C6.66866 133.553 7.21499 133.491 7.78299 133.498C8.35099 133.504 8.84666 133.52 9.26999 133.545C9.69333 133.57 9.87366 133.58 9.81099 133.575C9.74833 133.57 9.74533 133.573 9.802 133.583C9.85866 133.593 9.91199 133.603 9.96199 133.614C10.012 133.625 10.1297 133.642 10.315 133.665C10.5003 133.688 10.7033 133.712 10.924 133.737C11.144 133.761 11.287 133.78 11.353 133.795C11.727 133.505 12.0207 133.309 12.234 133.206C12.4473 133.103 12.631 133.032 12.785 132.995L13.126 132.911C13.2053 132.892 13.2703 132.881 13.321 132.88L13.639 132.866L14.281 132.831C14.8057 132.784 15.1863 132.759 15.423 132.756C15.9583 132.729 16.3703 132.717 16.659 132.72C17.4317 132.711 17.9893 132.714 18.332 132.728C19.314 132.714 19.9607 132.719 20.272 132.744C21.3227 132.719 21.8827 132.714 21.952 132.727C22.906 132.73 23.4117 132.742 23.469 132.762L24.197 132.93L25.465 133.22L26.911 133.522L28.555 133.699C29.8283 133.762 30.5407 133.808 30.692 133.838C32.0967 133.831 32.9913 133.85 33.376 133.894C34.832 133.854 35.7967 133.855 36.27 133.897C37.8747 133.855 38.9753 133.854 39.572 133.893C41.2087 133.854 42.3083 133.852 42.871 133.887C44.163 133.82 44.9907 133.805 45.354 133.842L46.117 133.827C47.429 133.762 48.236 133.744 48.538 133.774L49.369 133.742C50.909 133.677 51.972 133.662 52.558 133.695C54.0833 133.651 55.115 133.649 55.653 133.69C57.2243 133.649 58.2953 133.649 58.866 133.689C60.4153 133.649 61.467 133.649 62.021 133.69C63.603 133.649 64.721 133.652 65.375 133.697C67.0337 133.709 68.182 133.745 68.82 133.804C70.1673 133.813 71.021 133.844 71.381 133.897L72.14 133.909C73.5993 133.878 74.5643 133.883 75.035 133.925L76.079 133.895C78.081 133.873 79.498 133.876 80.33 133.905C82.3573 133.876 83.7957 133.876 84.645 133.903C86.7723 133.876 88.285 133.874 89.183 133.899C91.4723 133.874 93.1013 133.873 94.07 133.894C96.364 133.873 97.995 133.873 98.963 133.894C101.337 133.873 103.025 133.872 104.027 133.891C106.318 133.872 107.996 133.874 109.061 133.897C110.939 133.957 112.304 134.024 113.155 134.097L114.496 134.167C116.334 134.286 117.604 134.385 118.305 134.466L119.761 134.504C121.697 134.598 123.056 134.68 123.838 134.751L125.448 134.786C128.374 134.897 130.426 134.98 131.605 135.035C134.602 135.135 136.682 135.211 137.845 135.263C138.99 135.274 139.758 135.283 140.149 135.29C140.54 135.297 140.88 135.303 141.171 135.308C141.462 135.313 141.723 135.317 141.956 135.321C142.189 135.326 142.405 135.33 142.602 135.333C142.8 135.336 142.987 135.339 143.163 135.342C143.34 135.345 143.51 135.348 143.675 135.351C143.84 135.354 144.017 135.357 144.206 135.362" stroke="white" stroke-width="0.5" stroke-linecap="round" stroke-linejoin="round"/>
    <path d="M4.374 100.685C4.15 100.685 4.03967 100.685 4.043 100.685H4.009C4.03166 100.685 4.04866 100.685 4.06 100.685C4.07133 100.685 3.99967 100.685 3.845 100.685C3.845 100.85 3.845 103.168 3.845 107.637C3.845 112.107 3.845 116.239 3.845 120.033C3.845 123.828 3.845 127.041 3.845 129.672C3.845 132.303 3.845 133.641 3.845 133.686C4.033 133.686 4.12167 133.686 4.111 133.686C4.179 133.686 4.32333 133.686 4.544 133.686" stroke="#50514F" stroke-width="3.4" stroke-linecap="round" stroke-linejoin="round"/>
    <path d="M3.845 100.849C3.845 100.79 3.845 100.735 3.845 100.685C3.91367 100.685 9.66867 100.685 21.11 100.685C32.5513 100.685 43.0143 100.685 52.499 100.685C61.9837 100.685 68.95 100.685 73.398 100.685C77.8467 100.685 81.6783 100.685 84.893 100.685C88.1083 100.685 90.441 100.685 91.891 100.685C93.341 100.685 99.6783 100.685 110.903 100.685C122.128 100.685 130.792 100.685 136.893 100.685C142.995 100.685 147.694 100.685 150.99 100.685C154.286 100.685 157.107 100.685 159.453 100.685C161.799 100.685 163.295 100.685 163.941 100.685V101.244C163.941 101.223 163.941 101.157 163.941 101.047C163.941 101.12 163.941 111.999 163.941 133.686" stroke="#50514F" stroke-width="3.4" stroke-linecap="round" stroke-linejoin="round"/>
    <path d="M6.00301 133.686C5.81101 133.686 5.76234 133.686 5.85701 133.686C5.55634 133.687 5.55067 133.687 5.84001 133.687C5.63534 133.688 5.61067 133.688 5.76601 133.688C5.53601 133.689 5.53134 133.69 5.75201 133.69C5.72401 133.69 5.69701 133.69 5.67101 133.69C6.11101 133.691 6.97234 133.692 8.25501 133.693C9.53834 133.694 11.4087 133.697 13.866 133.7C16.3227 133.703 18.8717 133.706 21.513 133.71C24.1537 133.714 27.628 133.72 31.936 133.727C36.244 133.735 40.2533 133.742 43.964 133.749C47.674 133.756 51.103 133.763 54.251 133.769C57.399 133.776 61.203 133.783 65.663 133.792C70.1237 133.801 73.4023 133.808 75.499 133.813C77.595 133.817 82.363 133.827 89.803 133.843C97.243 133.859 104.934 133.876 112.876 133.893C120.819 133.91 126.99 133.924 131.39 133.934C135.79 133.944 140.136 133.954 144.429 133.963C148.722 133.972 154.647 133.985 162.204 134.002L163.895 134.007" stroke="#50514F" stroke-width="3.4" stroke-linecap="round" stroke-linejoin="round"/>
    <path d="M100.378 133.686C100.558 133.686 100.637 133.686 100.615 133.686C100.955 133.686 101.135 133.686 101.154 133.686C101.173 133.686 101.18 133.686 101.175 133.686C101.598 133.686 101.753 133.686 101.642 133.686C101.987 133.686 102.172 133.686 102.199 133.686C102.225 133.686 102.227 133.686 102.205 133.686C102.184 133.686 102.237 133.686 102.365 133.686C102.493 133.686 103.7 133.686 105.985 133.686C108.27 133.686 110.653 133.686 113.134 133.686C115.616 133.686 117.495 133.686 118.771 133.686C120.047 133.686 121.623 133.686 123.499 133.686C125.374 133.686 126.848 133.686 127.921 133.686C128.993 133.686 132.177 133.686 137.474 133.686C142.771 133.686 146.78 133.686 149.502 133.686C152.223 133.686 154.162 133.686 155.318 133.686C156.473 133.686 157.541 133.686 158.522 133.686C159.503 133.686 160.241 133.686 160.736 133.686C161.232 133.686 161.592 133.686 161.815 133.686C162.038 133.686 162.225 133.686 162.375 133.686C162.525 133.686 162.704 133.686 162.913 133.686C163.122 133.686 163.21 133.686 163.178 133.686C163.146 133.686 163.146 133.686 163.177 133.686C163.208 133.686 163.292 133.686 163.428 133.686C163.564 133.686 163.627 133.686 163.617 133.686C163.608 133.686 163.609 133.686 163.622 133.686C163.635 133.686 163.689 133.686 163.786 133.686C163.883 133.686 163.934 133.686 163.941 133.686" stroke="#50514F" stroke-width="3.4" stroke-linecap="round" stroke-linejoin="round"/>
    <path d="M159.884 133.686C159.881 133.686 160.132 133.686 160.635 133.686C161.139 133.686 161.586 133.686 161.975 133.686C162.364 133.686 162.687 133.686 162.944 133.686C163.201 133.686 163.407 133.686 163.562 133.686C163.717 133.686 163.844 133.686 163.941 133.686" stroke="#50514F" stroke-width="3.4" stroke-linecap="round" stroke-linejoin="round"/>
    <path d="M85.089 66.4029C85.081 66.4103 85.0667 66.4179 85.046 66.4259C85.0007 66.5999 85.0287 65.551 85.13 63.279C85.2313 61.007 85.1747 58.5723 84.96 55.975C84.746 53.377 84.4857 51.2619 84.179 49.6299C83.873 47.9979 83.5357 46.324 83.167 44.608C82.799 42.8926 82.5547 41.62 82.434 40.79C82.314 39.96 82.13 39.007 81.882 37.931C81.6333 36.8556 81.3067 35.8756 80.902 34.991C80.4967 34.107 80.1447 33.3719 79.846 32.7859C79.5473 32.2006 79.3033 31.739 79.114 31.401C78.9247 31.063 78.771 30.788 78.653 30.576C78.6443 30.576 78.636 30.576 78.628 30.576C78.628 30.568 78.628 30.56 78.628 30.552C78.62 30.552 78.6117 30.552 78.603 30.552C78.603 30.5447 78.603 30.537 78.603 30.529C78.595 30.529 78.587 30.529 78.579 30.529C78.3643 30.3956 78.2597 30.3303 78.265 30.3329C78.2697 30.3363 78.2787 30.3417 78.292 30.349C78.024 30.145 77.8897 30.0406 77.889 30.0359C77.889 30.0306 77.8907 30.0306 77.894 30.0359C77.7767 29.9046 77.3273 29.603 76.546 29.131C75.7647 28.659 75.137 28.2933 74.663 28.034C74.189 27.7746 73.5497 27.564 72.745 27.402C71.9403 27.24 71.186 26.955 70.482 26.547C69.7787 26.1397 68.7417 25.8859 67.371 25.7859C66.0003 25.6866 64.917 25.616 64.121 25.574C63.3243 25.532 62.613 25.5763 61.987 25.707C61.361 25.8383 60.8867 25.9873 60.564 26.154C60.242 26.3206 60.0053 26.4419 59.854 26.5179C59.702 26.5939 59.3857 26.9436 58.905 27.5669C59.2103 27.6276 60.0843 27.7466 61.527 27.9239C62.9697 28.1019 64.0677 28.2093 64.821 28.246C65.575 28.2833 66.1787 28.3653 66.632 28.4919C67.0853 28.6186 67.517 28.755 67.927 28.901C68.3363 29.047 69.1913 29.3276 70.492 29.743C71.7927 30.1583 72.799 30.5186 73.511 30.824C74.223 31.1293 74.8947 31.3039 75.526 31.3479C76.158 31.3919 76.6407 31.4213 76.974 31.436C77.3073 31.4506 77.556 31.475 77.72 31.509C77.8833 31.5436 77.982 31.5407 78.016 31.5C78.0507 31.4593 78.1097 31.3983 78.193 31.3169C78.2763 31.2363 78.327 31.1653 78.345 31.1039C78.363 31.0426 78.3643 31.0356 78.349 31.0829C78.333 31.1296 78.3627 31.0843 78.438 30.9469C78.5127 30.8096 78.616 30.5779 78.748 30.2519C78.88 29.9259 79.35 29.0909 80.158 27.7469C80.966 26.4029 81.6413 25.312 82.184 24.474C82.7267 23.6367 83.2903 22.8376 83.875 22.077C84.4603 21.3163 84.907 20.7653 85.215 20.4239C85.523 20.0833 85.798 19.8053 86.04 19.59C86.2813 19.374 86.534 19.1909 86.798 19.0409C87.0627 18.8909 87.2257 18.7986 87.287 18.764C87.349 18.73 87.37 18.7193 87.35 18.732C87.3307 18.7446 87.3243 18.7459 87.331 18.7359C87.3383 18.7266 87.422 18.6966 87.582 18.646C87.742 18.596 87.8653 18.6079 87.952 18.6819C88.0387 18.7559 88.099 18.8996 88.133 19.113C88.1677 19.327 88.168 19.5113 88.134 19.6659C88.1 19.8199 87.8877 20.1523 87.497 20.663C87.1057 21.1743 86.653 21.846 86.139 22.678C85.6243 23.51 85.0697 24.351 84.475 25.201C83.8803 26.051 83.0377 27.106 81.947 28.366C80.8563 29.6266 79.7027 30.7736 78.486 31.8069C78.4693 31.7343 78.453 31.6616 78.437 31.589" stroke="#50514F" stroke-width="3.4" stroke-linecap="round" stroke-linejoin="round"/>
    <path d="M35.84 108.124C35.84 108.139 35.84 108.187 35.84 108.267C35.9473 108.174 35.9967 108.138 35.988 108.159C36.244 108.063 36.3323 108.031 36.253 108.062C36.5376 107.937 36.6417 107.889 36.565 107.918C36.6517 107.835 36.68 107.802 36.65 107.819C36.6193 107.836 36.7646 107.734 37.086 107.513C37.4066 107.292 37.7027 107.057 37.974 106.81C38.2453 106.563 38.4527 106.344 38.596 106.155C38.7393 105.966 38.8586 105.803 38.954 105.668C39.0486 105.533 39.112 105.434 39.144 105.37C39.176 105.305 39.1966 105.265 39.206 105.248C39.2153 105.232 39.2056 105.238 39.177 105.265C39.149 105.292 39.1987 105.197 39.326 104.98C39.4533 104.763 39.621 104.511 39.829 104.224C40.0363 103.937 40.2213 103.571 40.384 103.128C40.5473 102.685 40.6846 102.307 40.796 101.994C40.908 101.681 40.9776 101.461 41.005 101.336C41.0323 101.21 41.058 101.103 41.082 101.015C41.1053 100.926 41.1297 100.807 41.155 100.656C41.1803 100.505 41.205 100.346 41.229 100.177C41.2523 100.008 41.2753 99.8103 41.298 99.5829C41.3207 99.3556 41.3406 98.9943 41.358 98.4989C41.3746 98.0036 41.357 97.5793 41.305 97.2259C41.2523 96.8733 41.195 96.5853 41.133 96.362C41.071 96.1386 41.015 95.9639 40.965 95.8379C40.9143 95.7126 40.9057 95.6819 40.939 95.7459C40.9717 95.8106 40.8726 95.6526 40.642 95.272C40.4113 94.8913 40.177 94.556 39.939 94.266C39.701 93.9766 39.477 93.7273 39.267 93.5179C39.0576 93.3086 38.885 93.1353 38.749 92.998C38.6137 92.8613 38.479 92.7346 38.345 92.618C38.211 92.5013 38.1003 92.4059 38.013 92.3319C37.9263 92.2579 37.8453 92.1903 37.77 92.1289C37.6947 92.0676 37.6697 92.0469 37.695 92.0669C37.7203 92.0869 37.5653 91.9466 37.23 91.646C36.894 91.3453 36.5923 91.1193 36.325 90.9679C36.0576 90.8166 35.8527 90.7193 35.71 90.6759C35.568 90.6333 35.522 90.6226 35.572 90.644C35.622 90.6653 35.498 90.6183 35.2 90.503C34.9026 90.3883 34.472 90.259 33.908 90.115C33.3446 89.971 32.919 89.8996 32.631 89.901C32.343 89.9023 32.1623 89.9016 32.089 89.899C32.015 89.897 31.971 89.8963 31.957 89.897C31.943 89.8983 31.74 89.8986 31.348 89.8979C30.9567 89.8979 30.499 89.9039 29.975 89.9159C29.4516 89.9279 29.009 89.926 28.647 89.91C28.2856 89.8933 27.841 89.8866 27.313 89.8899C26.7857 89.8933 26.1586 90.0329 25.432 90.3089C24.7046 90.5849 24.0463 90.9516 23.457 91.409C22.867 91.8663 22.3576 92.2513 21.929 92.5639C21.5003 92.8766 20.9293 93.378 20.216 94.068C19.5027 94.758 18.9576 95.3459 18.581 95.8319C18.205 96.3179 17.9053 96.8616 17.682 97.4629C17.4586 98.0649 17.299 98.678 17.203 99.302C17.107 99.9266 17.098 100.493 17.176 101.001C17.2547 101.509 17.3563 101.931 17.481 102.268C17.605 102.605 17.805 102.99 18.081 103.422C18.357 103.853 18.5763 104.15 18.739 104.313C18.9016 104.476 19.011 104.591 19.067 104.66C19.123 104.728 19.188 104.8 19.262 104.877C19.3353 104.954 19.3956 105.021 19.443 105.077C19.491 105.133 19.5233 105.172 19.54 105.195C19.5573 105.218 19.6153 105.297 19.714 105.431C19.8126 105.566 19.8886 105.662 19.942 105.721C19.9953 105.78 20.0336 105.847 20.057 105.923C20.0803 105.999 20.416 106.281 21.064 106.768C21.712 107.255 22.178 107.61 22.462 107.835C22.7453 108.059 23.058 108.225 23.4 108.332C23.742 108.439 24.0117 108.539 24.209 108.633C24.407 108.726 24.557 108.802 24.659 108.861C24.761 108.92 24.924 108.98 25.148 109.041C25.3713 109.102 25.4576 109.132 25.407 109.133C25.3563 109.134 25.7933 109.152 26.718 109.188C27.6426 109.223 28.358 109.242 28.864 109.245C29.3693 109.247 29.7906 109.213 30.128 109.143C30.4646 109.073 30.7277 109.036 30.917 109.031C31.1057 109.026 31.2423 109.031 31.327 109.044C31.4117 109.058 31.5233 109.068 31.662 109.074C31.8013 109.08 31.944 109.086 32.09 109.092C32.2353 109.098 32.4133 109.092 32.624 109.073C32.834 109.054 33.0603 109.023 33.303 108.982C33.5456 108.94 33.7286 108.907 33.852 108.882C33.9753 108.857 34.1096 108.825 34.255 108.786C34.3996 108.747 34.698 108.638 35.15 108.46C35.602 108.281 36.123 107.984 36.713 107.569C37.3036 107.154 37.7423 106.838 38.029 106.621C38.3163 106.404 38.5387 106.26 38.696 106.188C38.8533 106.117 38.9843 106.056 39.089 106.005C39.1943 105.955 39.2903 105.904 39.377 105.853C39.4643 105.801 39.491 105.789 39.457 105.818C39.423 105.846 39.473 105.8 39.607 105.679C39.741 105.558 39.812 105.481 39.82 105.449" fill="#B0E8A1"/>
    <path d="M35.84 108.124C35.84 108.139 35.84 108.187 35.84 108.267C35.9473 108.174 35.9967 108.138 35.988 108.159C36.244 108.063 36.3323 108.031 36.253 108.062C36.5376 107.937 36.6417 107.889 36.565 107.918C36.6517 107.835 36.68 107.802 36.65 107.819C36.6193 107.836 36.7646 107.734 37.086 107.513C37.4066 107.292 37.7027 107.057 37.974 106.81C38.2453 106.563 38.4527 106.344 38.596 106.155C38.7393 105.966 38.8586 105.803 38.954 105.668C39.0486 105.533 39.112 105.434 39.144 105.37C39.176 105.305 39.1966 105.265 39.206 105.248C39.2153 105.232 39.2056 105.238 39.177 105.265C39.149 105.292 39.1987 105.197 39.326 104.98C39.4533 104.763 39.621 104.511 39.829 104.224C40.0363 103.937 40.2213 103.571 40.384 103.128C40.5473 102.685 40.6846 102.307 40.796 101.994C40.908 101.681 40.9776 101.461 41.005 101.336C41.0323 101.21 41.058 101.103 41.082 101.015C41.1053 100.926 41.1297 100.807 41.155 100.656C41.1803 100.505 41.205 100.346 41.229 100.177C41.2523 100.008 41.2753 99.8103 41.298 99.5829C41.3207 99.3556 41.3406 98.9943 41.358 98.4989C41.3746 98.0036 41.357 97.5793 41.305 97.2259C41.2523 96.8733 41.195 96.5853 41.133 96.362C41.071 96.1386 41.015 95.9639 40.965 95.8379C40.9143 95.7126 40.9057 95.6819 40.939 95.7459C40.9717 95.8106 40.8726 95.6526 40.642 95.272C40.4113 94.8913 40.177 94.556 39.939 94.266C39.701 93.9766 39.477 93.7273 39.267 93.5179C39.0576 93.3086 38.885 93.1353 38.749 92.998C38.6137 92.8613 38.479 92.7346 38.345 92.618C38.211 92.5013 38.1003 92.4059 38.013 92.3319C37.9263 92.2579 37.8453 92.1903 37.77 92.1289C37.6947 92.0676 37.6697 92.0469 37.695 92.0669C37.7203 92.0869 37.5653 91.9466 37.23 91.646C36.894 91.3453 36.5923 91.1193 36.325 90.9679C36.0576 90.8166 35.8527 90.7193 35.71 90.6759C35.568 90.6333 35.522 90.6226 35.572 90.644C35.622 90.6653 35.498 90.6183 35.2 90.503C34.9026 90.3883 34.472 90.259 33.908 90.115C33.3446 89.971 32.919 89.8996 32.631 89.901C32.343 89.9023 32.1623 89.9016 32.089 89.899C32.015 89.897 31.971 89.8963 31.957 89.897C31.943 89.8983 31.74 89.8986 31.348 89.8979C30.9567 89.8979 30.499 89.9039 29.975 89.9159C29.4516 89.9279 29.009 89.926 28.647 89.91C28.2856 89.8933 27.841 89.8866 27.313 89.8899C26.7857 89.8933 26.1586 90.0329 25.432 90.3089C24.7046 90.5849 24.0463 90.9516 23.457 91.409C22.867 91.8663 22.3576 92.2513 21.929 92.5639C21.5003 92.8766 20.9293 93.378 20.216 94.068C19.5027 94.758 18.9576 95.3459 18.581 95.8319C18.205 96.3179 17.9053 96.8616 17.682 97.4629C17.4586 98.0649 17.299 98.678 17.203 99.302C17.107 99.9266 17.098 100.493 17.176 101.001C17.2547 101.509 17.3563 101.931 17.481 102.268C17.605 102.605 17.805 102.99 18.081 103.422C18.357 103.853 18.5763 104.15 18.739 104.313C18.9016 104.476 19.011 104.591 19.067 104.66C19.123 104.728 19.188 104.8 19.262 104.877C19.3353 104.954 19.3956 105.021 19.443 105.077C19.491 105.133 19.5233 105.172 19.54 105.195C19.5573 105.218 19.6153 105.297 19.714 105.431C19.8126 105.566 19.8886 105.662 19.942 105.721C19.9953 105.78 20.0336 105.847 20.057 105.923C20.0803 105.999 20.416 106.281 21.064 106.768C21.712 107.255 22.178 107.61 22.462 107.835C22.7453 108.059 23.058 108.225 23.4 108.332C23.742 108.439 24.0117 108.539 24.209 108.633C24.407 108.726 24.557 108.802 24.659 108.861C24.761 108.92 24.924 108.98 25.148 109.041C25.3713 109.102 25.4576 109.132 25.407 109.133C25.3563 109.134 25.7933 109.152 26.718 109.188C27.6426 109.223 28.358 109.242 28.864 109.245C29.3693 109.247 29.7906 109.213 30.128 109.143C30.4646 109.073 30.7277 109.036 30.917 109.031C31.1057 109.026 31.2423 109.031 31.327 109.044C31.4117 109.058 31.5233 109.068 31.662 109.074C31.8013 109.08 31.944 109.086 32.09 109.092C32.2353 109.098 32.4133 109.092 32.624 109.073C32.834 109.054 33.0603 109.023 33.303 108.982C33.5456 108.94 33.7286 108.907 33.852 108.882C33.9753 108.857 34.1096 108.825 34.255 108.786C34.3996 108.747 34.698 108.638 35.15 108.46C35.602 108.281 36.123 107.984 36.713 107.569C37.3036 107.154 37.7423 106.838 38.029 106.621C38.3163 106.404 38.5387 106.26 38.696 106.188C38.8533 106.117 38.9843 106.056 39.089 106.005C39.1943 105.955 39.2903 105.904 39.377 105.853C39.4643 105.801 39.491 105.789 39.457 105.818C39.423 105.846 39.473 105.8 39.607 105.679C39.741 105.558 39.812 105.481 39.82 105.449" stroke="#B0E8A1" stroke-width="0.5" stroke-linecap="round" stroke-linejoin="round"/>
    <path d="M135.575 90.426C135.535 90.232 135.519 90.16 135.526 90.21C135.518 90.1853 135.502 90.1446 135.477 90.088C135.142 90.088 135.034 90.088 135.153 90.088C134.776 90.0926 134.647 90.0973 134.767 90.102C134.558 90.1293 134.458 90.1493 134.465 90.162C134.641 90.08 134.546 90.1133 134.179 90.262C133.812 90.41 133.493 90.56 133.223 90.712C132.952 90.864 132.703 91.004 132.474 91.132C132.246 91.2606 132.061 91.3593 131.92 91.428C131.779 91.4966 131.667 91.554 131.586 91.6C131.505 91.646 131.466 91.6693 131.469 91.67C131.472 91.67 131.423 91.711 131.322 91.793C131.221 91.875 131.155 91.9423 131.124 91.995C131.093 92.0477 130.921 92.2606 130.609 92.634C130.297 93.0073 130.062 93.2756 129.903 93.439C129.745 93.603 129.551 93.8253 129.321 94.106C129.091 94.3866 128.959 94.5263 128.926 94.525C128.892 94.523 128.718 94.7317 128.403 95.151C128.088 95.5697 127.856 95.9423 127.707 96.269C127.558 96.5956 127.466 96.825 127.429 96.957C127.393 97.0896 127.366 97.2057 127.348 97.305C127.331 97.4043 127.322 97.4487 127.322 97.438C127.322 97.4267 127.309 97.526 127.283 97.736C127.256 97.946 127.237 98.082 127.225 98.144C127.214 98.206 127.185 98.3549 127.138 98.5909C127.091 98.8269 127.062 99.071 127.05 99.323C127.038 99.575 127.033 99.769 127.036 99.905C127.039 100.041 127.049 100.267 127.064 100.582C127.08 100.897 127.093 101.094 127.102 101.173C127.112 101.252 127.146 101.437 127.204 101.727C127.262 102.017 127.326 102.25 127.396 102.427C127.466 102.604 127.554 102.867 127.66 103.214C127.766 103.562 127.86 103.806 127.941 103.947C128.022 104.088 128.079 104.189 128.114 104.248C128.149 104.308 128.186 104.356 128.223 104.393C128.26 104.43 128.32 104.49 128.403 104.575C128.486 104.66 128.539 104.713 128.563 104.735C128.586 104.756 128.593 104.764 128.584 104.759C128.575 104.753 128.582 104.76 128.606 104.781C128.63 104.801 128.707 104.867 128.837 104.98C128.966 105.092 129.034 105.151 129.04 105.157C129.047 105.162 129.043 105.158 129.029 105.144C129.015 105.13 129.055 105.157 129.148 105.225C129.241 105.293 129.42 105.462 129.685 105.732C129.95 106.003 130.377 106.276 130.967 106.552C131.557 106.829 132.012 107.011 132.333 107.1C132.654 107.189 133.003 107.249 133.38 107.282C133.758 107.315 134.092 107.375 134.383 107.463C134.674 107.551 134.943 107.657 135.191 107.782C135.439 107.906 135.993 107.955 136.853 107.928C137.714 107.901 138.394 107.884 138.893 107.877C139.393 107.869 139.829 107.852 140.202 107.826C140.575 107.799 140.853 107.755 141.034 107.693C141.215 107.632 141.398 107.558 141.584 107.473C141.769 107.388 141.867 107.346 141.877 107.347C141.887 107.348 142.33 107.218 143.206 106.956C144.081 106.693 144.819 106.439 145.419 106.194C146.019 105.948 146.441 105.772 146.684 105.665C146.928 105.558 147.097 105.477 147.19 105.42C147.283 105.363 147.359 105.319 147.42 105.286C147.48 105.254 147.513 105.234 147.519 105.226C147.526 105.218 147.503 105.234 147.451 105.273C147.398 105.312 147.521 105.225 147.819 105.013C148.116 104.802 148.361 104.627 148.552 104.488C148.743 104.349 148.897 104.247 149.014 104.181C149.131 104.115 149.255 103.996 149.387 103.823C149.519 103.65 149.623 103.496 149.7 103.359C149.776 103.222 149.847 103.097 149.914 102.983C149.98 102.87 150.025 102.78 150.048 102.715C150.072 102.65 150.102 102.584 150.138 102.515C150.175 102.446 150.215 102.322 150.26 102.144C150.304 101.966 150.339 101.798 150.364 101.641C150.389 101.484 150.421 101.333 150.46 101.187C150.498 101.042 150.545 100.825 150.602 100.537C150.659 100.25 150.702 100.042 150.732 99.914C150.763 99.7867 150.776 99.6653 150.772 99.55C150.768 99.4353 150.767 99.385 150.77 99.399C150.773 99.413 150.777 99.3966 150.783 99.35C150.788 99.3033 150.781 99.1886 150.761 99.006C150.74 98.824 150.698 98.6313 150.634 98.428C150.569 98.2246 150.52 98.0796 150.486 97.993C150.452 97.907 150.443 97.8807 150.46 97.914C150.477 97.948 150.437 97.8146 150.341 97.514C150.245 97.214 150.019 96.7699 149.663 96.1819C149.306 95.5939 149.011 95.115 148.778 94.745C148.545 94.3757 148.339 94.0816 148.161 93.863C147.983 93.6443 147.832 93.466 147.707 93.328C147.582 93.1907 147.506 93.1127 147.478 93.094C147.45 93.076 147.383 93.0216 147.276 92.931C147.169 92.8403 147.061 92.7613 146.952 92.694C146.843 92.626 146.721 92.5623 146.586 92.503C146.452 92.4443 146.258 92.3557 146.003 92.237C145.748 92.1183 145.488 91.9956 145.222 91.869C144.957 91.7423 144.747 91.6507 144.594 91.594C144.441 91.5373 144.169 91.461 143.778 91.365C143.388 91.2683 143.118 91.2057 142.969 91.177C142.82 91.1483 142.769 91.1323 142.818 91.129C142.867 91.1263 142.571 91.0227 141.931 90.818C141.292 90.6127 140.55 90.5169 139.705 90.5309C138.86 90.5443 138.246 90.5503 137.862 90.549C137.477 90.547 137.081 90.6136 136.672 90.749C136.263 90.8843 135.704 91.0573 134.995 91.2679C134.995 91.2773 134.987 91.2866 134.971 91.296C134.968 91.2746 134.969 91.3013 134.974 91.376C134.98 91.4506 134.987 91.5039 134.995 91.5359" fill="#B0E8A1"/>
    <path d="M135.575 90.426C135.535 90.232 135.519 90.16 135.526 90.21C135.518 90.1853 135.502 90.1446 135.477 90.088C135.142 90.088 135.034 90.088 135.153 90.088C134.776 90.0926 134.647 90.0973 134.767 90.102C134.558 90.1293 134.458 90.1493 134.465 90.162C134.641 90.08 134.546 90.1133 134.179 90.262C133.812 90.41 133.493 90.56 133.223 90.712C132.952 90.864 132.703 91.004 132.474 91.132C132.246 91.2606 132.061 91.3593 131.92 91.428C131.779 91.4966 131.667 91.554 131.586 91.6C131.505 91.646 131.466 91.6693 131.469 91.67C131.472 91.67 131.423 91.711 131.322 91.793C131.221 91.875 131.155 91.9423 131.124 91.995C131.093 92.0477 130.921 92.2606 130.609 92.634C130.297 93.0073 130.062 93.2756 129.903 93.439C129.745 93.603 129.551 93.8253 129.321 94.106C129.091 94.3866 128.959 94.5263 128.926 94.525C128.892 94.523 128.718 94.7317 128.403 95.151C128.088 95.5697 127.856 95.9423 127.707 96.269C127.558 96.5956 127.466 96.825 127.429 96.957C127.393 97.0896 127.366 97.2057 127.348 97.305C127.331 97.4043 127.322 97.4487 127.322 97.438C127.322 97.4267 127.309 97.526 127.283 97.736C127.256 97.946 127.237 98.082 127.225 98.144C127.214 98.206 127.185 98.3549 127.138 98.5909C127.091 98.8269 127.062 99.071 127.05 99.323C127.038 99.575 127.033 99.769 127.036 99.905C127.039 100.041 127.049 100.267 127.064 100.582C127.08 100.897 127.093 101.094 127.102 101.173C127.112 101.252 127.146 101.437 127.204 101.727C127.262 102.017 127.326 102.25 127.396 102.427C127.466 102.604 127.554 102.867 127.66 103.214C127.766 103.562 127.86 103.806 127.941 103.947C128.022 104.088 128.079 104.189 128.114 104.248C128.149 104.308 128.186 104.356 128.223 104.393C128.26 104.43 128.32 104.49 128.403 104.575C128.486 104.66 128.539 104.713 128.563 104.735C128.586 104.756 128.593 104.764 128.584 104.759C128.575 104.753 128.582 104.76 128.606 104.781C128.63 104.801 128.707 104.867 128.837 104.98C128.966 105.092 129.034 105.151 129.04 105.157C129.047 105.162 129.043 105.158 129.029 105.144C129.015 105.13 129.055 105.157 129.148 105.225C129.241 105.293 129.42 105.462 129.685 105.732C129.95 106.003 130.377 106.276 130.967 106.552C131.557 106.829 132.012 107.011 132.333 107.1C132.654 107.189 133.003 107.249 133.38 107.282C133.758 107.315 134.092 107.375 134.383 107.463C134.674 107.551 134.943 107.657 135.191 107.782C135.439 107.906 135.993 107.955 136.853 107.928C137.714 107.901 138.394 107.884 138.893 107.877C139.393 107.869 139.829 107.852 140.202 107.826C140.575 107.799 140.853 107.755 141.034 107.693C141.215 107.632 141.398 107.558 141.584 107.473C141.769 107.388 141.867 107.346 141.877 107.347C141.887 107.348 142.33 107.218 143.206 106.956C144.081 106.693 144.819 106.439 145.419 106.194C146.019 105.948 146.441 105.772 146.684 105.665C146.928 105.558 147.097 105.477 147.19 105.42C147.283 105.363 147.359 105.319 147.42 105.286C147.48 105.254 147.513 105.234 147.519 105.226C147.526 105.218 147.503 105.234 147.451 105.273C147.398 105.312 147.521 105.225 147.819 105.013C148.116 104.802 148.361 104.627 148.552 104.488C148.743 104.349 148.897 104.247 149.014 104.181C149.131 104.115 149.255 103.996 149.387 103.823C149.519 103.65 149.623 103.496 149.7 103.359C149.776 103.222 149.847 103.097 149.914 102.983C149.98 102.87 150.025 102.78 150.048 102.715C150.072 102.65 150.102 102.584 150.138 102.515C150.175 102.446 150.215 102.322 150.26 102.144C150.304 101.966 150.339 101.798 150.364 101.641C150.389 101.484 150.421 101.333 150.46 101.187C150.498 101.042 150.545 100.825 150.602 100.537C150.659 100.25 150.702 100.042 150.732 99.914C150.763 99.7867 150.776 99.6653 150.772 99.55C150.768 99.4353 150.767 99.385 150.77 99.399C150.773 99.413 150.777 99.3966 150.783 99.35C150.788 99.3033 150.781 99.1886 150.761 99.006C150.74 98.824 150.698 98.6313 150.634 98.428C150.569 98.2246 150.52 98.0796 150.486 97.993C150.452 97.907 150.443 97.8807 150.46 97.914C150.477 97.948 150.437 97.8146 150.341 97.514C150.245 97.214 150.019 96.7699 149.663 96.1819C149.306 95.5939 149.011 95.115 148.778 94.745C148.545 94.3757 148.339 94.0816 148.161 93.863C147.983 93.6443 147.832 93.466 147.707 93.328C147.582 93.1907 147.506 93.1127 147.478 93.094C147.45 93.076 147.383 93.0216 147.276 92.931C147.169 92.8403 147.061 92.7613 146.952 92.694C146.843 92.626 146.721 92.5623 146.586 92.503C146.452 92.4443 146.258 92.3557 146.003 92.237C145.748 92.1183 145.488 91.9956 145.222 91.869C144.957 91.7423 144.747 91.6507 144.594 91.594C144.441 91.5373 144.169 91.461 143.778 91.365C143.388 91.2683 143.118 91.2057 142.969 91.177C142.82 91.1483 142.769 91.1323 142.818 91.129C142.867 91.1263 142.571 91.0227 141.931 90.818C141.292 90.6127 140.55 90.5169 139.705 90.5309C138.86 90.5443 138.246 90.5503 137.862 90.549C137.477 90.547 137.081 90.6136 136.672 90.749C136.263 90.8843 135.704 91.0573 134.995 91.2679C134.995 91.2773 134.987 91.2866 134.971 91.296C134.968 91.2746 134.969 91.3013 134.974 91.376C134.98 91.4506 134.987 91.5039 134.995 91.5359" stroke="#B0E8A1" stroke-width="0.5" stroke-linecap="round" stroke-linejoin="round"/>
    <path d="M42.539 99.6009C42.5343 99.8143 42.532 99.9136 42.532 99.899C42.5313 99.911 42.531 99.9203 42.531 99.927C42.537 99.9603 42.513 99.4663 42.459 98.4449C42.4057 97.4236 42.509 96.3906 42.769 95.3459C43.029 94.3006 43.22 93.5043 43.342 92.957C43.4647 92.4096 43.5477 91.9036 43.591 91.439C43.635 90.9736 43.8197 89.6737 44.145 87.539C44.4703 85.405 44.8153 83.5706 45.18 82.0359C45.5447 80.5019 45.8903 79.3326 46.217 78.5279C46.5443 77.7239 46.777 77.107 46.915 76.677C47.053 76.247 47.251 75.5686 47.509 74.642C47.7677 73.716 48.1313 72.747 48.6 71.735C49.0687 70.723 49.4183 69.9407 49.649 69.388C49.879 68.8353 50.0377 68.4336 50.125 68.183C50.2123 67.933 50.3093 67.6923 50.416 67.461C50.5233 67.2297 50.6413 67.0026 50.77 66.78C50.8993 66.5573 51.012 66.3736 51.108 66.2289C51.2047 66.0836 51.3137 65.9383 51.435 65.793C51.5563 65.6483 51.667 65.5203 51.767 65.409C51.8677 65.2977 51.966 65.1879 52.062 65.0799C52.158 64.9726 52.227 64.9179 52.269 64.9159C52.3103 64.9146 52.62 64.4909 53.198 63.6449C53.7753 62.7996 54.3847 61.9733 55.026 61.1659C55.6673 60.3586 56.185 59.7877 56.579 59.453C56.973 59.1183 57.271 58.8299 57.473 58.5879C57.675 58.3459 57.8543 58.1429 58.011 57.9789C58.167 57.8149 58.2393 57.7406 58.228 57.756C58.216 57.772 58.3667 57.606 58.68 57.258C58.9933 56.9107 59.6863 56.362 60.759 55.612C61.8317 54.862 62.637 54.3016 63.175 53.931C63.713 53.5603 64.288 53.2457 64.9 52.987C65.5127 52.729 66.1127 52.4 66.7 52C67.288 51.6 67.8183 51.2703 68.291 51.011C68.7643 50.7523 69.4227 50.42 70.266 50.014C71.1093 49.6073 71.7737 49.2889 72.259 49.0589C72.7443 48.8289 73.156 48.6283 73.494 48.457C73.8313 48.2856 74.145 48.1516 74.435 48.055C74.7243 47.9583 75.063 47.8503 75.451 47.7309C75.8383 47.6123 76.188 47.5299 76.5 47.4839C76.8127 47.4379 77.1223 47.3823 77.429 47.3169C77.735 47.2516 78.0717 47.1696 78.439 47.071C78.8063 46.9716 79.0717 46.866 79.235 46.754C79.3977 46.6413 79.8757 46.5599 80.669 46.5099C81.4623 46.4599 82.0803 46.4653 82.523 46.526C82.9657 46.586 83.452 46.6366 83.982 46.678C84.5113 46.7193 84.9157 46.7336 85.195 46.7209C85.4737 46.7083 85.7253 46.7039 85.95 46.7079C86.174 46.7126 86.37 46.714 86.538 46.712C86.7053 46.7106 86.8387 46.7093 86.938 46.7079C87.0373 46.7066 87.2117 46.7113 87.461 46.722C87.7103 46.7326 88.25 46.718 89.08 46.678C89.9093 46.6373 90.5223 46.607 90.919 46.587C91.315 46.5676 91.6847 46.5573 92.028 46.556C92.3713 46.5553 92.797 46.6606 93.305 46.8719C93.8137 47.0833 94.3657 47.3276 94.961 47.605C95.557 47.8823 96.0047 48.0926 96.304 48.236C96.6033 48.3793 96.8857 48.492 97.151 48.574C97.4163 48.6553 97.5967 48.7113 97.692 48.7419C97.7873 48.7719 97.8853 48.8113 97.986 48.86C98.0867 48.9086 98.1787 48.9583 98.262 49.009C98.346 49.0603 98.4153 49.1026 98.47 49.136C98.5247 49.1686 98.5823 49.2013 98.643 49.2339C98.7037 49.2659 98.791 49.2989 98.905 49.3329C99.019 49.3669 99.0993 49.3919 99.146 49.4079C99.1933 49.4246 99.2847 49.454 99.42 49.496C99.5553 49.538 99.64 49.563 99.674 49.571C99.7087 49.5783 99.8503 49.613 100.099 49.675C100.348 49.7363 100.548 49.7823 100.699 49.813C100.85 49.843 101.2 50.0306 101.749 50.376C102.298 50.7213 102.796 51.0166 103.244 51.262C103.692 51.5066 104.107 51.7286 104.488 51.928C104.869 52.1273 105.263 52.4153 105.672 52.792C106.081 53.1686 106.562 53.5706 107.117 53.998C107.672 54.426 108.108 54.7446 108.425 54.954C108.742 55.1633 108.968 55.402 109.104 55.67C109.239 55.938 109.482 56.32 109.832 56.816C110.181 57.312 110.598 57.8103 111.082 58.311C111.566 58.8116 112.005 59.3566 112.398 59.946C112.791 60.5346 113.132 60.9783 113.421 61.277C113.71 61.5756 113.945 61.7946 114.124 61.9339C114.303 62.0733 114.475 62.2363 114.642 62.423C114.808 62.6103 114.943 62.7813 115.047 62.936C115.151 63.0913 115.222 63.2079 115.259 63.2859C115.296 63.3639 115.331 63.4313 115.362 63.488C115.393 63.5446 115.446 63.647 115.52 63.795C115.595 63.9436 115.695 64.151 115.822 64.417C115.949 64.6823 116.035 64.8859 116.08 65.0279C116.125 65.1699 116.358 65.4123 116.779 65.7549C117.2 66.0976 117.572 66.4633 117.895 66.852C118.218 67.2406 118.421 67.5366 118.505 67.74C118.588 67.9433 118.788 68.2546 119.103 68.6739C119.418 69.0926 119.678 69.4593 119.883 69.774C120.088 70.0886 120.199 70.3107 120.215 70.44C120.23 70.5693 120.317 70.7813 120.476 71.076C120.635 71.37 120.86 71.8143 121.152 72.409C121.445 73.0037 121.773 73.774 122.137 74.72C122.5 75.6666 122.768 76.3966 122.94 76.91C123.111 77.4233 123.341 78.0346 123.629 78.7439C123.917 79.4539 124.173 80.108 124.397 80.706C124.621 81.304 124.787 81.8073 124.894 82.2159C125.001 82.6253 125.104 82.9473 125.203 83.1819C125.302 83.4166 125.377 83.615 125.43 83.777C125.483 83.939 125.527 84.0789 125.563 84.1969C125.599 84.3143 125.615 84.3639 125.611 84.3459C125.608 84.3279 125.616 84.3539 125.636 84.4239C125.656 84.4939 125.716 84.7003 125.816 85.043C125.916 85.3856 125.98 85.5959 126.009 85.6739C126.037 85.7526 126.064 85.8126 126.089 85.8539C126.115 85.8953 126.207 86.2266 126.364 86.8479C126.521 87.4686 126.656 88.069 126.768 88.649C126.879 89.2296 126.977 89.631 127.06 89.853C127.143 90.075 127.239 90.4309 127.348 90.9209C127.456 91.4103 127.531 91.8433 127.572 92.22C127.613 92.5973 127.654 92.8736 127.697 93.0489C127.739 93.2243 127.772 93.3833 127.796 93.526C127.819 93.668 127.84 93.7976 127.859 93.915C127.878 94.0316 127.886 94.0666 127.883 94.0199C127.88 93.9726 127.901 94.0463 127.948 94.241C127.994 94.4363 128.044 94.6493 128.099 94.8799C128.154 95.1106 128.211 95.4039 128.27 95.7599C128.329 96.1153 128.37 96.3869 128.391 96.5749C128.412 96.7629 128.43 96.9293 128.446 97.074C128.462 97.2193 128.472 97.2776 128.475 97.249C128.478 97.221 128.483 97.2463 128.49 97.3249C128.497 97.4043 128.51 97.4013 128.529 97.316C128.548 97.2313 128.578 97.5957 128.619 98.409C128.612 98.411 128.605 98.4216 128.599 98.441C128.591 98.443 128.577 98.4843 128.558 98.565L128.547 98.568C128.548 98.5773 128.549 98.587 128.55 98.597C128.543 98.5983 128.535 98.6 128.528 98.602C128.529 98.6133 128.536 98.6833 128.55 98.8119C128.551 98.8059 128.558 98.7346 128.572 98.5979C128.573 98.6073 128.579 98.6563 128.588 98.745C128.589 98.7377 128.609 98.6753 128.65 98.558C128.69 98.4406 128.734 98.3407 128.783 98.258C127.22 98.6113 125.643 98.9343 124.053 99.227C122.463 99.5196 120.845 99.7523 119.198 99.925C117.552 100.098 115.877 100.222 114.173 100.297C112.468 100.373 110.734 100.412 108.97 100.414C107.206 100.416 105.416 100.404 103.599 100.378C101.783 100.352 99.9447 100.33 98.084 100.311C96.2233 100.292 94.3487 100.285 92.46 100.288C90.5713 100.291 88.6753 100.304 86.772 100.325C84.868 100.346 82.9647 100.381 81.062 100.43C79.16 100.478 77.2637 100.533 75.373 100.594C73.4823 100.655 71.6017 100.715 69.731 100.772C67.8603 100.829 66.0023 100.878 64.157 100.918C62.311 100.957 60.4777 100.974 58.657 100.969C56.8363 100.964 55.0273 100.925 53.23 100.854C51.432 100.783 49.6427 100.63 47.862 100.393C46.082 100.156 44.3077 99.8923 42.539 99.6009Z" fill="#B0E8A1" stroke="#B0E8A1" stroke-width="0.5" stroke-linecap="round" stroke-linejoin="round"/>
    <path d="M67.162 85.478C67.0233 85.4213 66.971 85.3786 67.005 85.35C66.9137 85.2866 66.8933 85.2383 66.944 85.205C66.994 85.1723 66.9343 85.1686 66.765 85.194C66.595 85.22 66.5003 85.265 66.481 85.329C66.4617 85.3936 66.4323 85.4473 66.393 85.49C66.3543 85.532 66.3397 85.566 66.349 85.592C66.3577 85.618 66.1853 86.0293 65.832 86.826C65.478 87.6227 65.2283 88.394 65.083 89.14C64.937 89.886 64.8417 90.4383 64.797 90.797C64.7523 91.155 64.779 91.6003 64.877 92.133C64.975 92.6663 65.0913 93.0766 65.226 93.364C65.3613 93.6513 65.569 93.9836 65.849 94.361C66.1297 94.7376 66.3933 95.0129 66.64 95.1869C66.886 95.3616 67.0533 95.4817 67.142 95.547C67.2307 95.6123 67.2573 95.637 67.222 95.621C67.1873 95.6043 67.278 95.6556 67.494 95.775C67.71 95.8936 67.875 95.9656 67.989 95.991C68.103 96.0163 68.2523 96.0296 68.437 96.0309C68.6217 96.0329 68.685 96.0326 68.627 96.03C68.5697 96.028 68.6123 96.041 68.755 96.069C68.8983 96.0963 69.1417 96.0713 69.485 95.994C69.8283 95.9166 70.1233 95.798 70.37 95.638C70.616 95.4773 70.7907 95.3653 70.894 95.302C70.9967 95.2393 71.1147 95.1597 71.248 95.063C71.382 94.9663 71.494 94.8816 71.584 94.809C71.674 94.7363 71.706 94.702 71.68 94.706C71.6547 94.7107 71.6803 94.6873 71.757 94.636C71.8337 94.5853 71.9867 94.4503 72.216 94.231C72.4447 94.0116 72.6177 93.7556 72.735 93.4629C72.853 93.1703 72.9393 92.8763 72.994 92.581C73.0487 92.2863 73.0767 92.0376 73.078 91.835C73.0793 91.6323 73.0797 91.39 73.079 91.108C73.0783 90.826 73.05 90.6077 72.994 90.453C72.9373 90.2977 72.917 90.276 72.933 90.388C72.949 90.5007 72.864 90.2086 72.678 89.512C72.4927 88.8153 72.327 88.2103 72.181 87.697C72.035 87.1836 71.879 86.8247 71.713 86.62C71.547 86.4147 71.42 86.2726 71.332 86.194C71.2447 86.116 71.2013 86.0773 71.202 86.078C71.2027 86.0787 71.209 86.085 71.221 86.097C71.2337 86.1083 71.1453 86.0316 70.956 85.8669C70.7667 85.7023 70.6873 85.6343 70.718 85.663C70.748 85.691 70.7257 85.6697 70.651 85.599C70.577 85.5283 70.5083 85.4617 70.445 85.399C70.3823 85.3363 70.351 85.3067 70.351 85.31C70.351 85.314 70.359 85.3206 70.375 85.33C70.3917 85.34 70.3417 85.2966 70.225 85.1999C70.1083 85.1039 70.0087 85.0246 69.926 84.962C69.8427 84.8993 69.7693 84.851 69.706 84.817C69.642 84.783 69.5997 84.7626 69.579 84.756C69.5583 84.7493 69.5627 84.7523 69.592 84.765C69.622 84.7783 69.552 84.7373 69.382 84.642C69.212 84.5466 68.9593 84.4717 68.624 84.417C68.2887 84.3617 68.024 84.3456 67.83 84.369C67.6353 84.393 67.5053 84.4213 67.44 84.454C67.374 84.4866 67.3057 84.5473 67.235 84.636C67.165 84.7247 67.023 84.881 66.809 85.105C66.595 85.329 66.315 85.7447 65.969 86.352C65.6237 86.9593 65.3803 87.439 65.239 87.791C65.0977 88.143 65.0113 88.542 64.98 88.988C64.9487 89.4333 64.9317 89.7946 64.929 90.072C64.9257 90.3486 64.9413 90.6063 64.976 90.845C65.01 91.083 65.0357 91.2413 65.053 91.3199C65.0697 91.3986 65.2047 91.701 65.458 92.227C65.7113 92.7537 66.0183 93.2277 66.379 93.649C66.7403 94.0697 67.056 94.3266 67.326 94.42C67.596 94.5133 67.827 94.597 68.019 94.671C68.211 94.7443 68.4593 94.8026 68.764 94.8459C69.0687 94.8893 69.2453 94.9096 69.294 94.907C69.3433 94.905 69.4887 94.8853 69.73 94.848C69.9713 94.8106 70.1037 94.7786 70.127 94.752C70.1497 94.726 70.2433 94.6583 70.408 94.5489C70.5727 94.4389 70.7513 94.293 70.944 94.111C71.1373 93.929 71.2993 93.7473 71.43 93.566C71.5613 93.3846 71.6803 93.2173 71.787 93.064C71.8937 92.91 71.961 92.8126 71.989 92.772C72.0177 92.7306 72.042 92.695 72.062 92.665C72.082 92.6356 72.1047 92.5966 72.13 92.548C72.156 92.4986 72.192 92.397 72.238 92.243C72.2847 92.0883 72.31 92.0463 72.314 92.1169C72.3173 92.1869 72.3607 91.9086 72.444 91.282C72.5273 90.6553 72.524 90.0846 72.434 89.5699C72.344 89.0546 72.182 88.5933 71.948 88.186C71.714 87.7786 71.4243 87.4083 71.079 87.0749C70.7337 86.7409 70.373 86.4466 69.997 86.192C69.621 85.9366 69.301 85.7466 69.037 85.6219C68.7737 85.4966 68.493 85.4826 68.195 85.58C67.897 85.678 67.6943 85.7933 67.587 85.926C67.4803 86.0593 67.392 86.163 67.322 86.237C67.2527 86.311 67.156 86.4956 67.032 86.791C66.908 87.087 66.8527 87.205 66.866 87.145C66.8793 87.0843 66.7717 87.3796 66.543 88.0309C66.3143 88.6823 66.181 89.2943 66.143 89.8669C66.105 90.4403 66.16 91.0406 66.308 91.668C66.4567 92.296 66.6407 92.7476 66.86 93.0229C67.0793 93.2983 67.316 93.5096 67.57 93.657C67.824 93.8043 67.9213 93.866 67.862 93.842C67.802 93.8186 67.8993 93.8567 68.154 93.956C68.408 94.0553 68.6103 94.1223 68.761 94.157C68.911 94.1916 69.069 94.212 69.235 94.218C69.401 94.2246 69.5407 94.2166 69.654 94.194C69.7667 94.172 69.843 94.1356 69.883 94.085C69.9237 94.035 69.929 94.0323 69.899 94.077C69.869 94.1216 69.9557 93.9906 70.159 93.684C70.363 93.3773 70.4457 93.2423 70.407 93.279C70.5383 92.8763 70.6347 92.583 70.696 92.399C70.758 92.215 70.826 91.8833 70.9 91.404C70.974 90.9247 70.99 90.4603 70.948 90.011C70.9053 89.561 70.804 89.1883 70.644 88.8929C70.4847 88.5969 70.3793 88.379 70.328 88.239C70.276 88.099 70.2447 88.0216 70.234 88.007C70.2227 87.9923 70.1763 87.8783 70.095 87.665C70.0137 87.4516 69.9473 87.311 69.896 87.243C69.8453 87.1756 69.7763 87.1133 69.689 87.056C69.601 86.998 69.5533 86.957 69.546 86.933C69.5387 86.9096 69.415 86.9913 69.175 87.178C68.935 87.3653 68.8127 87.5356 68.808 87.689C68.804 87.8416 68.786 87.9316 68.754 87.959C68.722 87.9856 68.6833 88.283 68.638 88.851C68.5927 89.419 68.5393 89.9097 68.478 90.323C68.416 90.7363 68.476 91.11 68.658 91.444C68.8393 91.778 68.9963 91.992 69.129 92.086C69.2617 92.18 69.3447 92.2456 69.378 92.283C69.4107 92.321 69.5873 92.3363 69.908 92.329C69.922 92.2463 69.9537 92.1536 70.003 92.051C70.0523 91.9483 70.0867 91.657 70.106 91.177C70.1253 90.697 70.128 90.3163 70.114 90.035C70.1 89.7543 70.0847 89.572 70.068 89.488" stroke="#50514F" stroke-width="3.4" stroke-linecap="round" stroke-linejoin="round"/>
    <path d="M97.842 84.795C97.8327 84.795 97.7963 84.795 97.733 84.795C97.4437 84.7437 97.3247 84.7257 97.376 84.741C97.4013 84.705 97.3267 84.8054 97.152 85.042C96.9773 85.2787 96.7743 85.693 96.543 86.285C96.3117 86.8763 96.1617 87.3463 96.093 87.695C96.0243 88.043 95.9967 88.3293 96.01 88.554C96.0227 88.7787 96.0273 88.9747 96.024 89.142C96.0207 89.31 96.0193 89.4523 96.02 89.569C96.0213 89.6863 96.0223 89.8087 96.023 89.936C96.0237 90.0633 96.037 90.1783 96.063 90.281C96.089 90.3836 96.0733 90.4064 96.016 90.349C95.9587 90.2917 95.9893 90.39 96.108 90.644C96.2267 90.8973 96.4277 91.158 96.711 91.426C96.9943 91.6933 97.202 91.8717 97.334 91.961C97.4653 92.0504 97.61 92.1087 97.768 92.136C97.9253 92.1627 98.058 92.1723 98.166 92.165C98.274 92.1577 98.328 92.153 98.328 92.151C98.328 92.1484 98.3237 92.1516 98.315 92.161C98.307 92.1703 98.4033 92.1683 98.604 92.155C98.8053 92.1423 98.9887 92.0277 99.154 91.811C99.3193 91.5943 99.439 91.4287 99.513 91.314C99.587 91.1993 99.6673 91.0823 99.754 90.963C99.8413 90.843 99.928 90.728 100.014 90.618C100.099 90.508 100.126 90.472 100.095 90.51C100.064 90.548 100.119 90.497 100.262 90.357C100.405 90.2164 100.495 90.0933 100.532 89.988C100.569 89.8827 100.62 89.7493 100.685 89.588C100.75 89.426 100.798 89.279 100.828 89.147C100.857 89.0143 100.867 88.9903 100.856 89.075C100.845 89.159 100.887 88.963 100.984 88.487C101.081 88.011 101.121 87.5653 101.105 87.15C101.089 86.734 100.971 86.4013 100.752 86.152C100.533 85.902 100.351 85.7027 100.204 85.554C100.057 85.4053 99.9573 85.2993 99.904 85.236C99.85 85.1727 99.7817 85.097 99.699 85.009C99.6163 84.9203 99.5767 84.8777 99.58 84.881C99.5833 84.8843 99.5897 84.8894 99.599 84.896C99.6077 84.902 99.6003 84.89 99.577 84.86C99.553 84.8293 99.4747 84.7554 99.342 84.638C99.2093 84.52 99.0903 84.418 98.985 84.332C98.879 84.2467 98.7863 84.1777 98.707 84.125C98.627 84.0724 98.5907 84.0556 98.598 84.075C98.6047 84.0936 98.6017 84.0927 98.589 84.072C98.5763 84.0507 98.48 83.999 98.3 83.917C98.12 83.8357 97.9017 83.8304 97.645 83.901C97.3883 83.9717 97.2043 84.073 97.093 84.205C96.981 84.337 96.9273 84.3957 96.932 84.381C96.9367 84.367 96.9407 84.3753 96.944 84.406C96.9473 84.4366 96.9483 84.413 96.947 84.335C96.9463 84.257 96.738 84.6177 96.322 85.417C95.906 86.2157 95.64 87.02 95.524 87.83C95.408 88.6393 95.3697 89.2807 95.409 89.754C95.449 90.2273 95.5333 90.6324 95.662 90.969C95.7907 91.305 96.0097 91.679 96.319 92.091C96.6277 92.503 96.856 92.769 97.004 92.889C97.152 93.0083 97.3603 93.0973 97.629 93.156C97.8983 93.2146 98.1157 93.2663 98.281 93.311C98.4463 93.3557 98.742 93.2777 99.168 93.077C99.594 92.8757 99.914 92.7 100.128 92.55C100.341 92.4 100.502 92.2977 100.611 92.243C100.719 92.1877 100.88 92.013 101.094 91.719C101.308 91.4244 101.466 91.129 101.568 90.833C101.671 90.537 101.74 90.296 101.776 90.11C101.812 89.9247 101.835 89.761 101.846 89.619C101.857 89.477 101.854 89.3486 101.838 89.234C101.822 89.1193 101.829 89.0933 101.859 89.156C101.89 89.218 101.885 88.952 101.844 88.358C101.804 87.764 101.679 87.1994 101.47 86.664C101.261 86.1294 101.116 85.7056 101.035 85.393C100.954 85.0803 100.819 84.844 100.629 84.684C100.438 84.5247 100.334 84.4514 100.316 84.464C100.297 84.4774 100.288 84.4813 100.287 84.476C100.286 84.4706 100.286 84.4703 100.288 84.475C100.291 84.4797 100.307 84.4797 100.338 84.475C100.369 84.471 100.263 84.4236 100.022 84.333C99.78 84.243 99.5607 84.176 99.364 84.132C99.1673 84.088 98.9943 84.0597 98.845 84.047C98.6957 84.0344 98.643 84.031 98.687 84.037C98.7317 84.0437 98.6747 84.022 98.516 83.972C98.3573 83.922 98.1963 83.9023 98.033 83.913C97.869 83.9237 97.7347 83.9697 97.63 84.051C97.5247 84.1323 97.4527 84.2243 97.414 84.327C97.3753 84.4303 97.3763 84.4563 97.417 84.405C97.4583 84.353 97.257 84.708 96.813 85.47C96.3697 86.232 96.0643 87.1373 95.897 88.186C95.729 89.234 95.6573 90.0213 95.682 90.548C95.7067 91.0747 95.74 91.484 95.782 91.776C95.8233 92.068 95.9187 92.345 96.068 92.607C96.2173 92.869 96.4467 93.126 96.756 93.378C97.0653 93.63 97.3543 93.8287 97.623 93.974C97.891 94.1194 98.1647 94.2146 98.444 94.26C98.7227 94.3046 99.0397 94.221 99.395 94.009C99.7503 93.797 99.995 93.5954 100.129 93.404C100.263 93.2127 100.462 92.9237 100.725 92.537C100.988 92.1497 101.209 91.6143 101.386 90.931C101.564 90.247 101.547 89.5023 101.334 88.697C101.122 87.8917 100.916 87.2407 100.717 86.744C100.518 86.248 100.379 85.9777 100.301 85.933C100.223 85.889 100.039 85.7623 99.749 85.553C99.459 85.3443 99.188 85.1817 98.936 85.065C98.684 84.9484 98.4763 84.8743 98.313 84.843C98.149 84.8123 97.9163 84.926 97.615 85.184C97.313 85.4427 97.0733 85.686 96.896 85.914C96.7187 86.142 96.559 86.4453 96.417 86.824C96.275 87.2033 96.1403 87.5396 96.013 87.833C95.885 88.1256 95.8043 88.7703 95.771 89.767C95.7377 90.7637 95.7213 91.5363 95.722 92.085C95.7227 92.6343 95.7697 93.0433 95.863 93.312C95.957 93.58 96.1967 93.9363 96.582 94.381C96.9673 94.825 97.4407 95.0727 98.002 95.124C98.5627 95.1753 98.992 95.217 99.29 95.249C99.5887 95.2803 99.9677 95.161 100.427 94.891C100.887 94.6204 101.253 94.3483 101.526 94.075C101.799 93.8016 101.911 93.706 101.863 93.788C101.815 93.87 101.955 93.6857 102.282 93.235C102.609 92.7843 102.803 92.1517 102.862 91.337C102.921 90.523 102.798 89.7003 102.493 88.869C102.188 88.0383 101.851 87.3063 101.484 86.673C101.116 86.0397 100.824 85.565 100.608 85.249C100.392 84.9323 100.227 84.7337 100.114 84.653C100.001 84.5723 99.8337 84.4937 99.611 84.417C99.3883 84.3397 99.2573 84.2993 99.218 84.296C99.1787 84.292 99.1123 84.28 99.019 84.26C98.9257 84.24 98.75 84.2293 98.492 84.228C98.2333 84.2267 98.031 84.232 97.885 84.244C97.7383 84.256 97.6673 84.2697 97.672 84.285C97.676 84.3003 97.6263 84.3307 97.523 84.376C97.4197 84.4207 97.3743 84.4477 97.387 84.457C97.399 84.4657 97.3917 84.4773 97.365 84.492C97.3377 84.5066 97.345 84.4943 97.387 84.455C97.4297 84.4163 97.3613 84.4676 97.182 84.609C97.0027 84.751 96.8397 84.905 96.693 85.071C96.547 85.2363 96.473 85.324 96.471 85.334C96.4697 85.344 96.458 85.367 96.436 85.403C96.414 85.439 96.327 85.5796 96.175 85.825C96.0223 86.071 95.852 86.5687 95.664 87.318C95.4753 88.0674 95.374 88.81 95.36 89.546C95.346 90.2813 95.3533 90.9284 95.382 91.487C95.4107 92.0464 95.4793 92.551 95.588 93.001C95.6967 93.451 95.9777 93.7757 96.431 93.975C96.885 94.1743 97.3193 94.2293 97.734 94.14C98.148 94.0513 98.4567 93.9487 98.66 93.832C98.8627 93.7153 99.1663 93.52 99.571 93.246C99.975 92.9713 100.305 92.63 100.562 92.222C100.819 91.8133 100.99 91.307 101.076 90.703C101.163 90.0984 101.129 89.444 100.976 88.74C100.823 88.036 100.601 87.484 100.31 87.084C100.018 86.6833 99.7307 86.371 99.448 86.147C99.1653 85.9237 98.8823 85.8087 98.599 85.802C98.315 85.7947 98.0523 85.953 97.811 86.277C97.5697 86.6003 97.257 87.034 96.873 87.578C96.4883 88.122 96.2733 88.7187 96.228 89.368C96.1827 90.0173 96.1557 90.503 96.147 90.825C96.1383 91.1476 96.1833 91.4037 96.282 91.593C96.3807 91.7817 96.544 91.915 96.772 91.993C97.0007 92.071 97.262 92.0144 97.556 91.823C97.85 91.6317 98.164 91.1607 98.498 90.41C98.8327 89.66 99.0587 89.0237 99.176 88.501C99.2933 87.9777 99.2303 87.6003 98.987 87.369C98.743 87.1383 98.556 87.012 98.426 86.99C98.2953 86.9687 98.184 86.9673 98.092 86.986C98 87.0047 97.864 87.3143 97.684 87.915C97.504 88.5163 97.5387 89.1873 97.788 89.928C97.7273 89.942 97.881 89.9457 98.249 89.939C98.6163 89.9317 98.833 89.9234 98.899 89.914" stroke="#50514F" stroke-width="3.4" stroke-linecap="round" stroke-linejoin="round"/>
    <path d="M99.409 88.975C99.315 88.569 99.2687 88.4223 99.27 88.535C99.1454 88.3516 99.0824 88.266 99.081 88.278C99.0617 88.26 99.03 88.2373 98.986 88.21C98.986 88.228 98.9904 88.2653 98.999 88.322C99.0077 88.378 99.0204 88.4353 99.037 88.494" stroke="#50514F" stroke-width="3.4" stroke-linecap="round" stroke-linejoin="round"/>
    <path d="M70.01 89.881C70.01 89.5583 70.01 89.441 70.01 89.529C70.01 89.107 70.01 88.9739 70.01 89.1299C70.01 89.1119 70.01 89.0783 70.01 89.029C69.7847 88.941 69.5833 89.2083 69.406 89.831C69.2287 90.453 69.1213 90.966 69.084 91.37C69.046 91.7733 69.0303 92.0603 69.037 92.2309C69.043 92.4016 69.0457 92.5293 69.045 92.6139C69.0443 92.6986 69.0483 92.7169 69.057 92.6689C69.0663 92.6209 69.055 92.6519 69.023 92.7619C68.9917 92.8726 68.9833 93.0213 68.998 93.2079C69.0127 93.3953 69.1053 93.5473 69.276 93.664C69.4467 93.7806 69.538 93.834 69.55 93.824C69.562 93.8146 69.5663 93.8116 69.563 93.815C69.5603 93.819 69.608 93.8286 69.706 93.844C69.8047 93.86 69.9233 93.8519 70.062 93.8199C70.2007 93.7873 70.2933 93.7383 70.34 93.673C70.3867 93.6076 70.4883 93.471 70.645 93.263C70.801 93.055 70.8667 92.65 70.842 92.048C70.818 91.4453 70.7847 90.9303 70.742 90.503C70.6993 90.0763 70.6253 89.6523 70.52 89.2309C70.3867 89.1803 70.3257 89.1559 70.337 89.1579C70.0837 89.1459 69.9477 89.1383 69.929 89.1349C69.911 89.1323 69.9183 89.15 69.951 89.188C69.731 89.586 69.656 89.7279 69.726 89.6139C69.7053 89.6119 69.585 89.9139 69.365 90.5199C69.1443 91.1253 69.0337 91.573 69.033 91.863C69.0323 92.1523 69.0283 92.4213 69.021 92.67C69.0137 92.9186 69.0837 93.1166 69.231 93.264C69.379 93.4106 69.5327 93.5283 69.692 93.6169C69.852 93.7056 69.949 93.7523 69.983 93.7569C70.017 93.7616 70.0147 93.757 69.976 93.743C69.938 93.7296 69.9773 93.7433 70.094 93.784C70.2113 93.8246 70.348 93.8426 70.504 93.8379C70.66 93.8333 70.826 93.7759 71.002 93.6659C71.1787 93.5566 71.2637 93.4893 71.257 93.464C71.2497 93.4386 71.2607 93.3953 71.29 93.334C71.3187 93.2733 71.3313 93.2179 71.328 93.1679C71.3247 93.1186 71.3563 92.9986 71.423 92.808C71.4897 92.618 71.5483 92.2096 71.599 91.5829C71.649 90.9556 71.6633 90.4333 71.642 90.016C71.62 89.598 71.5363 89.2343 71.391 88.925C71.2463 88.6156 71.094 88.4056 70.934 88.295C70.7733 88.1836 70.7223 88.1356 70.781 88.151C70.8397 88.1663 70.778 88.1836 70.596 88.203C70.414 88.2216 70.2633 88.3213 70.144 88.5019C70.0253 88.6819 69.899 88.8953 69.765 89.1419C69.631 89.3886 69.532 89.5909 69.468 89.7489C69.404 89.9063 69.3317 90.0719 69.251 90.2459C69.1703 90.4193 69.1077 90.6356 69.063 90.8949C69.0183 91.1543 68.9897 91.411 68.977 91.665C68.9643 91.919 68.975 92.135 69.009 92.313C69.043 92.491 69.1097 92.6486 69.209 92.7859C69.3077 92.9239 69.3807 93.0236 69.428 93.0849C69.4753 93.1463 69.5347 93.2279 69.606 93.3299C69.6773 93.4319 69.7267 93.494 69.754 93.516C69.7813 93.538 69.7963 93.545 69.799 93.537C69.8017 93.529 69.7967 93.5283 69.784 93.535C69.7707 93.5416 69.8437 93.5523 70.003 93.5669C70.163 93.5816 70.3013 93.5933 70.418 93.602C70.5347 93.6113 70.6067 93.5406 70.634 93.3899C70.662 93.2399 70.67 93.2116 70.658 93.305C70.646 93.399 70.6927 93.227 70.798 92.789C70.9033 92.351 70.9633 91.6476 70.978 90.6789C70.89 90.6823 70.8187 90.6666 70.764 90.6319C70.7093 90.5979 70.6647 90.5476 70.63 90.4809C70.5953 90.4143 70.5487 90.3383 70.49 90.253" stroke="#FAFAFA" stroke-width="3.4" stroke-linecap="round" stroke-linejoin="round"/>
    <path d="M96.744 87.435C96.7287 87.463 96.708 87.4806 96.682 87.488C96.656 87.496 96.6107 87.6046 96.546 87.814C96.4813 88.0233 96.45 88.2639 96.452 88.5359C96.454 88.8079 96.4553 89.0146 96.456 89.1559C96.4573 89.2973 96.449 89.4116 96.431 89.499C96.413 89.5863 96.4047 89.7796 96.406 90.079C96.4073 90.379 96.4113 90.6107 96.418 90.774C96.4247 90.9373 96.4363 91.0533 96.453 91.1219C96.4703 91.1913 96.478 91.2226 96.476 91.2159C96.4733 91.2099 96.4737 91.2163 96.477 91.235C96.4797 91.2537 96.4927 91.3187 96.516 91.43C96.5387 91.5413 96.5633 91.6656 96.59 91.803C96.6167 91.9396 96.6383 92.041 96.655 92.107C96.6723 92.173 96.682 92.2013 96.684 92.192C96.686 92.1826 96.6867 92.2053 96.686 92.2599C96.6853 92.3146 96.7153 92.3856 96.776 92.473C96.8367 92.5603 96.9037 92.642 96.977 92.718C97.0503 92.794 97.083 92.829 97.075 92.823C97.067 92.8177 97.0667 92.818 97.074 92.824C97.082 92.8306 97.0817 92.8297 97.073 92.821C97.0643 92.8123 97.0907 92.8436 97.152 92.915C97.2133 92.987 97.2447 93.0253 97.246 93.03C97.2473 93.0346 97.248 93.0353 97.248 93.032C97.2487 93.0286 97.2457 93.0246 97.239 93.02C97.233 93.0153 97.2623 93.0506 97.327 93.126C97.3917 93.2013 97.4243 93.2393 97.425 93.24C97.4257 93.2407 97.4257 93.2423 97.425 93.245C97.4243 93.2477 97.4453 93.2626 97.488 93.29C97.53 93.3173 97.5747 93.3413 97.622 93.362C97.6687 93.382 97.6857 93.3876 97.673 93.379C97.661 93.371 97.665 93.368 97.685 93.37C97.7043 93.3727 97.7347 93.3763 97.776 93.381C97.8167 93.3856 97.8383 93.3876 97.841 93.387C97.8437 93.3863 97.8643 93.386 97.903 93.386C97.9417 93.3867 97.9807 93.3867 98.02 93.386C98.06 93.386 98.0853 93.385 98.096 93.383C98.1073 93.381 98.1 93.3846 98.074 93.394C98.0473 93.4033 98.1083 93.407 98.257 93.405C98.4057 93.403 98.5177 93.3983 98.593 93.391C98.6683 93.3837 98.733 93.3663 98.787 93.339C98.8403 93.3123 98.8703 93.296 98.877 93.29C98.883 93.2846 98.887 93.2806 98.889 93.278C98.8917 93.2746 98.8933 93.2726 98.894 93.272C98.8953 93.2706 98.897 93.2687 98.899 93.266C98.901 93.2633 98.9073 93.2593 98.918 93.254C98.9287 93.248 98.9543 93.214 98.995 93.152C99.0357 93.0906 99.0547 93.0606 99.052 93.062C99.05 93.064 99.0483 93.0673 99.047 93.072C99.0463 93.076 99.048 93.073 99.052 93.063C99.056 93.053 99.0523 93.0583 99.041 93.079C99.0297 93.0996 99.06 93.041 99.132 92.903C99.204 92.7643 99.2447 92.658 99.254 92.584C99.2633 92.51 99.2723 92.4176 99.281 92.3069C99.2903 92.1969 99.2987 92.108 99.306 92.04C99.314 91.9713 99.3213 91.796 99.328 91.514C99.3347 91.2313 99.3227 90.9823 99.292 90.767C99.2613 90.5523 99.2347 90.4087 99.212 90.336C99.19 90.2633 99.1687 90.1919 99.148 90.1219C99.1273 90.0526 99.0923 89.9557 99.043 89.831C98.993 89.707 98.9463 89.5816 98.903 89.455C98.859 89.329 98.8243 89.226 98.799 89.146C98.773 89.066 98.745 88.989 98.715 88.915C98.6843 88.8403 98.657 88.7503 98.633 88.645C98.609 88.5403 98.551 88.4033 98.459 88.2339C98.367 88.0639 98.288 87.9393 98.222 87.86C98.156 87.7807 98.113 87.72 98.093 87.678C98.0723 87.6353 98.057 87.6133 98.047 87.612C98.0377 87.6107 98.036 87.6103 98.042 87.611C98.048 87.6116 98.0417 87.6053 98.023 87.592C98.005 87.5793 97.9713 87.553 97.922 87.513C97.8727 87.4737 97.849 87.4566 97.851 87.462C97.8837 87.4666 97.8057 87.445 97.617 87.397C97.617 87.3923 97.617 87.388 97.617 87.384C97.617 87.388 97.6193 87.401 97.624 87.423C97.6287 87.445 97.6353 87.476 97.644 87.516" stroke="#FAFAFA" stroke-width="3.4" stroke-linecap="round" stroke-linejoin="round"/>
    <path d="M59.282 75.929C59.2733 75.929 59.1833 75.929 59.012 75.929C58.8887 75.7356 59.2603 75.3129 60.127 74.6609C60.9937 74.0089 61.8433 73.4833 62.676 73.084C63.5087 72.6853 64.4367 72.4843 65.46 72.481C65.4513 72.481 65.443 72.481 65.435 72.481" stroke="#50514F" stroke-width="3.4" stroke-linecap="round" stroke-linejoin="round"/>
    <path d="M105.665 75.744C105.673 75.744 105.763 75.744 105.934 75.744C106.058 75.5506 105.687 75.128 104.82 74.476C103.953 73.824 103.104 73.2983 102.271 72.899C101.438 72.5003 100.51 72.2993 99.487 72.296C99.495 72.296 99.5033 72.296 99.512 72.296" stroke="#50514F" stroke-width="3.4" stroke-linecap="round" stroke-linejoin="round"/>
    <path d="M43.93 100.88C45.852 100.861 47.6867 100.844 49.434 100.828C51.182 100.812 52.8377 100.798 54.401 100.786C55.9643 100.774 57.437 100.764 58.819 100.755C60.2003 100.746 61.7927 100.738 63.596 100.73C65.4 100.721 67.1793 100.715 68.934 100.71C70.6887 100.705 72.414 100.701 74.11 100.698C75.8053 100.695 77.619 100.693 79.551 100.691C81.483 100.69 83.256 100.689 84.87 100.688C86.484 100.687 87.875 100.687 89.043 100.686C90.2117 100.686 91.0683 100.686 91.613 100.686C92.157 100.686 93.0063 100.686 94.161 100.686C95.3157 100.686 96.425 100.686 97.489 100.686C98.5523 100.686 99.7627 100.686 101.12 100.685C102.478 100.685 103.983 100.685 105.634 100.685C107.285 100.685 109.083 100.685 111.028 100.685C112.973 100.685 115.066 100.685 117.305 100.685C119.544 100.685 121.93 100.685 124.463 100.685" stroke="#50514F" stroke-width="3.4" stroke-linecap="round" stroke-linejoin="round"/>
    <path d="M79.817 27.861C79.8077 27.9183 79.8043 27.9403 79.807 27.927C79.807 27.9303 79.794 27.984 79.768 28.088C79.7413 28.1326 79.751 28.0919 79.797 27.9659C79.843 27.8406 79.9133 27.6803 80.008 27.485C80.102 27.2897 80.2273 27.0696 80.384 26.825C80.54 26.5796 80.6717 26.3587 80.779 26.162C80.8863 25.9653 81.0197 25.7513 81.179 25.52C81.3383 25.2886 81.501 25.0316 81.667 24.749C81.833 24.4656 81.982 24.2447 82.114 24.086C82.2453 23.9273 82.3497 23.8106 82.427 23.736C82.5037 23.6613 82.598 23.5647 82.71 23.446C82.822 23.3273 82.9 23.2423 82.944 23.191C82.988 23.1396 83.071 23.0173 83.193 22.824C83.3157 22.6313 83.7483 22.1786 84.491 21.4659C84.4963 21.4746 84.502 21.4836 84.508 21.493" stroke="white" stroke-width="0.85" stroke-linecap="round" stroke-linejoin="round"/>
    <path d="M85.499 20.391C85.4957 20.391 85.4927 20.391 85.49 20.391C85.6233 20.391 85.669 20.391 85.627 20.391C85.757 20.363 85.803 20.352 85.765 20.358C85.7323 20.392 85.7727 20.3636 85.886 20.2729C86 20.1823 86.0867 20.083 86.146 19.975C86.2053 19.8676 86.2337 19.7663 86.231 19.6709C86.2277 19.5763 86.1913 19.5216 86.122 19.5069C86.0533 19.4923 86.007 19.4836 85.983 19.4809C85.9597 19.4789 85.9143 19.4943 85.847 19.527C85.7797 19.5603 85.724 19.5976 85.68 19.639C85.6353 19.681 85.6107 19.7026 85.606 19.704C85.6007 19.706 85.599 19.7073 85.601 19.7079C85.6037 19.7086 85.6007 19.7263 85.592 19.761C85.584 19.795 85.5783 19.8326 85.575 19.874C85.5723 19.9146 85.5677 19.9669 85.561 20.0309C85.5543 20.0943 85.5523 20.1603 85.555 20.2289C85.5997 20.2216 85.6167 20.2273 85.606 20.246C85.5953 20.2646 85.6263 20.2389 85.699 20.1689C85.771 20.0989 85.818 20.0497 85.84 20.021" stroke="white" stroke-width="0.85" stroke-linecap="round" stroke-linejoin="round"/>
    <path d="M62.532 25.6269C62.5253 25.6283 62.529 25.6266 62.543 25.6219C62.557 25.6179 62.5583 25.6196 62.547 25.6269C62.5363 25.6343 62.503 25.6483 62.447 25.6689C62.391 25.6903 62.3357 25.7086 62.281 25.724C62.2263 25.7393 62.1973 25.7493 62.194 25.7539C62.1907 25.7586 62.19 25.7576 62.192 25.751C62.194 25.7443 62.14 25.7679 62.03 25.8219C61.9207 25.8759 61.798 25.94 61.662 26.014C61.526 26.088 61.436 26.138 61.392 26.164C61.3473 26.19 61.3093 26.223 61.278 26.263C61.2467 26.3036 61.229 26.3266 61.225 26.332C61.2203 26.3366 61.216 26.3446 61.212 26.3559C61.208 26.3673 61.2083 26.358 61.213 26.328C61.2183 26.298 61.166 26.4539 61.056 26.7959C61.0407 26.8486 61.154 26.8313 61.396 26.7439C61.6387 26.6573 61.8447 26.5856 62.014 26.529C62.184 26.4723 62.2943 26.4246 62.345 26.386C62.3963 26.3466 62.429 26.3253 62.443 26.3219C62.4563 26.3179 62.4603 26.3163 62.455 26.3169C62.449 26.3169 62.4763 26.3033 62.537 26.276C62.5977 26.2486 62.654 26.2233 62.706 26.1999C62.7573 26.1773 62.81 26.1603 62.864 26.149C62.918 26.1376 62.972 26.128 63.026 26.12C63.0807 26.1126 63.1023 26.1103 63.091 26.113C63.0797 26.1163 63.1093 26.111 63.18 26.097C63.2513 26.0823 63.298 26.065 63.32 26.045C63.3427 26.0243 63.4367 26.006 63.602 25.99C63.7673 25.974 63.905 25.9666 64.015 25.9679C64.1243 25.9699 64.208 25.9643 64.266 25.951C64.324 25.9383 64.3627 25.9293 64.382 25.9239C64.402 25.9186 64.43 25.911 64.466 25.901C64.5027 25.891 64.5213 25.886 64.522 25.886C64.5233 25.886 64.522 25.8866 64.518 25.888C64.5147 25.89 64.5277 25.8856 64.557 25.875C64.5863 25.8643 64.7523 25.8546 65.055 25.8459C65.357 25.8366 65.578 25.8363 65.718 25.845C65.858 25.853 65.9433 25.8619 65.974 25.8719C66.0047 25.8819 66.077 25.8983 66.191 25.9209C66.3043 25.9443 66.3907 25.9546 66.45 25.9519C66.5093 25.9499 66.5503 25.949 66.573 25.949C66.5963 25.949 66.626 25.9506 66.662 25.954C66.6973 25.9573 66.6937 25.9563 66.651 25.951C66.6083 25.9463 66.6653 25.955 66.822 25.977C66.9793 25.9983 67.089 26.0119 67.151 26.0179C67.213 26.0246 67.2687 26.0313 67.318 26.0379C67.3667 26.0446 67.4057 26.0506 67.435 26.0559C67.4643 26.0619 67.4893 26.068 67.51 26.074C67.53 26.0806 67.536 26.0816 67.528 26.0769C67.52 26.0723 67.6027 26.0773 67.776 26.092C67.95 26.1073 68.0947 26.1343 68.21 26.173C68.3253 26.2116 68.411 26.2449 68.467 26.2729C68.523 26.3003 68.5767 26.3306 68.628 26.3639C68.68 26.3973 68.7323 26.4313 68.785 26.4659C68.837 26.5006 68.855 26.5089 68.839 26.4909C68.8237 26.4729 68.8393 26.4846 68.886 26.526C68.9333 26.5666 68.9603 26.5923 68.967 26.6029C68.9737 26.6129 68.989 26.6339 69.013 26.6659C69.0363 26.6979 69.0577 26.728 69.077 26.756C69.0963 26.7846 69.1053 26.7966 69.104 26.792C69.16 26.9113 69.183 26.9629 69.173 26.9469C69.1637 26.9309 69.163 26.9583 69.171 27.029C69.179 27.1003 69.179 27.1173 69.171 27.0799C69.1623 27.0419 69.163 27.1129 69.173 27.2929C69.183 27.4736 69.2427 27.6629 69.352 27.8609C69.392 27.8603 69.4127 27.8596 69.414 27.8589C69.4153 27.8583 69.4163 27.8599 69.417 27.8639C69.4177 27.8686 69.4453 27.8626 69.5 27.8459C69.554 27.8299 69.59 27.8073 69.608 27.7779C69.626 27.7493 69.682 27.7003 69.776 27.631C69.8693 27.5616 69.95 27.5109 70.018 27.4789C70.0853 27.4469 70.1487 27.4223 70.208 27.4049C70.2673 27.3883 70.314 27.3783 70.348 27.375C70.382 27.3716 70.3997 27.37 70.401 27.37C70.4023 27.3693 70.424 27.3626 70.466 27.35C70.508 27.338 70.5943 27.3253 70.725 27.3119C70.855 27.2986 70.978 27.2863 71.094 27.2749C71.2093 27.2643 71.2823 27.2546 71.313 27.246C71.3437 27.238 71.4747 27.2449 71.706 27.2669C71.9373 27.2883 72.113 27.3153 72.233 27.3479C72.353 27.3799 72.4397 27.4083 72.493 27.433C72.5463 27.457 72.5923 27.475 72.631 27.487C72.6697 27.4983 72.736 27.5096 72.83 27.521C72.924 27.5316 72.9983 27.542 73.053 27.552C73.1083 27.562 73.1457 27.5643 73.165 27.5589C73.1843 27.5536 73.286 27.5903 73.47 27.6689C73.654 27.7469 73.8023 27.8123 73.915 27.865C74.0277 27.9176 74.11 27.9526 74.162 27.97C74.2147 27.9873 74.307 28.0299 74.439 28.0979C74.5703 28.1659 74.671 28.2266 74.741 28.2799C74.8103 28.3339 74.8587 28.37 74.886 28.388C74.914 28.4066 74.9437 28.4246 74.975 28.4419C75.0057 28.4599 75.0387 28.4789 75.074 28.4989C75.1093 28.5189 75.1487 28.5373 75.192 28.5539C75.2353 28.5699 75.3947 28.645 75.67 28.779C75.9453 28.913 76.179 29.031 76.371 29.133C76.5637 29.2343 76.7063 29.3213 76.799 29.394C76.8917 29.4666 76.9917 29.5386 77.099 29.61C77.2063 29.6813 77.3157 29.7599 77.427 29.8459C77.5383 29.9319 77.638 30.0276 77.726 30.133C77.8147 30.2383 77.94 30.3793 78.102 30.5559C78.2647 30.7319 78.3817 30.8663 78.453 30.959C78.5243 31.0516 78.5847 31.1236 78.634 31.175C78.684 31.2263 78.7183 31.2603 78.737 31.277C78.7557 31.2943 78.7863 31.321 78.829 31.357C78.8723 31.393 78.889 31.4056 78.879 31.3949C78.8683 31.3843 78.9363 31.448 79.083 31.586C78.985 31.5853 78.837 31.4373 78.639 31.1419C78.4417 30.8459 78.2547 30.5893 78.078 30.3719C77.902 30.1546 77.763 30.0009 77.661 29.9109C77.5583 29.8203 77.4973 29.7699 77.478 29.7599C77.458 29.7493 77.3747 29.7006 77.228 29.6139C77.0807 29.5266 76.948 29.441 76.83 29.357C76.7113 29.2736 76.562 29.1516 76.382 28.9909C76.2013 28.8303 75.9777 28.685 75.711 28.555C75.445 28.425 75.2157 28.2783 75.023 28.115C74.831 27.9516 74.5537 27.7933 74.191 27.6399C73.8283 27.4859 73.5593 27.3636 73.384 27.2729C73.2093 27.1816 72.9757 27.0999 72.683 27.0279C72.3903 26.9566 72.1073 26.9006 71.834 26.86C71.56 26.8186 71.235 26.7659 70.859 26.7019C70.4837 26.6379 70.1913 26.5599 69.982 26.4679C69.7733 26.3766 69.5427 26.3079 69.29 26.2619C69.0373 26.2153 68.765 26.1806 68.473 26.1579C68.1803 26.1346 67.91 26.0853 67.662 26.0099C67.4133 25.9339 67.2077 25.8859 67.045 25.8659C66.8823 25.8466 66.6683 25.8373 66.403 25.8379C66.1383 25.8386 65.8747 25.8219 65.612 25.7879C65.3493 25.7546 65.08 25.7626 64.804 25.8119C64.5273 25.8613 64.2987 25.8829 64.118 25.8769C63.9367 25.8703 63.7657 25.8536 63.605 25.8269C63.4443 25.8003 63.2923 25.7783 63.149 25.761C63.005 25.7436 62.9003 25.7296 62.835 25.719C62.7697 25.7083 62.7057 25.7013 62.643 25.698C62.5803 25.6946 62.5447 25.6933 62.536 25.6939C62.5273 25.6953 62.475 25.6953 62.379 25.6939C62.283 25.6919 62.2047 25.6916 62.144 25.693C62.0833 25.6943 62.0293 25.7019 61.982 25.7159C61.9353 25.7299 61.925 25.7323 61.951 25.7229C61.9777 25.7129 61.892 25.7473 61.694 25.826C61.76 25.8733 61.859 25.894 61.991 25.888C62.1237 25.882 62.2123 25.8773 62.257 25.8739" stroke="white" stroke-width="0.85" stroke-linecap="round" stroke-linejoin="round"/>
    <path d="M69.642 27.176C69.5987 27.248 69.5793 27.2753 69.584 27.258C69.578 27.2607 69.5493 27.2553 69.498 27.2419C69.498 27.2393 69.4997 27.2303 69.503 27.215C69.4357 27.2443 69.5737 27.2026 69.917 27.09C69.8357 27.09 69.7977 27.09 69.803 27.09C69.663 27.1273 69.5177 27.1976 69.367 27.301C69.3723 27.301 69.425 27.3016 69.525 27.303C69.625 27.3043 69.686 27.3067 69.708 27.31" stroke="white" stroke-width="0.85" stroke-linecap="round" stroke-linejoin="round"/>
    <path d="M41.533 93.958C41.5357 93.75 41.701 92.341 42.029 89.731C42.3577 87.1203 42.8653 84.537 43.552 81.981C44.2387 79.425 44.8497 77.397 45.385 75.897C45.9203 74.397 46.607 72.7423 47.445 70.933C48.283 69.1237 49.1743 67.4783 50.119 65.997C51.0643 64.5156 51.8857 63.3296 52.583 62.439C53.281 61.549 53.874 60.7977 54.362 60.185C54.8507 59.5723 55.7433 58.6427 57.04 57.396C58.3373 56.1493 59.5743 55.083 60.751 54.197C61.927 53.3103 63.214 52.451 64.612 51.619C66.0107 50.787 67.6273 49.9746 69.462 49.182C71.2967 48.39 73.267 47.7666 75.373 47.312C77.479 46.8566 79.2217 46.581 80.601 46.485C81.981 46.3883 83.2203 46.3613 84.319 46.404C85.4183 46.4467 86.4103 46.507 87.295 46.585C88.179 46.6623 89.4147 46.8557 91.002 47.165C92.5893 47.4743 94.4093 47.9893 96.462 48.71C98.5147 49.4306 100.51 50.3896 102.448 51.587C104.386 52.7843 105.818 53.7516 106.743 54.489C107.669 55.2263 108.625 56.0553 109.611 56.976C110.598 57.896 111.608 58.9603 112.641 60.169C113.674 61.3776 114.688 62.6833 115.683 64.086C116.677 65.488 117.691 67.1576 118.726 69.095C119.761 71.033 120.615 72.8396 121.29 74.515C121.965 76.191 122.462 77.537 122.783 78.553C123.103 79.5697 123.371 80.3996 123.587 81.043C123.802 81.687 124.159 82.9326 124.656 84.78C125.153 86.628 125.565 88.568 125.892 90.6C126.218 92.632 126.45 94.19 126.588 95.274" stroke="#50514F" stroke-width="3.4" stroke-linecap="round" stroke-linejoin="round"/>
    <path d="M21.644 92.819C21.3267 93.0937 20.886 93.53 20.322 94.128C19.758 94.7267 19.3283 95.3953 19.033 96.134C18.7383 96.8727 18.455 97.6527 18.183 98.474C17.911 99.2954 17.7487 99.9096 17.696 100.317C17.6427 100.724 17.564 101.209 17.46 101.771C17.356 102.332 17.4347 102.906 17.696 103.493C17.958 104.079 18.1953 104.485 18.408 104.712C18.62 104.939 18.7777 105.115 18.881 105.24C18.9837 105.365 19.0773 105.473 19.162 105.563C19.246 105.653 19.3487 105.762 19.47 105.889C19.5913 106.016 19.6697 106.104 19.705 106.154C19.7403 106.203 19.917 106.34 20.235 106.565C20.5523 106.79 20.8847 106.975 21.232 107.119C21.5793 107.263 21.9733 107.517 22.414 107.88C22.8547 108.243 23.5363 108.572 24.459 108.866C25.3817 109.161 26.1537 109.36 26.775 109.464C27.3963 109.569 28.0577 109.686 28.759 109.816C29.4603 109.945 30.281 109.972 31.221 109.895C32.161 109.818 33.126 109.62 34.116 109.299C35.1067 108.978 36.0493 108.519 36.944 107.92C37.8387 107.321 38.591 106.793 39.201 106.336C39.811 105.878 40.2587 105.279 40.544 104.539C40.8293 103.799 41.0757 103.119 41.283 102.499C41.491 101.88 41.6187 101.127 41.666 100.241C41.7127 99.3557 41.7027 98.6184 41.636 98.029C41.5687 97.439 41.5163 96.9786 41.479 96.648C41.4417 96.3166 41.4047 96.059 41.368 95.875C41.3313 95.691 41.2743 95.4657 41.197 95.199C41.119 94.9317 40.735 94.4883 40.045 93.869C39.355 93.249 38.4327 92.6473 37.278 92.064C36.124 91.4807 34.6967 91.088 32.996 90.886C31.2953 90.6833 29.9247 90.594 28.884 90.618C27.8433 90.6413 25.7783 91.0887 22.689 91.96" stroke="#50514F" stroke-width="3.4" stroke-linecap="round" stroke-linejoin="round"/>
    <path d="M126.359 96.7769C126.349 96.7796 126.273 96.8009 126.131 96.8409C126.104 97.0676 126.089 97.171 126.086 97.151C125.982 97.2883 126.231 97.9936 126.833 99.2669C127.435 100.54 127.873 101.461 128.148 102.029C128.422 102.596 128.718 103.096 129.036 103.527C129.355 103.958 129.738 104.359 130.185 104.73C130.632 105.102 130.971 105.376 131.204 105.552C131.436 105.728 131.927 106.078 132.676 106.603C133.425 107.128 134.5 107.565 135.902 107.914C137.303 108.263 138.495 108.496 139.478 108.613C140.461 108.73 141.495 108.704 142.582 108.535C143.668 108.366 144.616 108.126 145.427 107.816C146.238 107.505 146.962 107.101 147.6 106.603C148.239 106.105 148.825 105.624 149.36 105.161C149.894 104.698 150.39 104.154 150.848 103.529C151.307 102.904 151.575 102.147 151.652 101.257C151.729 100.368 151.76 99.6743 151.747 99.177C151.733 98.6796 151.695 98.2846 151.632 97.9919C151.569 97.6992 151.451 97.3239 151.278 96.8659C151.105 96.4086 150.91 95.9973 150.694 95.6319C150.479 95.2666 150.224 94.8916 149.93 94.5069C149.636 94.1229 149.127 93.6503 148.404 93.089C147.681 92.5276 146.89 92.0759 146.029 91.7339C145.169 91.3926 144.509 91.1119 144.048 90.8919C143.587 90.6719 142.606 90.4976 141.103 90.3689C139.6 90.2396 138.416 90.1463 137.553 90.089C136.689 90.031 135.908 90.0426 135.21 90.1239C134.511 90.2053 133.609 90.5093 132.503 91.0359C131.398 91.5619 130.443 92.1049 129.64 92.6649C128.837 93.2249 128.123 93.8729 127.499 94.6089C126.874 95.3456 126.393 95.8996 126.055 96.271C125.718 96.6423 125.444 97.0926 125.234 97.6219C125.024 98.1519 124.901 98.5712 124.865 98.8799C124.829 99.1886 124.85 99.4236 124.927 99.5849C125.004 99.7463 125.163 99.7819 125.406 99.6919C125.648 99.6019 125.805 99.525 125.877 99.461" stroke="#50514F" stroke-width="3.4" stroke-linecap="round" stroke-linejoin="round"/>
    <path d="M45.5494 127.35C44.1327 127.35 42.7577 127.175 41.4244 126.825C40.0911 126.475 39.0077 126.008 38.1744 125.425L39.7994 121.775C40.5827 122.292 41.4911 122.708 42.5244 123.025C43.5577 123.342 44.5744 123.5 45.5744 123.5C47.4744 123.5 48.4244 123.025 48.4244 122.075C48.4244 121.575 48.1494 121.208 47.5994 120.975C47.0661 120.725 46.1994 120.467 44.9994 120.2C43.6827 119.917 42.5827 119.617 41.6994 119.3C40.8161 118.967 40.0577 118.442 39.4244 117.725C38.7911 117.008 38.4744 116.042 38.4744 114.825C38.4744 113.758 38.7661 112.8 39.3494 111.95C39.9327 111.083 40.7994 110.4 41.9494 109.9C43.1161 109.4 44.5411 109.15 46.2244 109.15C47.3744 109.15 48.5077 109.283 49.6244 109.55C50.7411 109.8 51.7244 110.175 52.5744 110.675L51.0494 114.35C49.3827 113.45 47.7661 113 46.1994 113C45.2161 113 44.4994 113.15 44.0494 113.45C43.5994 113.733 43.3744 114.108 43.3744 114.575C43.3744 115.042 43.6411 115.392 44.1744 115.625C44.7077 115.858 45.5661 116.1 46.7494 116.35C48.0827 116.633 49.1827 116.942 50.0494 117.275C50.9327 117.592 51.6911 118.108 52.3244 118.825C52.9744 119.525 53.2994 120.483 53.2994 121.7C53.2994 122.75 53.0077 123.7 52.4244 124.55C51.8411 125.4 50.9661 126.083 49.7994 126.6C48.6327 127.1 47.2161 127.35 45.5494 127.35ZM72.2359 109.5V127H67.2859V120.175H60.5359V127H55.5859V109.5H60.5359V116.075H67.2859V109.5H72.2359ZM83.3775 122.35H80.6775V127H75.7275V109.5H83.7275C85.3109 109.5 86.6859 109.767 87.8525 110.3C89.0192 110.817 89.9192 111.567 90.5525 112.55C91.1859 113.517 91.5025 114.658 91.5025 115.975C91.5025 117.242 91.2025 118.35 90.6025 119.3C90.0192 120.233 89.1775 120.967 88.0775 121.5L91.8525 127H86.5525L83.3775 122.35ZM86.5025 115.975C86.5025 115.158 86.2442 114.525 85.7275 114.075C85.2109 113.625 84.4442 113.4 83.4275 113.4H80.6775V118.525H83.4275C84.4442 118.525 85.2109 118.308 85.7275 117.875C86.2442 117.425 86.5025 116.792 86.5025 115.975ZM102.308 127.35C99.7084 127.35 97.6834 126.642 96.2334 125.225C94.8001 123.808 94.0834 121.8 94.0834 119.2V109.5H99.0334V119.05C99.0334 121.85 100.142 123.25 102.358 123.25C104.558 123.25 105.658 121.85 105.658 119.05V109.5H110.533V119.2C110.533 121.8 109.808 123.808 108.358 125.225C106.925 126.642 104.908 127.35 102.308 127.35ZM127.337 117.875C128.337 118.225 129.12 118.775 129.687 119.525C130.253 120.258 130.537 121.15 130.537 122.2C130.537 123.733 129.92 124.917 128.687 125.75C127.453 126.583 125.67 127 123.337 127H113.887V109.5H122.837C125.07 109.5 126.77 109.917 127.937 110.75C129.103 111.567 129.687 112.675 129.687 114.075C129.687 114.908 129.478 115.658 129.062 116.325C128.662 116.975 128.087 117.492 127.337 117.875ZM118.787 113.075V116.45H122.187C123.853 116.45 124.687 115.883 124.687 114.75C124.687 113.633 123.853 113.075 122.187 113.075H118.787ZM122.937 123.425C124.67 123.425 125.537 122.833 125.537 121.65C125.537 120.467 124.67 119.875 122.937 119.875H118.787V123.425H122.937Z" fill="#50514F"/>
</svg>
