<svg width="236" height="236" viewBox="0 0 236 236" fill="none" xmlns="http://www.w3.org/2000/svg">
<g clip-path="url(#clip0_15_5)">
<path d="M118.1 235.517C125.998 235.517 132.41 229.485 132.41 222.034C132.41 214.593 132.41 208.561 132.41 208.561C171.479 204.982 197.342 184.346 197.342 150.776V150.227C197.342 116.108 175.33 100.427 131.584 90.25V58.334C137.882 59.873 144.404 62.054 150.778 64.883C161.036 69.43 173.502 66.58 179.73 56.398C185.963 46.222 182.596 31.928 171.049 26.744C159.551 21.588 146.932 18.036 132.954 16.508V8.251C132.954 3.699 126.552 0 118.649 0C110.746 0 104.339 3.514 104.339 7.832C104.339 12.167 104.339 15.675 104.339 15.675C62.2349 18.705 38.5749 41.266 38.5749 73.732V74.287C38.5749 108.401 61.1359 123.543 105.437 133.714V166.735C94.8089 165.022 84.4039 161.492 73.8139 156.085C62.5329 150.33 48.7129 152.365 41.8759 162.47C35.0339 172.57 37.7969 186.919 49.1699 192.499C65.8789 200.707 84.7629 206.069 103.784 208.017V221.772C103.79 229.36 110.197 235.517 118.1 235.517ZM131.301 138.12C145.617 142.243 149.739 146.377 149.739 153.801V154.356C149.739 162.335 143.963 167.007 131.301 168.389V138.12ZM86.9989 70.153V69.604C86.9989 62.452 92.2309 56.947 105.709 55.849V85.568C90.8559 81.439 86.9989 77.305 86.9989 70.153Z" fill="white"/>
</g>
<defs>
<clipPath id="clip0_15_5">
<rect width="235.517" height="235.517" fill="white"/>
</clipPath>
</defs>
</svg>
