<svg viewBox="0 0 401 480" fill="none" xmlns="http://www.w3.org/2000/svg">
    <path d="M383.526 440.928L390.731 454.134H10.4694L16.7252 442.671L17.6743 440.928C22.9531 431.253 24.4185 420.263 21.732 409.777C-12.2055 277.475 12.7564 121.936 22.5812 71.341C23.5526 66.3231 23.6081 61.2386 22.7866 56.2817C21.9262 51.1195 20.1111 46.0905 17.3802 41.4112C16.9694 40.6952 16.5309 39.9902 16.0757 39.2964L9.60352 29.4326H391.597L385.125 39.2964C381.128 45.38 378.73 52.1353 378.047 59.0627C377.642 63.1314 377.825 67.2556 378.619 71.341C381.933 88.4096 386.967 117.418 390.886 153.448C398.58 224.226 401.96 322.103 379.468 409.777C376.782 420.263 378.247 431.253 383.526 440.928Z" fill="#D8E862"/>
    <path d="M390.731 458.019H10.4694C9.09839 458.019 7.82725 457.298 7.12785 456.115C6.42845 454.938 6.4007 453.473 7.06124 452.268L14.2662 439.069C19.0787 430.249 20.3942 420.191 17.9741 410.738C3.30894 353.559 -2.10862 285.923 1.87128 209.711C5.11294 147.714 13.8499 95.942 18.7734 70.5972C19.6504 66.0677 19.7115 61.4606 18.9621 56.9145C18.1739 52.1797 16.5142 47.617 14.033 43.3651C13.6667 42.7323 13.2837 42.105 12.8341 41.4223L6.36184 31.5586C5.57918 30.3651 5.51257 28.8387 6.18977 27.5787C6.86696 26.3242 8.18252 25.5415 9.60907 25.5415H391.602C393.029 25.5415 394.344 26.3242 395.022 27.5787C395.699 28.8331 395.632 30.3651 394.85 31.5586L388.377 41.4223C384.775 46.912 382.538 53.14 381.916 59.4401C381.544 63.1647 381.722 66.917 382.438 70.5972C385.913 88.4984 390.87 117.335 394.755 153.026C402.166 221.217 406.184 321.287 383.237 410.743C380.817 420.191 382.133 430.254 386.94 439.069L394.145 452.274C394.8 453.479 394.777 454.938 394.078 456.121C393.373 457.298 392.102 458.019 390.731 458.019ZM17.0193 450.248H384.187L380.118 442.788C374.362 432.241 372.796 420.174 375.705 408.812C398.363 320.488 394.367 221.417 387.023 153.864C383.171 118.439 378.253 89.8362 374.806 72.0792C373.945 67.6553 373.734 63.148 374.184 58.6741C374.928 51.1306 377.587 43.6925 381.883 37.1593L384.403 33.3126H16.8029L19.3285 37.1593C19.8614 37.9697 20.3276 38.7246 20.755 39.474C23.6969 44.5196 25.6785 49.9649 26.6222 55.6378C27.527 61.1053 27.4548 66.6339 26.4002 72.0737C21.5155 97.2242 12.8452 148.591 9.63126 210.116C5.69021 285.54 11.0301 352.388 25.5009 408.806C28.4151 420.168 26.8442 432.236 21.0881 442.782L17.0193 450.248Z" fill="#B5BF37"/>
    <path d="M200.6 345.71C262.225 345.71 312.182 295.753 312.182 234.129C312.182 172.504 262.225 122.547 200.6 122.547C138.975 122.547 89.0184 172.504 89.0184 234.129C89.0184 295.753 138.975 345.71 200.6 345.71Z" fill="white"/>
    <path d="M200.6 349.596C136.933 349.596 85.1329 297.796 85.1329 234.128C85.1329 170.461 136.933 118.661 200.6 118.661C264.268 118.661 316.067 170.461 316.067 234.128C316.067 297.796 264.268 349.596 200.6 349.596ZM200.6 126.438C141.218 126.438 92.904 174.752 92.904 234.134C92.904 293.516 141.218 341.83 200.6 341.83C259.982 341.83 308.296 293.516 308.296 234.134C308.296 174.746 259.982 126.438 200.6 126.438Z" fill="#B5BF37"/>
    <path d="M206.479 299.943L198.835 297.706C200.55 291.517 203.709 273.732 197.253 265.562C186.845 252.651 191.852 230.653 192.113 229.731L199.757 231.574L195.938 230.653L199.757 231.574C199.757 231.707 195.41 250.675 203.448 260.688C213.855 273.727 206.745 298.889 206.479 299.943Z" fill="#B5BF37"/>
    <path d="M191.991 229.859C191.991 229.859 207.533 189.416 245.345 192.053C253.51 192.58 261.814 192.314 269.846 190.604C270.107 190.471 270.507 190.471 270.768 190.343C275.774 189.027 280.121 193.901 278.145 198.641C269.052 219.979 244.945 256.469 191.991 229.859Z" fill="#B5BF37"/>
    <path d="M128.229 219.191C144.959 217.742 180.001 218.796 196.47 250.414C196.47 250.414 149.439 266.883 123.622 228.677C120.98 224.852 123.617 219.585 128.229 219.191Z" fill="#B5BF37"/>
    <path d="M293.515 292.862C269.491 330.679 223.886 351.777 177.326 342.424C147.723 336.48 123.228 319.333 107.375 296.281L107.713 292.745C107.713 292.745 128.679 262.976 205.091 298.007C205.091 298.013 251.85 276.326 293.515 292.862Z" fill="#AF7D5B"/>
    <path d="M200.6 349.596C170.421 349.596 141.879 338.033 120.23 317.029C97.6 295.081 85.1329 265.64 85.1329 234.128C85.1329 170.461 136.933 118.661 200.6 118.661C264.268 118.661 316.067 170.461 316.067 234.128C316.067 248.438 313.481 262.404 308.38 275.637C300.081 297.169 285.66 315.569 266.671 328.836C247.238 342.418 224.391 349.596 200.6 349.596ZM200.6 126.432C141.218 126.432 92.904 174.746 92.904 234.128C92.904 263.52 104.527 290.985 125.637 311.456C145.831 331.039 172.452 341.825 200.6 341.825C222.792 341.825 244.096 335.13 262.219 322.469C279.937 310.085 293.393 292.928 301.13 272.845C305.887 260.506 308.296 247.478 308.296 234.134C308.296 174.746 259.982 126.432 200.6 126.432Z" fill="#B5BF37"/>
    <path d="M390.886 153.448C368.217 114.093 327.236 92.8501 296.49 81.8984C289.524 79.4172 290.856 69.1871 298.222 68.5266C329.056 65.7345 359.375 61.7213 378.047 59.0625C377.642 63.1312 377.825 67.2554 378.619 71.3408C381.933 88.4095 386.967 117.418 390.886 153.448Z" fill="#CDD650"/>
    <path d="M17.6743 440.928C22.9531 431.253 24.4185 420.262 21.7319 409.777C-12.2055 277.474 12.7563 121.936 22.5812 71.3405C23.5526 66.3226 23.6081 61.2381 22.7866 56.2812C36.1029 62.8256 58.2671 64.3687 88.702 70.902C92.9317 71.8123 93.1315 77.7517 88.974 78.9562C58.4447 87.7986 12.1513 120.359 19.6337 245.391C32.4283 459.179 239.15 431.93 344.149 454.133H10.4694L16.7251 442.671L17.6743 440.928Z" fill="#CDD650"/>
    <path d="M390.731 458.019H10.4694C9.09839 458.019 7.82725 457.298 7.12785 456.115C6.42845 454.938 6.4007 453.473 7.06124 452.268L14.2662 439.069C19.0787 430.249 20.3942 420.191 17.9741 410.738C3.30894 353.559 -2.10862 285.923 1.87128 209.711C5.11294 147.714 13.8499 95.942 18.7734 70.5972C19.6504 66.0677 19.7115 61.4606 18.9621 56.9145C18.1739 52.1797 16.5142 47.617 14.033 43.3651C13.6667 42.7323 13.2837 42.105 12.8341 41.4223L6.36184 31.5586C5.57918 30.3651 5.51257 28.8387 6.18977 27.5787C6.86696 26.3242 8.18252 25.5415 9.60907 25.5415H391.602C393.029 25.5415 394.344 26.3242 395.022 27.5787C395.699 28.8331 395.632 30.3651 394.85 31.5586L388.377 41.4223C382.599 50.2147 380.49 60.578 382.438 70.5972C387.362 95.942 396.098 147.72 399.34 209.711C403.32 285.923 397.903 353.559 383.237 410.738C380.817 420.185 382.133 430.249 386.94 439.063L394.145 452.268C394.8 453.473 394.777 454.933 394.078 456.115C393.373 457.298 392.102 458.019 390.731 458.019ZM17.0193 450.248H384.187L380.118 442.788C374.362 432.241 372.796 420.174 375.705 408.812C390.176 352.393 395.516 285.545 391.575 210.121C388.361 148.597 379.69 97.2298 374.806 72.0792C372.469 60.0562 374.983 47.6558 381.877 37.1593L384.397 33.3126H16.8029L19.3285 37.1593C19.8614 37.9697 20.3276 38.7246 20.755 39.474C23.6969 44.5196 25.6785 49.9649 26.6222 55.6378C27.527 61.1053 27.4548 66.6339 26.4002 72.0737C21.5155 97.2242 12.8452 148.591 9.63126 210.116C5.69021 285.54 11.0301 352.388 25.5009 408.806C28.4151 420.168 26.8442 432.236 21.0881 442.782L17.0193 450.248Z" fill="#B5BF37"/>
    <path d="M390.781 454.139H10.1752V476.114H390.781V454.139Z" fill="#B5BF37"/>
    <path d="M390.781 480H10.1752C8.02707 480 6.28967 478.263 6.28967 476.114V454.139C6.28967 451.991 8.02707 450.253 10.1752 450.253H390.781C392.929 450.253 394.666 451.991 394.666 454.139V476.114C394.666 478.257 392.929 480 390.781 480ZM14.0608 472.229H386.895V458.025H14.0608V472.229Z" fill="#90931B"/>
    <path d="M390.781 480H10.1752C8.02707 480 6.28967 478.263 6.28967 476.114V454.139C6.28967 451.991 8.02707 450.253 10.1752 450.253H390.781C392.929 450.253 394.666 451.991 394.666 454.139V476.114C394.666 478.257 392.929 480 390.781 480ZM14.0608 472.229H386.895V458.025H14.0608V472.229Z" fill="#90931B"/>
    <path d="M391.852 3.91016H9.34271V29.4382H391.852V3.91016Z" fill="#B5BF37"/>
    <path d="M391.858 33.3235H9.34264C7.19449 33.3235 5.45709 31.5861 5.45709 29.438V3.90996C5.45709 1.76181 7.19449 0.0244141 9.34264 0.0244141H391.852C394 0.0244141 395.738 1.76181 395.738 3.90996V29.438C395.743 31.5806 394 33.3235 391.858 33.3235ZM13.2282 25.5524H387.967V7.7955H13.2282V25.5524Z" fill="#90931B"/>
    <path d="M391.858 33.3235H9.34264C7.19449 33.3235 5.45709 31.5861 5.45709 29.438V3.90996C5.45709 1.76181 7.19449 0.0244141 9.34264 0.0244141H391.852C394 0.0244141 395.738 1.76181 395.738 3.90996V29.438C395.743 31.5806 394 33.3235 391.858 33.3235ZM13.2282 25.5524H387.967V7.7955H13.2282V25.5524Z" fill="#90931B"/>
</svg>
