<svg width="1399" height="984" viewBox="0 0 1399 984" fill="none" xmlns="http://www.w3.org/2000/svg">
<rect width="1399" height="984" fill="#FBEBC9"/>
<rect x="-239.758" y="0.831055" width="2137.23" height="1094.01" fill="black"/>
<path d="M-111.394 220.496H1748.19" stroke="white" stroke-width="4"/>
<path d="M-103.84 406.454H1755.75" stroke="white" stroke-width="4"/>
<path d="M-103.84 983.241H1755.75" stroke="white" stroke-width="4"/>
<path d="M-103.84 790.979H1755.75" stroke="white" stroke-width="4"/>
<path d="M-103.84 599.017H1755.75" stroke="white" stroke-width="4"/>
<path d="M135.392 126.663L128.642 116.913H128.242H121.192V126.663H113.092V91.6631H128.242C131.342 91.6631 134.025 92.1798 136.292 93.2131C138.592 94.2464 140.359 95.7131 141.592 97.6131C142.825 99.5131 143.442 101.763 143.442 104.363C143.442 106.963 142.809 109.213 141.542 111.113C140.309 112.98 138.542 114.413 136.242 115.413L144.092 126.663H135.392ZM135.242 104.363C135.242 102.396 134.609 100.896 133.342 99.8631C132.075 98.7964 130.225 98.2631 127.792 98.2631H121.192V110.463H127.792C130.225 110.463 132.075 109.93 133.342 108.863C134.609 107.796 135.242 106.296 135.242 104.363ZM159.916 99.3631C164.082 99.3631 167.282 100.363 169.516 102.363C171.749 104.33 172.866 107.313 172.866 111.313V126.663H165.566V123.313C164.099 125.813 161.366 127.063 157.366 127.063C155.299 127.063 153.499 126.713 151.966 126.013C150.466 125.313 149.316 124.346 148.516 123.113C147.716 121.88 147.316 120.48 147.316 118.913C147.316 116.413 148.249 114.446 150.116 113.013C152.016 111.58 154.932 110.863 158.866 110.863H165.066C165.066 109.163 164.549 107.863 163.516 106.963C162.482 106.03 160.932 105.563 158.866 105.563C157.432 105.563 156.016 105.796 154.616 106.263C153.249 106.696 152.082 107.296 151.116 108.063L148.316 102.613C149.782 101.58 151.532 100.78 153.566 100.213C155.632 99.6464 157.749 99.3631 159.916 99.3631ZM159.316 121.813C160.649 121.813 161.832 121.513 162.866 120.913C163.899 120.28 164.632 119.363 165.066 118.163V115.413H159.716C156.516 115.413 154.916 116.463 154.916 118.563C154.916 119.563 155.299 120.363 156.066 120.963C156.866 121.53 157.949 121.813 159.316 121.813ZM196.275 99.3631C199.608 99.3631 202.292 100.363 204.325 102.363C206.392 104.363 207.425 107.33 207.425 111.263V126.663H199.625V112.463C199.625 110.33 199.158 108.746 198.225 107.713C197.292 106.646 195.942 106.113 194.175 106.113C192.208 106.113 190.642 106.73 189.475 107.963C188.308 109.163 187.725 110.963 187.725 113.363V126.663H179.925V99.7631H187.375V102.913C188.408 101.78 189.692 100.913 191.225 100.313C192.758 99.6798 194.442 99.3631 196.275 99.3631ZM226.045 116.113L222.295 119.813V126.663H214.495V89.5631H222.295V110.563L233.695 99.7631H242.995L231.795 111.163L243.995 126.663H234.545L226.045 116.113Z" fill="white"/>
<path d="M186.323 889.938H180.623V897.288H172.723V889.938H153.873V884.488L170.373 862.288H178.873L163.573 883.338H172.973V876.788H180.623V883.338H186.323V889.938Z" fill="white"/>
<path d="M170.623 685.326C173.69 685.826 176.04 686.976 177.673 688.776C179.307 690.543 180.123 692.743 180.123 695.376C180.123 697.41 179.59 699.293 178.523 701.026C177.457 702.726 175.823 704.093 173.623 705.126C171.457 706.16 168.79 706.676 165.623 706.676C163.157 706.676 160.723 706.36 158.323 705.726C155.957 705.06 153.94 704.126 152.273 702.926L155.423 696.726C156.757 697.726 158.29 698.51 160.023 699.076C161.79 699.61 163.59 699.876 165.423 699.876C167.457 699.876 169.057 699.493 170.223 698.726C171.39 697.926 171.973 696.81 171.973 695.376C171.973 692.51 169.79 691.076 165.423 691.076H161.723V685.726L168.923 677.576H154.023V671.076H178.523V676.326L170.623 685.326Z" fill="white"/>
<path d="M167.773 288.652V323.652H159.673V295.152H152.673V288.652H167.773Z" fill="white"/>
<path d="M1190.58 309.202H1181.88V317.702H1175.43V309.202H1166.78V303.102H1175.43V294.602H1181.88V303.102H1190.58V309.202ZM1227.81 316.302H1222.11V323.652H1214.21V316.302H1195.36V310.852L1211.86 288.652H1220.36L1205.06 309.702H1214.46V303.152H1222.11V309.702H1227.81V316.302ZM1245.23 324.252C1242.33 324.252 1239.75 323.536 1237.48 322.102C1235.22 320.669 1233.43 318.602 1232.13 315.902C1230.87 313.169 1230.23 309.919 1230.23 306.152C1230.23 302.386 1230.87 299.152 1232.13 296.452C1233.43 293.719 1235.22 291.636 1237.48 290.202C1239.75 288.769 1242.33 288.052 1245.23 288.052C1248.13 288.052 1250.72 288.769 1252.98 290.202C1255.25 291.636 1257.02 293.719 1258.28 296.452C1259.58 299.152 1260.23 302.386 1260.23 306.152C1260.23 309.919 1259.58 313.169 1258.28 315.902C1257.02 318.602 1255.25 320.669 1252.98 322.102C1250.72 323.536 1248.13 324.252 1245.23 324.252ZM1245.23 317.402C1247.37 317.402 1249.03 316.486 1250.23 314.652C1251.47 312.819 1252.08 309.986 1252.08 306.152C1252.08 302.319 1251.47 299.486 1250.23 297.652C1249.03 295.819 1247.37 294.902 1245.23 294.902C1243.13 294.902 1241.47 295.819 1240.23 297.652C1239.03 299.486 1238.43 302.319 1238.43 306.152C1238.43 309.986 1239.03 312.819 1240.23 314.652C1241.47 316.486 1243.13 317.402 1245.23 317.402ZM1279.17 324.252C1276.27 324.252 1273.69 323.536 1271.42 322.102C1269.15 320.669 1267.37 318.602 1266.07 315.902C1264.8 313.169 1264.17 309.919 1264.17 306.152C1264.17 302.386 1264.8 299.152 1266.07 296.452C1267.37 293.719 1269.15 291.636 1271.42 290.202C1273.69 288.769 1276.27 288.052 1279.17 288.052C1282.07 288.052 1284.65 288.769 1286.92 290.202C1289.19 291.636 1290.95 293.719 1292.22 296.452C1293.52 299.152 1294.17 302.386 1294.17 306.152C1294.17 309.919 1293.52 313.169 1292.22 315.902C1290.95 318.602 1289.19 320.669 1286.92 322.102C1284.65 323.536 1282.07 324.252 1279.17 324.252ZM1279.17 317.402C1281.3 317.402 1282.97 316.486 1284.17 314.652C1285.4 312.819 1286.02 309.986 1286.02 306.152C1286.02 302.319 1285.4 299.486 1284.17 297.652C1282.97 295.819 1281.3 294.902 1279.17 294.902C1277.07 294.902 1275.4 295.819 1274.17 297.652C1272.97 299.486 1272.37 302.319 1272.37 306.152C1272.37 309.986 1272.97 312.819 1274.17 314.652C1275.4 316.486 1277.07 317.402 1279.17 317.402Z" fill="#B0DC45"/>
<path d="M1166.28 501.057H1180.43V507.307H1166.28V501.057ZM1200.29 497.507C1203.36 498.007 1205.71 499.157 1207.34 500.957C1208.98 502.724 1209.79 504.924 1209.79 507.557C1209.79 509.59 1209.26 511.474 1208.19 513.207C1207.13 514.907 1205.49 516.274 1203.29 517.307C1201.13 518.34 1198.46 518.857 1195.29 518.857C1192.83 518.857 1190.39 518.54 1187.99 517.907C1185.63 517.24 1183.61 516.307 1181.94 515.107L1185.09 508.907C1186.43 509.907 1187.96 510.69 1189.69 511.257C1191.46 511.79 1193.26 512.057 1195.09 512.057C1197.13 512.057 1198.73 511.674 1199.89 510.907C1201.06 510.107 1201.64 508.99 1201.64 507.557C1201.64 504.69 1199.46 503.257 1195.09 503.257H1191.39V497.907L1198.59 489.757H1183.69V483.257H1208.19V488.507L1200.29 497.507ZM1228.53 518.857C1225.63 518.857 1223.05 518.14 1220.78 516.707C1218.52 515.274 1216.73 513.207 1215.43 510.507C1214.17 507.774 1213.53 504.524 1213.53 500.757C1213.53 496.99 1214.17 493.757 1215.43 491.057C1216.73 488.324 1218.52 486.24 1220.78 484.807C1223.05 483.374 1225.63 482.657 1228.53 482.657C1231.43 482.657 1234.02 483.374 1236.28 484.807C1238.55 486.24 1240.32 488.324 1241.58 491.057C1242.88 493.757 1243.53 496.99 1243.53 500.757C1243.53 504.524 1242.88 507.774 1241.58 510.507C1240.32 513.207 1238.55 515.274 1236.28 516.707C1234.02 518.14 1231.43 518.857 1228.53 518.857ZM1228.53 512.007C1230.67 512.007 1232.33 511.09 1233.53 509.257C1234.77 507.424 1235.38 504.59 1235.38 500.757C1235.38 496.924 1234.77 494.09 1233.53 492.257C1232.33 490.424 1230.67 489.507 1228.53 489.507C1226.43 489.507 1224.77 490.424 1223.53 492.257C1222.33 494.09 1221.73 496.924 1221.73 500.757C1221.73 504.59 1222.33 507.424 1223.53 509.257C1224.77 511.09 1226.43 512.007 1228.53 512.007ZM1262.47 518.857C1259.57 518.857 1256.99 518.14 1254.72 516.707C1252.45 515.274 1250.67 513.207 1249.37 510.507C1248.1 507.774 1247.47 504.524 1247.47 500.757C1247.47 496.99 1248.1 493.757 1249.37 491.057C1250.67 488.324 1252.45 486.24 1254.72 484.807C1256.99 483.374 1259.57 482.657 1262.47 482.657C1265.37 482.657 1267.95 483.374 1270.22 484.807C1272.49 486.24 1274.25 488.324 1275.52 491.057C1276.82 493.757 1277.47 496.99 1277.47 500.757C1277.47 504.524 1276.82 507.774 1275.52 510.507C1274.25 513.207 1272.49 515.274 1270.22 516.707C1267.95 518.14 1265.37 518.857 1262.47 518.857ZM1262.47 512.007C1264.6 512.007 1266.27 511.09 1267.47 509.257C1268.7 507.424 1269.32 504.59 1269.32 500.757C1269.32 496.924 1268.7 494.09 1267.47 492.257C1266.27 490.424 1264.6 489.507 1262.47 489.507C1260.37 489.507 1258.7 490.424 1257.47 492.257C1256.27 494.09 1255.67 496.924 1255.67 500.757C1255.67 504.59 1256.27 507.424 1257.47 509.257C1258.7 511.09 1260.37 512.007 1262.47 512.007Z" fill="#F13D3D"/>
<path d="M1190.58 698.411H1181.88V706.911H1175.43V698.411H1166.78V692.311H1175.43V683.811H1181.88V692.311H1190.58V698.411ZM1207.57 691.011C1212.5 691.011 1216.13 691.995 1218.47 693.961C1220.83 695.928 1222.02 698.561 1222.02 701.861C1222.02 703.995 1221.48 705.945 1220.42 707.711C1219.35 709.445 1217.72 710.845 1215.52 711.911C1213.35 712.945 1210.67 713.461 1207.47 713.461C1205 713.461 1202.57 713.145 1200.17 712.511C1197.8 711.845 1195.78 710.911 1194.12 709.711L1197.32 703.511C1198.65 704.511 1200.18 705.295 1201.92 705.861C1203.65 706.395 1205.43 706.661 1207.27 706.661C1209.3 706.661 1210.9 706.261 1212.07 705.461C1213.23 704.661 1213.82 703.545 1213.82 702.111C1213.82 700.611 1213.2 699.478 1211.97 698.711C1210.77 697.945 1208.67 697.561 1205.67 697.561H1196.72L1198.52 677.861H1219.87V684.361H1205.27L1204.72 691.011H1207.57ZM1240.3 713.461C1237.4 713.461 1234.82 712.745 1232.55 711.311C1230.28 709.878 1228.5 707.811 1227.2 705.111C1225.93 702.378 1225.3 699.128 1225.3 695.361C1225.3 691.595 1225.93 688.361 1227.2 685.661C1228.5 682.928 1230.28 680.845 1232.55 679.411C1234.82 677.978 1237.4 677.261 1240.3 677.261C1243.2 677.261 1245.78 677.978 1248.05 679.411C1250.32 680.845 1252.08 682.928 1253.35 685.661C1254.65 688.361 1255.3 691.595 1255.3 695.361C1255.3 699.128 1254.65 702.378 1253.35 705.111C1252.08 707.811 1250.32 709.878 1248.05 711.311C1245.78 712.745 1243.2 713.461 1240.3 713.461ZM1240.3 706.611C1242.43 706.611 1244.1 705.695 1245.3 703.861C1246.53 702.028 1247.15 699.195 1247.15 695.361C1247.15 691.528 1246.53 688.695 1245.3 686.861C1244.1 685.028 1242.43 684.111 1240.3 684.111C1238.2 684.111 1236.53 685.028 1235.3 686.861C1234.1 688.695 1233.5 691.528 1233.5 695.361C1233.5 699.195 1234.1 702.028 1235.3 703.861C1236.53 705.695 1238.2 706.611 1240.3 706.611Z" fill="#B0DC45"/>
<path d="M1190.58 893.016H1181.88V901.516H1175.43V893.016H1166.78V886.916H1175.43V878.416H1181.88V886.916H1190.58V893.016ZM1220.93 900.866V907.466H1194.48V902.216L1207.98 889.466C1209.42 888.099 1210.38 886.932 1210.88 885.966C1211.38 884.966 1211.63 883.982 1211.63 883.016C1211.63 881.616 1211.15 880.549 1210.18 879.816C1209.25 879.049 1207.87 878.666 1206.03 878.666C1204.5 878.666 1203.12 878.966 1201.88 879.566C1200.65 880.132 1199.62 880.999 1198.78 882.166L1192.88 878.366C1194.25 876.332 1196.13 874.749 1198.53 873.616C1200.93 872.449 1203.68 871.866 1206.78 871.866C1209.38 871.866 1211.65 872.299 1213.58 873.166C1215.55 873.999 1217.07 875.199 1218.13 876.766C1219.23 878.299 1219.78 880.116 1219.78 882.216C1219.78 884.116 1219.38 885.899 1218.58 887.566C1217.78 889.232 1216.23 891.132 1213.93 893.266L1205.88 900.866H1220.93ZM1248.23 889.066C1249.96 889.932 1251.28 891.066 1252.18 892.466C1253.11 893.866 1253.58 895.482 1253.58 897.316C1253.58 899.482 1252.96 901.382 1251.73 903.016C1250.49 904.616 1248.76 905.866 1246.53 906.766C1244.29 907.632 1241.71 908.066 1238.78 908.066C1235.84 908.066 1233.26 907.632 1231.03 906.766C1228.83 905.866 1227.11 904.616 1225.88 903.016C1224.68 901.382 1224.08 899.482 1224.08 897.316C1224.08 895.482 1224.53 893.866 1225.43 892.466C1226.36 891.066 1227.68 889.932 1229.38 889.066C1228.08 888.266 1227.08 887.266 1226.38 886.066C1225.68 884.832 1225.33 883.432 1225.33 881.866C1225.33 879.832 1225.89 878.066 1227.03 876.566C1228.16 875.066 1229.74 873.916 1231.78 873.116C1233.81 872.282 1236.14 871.866 1238.78 871.866C1241.44 871.866 1243.79 872.282 1245.83 873.116C1247.89 873.916 1249.49 875.066 1250.63 876.566C1251.76 878.066 1252.33 879.832 1252.33 881.866C1252.33 883.432 1251.98 884.832 1251.28 886.066C1250.58 887.266 1249.56 888.266 1248.23 889.066ZM1238.78 877.816C1237.14 877.816 1235.83 878.216 1234.83 879.016C1233.86 879.782 1233.38 880.849 1233.38 882.216C1233.38 883.549 1233.86 884.599 1234.83 885.366C1235.79 886.132 1237.11 886.516 1238.78 886.516C1240.44 886.516 1241.78 886.132 1242.78 885.366C1243.78 884.599 1244.28 883.549 1244.28 882.216C1244.28 880.849 1243.78 879.782 1242.78 879.016C1241.78 878.216 1240.44 877.816 1238.78 877.816ZM1238.78 902.116C1240.81 902.116 1242.41 901.666 1243.58 900.766C1244.78 899.832 1245.38 898.599 1245.38 897.066C1245.38 895.532 1244.78 894.316 1243.58 893.416C1242.41 892.516 1240.81 892.066 1238.78 892.066C1236.78 892.066 1235.19 892.516 1234.03 893.416C1232.86 894.316 1232.28 895.532 1232.28 897.066C1232.28 898.632 1232.86 899.866 1234.03 900.766C1235.19 901.666 1236.78 902.116 1238.78 902.116Z" fill="#B0DC45"/>
<path d="M180.423 508.264V514.864H153.973V509.614L167.473 496.864C168.907 495.498 169.873 494.331 170.373 493.364C170.873 492.364 171.123 491.381 171.123 490.414C171.123 489.014 170.64 487.948 169.673 487.214C168.74 486.448 167.357 486.064 165.523 486.064C163.99 486.064 162.607 486.364 161.373 486.964C160.14 487.531 159.107 488.398 158.273 489.564L152.373 485.764C153.74 483.731 155.623 482.148 158.023 481.014C160.423 479.848 163.173 479.264 166.273 479.264C168.873 479.264 171.14 479.698 173.073 480.564C175.04 481.398 176.557 482.598 177.623 484.164C178.723 485.698 179.273 487.514 179.273 489.614C179.273 491.514 178.873 493.298 178.073 494.964C177.273 496.631 175.723 498.531 173.423 500.664L165.373 508.264H180.423Z" fill="white"/>
<path d="M575.791 108.985H559.541L556.441 116.485H548.141L563.741 81.4853H571.741L587.391 116.485H578.891L575.791 108.985ZM573.241 102.835L567.691 89.4354L562.141 102.835H573.241ZM603.228 116.885C600.361 116.885 597.778 116.302 595.478 115.135C593.211 113.935 591.428 112.285 590.128 110.185C588.861 108.085 588.228 105.702 588.228 103.035C588.228 100.369 588.861 97.9854 590.128 95.8854C591.428 93.7854 593.211 92.152 595.478 90.9853C597.778 89.7854 600.361 89.1854 603.228 89.1854C606.061 89.1854 608.528 89.7854 610.628 90.9853C612.761 92.152 614.311 93.8354 615.278 96.0354L609.228 99.2854C607.828 96.8187 605.811 95.5854 603.178 95.5854C601.144 95.5854 599.461 96.252 598.128 97.5854C596.794 98.9187 596.128 100.735 596.128 103.035C596.128 105.335 596.794 107.152 598.128 108.485C599.461 109.819 601.144 110.485 603.178 110.485C605.844 110.485 607.861 109.252 609.228 106.785L615.278 110.085C614.311 112.219 612.761 113.885 610.628 115.085C608.528 116.285 606.061 116.885 603.228 116.885ZM632.427 116.885C629.56 116.885 626.977 116.302 624.677 115.135C622.41 113.935 620.627 112.285 619.327 110.185C618.06 108.085 617.427 105.702 617.427 103.035C617.427 100.369 618.06 97.9854 619.327 95.8854C620.627 93.7854 622.41 92.152 624.677 90.9853C626.977 89.7854 629.56 89.1854 632.427 89.1854C635.26 89.1854 637.727 89.7854 639.827 90.9853C641.96 92.152 643.51 93.8354 644.477 96.0354L638.427 99.2854C637.027 96.8187 635.01 95.5854 632.377 95.5854C630.344 95.5854 628.66 96.252 627.327 97.5854C625.994 98.9187 625.327 100.735 625.327 103.035C625.327 105.335 625.994 107.152 627.327 108.485C628.66 109.819 630.344 110.485 632.377 110.485C635.044 110.485 637.06 109.252 638.427 106.785L644.477 110.085C643.51 112.219 641.96 113.885 639.827 115.085C637.727 116.285 635.26 116.885 632.427 116.885ZM661.426 116.885C658.593 116.885 656.043 116.302 653.776 115.135C651.543 113.935 649.793 112.285 648.526 110.185C647.259 108.085 646.626 105.702 646.626 103.035C646.626 100.369 647.259 97.9854 648.526 95.8854C649.793 93.7854 651.543 92.152 653.776 90.9853C656.043 89.7854 658.593 89.1854 661.426 89.1854C664.259 89.1854 666.793 89.7854 669.026 90.9853C671.259 92.152 673.009 93.7854 674.276 95.8854C675.543 97.9854 676.176 100.369 676.176 103.035C676.176 105.702 675.543 108.085 674.276 110.185C673.009 112.285 671.259 113.935 669.026 115.135C666.793 116.302 664.259 116.885 661.426 116.885ZM661.426 110.485C663.426 110.485 665.059 109.819 666.326 108.485C667.626 107.119 668.276 105.302 668.276 103.035C668.276 100.769 667.626 98.9687 666.326 97.6354C665.059 96.2687 663.426 95.5854 661.426 95.5854C659.426 95.5854 657.776 96.2687 656.476 97.6354C655.176 98.9687 654.526 100.769 654.526 103.035C654.526 105.302 655.176 107.119 656.476 108.485C657.776 109.819 659.426 110.485 661.426 110.485ZM708.49 89.5853V116.485H701.09V113.285C700.056 114.452 698.823 115.352 697.39 115.985C695.956 116.585 694.406 116.885 692.74 116.885C689.206 116.885 686.406 115.869 684.34 113.835C682.273 111.802 681.24 108.785 681.24 104.785V89.5853H689.04V103.635C689.04 107.969 690.856 110.135 694.49 110.135C696.356 110.135 697.856 109.535 698.99 108.335C700.123 107.102 700.69 105.285 700.69 102.885V89.5853H708.49ZM732.066 89.1854C735.399 89.1854 738.083 90.1854 740.116 92.1854C742.183 94.1854 743.216 97.152 743.216 101.085V116.485H735.416V102.285C735.416 100.152 734.949 98.5687 734.016 97.5354C733.083 96.4687 731.733 95.9354 729.966 95.9354C727.999 95.9354 726.433 96.552 725.266 97.7854C724.099 98.9854 723.516 100.785 723.516 103.185V116.485H715.716V89.5853H723.166V92.7354C724.199 91.602 725.483 90.7354 727.016 90.1354C728.549 89.502 730.233 89.1854 732.066 89.1854ZM767.636 115.185C766.87 115.752 765.92 116.185 764.786 116.485C763.686 116.752 762.52 116.885 761.286 116.885C758.086 116.885 755.603 116.069 753.836 114.435C752.103 112.802 751.236 110.402 751.236 107.235V96.1854H747.086V90.1854H751.236V83.6354H759.036V90.1854H765.736V96.1854H759.036V107.135C759.036 108.269 759.32 109.152 759.886 109.785C760.486 110.385 761.32 110.685 762.386 110.685C763.62 110.685 764.67 110.352 765.536 109.685L767.636 115.185Z" fill="white"/>
<path d="M545.389 897.588C542.789 897.588 540.289 897.171 537.889 896.338C535.522 895.505 533.689 894.405 532.389 893.038L533.839 890.188C535.105 891.455 536.789 892.488 538.889 893.288C540.989 894.055 543.155 894.438 545.389 894.438C548.522 894.438 550.872 893.871 552.439 892.738C554.005 891.571 554.789 890.071 554.789 888.238C554.789 886.838 554.355 885.721 553.489 884.888C552.655 884.055 551.622 883.421 550.389 882.988C549.155 882.521 547.439 882.021 545.239 881.488C542.605 880.821 540.505 880.188 538.939 879.588C537.372 878.955 536.022 878.005 534.889 876.738C533.789 875.471 533.239 873.755 533.239 871.588C533.239 869.821 533.705 868.221 534.639 866.788C535.572 865.321 537.005 864.155 538.939 863.288C540.872 862.421 543.272 861.988 546.139 861.988C548.139 861.988 550.089 862.271 551.989 862.838C553.922 863.371 555.589 864.121 556.989 865.088L555.739 868.038C554.272 867.071 552.705 866.355 551.039 865.888C549.372 865.388 547.739 865.138 546.139 865.138C543.072 865.138 540.755 865.738 539.189 866.938C537.655 868.105 536.889 869.621 536.889 871.488C536.889 872.888 537.305 874.021 538.139 874.888C539.005 875.721 540.072 876.371 541.339 876.838C542.639 877.271 544.372 877.755 546.539 878.288C549.105 878.921 551.172 879.555 552.739 880.188C554.339 880.788 555.689 881.721 556.789 882.988C557.889 884.221 558.439 885.905 558.439 888.038C558.439 889.805 557.955 891.421 556.989 892.888C556.055 894.321 554.605 895.471 552.639 896.338C550.672 897.171 548.255 897.588 545.389 897.588ZM574.95 870.788C578.384 870.788 581.017 871.655 582.85 873.388C584.684 875.088 585.6 877.621 585.6 880.988V897.288H582.2V893.188C581.4 894.555 580.217 895.621 578.65 896.388C577.117 897.155 575.284 897.538 573.15 897.538C570.217 897.538 567.884 896.838 566.15 895.438C564.417 894.038 563.55 892.188 563.55 889.888C563.55 887.655 564.35 885.855 565.95 884.488C567.584 883.121 570.167 882.438 573.7 882.438H582.05V880.838C582.05 878.571 581.417 876.855 580.15 875.688C578.884 874.488 577.034 873.888 574.6 873.888C572.934 873.888 571.334 874.171 569.8 874.738C568.267 875.271 566.95 876.021 565.85 876.988L564.25 874.338C565.584 873.205 567.184 872.338 569.05 871.738C570.917 871.105 572.884 870.788 574.95 870.788ZM573.7 894.738C575.7 894.738 577.417 894.288 578.85 893.388C580.284 892.455 581.35 891.121 582.05 889.388V885.088H573.8C569.3 885.088 567.05 886.655 567.05 889.788C567.05 891.321 567.634 892.538 568.8 893.438C569.967 894.305 571.6 894.738 573.7 894.738ZM616.854 870.988L605.154 897.288H601.504L589.854 870.988H593.554L603.404 893.388L613.354 870.988H616.854ZM643.71 870.988L632.01 897.288H628.36L616.71 870.988H620.41L630.26 893.388L640.21 870.988H643.71ZM670.565 870.988L657.415 900.438C656.349 902.905 655.115 904.655 653.715 905.688C652.315 906.721 650.632 907.238 648.665 907.238C647.399 907.238 646.215 907.038 645.115 906.638C644.015 906.238 643.065 905.638 642.265 904.838L643.915 902.188C645.249 903.521 646.849 904.188 648.715 904.188C649.915 904.188 650.932 903.855 651.765 903.188C652.632 902.521 653.432 901.388 654.165 899.788L655.315 897.238L643.565 870.988H647.265L657.165 893.338L667.065 870.988H670.565ZM670.029 897.288H695.029V899.688H670.029V897.288ZM712.852 895.688C712.186 896.288 711.352 896.755 710.352 897.088C709.386 897.388 708.369 897.538 707.302 897.538C704.836 897.538 702.936 896.871 701.602 895.538C700.269 894.205 699.602 892.321 699.602 889.888V873.988H694.902V870.988H699.602V865.238H703.152V870.988H711.152V873.988H703.152V889.688C703.152 891.255 703.536 892.455 704.302 893.288C705.102 894.088 706.236 894.488 707.702 894.488C708.436 894.488 709.136 894.371 709.802 894.138C710.502 893.905 711.102 893.571 711.602 893.138L712.852 895.688ZM722.715 876.138C723.548 874.371 724.782 873.038 726.415 872.138C728.082 871.238 730.132 870.788 732.565 870.788V874.238L731.715 874.188C728.948 874.188 726.782 875.038 725.215 876.738C723.648 878.438 722.865 880.821 722.865 883.888V897.288H719.315V870.988H722.715V876.138ZM748.144 870.788C751.577 870.788 754.21 871.655 756.044 873.388C757.877 875.088 758.794 877.621 758.794 880.988V897.288H755.394V893.188C754.594 894.555 753.41 895.621 751.844 896.388C750.31 897.155 748.477 897.538 746.344 897.538C743.41 897.538 741.077 896.838 739.344 895.438C737.61 894.038 736.744 892.188 736.744 889.888C736.744 887.655 737.544 885.855 739.144 884.488C740.777 883.121 743.36 882.438 746.894 882.438H755.244V880.838C755.244 878.571 754.61 876.855 753.344 875.688C752.077 874.488 750.227 873.888 747.794 873.888C746.127 873.888 744.527 874.171 742.994 874.738C741.46 875.271 740.144 876.021 739.044 876.988L737.444 874.338C738.777 873.205 740.377 872.338 742.244 871.738C744.11 871.105 746.077 870.788 748.144 870.788ZM746.894 894.738C748.894 894.738 750.61 894.288 752.044 893.388C753.477 892.455 754.544 891.121 755.244 889.388V885.088H746.994C742.494 885.088 740.244 886.655 740.244 889.788C740.244 891.321 740.827 892.538 741.994 893.438C743.16 894.305 744.794 894.738 746.894 894.738ZM792.534 860.188V897.288H789.134V892.088C788.067 893.855 786.65 895.205 784.884 896.138C783.15 897.071 781.184 897.538 778.984 897.538C776.517 897.538 774.284 896.971 772.284 895.838C770.284 894.705 768.717 893.121 767.584 891.088C766.45 889.055 765.884 886.738 765.884 884.138C765.884 881.538 766.45 879.221 767.584 877.188C768.717 875.155 770.284 873.588 772.284 872.488C774.284 871.355 776.517 870.788 778.984 870.788C781.117 870.788 783.034 871.238 784.734 872.138C786.467 873.005 787.884 874.288 788.984 875.988V860.188H792.534ZM779.284 894.388C781.117 894.388 782.767 893.971 784.234 893.138C785.734 892.271 786.9 891.055 787.734 889.488C788.6 887.921 789.034 886.138 789.034 884.138C789.034 882.138 788.6 880.355 787.734 878.788C786.9 877.221 785.734 876.021 784.234 875.188C782.767 874.321 781.117 873.888 779.284 873.888C777.417 873.888 775.734 874.321 774.234 875.188C772.767 876.021 771.6 877.221 770.734 878.788C769.9 880.355 769.484 882.138 769.484 884.138C769.484 886.138 769.9 887.921 770.734 889.488C771.6 891.055 772.767 892.271 774.234 893.138C775.734 893.971 777.417 894.388 779.284 894.388ZM825.32 885.238H803.32C803.52 887.971 804.57 890.188 806.47 891.888C808.37 893.555 810.77 894.388 813.67 894.388C815.304 894.388 816.804 894.105 818.17 893.538C819.537 892.938 820.72 892.071 821.72 890.938L823.72 893.238C822.554 894.638 821.087 895.705 819.32 896.438C817.587 897.171 815.67 897.538 813.57 897.538C810.87 897.538 808.47 896.971 806.37 895.838C804.304 894.671 802.687 893.071 801.52 891.038C800.354 889.005 799.77 886.705 799.77 884.138C799.77 881.571 800.32 879.271 801.42 877.238C802.554 875.205 804.087 873.621 806.02 872.488C807.987 871.355 810.187 870.788 812.62 870.788C815.054 870.788 817.237 871.355 819.17 872.488C821.104 873.621 822.62 875.205 823.72 877.238C824.82 879.238 825.37 881.538 825.37 884.138L825.32 885.238ZM812.62 873.838C810.087 873.838 807.954 874.655 806.22 876.288C804.52 877.888 803.554 879.988 803.32 882.588H821.97C821.737 879.988 820.754 877.888 819.02 876.288C817.32 874.655 815.187 873.838 812.62 873.838Z" fill="white"/>
<path d="M535.739 671.076H549.989C553.689 671.076 556.955 671.826 559.789 673.326C562.622 674.793 564.822 676.86 566.389 679.526C567.955 682.16 568.739 685.176 568.739 688.576C568.739 691.976 567.955 695.01 566.389 697.676C564.822 700.31 562.622 702.376 559.789 703.876C556.955 705.343 553.689 706.076 549.989 706.076H535.739V671.076ZM549.789 702.876C552.855 702.876 555.539 702.276 557.839 701.076C560.139 699.843 561.922 698.16 563.189 696.026C564.455 693.86 565.089 691.376 565.089 688.576C565.089 685.776 564.455 683.31 563.189 681.176C561.922 679.01 560.139 677.326 557.839 676.126C555.539 674.893 552.855 674.276 549.789 674.276H539.439V702.876H549.789ZM599.197 694.026H577.197C577.397 696.76 578.447 698.976 580.347 700.676C582.247 702.343 584.647 703.176 587.547 703.176C589.181 703.176 590.681 702.893 592.047 702.326C593.414 701.726 594.597 700.86 595.597 699.726L597.597 702.026C596.431 703.426 594.964 704.493 593.197 705.226C591.464 705.96 589.547 706.326 587.447 706.326C584.747 706.326 582.347 705.76 580.247 704.626C578.181 703.46 576.564 701.86 575.397 699.826C574.231 697.793 573.647 695.493 573.647 692.926C573.647 690.36 574.197 688.06 575.297 686.026C576.431 683.993 577.964 682.41 579.897 681.276C581.864 680.143 584.064 679.576 586.497 679.576C588.931 679.576 591.114 680.143 593.047 681.276C594.981 682.41 596.497 683.993 597.597 686.026C598.697 688.026 599.247 690.326 599.247 692.926L599.197 694.026ZM586.497 682.626C583.964 682.626 581.831 683.443 580.097 685.076C578.397 686.676 577.431 688.776 577.197 691.376H595.847C595.614 688.776 594.631 686.676 592.897 685.076C591.197 683.443 589.064 682.626 586.497 682.626ZM615.173 671.726C613.64 671.726 612.473 672.143 611.673 672.976C610.906 673.81 610.523 675.043 610.523 676.676V679.776H618.623V682.776H610.623V706.076H607.073V682.776H602.373V679.776H607.073V676.526C607.073 674.126 607.756 672.226 609.123 670.826C610.523 669.426 612.49 668.726 615.023 668.726C616.023 668.726 616.99 668.876 617.923 669.176C618.856 669.443 619.64 669.843 620.273 670.376L619.073 673.026C618.04 672.16 616.74 671.726 615.173 671.726ZM627.423 679.776H630.973V706.076H627.423V679.776ZM629.223 674.026C628.49 674.026 627.873 673.776 627.373 673.276C626.873 672.776 626.623 672.176 626.623 671.476C626.623 670.81 626.873 670.226 627.373 669.726C627.873 669.226 628.49 668.976 629.223 668.976C629.956 668.976 630.573 669.226 631.073 669.726C631.573 670.193 631.823 670.76 631.823 671.426C631.823 672.16 631.573 672.776 631.073 673.276C630.573 673.776 629.956 674.026 629.223 674.026ZM635.947 706.076H660.947V708.476H635.947V706.076ZM698.697 679.576C701.997 679.576 704.58 680.526 706.447 682.426C708.347 684.326 709.297 687.126 709.297 690.826V706.076H705.747V691.176C705.747 688.443 705.08 686.36 703.747 684.926C702.447 683.493 700.597 682.776 698.197 682.776C695.464 682.776 693.314 683.626 691.747 685.326C690.18 686.993 689.397 689.31 689.397 692.276V706.076H685.847V691.176C685.847 688.443 685.18 686.36 683.847 684.926C682.547 683.493 680.68 682.776 678.247 682.776C675.547 682.776 673.397 683.626 671.797 685.326C670.23 686.993 669.447 689.31 669.447 692.276V706.076H665.897V679.776H669.297V684.576C670.23 682.976 671.53 681.743 673.197 680.876C674.864 680.01 676.78 679.576 678.947 679.576C681.147 679.576 683.047 680.043 684.647 680.976C686.28 681.91 687.497 683.293 688.297 685.126C689.264 683.393 690.647 682.043 692.447 681.076C694.28 680.076 696.364 679.576 698.697 679.576ZM728.124 679.576C731.558 679.576 734.191 680.443 736.024 682.176C737.858 683.876 738.774 686.41 738.774 689.776V706.076H735.374V701.976C734.574 703.343 733.391 704.41 731.824 705.176C730.291 705.943 728.458 706.326 726.324 706.326C723.391 706.326 721.058 705.626 719.324 704.226C717.591 702.826 716.724 700.976 716.724 698.676C716.724 696.443 717.524 694.643 719.124 693.276C720.758 691.91 723.341 691.226 726.874 691.226H735.224V689.626C735.224 687.36 734.591 685.643 733.324 684.476C732.058 683.276 730.208 682.676 727.774 682.676C726.108 682.676 724.508 682.96 722.974 683.526C721.441 684.06 720.124 684.81 719.024 685.776L717.424 683.126C718.758 681.993 720.358 681.126 722.224 680.526C724.091 679.893 726.058 679.576 728.124 679.576ZM726.874 703.526C728.874 703.526 730.591 703.076 732.024 702.176C733.458 701.243 734.524 699.91 735.224 698.176V693.876H726.974C722.474 693.876 720.224 695.443 720.224 698.576C720.224 700.11 720.808 701.326 721.974 702.226C723.141 703.093 724.774 703.526 726.874 703.526ZM755.466 706.326C753.333 706.326 751.283 706.026 749.316 705.426C747.383 704.793 745.866 704.01 744.766 703.076L746.366 700.276C747.466 701.143 748.85 701.86 750.516 702.426C752.183 702.96 753.916 703.226 755.716 703.226C758.116 703.226 759.883 702.86 761.016 702.126C762.183 701.36 762.766 700.293 762.766 698.926C762.766 697.96 762.45 697.21 761.816 696.676C761.183 696.11 760.383 695.693 759.416 695.426C758.45 695.126 757.166 694.843 755.566 694.576C753.433 694.176 751.716 693.776 750.416 693.376C749.116 692.943 748 692.226 747.066 691.226C746.166 690.226 745.716 688.843 745.716 687.076C745.716 684.876 746.633 683.076 748.466 681.676C750.3 680.276 752.85 679.576 756.116 679.576C757.816 679.576 759.516 679.81 761.216 680.276C762.916 680.71 764.316 681.293 765.416 682.026L763.866 684.876C761.7 683.376 759.116 682.626 756.116 682.626C753.85 682.626 752.133 683.026 750.966 683.826C749.833 684.626 749.266 685.676 749.266 686.976C749.266 687.976 749.583 688.776 750.216 689.376C750.883 689.976 751.7 690.426 752.666 690.726C753.633 690.993 754.966 691.276 756.666 691.576C758.766 691.976 760.45 692.376 761.716 692.776C762.983 693.176 764.066 693.86 764.966 694.826C765.866 695.793 766.316 697.126 766.316 698.826C766.316 701.126 765.35 702.96 763.416 704.326C761.516 705.66 758.866 706.326 755.466 706.326ZM786.729 704.476C786.063 705.076 785.229 705.543 784.229 705.876C783.263 706.176 782.246 706.326 781.179 706.326C778.713 706.326 776.813 705.66 775.479 704.326C774.146 702.993 773.479 701.11 773.479 698.676V682.776H768.779V679.776H773.479V674.026H777.029V679.776H785.029V682.776H777.029V698.476C777.029 700.043 777.413 701.243 778.179 702.076C778.979 702.876 780.113 703.276 781.579 703.276C782.313 703.276 783.013 703.16 783.679 702.926C784.379 702.693 784.979 702.36 785.479 701.926L786.729 704.476ZM815.164 694.026H793.164C793.364 696.76 794.414 698.976 796.314 700.676C798.214 702.343 800.614 703.176 803.514 703.176C805.147 703.176 806.647 702.893 808.014 702.326C809.381 701.726 810.564 700.86 811.564 699.726L813.564 702.026C812.397 703.426 810.931 704.493 809.164 705.226C807.431 705.96 805.514 706.326 803.414 706.326C800.714 706.326 798.314 705.76 796.214 704.626C794.147 703.46 792.531 701.86 791.364 699.826C790.197 697.793 789.614 695.493 789.614 692.926C789.614 690.36 790.164 688.06 791.264 686.026C792.397 683.993 793.931 682.41 795.864 681.276C797.831 680.143 800.031 679.576 802.464 679.576C804.897 679.576 807.081 680.143 809.014 681.276C810.947 682.41 812.464 683.993 813.564 686.026C814.664 688.026 815.214 690.326 815.214 692.926L815.164 694.026ZM802.464 682.626C799.931 682.626 797.797 683.443 796.064 685.076C794.364 686.676 793.397 688.776 793.164 691.376H811.814C811.581 688.776 810.597 686.676 808.864 685.076C807.164 683.443 805.031 682.626 802.464 682.626ZM825.84 684.926C826.673 683.16 827.907 681.826 829.54 680.926C831.207 680.026 833.257 679.576 835.69 679.576V683.026L834.84 682.976C832.073 682.976 829.907 683.826 828.34 685.526C826.773 687.226 825.99 689.61 825.99 692.676V706.076H822.44V679.776H825.84V684.926Z" fill="white"/>
<path d="M550.939 515.164C547.472 515.164 544.339 514.398 541.539 512.864C538.772 511.331 536.589 509.214 534.989 506.514C533.422 503.781 532.639 500.731 532.639 497.364C532.639 493.998 533.422 490.964 534.989 488.264C536.589 485.531 538.789 483.398 541.589 481.864C544.389 480.331 547.522 479.564 550.989 479.564C553.589 479.564 555.989 479.998 558.189 480.864C560.389 481.731 562.255 482.998 563.789 484.664L561.439 487.014C558.705 484.248 555.255 482.864 551.089 482.864C548.322 482.864 545.805 483.498 543.539 484.764C541.272 486.031 539.489 487.764 538.189 489.964C536.922 492.164 536.289 494.631 536.289 497.364C536.289 500.098 536.922 502.564 538.189 504.764C539.489 506.964 541.272 508.698 543.539 509.964C545.805 511.231 548.322 511.864 551.089 511.864C555.289 511.864 558.739 510.464 561.439 507.664L563.789 510.014C562.255 511.681 560.372 512.964 558.139 513.864C555.939 514.731 553.539 515.164 550.939 515.164ZM574.326 493.714C575.16 491.948 576.393 490.614 578.026 489.714C579.693 488.814 581.743 488.364 584.176 488.364V491.814L583.326 491.764C580.56 491.764 578.393 492.614 576.826 494.314C575.26 496.014 574.476 498.398 574.476 501.464V514.864H570.926V488.564H574.326V493.714ZM613.827 488.564L600.677 518.014C599.61 520.481 598.377 522.231 596.977 523.264C595.577 524.298 593.894 524.814 591.927 524.814C590.66 524.814 589.477 524.614 588.377 524.214C587.277 523.814 586.327 523.214 585.527 522.414L587.177 519.764C588.51 521.098 590.11 521.764 591.977 521.764C593.177 521.764 594.194 521.431 595.027 520.764C595.894 520.098 596.694 518.964 597.427 517.364L598.577 514.814L586.827 488.564H590.527L600.427 510.914L610.327 488.564H613.827ZM632.377 488.364C634.843 488.364 637.077 488.931 639.077 490.064C641.077 491.164 642.643 492.731 643.777 494.764C644.91 496.798 645.477 499.114 645.477 501.714C645.477 504.348 644.91 506.681 643.777 508.714C642.643 510.748 641.077 512.331 639.077 513.464C637.11 514.564 634.877 515.114 632.377 515.114C630.243 515.114 628.31 514.681 626.577 513.814C624.877 512.914 623.477 511.614 622.377 509.914V524.564H618.827V488.564H622.227V493.764C623.293 492.031 624.693 490.698 626.427 489.764C628.193 488.831 630.177 488.364 632.377 488.364ZM632.127 511.964C633.96 511.964 635.627 511.548 637.127 510.714C638.627 509.848 639.793 508.631 640.627 507.064C641.493 505.498 641.927 503.714 641.927 501.714C641.927 499.714 641.493 497.948 640.627 496.414C639.793 494.848 638.627 493.631 637.127 492.764C635.627 491.898 633.96 491.464 632.127 491.464C630.26 491.464 628.577 491.898 627.077 492.764C625.61 493.631 624.443 494.848 623.577 496.414C622.743 497.948 622.327 499.714 622.327 501.714C622.327 503.714 622.743 505.498 623.577 507.064C624.443 508.631 625.61 509.848 627.077 510.714C628.577 511.548 630.26 511.964 632.127 511.964ZM666.563 513.264C665.897 513.864 665.063 514.331 664.063 514.664C663.097 514.964 662.08 515.114 661.013 515.114C658.547 515.114 656.647 514.448 655.313 513.114C653.98 511.781 653.313 509.898 653.313 507.464V491.564H648.613V488.564H653.313V482.814H656.863V488.564H664.863V491.564H656.863V507.264C656.863 508.831 657.247 510.031 658.013 510.864C658.813 511.664 659.947 512.064 661.413 512.064C662.147 512.064 662.847 511.948 663.513 511.714C664.213 511.481 664.813 511.148 665.313 510.714L666.563 513.264ZM682.848 515.114C680.315 515.114 678.031 514.548 675.998 513.414C673.965 512.248 672.365 510.648 671.198 508.614C670.031 506.581 669.448 504.281 669.448 501.714C669.448 499.148 670.031 496.848 671.198 494.814C672.365 492.781 673.965 491.198 675.998 490.064C678.031 488.931 680.315 488.364 682.848 488.364C685.381 488.364 687.665 488.931 689.698 490.064C691.731 491.198 693.315 492.781 694.448 494.814C695.615 496.848 696.198 499.148 696.198 501.714C696.198 504.281 695.615 506.581 694.448 508.614C693.315 510.648 691.731 512.248 689.698 513.414C687.665 514.548 685.381 515.114 682.848 515.114ZM682.848 511.964C684.715 511.964 686.381 511.548 687.848 510.714C689.348 509.848 690.515 508.631 691.348 507.064C692.181 505.498 692.598 503.714 692.598 501.714C692.598 499.714 692.181 497.931 691.348 496.364C690.515 494.798 689.348 493.598 687.848 492.764C686.381 491.898 684.715 491.464 682.848 491.464C680.981 491.464 679.298 491.898 677.798 492.764C676.331 493.598 675.165 494.798 674.298 496.364C673.465 497.931 673.048 499.714 673.048 501.714C673.048 503.714 673.465 505.498 674.298 507.064C675.165 508.631 676.331 509.848 677.798 510.714C679.298 511.548 680.981 511.964 682.848 511.964ZM697.08 514.864H722.08V517.264H697.08V514.864ZM736.514 515.114C733.914 515.114 731.58 514.548 729.514 513.414C727.48 512.281 725.88 510.698 724.714 508.664C723.547 506.598 722.964 504.281 722.964 501.714C722.964 499.148 723.547 496.848 724.714 494.814C725.88 492.781 727.48 491.198 729.514 490.064C731.58 488.931 733.914 488.364 736.514 488.364C738.78 488.364 740.797 488.814 742.564 489.714C744.364 490.581 745.78 491.864 746.814 493.564L744.164 495.364C743.297 494.064 742.197 493.098 740.864 492.464C739.53 491.798 738.08 491.464 736.514 491.464C734.614 491.464 732.897 491.898 731.364 492.764C729.864 493.598 728.68 494.798 727.814 496.364C726.98 497.931 726.564 499.714 726.564 501.714C726.564 503.748 726.98 505.548 727.814 507.114C728.68 508.648 729.864 509.848 731.364 510.714C732.897 511.548 734.614 511.964 736.514 511.964C738.08 511.964 739.53 511.648 740.864 511.014C742.197 510.381 743.297 509.414 744.164 508.114L746.814 509.914C745.78 511.614 744.364 512.914 742.564 513.814C740.764 514.681 738.747 515.114 736.514 515.114ZM757.188 493.714C758.021 491.948 759.254 490.614 760.888 489.714C762.554 488.814 764.604 488.364 767.038 488.364V491.814L766.188 491.764C763.421 491.764 761.254 492.614 759.688 494.314C758.121 496.014 757.338 498.398 757.338 501.464V514.864H753.788V488.564H757.188V493.714ZM783.971 515.114C781.438 515.114 779.154 514.548 777.121 513.414C775.088 512.248 773.488 510.648 772.321 508.614C771.154 506.581 770.571 504.281 770.571 501.714C770.571 499.148 771.154 496.848 772.321 494.814C773.488 492.781 775.088 491.198 777.121 490.064C779.154 488.931 781.438 488.364 783.971 488.364C786.504 488.364 788.788 488.931 790.821 490.064C792.854 491.198 794.438 492.781 795.571 494.814C796.738 496.848 797.321 499.148 797.321 501.714C797.321 504.281 796.738 506.581 795.571 508.614C794.438 510.648 792.854 512.248 790.821 513.414C788.788 514.548 786.504 515.114 783.971 515.114ZM783.971 511.964C785.838 511.964 787.504 511.548 788.971 510.714C790.471 509.848 791.638 508.631 792.471 507.064C793.304 505.498 793.721 503.714 793.721 501.714C793.721 499.714 793.304 497.931 792.471 496.364C791.638 494.798 790.471 493.598 788.971 492.764C787.504 491.898 785.838 491.464 783.971 491.464C782.104 491.464 780.421 491.898 778.921 492.764C777.454 493.598 776.288 494.798 775.421 496.364C774.588 497.931 774.171 499.714 774.171 501.714C774.171 503.714 774.588 505.498 775.421 507.064C776.288 508.631 777.454 509.848 778.921 510.714C780.421 511.548 782.104 511.964 783.971 511.964ZM817.969 488.364C821.269 488.364 823.885 489.331 825.819 491.264C827.785 493.164 828.769 495.948 828.769 499.614V514.864H825.219V499.964C825.219 497.231 824.535 495.148 823.169 493.714C821.802 492.281 819.852 491.564 817.319 491.564C814.485 491.564 812.235 492.414 810.569 494.114C808.935 495.781 808.119 498.098 808.119 501.064V514.864H804.569V488.564H807.969V493.414C808.935 491.814 810.269 490.581 811.969 489.714C813.702 488.814 815.702 488.364 817.969 488.364Z" fill="white"/>
<path d="M551.039 323.952C547.572 323.952 544.422 323.186 541.589 321.652C538.789 320.086 536.589 317.952 534.989 315.252C533.422 312.552 532.639 309.519 532.639 306.152C532.639 302.786 533.422 299.752 534.989 297.052C536.589 294.352 538.789 292.236 541.589 290.702C544.422 289.136 547.572 288.352 551.039 288.352C554.505 288.352 557.622 289.119 560.389 290.652C563.189 292.186 565.389 294.319 566.989 297.052C568.589 299.752 569.389 302.786 569.389 306.152C569.389 309.519 568.589 312.569 566.989 315.302C565.389 318.002 563.189 320.119 560.389 321.652C557.622 323.186 554.505 323.952 551.039 323.952ZM551.039 320.652C553.805 320.652 556.305 320.036 558.539 318.802C560.772 317.536 562.522 315.802 563.789 313.602C565.055 311.369 565.689 308.886 565.689 306.152C565.689 303.419 565.055 300.952 563.789 298.752C562.522 296.519 560.772 294.786 558.539 293.552C556.305 292.286 553.805 291.652 551.039 291.652C548.272 291.652 545.755 292.286 543.489 293.552C541.255 294.786 539.489 296.519 538.189 298.752C536.922 300.952 536.289 303.419 536.289 306.152C536.289 308.886 536.922 311.369 538.189 313.602C539.489 315.802 541.255 317.536 543.489 318.802C545.755 320.036 548.272 320.652 551.039 320.652ZM590.482 297.152C592.949 297.152 595.182 297.719 597.182 298.852C599.182 299.952 600.749 301.519 601.882 303.552C603.015 305.586 603.582 307.902 603.582 310.502C603.582 313.136 603.015 315.469 601.882 317.502C600.749 319.536 599.182 321.119 597.182 322.252C595.215 323.352 592.982 323.902 590.482 323.902C588.349 323.902 586.415 323.469 584.682 322.602C582.982 321.702 581.582 320.402 580.482 318.702V333.352H576.932V297.352H580.332V302.552C581.399 300.819 582.799 299.486 584.532 298.552C586.299 297.619 588.282 297.152 590.482 297.152ZM590.232 320.752C592.065 320.752 593.732 320.336 595.232 319.502C596.732 318.636 597.899 317.419 598.732 315.852C599.599 314.286 600.032 312.502 600.032 310.502C600.032 308.502 599.599 306.736 598.732 305.202C597.899 303.636 596.732 302.419 595.232 301.552C593.732 300.686 592.065 300.252 590.232 300.252C588.365 300.252 586.682 300.686 585.182 301.552C583.715 302.419 582.549 303.636 581.682 305.202C580.849 306.736 580.432 308.502 580.432 310.502C580.432 312.502 580.849 314.286 581.682 315.852C582.549 317.419 583.715 318.636 585.182 319.502C586.682 320.336 588.365 320.752 590.232 320.752ZM624.669 322.052C624.002 322.652 623.169 323.119 622.169 323.452C621.202 323.752 620.185 323.902 619.119 323.902C616.652 323.902 614.752 323.236 613.419 321.902C612.085 320.569 611.419 318.686 611.419 316.252V300.352H606.719V297.352H611.419V291.602H614.969V297.352H622.969V300.352H614.969V316.052C614.969 317.619 615.352 318.819 616.119 319.652C616.919 320.452 618.052 320.852 619.519 320.852C620.252 320.852 620.952 320.736 621.619 320.502C622.319 320.269 622.919 319.936 623.419 319.502L624.669 322.052ZM631.131 297.352H634.681V323.652H631.131V297.352ZM632.931 291.602C632.198 291.602 631.581 291.352 631.081 290.852C630.581 290.352 630.331 289.752 630.331 289.052C630.331 288.386 630.581 287.802 631.081 287.302C631.581 286.802 632.198 286.552 632.931 286.552C633.665 286.552 634.281 286.802 634.781 287.302C635.281 287.769 635.531 288.336 635.531 289.002C635.531 289.736 635.281 290.352 634.781 290.852C634.281 291.352 633.665 291.602 632.931 291.602ZM655.309 323.902C652.776 323.902 650.492 323.336 648.459 322.202C646.426 321.036 644.826 319.436 643.659 317.402C642.492 315.369 641.909 313.069 641.909 310.502C641.909 307.936 642.492 305.636 643.659 303.602C644.826 301.569 646.426 299.986 648.459 298.852C650.492 297.719 652.776 297.152 655.309 297.152C657.842 297.152 660.126 297.719 662.159 298.852C664.192 299.986 665.776 301.569 666.909 303.602C668.076 305.636 668.659 307.936 668.659 310.502C668.659 313.069 668.076 315.369 666.909 317.402C665.776 319.436 664.192 321.036 662.159 322.202C660.126 323.336 657.842 323.902 655.309 323.902ZM655.309 320.752C657.176 320.752 658.842 320.336 660.309 319.502C661.809 318.636 662.976 317.419 663.809 315.852C664.642 314.286 665.059 312.502 665.059 310.502C665.059 308.502 664.642 306.719 663.809 305.152C662.976 303.586 661.809 302.386 660.309 301.552C658.842 300.686 657.176 300.252 655.309 300.252C653.442 300.252 651.759 300.686 650.259 301.552C648.792 302.386 647.626 303.586 646.759 305.152C645.926 306.719 645.509 308.502 645.509 310.502C645.509 312.502 645.926 314.286 646.759 315.852C647.626 317.419 648.792 318.636 650.259 319.502C651.759 320.336 653.442 320.752 655.309 320.752ZM689.307 297.152C692.607 297.152 695.223 298.119 697.157 300.052C699.123 301.952 700.107 304.736 700.107 308.402V323.652H696.557V308.752C696.557 306.019 695.873 303.936 694.507 302.502C693.14 301.069 691.19 300.352 688.657 300.352C685.823 300.352 683.573 301.202 681.907 302.902C680.273 304.569 679.457 306.886 679.457 309.852V323.652H675.907V297.352H679.307V302.202C680.273 300.602 681.607 299.369 683.307 298.502C685.04 297.602 687.04 297.152 689.307 297.152ZM704.795 323.652H729.795V326.052H704.795V323.652ZM744.495 310.452L738.295 316.152V323.652H734.745V286.552H738.295V311.702L753.995 297.352H758.395L747.145 308.102L759.445 323.652H755.095L744.495 310.452ZM764.383 297.352H767.933V323.652H764.383V297.352ZM766.183 291.602C765.45 291.602 764.833 291.352 764.333 290.852C763.833 290.352 763.583 289.752 763.583 289.052C763.583 288.386 763.833 287.802 764.333 287.302C764.833 286.802 765.45 286.552 766.183 286.552C766.917 286.552 767.533 286.802 768.033 287.302C768.533 287.769 768.783 288.336 768.783 289.002C768.783 289.736 768.533 290.352 768.033 290.852C767.533 291.352 766.917 291.602 766.183 291.602ZM791.211 297.152C794.511 297.152 797.128 298.119 799.061 300.052C801.028 301.952 802.011 304.736 802.011 308.402V323.652H798.461V308.752C798.461 306.019 797.778 303.936 796.411 302.502C795.044 301.069 793.094 300.352 790.561 300.352C787.728 300.352 785.478 301.202 783.811 302.902C782.178 304.569 781.361 306.886 781.361 309.852V323.652H777.811V297.352H781.211V302.202C782.178 300.602 783.511 299.369 785.211 298.502C786.944 297.602 788.944 297.152 791.211 297.152ZM836.097 297.352V320.452C836.097 324.919 834.997 328.219 832.797 330.352C830.63 332.519 827.347 333.602 822.947 333.602C820.513 333.602 818.197 333.236 815.997 332.502C813.83 331.802 812.063 330.819 810.697 329.552L812.497 326.852C813.763 327.986 815.297 328.869 817.097 329.502C818.93 330.136 820.847 330.452 822.847 330.452C826.18 330.452 828.63 329.669 830.197 328.102C831.763 326.569 832.547 324.169 832.547 320.902V317.552C831.447 319.219 829.997 320.486 828.197 321.352C826.43 322.219 824.463 322.652 822.297 322.652C819.83 322.652 817.58 322.119 815.547 321.052C813.547 319.952 811.963 318.436 810.797 316.502C809.663 314.536 809.097 312.319 809.097 309.852C809.097 307.386 809.663 305.186 810.797 303.252C811.963 301.319 813.547 299.819 815.547 298.752C817.547 297.686 819.797 297.152 822.297 297.152C824.53 297.152 826.547 297.602 828.347 298.502C830.147 299.402 831.597 300.702 832.697 302.402V297.352H836.097ZM822.647 319.502C824.547 319.502 826.263 319.102 827.797 318.302C829.33 317.469 830.513 316.319 831.347 314.852C832.213 313.386 832.647 311.719 832.647 309.852C832.647 307.986 832.213 306.336 831.347 304.902C830.513 303.436 829.33 302.302 827.797 301.502C826.297 300.669 824.58 300.252 822.647 300.252C820.747 300.252 819.03 300.652 817.497 301.452C815.997 302.252 814.813 303.386 813.947 304.852C813.113 306.319 812.697 307.986 812.697 309.852C812.697 311.719 813.113 313.386 813.947 314.852C814.813 316.319 815.997 317.469 817.497 318.302C819.03 319.102 820.747 319.502 822.647 319.502Z" fill="white"/>
<path d="M1184.44 98.4354H1191.84V112.635C1189.94 114.069 1187.74 115.169 1185.24 115.935C1182.74 116.702 1180.22 117.085 1177.69 117.085C1174.05 117.085 1170.79 116.319 1167.89 114.785C1164.99 113.219 1162.7 111.069 1161.04 108.335C1159.4 105.569 1158.59 102.452 1158.59 98.9854C1158.59 95.5187 1159.4 92.4187 1161.04 89.6854C1162.7 86.9187 1165 84.7687 1167.94 83.2354C1170.87 81.6687 1174.17 80.8854 1177.84 80.8854C1180.9 80.8854 1183.69 81.402 1186.19 82.4353C1188.69 83.4687 1190.79 84.9687 1192.49 86.9354L1187.29 91.7353C1184.79 89.102 1181.77 87.7854 1178.24 87.7854C1176 87.7854 1174.02 88.252 1172.29 89.1854C1170.55 90.1187 1169.2 91.4354 1168.24 93.1354C1167.27 94.8354 1166.79 96.7854 1166.79 98.9854C1166.79 101.152 1167.27 103.085 1168.24 104.785C1169.2 106.485 1170.54 107.819 1172.24 108.785C1173.97 109.719 1175.94 110.185 1178.14 110.185C1180.47 110.185 1182.57 109.685 1184.44 108.685V98.4354ZM1210.06 74.3853H1217.01L1200.51 121.485H1193.56L1210.06 74.3853ZM1218.94 81.4853H1227.04V109.885H1244.59V116.485H1218.94V81.4853Z" fill="white"/>
</svg>
