<svg viewBox="0 0 752 752" fill="none" xmlns="http://www.w3.org/2000/svg">
<path d="M139.21 557.54C139.245 588.04 163.96 612.759 194.46 612.794H557.54C588.04 612.759 612.759 588.04 612.794 557.54V194.46C612.759 163.96 588.04 139.245 557.54 139.21H194.46C163.96 139.245 139.245 163.96 139.21 194.46V557.54ZM194.46 155H557.54C579.325 155.027 596.981 172.68 597.005 194.465V557.545C596.982 579.33 579.325 596.986 557.54 597.01H194.46C172.675 596.987 155.022 579.33 154.995 557.545V194.465C155.022 172.68 172.675 155.027 194.46 155V155Z" fill="white"/>
<path d="M206.3 233.93C221.558 233.93 233.925 221.563 233.925 206.305C233.925 191.047 221.558 178.68 206.3 178.68C191.042 178.68 178.675 191.047 178.675 206.305C178.695 221.555 191.05 233.914 206.3 233.93ZM206.3 194.465C212.839 194.465 218.14 199.765 218.14 206.305C218.14 212.844 212.839 218.145 206.3 218.145C199.761 218.145 194.46 212.844 194.46 206.305C194.468 199.769 199.765 194.473 206.3 194.465Z" fill="white"/>
<path d="M545.7 233.93C560.954 233.93 573.325 221.563 573.325 206.305C573.325 191.047 560.954 178.68 545.7 178.68C530.442 178.68 518.071 191.047 518.071 206.305C518.091 221.555 530.45 233.914 545.7 233.93ZM545.7 194.465C552.235 194.465 557.536 199.765 557.536 206.305C557.536 212.844 552.235 218.145 545.7 218.145C539.161 218.145 533.86 212.844 533.86 206.305C533.864 199.769 539.161 194.473 545.7 194.465Z" fill="white"/>
<path d="M206.3 518.07C191.042 518.07 178.675 530.441 178.675 545.699C178.675 560.953 191.042 573.324 206.3 573.324C221.558 573.324 233.925 560.953 233.925 545.699C233.909 530.449 221.55 518.09 206.3 518.07ZM206.3 557.535C199.761 557.535 194.46 552.234 194.46 545.699C194.46 539.16 199.761 533.859 206.3 533.859C212.839 533.859 218.14 539.16 218.14 545.699C218.132 552.234 212.835 557.531 206.3 557.535Z" fill="white"/>
<path d="M545.7 518.07C530.442 518.07 518.071 530.441 518.071 545.699C518.071 560.953 530.442 573.324 545.7 573.324C560.954 573.324 573.325 560.953 573.325 545.699C573.306 530.449 560.946 518.09 545.7 518.07ZM545.7 557.535C539.161 557.535 533.86 552.234 533.86 545.699C533.86 539.16 539.161 533.859 545.7 533.859C552.235 533.859 557.536 539.16 557.536 545.699C557.532 552.234 552.235 557.531 545.7 557.535Z" fill="white"/>
<path d="M233.93 312.86C233.946 325.934 244.539 336.528 257.61 336.54H289.184C302.254 336.528 312.848 325.935 312.86 312.86V295.723C312.856 293.625 313.688 291.618 315.176 290.137L321.712 283.602C323.188 282.118 325.2 281.286 327.294 281.29H424.715C426.813 281.286 428.825 282.118 430.301 283.602L436.837 290.137C438.325 291.618 439.157 293.629 439.149 295.723V320.754C439.145 325.11 435.614 328.641 431.258 328.649H390.438C384.153 328.629 378.126 331.129 373.692 335.586L327.692 381.586C323.235 386.016 320.739 392.047 320.755 398.332V439.148C320.782 441.363 321.728 443.465 323.364 444.957C325.001 446.445 327.181 447.187 329.388 447.008C329.63 447.031 329.876 447.043 330.13 447.043H407.579C420.649 447.027 431.243 436.434 431.259 423.363V398.332C431.251 396.234 432.083 394.226 433.571 392.746L440.107 386.211C441.583 384.726 443.595 383.894 445.693 383.898H472.076C478.361 383.918 484.392 381.418 488.822 376.961L519.037 346.746C523.494 342.316 525.994 336.285 525.974 330V264.148C525.994 257.866 523.494 251.836 519.037 247.406L488.822 217.187C484.392 212.73 478.361 210.234 472.076 210.253H287.826C281.54 210.234 275.514 212.73 271.08 217.187L240.865 247.406C236.408 251.835 233.911 257.867 233.927 264.148L233.93 312.86ZM249.719 264.149C249.711 262.055 250.543 260.044 252.031 258.567L282.246 228.352C283.723 226.864 285.735 226.032 287.828 226.04H472.078C474.172 226.032 476.184 226.864 477.664 228.352L507.879 258.567C509.364 260.044 510.196 262.055 510.192 264.149V330.001C510.196 332.095 509.364 334.107 507.879 335.587L477.664 365.802C476.184 367.286 474.172 368.118 472.078 368.115H445.695C439.41 368.095 433.379 370.595 428.949 375.052L422.41 381.587C417.953 386.017 415.457 392.048 415.473 398.333V423.364C415.469 427.72 411.938 431.251 407.582 431.259H336.543V398.333C336.539 396.235 337.371 394.227 338.856 392.747L384.86 346.747C386.336 345.262 388.348 344.427 390.442 344.434H431.262C444.332 344.419 454.926 333.825 454.938 320.754V295.723C454.957 289.438 452.457 283.407 448.004 278.977L441.465 272.442C437.035 267.985 431.004 265.485 424.719 265.505H327.297C321.016 265.485 314.985 267.985 310.551 272.442L304.016 278.977C299.559 283.407 297.063 289.438 297.078 295.723V312.86C297.074 317.22 293.543 320.751 289.188 320.755H257.614C253.258 320.751 249.727 317.22 249.723 312.86L249.719 264.149Z" fill="white"/>
<path d="M407.57 470.72H344.425C331.355 470.731 320.761 481.325 320.745 494.4V525.97C320.761 539.04 331.354 549.634 344.425 549.65H407.57C420.64 549.634 431.234 539.041 431.25 525.97V494.4C431.234 481.326 420.641 470.732 407.57 470.72ZM415.461 525.97C415.457 530.325 411.926 533.856 407.57 533.864H344.425C340.07 533.856 336.538 530.325 336.531 525.97V494.4C336.538 490.04 340.07 486.509 344.425 486.505H407.57C411.926 486.509 415.457 490.04 415.461 494.4V525.97Z" fill="white"/>
</svg>
