<svg width="502" height="564" viewBox="0 0 502 564" fill="none" xmlns="http://www.w3.org/2000/svg">
    <path d="M475.39 191.82L464.6 270.1L459.33 308.29L427.31 540.59C389.43 550.84 324.6 557.59 251 557.59C177.4 557.59 112.57 550.84 74.69 540.59L42.67 308.29L37.4 270.1L26.61 191.82H475.39Z" fill="#AF6646"/>
    <path d="M251 563.01C179.5 563.01 113.06 556.59 73.28 545.82C71.18 545.25 69.62 543.48 69.32 541.32L21.24 192.55C21.03 191 21.49 189.43 22.53 188.24C23.56 187.06 25.05 186.38 26.62 186.38H475.39C476.96 186.38 478.45 187.06 479.48 188.24C480.51 189.42 480.98 190.99 480.77 192.55L432.69 541.32C432.39 543.48 430.83 545.25 428.73 545.82C388.95 556.59 322.51 563.01 251 563.01ZM79.58 536.26C118.84 546.24 182.46 552.16 251.01 552.16C319.56 552.16 383.18 546.24 422.44 536.26L469.17 197.25H32.84L79.58 536.26Z" fill="#724526"/>
    <path d="M251 185.2C386.177 185.2 495.76 165.514 495.76 141.23C495.76 116.946 386.177 97.26 251 97.26C115.823 97.26 6.24011 116.946 6.24011 141.23C6.24011 165.514 115.823 185.2 251 185.2Z" fill="#AF6646"/>
    <path d="M251 190.62C185.31 190.62 123.5 186.02 76.9701 177.66C25.7301 168.45 0.820068 156.54 0.820068 141.23C0.820068 125.92 25.7301 114 76.9701 104.8C123.5 96.44 185.31 91.84 251 91.84C316.69 91.84 378.5 96.44 425.03 104.8C476.27 114 501.18 125.92 501.18 141.23C501.18 156.54 476.27 168.45 425.03 177.66C378.5 186.02 316.69 190.62 251 190.62ZM251 102.69C185.92 102.69 124.8 107.23 78.8801 115.48C12.4201 127.42 11.6601 140.68 11.6601 141.23C11.6601 141.78 12.4201 155.04 78.8801 166.98C124.8 175.23 185.93 179.77 251 179.77C316.07 179.77 377.19 175.23 423.12 166.98C489.58 155.04 490.34 141.79 490.34 141.23C490.34 140.67 489.58 127.41 423.12 115.48C377.2 107.23 316.08 102.69 251 102.69Z" fill="#8C422F"/>
    <path d="M37.41 270.1C80.26 283.29 160.96 293.03 251.01 293.03C341.06 293.03 421.76 283.29 464.61 270.1L459.34 308.29C416.22 320.83 339.05 329.17 251.01 329.17C162.97 329.17 85.81 320.83 42.68 308.29L37.41 270.1Z" fill="#9B5138"/>
    <path d="M15.8 186.45C15.8 186.45 41.5701 113.96 136.47 152.4C136.47 152.4 190.36 101.6 260.66 132.63C260.66 132.63 316.9 99.4001 373.13 131.53C373.13 131.53 482.09 119.45 475.06 174.36C468.03 229.29 15.8 186.45 15.8 186.45Z" fill="#664435"/>
    <path d="M316.47 207.78C294.05 207.78 269.41 207.33 242.61 206.42C129.81 202.61 16.4201 191.95 15.2901 191.85C13.6201 191.69 12.1301 190.78 11.2301 189.36C10.3301 187.95 10.1301 186.2 10.6901 184.63C11.1001 183.47 21.1001 156.16 50.8401 142.8C74.1401 132.33 102.58 133.46 135.41 146.14C140.52 141.91 152.75 132.75 170.21 125.83C191.02 117.58 223.38 111.16 260.37 126.6C272.1 120.45 322.58 97.42 374.3 125.96C385.73 124.89 446.87 120.45 470.89 144.87C478.77 152.89 481.99 163.04 480.45 175.05C478.42 190.89 453.11 200.35 400.81 204.82C377.79 206.8 349.57 207.78 316.47 207.78ZM24.0701 181.76C51.5201 184.21 147.5 192.37 243.02 195.59C308.95 197.81 361.73 197.29 399.89 194.03C462.92 188.64 469.24 177.1 469.68 173.69C470.79 165.02 468.65 158.09 463.15 152.49C454.12 143.31 435.95 137.68 410.61 136.22C390.88 135.08 373.91 136.92 373.74 136.94C372.6 137.07 371.45 136.83 370.45 136.26C317.56 106.04 263.97 137 263.43 137.32C261.92 138.21 260.08 138.32 258.48 137.61C230.84 125.41 202.61 124.79 174.6 135.79C153.45 144.09 140.34 156.25 140.21 156.37C138.67 157.82 136.42 158.24 134.46 157.45C103.25 144.81 76.6701 143.19 55.4701 152.65C38.2301 160.31 28.5601 173.76 24.0701 181.76Z" fill="#4C291B"/>
    <path d="M261.55 177.27C261.12 177.27 260.68 177.22 260.24 177.11C257.33 176.39 255.56 173.45 256.28 170.54C267.1 126.8 256.32 67.96 256.21 67.37C255.66 64.43 257.6 61.59 260.55 61.04C263.49 60.49 266.33 62.43 266.88 65.37C267.35 67.87 278.2 127.08 266.81 173.14C266.2 175.62 263.99 177.27 261.55 177.27Z" fill="#779B1E"/>
    <path d="M261.44 67.03C261.44 67.03 266.82 20.06 320.84 26.89C320.84 26.89 291.88 78.14 261.44 67.03Z" fill="#97C941"/>
    <path d="M270.32 74.05C266.8 74.05 263.22 73.46 259.58 72.13C257.22 71.27 255.76 68.91 256.05 66.42C256.15 65.56 258.67 45.1 275.64 31.77C287.33 22.59 302.77 19.14 321.51 21.51C323.3 21.74 324.87 22.84 325.68 24.46C326.49 26.08 326.44 27.99 325.55 29.56C324.42 31.58 300.04 74.05 270.32 74.05ZM267.85 63.02C285.45 65.08 303.07 43.48 311.31 31.64C299.63 31.47 289.95 34.38 282.45 40.23C273.39 47.29 269.45 57.24 267.85 63.02Z" fill="#779B1E"/>
    <path d="M261.37 67.18C261.37 67.18 247.25 22.06 299.41 6.42004C299.41 6.42004 293.69 65 261.37 67.18Z" fill="#97C941"/>
    <path d="M261.36 72.6C259 72.6 256.9 71.07 256.18 68.79C255.92 67.96 249.94 48.24 260.06 29.18C267.03 16.05 279.74 6.64002 297.84 1.21002C299.57 0.690016 301.45 1.07001 302.84 2.22001C304.24 3.37001 304.97 5.14001 304.79 6.94001C304.54 9.52001 298.21 70.13 261.72 72.59C261.61 72.6 261.48 72.6 261.36 72.6ZM292.73 14.57C281.89 19.2 274.14 25.81 269.65 34.27C264.25 44.44 264.69 55.02 265.57 60.91C281.62 55.87 289.67 30.9 292.73 14.57Z" fill="#779B1E"/>
    <path d="M251 563.01C179.5 563.01 113.06 556.59 73.28 545.82C71.18 545.25 69.62 543.48 69.32 541.32L21.24 192.55C21.03 191 21.49 189.43 22.53 188.24C23.56 187.06 25.05 186.38 26.62 186.38H475.39C476.96 186.38 478.45 187.06 479.48 188.24C480.51 189.42 480.98 190.99 480.77 192.55L432.69 541.32C432.39 543.48 430.83 545.25 428.73 545.82C388.95 556.59 322.51 563.01 251 563.01ZM79.58 536.26C118.84 546.24 182.46 552.16 251.01 552.16C319.56 552.16 383.18 546.24 422.44 536.26L469.17 197.25H32.84L79.58 536.26Z" fill="#724526"/>
    <path d="M201.26 205.47C201.26 205.47 201.26 156.74 267.47 169.41C267.47 169.41 333.68 125.66 379.2 200.74L201.26 205.47Z" fill="#664435"/>
    <path d="M201.26 210.9C199.85 210.9 198.49 210.35 197.47 209.36C196.42 208.34 195.83 206.94 195.83 205.47C195.83 204.67 196.01 185.74 211.48 172.95C224.01 162.59 242.49 159.48 266.41 163.7C273.49 159.56 298.78 146.58 327.81 153.1C349.98 158.08 368.83 173.16 383.85 197.93C384.85 199.58 384.9 201.64 383.97 203.34C383.04 205.04 381.28 206.11 379.35 206.16L201.41 210.89C201.36 210.89 201.31 210.9 201.26 210.9ZM247.06 172.71C234.92 172.71 225.33 175.58 218.4 181.31C211.36 187.13 208.55 194.76 207.43 199.87L369.33 195.57C356.95 178.2 342.25 167.49 325.54 163.71C296.53 157.15 270.72 173.77 270.46 173.94C269.28 174.71 267.84 175 266.46 174.74C259.4 173.39 252.93 172.71 247.06 172.71Z" fill="#4C291B"/>
    <path d="M495.76 141.23V249.06C495.76 255.69 487.6 261.97 472.97 267.61C434.02 282.62 349.28 293.02 250.99 293.02C152.7 293.02 67.9701 282.62 29.0101 267.61C14.3901 261.97 6.22009 255.69 6.22009 249.06V141.23C6.22009 165.51 115.8 185.2 250.98 185.2C386.16 185.2 495.76 165.51 495.76 141.23Z" fill="#AF6646"/>
    <path d="M251 298.45C155.61 298.45 67.7101 288.33 27.0701 272.67C9.40007 265.85 0.810059 258.13 0.810059 249.05V141.23C0.810059 138.23 3.24007 135.8 6.24007 135.8C9.24007 135.8 11.6701 138.23 11.6701 141.23C11.6701 141.79 12.4301 155.04 78.8901 166.98C124.81 175.23 185.94 179.77 251.01 179.77C316.08 179.77 377.2 175.23 423.13 166.98C489.59 155.04 490.35 141.79 490.35 141.23C490.35 138.23 492.78 135.8 495.78 135.8C498.78 135.8 501.2 138.23 501.2 141.23V249.06C501.2 258.13 492.61 265.86 474.94 272.68C434.29 288.33 346.39 298.45 251 298.45ZM11.6601 157.24V249.06C11.6601 250.07 12.5901 255.46 30.9701 262.55C70.4701 277.77 156.83 287.6 251 287.6C345.17 287.6 431.53 277.77 471.02 262.55C489.4 255.46 490.33 250.07 490.33 249.06V157.24C478.47 165.2 456.81 171.95 425.03 177.66C378.49 186.02 316.69 190.62 251 190.62C185.31 190.62 123.5 186.02 76.9701 177.66C45.1801 171.95 23.5301 165.19 11.6601 157.24Z" fill="#8C422F"/>
</svg>
