<svg viewBox="0 0 501 488" fill="none" xmlns="http://www.w3.org/2000/svg">
<path d="M474.998 116.192L464.208 194.472L458.938 232.662L426.918 464.962C389.038 475.212 324.208 481.962 250.608 481.962C177.008 481.962 112.178 475.212 74.2984 464.962L42.2784 232.662L37.0084 194.472L26.2184 116.192H474.998Z" fill="#AF6646"/>
<path d="M250.608 487.392C179.108 487.392 112.668 480.972 72.8884 470.202C70.7884 469.632 69.2284 467.862 68.9284 465.702L20.8484 116.932C20.6384 115.382 21.0984 113.812 22.1384 112.622C23.1684 111.442 24.6584 110.762 26.2284 110.762H474.998C476.568 110.762 478.058 111.442 479.088 112.622C480.118 113.802 480.588 115.372 480.378 116.932L432.298 465.702C431.998 467.862 430.438 469.632 428.338 470.202C388.558 480.962 322.118 487.392 250.608 487.392ZM79.1884 460.632C118.448 470.612 182.068 476.532 250.618 476.532C319.168 476.532 382.788 470.612 422.048 460.632L468.778 121.622H32.4484L79.1884 460.632Z" fill="#724526"/>
<path d="M250.608 109.582C385.786 109.582 495.368 89.8963 495.368 65.6123C495.368 41.3284 385.786 21.6423 250.608 21.6423C115.431 21.6423 5.84839 41.3284 5.84839 65.6123C5.84839 89.8963 115.431 109.582 250.608 109.582Z" fill="#AF6646"/>
<path d="M250.608 115.002C184.918 115.002 123.108 110.402 76.5784 102.042C25.3384 92.8323 0.428406 80.9223 0.428406 65.6123C0.428406 50.3023 25.3384 38.3823 76.5784 29.1823C123.108 20.8223 184.918 16.2223 250.608 16.2223C316.298 16.2223 378.118 20.8223 424.638 29.1823C475.878 38.3823 500.788 50.3023 500.788 65.6123C500.788 80.9223 475.878 92.8323 424.638 102.042C378.108 110.392 316.298 115.002 250.608 115.002ZM250.608 27.0623C185.528 27.0623 124.408 31.6023 78.4884 39.8523C12.0284 51.7923 11.2684 65.0523 11.2684 65.6023C11.2684 66.1623 12.0284 79.4123 78.4884 91.3523C124.408 99.6023 185.538 104.142 250.608 104.142C315.678 104.142 376.798 99.6023 422.728 91.3523C489.188 79.4123 489.948 66.1623 489.948 65.6023C489.948 65.0423 489.188 51.7823 422.728 39.8523C376.808 31.6123 315.688 27.0623 250.608 27.0623Z" fill="#8C422F"/>
<path d="M37.0184 194.472C79.8684 207.662 160.568 217.402 250.618 217.402C340.668 217.402 421.368 207.662 464.218 194.472L458.948 232.662C415.828 245.202 338.658 253.542 250.618 253.542C162.578 253.542 85.4184 245.202 42.2884 232.662L37.0184 194.472Z" fill="#9B5138"/>
<path d="M15.4084 110.832C15.4084 110.832 41.1784 38.3423 136.078 76.7823C136.078 76.7823 189.968 25.9823 260.268 57.0123C260.268 57.0123 316.508 23.7823 372.738 55.9123C372.738 55.9123 481.698 43.8323 474.668 98.7423C467.638 153.662 15.4084 110.832 15.4084 110.832Z" fill="#664435"/>
<path d="M316.088 132.162C293.668 132.162 269.028 131.712 242.228 130.802C129.428 126.992 16.0384 116.332 14.9084 116.232C13.2384 116.072 11.7484 115.162 10.8484 113.742C9.94838 112.332 9.7484 110.582 10.3084 109.012C10.7184 107.852 20.7184 80.5422 50.4584 67.1822C73.7584 56.7122 102.198 57.8423 135.028 70.5223C140.138 66.2923 152.368 57.1323 169.828 50.2123C190.638 41.9623 222.998 35.5423 259.988 50.9823C271.718 44.8323 322.198 21.8022 373.918 50.3422C385.348 49.2722 446.488 44.8322 470.498 69.2522C478.378 77.2722 481.598 87.4222 480.058 99.4322C478.028 115.272 452.718 124.732 400.418 129.202C377.398 131.182 349.178 132.162 316.088 132.162ZM23.6784 106.142C51.1284 108.592 147.108 116.752 242.628 119.972C308.558 122.192 361.338 121.672 399.498 118.412C462.528 113.022 468.848 101.482 469.288 98.0723C470.398 89.4023 468.258 82.4722 462.748 76.8722C453.718 67.6922 435.548 62.0623 410.208 60.6023C390.478 59.4623 373.508 61.3023 373.338 61.3223C372.198 61.4523 371.048 61.2123 370.048 60.6423C317.158 30.4223 263.558 61.3823 263.028 61.7023C261.518 62.5923 259.678 62.7023 258.078 61.9923C191.848 32.7523 140.318 80.2622 139.808 80.7522C138.268 82.2022 136.018 82.6323 134.048 81.8323C102.838 69.1923 76.2684 67.5722 55.0584 77.0322C37.8384 84.6922 28.1684 98.1323 23.6784 106.142Z" fill="#4C291B"/>
<path d="M250.608 487.392C179.108 487.392 112.668 480.972 72.8884 470.202C70.7884 469.632 69.2284 467.862 68.9284 465.702L20.8484 116.932C20.6384 115.382 21.0984 113.812 22.1384 112.622C23.1684 111.442 24.6584 110.762 26.2284 110.762H474.998C476.568 110.762 478.058 111.442 479.088 112.622C480.118 113.802 480.588 115.372 480.378 116.932L432.298 465.702C431.998 467.862 430.438 469.632 428.338 470.202C388.558 480.962 322.118 487.392 250.608 487.392ZM79.1884 460.632C118.448 470.612 182.068 476.532 250.618 476.532C319.168 476.532 382.788 470.612 422.048 460.632L468.778 121.622H32.4484L79.1884 460.632Z" fill="#724526"/>
<path d="M250.608 162.292C295.167 162.292 331.288 126.171 331.288 81.6123C331.288 37.0539 295.167 0.932251 250.608 0.932251C206.05 0.932251 169.928 37.0539 169.928 81.6123C169.928 126.171 206.05 162.292 250.608 162.292Z" fill="url(#paint0_radial_2_119)"/>
<path d="M200.868 129.852C200.868 129.852 200.868 81.1223 267.078 93.7923C267.078 93.7923 333.288 50.0423 378.808 125.122L200.868 129.852Z" fill="#664435"/>
<path d="M200.868 135.272C199.458 135.272 198.098 134.722 197.078 133.732C196.028 132.712 195.438 131.312 195.438 129.842C195.438 129.042 195.618 110.112 211.088 97.3222C223.618 86.9622 242.098 83.8522 266.018 88.0722C273.098 83.9322 298.388 70.9522 327.418 77.4722C349.588 82.4522 368.438 97.5323 383.458 122.302C384.458 123.952 384.508 126.012 383.578 127.712C382.648 129.412 380.888 130.482 378.958 130.532L201.018 135.262C200.968 135.272 200.918 135.272 200.868 135.272ZM246.668 97.0922C234.528 97.0922 224.938 99.9622 218.008 105.692C210.968 111.512 208.158 119.142 207.038 124.252L368.938 119.952C356.558 102.582 341.858 91.8722 325.148 88.0922C296.138 81.5322 270.328 98.1522 270.068 98.3222C268.888 99.0922 267.448 99.3822 266.068 99.1222C259.008 97.7722 252.538 97.0922 246.668 97.0922Z" fill="#4C291B"/>
<path d="M495.368 65.6123V173.442C495.368 180.072 487.208 186.352 472.578 191.992C433.628 207.002 348.888 217.402 250.598 217.402C152.308 217.402 67.5784 207.002 28.6184 191.992C13.9984 186.352 5.8284 180.072 5.8284 173.442V65.6123C5.8484 89.8923 115.428 109.572 250.608 109.572C385.788 109.572 495.368 89.8923 495.368 65.6123Z" fill="#AF6646"/>
<path d="M250.608 222.832C155.218 222.832 67.3184 212.712 26.6784 197.052C9.00841 190.232 0.418396 182.512 0.418396 173.432V65.6123C0.418396 62.6123 2.8484 60.1823 5.8484 60.1823C8.8484 60.1823 11.2784 62.6123 11.2784 65.6123C11.2784 66.1723 12.0384 79.4223 78.4984 91.3623C124.418 99.6123 185.548 104.152 250.618 104.152C315.688 104.152 376.808 99.6123 422.738 91.3623C489.198 79.4223 489.958 66.1723 489.958 65.6123C489.958 62.6123 492.388 60.1823 495.388 60.1823C498.388 60.1823 500.818 62.6123 500.818 65.6123V173.442C500.818 182.512 492.228 190.242 474.558 197.062C433.898 212.712 345.998 222.832 250.608 222.832ZM11.2684 81.6123V173.432C11.2684 174.442 12.1984 179.832 30.5784 186.922C70.0684 202.142 156.438 211.972 250.598 211.972C344.768 211.972 431.128 202.142 470.618 186.922C488.998 179.832 489.928 174.442 489.928 173.432V81.6123C478.068 89.5723 456.408 96.3223 424.628 102.032C378.088 110.392 316.288 114.992 250.598 114.992C184.908 114.992 123.098 110.392 76.5684 102.032C44.7884 96.3223 23.1384 89.5723 11.2684 81.6123Z" fill="#8C422F"/>
<defs>
<radialGradient id="paint0_radial_2_119" cx="0" cy="0" r="1" gradientUnits="userSpaceOnUse" gradientTransform="translate(250.612 81.6144) scale(79.7344)">
<stop offset="0.1643" stop-color="#FFDC3F"/>
<stop offset="0.9646" stop-color="#FFF0AB" stop-opacity="0"/>
</radialGradient>
</defs>
</svg>
