<svg viewBox="0 0 720 720" fill="none" xmlns="http://www.w3.org/2000/svg">
<path fill-rule="evenodd" clip-rule="evenodd" d="M350.094 6.99996C298.002 7.61494 245.525 19.6542 196.531 44.4687C26.1102 130.784 -45.8314 345.015 40.7812 515.937C125.485 683.093 335.625 753.657 503.281 668.656C667.182 585.56 736.363 379.462 652.969 215.062C571.474 54.4069 369.435 -13.386 208.281 68.4062C50.8598 148.304 -15.5706 346.301 64.6249 504.219C142.931 658.417 336.932 723.479 491.625 644.875C642.61 568.155 706.299 378.198 629.281 226.719C554.142 78.935 368.151 16.5943 219.875 92.0312C75.2815 165.594 14.2948 347.603 88.1562 492.687C160.149 634.102 338.19 693.729 480.094 621.437C618.341 551.009 676.633 376.923 605.906 238.187C537.037 103.096 366.89 46.1442 231.312 115.312C99.3649 182.629 43.7597 348.848 111.375 481.281C177.144 610.097 339.45 664.38 468.75 598.312C594.447 534.085 647.402 375.679 582.875 249.5C520.184 126.91 365.633 75.2583 242.562 138.25C123.067 199.412 72.756 350.088 134.219 470.062C193.857 586.477 340.701 635.502 457.594 575.562C570.94 517.441 618.642 374.448 560.219 260.625C503.607 150.333 364.423 103.899 253.656 160.812C146.405 215.92 101.277 351.307 156.687 459.031C210.298 563.256 341.898 607.101 446.594 553.187C547.806 501.068 590.393 373.213 537.969 271.531C487.332 173.317 363.214 132.027 264.531 182.969C169.3 232.129 129.253 352.521 178.719 448.219C226.409 540.482 343.115 579.248 435.844 531.25C525.155 485.021 562.662 372.024 516.125 282.25C471.35 195.875 362.023 159.603 275.187 204.687C191.733 248.016 156.705 353.711 200.344 437.625C242.234 518.176 344.273 551.983 425.281 509.781C502.945 469.322 535.523 370.839 494.75 292.719C455.712 217.924 360.843 186.585 285.594 225.937C213.65 263.561 183.496 354.885 221.437 427.281C257.657 496.392 345.438 525.319 415 488.781C481.297 453.958 509.051 369.684 473.906 302.937C440.469 239.435 359.7 212.896 295.75 246.656C235.021 278.716 209.645 356.013 242.031 417.187C272.724 475.163 346.581 499.397 405 468.375C460.243 439.039 483.293 368.56 453.625 312.875C425.636 260.342 358.568 238.425 305.594 266.75C255.747 293.403 234.975 357.121 261.969 407.406C287.297 454.59 347.692 474.236 395.312 448.562C439.857 424.547 458.397 367.449 434.031 322.469C411.316 280.536 357.46 263.116 315.094 286.187C275.747 307.614 259.429 358.221 281.219 398C301.371 434.789 348.781 450.054 386 429.531C420.26 410.64 434.458 366.377 415.187 331.687C397.543 299.925 356.378 286.809 324.187 304.844C294.89 321.257 282.81 359.306 299.625 389.031C314.823 415.898 349.863 426.958 377.156 411.344C401.629 397.343 411.684 365.274 397.25 340.375C384.428 318.257 355.294 309.224 332.75 322.5C312.946 334.163 304.888 360.425 317.031 380.656C327.556 398.192 350.974 405.289 368.937 394.25C384.253 384.838 390.437 364.151 380.469 348.406C372.143 335.256 354.112 329.966 340.531 338.906C329.488 346.176 325.094 361.65 333.062 373.125C339.314 382.127 352.318 385.672 361.75 378.594C368.788 373.312 371.542 362.603 365.219 355.156C363.024 352.572 360.032 350.936 356.687 350.469C353.343 350.002 349.362 350.949 346.625 353.875C344.886 355.734 343.997 357.91 343.906 360.5C343.816 363.09 345.249 366.647 348.312 368.187C350.943 369.51 351.681 369.102 353.562 368.562C354.503 368.293 355.856 367.856 357 366.187C357.896 364.881 357.878 363.059 357.562 361.594C357.571 361.603 357.586 361.616 357.594 361.625C359.742 364.155 358.597 368.458 355.75 370.594C351.283 373.946 344.527 372.08 341.281 367.406C336.773 360.914 339.416 351.636 346.031 347.281C354.621 341.626 366.557 345.103 372.031 353.75C378.837 364.5 374.474 379.141 363.719 385.75C350.752 393.718 333.354 388.429 325.594 375.5C316.451 360.268 322.652 340.053 337.812 331.125C355.357 320.793 378.482 327.963 388.594 345.406C400.129 365.305 391.959 391.345 372.187 402.656C349.894 415.41 320.87 406.269 308.344 384.125C294.357 359.401 304.538 327.319 329.094 313.562C356.284 298.33 391.437 309.527 406.437 336.531C422.93 366.22 410.674 404.522 381.187 420.781C348.969 438.546 307.53 425.221 290 393.219C270.95 358.441 285.327 313.783 319.875 294.969C357.24 274.621 405.109 290.126 425.219 327.25C446.876 367.229 430.289 418.363 390.562 439.781C347.943 462.759 293.519 445.044 270.781 402.687C246.472 357.403 265.3 299.631 310.312 275.562C358.285 249.911 419.403 269.902 444.812 317.594C471.816 368.278 450.708 432.77 400.312 459.531C346.894 487.897 278.967 465.621 250.844 412.5C221.105 356.327 244.537 284.994 300.406 255.5C359.355 224.38 434.187 248.987 465.062 307.625C497.574 369.37 471.771 447.672 410.344 479.937C345.783 513.849 263.977 486.862 230.312 422.625C194.992 355.23 223.153 269.854 290.219 234.781C360.467 198.044 449.417 227.431 485.906 297.344C524.069 370.463 493.466 462.992 420.687 500.906C344.68 540.503 248.566 508.661 209.219 433C168.18 354.087 201.219 254.351 279.781 213.562C361.616 171.075 465.013 205.365 507.25 286.844C551.195 371.617 515.663 478.681 431.25 522.375C343.523 567.784 232.782 530.987 187.625 443.625C140.744 352.928 178.797 238.472 269.125 191.844C362.806 143.484 480.956 182.817 529.062 276.125C578.908 372.806 538.335 494.72 442.031 544.312C342.336 595.651 216.647 553.783 165.562 454.469C112.725 351.745 155.88 222.302 258.219 169.719C363.984 115.375 497.224 159.81 551.312 265.187C607.169 374.009 561.461 511.056 453.031 566.656C341.14 624.032 200.244 576.996 143.125 465.5C84.2244 350.526 132.55 205.8 247.125 147.156C365.194 86.7243 513.794 136.364 573.969 254.031C635.938 375.209 584.96 527.695 464.187 589.406C339.889 652.919 183.535 600.641 120.281 476.75C55.2194 349.318 108.823 189.021 235.844 124.219C366.42 57.602 530.643 112.556 597 242.719C665.177 376.453 608.88 544.614 475.562 612.531C338.66 682.275 166.545 624.608 97.0624 488.125C25.7471 348.042 84.745 171.991 224.406 100.937C367.681 28.045 547.744 88.3997 620.375 231.25C694.85 377.728 633.144 561.756 487.094 635.969C337.402 712.031 149.331 648.981 73.5312 499.719C-4.12459 346.802 60.3281 154.705 212.812 77.3125C368.965 -1.94141 565.073 63.8762 644.062 219.594C724.919 378.992 657.742 579.157 498.781 659.75C336.126 742.215 131.888 673.653 49.6874 511.437C-34.3909 345.516 35.5825 137.219 201.062 53.4062C370.261 -32.29 582.632 39.0578 668.062 207.812C723.049 316.43 717.123 449.058 653.312 552.656L661.812 557.906C727.475 451.302 733.598 315.082 677 203.281C613.799 78.4367 483.217 5.42836 350.094 6.99996ZM351.344 358.656C351.502 358.633 351.807 358.76 352.781 359.25C353.373 359.547 353.91 360.726 353.906 360.844C353.902 360.962 354.078 360.536 353.906 360.719C354.271 360.329 354.511 360.267 355.281 360.375C355.605 360.42 355.895 360.733 356.25 360.906L348.375 364.781C347.999 364.017 347.872 361.811 348.75 360.531C349.628 359.251 350.444 359.043 350.812 358.937C351.181 358.832 351.186 358.68 351.344 358.656Z" fill="white"/>
<path d="M682.115 509.415C682.115 509.415 665.767 546.701 650.692 564.875C626.155 594.457 579.624 640.635 518.741 668.092C488.375 681.786 430.467 696.465 385.448 697.875" stroke="white" stroke-width="10"/>
</svg>
