<svg width="60" height="60" viewBox="0 0 60 60" fill="none" xmlns="http://www.w3.org/2000/svg">
<path d="M34.3791 52.0928L17.2301 57.5748C16.7426 57.7304 16.2133 57.686 15.7586 57.4514C15.3039 57.2168 14.9609 56.8112 14.8051 56.3238L1.99007 16.4848C1.91292 16.2436 1.88405 15.9895 1.90512 15.7371C1.92619 15.4847 1.99678 15.239 2.11286 15.0139C2.22894 14.7888 2.38824 14.5887 2.58165 14.4252C2.77506 14.2617 2.9988 14.1379 3.24007 14.0608L9.66607 12.0068" stroke="white" stroke-width="1.5" stroke-linecap="round" stroke-linejoin="round"/>
<path d="M49.0956 46.2662L18.9541 52.5509C18.7047 52.5955 18.449 52.5907 18.2015 52.5365C17.954 52.4823 17.7196 52.3799 17.5117 52.2352C17.3037 52.0904 17.1264 51.9061 16.9897 51.6927C16.853 51.4794 16.7597 51.2413 16.7151 50.9919L9.26908 9.80987C9.17914 9.30637 9.29285 8.78776 9.5852 8.36808C9.87755 7.9484 10.3246 7.66201 10.8281 7.57187L39.9441 2.36387C40.1934 2.31907 40.4491 2.32387 40.6966 2.378C40.9441 2.43212 41.1785 2.53452 41.3863 2.67932C41.5942 2.82412 41.7715 3.00848 41.908 3.22187C42.0446 3.43525 42.1377 3.67346 42.1821 3.92287L49.0956 46.2662Z" stroke="white" stroke-width="1.5" stroke-linecap="round" stroke-linejoin="round"/>
<path d="M23.5229 14.2409C23.992 15.0723 24.1846 16.0313 24.0728 16.9793C23.961 17.9273 23.5507 18.8152 22.9011 19.5147C22.2515 20.2141 21.3963 20.6889 20.4591 20.8703C19.5219 21.0518 18.5513 20.9305 17.6876 20.524C16.8239 20.1175 16.1118 19.4469 15.6543 18.6091C15.1968 17.7713 15.0175 16.8098 15.1425 15.8634C15.2674 14.917 15.6901 14.0349 16.3493 13.3445C17.0086 12.6542 17.8703 12.1914 18.8099 12.0229" stroke="white" stroke-width="1.5" stroke-linecap="round" stroke-linejoin="round"/>
<path d="M21.867 33.6138C24.3528 33.6138 26.368 31.5987 26.368 29.1128C26.368 26.627 24.3528 24.6118 21.867 24.6118C19.3811 24.6118 17.366 26.627 17.366 29.1128C17.366 31.5987 19.3811 33.6138 21.867 33.6138Z" stroke="white" stroke-width="1.5" stroke-linecap="round" stroke-linejoin="round"/>
<path d="M24.1309 46.273C26.6167 46.273 28.6319 44.2578 28.6319 41.772C28.6319 39.2862 26.6167 37.271 24.1309 37.271C21.6451 37.271 19.6299 39.2862 19.6299 41.772C19.6299 44.2578 21.6451 46.273 24.1309 46.273Z" stroke="white" stroke-width="1.5" stroke-linecap="round" stroke-linejoin="round"/>
<path d="M17.223 16.138C18.0525 16.6109 18.8102 17.1998 19.473 17.887C19.5665 17.9782 19.682 18.0437 19.8082 18.077C19.9345 18.1103 20.0672 18.1103 20.1935 18.0771C20.3198 18.0439 20.4353 17.9785 20.5288 17.8873C20.6223 17.7962 20.6906 17.6824 20.727 17.557C21.2418 14.7749 22.4536 12.1687 24.249 9.982C24.3846 9.83865 24.4602 9.64882 24.4602 9.4515C24.4602 9.25418 24.3846 9.06435 24.249 8.921C24.1076 8.7817 23.9171 8.70361 23.7185 8.70361C23.52 8.70361 23.3295 8.7817 23.188 8.921C21.2098 11.292 19.8652 14.1261 19.28 17.158L20.534 16.827C19.7807 16.0483 18.9208 15.3803 17.98 14.843C17.8947 14.7933 17.8004 14.7609 17.7025 14.7476C17.6046 14.7344 17.5051 14.7405 17.4096 14.7657C17.3141 14.791 17.2244 14.8347 17.1459 14.8946C17.0673 14.9544 17.0012 15.0291 16.9515 15.1145C16.9018 15.1999 16.8694 15.2942 16.8562 15.3921C16.8429 15.4899 16.8491 15.5895 16.8743 15.685C16.8995 15.7805 16.9433 15.8701 17.0031 15.9487C17.0629 16.0273 17.1377 16.0933 17.223 16.143V16.138Z" fill="white"/>
<path d="M28.9319 11.6688L34.7189 10.3828" stroke="white" stroke-width="1.5" stroke-linecap="round" stroke-linejoin="round"/>
<path d="M29.575 16.1702L38.577 14.2412" stroke="white" stroke-width="1.5" stroke-linecap="round" stroke-linejoin="round"/>
</svg>
