<svg width="398" height="576" viewBox="0 0 398 576" fill="none" xmlns="http://www.w3.org/2000/svg">
    <path d="M199.9 84.3011L194.1 82.6011C195.4 77.9011 197.8 64.401 192.9 58.201C185 48.401 188.8 31.701 189 31.001L194.8 32.401L191.9 31.701L194.8 32.401C194.8 32.501 191.5 46.901 197.6 54.501C205.5 64.401 200.1 83.5011 199.9 84.3011Z" fill="#87900F"/>
    <path d="M188.9 31.101C188.9 31.101 200.7 0.401034 229.4 2.40103C235.6 2.80103 241.9 2.60103 248 1.30103C248.2 1.20103 248.5 1.20103 248.7 1.10103C252.5 0.101033 255.8 3.80103 254.3 7.40103C247.4 23.601 229.1 51.301 188.9 31.101Z" fill="#87900F"/>
    <path d="M140.5 23.0011C153.2 21.9011 179.8 22.7011 192.3 46.7011C192.3 46.7011 156.6 59.2011 137 30.2011C135 27.3011 137 23.3011 140.5 23.0011Z" fill="#87900F"/>
    <path d="M393.8 405.401C393.8 522.901 306.6 571.401 198.9 571.401C91.2 571.401 4 523.001 4 405.401C4 287.801 91.3 74.0011 198.9 74.0011C306.5 74.0011 393.8 287.901 393.8 405.401Z" fill="#9CE4FD"/>
    <path d="M370.8 375.201C370.8 482.001 293.8 526.001 198.9 526.001C104 526.001 27 482.001 27 375.201C27 268.401 104 73.9011 198.9 73.9011C293.8 73.9011 370.8 268.401 370.8 375.201Z" fill="#B8EDFD"/>
    <path d="M198.9 575.401C141.4 575.401 92.9 561.701 58.7 535.701C19.8 506.101 0 462.301 0 405.501C0 344.501 22.6 261.401 57.5 193.901C76.3 157.601 98 127.301 120.3 106.401C146 82.3011 172.4 70.001 198.9 70.001C225.4 70.001 251.8 82.2011 277.5 106.401C299.8 127.301 321.5 157.601 340.3 193.901C375.2 261.501 397.8 344.501 397.8 405.501C397.8 462.301 378.1 506.201 339.1 535.701C304.9 561.701 256.4 575.401 198.9 575.401ZM198.9 78.0011C174.5 78.0011 149.9 89.5011 125.8 112.201C104.2 132.501 83 162.001 64.7 197.501C30.3 264.001 8.1 345.601 8.1 405.501C8.1 459.701 26.8 501.401 63.6 529.401C96.4 554.301 143.2 567.501 199 567.501C254.8 567.501 301.6 554.301 334.4 529.401C371.2 501.401 389.9 459.701 389.9 405.501C389.9 345.701 367.7 264.001 333.3 197.501C314.9 162.001 293.8 132.501 272.2 112.201C247.9 89.5011 223.3 78.0011 198.9 78.0011Z" fill="#98C9E6"/>
    <path d="M284.1 322.601C284.1 340.801 272.8 352.201 258.9 352.201C245 352.201 233.7 340.701 233.7 322.601C233.7 304.501 240.3 286.401 254.2 286.401C268.1 286.401 284.1 304.401 284.1 322.601Z" fill="#713D15"/>
    <path d="M274.4 336.801C278.597 336.801 282 333.398 282 329.201C282 325.004 278.597 321.601 274.4 321.601C270.203 321.601 266.8 325.004 266.8 329.201C266.8 333.398 270.203 336.801 274.4 336.801Z" fill="white"/>
    <path d="M253.433 326.693C259.956 325.887 264.299 317.591 263.135 308.163C261.97 298.735 255.738 291.745 249.215 292.551C242.692 293.357 238.349 301.653 239.513 311.081C240.678 320.509 246.91 327.498 253.433 326.693Z" fill="white"/>
    <path d="M285.7 266.401C284.4 266.401 283.1 265.801 282.4 264.601C282.3 264.401 268.9 244.901 248.6 248.301C246.4 248.701 244.4 247.201 244 245.001C243.6 242.801 245.1 240.801 247.3 240.401C272.7 236.201 288.4 259.201 289.1 260.201C290.3 262.001 289.8 264.501 288 265.701C287.3 266.201 286.5 266.401 285.7 266.401Z" fill="white"/>
    <path d="M313.527 377.66C324.286 373.479 330.527 363.705 327.467 355.829C324.406 347.952 313.203 344.957 302.444 349.137C291.685 353.318 285.444 363.092 288.505 370.968C291.566 378.845 302.768 381.84 313.527 377.66Z" fill="#9CE4FD"/>
    <path d="M113.7 322.601C113.7 340.801 125 352.201 138.9 352.201C152.8 352.201 164.1 340.701 164.1 322.601C164.1 304.501 157.5 286.401 143.6 286.401C129.7 286.401 113.7 304.401 113.7 322.601Z" fill="#713D15"/>
    <path d="M123.4 336.801C127.597 336.801 131 333.398 131 329.201C131 325.004 127.597 321.601 123.4 321.601C119.203 321.601 115.8 325.004 115.8 329.201C115.8 333.398 119.203 336.801 123.4 336.801Z" fill="white"/>
    <path d="M123.4 336.801C127.597 336.801 131 333.398 131 329.201C131 325.004 127.597 321.601 123.4 321.601C119.203 321.601 115.8 325.004 115.8 329.201C115.8 333.398 119.203 336.801 123.4 336.801Z" fill="white"/>
    <path d="M158.298 310.99C159.463 301.562 155.119 293.266 148.596 292.46C142.073 291.654 135.841 298.644 134.677 308.072C133.512 317.5 137.856 325.796 144.379 326.602C150.902 327.408 157.134 320.418 158.298 310.99Z" fill="white"/>
    <path d="M112.1 266.401C111.3 266.401 110.6 266.201 109.9 265.701C108.1 264.501 107.6 262.001 108.8 260.201C109.4 259.201 125.1 236.201 150.6 240.401C152.8 240.801 154.2 242.801 153.9 245.001C153.6 247.201 151.5 248.601 149.3 248.301C129 244.901 115.6 264.401 115.5 264.601C114.6 265.801 113.4 266.401 112.1 266.401Z" fill="white"/>
    <path d="M109.334 371.064C112.395 363.188 106.154 353.414 95.395 349.233C84.636 345.053 73.433 348.048 70.372 355.924C67.312 363.801 73.552 373.575 84.311 377.756C95.07 381.936 106.274 378.941 109.334 371.064Z" fill="#9CE4FD"/>
    <path d="M198.9 374.401C189.7 374.401 180.9 373.001 174 370.301L175.8 365.601C182.1 368.001 190.3 369.301 198.9 369.301C207.5 369.301 215.7 368.001 222 365.601L223.8 370.301C216.9 373.001 208.1 374.401 198.9 374.401Z" fill="#AD5317"/>
    <path d="M172.1 373.101C171.1 373.101 170.2 372.601 169.8 371.601C169.2 370.401 169.8 368.901 171 368.301C173.1 367.301 173.3 364.301 173.3 364.301C173.4 362.901 174.5 361.901 175.9 362.001C177.3 362.101 178.3 363.201 178.3 364.601C178.2 366.801 177 371.101 173.1 372.901C172.8 373.001 172.5 373.101 172.1 373.101Z" fill="#AD5317"/>
    <path d="M225.7 373.101C225.4 373.101 225 373.001 224.7 372.901C220.8 371.101 219.6 366.901 219.5 364.601C219.4 363.201 220.5 362.101 221.9 362.001C223.3 361.901 224.4 363.001 224.5 364.401C224.5 364.501 224.7 367.401 226.8 368.401C228 369.001 228.6 370.501 228 371.701C227.5 372.501 226.6 373.101 225.7 373.101Z" fill="#AD5317"/>
    <g filter="url(#filter0_i_1_145)">
        <path d="M200.9 493.201C228.514 493.201 250.9 470.815 250.9 443.201C250.9 415.587 228.514 393.201 200.9 393.201C173.286 393.201 150.9 415.587 150.9 443.201C150.9 470.815 173.286 493.201 200.9 493.201Z" fill="url(#paint0_radial_1_145)"/>
    </g>
    <path d="M263.81 478.756C259.732 472.639 239.342 488.089 226.088 490.128C216.128 491.696 210.247 501.813 212.442 510.91C214.638 520.007 224.363 525.105 234.166 522.909C265.692 516.086 268.986 486.52 263.81 478.756Z" fill="#B8EDFD"/>
    <path d="M229.617 526.595C219.971 526.595 211.58 520.713 209.306 511.694C207.972 506.283 209.07 500.401 212.207 495.618C215.344 490.912 220.05 487.854 225.539 487.069C230.637 486.285 237.46 483.07 243.42 480.246C253.693 475.384 262.477 471.228 266.398 477.031C269.849 482.207 269.692 492.324 266.163 501.186C263.183 508.558 255.105 521.576 234.872 525.968C233.068 526.36 231.343 526.595 229.617 526.595ZM260.516 480.403C257.772 480.403 250.635 483.776 246.165 485.893C239.499 489.03 232.597 492.324 226.559 493.265C222.873 493.814 219.657 495.931 217.54 499.147C215.344 502.44 214.56 506.519 215.501 510.204C217.305 517.498 225.226 521.733 233.539 519.929C251.027 516.165 257.85 505.107 260.36 498.911C263.732 490.598 262.869 483.148 261.222 480.56C260.987 480.482 260.752 480.403 260.516 480.403ZM263.81 478.756L261.222 480.482L263.81 478.756Z" fill="#98C9E6"/>
    <path d="M258.634 477.58C258.634 477.58 254.87 521.262 213.932 514.831C213.932 514.831 225.853 536.32 253.85 513.341C253.85 513.341 277.299 488.089 258.634 477.58Z" fill="#9CE4FD"/>
    <path d="M229.617 526.595C219.971 526.595 211.58 520.713 209.306 511.694C207.972 506.283 209.07 500.401 212.207 495.618C215.344 490.912 220.05 487.854 225.539 487.069C230.637 486.285 237.46 483.07 243.42 480.246C253.693 475.384 262.477 471.228 266.398 477.031C269.849 482.207 269.692 492.324 266.163 501.186C263.183 508.558 255.105 521.576 234.872 525.968C233.068 526.36 231.343 526.595 229.617 526.595ZM260.516 480.403C257.772 480.403 250.635 483.776 246.165 485.893C239.499 489.03 232.597 492.324 226.559 493.265C222.873 493.814 219.657 495.931 217.54 499.147C215.344 502.44 214.56 506.519 215.501 510.204C217.305 517.498 225.226 521.733 233.539 519.929C251.027 516.165 257.85 505.107 260.36 498.911C263.732 490.598 262.869 483.148 261.222 480.56C260.987 480.482 260.752 480.403 260.516 480.403ZM263.81 478.756L261.222 480.482L263.81 478.756Z" fill="#98C9E6"/>
    <path d="M219.814 507.303C219.658 507.303 219.501 507.303 219.344 507.224C218.324 506.989 217.619 505.891 217.854 504.872C217.932 504.636 219.422 498.441 227.343 495.774C228.363 495.461 229.461 496.01 229.853 497.029C230.166 498.049 229.617 499.147 228.598 499.539C222.716 501.499 221.697 505.813 221.697 505.891C221.54 506.675 220.677 507.303 219.814 507.303Z" fill="white"/>
    <path d="M133.94 478.756C138.018 472.639 158.408 488.089 171.662 490.128C181.622 491.696 187.504 501.813 185.308 510.91C183.112 520.007 173.387 525.105 163.584 522.909C132.136 516.086 128.764 486.52 133.94 478.756Z" fill="#B8EDFD"/>
    <path d="M168.133 526.595C166.486 526.595 164.682 526.438 162.957 526.046C142.645 521.654 134.646 508.636 131.666 501.264C128.058 492.402 127.98 482.207 131.431 477.11C135.273 471.306 144.135 475.463 154.409 480.325C160.369 483.148 167.192 486.364 172.289 487.148C177.779 488.01 182.485 491.069 185.621 495.696C188.837 500.48 189.856 506.362 188.523 511.773C186.17 520.713 177.779 526.595 168.133 526.595ZM136.528 480.56C134.881 483.07 134.097 490.598 137.391 498.911C139.9 505.107 146.723 516.165 164.212 519.929C172.525 521.733 180.445 517.498 182.249 510.204C183.19 506.519 182.406 502.44 180.21 499.147C178.093 495.931 174.877 493.892 171.191 493.265C165.153 492.324 158.252 489.108 151.585 485.893C146.723 483.619 138.489 479.698 136.528 480.56ZM133.94 478.756L136.528 480.482L133.94 478.756Z" fill="#98C9E6"/>
    <path d="M139.116 477.58C139.116 477.58 142.88 521.262 183.818 514.831C183.818 514.831 171.897 536.32 143.9 513.341C143.9 513.341 120.451 488.089 139.116 477.58Z" fill="#9CE4FD"/>
    <path d="M168.133 526.595C166.486 526.595 164.682 526.438 162.957 526.046C142.645 521.654 134.646 508.636 131.666 501.264C128.058 492.402 127.98 482.207 131.431 477.11C135.273 471.306 144.135 475.463 154.409 480.325C160.369 483.148 167.192 486.364 172.289 487.148C177.779 488.01 182.485 491.069 185.621 495.696C188.837 500.48 189.856 506.362 188.523 511.773C186.17 520.713 177.779 526.595 168.133 526.595ZM136.528 480.56C134.881 483.07 134.097 490.598 137.391 498.911C139.9 505.107 146.723 516.165 164.212 519.929C172.525 521.733 180.445 517.498 182.249 510.204C183.19 506.519 182.406 502.44 180.21 499.147C178.093 495.931 174.877 493.892 171.191 493.265C165.153 492.324 158.252 489.108 151.585 485.893C146.723 483.619 138.489 479.698 136.528 480.56ZM133.94 478.756L136.528 480.482L133.94 478.756Z" fill="#98C9E6"/>
    <path d="M177.936 507.303C177.073 507.303 176.289 506.675 176.054 505.813C175.975 505.577 174.877 501.421 169.074 499.46C168.055 499.147 167.506 497.97 167.819 496.951C168.133 495.931 169.309 495.382 170.329 495.696C178.25 498.362 179.74 504.558 179.818 504.793C180.053 505.813 179.426 506.911 178.328 507.146C178.25 507.303 178.093 507.303 177.936 507.303Z" fill="white"/>
    <defs>
        <filter id="filter0_i_1_145" x="150.9" y="393.201" width="100" height="104" filterUnits="userSpaceOnUse" color-interpolation-filters="sRGB">
            <feFlood flood-opacity="0" result="BackgroundImageFix"/>
            <feBlend mode="normal" in="SourceGraphic" in2="BackgroundImageFix" result="shape"/>
            <feColorMatrix in="SourceAlpha" type="matrix" values="0 0 0 0 0 0 0 0 0 0 0 0 0 0 0 0 0 0 127 0" result="hardAlpha"/>
            <feOffset dy="4"/>
            <feGaussianBlur stdDeviation="10"/>
            <feComposite in2="hardAlpha" operator="arithmetic" k2="-1" k3="1"/>
            <feColorMatrix type="matrix" values="0 0 0 0 0.984314 0 0 0 0 0.890196 0 0 0 0 0.243137 0 0 0 1 0"/>
            <feBlend mode="normal" in2="shape" result="effect1_innerShadow_1_145"/>
        </filter>
        <radialGradient id="paint0_radial_1_145" cx="0" cy="0" r="1" gradientUnits="userSpaceOnUse" gradientTransform="translate(200.9 443.123) scale(50.0148)">
            <stop stop-color="white"/>
            <stop offset="0.84375" stop-color="#FAE33D"/>
        </radialGradient>
    </defs>
</svg>
