<svg width="398" height="576" viewBox="0 0 398 576" fill="none" xmlns="http://www.w3.org/2000/svg">
    <path d="M199.9 83.366L194.1 81.666C195.4 76.966 197.8 63.4659 192.9 57.2659C185 47.4659 188.8 30.7659 189 30.0659L194.8 31.4659L191.9 30.7659L194.8 31.4659C194.8 31.5659 191.5 45.9659 197.6 53.5659C205.5 63.4659 200.1 82.566 199.9 83.366Z" fill="#87900F"/>
    <path d="M188.9 30.1659C188.9 30.1659 200.7 -0.534116 229.4 1.46588C235.6 1.86588 241.9 1.66588 248 0.365884C248.2 0.265884 248.5 0.265883 248.7 0.165883C252.5 -0.834117 255.8 2.86588 254.3 6.46588C247.4 22.6659 229.1 50.3659 188.9 30.1659Z" fill="#87900F"/>
    <path d="M140.5 22.0657C153.2 20.9657 179.8 21.7657 192.3 45.7657C192.3 45.7657 156.6 58.2657 137 29.2657C135 26.3657 137 22.3657 140.5 22.0657Z" fill="#87900F"/>
    <path d="M393.8 404.466C393.8 521.966 306.6 570.466 198.9 570.466C91.2 570.466 4 522.066 4 404.466C4 286.866 91.3 73.0659 198.9 73.0659C306.5 73.0659 393.8 286.966 393.8 404.466Z" fill="#9CE4FD"/>
    <path d="M24.2734 374.685C24.2734 481.485 101.273 525.485 196.173 525.485C291.073 525.485 368.073 481.485 368.073 374.685C368.073 267.885 291.073 73.3853 196.173 73.3853C101.273 73.3853 24.2734 267.885 24.2734 374.685Z" fill="#B8EDFD"/>
    <path d="M198.9 574.466C141.4 574.466 92.9 560.766 58.7 534.766C19.8 505.166 0 461.366 0 404.566C0 343.566 22.6 260.466 57.5 192.966C76.3 156.666 98 126.366 120.3 105.466C146 81.366 172.4 69.0659 198.9 69.0659C225.4 69.0659 251.8 81.266 277.5 105.466C299.8 126.366 321.5 156.666 340.3 192.966C375.2 260.566 397.8 343.566 397.8 404.566C397.8 461.366 378.1 505.266 339.1 534.766C304.9 560.766 256.4 574.466 198.9 574.466ZM198.9 77.066C174.5 77.066 149.9 88.566 125.8 111.266C104.2 131.566 83 161.066 64.7 196.566C30.3 263.066 8.1 344.666 8.1 404.566C8.1 458.766 26.8 500.466 63.6 528.466C96.4 553.366 143.2 566.566 199 566.566C254.8 566.566 301.6 553.366 334.4 528.466C371.2 500.466 389.9 458.766 389.9 404.566C389.9 344.766 367.7 263.066 333.3 196.566C314.9 161.066 293.8 131.566 272.2 111.266C247.9 88.566 223.3 77.066 198.9 77.066Z" fill="#98C9E6"/>
    <path d="M284.1 321.666C284.1 339.866 272.8 351.266 258.9 351.266C245 351.266 233.7 339.766 233.7 321.666C233.7 303.566 240.3 285.466 254.2 285.466C268.1 285.466 284.1 303.466 284.1 321.666Z" fill="#713D15"/>
    <path d="M274.4 335.866C278.597 335.866 282 332.463 282 328.266C282 324.069 278.597 320.666 274.4 320.666C270.203 320.666 266.8 324.069 266.8 328.266C266.8 332.463 270.203 335.866 274.4 335.866Z" fill="white"/>
    <path d="M253.433 325.758C259.956 324.952 264.299 316.656 263.135 307.228C261.97 297.8 255.738 290.81 249.215 291.616C242.692 292.422 238.349 300.718 239.513 310.146C240.678 319.574 246.91 326.563 253.433 325.758Z" fill="white"/>
    <path d="M285.523 265.714C284.223 265.697 282.931 265.08 282.247 263.87C282.15 263.669 269.009 243.994 248.666 247.125C246.46 247.496 244.48 245.97 244.11 243.765C243.739 241.56 245.265 239.58 247.47 239.209C272.923 235.345 288.318 258.55 289.005 259.559C290.181 261.375 289.648 263.868 287.832 265.044C287.126 265.535 286.323 265.724 285.523 265.714Z" fill="white"/>
    <path d="M313.527 376.725C324.286 372.544 330.527 362.77 327.467 354.894C324.406 347.017 313.203 344.022 302.444 348.202C291.685 352.383 285.444 362.157 288.505 370.033C291.566 377.91 302.768 380.905 313.527 376.725Z" fill="#9CE4FD"/>
    <path d="M113.7 321.666C113.7 339.866 125 351.266 138.9 351.266C152.8 351.266 164.1 339.766 164.1 321.666C164.1 303.566 157.5 285.466 143.6 285.466C129.7 285.466 113.7 303.466 113.7 321.666Z" fill="#713D15"/>
    <path d="M123.4 335.866C127.597 335.866 131 332.463 131 328.266C131 324.069 127.597 320.666 123.4 320.666C119.203 320.666 115.8 324.069 115.8 328.266C115.8 332.463 119.203 335.866 123.4 335.866Z" fill="white"/>
    <path d="M123.4 335.866C127.597 335.866 131 332.463 131 328.266C131 324.069 127.597 320.666 123.4 320.666C119.203 320.666 115.8 324.069 115.8 328.266C115.8 332.463 119.203 335.866 123.4 335.866Z" fill="white"/>
    <path d="M158.298 310.055C159.463 300.627 155.119 292.331 148.596 291.525C142.073 290.719 135.841 297.709 134.677 307.137C133.512 316.565 137.856 324.861 144.379 325.667C150.902 326.473 157.134 319.483 158.298 310.055Z" fill="white"/>
    <path d="M113.175 266.882C112.377 266.944 111.664 266.798 110.927 266.354C109.041 265.295 108.35 262.841 109.408 260.954C109.929 259.911 123.815 235.773 149.563 238.001C151.787 238.23 153.337 240.117 153.207 242.333C153.077 244.55 151.09 246.107 148.874 245.977C128.372 244.147 116.511 264.619 116.426 264.826C115.621 266.092 114.471 266.783 113.175 266.882Z" fill="white"/>
    <path d="M109.334 370.129C112.395 362.253 106.154 352.479 95.395 348.298C84.636 344.118 73.433 347.113 70.372 354.989C67.312 362.866 73.552 372.64 84.311 376.821C95.07 381.001 106.274 378.006 109.334 370.129Z" fill="#9CE4FD"/>
    <g filter="url(#filter0_i_1_111)">
        <path d="M200.9 492.266C228.514 492.266 250.9 469.88 250.9 442.266C250.9 414.652 228.514 392.266 200.9 392.266C173.286 392.266 150.9 414.652 150.9 442.266C150.9 469.88 173.286 492.266 200.9 492.266Z" fill="url(#paint0_radial_1_111)"/>
    </g>
    <path d="M263.81 477.821C259.732 471.704 239.342 487.154 226.088 489.193C216.128 490.761 210.247 500.878 212.442 509.975C214.638 519.072 224.363 524.17 234.166 521.974C265.692 515.151 268.986 485.585 263.81 477.821Z" fill="#B8EDFD"/>
    <path d="M229.617 525.66C219.971 525.66 211.58 519.778 209.306 510.759C207.972 505.348 209.07 499.466 212.207 494.683C215.344 489.977 220.05 486.919 225.539 486.134C230.637 485.35 237.46 482.135 243.42 479.311C253.693 474.449 262.477 470.293 266.398 476.096C269.849 481.272 269.692 491.389 266.163 500.251C263.183 507.623 255.105 520.641 234.872 525.033C233.068 525.425 231.343 525.66 229.617 525.66ZM260.516 479.468C257.772 479.468 250.635 482.841 246.165 484.958C239.499 488.095 232.597 491.389 226.559 492.33C222.873 492.879 219.657 494.996 217.54 498.212C215.344 501.505 214.56 505.584 215.501 509.269C217.305 516.563 225.226 520.798 233.539 518.994C251.027 515.23 257.85 504.172 260.36 497.976C263.732 489.663 262.869 482.213 261.222 479.625C260.987 479.547 260.752 479.468 260.516 479.468ZM263.81 477.821L261.222 479.547L263.81 477.821Z" fill="#98C9E6"/>
    <path d="M258.634 476.645C258.634 476.645 254.87 520.327 213.932 513.896C213.932 513.896 225.853 535.385 253.85 512.406C253.85 512.406 277.299 487.154 258.634 476.645Z" fill="#9CE4FD"/>
    <path d="M229.617 525.66C219.971 525.66 211.58 519.778 209.306 510.759C207.972 505.348 209.07 499.466 212.207 494.683C215.344 489.977 220.05 486.919 225.539 486.134C230.637 485.35 237.46 482.135 243.42 479.311C253.693 474.449 262.477 470.293 266.398 476.096C269.849 481.272 269.692 491.389 266.163 500.251C263.183 507.623 255.105 520.641 234.872 525.033C233.068 525.425 231.343 525.66 229.617 525.66ZM260.516 479.468C257.772 479.468 250.635 482.841 246.165 484.958C239.499 488.095 232.597 491.389 226.559 492.33C222.873 492.879 219.657 494.996 217.54 498.212C215.344 501.505 214.56 505.584 215.501 509.269C217.305 516.563 225.226 520.798 233.539 518.994C251.027 515.23 257.85 504.172 260.36 497.976C263.732 489.663 262.869 482.213 261.222 479.625C260.987 479.547 260.752 479.468 260.516 479.468ZM263.81 477.821L261.222 479.547L263.81 477.821Z" fill="#98C9E6"/>
    <path d="M219.814 506.368C219.658 506.368 219.501 506.368 219.344 506.289C218.324 506.054 217.619 504.956 217.854 503.937C217.932 503.701 219.422 497.506 227.343 494.839C228.363 494.526 229.461 495.075 229.853 496.094C230.166 497.114 229.617 498.212 228.598 498.604C222.716 500.564 221.697 504.878 221.697 504.956C221.54 505.74 220.677 506.368 219.814 506.368Z" fill="white"/>
    <path d="M133.94 477.821C138.018 471.704 158.408 487.154 171.662 489.193C181.622 490.761 187.504 500.878 185.308 509.975C183.112 519.072 173.387 524.17 163.584 521.974C132.136 515.151 128.764 485.585 133.94 477.821Z" fill="#B8EDFD"/>
    <path d="M168.133 525.66C166.486 525.66 164.682 525.503 162.957 525.111C142.645 520.719 134.646 507.701 131.666 500.329C128.058 491.467 127.98 481.272 131.431 476.175C135.273 470.371 144.135 474.528 154.409 479.39C160.369 482.213 167.192 485.429 172.289 486.213C177.779 487.075 182.485 490.134 185.621 494.761C188.837 499.545 189.856 505.427 188.523 510.838C186.17 519.778 177.779 525.66 168.133 525.66ZM136.528 479.625C134.881 482.135 134.097 489.663 137.391 497.976C139.9 504.172 146.723 515.23 164.212 518.994C172.525 520.798 180.445 516.563 182.249 509.269C183.19 505.584 182.406 501.505 180.21 498.212C178.093 494.996 174.877 492.957 171.191 492.33C165.153 491.389 158.252 488.173 151.585 484.958C146.723 482.684 138.489 478.763 136.528 479.625ZM133.94 477.821L136.528 479.547L133.94 477.821Z" fill="#98C9E6"/>
    <path d="M139.116 476.645C139.116 476.645 142.88 520.327 183.818 513.896C183.818 513.896 171.897 535.385 143.9 512.406C143.9 512.406 120.451 487.154 139.116 476.645Z" fill="#9CE4FD"/>
    <path d="M168.133 525.66C166.486 525.66 164.682 525.503 162.957 525.111C142.645 520.719 134.646 507.701 131.666 500.329C128.058 491.467 127.98 481.272 131.431 476.175C135.273 470.371 144.135 474.528 154.409 479.39C160.369 482.213 167.192 485.429 172.289 486.213C177.779 487.075 182.485 490.134 185.621 494.761C188.837 499.545 189.856 505.427 188.523 510.838C186.17 519.778 177.779 525.66 168.133 525.66ZM136.528 479.625C134.881 482.135 134.097 489.663 137.391 497.976C139.9 504.172 146.723 515.23 164.212 518.994C172.525 520.798 180.445 516.563 182.249 509.269C183.19 505.584 182.406 501.505 180.21 498.212C178.093 494.996 174.877 492.957 171.191 492.33C165.153 491.389 158.252 488.173 151.585 484.958C146.723 482.684 138.489 478.763 136.528 479.625ZM133.94 477.821L136.528 479.547L133.94 477.821Z" fill="#98C9E6"/>
    <path d="M177.936 506.368C177.073 506.368 176.289 505.74 176.054 504.878C175.975 504.642 174.877 500.486 169.074 498.525C168.055 498.212 167.506 497.035 167.819 496.016C168.133 494.996 169.309 494.447 170.329 494.761C178.25 497.427 179.74 503.623 179.818 503.858C180.053 504.878 179.426 505.976 178.328 506.211C178.25 506.368 178.093 506.368 177.936 506.368Z" fill="white"/>
    <path d="M178.919 376.384C194.125 371.058 202.899 371.256 218.919 376.384" stroke="#AD5317" stroke-width="5" stroke-linecap="round"/>
    <defs>
        <filter id="filter0_i_1_111" x="150.9" y="392.266" width="100" height="104" filterUnits="userSpaceOnUse" color-interpolation-filters="sRGB">
            <feFlood flood-opacity="0" result="BackgroundImageFix"/>
            <feBlend mode="normal" in="SourceGraphic" in2="BackgroundImageFix" result="shape"/>
            <feColorMatrix in="SourceAlpha" type="matrix" values="0 0 0 0 0 0 0 0 0 0 0 0 0 0 0 0 0 0 127 0" result="hardAlpha"/>
            <feOffset dy="4"/>
            <feGaussianBlur stdDeviation="10"/>
            <feComposite in2="hardAlpha" operator="arithmetic" k2="-1" k3="1"/>
            <feColorMatrix type="matrix" values="0 0 0 0 0.984314 0 0 0 0 0.890196 0 0 0 0 0.243137 0 0 0 1 0"/>
            <feBlend mode="normal" in2="shape" result="effect1_innerShadow_1_111"/>
        </filter>
        <radialGradient id="paint0_radial_1_111" cx="0" cy="0" r="1" gradientUnits="userSpaceOnUse" gradientTransform="translate(200.9 442.188) scale(50.0148)">
            <stop stop-color="#D5D3BD"/>
            <stop offset="0.817708" stop-color="#FAE33D"/>
        </radialGradient>
    </defs>
</svg>
