<svg width="398" height="575" viewBox="0 0 398 575" fill="none" xmlns="http://www.w3.org/2000/svg">
    <path d="M202.989 83.8423L197.229 82.1723C198.569 77.5023 200.979 64.0019 196.009 57.7919C188.139 47.9619 191.919 31.3119 192.089 30.6119L197.929 31.9719C197.899 32.1119 194.659 46.4919 200.689 54.0419C208.619 63.9519 203.229 83.0323 202.989 83.8423Z" fill="#87900F"/>
    <path d="M192.069 30.662C192.069 30.662 203.829 -0.0479758 232.519 1.95202C238.729 2.38202 244.969 2.17203 251.099 0.842026C251.329 0.792026 251.569 0.732025 251.799 0.672025C255.569 -0.317975 258.889 3.36203 257.359 6.94203C250.499 23.082 232.219 50.812 192.069 30.662Z" fill="#87900F"/>
    <path d="M143.599 22.5021C156.329 21.3821 182.889 22.2321 195.439 46.1921C195.439 46.1921 159.719 58.7421 140.119 29.7021C138.139 26.7721 140.079 22.8121 143.599 22.5021Z" fill="#87900F"/>
    <path d="M393.969 404.942C393.969 522.482 306.719 570.912 199.099 570.912C91.4789 570.912 4.22887 522.472 4.22887 404.942C4.22887 287.412 91.4789 73.4723 199.099 73.4723C306.719 73.4723 393.969 287.402 393.969 404.942Z" fill="#FD94B3"/>
    <path d="M370.989 374.742C370.989 481.572 294.029 525.592 199.099 525.592C104.169 525.592 27.2089 481.572 27.2089 374.742C27.2089 267.912 104.169 73.4723 199.099 73.4723C294.029 73.4723 370.989 267.912 370.989 374.742Z" fill="#FCAFC5"/>
    <path d="M199.099 574.912C141.569 574.912 93.0789 561.172 58.8789 535.182C19.9589 505.602 0.21888 461.782 0.21888 404.932C0.21888 343.912 22.7989 260.842 57.7389 193.282C76.5189 156.972 98.2189 126.732 120.499 105.812C146.179 81.6923 172.629 69.462 199.089 69.462C225.549 69.462 251.999 81.6923 277.679 105.812C299.959 126.732 321.659 156.972 340.439 193.282C375.379 260.832 397.959 343.912 397.959 404.932C397.959 461.782 378.229 505.602 339.299 535.182C305.119 561.172 256.629 574.912 199.099 574.912ZM199.099 77.4723C174.739 77.4723 150.139 88.9723 125.989 111.652C104.369 131.952 83.2289 161.452 64.8589 196.962C30.4589 263.462 8.22887 345.102 8.22887 404.932C8.22887 459.142 26.8989 500.822 63.7289 528.812C96.5189 553.732 143.329 566.902 199.099 566.902C254.869 566.902 301.679 553.732 334.479 528.812C371.309 500.822 389.979 459.142 389.979 404.932C389.979 345.102 367.749 263.462 333.349 196.962C314.979 161.452 293.839 131.952 272.219 111.652C248.059 88.9723 223.459 77.4723 199.099 77.4723Z" fill="#FF6B9A"/>
    <path d="M320.27 396.986C331.024 392.808 337.254 383.019 334.185 375.122C331.117 367.225 319.911 364.211 309.157 368.39C298.404 372.568 292.173 382.358 295.242 390.254C298.311 398.151 309.516 401.165 320.27 396.986Z" fill="#FD94B3"/>
    <path d="M102.945 390.255C106.013 382.358 99.7829 372.569 89.0289 368.39C78.2749 364.211 67.0699 367.225 64.0009 375.122C60.9329 383.019 67.1629 392.808 77.9169 396.987C88.6709 401.166 99.8759 398.152 102.945 390.255Z" fill="#FD94B3"/>
    <path d="M223.579 381.932C223.579 390.182 212.759 396.862 199.399 396.862C186.049 396.862 175.219 390.182 175.219 381.932C175.219 381.584 175.239 381.238 175.278 380.896C175.406 379.764 176.622 379.213 177.701 379.578C183.664 381.599 191.197 382.802 199.399 382.802C207.601 382.802 215.134 381.599 221.097 379.578C222.176 379.213 223.393 379.764 223.521 380.895C223.559 381.237 223.579 381.582 223.579 381.932Z" fill="#9C4400"/>
    <path d="M111.225 285.092C109.775 285.092 108.375 284.302 107.665 282.922C106.655 280.962 107.415 278.542 109.385 277.532C131.705 266.002 153.415 275.302 154.325 275.702C156.345 276.592 157.265 278.952 156.375 280.972C155.485 282.992 153.135 283.912 151.115 283.022C150.865 282.922 131.875 274.912 113.055 284.632C112.465 284.952 111.835 285.092 111.225 285.092Z" fill="white"/>
    <path d="M286.495 285.092C285.875 285.092 285.245 284.952 284.665 284.642C265.695 274.842 246.805 282.942 246.615 283.022C244.595 283.912 242.235 282.992 241.345 280.972C240.455 278.952 241.375 276.592 243.395 275.702C244.305 275.302 266.005 266.002 288.335 277.532C290.295 278.542 291.065 280.962 290.055 282.922C289.335 284.302 287.935 285.092 286.495 285.092Z" fill="white"/>
    <g filter="url(#filter0_i_1_217)">
        <path d="M176.049 411.949C176.039 412.091 176.02 412.233 176.002 412.375H176.001C175.982 412.57 175.954 412.769 175.926 412.967C175.913 413.058 175.9 413.148 175.888 413.238C175.376 416.528 174.115 419.552 172.437 422.434C170.256 426.16 167.441 429.373 164.369 432.388C163.639 433.099 163.052 433.222 162.085 432.91C157.458 431.393 153.022 429.478 149.078 426.567C147.058 425.079 145.238 423.391 143.75 421.41C143.484 421.059 143.238 420.699 142.991 420.339C142.66 419.836 142.347 419.306 142.053 418.765C140.726 416.272 140.015 413.636 140.271 410.783C140.783 405.057 145.703 402.222 149.988 402.44C152.263 402.554 154.358 403.265 156.311 404.403C156.384 404.442 156.447 404.498 156.517 404.56C156.566 404.603 156.619 404.65 156.681 404.697C157.439 403.493 158.255 402.469 159.222 401.568C161.336 399.596 163.782 398.402 166.73 398.515C170.541 398.658 173.148 400.63 174.779 403.986C176.02 406.507 176.314 409.2 176.049 411.949Z" fill="#D83468"/>
        <path d="M176.049 411.949C176.039 412.091 176.02 412.233 176.002 412.375H176.001C175.982 412.57 175.954 412.769 175.926 412.967C175.913 413.058 175.9 413.148 175.888 413.238C175.376 416.528 174.115 419.552 172.437 422.434C170.256 426.16 167.441 429.373 164.369 432.388C163.639 433.099 163.052 433.222 162.085 432.91C157.458 431.393 153.022 429.478 149.078 426.567C147.058 425.079 145.238 423.391 143.75 421.41C143.484 421.059 143.238 420.699 142.991 420.339C142.66 419.836 142.347 419.306 142.053 418.765C140.726 416.272 140.015 413.636 140.271 410.783C140.783 405.057 145.703 402.222 149.988 402.44C152.263 402.554 154.358 403.265 156.311 404.403C156.384 404.442 156.447 404.498 156.517 404.56C156.566 404.603 156.619 404.65 156.681 404.697C157.439 403.493 158.255 402.469 159.222 401.568C161.336 399.596 163.782 398.402 166.73 398.515C170.541 398.658 173.148 400.63 174.779 403.986C176.02 406.507 176.314 409.2 176.049 411.949Z" stroke="#EB3512"/>
        <path d="M243.671 444.788C243.609 444.968 243.548 445.146 243.486 445.324C243.425 445.502 243.363 445.679 243.301 445.86C243.045 446.58 242.77 447.3 242.486 448.002C239.196 456.155 234.153 463.208 228.105 469.598C220.264 477.884 211.097 484.463 201.389 490.378C199.086 491.782 197.493 491.734 195.208 490.35C184.202 483.666 173.944 476.101 165.535 466.251C161.222 461.198 157.553 455.776 154.908 449.794C154.444 448.742 154.007 447.67 153.6 446.58C153.04 445.073 152.557 443.537 152.13 441.954C150.206 434.749 149.94 427.534 152.311 420.348C157.06 405.929 171.404 401.578 182.325 404.678C188.117 406.327 193.075 409.418 197.427 413.523C197.594 413.684 197.732 413.876 197.889 414.096C197.981 414.225 198.08 414.362 198.195 414.509C200.859 411.854 203.579 409.712 206.594 407.977C213.221 404.166 220.217 402.554 227.754 404.611C237.48 407.266 243.017 413.902 245.197 423.515C246.856 430.767 245.994 437.858 243.671 444.788Z" fill="#EC3B6F"/>
        <path d="M243.671 444.788C243.609 444.968 243.548 445.146 243.486 445.324C243.425 445.502 243.363 445.679 243.301 445.86C243.045 446.58 242.77 447.3 242.486 448.002C239.196 456.155 234.153 463.208 228.105 469.598C220.264 477.884 211.097 484.463 201.389 490.378C199.086 491.782 197.493 491.734 195.208 490.35C184.202 483.666 173.944 476.101 165.535 466.251C161.222 461.198 157.553 455.776 154.908 449.794C154.444 448.742 154.007 447.67 153.6 446.58C153.04 445.073 152.557 443.537 152.13 441.954C150.206 434.749 149.94 427.534 152.311 420.348C157.06 405.929 171.404 401.578 182.325 404.678C188.117 406.327 193.075 409.418 197.427 413.523C197.594 413.684 197.732 413.876 197.889 414.096C197.981 414.225 198.08 414.362 198.195 414.509C200.859 411.854 203.579 409.712 206.594 407.977C213.221 404.166 220.217 402.554 227.754 404.611C237.48 407.266 243.017 413.902 245.197 423.515C246.856 430.767 245.994 437.858 243.671 444.788Z" stroke="#FC501A"/>
        <path d="M255.161 452.467C255.095 452.543 255.031 452.621 254.967 452.699C254.903 452.778 254.839 452.856 254.772 452.932C254.507 453.245 254.232 453.548 253.948 453.842C250.734 457.264 246.866 459.795 242.619 461.805C237.111 464.412 231.28 465.91 225.308 466.981C223.895 467.237 223.109 466.905 222.236 465.768C218.056 460.317 214.415 454.572 212.13 448.04C210.964 444.693 210.187 441.281 210.026 437.801C209.997 437.185 209.988 436.569 209.997 435.953C210.016 435.099 210.064 434.237 210.159 433.365C210.595 429.402 211.856 425.761 214.425 422.652C219.572 416.395 227.555 417.002 232.39 420.661C234.959 422.605 236.817 425.098 238.191 427.98C238.247 428.097 238.278 428.222 238.314 428.366C238.334 428.443 238.355 428.526 238.381 428.615C240.22 427.809 241.984 427.269 243.823 426.984C247.852 426.368 251.653 426.918 255 429.402C259.323 432.606 260.792 436.977 260.024 442.181C259.456 446.106 257.654 449.471 255.161 452.467Z" fill="#D83468"/>
        <path d="M255.161 452.467C255.095 452.543 255.031 452.621 254.967 452.699C254.903 452.778 254.839 452.856 254.772 452.932C254.507 453.245 254.232 453.548 253.948 453.842C250.734 457.264 246.866 459.795 242.619 461.805C237.111 464.412 231.28 465.91 225.308 466.981C223.895 467.237 223.109 466.905 222.236 465.768C218.056 460.317 214.415 454.572 212.13 448.04C210.964 444.693 210.187 441.281 210.026 437.801C209.997 437.185 209.988 436.569 209.997 435.953C210.016 435.099 210.064 434.237 210.159 433.365C210.595 429.402 211.856 425.761 214.425 422.652C219.572 416.395 227.555 417.002 232.39 420.661C234.959 422.605 236.817 425.098 238.191 427.98C238.247 428.097 238.278 428.222 238.314 428.366C238.334 428.443 238.355 428.526 238.381 428.615C240.22 427.809 241.984 427.269 243.823 426.984C247.852 426.368 251.653 426.918 255 429.402C259.323 432.606 260.792 436.977 260.024 442.181C259.456 446.106 257.654 449.471 255.161 452.467Z" stroke="#ED3511"/>
    </g>
    <path d="M263.018 450.247C258.107 442.867 233.336 461.569 217.302 464.048C205.259 465.91 198.078 478.229 200.785 489.2C203.492 500.17 215.203 506.363 227.114 503.78C265.288 495.497 269.277 459.65 263.018 450.247Z" fill="#FCAFC5"/>
    <path d="M221.681 508.168C209.998 508.168 199.787 501.016 197.099 490.112C195.485 483.558 196.767 476.472 200.623 470.678C204.404 464.998 210.122 461.313 216.723 460.287C222.916 459.328 231.132 455.452 238.389 452.033C250.803 446.182 261.517 441.119 266.19 448.139C270.35 454.379 270.208 466.708 265.867 477.441C262.248 486.369 252.513 502.155 227.931 507.493C225.813 507.949 223.723 508.168 221.681 508.168ZM259.028 452.261C255.714 452.261 247.032 456.355 241.618 458.91C233.526 462.728 225.157 466.67 217.882 467.8C213.418 468.493 209.533 471.01 206.949 474.895C204.271 478.923 203.368 483.805 204.48 488.297C206.645 497.093 216.239 502.269 226.307 500.075C247.469 495.478 255.761 482.142 258.81 474.601C262.875 464.561 261.868 455.471 259.893 452.413C259.674 452.308 259.38 452.261 259.028 452.261Z" fill="#FF6B9A"/>
    <path d="M256.834 448.775C256.834 448.775 252.304 501.633 202.647 493.901C202.647 493.901 217.065 519.955 251.031 492.097C251.031 492.097 279.383 461.541 256.834 448.775Z" fill="#FD94B3"/>
    <path d="M221.681 508.168C209.998 508.168 199.787 501.016 197.099 490.112C195.485 483.558 196.767 476.472 200.623 470.678C204.404 464.998 210.122 461.313 216.723 460.287C222.916 459.328 231.132 455.452 238.389 452.033C250.803 446.182 261.517 441.119 266.19 448.139C270.35 454.379 270.208 466.708 265.867 477.441C262.248 486.369 252.513 502.155 227.931 507.493C225.813 507.949 223.723 508.168 221.681 508.168ZM259.028 452.261C255.714 452.261 247.032 456.355 241.618 458.91C233.526 462.728 225.157 466.67 217.882 467.8C213.418 468.493 209.533 471.01 206.949 474.895C204.271 478.923 203.368 483.805 204.48 488.297C206.645 497.093 216.239 502.269 226.307 500.075C247.469 495.478 255.761 482.142 258.81 474.601C262.875 464.561 261.868 455.471 259.893 452.413C259.674 452.308 259.38 452.261 259.028 452.261Z" fill="#FF6B9A"/>
    <path d="M209.78 484.783C209.59 484.783 209.4 484.764 209.21 484.717C207.947 484.403 207.168 483.149 207.462 481.877C207.538 481.563 209.409 474.069 218.965 470.821C220.199 470.403 221.558 471.067 221.976 472.302C222.393 473.547 221.729 474.895 220.494 475.313C213.522 477.678 212.135 482.769 212.078 482.988C211.803 484.071 210.834 484.783 209.78 484.783Z" fill="white"/>
    <path d="M133.651 426.273C136.595 417.915 165.204 429.921 181.361 428.373C193.49 427.204 203.492 437.377 203.577 448.68C203.663 459.983 193.842 468.873 181.665 469.31C142.617 470.678 129.899 436.93 133.651 426.273Z" fill="#FCAFC5"/>
    <path d="M179.328 473.138C155.772 473.138 143.13 460.838 137.612 453.334C130.754 443.997 127.572 432.096 130.06 425.01C132.853 417.07 144.488 419.321 157.957 421.933C165.831 423.462 174.75 425.181 180.99 424.583C187.639 423.946 194.089 426.112 199.151 430.681C204.318 435.344 207.31 441.889 207.367 448.642C207.462 461.845 196.226 472.578 181.788 473.091C180.962 473.119 180.136 473.138 179.328 473.138ZM137.213 427.594C136.054 431.042 137.317 440.103 143.738 448.822C148.563 455.376 159.885 466.271 181.522 465.492C191.818 465.122 199.835 457.741 199.769 448.689C199.731 444.064 197.66 439.552 194.07 436.313C190.603 433.188 186.214 431.706 181.722 432.134C174.399 432.837 165.309 431.08 156.523 429.379C150.026 428.135 139.198 426.036 137.213 427.594Z" fill="#FF6B9A"/>
    <path d="M139.283 423.319C139.283 423.319 156.713 473.423 202.932 453.686C202.932 453.686 195.38 482.494 155.592 463.868C155.592 463.877 120.581 441.252 139.283 423.319Z" fill="#FD94B3"/>
    <path d="M179.328 473.138C155.772 473.138 143.13 460.838 137.612 453.334C130.754 443.997 127.572 432.096 130.06 425.01C132.853 417.07 144.488 419.321 157.957 421.933C165.831 423.462 174.75 425.181 180.99 424.583C187.639 423.946 194.089 426.112 199.151 430.681C204.318 435.344 207.31 441.889 207.367 448.642C207.462 461.845 196.226 472.578 181.788 473.091C180.962 473.119 180.136 473.138 179.328 473.138ZM137.213 427.594C136.054 431.042 137.317 440.103 143.738 448.822C148.563 455.376 159.885 466.271 181.522 465.492C191.818 465.122 199.835 457.741 199.769 448.689C199.731 444.064 197.66 439.552 194.07 436.313C190.603 433.188 186.214 431.706 181.722 432.134C174.399 432.837 165.309 431.08 156.523 429.379C150.026 428.135 139.198 426.036 137.213 427.594Z" fill="#FF6B9A"/>
    <path d="M193.186 446.695C192.341 446.695 191.515 446.239 191.087 445.441C190.964 445.213 188.352 440.654 181.038 440.084C179.727 439.98 178.758 438.84 178.853 437.529C178.958 436.218 180.107 435.23 181.408 435.344C191.467 436.133 195.133 442.933 195.285 443.218C195.893 444.377 195.447 445.811 194.279 446.419C193.937 446.609 193.557 446.695 193.186 446.695Z" fill="white"/>
    <path d="M290.559 335.738C290.559 353.928 279.289 365.378 265.389 365.378C251.489 365.378 240.219 353.928 240.219 335.738C240.219 317.548 246.809 299.508 260.709 299.508C274.609 299.508 290.559 317.548 290.559 335.738Z" fill="#713D15"/>
    <path d="M280.869 326.808C283.989 326.808 286.519 324.278 286.519 321.158C286.519 318.037 283.989 315.508 280.869 315.508C277.749 315.508 275.219 318.037 275.219 321.158C275.219 324.278 277.749 326.808 280.869 326.808Z" fill="white"/>
    <path d="M259.691 357.949C266.204 357.257 270.624 348.597 269.562 338.607C268.5 328.617 262.359 321.08 255.846 321.773C249.332 322.465 244.913 331.125 245.975 341.114C247.037 351.104 253.178 358.641 259.691 357.949Z" fill="white"/>
    <path d="M104.219 335.738C104.219 353.928 115.489 365.378 129.389 365.378C143.289 365.378 154.559 353.928 154.559 335.738C154.559 317.548 147.969 299.508 134.069 299.508C120.169 299.508 104.219 317.548 104.219 335.738Z" fill="#713D15"/>
    <path d="M113.869 326.808C116.99 326.808 119.519 324.278 119.519 321.158C119.519 318.037 116.99 315.508 113.869 315.508C110.749 315.508 108.219 318.037 108.219 321.158C108.219 324.278 110.749 326.808 113.869 326.808Z" fill="white"/>
    <path d="M148.801 341.112C149.863 331.122 145.443 322.463 138.93 321.77C132.416 321.078 126.275 328.615 125.213 338.605C124.152 348.595 128.571 357.254 135.084 357.947C141.598 358.639 147.739 351.102 148.801 341.112Z" fill="white"/>
    <defs>
        <filter id="filter0_i_1_217" x="139.719" y="398.008" width="120.999" height="97.9021" filterUnits="userSpaceOnUse" color-interpolation-filters="sRGB">
            <feFlood flood-opacity="0" result="BackgroundImageFix"/>
            <feBlend mode="normal" in="SourceGraphic" in2="BackgroundImageFix" result="shape"/>
            <feColorMatrix in="SourceAlpha" type="matrix" values="0 0 0 0 0 0 0 0 0 0 0 0 0 0 0 0 0 0 127 0" result="hardAlpha"/>
            <feOffset dy="4"/>
            <feGaussianBlur stdDeviation="10"/>
            <feComposite in2="hardAlpha" operator="arithmetic" k2="-1" k3="1"/>
            <feColorMatrix type="matrix" values="0 0 0 0 0.847059 0 0 0 0 0.203922 0 0 0 0 0.407843 0 0 0 1 0"/>
            <feBlend mode="normal" in2="shape" result="effect1_innerShadow_1_217"/>
        </filter>
    </defs>
</svg>
