<svg width="502" height="472" viewBox="0 0 502 472" fill="none" xmlns="http://www.w3.org/2000/svg">
    <path d="M475.38 100.053L464.59 178.333L459.32 216.523L427.3 448.823C389.42 459.073 324.59 465.823 250.99 465.823C177.39 465.823 112.56 459.073 74.6801 448.823L42.6601 216.523L37.3901 178.333L26.6001 100.053H475.38V100.053Z" fill="#EC7131"/>
    <path d="M250.99 471.253C179.49 471.253 113.05 464.833 73.2699 454.063C72.2414 453.784 71.3178 453.208 70.6137 452.408C69.9097 451.608 69.4563 450.619 69.3099 449.563L21.2299 100.793C21.0199 99.2431 21.4799 97.673 22.5199 96.493C23.0294 95.9091 23.658 95.4409 24.3634 95.1201C25.0689 94.7993 25.8349 94.6332 26.6099 94.6331H475.38C476.155 94.633 476.92 94.7987 477.626 95.1192C478.331 95.4396 478.96 95.9073 479.469 96.4908C479.979 97.0743 480.358 97.7601 480.58 98.5022C480.803 99.2443 480.864 100.025 480.76 100.793L432.68 449.563C432.534 450.619 432.08 451.608 431.376 452.408C430.672 453.208 429.748 453.784 428.72 454.063C388.94 464.823 322.5 471.253 250.99 471.253V471.253ZM79.5699 444.493C118.83 454.473 182.45 460.393 251 460.393C319.55 460.393 383.17 454.473 422.43 444.493L469.16 105.483H32.8299L79.5699 444.493V444.493Z" fill="#724526"/>
    <path d="M250.99 93.442C386.167 93.442 495.75 73.756 495.75 49.472C495.75 25.188 386.167 5.50195 250.99 5.50195C115.813 5.50195 6.22998 25.19 6.22998 49.472C6.22998 73.756 115.813 93.442 250.99 93.442V93.442Z" fill="#EC7131"/>
    <path d="M250.99 98.862C185.3 98.862 123.49 94.262 76.9601 85.902C25.7201 76.692 0.810059 64.782 0.810059 49.473C0.810059 34.163 25.7201 22.243 76.9601 13.043C123.49 4.68301 185.3 0.0830078 250.99 0.0830078C316.68 0.0830078 378.49 4.68301 425.02 13.043C476.26 22.243 501.17 34.163 501.17 49.473C501.17 64.783 476.26 76.693 425.02 85.903C378.49 94.263 316.68 98.863 250.99 98.863V98.862ZM250.99 10.922C185.92 10.922 124.79 15.462 78.8701 23.712C12.4101 35.652 11.6501 48.912 11.6501 49.462C11.6501 50.022 12.4101 63.272 78.8701 75.212C124.79 83.462 185.92 88.002 250.99 88.002C316.06 88.002 377.18 83.462 423.11 75.212C489.57 63.272 490.33 50.022 490.33 49.462C490.33 48.902 489.57 35.642 423.11 23.712C377.19 15.462 316.06 10.922 250.99 10.922V10.922Z" fill="#AF4E23"/>
    <path d="M37.3999 178.333C80.2499 191.523 160.95 201.263 251 201.263C341.05 201.263 421.75 191.523 464.6 178.333L459.33 216.522C416.21 229.062 339.04 237.402 251 237.402C162.96 237.402 85.7999 229.062 42.6699 216.522L37.3999 178.333V178.333Z" fill="#E2570E"/>
    <path d="M15.79 94.692C15.79 94.692 41.56 22.202 136.46 60.642C136.46 60.642 190.35 9.84202 260.65 40.872C260.65 40.872 316.89 7.64202 373.12 39.772C373.12 39.772 482.08 27.692 475.05 82.602C468.02 137.523 15.79 94.692 15.79 94.692V94.692Z" fill="#664435"/>
    <path d="M316.46 116.022C294.05 116.022 269.4 115.572 242.6 114.662C129.8 110.852 16.41 100.192 15.28 100.092C14.4579 100.015 13.6643 99.751 12.9604 99.3193C12.2565 98.8876 11.6611 98.3001 11.22 97.602C10.776 96.9067 10.4965 96.1192 10.4029 95.2995C10.3093 94.4798 10.4041 93.6495 10.68 92.872C11.09 91.712 21.09 64.402 50.83 51.042C74.13 40.572 102.57 41.702 135.4 54.382C140.51 50.152 152.74 40.992 170.2 34.072C191.01 25.822 223.37 19.402 260.36 34.842C272.09 28.692 322.57 5.66199 374.29 34.202C385.72 33.132 446.86 28.692 470.87 53.112C478.75 61.132 481.97 71.282 480.43 83.292C478.4 99.132 453.09 108.592 400.79 113.062C377.77 115.042 349.56 116.022 316.46 116.022V116.022ZM24.06 90.002C51.51 92.452 147.49 100.612 243.01 103.832C308.94 106.052 361.72 105.532 399.88 102.272C462.91 96.882 469.23 85.342 469.67 81.932C470.78 73.272 468.64 66.332 463.14 60.742C440.85 38.062 374.39 45.112 373.72 45.182C372.58 45.312 371.43 45.072 370.43 44.502C317.7 14.372 263.94 45.252 263.4 45.562C261.89 46.442 260.05 46.552 258.46 45.852C230.82 33.652 202.6 33.032 174.57 44.032C153.42 52.332 140.31 64.492 140.18 64.612C139.424 65.3217 138.482 65.8005 137.463 65.9919C136.444 66.1832 135.392 66.0792 134.43 65.692C103.22 53.052 76.65 51.432 55.44 60.892C38.22 68.552 28.55 81.992 24.06 90.002V90.002Z" fill="#4C291B"/>
    <path d="M250.99 471.253C179.49 471.253 113.05 464.833 73.2699 454.063C72.2414 453.784 71.3178 453.208 70.6137 452.408C69.9097 451.608 69.4563 450.619 69.3099 449.563L21.2299 100.793C21.0199 99.2431 21.4799 97.673 22.5199 96.493C23.0294 95.9091 23.658 95.4409 24.3634 95.1201C25.0689 94.7993 25.8349 94.6332 26.6099 94.6331H475.38C476.155 94.633 476.92 94.7987 477.626 95.1192C478.331 95.4396 478.96 95.9073 479.469 96.4908C479.979 97.0743 480.358 97.7601 480.58 98.5022C480.803 99.2443 480.864 100.025 480.76 100.793L432.68 449.563C432.534 450.619 432.08 451.608 431.376 452.408C430.672 453.208 429.748 453.784 428.72 454.063C388.94 464.823 322.5 471.253 250.99 471.253V471.253ZM79.5699 444.493C118.83 454.473 182.45 460.393 251 460.393C319.55 460.393 383.17 454.473 422.43 444.493L469.16 105.483H32.8299L79.5699 444.493V444.493Z" fill="#AF4E23"/>
    <path d="M201.25 113.713C201.25 113.713 201.25 64.9829 267.46 77.6529C267.46 77.6529 333.67 33.9029 379.19 108.983L201.25 113.713Z" fill="#664435"/>
    <path d="M201.25 119.133C199.84 119.133 198.48 118.583 197.46 117.593C196.94 117.088 196.527 116.483 196.245 115.814C195.964 115.146 195.819 114.428 195.82 113.703C195.82 112.903 196 93.9731 211.47 81.1831C224 70.8231 242.47 67.7131 266.4 71.9331C273.48 67.7931 298.77 54.8131 327.8 61.3331C349.97 66.3131 368.82 81.3931 383.84 106.163C384.332 106.976 384.602 107.903 384.623 108.852C384.644 109.802 384.415 110.74 383.959 111.574C383.504 112.407 382.837 113.106 382.027 113.601C381.216 114.096 380.289 114.369 379.34 114.393L201.4 119.123C201.35 119.133 201.3 119.133 201.25 119.133V119.133ZM247.05 80.9531C234.91 80.9531 225.32 83.8231 218.39 89.5531C211.35 95.3731 208.54 103.003 207.42 108.113L369.32 103.813C356.94 86.4431 342.24 75.7331 325.53 71.9531C296.52 65.3831 270.71 82.0131 270.45 82.1831C269.269 82.9543 267.837 83.2408 266.45 82.9831C259.39 81.6231 252.92 80.9531 247.05 80.9531V80.9531Z" fill="#4C291B"/>
    <path d="M495.75 49.4719V157.302C495.75 163.932 487.59 170.212 472.96 175.852C434.01 190.862 349.27 201.262 250.99 201.262C152.71 201.262 67.97 190.862 29.01 175.852C14.39 170.212 6.21997 163.932 6.21997 157.302V49.4719C6.21997 73.7519 115.8 93.4419 250.98 93.4419C386.16 93.4419 495.75 73.7519 495.75 49.4719V49.4719Z" fill="#EC7131"/>
    <path d="M250.99 206.692C155.6 206.692 67.7 196.572 27.06 180.912C9.39005 174.092 0.800049 166.372 0.800049 157.292V49.472C0.800049 46.472 3.23005 44.042 6.23005 44.042C9.23005 44.042 11.66 46.472 11.66 49.472C11.66 50.032 12.42 63.282 78.88 75.222C124.8 83.472 185.93 88.012 251 88.012C316.07 88.012 377.19 83.472 423.12 75.222C489.58 63.282 490.34 50.032 490.34 49.472C490.34 46.472 492.77 44.042 495.77 44.042C498.77 44.042 501.2 46.472 501.2 49.472V157.302C501.2 166.372 492.61 174.102 474.94 180.922C434.28 196.572 346.38 206.692 250.99 206.692V206.692ZM11.65 65.472V157.292C11.65 158.302 12.58 163.692 30.96 170.782C70.4501 186.002 156.82 195.832 250.98 195.832C345.14 195.832 431.51 186.002 471 170.782C489.38 163.692 490.31 158.302 490.31 157.292V65.472C478.45 73.432 456.79 80.182 425.01 85.892C378.49 94.262 316.68 98.862 250.99 98.862C185.3 98.862 123.49 94.262 76.96 85.902C45.17 80.192 23.52 73.432 11.65 65.472V65.472Z" fill="#AF4E23"/>
    <path d="M281.35 382.183C282.45 381.243 281.52 379.443 280.12 379.853C271.8 382.263 261.75 383.643 250.91 383.583C240.34 383.533 230.53 382.133 222.36 379.763C220.94 379.353 219.99 381.213 221.16 382.103C229.88 390.123 255.88 403.973 281.35 382.183Z" fill="#9C4400"/>
    <path d="M385.05 401.923C396.95 397.303 403.84 386.473 400.44 377.733C397.05 368.993 384.65 365.663 372.75 370.283C360.85 374.903 353.96 385.733 357.36 394.473C360.76 403.213 373.15 406.543 385.05 401.923ZM144.62 394.473C148.01 385.733 141.12 374.903 129.22 370.283C117.32 365.663 104.93 368.993 101.53 377.733C98.14 386.473 105.03 397.303 116.93 401.923C128.83 406.543 141.22 403.213 144.62 394.473Z" fill="#FFAC67"/>
    <path d="M154.76 280.692C153.951 280.784 153.132 280.652 152.393 280.309C151.654 279.967 151.023 279.428 150.57 278.752C150.245 278.27 150.019 277.728 149.904 277.158C149.789 276.588 149.788 276.001 149.9 275.431C150.012 274.86 150.236 274.318 150.559 273.834C150.882 273.35 151.296 272.935 151.78 272.612C174.86 257.132 199.9 264.622 200.95 264.942C203.28 265.662 204.59 268.142 203.87 270.472C203.525 271.591 202.75 272.527 201.715 273.075C200.679 273.623 199.469 273.737 198.35 273.392C198.06 273.312 176.18 266.902 156.72 279.952C156.11 280.382 155.44 280.612 154.76 280.692V280.692ZM344.57 279.952C325.11 266.902 303.23 273.313 302.94 273.393C300.61 274.113 298.14 272.813 297.42 270.473C296.7 268.143 298 265.663 300.34 264.943C301.39 264.613 326.42 257.123 349.51 272.613C349.993 272.936 350.408 273.351 350.731 273.835C351.054 274.319 351.277 274.861 351.39 275.432C351.502 276.002 351.501 276.589 351.386 277.159C351.271 277.729 351.045 278.271 350.72 278.753C350.268 279.431 349.638 279.971 348.898 280.313C348.159 280.655 347.339 280.787 346.53 280.693C345.825 280.615 345.151 280.36 344.57 279.952V279.952Z" fill="white"/>
    <path d="M145.99 334.163C145.99 354.303 158.49 366.913 173.87 366.913C189.25 366.913 201.75 354.193 201.75 334.163C201.75 314.133 194.45 294.113 179.07 294.113C163.69 294.113 145.99 314.033 145.99 334.163Z" fill="#713D15"/>
    <path d="M156.73 349.872C157.834 349.872 158.928 349.654 159.948 349.232C160.969 348.809 161.896 348.19 162.677 347.409C163.458 346.628 164.077 345.701 164.5 344.68C164.923 343.66 165.14 342.566 165.14 341.462C165.14 339.231 164.254 337.092 162.677 335.515C161.1 333.938 158.961 333.052 156.73 333.052C154.5 333.052 152.36 333.938 150.783 335.515C149.206 337.092 148.32 339.231 148.32 341.462C148.32 346.112 152.08 349.872 156.73 349.872ZM195.33 321.322C196.62 310.892 191.81 301.712 184.6 300.822C177.38 299.932 170.49 307.662 169.2 318.092C167.91 328.522 172.72 337.702 179.93 338.592C187.14 339.482 194.05 331.752 195.33 321.322Z" fill="white"/>
    <path d="M319.14 294.113C303.76 294.113 296.46 314.133 296.46 334.163C296.46 354.193 308.96 366.913 324.34 366.913C339.72 366.913 352.22 354.303 352.22 334.163C352.22 314.033 334.51 294.113 319.14 294.113Z" fill="#713D15"/>
    <path d="M349.89 341.462C349.89 340.358 349.672 339.264 349.25 338.244C348.827 337.223 348.208 336.296 347.427 335.515C346.646 334.734 345.719 334.115 344.698 333.692C343.678 333.269 342.584 333.052 341.48 333.052C336.83 333.052 333.07 336.812 333.07 341.462C333.07 342.566 333.287 343.66 333.71 344.68C334.133 345.701 334.752 346.628 335.533 347.409C336.314 348.19 337.241 348.809 338.262 349.232C339.282 349.654 340.376 349.872 341.48 349.872C346.13 349.872 349.89 346.112 349.89 341.462ZM318.27 338.592C325.49 337.702 330.29 328.522 329 318.092C327.71 307.662 320.82 299.932 313.6 300.822C306.38 301.712 301.58 310.892 302.87 321.322C304.16 331.752 311.06 339.482 318.27 338.592Z" fill="white"/>
</svg>
