<svg width="501" height="472" viewBox="0 0 501 472" fill="none" xmlns="http://www.w3.org/2000/svg">
    <path d="M475.18 100.613L464.39 178.893L459.12 217.083L427.1 449.383C389.22 459.633 324.39 466.383 250.79 466.383C177.19 466.383 112.36 459.633 74.48 449.383L42.46 217.083L37.19 178.893L26.4 100.613H475.18V100.613Z" fill="#FCAFC5"/>
    <path d="M250.79 471.813C179.29 471.813 112.85 465.393 73.0699 454.623C72.0415 454.344 71.1178 453.768 70.4138 452.968C69.7097 452.168 69.2563 451.179 69.1099 450.123L21.0299 101.353C20.8199 99.8031 21.2799 98.2331 22.3199 97.0531C22.8294 96.4691 23.458 96.001 24.1635 95.6801C24.869 95.3593 25.6349 95.1933 26.4099 95.1931H475.18C475.955 95.1931 476.72 95.3588 477.426 95.6792C478.131 95.9997 478.76 96.4673 479.269 97.0509C479.779 97.6344 480.158 98.3202 480.38 99.0623C480.603 99.8043 480.664 100.585 480.56 101.353L432.48 450.123C432.334 451.179 431.88 452.168 431.176 452.968C430.472 453.768 429.548 454.344 428.52 454.623C388.74 465.383 322.3 471.813 250.79 471.813V471.813ZM79.3699 445.053C118.63 455.033 182.25 460.953 250.8 460.953C319.35 460.953 382.97 455.033 422.23 445.053L468.96 106.043H32.6299L79.3699 445.053Z" fill="#724526"/>
    <path d="M250.791 94.003C385.968 94.003 495.551 74.317 495.551 50.033C495.551 25.749 385.968 6.06299 250.791 6.06299C115.613 6.06299 6.03101 25.749 6.03101 50.033C6.03101 74.317 115.613 94.003 250.791 94.003Z" fill="#FCAFC5"/>
    <path d="M250.79 99.4231C185.1 99.4231 123.29 94.8231 76.76 86.4631C25.52 77.2531 0.609985 65.3431 0.609985 50.0331C0.609985 34.7231 25.52 22.8031 76.76 13.6031C123.29 5.24307 185.1 0.643066 250.79 0.643066C316.48 0.643066 378.29 5.24307 424.82 13.6031C476.06 22.8031 500.97 34.7231 500.97 50.0331C500.97 65.3431 476.06 77.2531 424.82 86.4631C378.29 94.8231 316.48 99.4231 250.79 99.4231V99.4231ZM250.79 11.4831C185.72 11.4831 124.59 16.0231 78.67 24.2731C12.21 36.2131 11.45 49.4731 11.45 50.0231C11.45 50.5831 12.21 63.8331 78.67 75.7731C124.59 84.0231 185.72 88.5631 250.79 88.5631C315.86 88.5631 376.98 84.0231 422.91 75.7731C489.37 63.8331 490.13 50.5831 490.13 50.0231C490.13 49.4631 489.37 36.2031 422.91 24.2731C376.99 16.0231 315.86 11.4831 250.79 11.4831V11.4831Z" fill="#FF6B9A"/>
    <path d="M37.2 178.893C80.0499 192.083 160.75 201.823 250.8 201.823C340.85 201.823 421.55 192.083 464.4 178.893L459.13 217.083C416.01 229.623 338.84 237.963 250.8 237.963C162.76 237.963 85.6 229.623 42.47 217.083L37.2 178.893V178.893Z" fill="#FD94B3"/>
    <path d="M15.59 95.2531C15.59 95.2531 41.36 22.7631 136.26 61.2031C136.26 61.2031 190.15 10.4031 260.45 41.4331C260.45 41.4331 316.69 8.20305 372.92 40.3331C372.92 40.3331 481.88 28.2531 474.85 83.1631C467.82 138.083 15.59 95.2531 15.59 95.2531V95.2531Z" fill="#664435"/>
    <path d="M316.26 116.583C293.85 116.583 269.2 116.133 242.4 115.223C129.6 111.413 16.21 100.753 15.08 100.653C14.2578 100.576 13.4643 100.312 12.7604 99.8801C12.0566 99.4484 11.4611 98.861 11.02 98.163C10.5759 97.4677 10.2964 96.6802 10.2028 95.8605C10.1092 95.0408 10.204 94.2105 10.48 93.433C10.89 92.273 20.89 64.963 50.63 51.603C73.93 41.133 102.371 42.263 135.201 54.943C140.311 50.713 152.541 41.553 170.001 34.633C190.811 26.383 223.171 19.963 260.161 35.403C271.891 29.253 322.37 6.22303 374.09 34.763C385.52 33.693 446.661 29.253 470.671 53.673C478.551 61.693 481.77 71.843 480.23 83.853C478.2 99.693 452.89 109.153 400.59 113.623C377.57 115.603 349.36 116.583 316.26 116.583ZM23.86 90.563C51.31 93.013 147.291 101.173 242.811 104.393C308.741 106.613 361.521 106.093 399.681 102.833C462.711 97.443 469.03 85.903 469.47 82.493C470.58 73.833 468.441 66.893 462.941 61.303C440.651 38.623 374.19 45.673 373.52 45.743C372.38 45.873 371.23 45.633 370.23 45.063C317.5 14.933 263.74 45.813 263.2 46.123C261.69 47.003 259.851 47.113 258.261 46.413C230.621 34.213 202.4 33.593 174.37 44.593C153.22 52.893 140.111 65.053 139.981 65.173C139.225 65.8828 138.283 66.3616 137.264 66.5529C136.245 66.7443 135.193 66.6402 134.231 66.253C103.021 53.613 76.451 51.993 55.241 61.453C38.021 69.113 28.351 82.553 23.861 90.563H23.86Z" fill="#4C291B"/>
    <path d="M250.79 471.813C179.29 471.813 112.85 465.393 73.0699 454.623C72.0415 454.344 71.1178 453.768 70.4138 452.968C69.7097 452.168 69.2563 451.179 69.1099 450.123L21.0299 101.353C20.8199 99.8031 21.2799 98.2331 22.3199 97.0531C22.8294 96.4691 23.458 96.001 24.1635 95.6801C24.869 95.3593 25.6349 95.1933 26.4099 95.1931H475.18C475.955 95.1931 476.72 95.3588 477.426 95.6792C478.131 95.9997 478.76 96.4673 479.269 97.0509C479.779 97.6344 480.158 98.3202 480.38 99.0623C480.603 99.8043 480.664 100.585 480.56 101.353L432.48 450.123C432.334 451.179 431.88 452.168 431.176 452.968C430.472 453.768 429.548 454.344 428.52 454.623C388.74 465.383 322.3 471.813 250.79 471.813V471.813ZM79.3699 445.053C118.63 455.033 182.25 460.953 250.8 460.953C319.35 460.953 382.97 455.033 422.23 445.053L468.96 106.043H32.6299L79.3699 445.053Z" fill="#FF6B9A"/>
    <path d="M201.051 114.273C201.051 114.273 201.05 65.543 267.26 78.213C267.26 78.213 333.471 34.463 378.991 109.543L201.051 114.273Z" fill="#664435"/>
    <path d="M201.051 119.693C199.641 119.693 198.28 119.143 197.26 118.153C196.74 117.647 196.327 117.043 196.045 116.374C195.764 115.706 195.619 114.988 195.62 114.263C195.62 113.463 195.801 94.5329 211.271 81.7429C223.801 71.3829 242.27 68.2729 266.2 72.4929C273.28 68.3529 298.57 55.3729 327.6 61.8929C349.77 66.8729 368.62 81.9529 383.64 106.723C384.132 107.535 384.402 108.463 384.423 109.412C384.444 110.362 384.215 111.3 383.759 112.133C383.304 112.967 382.637 113.666 381.826 114.16C381.016 114.655 380.089 114.929 379.14 114.953L201.201 119.683C201.151 119.693 201.101 119.693 201.051 119.693V119.693ZM246.85 81.5129C234.71 81.5129 225.12 84.3829 218.19 90.1129C211.15 95.9329 208.34 103.563 207.22 108.673L369.121 104.373C356.741 87.0029 342.04 76.2929 325.33 72.5129C296.32 65.9429 270.511 82.5729 270.251 82.7429C269.07 83.5141 267.638 83.8006 266.251 83.5429C259.191 82.1829 252.72 81.5129 246.85 81.5129V81.5129Z" fill="#4C291B"/>
    <path d="M495.551 50.033V157.863C495.551 164.493 487.39 170.773 472.76 176.413C433.81 191.423 349.071 201.823 250.791 201.823C152.511 201.823 67.771 191.423 28.811 176.413C14.191 170.773 6.021 164.493 6.021 157.863V50.033C6.021 74.313 115.601 94.003 250.781 94.003C385.96 94.003 495.551 74.313 495.551 50.033V50.033Z" fill="#FCAFC5"/>
    <path d="M250.79 207.253C155.4 207.253 67.5 197.133 26.86 181.473C9.18998 174.653 0.599976 166.933 0.599976 157.853V50.033C0.599976 47.033 3.02998 44.603 6.02998 44.603C9.02998 44.603 11.46 47.033 11.46 50.033C11.46 50.593 12.22 63.843 78.68 75.783C124.6 84.033 185.73 88.573 250.8 88.573C315.87 88.573 376.99 84.033 422.92 75.783C489.38 63.843 490.14 50.593 490.14 50.033C490.14 47.033 492.57 44.603 495.57 44.603C498.57 44.603 501 47.033 501 50.033V157.863C501 166.933 492.41 174.663 474.74 181.483C434.08 197.133 346.18 207.253 250.79 207.253V207.253ZM11.45 66.033V157.853C11.45 158.863 12.38 164.253 30.76 171.343C70.25 186.563 156.62 196.393 250.78 196.393C344.94 196.393 431.31 186.563 470.8 171.343C489.18 164.253 490.11 158.863 490.11 157.853V66.033C478.25 73.993 456.59 80.743 424.81 86.453C378.29 94.823 316.48 99.423 250.79 99.423C185.1 99.423 123.29 94.823 76.76 86.463C44.97 80.753 23.32 73.993 11.45 66.033V66.033Z" fill="#FF6B9A"/>
    <path d="M384.851 397.623C396.751 393.003 403.641 382.173 400.241 373.433C396.851 364.693 384.451 361.363 372.551 365.983C360.651 370.603 353.761 381.433 357.161 390.173C360.561 398.913 372.951 402.243 384.851 397.623ZM144.42 390.173C147.81 381.433 140.92 370.603 129.02 365.983C117.12 361.363 104.73 364.693 101.33 373.433C97.94 382.173 104.83 393.003 116.73 397.623C128.63 402.243 141.02 398.913 144.42 390.173Z" fill="#FD94B3"/>
    <path d="M277.881 380.963C277.881 390.093 265.91 397.483 251.13 397.483C236.36 397.483 224.38 390.093 224.38 380.963C224.38 380.583 224.401 380.193 224.451 379.813C224.591 378.563 225.94 377.953 227.13 378.353C233.73 380.593 242.061 381.923 251.141 381.923C260.211 381.923 268.55 380.593 275.15 378.353C276.34 377.953 277.69 378.563 277.83 379.813C277.86 380.203 277.881 380.583 277.881 380.963Z" fill="#9C4400"/>
    <path d="M153.581 273.833C151.981 273.833 150.431 272.963 149.641 271.433C148.521 269.263 149.361 266.583 151.541 265.473C176.231 252.713 200.251 263.003 201.261 263.453C203.491 264.433 204.511 267.053 203.531 269.283C203.06 270.356 202.182 271.197 201.091 271.623C200 272.048 198.784 272.023 197.711 271.553C197.431 271.443 176.421 262.583 155.601 273.333C154.951 273.673 154.251 273.833 153.581 273.833ZM347.49 273.833C346.8 273.833 346.11 273.683 345.47 273.333C324.48 262.493 303.58 271.453 303.37 271.543C302.301 271.985 301.102 271.99 300.029 271.559C298.956 271.127 298.095 270.293 297.629 269.234C297.164 268.175 297.132 266.976 297.539 265.894C297.947 264.812 298.762 263.932 299.81 263.443C300.82 263.003 324.82 252.713 349.53 265.463C350.572 266.002 351.357 266.932 351.714 268.05C352.07 269.167 351.968 270.381 351.43 271.423C351.056 272.146 350.491 272.753 349.796 273.178C349.102 273.603 348.304 273.829 347.49 273.833V273.833Z" fill="white"/>
    <path d="M351.981 329.863C351.981 349.983 339.511 362.653 324.131 362.653C308.751 362.653 296.281 349.983 296.281 329.863C296.281 309.743 303.571 289.783 318.951 289.783C334.331 289.783 351.981 309.733 351.981 329.863Z" fill="#713D15"/>
    <path d="M341.26 319.983C344.71 319.983 347.51 317.183 347.51 313.733C347.51 310.283 344.71 307.483 341.26 307.483C337.81 307.483 335.01 310.283 335.01 313.733C335.01 317.183 337.81 319.983 341.26 319.983ZM317.83 354.433C325.04 353.663 329.931 344.083 328.751 333.033C327.581 321.983 320.78 313.643 313.58 314.413C306.37 315.183 301.481 324.763 302.661 335.813C303.831 346.863 310.63 355.203 317.83 354.433Z" fill="white"/>
    <path d="M145.831 329.863C145.831 349.983 158.301 362.653 173.681 362.653C189.061 362.653 201.531 349.983 201.531 329.863C201.531 309.743 194.241 289.783 178.861 289.783C163.471 289.783 145.831 309.733 145.831 329.863Z" fill="#713D15"/>
    <path d="M156.5 319.983C159.95 319.983 162.75 317.183 162.75 313.733C162.75 310.283 159.95 307.483 156.5 307.483C153.05 307.483 150.25 310.283 150.25 313.733C150.25 317.183 153.05 319.983 156.5 319.983ZM195.15 335.803C196.32 324.753 191.431 315.173 184.231 314.403C177.021 313.633 170.231 321.973 169.051 333.033C167.881 344.083 172.771 353.663 179.97 354.433C187.181 355.193 193.97 346.863 195.15 335.803Z" fill="white"/>
</svg>
