<svg width="501" height="473" viewBox="0 0 501 473" fill="none" xmlns="http://www.w3.org/2000/svg">
    <path d="M474.914 100.948L464.124 179.228L458.854 217.418L426.834 449.718C388.954 459.968 324.124 466.718 250.524 466.718C176.924 466.718 112.094 459.968 74.214 449.718L42.194 217.418L36.924 179.228L26.134 100.948H474.914V100.948Z" fill="#B8EDFD"/>
    <path d="M250.524 472.148C179.024 472.148 112.584 465.728 72.804 454.958C71.7755 454.679 70.8518 454.103 70.1478 453.303C69.4437 452.503 68.9903 451.514 68.844 450.458L20.764 101.688C20.554 100.138 21.014 98.5681 22.054 97.3881C22.5634 96.8041 23.192 96.3359 23.8975 96.0151C24.603 95.6943 25.369 95.5282 26.1439 95.5281H474.914C475.689 95.528 476.454 95.6938 477.16 96.0142C477.865 96.3346 478.494 96.8023 479.003 97.3858C479.513 97.9693 479.892 98.6552 480.114 99.3972C480.337 100.139 480.398 100.92 480.294 101.688L432.214 450.458C432.068 451.514 431.614 452.503 430.91 453.303C430.206 454.103 429.282 454.679 428.254 454.958C388.474 465.718 322.034 472.148 250.524 472.148V472.148ZM79.1039 445.388C118.364 455.368 181.984 461.288 250.534 461.288C319.084 461.288 382.704 455.368 421.964 445.388L468.694 106.378H32.3639L79.1039 445.388V445.388Z" fill="#724526"/>
    <path d="M250.524 94.3379C385.701 94.3379 495.284 74.651 495.284 50.368C495.284 26.083 385.701 6.39795 250.524 6.39795C115.347 6.39795 5.76404 26.083 5.76404 50.367C5.76404 74.65 115.347 94.3369 250.524 94.3369V94.3379Z" fill="#B8EDFD"/>
    <path d="M250.524 99.7571C184.834 99.7571 123.024 95.1571 76.494 86.7971C25.254 77.5871 0.343994 65.6771 0.343994 50.3671C0.343994 35.057 25.254 23.1371 76.494 13.9371C123.024 5.57705 184.834 0.977051 250.524 0.977051C316.214 0.977051 378.024 5.57705 424.554 13.9371C475.794 23.1371 500.704 35.057 500.704 50.3671C500.704 65.6771 475.794 77.5871 424.554 86.7971C378.024 95.1571 316.214 99.7571 250.524 99.7571V99.7571ZM250.524 11.8171C185.454 11.8171 124.324 16.3571 78.404 24.6071C11.944 36.5471 11.184 49.807 11.184 50.357C11.184 50.917 11.944 64.1671 78.404 76.1071C124.324 84.3571 185.454 88.8971 250.524 88.8971C315.594 88.8971 376.714 84.3571 422.644 76.1071C489.104 64.1671 489.864 50.917 489.864 50.357C489.864 49.797 489.104 36.5371 422.644 24.6071C376.724 16.3571 315.594 11.8171 250.524 11.8171V11.8171Z" fill="#98C9E6"/>
    <path d="M36.934 179.228C79.784 192.418 160.484 202.158 250.534 202.158C340.584 202.158 421.284 192.418 464.134 179.228L458.864 217.418C415.744 229.958 338.574 238.298 250.534 238.298C162.494 238.298 85.334 229.958 42.204 217.418L36.934 179.228V179.228Z" fill="#9CE4FD"/>
    <path d="M15.324 95.588C15.324 95.588 41.094 23.098 135.994 61.538C135.994 61.538 189.884 10.738 260.184 41.768C260.184 41.768 316.424 8.53801 372.654 40.668C372.654 40.668 481.614 28.588 474.584 83.498C467.554 138.418 15.324 95.588 15.324 95.588V95.588Z" fill="#664435"/>
    <path d="M315.994 116.917C293.584 116.917 268.934 116.467 242.134 115.557C129.334 111.747 15.944 101.087 14.814 100.987C13.9919 100.91 13.1984 100.646 12.4945 100.214C11.7906 99.7824 11.1952 99.195 10.754 98.497C9.85403 97.087 9.65403 95.337 10.214 93.767C10.624 92.607 20.624 65.297 50.364 51.937C73.664 41.467 102.104 42.597 134.934 55.277C140.044 51.047 152.274 41.887 169.734 34.967C190.544 26.717 222.904 20.297 259.894 35.737C271.624 29.587 322.104 6.55701 373.824 35.097C385.254 34.027 446.394 29.587 470.404 54.007C478.284 62.027 481.504 72.177 479.964 84.187C477.934 100.028 452.624 109.487 400.324 113.957C377.304 115.937 349.094 116.917 315.994 116.917ZM23.594 90.897C51.044 93.347 147.024 101.508 242.544 104.728C308.474 106.948 361.254 106.427 399.414 103.167C462.444 97.777 468.764 86.237 469.204 82.827C470.314 74.167 468.174 67.227 462.674 61.637C440.384 38.957 373.924 46.007 373.254 46.077C372.114 46.207 370.964 45.967 369.964 45.397C317.234 15.267 263.474 46.147 262.934 46.457C261.424 47.337 259.584 47.447 257.994 46.747C230.354 34.547 202.134 33.927 174.104 44.927C152.954 53.227 139.844 65.387 139.714 65.507C138.958 66.2167 138.016 66.6955 136.997 66.8869C135.978 67.0783 134.926 66.9742 133.964 66.587C102.754 53.947 76.184 52.327 54.974 61.787C37.754 69.447 28.084 82.887 23.594 90.897V90.897Z" fill="#4C291B"/>
    <path d="M250.524 472.148C179.024 472.148 112.584 465.728 72.804 454.958C71.7755 454.679 70.8518 454.103 70.1478 453.303C69.4437 452.503 68.9903 451.514 68.844 450.458L20.764 101.688C20.554 100.138 21.014 98.5681 22.054 97.3881C22.5634 96.8041 23.192 96.3359 23.8975 96.0151C24.603 95.6943 25.369 95.5282 26.1439 95.5281H474.914C475.689 95.528 476.454 95.6938 477.16 96.0142C477.865 96.3346 478.494 96.8023 479.003 97.3858C479.513 97.9693 479.892 98.6552 480.114 99.3972C480.337 100.139 480.398 100.92 480.294 101.688L432.214 450.458C432.068 451.514 431.614 452.503 430.91 453.303C430.206 454.103 429.282 454.679 428.254 454.958C388.474 465.718 322.034 472.148 250.524 472.148V472.148ZM79.1039 445.388C118.364 455.368 181.984 461.288 250.534 461.288C319.084 461.288 382.704 455.368 421.964 445.388L468.694 106.378H32.3639L79.1039 445.388V445.388Z" fill="#98C9E6"/>
    <path d="M200.784 114.608C200.784 114.608 200.784 65.8779 266.994 78.5479C266.994 78.5479 333.204 34.7979 378.724 109.878L200.784 114.608Z" fill="#664435"/>
    <path d="M200.784 120.028C199.374 120.028 198.014 119.478 196.994 118.488C196.474 117.983 196.061 117.378 195.779 116.71C195.498 116.041 195.353 115.323 195.354 114.598C195.354 113.798 195.534 94.8681 211.004 82.0781C223.534 71.7181 242.004 68.6081 265.934 72.8281C273.014 68.6881 298.304 55.7081 327.334 62.2281C349.504 67.2081 368.354 82.2881 383.374 107.058C383.866 107.871 384.136 108.798 384.157 109.747C384.178 110.697 383.949 111.635 383.493 112.469C383.038 113.302 382.371 114.001 381.56 114.496C380.75 114.991 379.823 115.264 378.874 115.288L200.934 120.018C200.884 120.028 200.834 120.028 200.784 120.028V120.028ZM246.584 81.8481C234.444 81.8481 224.854 84.7181 217.924 90.4481C210.884 96.2681 208.074 103.898 206.954 109.008L368.854 104.708C356.474 87.3381 341.774 76.6281 325.064 72.8481C296.054 66.2781 270.244 82.9081 269.984 83.0781C268.803 83.8493 267.371 84.1358 265.984 83.8781C258.924 82.5181 252.454 81.8481 246.584 81.8481V81.8481Z" fill="#4C291B"/>
    <path d="M495.284 50.3669V158.197C495.284 164.827 487.124 171.107 472.494 176.747C433.544 191.757 348.804 202.157 250.524 202.157C152.244 202.157 67.504 191.757 28.544 176.747C13.924 171.107 5.75403 164.827 5.75403 158.197V50.3669C5.75403 74.6469 115.334 94.3369 250.514 94.3369C385.694 94.3369 495.284 74.6469 495.284 50.3669V50.3669Z" fill="#B8EDFD"/>
    <path d="M250.524 207.587C155.134 207.587 67.234 197.467 26.594 181.807C8.92398 174.987 0.333984 167.267 0.333984 158.188V50.368C0.333984 47.368 2.76398 44.938 5.76398 44.938C8.76398 44.938 11.194 47.368 11.194 50.368C11.194 50.928 11.954 64.178 78.414 76.118C124.334 84.368 185.464 88.908 250.534 88.908C315.604 88.908 376.724 84.368 422.654 76.118C489.114 64.178 489.874 50.928 489.874 50.368C489.874 47.368 492.304 44.938 495.304 44.938C498.304 44.938 500.734 47.368 500.734 50.368V158.198C500.734 167.268 492.144 174.998 474.474 181.818C433.814 197.468 345.914 207.587 250.524 207.587V207.587ZM11.184 66.367V158.188C11.184 159.197 12.114 164.587 30.494 171.677C69.984 186.897 156.354 196.728 250.514 196.728C344.674 196.728 431.044 186.897 470.534 171.677C488.914 164.587 489.844 159.197 489.844 158.188V66.368C477.984 74.328 456.324 81.078 424.544 86.788C378.024 95.158 316.214 99.758 250.524 99.758C184.834 99.758 123.024 95.158 76.494 86.798C44.704 81.088 23.054 74.328 11.184 66.368V66.367Z" fill="#98C9E6"/>
    <path d="M344.764 348.958C344.764 369.098 332.264 381.708 316.884 381.708C301.504 381.708 289.004 368.988 289.004 348.958C289.004 328.938 296.304 308.907 311.684 308.907C327.064 308.907 344.764 328.818 344.764 348.958Z" fill="#713D15"/>
    <path d="M334.034 364.667C335.138 364.667 336.232 364.45 337.252 364.027C338.273 363.604 339.2 362.985 339.981 362.204C340.762 361.423 341.381 360.496 341.804 359.475C342.226 358.455 342.444 357.362 342.444 356.257C342.444 351.607 338.684 347.847 334.034 347.847C331.804 347.847 329.664 348.733 328.087 350.31C326.51 351.888 325.624 354.027 325.624 356.257C325.624 360.907 329.384 364.667 334.034 364.667ZM310.834 353.487C318.054 352.597 322.854 343.417 321.564 332.987C320.274 322.557 313.384 314.827 306.164 315.717C298.944 316.607 294.144 325.787 295.434 336.217C296.724 346.637 303.614 354.377 310.834 353.487ZM346.534 286.777C345.094 286.777 343.654 286.117 342.884 284.787C342.774 284.567 327.944 262.997 305.494 266.757C303.064 267.197 300.844 265.537 300.404 263.107C299.964 260.677 301.624 258.457 304.054 258.017C332.154 253.367 349.524 278.817 350.294 279.927C351.624 281.917 351.064 284.687 349.074 286.007C348.304 286.557 347.414 286.777 346.534 286.777Z" fill="white"/>
    <path d="M377.314 409.868C389.214 405.238 396.124 394.427 392.734 385.717C389.344 377.007 376.954 373.688 365.054 378.318C353.154 382.948 346.244 393.757 349.634 402.467C353.024 411.177 365.414 414.498 377.314 409.868Z" fill="#9CE4FD"/>
    <path d="M156.244 348.958C156.244 369.098 168.744 381.708 184.124 381.708C199.504 381.708 212.004 368.988 212.004 348.958C212.004 328.938 204.704 308.907 189.324 308.907C173.944 308.907 156.244 328.818 156.244 348.958V348.958Z" fill="#713D15"/>
    <path d="M166.974 364.667C168.078 364.667 169.172 364.449 170.192 364.027C171.213 363.604 172.14 362.985 172.921 362.204C173.702 361.423 174.321 360.496 174.744 359.475C175.166 358.455 175.384 357.361 175.384 356.257C175.384 351.607 171.624 347.847 166.974 347.847C164.743 347.847 162.604 348.733 161.027 350.31C159.45 351.887 158.564 354.026 158.564 356.257C158.564 357.361 158.782 358.455 159.204 359.475C159.627 360.496 160.246 361.423 161.027 362.204C161.808 362.985 162.735 363.604 163.756 364.027C164.776 364.449 165.87 364.667 166.974 364.667V364.667Z" fill="white"/>
    <path d="M166.974 364.667C168.078 364.667 169.172 364.449 170.192 364.027C171.213 363.604 172.14 362.985 172.921 362.204C173.702 361.423 174.321 360.496 174.744 359.475C175.166 358.455 175.384 357.361 175.384 356.257C175.384 351.607 171.624 347.847 166.974 347.847C164.743 347.847 162.604 348.733 161.027 350.31C159.45 351.887 158.564 354.026 158.564 356.257C158.564 357.361 158.781 358.455 159.204 359.475C159.627 360.496 160.246 361.423 161.027 362.204C161.808 362.985 162.735 363.604 163.756 364.027C164.776 364.449 165.87 364.667 166.974 364.667V364.667ZM205.584 336.107C206.874 325.677 202.064 316.497 194.854 315.607C187.634 314.717 180.744 322.447 179.454 332.877C178.164 343.307 182.974 352.487 190.184 353.377C197.404 354.277 204.294 346.537 205.584 336.107ZM154.474 286.777C153.584 286.777 152.814 286.557 152.044 286.007C150.054 284.677 149.504 281.917 150.824 279.927C151.484 278.817 168.854 253.377 197.064 258.017C199.494 258.457 201.044 260.677 200.714 263.107C200.384 265.537 198.054 267.087 195.624 266.757C173.164 262.997 158.344 284.567 158.234 284.787C157.234 286.117 155.914 286.777 154.474 286.777V286.777Z" fill="white"/>
    <path d="M151.414 402.578C154.804 393.868 147.894 383.047 135.994 378.427C124.094 373.807 111.694 377.118 108.314 385.828C104.924 394.538 111.834 405.357 123.734 409.977C135.634 414.597 148.024 411.288 151.414 402.578Z" fill="#9CE4FD"/>
    <path d="M250.504 406.268C240.324 406.268 230.594 404.717 222.954 401.727L224.944 396.527C231.914 399.187 240.984 400.617 250.504 400.617C260.014 400.617 269.094 399.177 276.064 396.527L278.054 401.727C270.414 404.717 260.684 406.268 250.504 406.268V406.268Z" fill="#AD5317"/>
    <path d="M220.854 404.827C219.744 404.827 218.754 404.277 218.314 403.167C217.654 401.837 218.314 400.177 219.644 399.517C221.964 398.407 222.184 395.087 222.184 395.087C222.294 393.537 223.514 392.427 225.064 392.547C226.614 392.657 227.724 393.877 227.724 395.427C227.614 397.857 226.284 402.617 221.974 404.607C221.624 404.717 221.294 404.827 220.854 404.827ZM280.154 404.827C279.824 404.827 279.384 404.717 279.044 404.607C274.734 402.617 273.404 397.967 273.294 395.427C273.184 393.877 274.404 392.657 275.954 392.547C277.504 392.437 278.724 393.657 278.834 395.207C278.834 395.317 279.054 398.527 281.374 399.637C282.704 400.297 283.364 401.957 282.704 403.287C282.144 404.157 281.144 404.827 280.154 404.827Z" fill="#AD5317"/>
</svg>
