<svg width="502" height="472" viewBox="0 0 502 472" fill="none" xmlns="http://www.w3.org/2000/svg">
    <path d="M475.38 100.325L464.59 178.605L459.32 216.795L427.3 449.095C389.42 459.345 324.59 466.095 250.99 466.095C177.39 466.095 112.56 459.345 74.68 449.095L42.66 216.795L37.39 178.605L26.6 100.325H475.38V100.325Z" fill="#FFD06C"/>
    <path d="M250.99 471.525C179.49 471.525 113.05 465.105 73.27 454.335C72.2416 454.056 71.3179 453.48 70.6139 452.68C69.9098 451.88 69.4564 450.891 69.31 449.835L21.23 101.065C21.02 99.515 21.48 97.945 22.52 96.765C23.0295 96.181 23.6581 95.7129 24.3636 95.3921C25.069 95.0712 25.835 94.9052 26.61 94.905H475.38C476.155 94.905 476.921 95.0707 477.626 95.3911C478.331 95.7116 478.96 96.1793 479.469 96.7628C479.979 97.3463 480.358 98.0321 480.581 98.7742C480.803 99.5162 480.864 100.297 480.76 101.065L432.68 449.835C432.534 450.891 432.08 451.88 431.376 452.68C430.672 453.48 429.748 454.056 428.72 454.335C388.94 465.095 322.5 471.525 250.99 471.525V471.525ZM79.57 444.765C118.83 454.745 182.45 460.665 251 460.665C319.55 460.665 383.17 454.745 422.43 444.765L469.16 105.755H32.83L79.57 444.765V444.765Z" fill="#EE9D00"/>
    <path d="M250.99 93.7149C386.167 93.7149 495.75 74.0289 495.75 49.7449C495.75 25.4609 386.167 5.7749 250.99 5.7749C115.813 5.7749 6.22998 25.4609 6.22998 49.7449C6.22998 74.0289 115.813 93.7149 250.99 93.7149V93.7149Z" fill="#FFD06C"/>
    <path d="M250.99 99.135C185.3 99.135 123.49 94.535 76.96 86.175C25.72 76.965 0.809998 65.055 0.809998 49.745C0.809998 34.435 25.72 22.515 76.96 13.315C123.49 4.95498 185.3 0.35498 250.99 0.35498C316.68 0.35498 378.49 4.95498 425.02 13.315C476.26 22.515 501.17 34.435 501.17 49.745C501.17 65.055 476.26 76.965 425.02 86.175C378.49 94.535 316.68 99.135 250.99 99.135V99.135ZM250.99 11.195C185.92 11.195 124.79 15.735 78.87 23.985C12.41 35.925 11.65 49.185 11.65 49.735C11.65 50.295 12.41 63.545 78.87 75.485C124.79 83.735 185.92 88.275 250.99 88.275C316.06 88.275 377.18 83.735 423.11 75.485C489.57 63.545 490.33 50.295 490.33 49.735C490.33 49.175 489.57 35.915 423.11 23.985C377.19 15.735 316.06 11.195 250.99 11.195V11.195Z" fill="#EE9D00"/>
    <path d="M37.4 178.605C80.25 191.795 160.95 201.535 251 201.535C341.05 201.535 421.75 191.795 464.6 178.605L459.33 216.795C416.21 229.335 339.04 237.675 251 237.675C162.96 237.675 85.8 229.335 42.67 216.795L37.4 178.605V178.605Z" fill="#F9BE58"/>
    <path d="M15.79 94.965C15.79 94.965 41.56 22.475 136.46 60.915C136.46 60.915 190.35 10.115 260.65 41.145C260.65 41.145 316.89 7.91497 373.12 40.045C373.12 40.045 482.08 27.965 475.05 82.875C468.02 137.795 15.79 94.965 15.79 94.965V94.965Z" fill="#664435"/>
    <path d="M316.46 116.295C294.05 116.295 269.4 115.845 242.6 114.935C129.8 111.125 16.41 100.465 15.28 100.365C14.4579 100.288 13.6644 100.024 12.9605 99.592C12.2566 99.1603 11.6612 98.5729 11.22 97.8749C10.776 97.1796 10.4965 96.3921 10.4029 95.5724C10.3093 94.7527 10.4041 93.9225 10.68 93.1449C11.09 91.9849 21.09 64.6749 50.83 51.3149C74.13 40.8449 102.57 41.9749 135.4 54.6549C140.51 50.4249 152.74 41.2649 170.2 34.3449C191.01 26.0949 223.37 19.6749 260.36 35.1149C272.09 28.9649 322.57 5.93494 374.29 34.4749C385.72 33.4049 446.86 28.9649 470.87 53.3849C478.75 61.4049 481.97 71.5549 480.43 83.5649C478.4 99.4049 453.09 108.865 400.79 113.335C377.77 115.315 349.56 116.295 316.46 116.295V116.295ZM24.06 90.2749C51.51 92.7249 147.49 100.885 243.01 104.105C308.94 106.325 361.72 105.805 399.88 102.545C462.91 97.1549 469.23 85.6149 469.67 82.2049C470.78 73.5449 468.64 66.6049 463.14 61.0149C440.85 38.3349 374.39 45.3849 373.72 45.4549C372.58 45.5849 371.43 45.3449 370.43 44.7749C317.7 14.6449 263.94 45.5249 263.4 45.8349C261.89 46.7149 260.05 46.8249 258.46 46.1249C230.82 33.9249 202.6 33.3049 174.57 44.3049C153.42 52.6049 140.31 64.7649 140.18 64.8849C139.424 65.5947 138.482 66.0735 137.463 66.2648C136.444 66.4562 135.392 66.3521 134.43 65.9649C103.22 53.3249 76.65 51.7049 55.44 61.1649C38.22 68.8249 28.55 82.2649 24.06 90.2749V90.2749Z" fill="#4C291B"/>
    <path d="M250.99 471.525C179.49 471.525 113.05 465.105 73.27 454.335C72.2416 454.056 71.3179 453.48 70.6139 452.68C69.9098 451.88 69.4564 450.891 69.31 449.835L21.23 101.065C21.02 99.515 21.48 97.945 22.52 96.765C23.0295 96.181 23.6581 95.7129 24.3636 95.3921C25.069 95.0712 25.835 94.9052 26.61 94.905H475.38C476.155 94.905 476.921 95.0707 477.626 95.3911C478.331 95.7116 478.96 96.1793 479.469 96.7628C479.979 97.3463 480.358 98.0321 480.581 98.7742C480.803 99.5162 480.864 100.297 480.76 101.065L432.68 449.835C432.534 450.891 432.08 451.88 431.376 452.68C430.672 453.48 429.748 454.056 428.72 454.335C388.94 465.095 322.5 471.525 250.99 471.525V471.525ZM79.57 444.765C118.83 454.745 182.45 460.665 251 460.665C319.55 460.665 383.17 454.745 422.43 444.765L469.16 105.755H32.83L79.57 444.765V444.765Z" fill="#EE9D00"/>
    <path d="M201.25 113.985C201.25 113.985 201.25 65.2551 267.46 77.9251C267.46 77.9251 333.67 34.1751 379.19 109.255L201.25 113.985Z" fill="#664435"/>
    <path d="M201.25 119.405C199.84 119.405 198.48 118.855 197.46 117.865C196.94 117.36 196.527 116.755 196.245 116.086C195.964 115.418 195.819 114.7 195.82 113.975C195.82 113.175 196 94.2451 211.47 81.4551C224 71.0951 242.47 67.9851 266.4 72.2051C273.48 68.0651 298.77 55.0851 327.8 61.6051C349.97 66.5851 368.82 81.6651 383.84 106.435C384.332 107.247 384.602 108.175 384.623 109.124C384.644 110.074 384.415 111.012 383.959 111.846C383.504 112.679 382.837 113.378 382.026 113.873C381.216 114.367 380.289 114.641 379.34 114.665L201.4 119.395C201.35 119.405 201.3 119.405 201.25 119.405V119.405ZM247.05 81.2251C234.91 81.2251 225.32 84.0951 218.39 89.8251C211.35 95.6451 208.54 103.275 207.42 108.385L369.32 104.085C356.94 86.7151 342.24 76.0051 325.53 72.2251C296.52 65.6551 270.71 82.2851 270.45 82.4551C269.269 83.2262 267.837 83.5128 266.45 83.2551C259.39 81.8951 252.92 81.2251 247.05 81.2251V81.2251Z" fill="#4C291B"/>
    <path d="M495.75 49.7451V157.575C495.75 164.205 487.59 170.485 472.96 176.125C434.01 191.135 349.27 201.535 250.99 201.535C152.71 201.535 67.97 191.135 29.01 176.125C14.39 170.485 6.21997 164.205 6.21997 157.575V49.7451C6.21997 74.0251 115.8 93.7151 250.98 93.7151C386.16 93.7151 495.75 74.0251 495.75 49.7451V49.7451Z" fill="#FFD06C"/>
    <path d="M250.99 206.965C155.6 206.965 67.7 196.845 27.06 181.185C9.38999 174.365 0.799988 166.645 0.799988 157.565V49.7449C0.799988 46.7449 3.22999 44.3149 6.22999 44.3149C9.22999 44.3149 11.66 46.7449 11.66 49.7449C11.66 50.3049 12.42 63.5549 78.88 75.4949C124.8 83.7449 185.93 88.2849 251 88.2849C316.07 88.2849 377.19 83.7449 423.12 75.4949C489.58 63.5549 490.34 50.3049 490.34 49.7449C490.34 46.7449 492.77 44.3149 495.77 44.3149C498.77 44.3149 501.2 46.7449 501.2 49.7449V157.575C501.2 166.645 492.61 174.375 474.94 181.195C434.28 196.845 346.38 206.965 250.99 206.965V206.965ZM11.65 65.7449V157.565C11.65 158.575 12.58 163.965 30.96 171.055C70.45 186.275 156.82 196.105 250.98 196.105C345.14 196.105 431.51 186.275 471 171.055C489.38 163.965 490.31 158.575 490.31 157.565V65.7449C478.45 73.7049 456.79 80.4549 425.01 86.1649C378.49 94.5349 316.68 99.1349 250.99 99.1349C185.3 99.1349 123.49 94.5349 76.96 86.1749C45.17 80.4649 23.52 73.7049 11.65 65.7449V65.7449Z" fill="#EE9D00"/>
    <path d="M287.16 404.265C287.16 405.885 286.98 407.475 286.63 409.015C283.72 421.955 269.09 431.785 251.5 431.785C233.91 431.785 219.28 421.965 216.37 409.015C216.02 407.475 215.84 405.885 215.84 404.265C215.84 402.325 216.11 400.435 216.6 398.615C220.02 400.295 223.86 401.725 228.03 402.865C229.37 403.235 230.74 403.575 232.13 403.875C237.41 405.025 243.12 405.715 249.09 405.855C250.69 405.895 252.29 405.895 253.89 405.855C259.86 405.715 265.57 405.025 270.85 403.875C272.24 403.575 273.62 403.235 274.95 402.865C279.12 401.725 282.96 400.295 286.38 398.615C286.9 400.435 287.16 402.325 287.16 404.265V404.265Z" fill="#9C4400"/>
    <path d="M354.67 342.835C354.67 362.955 342.2 375.625 326.82 375.625C311.44 375.625 298.97 362.955 298.97 342.835C298.97 322.715 306.26 302.755 321.64 302.755C337.02 302.745 354.67 322.705 354.67 342.835V342.835Z" fill="#713D15"/>
    <path d="M354.67 342.835C354.67 362.955 342.2 375.625 326.82 375.625C311.44 375.625 298.97 362.955 298.97 342.835C298.97 322.715 306.26 302.755 321.64 302.755C337.02 302.745 354.67 322.705 354.67 342.835V342.835Z" fill="#713D15"/>
    <path d="M337.67 327.335C338.774 327.335 339.868 327.118 340.888 326.695C341.909 326.272 342.836 325.653 343.617 324.872C344.398 324.091 345.017 323.164 345.44 322.143C345.862 321.123 346.08 320.029 346.08 318.925C346.08 317.821 345.862 316.727 345.44 315.707C345.017 314.686 344.398 313.759 343.617 312.978C342.836 312.197 341.909 311.578 340.888 311.155C339.868 310.733 338.774 310.515 337.67 310.515C333.02 310.515 329.26 314.275 329.26 318.925C329.26 321.156 330.146 323.295 331.723 324.872C333.3 326.449 335.44 327.335 337.67 327.335ZM320.52 367.405C327.73 366.635 332.62 357.055 331.44 346.005C330.27 334.955 323.47 326.615 316.27 327.385C309.06 328.155 304.17 337.735 305.35 348.785C306.52 359.835 313.31 368.165 320.52 367.405ZM356.48 279.545C355.05 279.545 353.65 278.855 352.8 277.585C352.66 277.365 337.85 255.795 315.41 259.545C313.01 259.945 310.72 258.315 310.32 255.905C310.128 254.747 310.404 253.561 311.086 252.606C311.769 251.652 312.802 251.008 313.96 250.815C342.11 246.125 359.44 271.595 360.17 272.675C360.493 273.159 360.718 273.701 360.831 274.272C360.945 274.843 360.944 275.43 360.83 276C360.716 276.571 360.49 277.113 360.165 277.596C359.841 278.079 359.425 278.493 358.94 278.815C358.19 279.305 357.33 279.545 356.48 279.545Z" fill="white"/>
    <path d="M385.05 409.325C396.95 404.705 403.84 393.875 400.45 385.135C397.05 376.395 384.66 373.065 372.76 377.685C360.86 382.305 353.97 393.135 357.37 401.875C360.76 410.615 373.16 413.945 385.05 409.325Z" fill="#FFAC67"/>
    <path d="M147.29 342.835C147.29 362.955 159.76 375.625 175.14 375.625C190.52 375.625 202.99 362.955 202.99 342.835C202.99 322.715 195.7 302.755 180.32 302.755C164.93 302.745 147.29 322.705 147.29 342.835Z" fill="#713D15"/>
    <path d="M164.3 327.335C166.531 327.335 168.67 326.449 170.247 324.872C171.824 323.295 172.71 321.156 172.71 318.925C172.71 316.695 171.824 314.555 170.247 312.978C168.67 311.401 166.531 310.515 164.3 310.515C162.07 310.515 159.93 311.401 158.353 312.978C156.776 314.555 155.89 316.695 155.89 318.925C155.89 321.156 156.776 323.295 158.353 324.872C159.93 326.449 162.07 327.335 164.3 327.335ZM196.61 348.775C197.78 337.725 192.89 328.145 185.69 327.375C178.48 326.605 171.69 334.945 170.51 346.005C169.34 357.055 174.23 366.635 181.43 367.405C188.64 368.165 195.43 359.825 196.61 348.775ZM145.47 279.545C144.63 279.545 143.77 279.305 143.01 278.795C142.036 278.143 141.361 277.132 141.132 275.982C140.903 274.833 141.14 273.64 141.79 272.665C142.51 271.585 159.86 246.115 188 250.805C189.136 251.021 190.142 251.673 190.803 252.621C191.465 253.569 191.729 254.738 191.54 255.878C191.35 257.019 190.722 258.04 189.79 258.723C188.857 259.406 187.695 259.698 186.55 259.535C164.11 255.795 149.3 277.365 149.16 277.575C148.754 278.181 148.205 278.677 147.561 279.021C146.918 279.365 146.199 279.545 145.47 279.545V279.545Z" fill="white"/>
    <path d="M144.62 401.905C148.01 393.165 141.12 382.335 129.22 377.715C117.32 373.095 104.93 376.425 101.53 385.165C98.14 393.905 105.03 404.735 116.93 409.355C128.82 413.975 141.22 410.635 144.62 401.905Z" fill="#FFAC67"/>
    <path d="M270.86 403.865V406.945C270.86 409.515 269.38 411.705 267.31 412.245C266.3 412.515 265.29 412.745 264.26 412.955C263.59 413.085 262.9 413.225 262.21 413.335C258.79 413.915 255.2 414.225 251.5 414.225C245.88 414.225 240.51 413.515 235.6 412.235C233.56 411.705 232.14 409.485 232.14 406.955V403.875C238.13 405.185 244.65 405.885 251.5 405.885C258.35 405.885 264.88 405.175 270.86 403.865V403.865Z" fill="white"/>
</svg>
