<svg width="631" height="632" viewBox="0 0 631 632" fill="none" xmlns="http://www.w3.org/2000/svg">
<g filter="url(#filter0_i_20_63)">
<path d="M570.223 334.232C569.906 334.459 543.32 342.746 519.23 335.093C516.832 334.325 514.457 333.413 512.123 332.327C512.123 332.327 464.206 303.041 485.371 264.063C485.371 264.063 488.14 279.725 495.318 283.057C495.318 283.057 476.324 261.08 527.097 225.323C527.097 225.323 548.971 207.286 538.438 189.117C538.438 189.117 586.685 208.655 569.976 267.634C569.976 267.634 586.215 263.367 584.962 246.615C584.96 246.647 627.439 293.862 570.223 334.232Z" fill="url(#paint0_radial_20_63)"/>
<path d="M570.195 334.169C569.879 334.396 543.292 342.682 519.202 335.03C504.12 317.363 519.721 291.675 519.721 291.675C518.602 301.049 527.015 305.21 527.015 305.21C522.313 262.954 546.628 258.216 547.18 258.112C546.817 258.305 535.084 264.819 559.08 291.221C576.891 310.861 573.359 326.945 570.195 334.169Z" fill="url(#paint1_radial_20_63)"/>
</g>
<path d="M95.8377 417.06C105.523 423.99 81.2545 457.87 73.7727 468.3C66.2908 478.73 52.3688 481.57 42.6834 474.64C32.9981 467.71 31.2052 453.64 38.6871 443.21C46.1589 432.78 86.1523 410.13 95.8377 417.06Z" fill="#F76639"/>
<path d="M35.3402 457.92C35.3402 457.92 62.974 470.1 90.1571 415.81L93.1318 441.39C93.1318 441.39 71.7279 489.36 43.6834 471.64L35.3402 457.92Z" fill="#E2570E"/>
<path d="M43.8452 458.23C42.5231 458.23 41.4214 457.17 41.3412 455.84C41.2711 454.62 41.3312 443.58 64.3978 433.43C65.6598 432.87 67.1421 433.45 67.703 434.71C68.2639 435.97 67.683 437.45 66.421 438.01C46.5695 446.75 46.3492 455.54 46.3492 455.63C46.4293 457.01 45.3676 458.16 43.9854 458.23C43.9454 458.23 43.8953 458.23 43.8452 458.23Z" fill="white"/>
<path d="M546.121 371.17C545.56 358.35 535.454 348.38 523.546 348.9C511.637 349.42 506.889 366.14 503.003 373.05C496.533 384.54 478.544 403.61 470.842 414.88L474.248 422.38C487.328 424.3 512.628 417.63 512.628 417.63C530.737 412.79 546.612 382.32 546.121 371.17Z" fill="#EC7131"/>
<path d="M543.828 361.78C543.828 361.78 516.765 415.03 477.102 402L478.264 425.26C478.264 425.26 522.574 427.75 537.187 395.42C551.81 363.1 543.828 361.78 543.828 361.78Z" fill="#E2570E"/>
<path d="M520.821 364.69C520.26 364.69 519.71 364.51 519.239 364.13C518.177 363.26 518.007 361.71 518.868 360.64C521.202 357.74 527.722 353.52 535.645 358.35C536.827 359.07 537.197 360.61 536.476 361.79C535.755 362.97 534.213 363.34 533.031 362.62C527.031 358.96 523.165 363.29 522.744 363.79C522.264 364.38 521.542 364.69 520.821 364.69Z" fill="white"/>
<path d="M287.572 111.8L281.803 110.13C283.145 105.46 285.549 91.9596 280.581 85.7496C272.698 75.9096 276.484 59.2696 276.654 58.5696L282.504 59.9396L279.579 59.2596L282.504 59.9396C282.474 60.0796 279.219 74.4596 285.268 82.0096C293.211 91.9096 287.812 110.99 287.572 111.8Z" fill="#87900F"/>
<path d="M276.634 58.6197C276.634 58.6197 288.413 27.9097 317.149 29.9097C323.368 30.3397 329.618 30.1297 335.758 28.7997C335.989 28.7497 336.229 28.6897 336.459 28.6297C340.235 27.6397 343.56 31.3197 342.028 34.8997C335.157 51.0397 316.848 78.7697 276.634 58.6197Z" fill="#87900F"/>
<path d="M228.087 50.4497C240.838 49.3297 267.44 50.1797 280.01 74.1397C280.01 74.1397 244.233 86.6897 224.602 57.6497C222.619 54.7297 224.572 50.7597 228.087 50.4497Z" fill="#87900F"/>
<path d="M480.858 432.89C480.858 550.43 393.47 598.86 285.679 598.86C177.888 598.86 90.4892 550.43 90.4892 432.89C90.4892 315.35 177.878 101.43 285.669 101.43C393.46 101.43 480.858 315.36 480.858 432.89Z" fill="#E2570E"/>
<path d="M457.842 402.69C457.842 509.52 380.759 553.54 285.679 553.54C190.598 553.54 113.516 509.52 113.516 402.69C113.516 295.86 190.598 101.43 285.679 101.43C380.759 101.43 457.842 295.87 457.842 402.69Z" fill="#EC7131"/>
<path d="M550.128 371C549.467 356 537.518 344.29 523.365 344.91C511.386 345.43 505.637 357.99 501.841 366.29C501 368.13 500.199 369.86 499.508 371.1C496.092 377.17 489.131 385.67 482.24 394C475.339 339.32 455.257 275.31 427.243 221.25C408.433 184.94 386.699 154.7 364.393 133.78C338.663 109.66 312.181 97.4297 285.679 97.4297C259.167 97.4297 232.685 109.66 206.954 133.78C184.649 154.7 162.914 184.94 144.104 221.25C112.945 281.38 91.601 353.81 87.2941 412.04C80.1628 412.96 71.6794 416.51 64.6282 420.05C53.8912 425.45 40.1695 434.26 35.4219 440.88C31.2153 446.74 29.3824 453.8 30.2638 460.74C31.1552 467.79 34.7409 473.88 40.3397 477.89C44.5264 480.88 49.4542 482.44 54.5923 482.44C56.3251 482.44 58.0879 482.26 59.8506 481.9C66.7115 480.5 72.8112 476.5 77.0279 470.63C79.4217 467.29 83.448 461.68 87.5746 455.27C92.1919 501.35 111.533 537.57 145.236 563.14C179.49 589.13 228.047 602.87 285.679 602.87C343.3 602.87 391.857 589.13 426.111 563.14C465.093 533.56 484.864 489.74 484.864 432.9C484.864 430.8 484.834 428.68 484.774 426.53C488.66 426.27 493.087 425.7 498.015 424.85C519.84 421.06 538.509 406.25 546.732 386.19C548.946 380.79 550.148 375.71 550.148 371.77C550.148 371.51 550.138 371.25 550.128 371ZM70.5075 465.97C67.4827 470.19 63.1258 473.07 58.2481 474.06C53.4806 475.03 48.7831 474.08 45.0071 471.39C41.2412 468.69 38.8273 464.55 38.2164 459.73C37.5854 454.8 38.9075 449.76 41.9322 445.54C45.2175 440.96 56.5254 433.08 68.2339 427.2C76.3768 423.1 82.5466 421.03 86.7933 420.2C86.583 424.53 86.4829 428.77 86.4829 432.9C86.4829 435.77 86.5329 438.61 86.6331 441.41V441.42C81.0643 451.26 74.0131 461.09 70.5075 465.97ZM421.264 556.77C388.422 581.7 341.537 594.87 285.679 594.87C229.81 594.87 182.926 581.7 150.084 556.77C115.609 530.61 97.0095 492.48 94.7359 443.33C94.5757 439.91 94.4955 436.43 94.4955 432.9C94.4955 426.32 94.766 419.48 95.2868 412.42C99.5435 355.29 120.547 284.12 151.216 224.93C169.615 189.41 190.788 159.91 212.443 139.61C236.631 116.93 261.27 105.43 285.679 105.43C310.077 105.43 334.716 116.93 358.905 139.61C380.559 159.91 401.733 189.41 420.132 224.93C449.058 280.77 469.4 347.27 475.169 402.59C475.59 406.55 475.93 410.46 476.191 414.3C476.261 415.35 476.331 416.39 476.381 417.42C476.571 420.55 476.701 423.62 476.772 426.65C476.822 428.76 476.852 430.84 476.852 432.9C476.852 487.11 458.152 528.79 421.264 556.77ZM539.321 383.16C532.129 400.69 515.783 413.65 496.643 416.97C492.106 417.76 488.019 418.28 484.474 418.54C484.243 414.15 483.903 409.66 483.462 405.09C484.784 403.48 486.146 401.83 487.529 400.16C494.93 391.22 502.582 381.97 506.489 375.02C507.35 373.49 508.211 371.61 509.123 369.62C512.298 362.7 516.635 353.21 523.716 352.9C523.966 352.89 524.217 352.88 524.467 352.88C533.802 352.88 541.664 361.03 542.115 371.35C542.245 374.21 541.224 378.52 539.321 383.16Z" fill="#AF4E23"/>
<path d="M343.781 406.85C344.732 405.95 343.811 404.37 342.569 404.8C335.167 407.34 326.153 409.03 316.367 409.46C306.822 409.88 297.908 409.05 290.426 407.27C289.124 406.96 288.353 408.68 289.445 409.44C299.13 416.22 321.756 427.65 343.781 406.85Z" fill="#9C4400"/>
<path d="M403.716 349.67C404.527 367.84 393.76 379.78 379.848 380.4C365.936 381.02 354.147 370.08 353.346 351.91C352.535 333.74 358.334 315.42 372.246 314.81C386.148 314.18 402.915 331.5 403.716 349.67Z" fill="#713D15"/>
<path d="M361.629 339.74C365.833 339.74 369.241 336.337 369.241 332.14C369.241 327.942 365.833 324.54 361.629 324.54C357.424 324.54 354.017 327.942 354.017 332.14C354.017 336.337 357.424 339.74 361.629 339.74Z" fill="white"/>
<path d="M386.527 371.406C393.041 370.632 397.359 361.918 396.171 351.942C394.982 341.967 388.738 334.507 382.224 335.28C375.708 336.054 371.391 344.768 372.58 354.744C373.767 364.719 380.012 372.179 386.527 371.406Z" fill="white"/>
<path d="M433.863 408.464C444.437 403.812 450.235 393.756 446.814 386.003C443.393 378.251 432.048 375.737 421.473 380.389C410.898 385.04 405.099 395.096 408.52 402.849C411.942 410.602 423.288 413.116 433.863 408.464Z" fill="#FFAC67"/>
<path d="M216.149 357.98C216.96 376.15 228.739 387.09 242.651 386.47C256.563 385.85 267.33 373.92 266.518 355.74C265.707 337.57 258.315 319.84 244.403 320.46C230.501 321.08 215.347 339.81 216.149 357.98Z" fill="#713D15"/>
<path d="M230.581 343.31C234.785 343.31 238.193 339.907 238.193 335.71C238.193 331.512 234.785 328.11 230.581 328.11C226.377 328.11 222.969 331.512 222.969 335.71C222.969 339.907 226.377 343.31 230.581 343.31Z" fill="white"/>
<path d="M261.003 361.375C261.622 351.348 256.815 342.893 250.267 342.49C243.719 342.087 237.909 349.889 237.29 359.916C236.671 369.943 241.478 378.398 248.026 378.801C254.573 379.204 260.384 371.402 261.003 361.375Z" fill="white"/>
<path d="M217.721 301.51C216.289 301.51 214.897 300.74 214.175 299.38C213.144 297.43 213.875 295.01 215.828 293.98C216.689 293.52 237.122 282.88 261.951 288.47C264.115 288.96 265.467 291.1 264.976 293.25C264.485 295.41 262.342 296.76 260.188 296.27C238.354 291.35 219.774 300.95 219.584 301.04C218.993 301.37 218.352 301.51 217.721 301.51Z" fill="white"/>
<path d="M398.598 293.5C398.077 293.5 397.556 293.4 397.045 293.19C396.855 293.11 377.494 285.2 356.18 292.03C354.077 292.7 351.814 291.55 351.142 289.44C350.471 287.34 351.623 285.08 353.737 284.41C377.965 276.64 399.269 285.44 400.17 285.82C402.203 286.68 403.165 289.03 402.294 291.06C401.643 292.58 400.16 293.5 398.598 293.5Z" fill="white"/>
<path d="M216.133 411.399C218.852 403.374 212.182 393.87 201.236 390.173C190.29 386.475 179.211 389.983 176.492 398.009C173.771 406.035 180.441 415.538 191.387 419.236C202.334 422.934 213.413 419.425 216.133 411.399Z" fill="#FFAC67"/>
<defs>
<filter id="filter0_i_20_63" x="479.974" y="189.117" width="120.154" height="153.213" filterUnits="userSpaceOnUse" color-interpolation-filters="sRGB">
<feFlood flood-opacity="0" result="BackgroundImageFix"/>
<feBlend mode="normal" in="SourceGraphic" in2="BackgroundImageFix" result="shape"/>
<feColorMatrix in="SourceAlpha" type="matrix" values="0 0 0 0 0 0 0 0 0 0 0 0 0 0 0 0 0 0 127 0" result="hardAlpha"/>
<feOffset dy="4"/>
<feGaussianBlur stdDeviation="2"/>
<feComposite in2="hardAlpha" operator="arithmetic" k2="-1" k3="1"/>
<feColorMatrix type="matrix" values="0 0 0 0 0.976471 0 0 0 0 0.733333 0 0 0 0 0.196078 0 0 0 1 0"/>
<feBlend mode="normal" in2="shape" result="effect1_innerShadow_20_63"/>
</filter>
<radialGradient id="paint0_radial_20_63" cx="0" cy="0" r="1" gradientUnits="userSpaceOnUse" gradientTransform="translate(541.015 263.81) rotate(92.5994) scale(74.5007 60.095)">
<stop stop-color="#F76321"/>
<stop offset="1" stop-color="#CC4408"/>
</radialGradient>
<radialGradient id="paint1_radial_20_63" cx="0" cy="0" r="1" gradientUnits="userSpaceOnUse" gradientTransform="translate(544.465 253.393) rotate(92.5994) scale(81.5003 77.1941)">
<stop offset="0.0208333" stop-color="#F7C30E"/>
<stop offset="0.395833" stop-color="#DE4B09" stop-opacity="0.72"/>
<stop offset="1" stop-color="#FAE313"/>
</radialGradient>
</defs>
</svg>
