<svg width="514" height="576" viewBox="0 0 514 576" fill="none" xmlns="http://www.w3.org/2000/svg">
    <path d="M447.92 421.197C438.25 414.267 462.48 380.387 469.95 369.957C477.42 359.527 491.32 356.687 500.99 363.617C510.66 370.547 512.45 384.617 504.98 395.047C497.51 405.477 457.59 428.127 447.92 421.197Z" fill="#FFD06C"/>
    <path d="M501.76 365.817C501.76 365.817 508.94 406.287 454.22 393.837C452.23 393.387 452.49 422.497 452.49 422.497C452.49 422.497 505.83 410.237 509.6 381.617C509.6 381.617 511.76 366.107 501.76 365.817Z" fill="#F9BE58"/>
    <path d="M478.06 377.727C477.47 377.727 476.88 377.517 476.41 377.107C475.38 376.197 475.27 374.627 476.18 373.587C479.35 369.977 487.66 364.447 496.47 369.377C497.68 370.047 498.1 371.577 497.43 372.777C496.76 373.987 495.23 374.407 494.03 373.737C486.58 369.567 480.2 376.587 479.94 376.887C479.44 377.447 478.75 377.727 478.06 377.727Z" fill="white"/>
    <path d="M66.0999 421.197C75.7699 414.267 51.5399 380.387 44.0699 369.957C36.5999 359.527 22.7 356.687 13.03 363.617C3.35998 370.547 1.56988 384.617 9.03988 395.047C16.4999 405.487 56.4299 428.127 66.0999 421.197Z" fill="#FFD06C"/>
    <path d="M12.26 365.817C12.26 365.817 5.08 406.287 59.7999 393.837C61.7899 393.387 61.5299 422.497 61.5299 422.497C61.5299 422.497 8.19 410.237 4.42 381.617C4.42 381.617 2.26 366.107 12.26 365.817Z" fill="#F9BE58"/>
    <path d="M35.96 377.737C35.27 377.737 34.58 377.447 34.08 376.887C33.8 376.567 27.43 369.567 19.99 373.737C18.78 374.407 17.26 373.977 16.59 372.777C15.92 371.577 16.35 370.047 17.55 369.377C26.36 364.447 34.67 369.977 37.84 373.587C38.75 374.627 38.65 376.207 37.61 377.117C37.14 377.527 36.55 377.737 35.96 377.737Z" fill="white"/>
    <path d="M260.51 84.1467L254.75 82.4767C256.09 77.8067 258.5 64.3063 253.53 58.0963C245.66 48.2663 249.44 31.6163 249.61 30.9163L255.45 32.2763C255.42 32.4163 252.17 46.7963 258.21 54.3463C266.14 64.2563 260.75 83.3367 260.51 84.1467Z" fill="#87900F"/>
    <path d="M249.59 30.9663C249.59 30.9663 261.35 0.256346 290.04 2.25635C296.25 2.68635 302.49 2.47635 308.62 1.14634C308.85 1.09634 309.09 1.03635 309.32 0.976347C313.09 -0.0136532 316.41 3.66635 314.88 7.24635C308.02 23.3863 289.74 51.1163 249.59 30.9663Z" fill="#87900F"/>
    <path d="M201.12 22.8064C213.85 21.6864 240.41 22.5364 252.96 46.4964C252.96 46.4964 217.24 59.0464 197.64 30.0064C195.66 27.0764 197.61 23.1164 201.12 22.8064Z" fill="#87900F"/>
    <path d="M451.49 405.247C451.49 522.787 364.24 571.217 256.62 571.217C149 571.217 61.7499 522.777 61.7499 405.247C61.7499 287.717 149 73.7866 256.62 73.7866C364.24 73.7866 451.49 287.707 451.49 405.247Z" fill="#F9BE58"/>
    <path d="M428.52 375.047C428.52 481.877 351.56 525.897 256.63 525.897C161.7 525.897 84.7399 481.877 84.7399 375.047C84.7399 268.217 161.7 73.7866 256.63 73.7866C351.56 73.7866 428.52 268.217 428.52 375.047Z" fill="#FFD06C"/>
    <path d="M513.39 377.527C512.49 370.477 508.92 364.377 503.32 360.377C491.87 352.167 475.44 355.427 466.7 367.637C464.03 371.357 459.34 377.897 454.74 385.227C450.58 326.857 429.22 254.027 397.97 193.597C379.18 157.297 357.48 127.047 335.21 106.127C309.52 82.0166 283.08 69.7864 256.62 69.7864C230.15 69.7864 203.71 82.0166 178.03 106.127C155.75 127.047 134.05 157.297 115.27 193.597C84.2099 253.657 62.9099 325.987 58.5699 384.177C55.3799 379.177 51.6399 373.677 47.3099 367.637C38.57 355.427 22.14 352.167 10.69 360.377C-0.760012 368.577 -2.97002 385.177 5.77998 397.387C12.17 406.317 41.2599 424.677 58.6999 426.277C63.0699 472.997 82.4299 509.677 116.4 535.497C150.6 561.477 199.08 575.217 256.62 575.217C314.15 575.217 362.64 561.477 396.83 535.497C430.77 509.697 450.13 473.067 454.52 426.417C462 425.947 471.39 422.077 479.07 418.217C489.8 412.817 503.5 403.997 508.23 397.387C512.44 391.517 514.27 384.467 513.39 377.527ZM38.53 411.067C26.84 405.187 15.56 397.297 12.28 392.727C6.10998 384.107 7.47998 372.507 15.35 366.877C18.22 364.817 21.56 363.837 24.95 363.837C30.85 363.837 36.89 366.817 40.81 372.287C48.8999 383.587 54.2899 392.127 57.8399 398.557C57.7799 400.817 57.7499 403.047 57.7499 405.247C57.7499 409.657 57.8699 413.997 58.1099 418.247C53.8599 417.567 47.3499 415.497 38.53 411.067ZM391.99 529.127C359.2 554.047 312.39 567.217 256.62 567.217C200.85 567.217 154.03 554.047 121.24 529.127C89.1299 504.717 70.8199 469.887 66.6599 425.417C66.0599 418.897 65.7499 412.177 65.7499 405.247C65.7499 402.427 65.7999 399.567 65.8999 396.657C67.8699 337.757 89.5899 260.647 122.38 197.277C140.74 161.767 161.88 132.267 183.5 111.957C207.66 89.2866 232.25 77.7866 256.62 77.7866C280.98 77.7866 305.58 89.2866 329.73 111.957C351.35 132.267 372.49 161.767 390.86 197.277C423.9 261.137 445.71 338.957 447.38 398.027C447.46 400.467 447.49 402.877 447.49 405.247C447.49 412.057 447.2 418.667 446.61 425.077C442.51 469.707 424.19 504.657 391.99 529.127ZM501.73 392.727C498.45 397.297 487.17 405.187 475.48 411.067C466.11 415.777 459.35 417.817 455.13 418.357C455.37 414.067 455.49 409.697 455.49 405.247C455.49 403.477 455.47 401.697 455.43 399.897C455.62 399.537 455.82 399.177 456.02 398.807C461.71 388.337 469.47 377.497 473.2 372.287C477.12 366.817 483.16 363.837 489.06 363.837C492.45 363.837 495.8 364.817 498.66 366.877C502.43 369.577 504.84 373.717 505.45 378.537C506.07 383.467 504.75 388.507 501.73 392.727Z" fill="#EE9D00"/>
    <path d="M292.24 381.967C292.24 383.427 292.08 384.867 291.76 386.257C289.13 397.957 275.91 406.837 260.01 406.837C244.11 406.837 230.89 397.957 228.26 386.257C227.94 384.867 227.78 383.427 227.78 381.967C227.78 380.217 228.02 378.507 228.47 376.857C231.56 378.377 235.03 379.667 238.8 380.697C240.01 381.027 241.25 381.337 242.51 381.607C247.28 382.647 252.44 383.267 257.84 383.397C258.56 383.417 259.28 383.427 260.01 383.427C260.74 383.427 261.46 383.417 262.18 383.397C267.58 383.267 272.74 382.647 277.51 381.607C278.77 381.337 280.01 381.027 281.22 380.697C284.99 379.667 288.46 378.377 291.55 376.857C292 378.507 292.24 380.217 292.24 381.967Z" fill="#9C4400"/>
    <path d="M353.26 326.437C353.26 344.627 341.99 356.077 328.09 356.077C314.19 356.077 302.92 344.627 302.92 326.437C302.92 308.247 309.51 290.207 323.41 290.207C337.31 290.207 353.26 308.247 353.26 326.437Z" fill="#713D15"/>
    <path d="M353.26 326.437C353.26 344.627 341.99 356.077 328.09 356.077C314.19 356.077 302.92 344.627 302.92 326.437C302.92 308.247 309.51 290.207 323.41 290.207C337.31 290.207 353.26 308.247 353.26 326.437Z" fill="#713D15"/>
    <path d="M337.89 312.427C342.087 312.427 345.49 309.024 345.49 304.827C345.49 300.629 342.087 297.227 337.89 297.227C333.693 297.227 330.29 300.629 330.29 304.827C330.29 309.024 333.693 312.427 337.89 312.427Z" fill="white"/>
    <path d="M322.392 348.648C328.905 347.956 333.325 339.296 332.263 329.306C331.201 319.316 325.06 311.779 318.547 312.472C312.033 313.164 307.614 321.824 308.676 331.813C309.738 341.803 315.879 349.34 322.392 348.648Z" fill="white"/>
    <path d="M354.9 269.237C353.61 269.237 352.34 268.617 351.57 267.467C351.44 267.267 338.06 247.767 317.77 251.157C315.6 251.517 313.53 250.047 313.17 247.867C312.81 245.687 314.28 243.627 316.46 243.267C341.9 239.027 357.57 262.047 358.23 263.027C359.46 264.867 358.96 267.347 357.12 268.577C356.44 269.017 355.66 269.237 354.9 269.237Z" fill="white"/>
    <path d="M380.723 386.537C391.477 382.359 397.707 372.569 394.639 364.673C391.57 356.776 380.365 353.762 369.611 357.941C358.857 362.119 352.627 371.909 355.696 379.805C358.764 387.702 369.969 390.716 380.723 386.537Z" fill="#FFAC67"/>
    <path d="M165.81 326.437C165.81 344.627 177.08 356.077 190.98 356.077C204.88 356.077 216.15 344.627 216.15 326.437C216.15 308.247 209.56 290.207 195.66 290.207C181.76 290.207 165.81 308.247 165.81 326.437Z" fill="#713D15"/>
    <path d="M181.19 312.427C185.388 312.427 188.79 309.024 188.79 304.827C188.79 300.629 185.388 297.227 181.19 297.227C176.993 297.227 173.59 300.629 173.59 304.827C173.59 309.024 176.993 312.427 181.19 312.427Z" fill="white"/>
    <path d="M210.392 331.811C211.454 321.821 207.034 313.162 200.521 312.469C194.007 311.777 187.866 319.314 186.804 329.304C185.743 339.294 190.162 347.953 196.675 348.646C203.189 349.338 209.33 341.801 210.392 331.811Z" fill="white"/>
    <path d="M164.17 269.237C163.41 269.237 162.63 269.017 161.95 268.557C160.12 267.327 159.62 264.857 160.85 263.017C161.5 262.037 177.18 239.017 202.62 243.257C204.8 243.617 206.27 245.677 205.91 247.857C205.55 250.037 203.49 251.507 201.31 251.147C181.03 247.767 167.64 267.267 167.51 267.457C166.72 268.607 165.46 269.237 164.17 269.237Z" fill="white"/>
    <path d="M163.396 379.831C166.464 371.934 160.234 362.145 149.48 357.966C138.726 353.788 127.521 356.802 124.452 364.698C121.384 372.595 127.614 382.384 138.368 386.563C149.122 390.742 160.327 387.728 163.396 379.831Z" fill="#FFAC67"/>
    <path d="M277.51 381.607V384.387C277.51 386.707 276.17 388.687 274.3 389.177C273.39 389.417 272.47 389.627 271.54 389.817C270.93 389.937 270.31 390.057 269.69 390.157C266.6 390.677 263.35 390.957 260.01 390.957C254.93 390.957 250.08 390.317 245.64 389.157C243.8 388.677 242.51 386.667 242.51 384.387V381.607C247.92 382.787 253.82 383.427 260.01 383.427C266.2 383.427 272.1 382.787 277.51 381.607Z" fill="white"/>
</svg>
