<svg viewBox="0 0 474 569" fill="none" xmlns="http://www.w3.org/2000/svg">
    <path d="M452.949 521.839L461.471 537.459H11.681L19.081 523.901L20.203 521.839C26.447 510.395 28.181 497.395 25.003 484.993C-15.14 328.499 14.386 144.521 26.007 84.675C27.1471 78.7991 27.2294 72.7668 26.25 66.862C25.233 60.756 23.086 54.807 19.855 49.272C19.3657 48.4232 18.8511 47.5891 18.312 46.771L10.657 35.104H462.496L454.84 46.77C450.113 53.966 447.276 61.956 446.469 70.15C445.986 74.9984 446.213 79.8915 447.145 84.674C451.065 104.863 457.02 139.176 461.655 181.794C470.755 265.513 474.754 381.286 448.149 484.992C444.972 497.394 446.705 510.394 452.949 521.838V521.839Z" fill="#D8E862"/>
    <path d="M461.471 542.055H11.681C10.8832 542.055 10.0991 541.848 9.40586 541.453C8.71266 541.058 8.13437 540.489 7.728 539.803C7.32078 539.117 7.09941 538.336 7.08574 537.538C7.07206 536.74 7.26654 535.953 7.65 535.253L16.172 519.64C21.864 509.207 23.42 497.31 20.558 486.128C3.21 418.495 -3.197 338.492 1.51 248.345C5.344 175.012 15.679 113.774 21.502 83.795C22.5379 78.4565 22.6137 72.9761 21.726 67.611C20.793 62.01 18.83 56.613 15.896 51.584C15.4455 50.8043 14.9723 50.038 14.477 49.286L6.822 37.618C6.36758 36.9243 6.10886 36.1209 6.07313 35.2924C6.0374 34.4639 6.22599 33.6412 6.619 32.911C7.01342 32.1822 7.59742 31.5735 8.30926 31.1493C9.0211 30.7251 9.83434 30.5011 10.663 30.501H462.502C464.19 30.501 465.746 31.427 466.547 32.911C466.94 33.6413 467.128 34.4641 467.092 35.2925C467.056 36.121 466.798 36.9244 466.343 37.618L458.687 49.286C454.426 55.779 451.78 63.146 451.045 70.598C450.605 75.004 450.815 79.442 451.662 83.795C455.772 104.969 461.635 139.078 466.231 181.296C474.997 261.955 479.75 380.322 452.608 486.135C449.745 497.31 451.301 509.213 456.987 519.64L465.509 535.26C465.891 535.96 466.085 536.748 466.071 537.545C466.057 538.343 465.836 539.123 465.43 539.81C465.02 540.494 464.44 541.061 463.746 541.454C463.053 541.848 462.269 542.055 461.471 542.055V542.055ZM19.428 532.863H453.73L448.918 524.039C442.109 511.564 440.257 497.29 443.698 483.85C470.499 379.377 465.772 262.192 457.085 182.287C452.529 140.385 446.712 106.552 442.634 85.548C441.616 80.3269 441.368 74.9848 441.899 69.692C442.779 60.769 445.924 51.971 451.006 44.243L453.986 39.693H19.173L22.16 44.243C22.79 45.202 23.342 46.095 23.847 46.981C27.327 52.949 29.671 59.391 30.787 66.101C31.8591 72.5448 31.7704 79.1284 30.525 85.541C24.747 115.291 14.491 176.05 10.69 248.824C6.028 338.039 12.344 417.11 29.461 483.844C32.908 497.284 31.05 511.557 24.241 524.032L19.428 532.863V532.863Z" fill="#B5BF37"/>
    <path d="M236.576 409.211C309.469 409.211 368.56 350.12 368.56 277.227C368.56 204.334 309.469 145.243 236.576 145.243C163.684 145.243 104.592 204.334 104.592 277.227C104.592 350.12 163.684 409.211 236.576 409.211Z" fill="white"/>
    <path d="M236.576 413.807C161.268 413.807 99.996 352.536 99.996 277.227C99.996 201.919 161.268 140.647 236.576 140.647C311.885 140.647 373.156 201.919 373.156 277.227C373.156 352.536 311.885 413.807 236.576 413.807ZM236.576 149.846C166.336 149.846 109.188 206.994 109.188 277.234C109.188 347.474 166.336 404.622 236.576 404.622C306.816 404.622 363.964 347.474 363.964 277.234C363.964 206.987 306.816 149.846 236.576 149.846V149.846Z" fill="#B5BF37"/>
    <path d="M243.529 355.077L234.488 352.431C236.517 345.11 240.253 324.074 232.617 314.409C220.306 299.137 226.229 273.117 226.537 272.027L235.578 274.207L231.061 273.117L235.578 274.207C235.578 274.365 230.437 296.8 239.944 308.644C252.255 324.067 243.844 353.829 243.529 355.077V355.077Z" fill="#B5BF37"/>
    <path d="M226.393 272.178C226.393 272.178 244.777 224.34 289.502 227.459C299.16 228.083 308.983 227.768 318.483 225.745C318.792 225.588 319.265 225.588 319.573 225.437C325.495 223.881 330.636 229.646 328.299 235.253C317.544 260.491 289.03 303.654 226.393 272.178V272.178ZM150.972 259.559C170.762 257.845 212.211 259.093 231.691 296.491C231.691 296.491 176.06 315.971 145.523 270.78C142.398 266.256 145.516 260.025 150.972 259.559Z" fill="#B5BF37"/>
    <path d="M346.48 346.699C318.063 391.431 264.119 416.387 209.046 405.324C174.031 398.292 145.057 378.011 126.305 350.743L126.706 346.561C126.706 346.561 151.504 311.349 241.888 352.785C241.888 352.792 297.197 327.14 346.48 346.699V346.699Z" fill="#AF7D5B"/>
    <path d="M236.576 413.807C200.878 413.807 167.118 400.131 141.511 375.286C114.743 349.325 99.996 314.501 99.996 277.227C99.996 201.919 161.268 140.647 236.576 140.647C311.885 140.647 373.156 201.919 373.156 277.227C373.156 294.154 370.096 310.673 364.062 326.326C354.247 351.794 337.189 373.559 314.728 389.251C291.741 405.318 264.717 413.807 236.576 413.807V413.807ZM236.576 149.839C166.336 149.839 109.188 206.987 109.188 277.227C109.188 311.993 122.937 344.48 147.906 368.694C171.792 391.858 203.281 404.615 236.576 404.615C262.826 404.615 288.025 396.697 309.462 381.72C330.42 367.072 346.335 346.778 355.488 323.023C361.114 308.427 363.964 293.018 363.964 277.234C363.964 206.987 306.816 149.839 236.576 149.839Z" fill="#B5BF37"/>
    <path d="M461.655 181.795C434.841 135.244 386.366 110.117 349.999 97.1631C341.759 94.2281 343.335 82.1271 352.047 81.3461C388.52 78.0431 424.382 73.2961 446.469 70.1521C445.989 74.9641 446.206 79.8421 447.145 84.6751C451.065 104.864 457.02 139.177 461.655 181.795V181.795ZM20.203 521.839C26.447 510.395 28.181 497.395 25.003 484.992C-15.14 328.499 14.386 144.521 26.007 84.6751C27.1471 78.7991 27.2294 72.7669 26.25 66.8621C42.001 74.6021 68.218 76.4281 104.218 84.1561C109.221 85.2331 109.457 92.2581 104.54 93.6831C68.428 104.142 13.67 142.656 22.521 290.549C37.655 543.427 282.175 511.196 406.372 537.459H11.681L19.081 523.901L20.203 521.839Z" fill="#CDD650"/>
    <path d="M461.471 542.055H11.681C10.8832 542.055 10.0991 541.848 9.40586 541.453C8.71266 541.058 8.13437 540.489 7.728 539.803C7.32078 539.117 7.09941 538.336 7.08574 537.538C7.07206 536.74 7.26654 535.953 7.65 535.253L16.172 519.64C21.864 509.207 23.42 497.31 20.558 486.128C3.21 418.495 -3.197 338.492 1.51 248.345C5.344 175.012 15.679 113.774 21.502 83.795C22.5379 78.4565 22.6137 72.9761 21.726 67.611C20.793 62.01 18.83 56.613 15.896 51.584C15.4455 50.8043 14.9723 50.038 14.477 49.286L6.822 37.618C6.36758 36.9243 6.10886 36.1209 6.07313 35.2924C6.0374 34.4639 6.22599 33.6412 6.619 32.911C7.01342 32.1822 7.59742 31.5735 8.30926 31.1493C9.0211 30.7251 9.83434 30.5011 10.663 30.501H462.502C464.19 30.501 465.746 31.427 466.547 32.911C466.94 33.6413 467.128 34.4641 467.092 35.2925C467.056 36.121 466.798 36.9244 466.343 37.618L458.687 49.286C451.853 59.686 449.358 71.944 451.662 83.795C457.486 113.774 467.82 175.019 471.655 248.345C476.362 338.492 469.954 418.495 452.608 486.128C449.745 497.303 451.301 509.207 456.987 519.633L465.509 535.253C465.891 535.953 466.085 536.741 466.071 537.538C466.057 538.336 465.836 539.116 465.43 539.803C465.022 540.489 464.442 541.058 463.748 541.452C463.054 541.847 462.269 542.055 461.471 542.055ZM19.428 532.863H453.73L448.918 524.039C442.109 511.564 440.257 497.29 443.698 483.85C460.815 417.116 467.131 338.045 462.469 248.831C458.668 176.056 448.412 115.297 442.634 85.548C439.87 71.327 442.844 56.658 450.999 44.243L453.98 39.693H19.172L22.16 44.243C22.79 45.202 23.342 46.095 23.847 46.981C27.327 52.949 29.671 59.391 30.787 66.101C31.8591 72.5448 31.7704 79.1284 30.525 85.541C24.747 115.291 14.491 176.05 10.69 248.824C6.028 338.039 12.344 417.11 29.461 483.844C32.908 497.284 31.05 511.557 24.241 524.032L19.428 532.863V532.863Z" fill="#B5BF37"/>
    <path d="M461.53 537.466H11.333V563.459H461.53V537.466Z" fill="#B5BF37"/>
    <path d="M461.53 568.055H11.333C10.7293 568.056 10.1315 567.937 9.57372 567.706C9.01593 567.475 8.50911 567.137 8.08226 566.71C7.6554 566.283 7.31688 565.776 7.08605 565.218C6.85522 564.661 6.73661 564.063 6.737 563.459V537.466C6.73661 536.862 6.85522 536.265 7.08605 535.707C7.31688 535.149 7.6554 534.642 8.08226 534.215C8.50911 533.789 9.01593 533.45 9.57372 533.219C10.1315 532.988 10.7293 532.87 11.333 532.87H461.53C462.134 532.87 462.731 532.988 463.289 533.219C463.847 533.45 464.354 533.789 464.781 534.215C465.208 534.642 465.546 535.149 465.777 535.707C466.008 536.265 466.126 536.862 466.126 537.466V563.459C466.126 564.678 465.642 565.847 464.78 566.709C463.918 567.571 462.749 568.055 461.53 568.055ZM15.929 558.863H456.934V542.062H15.929V558.863V558.863Z" fill="#90931B"/>
    <path d="M461.53 568.055H11.333C10.7293 568.056 10.1315 567.937 9.57372 567.706C9.01593 567.475 8.50911 567.137 8.08226 566.71C7.6554 566.283 7.31688 565.776 7.08605 565.218C6.85522 564.661 6.73661 564.063 6.737 563.459V537.466C6.73661 536.862 6.85522 536.265 7.08605 535.707C7.31688 535.149 7.6554 534.642 8.08226 534.215C8.50911 533.789 9.01593 533.45 9.57372 533.219C10.1315 532.988 10.7293 532.87 11.333 532.87H461.53C462.134 532.87 462.731 532.988 463.289 533.219C463.847 533.45 464.354 533.789 464.781 534.215C465.208 534.642 465.546 535.149 465.777 535.707C466.008 536.265 466.126 536.862 466.126 537.466V563.459C466.126 564.678 465.642 565.847 464.78 566.709C463.918 567.571 462.749 568.055 461.53 568.055ZM15.929 558.863H456.934V542.062H15.929V558.863V558.863Z" fill="#90931B"/>
    <path d="M462.798 4.91406H10.348V35.1101H462.798V4.91406Z" fill="#B5BF37"/>
    <path d="M462.804 39.7061H10.348C9.74433 39.7065 9.14651 39.5879 8.58872 39.3571C8.03093 39.1262 7.52411 38.7877 7.09726 38.3609C6.6704 37.934 6.33188 37.4272 6.10105 36.8694C5.87022 36.3116 5.75161 35.7138 5.752 35.1101V4.91412C5.75161 4.31045 5.87022 3.71263 6.10105 3.15484C6.33188 2.59705 6.6704 2.09023 7.09726 1.66337C7.52411 1.23652 8.03093 0.897994 8.58872 0.667163C9.14651 0.436332 9.74433 0.317722 10.348 0.318116H462.798C463.402 0.317722 464 0.436332 464.557 0.667163C465.115 0.897994 465.622 1.23652 466.049 1.66337C466.476 2.09023 466.814 2.59705 467.045 3.15484C467.276 3.71263 467.394 4.31045 467.394 4.91412V35.1101C467.395 35.7133 467.276 36.3107 467.046 36.8682C466.815 37.4256 466.477 37.9322 466.051 38.359C465.625 38.7858 465.119 39.1245 464.562 39.3556C464.004 39.5868 463.407 39.7059 462.804 39.7061V39.7061ZM14.944 30.5141H458.202V9.51012H14.944V30.5141V30.5141Z" fill="#90931B"/>
    <path d="M462.804 39.7061H10.348C9.74433 39.7065 9.14651 39.5879 8.58872 39.3571C8.03093 39.1262 7.52411 38.7877 7.09726 38.3609C6.6704 37.934 6.33188 37.4272 6.10105 36.8694C5.87022 36.3116 5.75161 35.7138 5.752 35.1101V4.91412C5.75161 4.31045 5.87022 3.71263 6.10105 3.15484C6.33188 2.59705 6.6704 2.09023 7.09726 1.66337C7.52411 1.23652 8.03093 0.897994 8.58872 0.667163C9.14651 0.436332 9.74433 0.317722 10.348 0.318116H462.798C463.402 0.317722 464 0.436332 464.557 0.667163C465.115 0.897994 465.622 1.23652 466.049 1.66337C466.476 2.09023 466.814 2.59705 467.045 3.15484C467.276 3.71263 467.394 4.31045 467.394 4.91412V35.1101C467.395 35.7133 467.276 36.3107 467.046 36.8682C466.815 37.4256 466.477 37.9322 466.051 38.359C465.625 38.7858 465.119 39.1245 464.562 39.3556C464.004 39.5868 463.407 39.7059 462.804 39.7061V39.7061ZM14.944 30.5141H458.202V9.51012H14.944V30.5141V30.5141Z" fill="#90931B"/>
</svg>
