<svg viewBox="0 0 398 575" fill="none" xmlns="http://www.w3.org/2000/svg">
    <path d="M203.118 83.7492L197.358 82.0792C198.698 77.4092 201.108 63.9088 196.138 57.6988C188.268 47.8688 192.048 31.2188 192.218 30.5188L198.058 31.8788C198.028 32.0188 194.788 46.3988 200.818 53.9488C208.748 63.8588 203.358 82.9392 203.118 83.7492Z" fill="#87900F"/>
    <path d="M192.198 30.5689C192.198 30.5689 203.958 -0.141116 232.648 1.85889C238.858 2.28889 245.098 2.07889 251.228 0.748886C251.458 0.698886 251.698 0.638886 251.928 0.578886C255.698 -0.411115 259.018 3.26889 257.488 6.84889C250.628 22.9889 232.348 50.7189 192.198 30.5689Z" fill="#87900F"/>
    <path d="M143.728 22.4088C156.458 21.2888 183.018 22.1388 195.568 46.0988C195.568 46.0988 159.848 58.6488 140.248 29.6088C138.268 26.6788 140.208 22.7188 143.728 22.4088Z" fill="#87900F"/>
    <path d="M394.098 404.849C394.098 522.389 306.848 570.819 199.228 570.819C91.6083 570.819 4.35834 522.379 4.35834 404.849C4.35834 287.319 91.6083 73.3792 199.228 73.3792C306.848 73.3792 394.098 287.309 394.098 404.849Z" fill="#FD94B3"/>
    <path d="M371.118 374.649C371.118 481.479 294.158 525.499 199.228 525.499C104.298 525.499 27.3383 481.479 27.3383 374.649C27.3383 267.819 104.298 73.3792 199.228 73.3792C294.158 73.3792 371.118 267.819 371.118 374.649Z" fill="#FCAFC5"/>
    <path d="M199.228 574.819C141.698 574.819 93.2083 561.079 59.0083 535.089C20.0883 505.509 0.348328 461.689 0.348328 404.839C0.348328 343.819 22.9283 260.749 57.8683 193.189C76.6483 156.879 98.3483 126.639 120.628 105.719C146.308 81.5993 172.758 69.3689 199.218 69.3689C225.678 69.3689 252.128 81.5993 277.808 105.719C300.088 126.639 321.788 156.879 340.568 193.189C375.508 260.739 398.088 343.819 398.088 404.839C398.088 461.689 378.358 505.509 339.428 535.089C305.248 561.079 256.758 574.819 199.228 574.819ZM199.228 77.3793C174.868 77.3793 150.268 88.8793 126.118 111.559C104.498 131.859 83.3583 161.359 64.9883 196.869C30.5883 263.369 8.35833 345.009 8.35833 404.839C8.35833 459.049 27.0283 500.729 63.8583 528.719C96.6483 553.639 143.458 566.809 199.228 566.809C254.998 566.809 301.808 553.639 334.608 528.719C371.438 500.729 390.108 459.049 390.108 404.839C390.108 345.009 367.878 263.369 333.478 196.869C315.108 161.359 293.968 131.859 272.348 111.559C248.188 88.8793 223.588 77.3793 199.228 77.3793Z" fill="#FF6B9A"/>
    <path d="M320.399 396.893C331.153 392.715 337.383 382.926 334.314 375.029C331.246 367.132 320.04 364.118 309.286 368.297C298.533 372.475 292.302 382.265 295.371 390.161C298.44 398.058 309.645 401.072 320.399 396.893Z" fill="#FD94B3"/>
    <path d="M103.074 390.162C106.142 382.265 99.9123 372.476 89.1583 368.297C78.4043 364.118 67.1993 367.132 64.1303 375.029C61.0623 382.926 67.2923 392.715 78.0463 396.894C88.8003 401.073 100.005 398.059 103.074 390.162Z" fill="#FD94B3"/>
    <path d="M223.682 390.224C223.708 389.838 223.477 389.483 223.127 389.318C215.069 385.522 211.87 383.963 199.524 383.963C186.142 383.963 184 385.093 175.887 389.308C175.556 389.48 175.339 389.825 175.364 390.197C175.374 390.341 175.386 390.484 175.403 390.626C175.531 391.758 176.747 392.309 177.826 391.944C183.789 389.923 191.322 388.72 199.524 388.72C207.726 388.72 215.259 389.923 221.222 391.944C222.301 392.309 223.518 391.758 223.646 390.627C223.661 390.493 223.673 390.359 223.682 390.224Z" fill="#9C4400"/>
    <path d="M108.183 285.756C106.795 286.176 105.226 285.824 104.147 284.709C102.613 283.125 102.641 280.589 104.234 279.052C122.263 261.556 145.735 264.177 146.722 264.296C148.913 264.564 150.477 266.556 150.209 268.748C149.942 270.939 147.959 272.499 145.767 272.232C145.499 272.209 125.004 270.036 109.801 284.786C109.329 285.263 108.767 285.579 108.183 285.756Z" fill="white"/>
    <path d="M284.729 285.593C284.144 285.388 283.595 285.048 283.15 284.564C268.481 269.049 247.975 270.457 247.77 270.469C245.569 270.642 243.645 268.995 243.472 266.794C243.299 264.594 244.947 262.67 247.148 262.497C248.139 262.42 271.692 260.807 288.962 279.065C290.479 280.665 290.406 283.204 288.806 284.72C287.67 285.785 286.088 286.068 284.729 285.593Z" fill="white"/>
    <g filter="url(#filter0_i_1_181)">
        <path d="M176.178 411.856C176.168 411.998 176.149 412.14 176.131 412.282H176.13C176.111 412.477 176.083 412.676 176.055 412.874C176.042 412.965 176.029 413.055 176.017 413.145C175.505 416.435 174.244 419.459 172.566 422.341C170.385 426.067 167.57 429.28 164.498 432.295C163.768 433.006 163.181 433.129 162.214 432.817C157.587 431.3 153.151 429.385 149.207 426.474C147.187 424.986 145.367 423.298 143.879 421.317C143.613 420.966 143.367 420.606 143.12 420.246C142.789 419.743 142.476 419.213 142.182 418.672C140.855 416.179 140.144 413.543 140.4 410.69C140.912 404.964 145.832 402.129 150.117 402.347C152.392 402.461 154.487 403.172 156.44 404.31C156.513 404.349 156.576 404.405 156.646 404.467C156.695 404.51 156.748 404.557 156.81 404.604C157.568 403.4 158.384 402.376 159.351 401.475C161.465 399.503 163.911 398.309 166.859 398.422C170.67 398.565 173.277 400.537 174.908 403.893C176.149 406.414 176.443 409.107 176.178 411.856Z" fill="#92405A"/>
        <path d="M176.178 411.856C176.168 411.998 176.149 412.14 176.131 412.282H176.13C176.111 412.477 176.083 412.676 176.055 412.874C176.042 412.965 176.029 413.055 176.017 413.145C175.505 416.435 174.244 419.459 172.566 422.341C170.385 426.067 167.57 429.28 164.498 432.295C163.768 433.006 163.181 433.129 162.214 432.817C157.587 431.3 153.151 429.385 149.207 426.474C147.187 424.986 145.367 423.298 143.879 421.317C143.613 420.966 143.367 420.606 143.12 420.246C142.789 419.743 142.476 419.213 142.182 418.672C140.855 416.179 140.144 413.543 140.4 410.69C140.912 404.964 145.832 402.129 150.117 402.347C152.392 402.461 154.487 403.172 156.44 404.31C156.513 404.349 156.576 404.405 156.646 404.467C156.695 404.51 156.748 404.557 156.81 404.604C157.568 403.4 158.384 402.376 159.351 401.475C161.465 399.503 163.911 398.309 166.859 398.422C170.67 398.565 173.277 400.537 174.908 403.893C176.149 406.414 176.443 409.107 176.178 411.856Z" stroke="#B83962" stroke-width="1.09722"/>
        <path d="M243.8 444.695C243.738 444.875 243.677 445.053 243.615 445.231C243.554 445.409 243.492 445.586 243.43 445.767C243.174 446.487 242.899 447.207 242.615 447.909C239.325 456.062 234.282 463.115 228.234 469.505C220.393 477.791 211.226 484.37 201.518 490.285C199.215 491.689 197.622 491.641 195.337 490.257C184.331 483.573 174.073 476.008 165.664 466.158C161.351 461.105 157.682 455.683 155.037 449.701C154.573 448.649 154.136 447.577 153.729 446.487C153.169 444.98 152.686 443.444 152.259 441.861C150.335 434.656 150.069 427.441 152.44 420.255C157.189 405.836 171.533 401.485 182.454 404.585C188.246 406.234 193.204 409.325 197.556 413.43C197.723 413.591 197.861 413.783 198.018 414.003C198.11 414.132 198.209 414.269 198.324 414.416C200.988 411.761 203.708 409.619 206.723 407.884C213.35 404.073 220.346 402.461 227.883 404.518C237.609 407.173 243.146 413.809 245.326 423.422C246.985 430.674 246.123 437.765 243.8 444.695Z" fill="#96324F"/>
        <path d="M243.8 444.695C243.738 444.875 243.677 445.053 243.615 445.231C243.554 445.409 243.492 445.586 243.43 445.767C243.174 446.487 242.899 447.207 242.615 447.909C239.325 456.062 234.282 463.115 228.234 469.505C220.393 477.791 211.226 484.37 201.518 490.285C199.215 491.689 197.622 491.641 195.337 490.257C184.331 483.573 174.073 476.008 165.664 466.158C161.351 461.105 157.682 455.683 155.037 449.701C154.573 448.649 154.136 447.577 153.729 446.487C153.169 444.98 152.686 443.444 152.259 441.861C150.335 434.656 150.069 427.441 152.44 420.255C157.189 405.836 171.533 401.485 182.454 404.585C188.246 406.234 193.204 409.325 197.556 413.43C197.723 413.591 197.861 413.783 198.018 414.003C198.11 414.132 198.209 414.269 198.324 414.416C200.988 411.761 203.708 409.619 206.723 407.884C213.35 404.073 220.346 402.461 227.883 404.518C237.609 407.173 243.146 413.809 245.326 423.422C246.985 430.674 246.123 437.765 243.8 444.695Z" stroke="#AA3256" stroke-width="1.09722"/>
        <path d="M255.29 452.374C255.224 452.45 255.16 452.528 255.096 452.606C255.032 452.685 254.968 452.763 254.901 452.839C254.636 453.152 254.361 453.455 254.077 453.749C250.863 457.171 246.995 459.702 242.748 461.712C237.24 464.319 231.409 465.817 225.437 466.888C224.024 467.144 223.238 466.812 222.365 465.675C218.185 460.224 214.544 454.479 212.259 447.947C211.093 444.6 210.316 441.188 210.155 437.708C210.126 437.092 210.117 436.476 210.126 435.86C210.145 435.006 210.193 434.144 210.288 433.272C210.724 429.309 211.985 425.668 214.554 422.559C219.701 416.302 227.684 416.909 232.519 420.568C235.088 422.512 236.946 425.005 238.32 427.887C238.376 428.004 238.407 428.129 238.443 428.273C238.463 428.35 238.484 428.433 238.51 428.522C240.349 427.716 242.113 427.176 243.952 426.891C247.981 426.275 251.782 426.825 255.129 429.309C259.452 432.513 260.921 436.884 260.153 442.088C259.585 446.013 257.783 449.378 255.29 452.374Z" fill="#A7365A"/>
        <path d="M255.29 452.374C255.224 452.45 255.16 452.528 255.096 452.606C255.032 452.685 254.968 452.763 254.901 452.839C254.636 453.152 254.361 453.455 254.077 453.749C250.863 457.171 246.995 459.702 242.748 461.712C237.24 464.319 231.409 465.817 225.437 466.888C224.024 467.144 223.238 466.812 222.365 465.675C218.185 460.224 214.544 454.479 212.259 447.947C211.093 444.6 210.316 441.188 210.155 437.708C210.126 437.092 210.117 436.476 210.126 435.86C210.145 435.006 210.193 434.144 210.288 433.272C210.724 429.309 211.985 425.668 214.554 422.559C219.701 416.302 227.684 416.909 232.519 420.568C235.088 422.512 236.946 425.005 238.32 427.887C238.376 428.004 238.407 428.129 238.443 428.273C238.463 428.35 238.484 428.433 238.51 428.522C240.349 427.716 242.113 427.176 243.952 426.891C247.981 426.275 251.782 426.825 255.129 429.309C259.452 432.513 260.921 436.884 260.153 442.088C259.585 446.013 257.783 449.378 255.29 452.374Z" stroke="#B5325B" stroke-width="1.09722"/>
    </g>
    <path d="M263.147 450.154C258.236 442.774 233.465 461.476 217.431 463.955C205.388 465.817 198.207 478.136 200.914 489.107C203.621 500.077 215.332 506.27 227.243 503.687C265.417 495.404 269.406 459.557 263.147 450.154Z" fill="#FCAFC5"/>
    <path d="M221.81 508.075C210.127 508.075 199.916 500.923 197.228 490.019C195.614 483.465 196.896 476.379 200.752 470.585C204.533 464.905 210.251 461.22 216.852 460.194C223.045 459.235 231.261 455.359 238.518 451.94C250.932 446.089 261.646 441.026 266.319 448.046C270.479 454.286 270.337 466.615 265.996 477.348C262.377 486.276 252.642 502.062 228.06 507.4C225.942 507.856 223.852 508.075 221.81 508.075ZM259.157 452.168C255.843 452.168 247.161 456.262 241.747 458.817C233.655 462.635 225.286 466.577 218.011 467.707C213.547 468.4 209.662 470.917 207.078 474.802C204.4 478.83 203.497 483.712 204.609 488.204C206.774 497 216.368 502.176 226.436 499.982C247.598 495.385 255.89 482.049 258.939 474.508C263.004 464.468 261.997 455.378 260.022 452.32C259.803 452.215 259.509 452.168 259.157 452.168Z" fill="#FF6B9A"/>
    <path d="M256.963 448.682C256.963 448.682 252.433 501.54 202.776 493.808C202.776 493.808 217.194 519.862 251.16 492.004C251.16 492.004 279.512 461.448 256.963 448.682Z" fill="#FD94B3"/>
    <path d="M221.81 508.075C210.127 508.075 199.916 500.923 197.228 490.019C195.614 483.465 196.896 476.379 200.752 470.585C204.533 464.905 210.251 461.22 216.852 460.194C223.045 459.235 231.261 455.359 238.518 451.94C250.932 446.089 261.646 441.026 266.319 448.046C270.479 454.286 270.337 466.615 265.996 477.348C262.377 486.276 252.642 502.062 228.06 507.4C225.942 507.856 223.852 508.075 221.81 508.075ZM259.157 452.168C255.843 452.168 247.161 456.262 241.747 458.817C233.655 462.635 225.286 466.577 218.011 467.707C213.547 468.4 209.662 470.917 207.078 474.802C204.4 478.83 203.497 483.712 204.609 488.204C206.774 497 216.368 502.176 226.436 499.982C247.598 495.385 255.89 482.049 258.939 474.508C263.004 464.468 261.997 455.378 260.022 452.32C259.803 452.215 259.509 452.168 259.157 452.168Z" fill="#FF6B9A"/>
    <path d="M209.909 484.69C209.719 484.69 209.529 484.671 209.339 484.624C208.076 484.31 207.297 483.056 207.591 481.784C207.667 481.47 209.538 473.976 219.094 470.728C220.328 470.31 221.687 470.974 222.105 472.209C222.522 473.454 221.858 474.802 220.623 475.22C213.651 477.585 212.264 482.676 212.207 482.895C211.932 483.978 210.963 484.69 209.909 484.69Z" fill="white"/>
    <path d="M133.78 426.18C136.724 417.822 165.333 429.828 181.49 428.28C193.619 427.111 203.621 437.284 203.706 448.587C203.792 459.89 193.971 468.78 181.794 469.217C142.746 470.585 130.028 436.837 133.78 426.18Z" fill="#FCAFC5"/>
    <path d="M179.457 473.045C155.901 473.045 143.259 460.745 137.741 453.241C130.883 443.904 127.701 432.003 130.189 424.917C132.982 416.977 144.617 419.228 158.086 421.84C165.96 423.369 174.879 425.088 181.119 424.49C187.768 423.853 194.218 426.019 199.28 430.588C204.447 435.251 207.439 441.796 207.496 448.549C207.591 461.752 196.355 472.485 181.917 472.998C181.091 473.026 180.265 473.045 179.457 473.045ZM137.342 427.501C136.183 430.949 137.446 440.01 143.867 448.729C148.692 455.283 160.014 466.178 181.651 465.399C191.947 465.029 199.964 457.648 199.898 448.596C199.86 443.971 197.789 439.459 194.199 436.22C190.732 433.095 186.343 431.613 181.851 432.041C174.528 432.744 165.438 430.987 156.652 429.286C150.155 428.042 139.327 425.943 137.342 427.501Z" fill="#FF6B9A"/>
    <path d="M139.412 423.226C139.412 423.226 156.842 473.33 203.061 453.593C203.061 453.593 195.509 482.401 155.721 463.775C155.721 463.784 120.71 441.159 139.412 423.226Z" fill="#FD94B3"/>
    <path d="M179.457 473.045C155.901 473.045 143.259 460.745 137.741 453.241C130.883 443.904 127.701 432.003 130.189 424.917C132.982 416.977 144.617 419.228 158.086 421.84C165.96 423.369 174.879 425.088 181.119 424.49C187.768 423.853 194.218 426.019 199.28 430.588C204.447 435.251 207.439 441.796 207.496 448.549C207.591 461.752 196.355 472.485 181.917 472.998C181.091 473.026 180.265 473.045 179.457 473.045ZM137.342 427.501C136.183 430.949 137.446 440.01 143.867 448.729C148.692 455.283 160.014 466.178 181.651 465.399C191.947 465.029 199.964 457.648 199.898 448.596C199.86 443.971 197.789 439.459 194.199 436.22C190.732 433.095 186.343 431.613 181.851 432.041C174.528 432.744 165.438 430.987 156.652 429.286C150.155 428.042 139.327 425.943 137.342 427.501Z" fill="#FF6B9A"/>
    <path d="M193.315 446.602C192.47 446.602 191.644 446.146 191.216 445.348C191.093 445.12 188.481 440.561 181.167 439.991C179.856 439.887 178.887 438.747 178.982 437.436C179.087 436.125 180.236 435.137 181.537 435.251C191.596 436.04 195.262 442.84 195.414 443.125C196.022 444.284 195.576 445.718 194.408 446.326C194.066 446.516 193.686 446.602 193.315 446.602Z" fill="white"/>
    <path d="M290.688 335.645C290.688 353.835 279.418 365.285 265.518 365.285C251.618 365.285 240.348 353.835 240.348 335.645C240.348 317.455 246.938 299.415 260.838 299.415C274.738 299.415 290.688 317.455 290.688 335.645Z" fill="#713D15"/>
    <path d="M280.998 326.715C284.118 326.715 286.648 324.185 286.648 321.065C286.648 317.944 284.118 315.415 280.998 315.415C277.878 315.415 275.348 317.944 275.348 321.065C275.348 324.185 277.878 326.715 280.998 326.715Z" fill="white"/>
    <path d="M260.333 363.463C266.882 363.469 272.2 355.329 272.208 345.282C272.216 335.236 266.913 327.088 260.363 327.083C253.812 327.077 248.496 335.217 248.488 345.263C248.48 355.309 253.783 363.457 260.333 363.463Z" fill="white"/>
    <path d="M104.348 335.645C104.348 353.835 115.618 365.285 129.518 365.285C143.418 365.285 154.688 353.835 154.688 335.645C154.688 317.455 148.098 299.415 134.198 299.415C120.298 299.415 104.348 317.455 104.348 335.645Z" fill="#713D15"/>
    <path d="M113.998 326.715C117.119 326.715 119.648 324.185 119.648 321.065C119.648 317.944 117.119 315.415 113.998 315.415C110.878 315.415 108.348 317.944 108.348 321.065C108.348 324.185 110.878 326.715 113.998 326.715Z" fill="white"/>
    <path d="M145.773 345.462C145.933 335.417 140.754 327.19 134.205 327.085C127.655 326.981 122.216 335.039 122.055 345.084C121.896 355.129 127.075 363.356 133.623 363.461C140.173 363.565 145.612 355.507 145.773 345.462Z" fill="white"/>
    <defs>
        <filter id="filter0_i_1_181" x="139.8" y="397.866" width="121.097" height="98.3882" filterUnits="userSpaceOnUse" color-interpolation-filters="sRGB">
            <feFlood flood-opacity="0" result="BackgroundImageFix"/>
            <feBlend mode="normal" in="SourceGraphic" in2="BackgroundImageFix" result="shape"/>
            <feColorMatrix in="SourceAlpha" type="matrix" values="0 0 0 0 0 0 0 0 0 0 0 0 0 0 0 0 0 0 127 0" result="hardAlpha"/>
            <feOffset dy="4.38889"/>
            <feGaussianBlur stdDeviation="10.9722"/>
            <feComposite in2="hardAlpha" operator="arithmetic" k2="-1" k3="1"/>
            <feColorMatrix type="matrix" values="0 0 0 0 0.847059 0 0 0 0 0.203922 0 0 0 0 0.407843 0 0 0 1 0"/>
            <feBlend mode="normal" in2="shape" result="effect1_innerShadow_1_181"/>
        </filter>
    </defs>
</svg>
