<svg viewBox="0 0 501 472" fill="none" xmlns="http://www.w3.org/2000/svg">
    <path d="M474.868 100.107L464.078 178.387L458.808 216.577L426.788 448.877C388.908 459.127 324.078 465.877 250.478 465.877C176.878 465.877 112.048 459.127 74.168 448.877L42.148 216.577L36.878 178.387L26.088 100.107H474.868Z" fill="#AF6646"/>
    <path d="M250.478 471.307C178.978 471.307 112.538 464.887 72.758 454.117C71.7296 453.838 70.8059 453.262 70.1019 452.462C69.3978 451.662 68.9444 450.673 68.798 449.617L20.718 100.847C20.6123 100.079 20.6725 99.2965 20.8944 98.5532C21.1164 97.81 21.495 97.123 22.0047 96.5384C22.5145 95.9538 23.1436 95.4851 23.8496 95.1641C24.5557 94.843 25.3224 94.6769 26.098 94.677H474.868C476.438 94.677 477.928 95.357 478.958 96.537C479.468 97.1221 479.846 97.8092 480.069 98.5526C480.291 99.2959 480.352 100.078 480.248 100.847L432.168 449.617C432.022 450.673 431.568 451.662 430.864 452.462C430.16 453.262 429.236 453.838 428.208 454.117C388.428 464.877 321.988 471.307 250.478 471.307V471.307ZM79.058 444.547C118.318 454.527 181.938 460.447 250.488 460.447C319.038 460.447 382.658 454.527 421.918 444.547L468.648 105.537H32.318L79.058 444.547V444.547Z" fill="#724526"/>
    <path d="M250.478 93.497C385.655 93.497 495.238 73.811 495.238 49.527C495.238 25.243 385.655 5.55701 250.478 5.55701C115.301 5.55701 5.71802 25.243 5.71802 49.527C5.71802 73.811 115.301 93.497 250.478 93.497V93.497Z" fill="#AF6646"/>
    <path d="M250.478 98.917C184.788 98.917 122.978 94.317 76.448 85.957C25.208 76.747 0.297974 64.837 0.297974 49.527C0.297974 34.217 25.208 22.297 76.448 13.097C122.978 4.73696 184.788 0.136963 250.478 0.136963C316.168 0.136963 377.988 4.73696 424.508 13.097C475.748 22.297 500.658 34.217 500.658 49.527C500.658 64.837 475.748 76.747 424.508 85.957C377.978 94.307 316.168 98.917 250.478 98.917V98.917ZM250.478 10.977C185.398 10.977 124.278 15.517 78.358 23.767C11.898 35.707 11.138 48.967 11.138 49.517C11.138 50.077 11.898 63.327 78.358 75.267C124.278 83.517 185.408 88.057 250.478 88.057C315.548 88.057 376.668 83.517 422.598 75.267C489.058 63.327 489.818 50.077 489.818 49.517C489.818 48.957 489.058 35.697 422.598 23.767C376.678 15.527 315.558 10.977 250.478 10.977V10.977Z" fill="#8C422F"/>
    <path d="M36.888 178.387C79.738 191.577 160.438 201.317 250.488 201.317C340.538 201.317 421.238 191.577 464.088 178.387L458.818 216.577C415.698 229.117 338.528 237.457 250.488 237.457C162.448 237.457 85.288 229.117 42.158 216.577L36.888 178.387V178.387Z" fill="#9B5138"/>
    <path d="M15.278 94.747C15.278 94.747 41.048 22.257 135.948 60.6969C135.948 60.6969 189.838 9.89695 260.138 40.9269C260.138 40.9269 316.378 7.69695 372.608 39.827C372.608 39.827 481.568 27.7469 474.538 82.6569C467.508 137.577 15.278 94.747 15.278 94.747V94.747Z" fill="#664435"/>
    <path d="M315.958 116.077C293.538 116.077 268.898 115.627 242.098 114.717C129.298 110.907 15.908 100.247 14.778 100.147C13.9559 100.07 13.1624 99.8057 12.4585 99.374C11.7547 98.9423 11.1592 98.355 10.718 97.657C10.2739 96.9617 9.99447 96.1742 9.90089 95.3545C9.80731 94.5348 9.90209 93.7046 10.178 92.927C10.588 91.767 20.588 64.457 50.328 51.097C73.628 40.627 102.068 41.757 134.898 54.437C140.008 50.207 152.238 41.047 169.698 34.127C190.508 25.877 222.868 19.457 259.858 34.897C271.588 28.747 322.068 5.71704 373.788 34.257C385.218 33.187 446.358 28.747 470.368 53.167C478.248 61.187 481.468 71.337 479.928 83.347C477.898 99.187 452.588 108.647 400.288 113.117C377.268 115.097 349.048 116.077 315.958 116.077V116.077ZM23.548 90.057C50.998 92.507 146.978 100.667 242.498 103.887C308.428 106.107 361.208 105.587 399.368 102.327C462.398 96.937 468.718 85.397 469.158 81.987C470.268 73.317 468.128 66.387 462.618 60.787C453.588 51.607 435.418 45.977 410.078 44.517C390.348 43.377 373.378 45.217 373.208 45.237C372.068 45.367 370.918 45.127 369.918 44.557C317.028 14.337 263.428 45.297 262.898 45.617C261.388 46.507 259.548 46.617 257.948 45.907C191.718 16.667 140.188 64.177 139.678 64.667C138.922 65.3795 137.977 65.8599 136.956 66.0514C135.935 66.2428 134.881 66.1372 133.918 65.747C102.708 53.107 76.138 51.487 54.928 60.947C37.708 68.607 28.038 82.047 23.548 90.057V90.057Z" fill="#4C291B"/>
    <path d="M250.478 471.307C178.978 471.307 112.538 464.887 72.758 454.117C71.7296 453.838 70.8059 453.262 70.1019 452.462C69.3978 451.662 68.9444 450.673 68.798 449.617L20.718 100.847C20.6123 100.079 20.6725 99.2965 20.8944 98.5532C21.1164 97.81 21.495 97.123 22.0047 96.5384C22.5145 95.9538 23.1436 95.4851 23.8496 95.1641C24.5557 94.843 25.3224 94.6769 26.098 94.677H474.868C476.438 94.677 477.928 95.357 478.958 96.537C479.468 97.1221 479.846 97.8092 480.069 98.5526C480.291 99.2959 480.352 100.078 480.248 100.847L432.168 449.617C432.022 450.673 431.568 451.662 430.864 452.462C430.16 453.262 429.236 453.838 428.208 454.117C388.428 464.877 321.988 471.307 250.478 471.307V471.307ZM79.058 444.547C118.318 454.527 181.938 460.447 250.488 460.447C319.038 460.447 382.658 454.527 421.918 444.547L468.648 105.537H32.318L79.058 444.547V444.547Z" fill="#724526"/>
    <path d="M200.738 113.767C200.738 113.767 200.738 65.037 266.948 77.707C266.948 77.707 333.158 33.957 378.678 109.037L200.738 113.767Z" fill="#664435"/>
    <path d="M200.738 119.187C199.328 119.187 197.968 118.637 196.948 117.647C196.428 117.141 196.015 116.537 195.733 115.868C195.452 115.2 195.307 114.482 195.308 113.757C195.308 112.957 195.488 94.027 210.958 81.237C223.488 70.877 241.968 67.767 265.888 71.987C272.968 67.847 298.258 54.867 327.288 61.387C349.458 66.367 368.308 81.447 383.328 106.217C383.82 107.029 384.09 107.957 384.111 108.906C384.132 109.856 383.903 110.794 383.447 111.627C382.992 112.461 382.325 113.16 381.514 113.655C380.704 114.149 379.777 114.423 378.828 114.447L200.888 119.177C200.838 119.187 200.788 119.187 200.738 119.187V119.187ZM246.538 81.007C234.398 81.007 224.808 83.877 217.878 89.607C210.838 95.427 208.028 103.057 206.908 108.167L368.808 103.867C356.428 86.497 341.728 75.787 325.018 72.007C296.008 65.447 270.198 82.067 269.938 82.237C268.757 83.0082 267.325 83.2947 265.938 83.037C258.878 81.677 252.408 81.007 246.538 81.007V81.007Z" fill="#4C291B"/>
    <path d="M495.238 49.527V157.357C495.238 163.987 487.078 170.267 472.448 175.907C433.498 190.917 348.758 201.317 250.478 201.317C152.198 201.317 67.458 190.917 28.498 175.907C13.878 170.267 5.70801 163.987 5.70801 157.357V49.527C5.70801 73.807 115.288 93.497 250.468 93.497C385.648 93.497 495.238 73.807 495.238 49.527Z" fill="#AF6646"/>
    <path d="M250.478 206.747C155.088 206.747 67.188 196.627 26.548 180.967C8.87803 174.147 0.288025 166.427 0.288025 157.347V49.527C0.288025 46.527 2.71802 44.097 5.71802 44.097C8.71802 44.097 11.148 46.527 11.148 49.527C11.148 50.087 11.908 63.337 78.368 75.277C124.288 83.527 185.418 88.067 250.488 88.067C315.558 88.067 376.678 83.527 422.608 75.277C489.068 63.337 489.828 50.087 489.828 49.527C489.828 46.527 492.258 44.097 495.258 44.097C498.258 44.097 500.688 46.527 500.688 49.527V157.357C500.688 166.427 492.098 174.157 474.428 180.977C433.768 196.627 345.868 206.747 250.478 206.747V206.747ZM11.138 65.527V157.347C11.138 158.357 12.068 163.747 30.448 170.837C69.938 186.057 156.308 195.887 250.468 195.887C344.638 195.887 430.998 186.057 470.488 170.837C488.868 163.747 489.798 158.357 489.798 157.347V65.527C477.938 73.487 456.278 80.237 424.498 85.947C377.978 94.307 316.168 98.917 250.478 98.917C184.788 98.917 122.978 94.317 76.448 85.957C44.658 80.237 23.008 73.487 11.138 65.527V65.527Z" fill="#8C422F"/>
</svg>
