<?xml version="1.0" standalone="no"?>
<!DOCTYPE svg PUBLIC "-//W3C//DTD SVG 20010904//EN"
 "http://www.w3.org/TR/2001/REC-SVG-20010904/DTD/svg10.dtd">
<svg version="1.0" xmlns="http://www.w3.org/2000/svg"
 width="156.000000pt" height="156.000000pt" viewBox="0 0 156.000000 156.000000"
 preserveAspectRatio="xMidYMid meet">
<metadata>
Created by potrace 1.14, written by Peter Selinger 2001-2017
</metadata>
<g transform="translate(0.000000,156.000000) scale(0.100000,-0.100000)"
fill="#000000" stroke="none">
<path d="M761 1270 c-17 -17 -31 -34 -31 -38 0 -4 -7 -15 -14 -25 -13 -17 -17
-17 -51 -3 -21 9 -61 16 -90 16 -41 0 -57 -5 -79 -25 -14 -13 -26 -33 -26 -44
0 -21 24 -50 43 -52 80 -8 175 -39 188 -61 4 -8 9 -47 11 -88 l3 -72 -55 -15
c-166 -42 -290 -186 -341 -393 l-21 -85 -144 3 -144 3 0 -50 0 -51 108 -1 c59
0 201 -2 317 -4 116 -2 414 -6 663 -9 l452 -7 0 51 0 50 -112 1 c-62 1 -130 1
-150 1 -41 0 -35 -11 -68 118 -47 182 -206 353 -352 377 -42 6 -44 11 -53 98
-4 33 -11 77 -16 97 -9 34 -6 42 31 99 44 68 49 97 22 122 -27 25 -55 21 -91
-13z m145 -521 c99 -47 178 -154 222 -301 l20 -68 -21 -1 c-61 -3 -673 6 -714
10 -16 1 16 121 51 190 48 93 138 168 231 192 52 14 158 3 211 -22z"/>
<path d="M599 517 c-24 -41 -24 -72 1 -97 27 -27 65 -26 84 2 32 45 9 109 -42
121 -18 4 -27 -1 -43 -26z"/>
<path d="M876 531 c-9 -10 -19 -34 -23 -53 -10 -65 66 -101 105 -51 18 25 15
67 -9 97 -24 31 -49 33 -73 7z"/>
</g>
</svg>
