<svg width="514" height="576" viewBox="0 0 514 576" fill="none" xmlns="http://www.w3.org/2000/svg">
    <path d="M447.494 420.384C437.824 413.454 462.054 379.574 469.524 369.144C476.994 358.714 490.894 355.874 500.564 362.804C510.234 369.734 512.024 383.804 504.554 394.234C497.084 404.664 457.164 427.314 447.494 420.384Z" fill="#FFD06C"/>
    <path d="M501.334 365.004C501.334 365.004 508.514 405.474 453.794 393.024C451.804 392.574 452.064 421.684 452.064 421.684C452.064 421.684 505.404 409.424 509.174 380.804C509.174 380.804 511.334 365.294 501.334 365.004Z" fill="#F9BE58"/>
    <path d="M477.634 376.914C477.044 376.914 476.454 376.704 475.984 376.294C474.954 375.384 474.844 373.814 475.754 372.774C478.924 369.164 487.234 363.634 496.044 368.564C497.254 369.234 497.674 370.764 497.004 371.964C496.334 373.174 494.804 373.594 493.604 372.924C486.154 368.754 479.774 375.774 479.514 376.074C479.014 376.634 478.324 376.914 477.634 376.914Z" fill="white"/>
    <path d="M65.674 420.384C75.344 413.454 51.114 379.574 43.644 369.144C36.174 358.714 22.2741 355.874 12.6041 362.804C2.93409 369.734 1.14398 383.804 8.61398 394.234C16.074 404.674 56.004 427.314 65.674 420.384Z" fill="#FFD06C"/>
    <path d="M11.8341 365.004C11.8341 365.004 4.65411 405.474 59.374 393.024C61.364 392.574 61.104 421.684 61.104 421.684C61.104 421.684 7.76409 409.424 3.99409 380.804C3.99409 380.804 1.83409 365.294 11.8341 365.004Z" fill="#F9BE58"/>
    <path d="M35.5341 376.924C34.8441 376.924 34.1541 376.634 33.6541 376.074C33.3741 375.754 27.0041 368.754 19.5641 372.924C18.3541 373.594 16.8341 373.164 16.1641 371.964C15.4941 370.764 15.9241 369.234 17.1241 368.564C25.9341 363.634 34.2441 369.164 37.4141 372.774C38.3241 373.814 38.2241 375.394 37.1841 376.304C36.7141 376.714 36.1241 376.924 35.5341 376.924Z" fill="white"/>
    <path d="M260.084 83.3339L254.324 81.6639C255.664 76.9939 258.074 63.4935 253.104 57.2835C245.234 47.4535 249.014 30.8035 249.184 30.1035L255.024 31.4635C254.994 31.6035 251.744 45.9835 257.784 53.5335C265.714 63.4435 260.324 82.5239 260.084 83.3339Z" fill="#87900F"/>
    <path d="M249.164 30.1536C249.164 30.1536 260.924 -0.556399 289.614 1.4436C295.824 1.8736 302.064 1.6636 308.194 0.333601C308.424 0.283601 308.664 0.223603 308.894 0.163603C312.664 -0.826397 315.984 2.8536 314.454 6.4336C307.594 22.5736 289.314 50.3036 249.164 30.1536Z" fill="#87900F"/>
    <path d="M200.694 21.9934C213.424 20.8734 239.984 21.7235 252.534 45.6835C252.534 45.6835 216.814 58.2335 197.214 29.1934C195.234 26.2634 197.184 22.3034 200.694 21.9934Z" fill="#87900F"/>
    <path d="M451.064 404.434C451.064 521.974 363.814 570.404 256.194 570.404C148.574 570.404 61.324 521.964 61.324 404.434C61.324 286.904 148.574 72.9741 256.194 72.9741C363.814 72.9741 451.064 286.894 451.064 404.434Z" fill="#F9BE58"/>
    <path d="M428.094 374.234C428.094 481.064 351.134 525.084 256.204 525.084C161.274 525.084 84.314 481.064 84.314 374.234C84.314 267.404 161.274 72.9741 256.204 72.9741C351.134 72.9741 428.094 267.404 428.094 374.234Z" fill="#FFD06C"/>
    <path d="M512.964 376.714C512.064 369.664 508.494 363.564 502.894 359.564C491.444 351.354 475.014 354.614 466.274 366.824C463.604 370.544 458.914 377.084 454.314 384.414C450.154 326.044 428.794 253.214 397.544 192.784C378.754 156.484 357.054 126.234 334.784 105.314C309.094 81.204 282.654 68.9736 256.194 68.9736C229.724 68.9736 203.284 81.204 177.604 105.314C155.324 126.234 133.624 156.484 114.844 192.784C83.784 252.844 62.484 325.174 58.144 383.364C54.954 378.364 51.214 372.864 46.884 366.824C38.1441 354.614 21.7141 351.354 10.2641 359.564C-1.18589 367.764 -3.39589 384.364 5.35411 396.574C11.7441 405.504 40.8341 423.864 58.274 425.464C62.644 472.184 82.004 508.864 115.974 534.684C150.174 560.664 198.654 574.404 256.194 574.404C313.724 574.404 362.214 560.664 396.404 534.684C430.344 508.884 449.704 472.254 454.094 425.604C461.574 425.134 470.964 421.264 478.644 417.404C489.374 412.004 503.074 403.184 507.804 396.574C512.014 390.704 513.844 383.654 512.964 376.714ZM38.1041 410.254C26.4141 404.374 15.1341 396.484 11.8541 391.914C5.68411 383.294 7.05411 371.694 14.9241 366.064C17.7941 364.004 21.1341 363.024 24.5241 363.024C30.4241 363.024 36.4641 366.004 40.3841 371.474C48.474 382.774 53.864 391.314 57.414 397.744C57.354 400.004 57.324 402.234 57.324 404.434C57.324 408.844 57.444 413.184 57.684 417.434C53.434 416.754 46.924 414.684 38.1041 410.254ZM391.564 528.314C358.774 553.234 311.964 566.404 256.194 566.404C200.424 566.404 153.604 553.234 120.814 528.314C88.704 503.904 70.394 469.074 66.234 424.604C65.634 418.084 65.324 411.364 65.324 404.434C65.324 401.614 65.374 398.754 65.474 395.844C67.444 336.944 89.164 259.834 121.954 196.464C140.314 160.954 161.454 131.454 183.074 111.144C207.234 88.474 231.824 76.974 256.194 76.974C280.554 76.974 305.154 88.474 329.304 111.144C350.924 131.454 372.064 160.954 390.434 196.464C423.474 260.324 445.284 338.144 446.954 397.214C447.034 399.654 447.064 402.064 447.064 404.434C447.064 411.244 446.774 417.854 446.184 424.264C442.084 468.894 423.764 503.844 391.564 528.314ZM501.304 391.914C498.024 396.484 486.744 404.374 475.054 410.254C465.684 414.964 458.924 417.004 454.704 417.544C454.944 413.254 455.064 408.884 455.064 404.434C455.064 402.664 455.044 400.884 455.004 399.084C455.194 398.724 455.394 398.364 455.594 397.994C461.284 387.524 469.044 376.684 472.774 371.474C476.694 366.004 482.734 363.024 488.634 363.024C492.024 363.024 495.374 364.004 498.234 366.064C502.004 368.764 504.414 372.904 505.024 377.724C505.644 382.654 504.324 387.694 501.304 391.914Z" fill="#EE9D00"/>
    <path d="M352.834 325.624C352.834 343.814 341.564 355.264 327.664 355.264C313.764 355.264 302.494 343.814 302.494 325.624C302.494 307.434 309.084 289.394 322.984 289.394C336.884 289.394 352.834 307.434 352.834 325.624Z" fill="#713D15"/>
    <path d="M352.834 325.624C352.834 343.814 341.564 355.264 327.664 355.264C313.764 355.264 302.494 343.814 302.494 325.624C302.494 307.434 309.084 289.394 322.984 289.394C336.884 289.394 352.834 307.434 352.834 325.624Z" fill="#713D15"/>
    <path d="M337.464 311.614C341.661 311.614 345.064 308.211 345.064 304.014C345.064 299.816 341.661 296.414 337.464 296.414C333.267 296.414 329.864 299.816 329.864 304.014C329.864 308.211 333.267 311.614 337.464 311.614Z" fill="white"/>
    <path d="M321.966 347.835C328.479 347.143 332.899 338.483 331.837 328.493C330.775 318.503 324.634 310.966 318.121 311.659C311.607 312.351 307.188 321.011 308.25 331C309.312 340.99 315.453 348.527 321.966 347.835Z" fill="white"/>
    <path d="M354.474 268.424C353.184 268.424 351.914 267.804 351.144 266.654C351.014 266.454 337.634 246.954 317.344 250.344C315.174 250.704 313.104 249.234 312.744 247.054C312.384 244.874 313.854 242.814 316.034 242.454C341.474 238.214 357.144 261.234 357.804 262.214C359.034 264.054 358.534 266.534 356.694 267.764C356.014 268.204 355.234 268.424 354.474 268.424Z" fill="white"/>
    <path d="M380.297 385.724C391.051 381.546 397.281 371.756 394.213 363.86C391.144 355.963 379.939 352.949 369.185 357.128C358.431 361.306 352.201 371.096 355.27 378.992C358.338 386.889 369.543 389.903 380.297 385.724Z" fill="#FFAC67"/>
    <path d="M165.384 325.624C165.384 343.814 176.654 355.264 190.554 355.264C204.454 355.264 215.724 343.814 215.724 325.624C215.724 307.434 209.134 289.394 195.234 289.394C181.334 289.394 165.384 307.434 165.384 325.624Z" fill="#713D15"/>
    <path d="M180.764 311.614C184.962 311.614 188.364 308.211 188.364 304.014C188.364 299.816 184.962 296.414 180.764 296.414C176.567 296.414 173.164 299.816 173.164 304.014C173.164 308.211 176.567 311.614 180.764 311.614Z" fill="white"/>
    <path d="M209.966 330.998C211.028 321.008 206.608 312.349 200.095 311.656C193.581 310.964 187.44 318.501 186.378 328.491C185.317 338.481 189.736 347.14 196.249 347.833C202.763 348.525 208.904 340.988 209.966 330.998Z" fill="white"/>
    <path d="M163.744 268.424C162.984 268.424 162.204 268.204 161.524 267.744C159.694 266.514 159.194 264.044 160.424 262.204C161.074 261.224 176.754 238.204 202.194 242.444C204.374 242.804 205.844 244.864 205.484 247.044C205.124 249.224 203.064 250.694 200.884 250.334C180.604 246.954 167.214 266.454 167.084 266.644C166.294 267.794 165.034 268.424 163.744 268.424Z" fill="white"/>
    <path d="M162.97 379.018C166.038 371.121 159.808 361.332 149.054 357.153C138.3 352.975 127.095 355.989 124.026 363.885C120.958 371.782 127.188 381.571 137.942 385.75C148.696 389.929 159.901 386.915 162.97 379.018Z" fill="#FFAC67"/>
    <path d="M234.986 394.536C248.663 379.76 273.409 382.46 284.986 396.091" stroke="#AD5317" stroke-width="8" stroke-linecap="round"/>
</svg>
