<svg width="1000" height="1000" viewBox="0 0 1000 1000" fill="none" xmlns="http://www.w3.org/2000/svg">
<path d="M724.39 409.82L713.6 488.1L708.33 526.29L676.31 758.59C638.43 768.84 573.6 775.59 500 775.59C426.4 775.59 361.57 768.84 323.69 758.59L291.67 526.29L286.4 488.1L275.61 409.82H724.39Z" fill="#EC7131"/>
<path d="M500 781.01C428.5 781.01 362.06 774.59 322.28 763.82C320.18 763.25 318.62 761.48 318.32 759.32L270.24 410.55C270.03 409 270.49 407.43 271.53 406.24C272.56 405.06 274.05 404.38 275.62 404.38H724.39C725.96 404.38 727.45 405.06 728.48 406.24C729.51 407.42 729.98 408.99 729.77 410.55L681.69 759.32C681.39 761.48 679.83 763.25 677.73 763.82C637.95 774.59 571.51 781.01 500 781.01ZM328.58 754.26C367.84 764.24 431.46 770.16 500.01 770.16C568.56 770.16 632.18 764.24 671.44 754.26L718.17 415.25H281.84L328.58 754.26Z" fill="#724526"/>
<path d="M500 403.2C635.177 403.2 744.76 383.514 744.76 359.23C744.76 334.946 635.177 315.26 500 315.26C364.823 315.26 255.24 334.946 255.24 359.23C255.24 383.514 364.823 403.2 500 403.2Z" fill="#EC7131"/>
<path d="M500 408.62C434.31 408.62 372.5 404.02 325.97 395.66C274.73 386.45 249.82 374.54 249.82 359.23C249.82 343.92 274.73 332 325.97 322.8C372.5 314.44 434.31 309.84 500 309.84C565.69 309.84 627.5 314.44 674.03 322.8C725.27 332 750.18 343.92 750.18 359.23C750.18 374.54 725.27 386.45 674.03 395.66C627.5 404.02 565.69 408.62 500 408.62ZM500 320.69C434.92 320.69 373.8 325.23 327.88 333.48C261.42 345.42 260.66 358.68 260.66 359.23C260.66 359.78 261.42 373.04 327.88 384.98C373.8 393.23 434.93 397.77 500 397.77C565.07 397.77 626.19 393.23 672.12 384.98C738.58 373.04 739.34 359.79 739.34 359.23C739.34 358.67 738.58 345.41 672.12 333.48C626.2 325.23 565.08 320.69 500 320.69Z" fill="#AF4E23"/>
<path d="M286.41 488.1C329.26 501.29 409.96 511.03 500.01 511.03C590.06 511.03 670.76 501.29 713.61 488.1L708.34 526.29C665.22 538.83 588.05 547.17 500.01 547.17C411.97 547.17 334.81 538.83 291.68 526.29L286.41 488.1Z" fill="#E2570E"/>
<path d="M264.8 404.45C264.8 404.45 290.57 331.96 385.47 370.4C385.47 370.4 439.36 319.6 509.66 350.63C509.66 350.63 565.9 317.4 622.13 349.53C622.13 349.53 731.09 337.45 724.06 392.36C717.03 447.29 264.8 404.45 264.8 404.45Z" fill="#664435"/>
<path d="M565.47 425.78C543.05 425.78 518.41 425.33 491.61 424.42C378.81 420.61 265.42 409.95 264.29 409.85C262.62 409.69 261.13 408.78 260.23 407.36C259.33 405.95 259.13 404.2 259.69 402.63C260.1 401.47 270.1 374.16 299.84 360.8C323.14 350.33 351.58 351.46 384.41 364.14C389.52 359.91 401.75 350.75 419.21 343.83C440.02 335.58 472.38 329.16 509.37 344.6C521.1 338.45 571.58 315.42 623.3 343.96C634.73 342.89 695.87 338.45 719.89 362.87C727.77 370.89 730.99 381.04 729.45 393.05C727.42 408.89 702.11 418.35 649.81 422.82C626.79 424.8 598.57 425.78 565.47 425.78ZM273.07 399.76C300.52 402.21 396.5 410.37 492.02 413.59C557.95 415.81 610.73 415.29 648.89 412.03C711.92 406.64 718.24 395.1 718.68 391.69C719.79 383.02 717.65 376.09 712.15 370.49C703.12 361.31 684.95 355.68 659.61 354.22C639.88 353.08 622.91 354.92 622.74 354.94C621.6 355.07 620.45 354.83 619.45 354.26C566.56 324.04 512.97 355 512.43 355.32C510.92 356.21 509.08 356.32 507.48 355.61C479.84 343.41 451.61 342.79 423.6 353.79C402.45 362.09 389.34 374.25 389.21 374.37C387.67 375.82 385.42 376.24 383.46 375.45C352.25 362.81 325.67 361.19 304.47 370.65C287.23 378.31 277.56 391.76 273.07 399.76Z" fill="#4C291B"/>
<path d="M510.55 395.27C510.12 395.27 509.68 395.22 509.24 395.11C506.33 394.39 504.56 391.45 505.28 388.54C516.1 344.8 505.32 285.96 505.21 285.37C504.66 282.43 506.6 279.59 509.55 279.04C512.49 278.49 515.33 280.43 515.88 283.37C516.35 285.87 527.2 345.08 515.81 391.14C515.2 393.62 512.99 395.27 510.55 395.27Z" fill="#779B1E"/>
<path d="M510.44 285.03C510.44 285.03 515.82 238.06 569.84 244.89C569.84 244.89 540.88 296.14 510.44 285.03Z" fill="#97C941"/>
<path d="M519.32 292.05C515.8 292.05 512.22 291.46 508.58 290.13C506.22 289.27 504.76 286.91 505.05 284.42C505.15 283.56 507.67 263.1 524.64 249.77C536.33 240.59 551.77 237.14 570.51 239.51C572.3 239.74 573.87 240.84 574.68 242.46C575.49 244.08 575.44 245.99 574.55 247.56C573.42 249.58 549.04 292.05 519.32 292.05ZM516.85 281.02C534.45 283.08 552.07 261.48 560.31 249.64C548.63 249.47 538.95 252.38 531.45 258.23C522.39 265.29 518.45 275.24 516.85 281.02Z" fill="#779B1E"/>
<path d="M510.37 285.18C510.37 285.18 496.25 240.06 548.41 224.42C548.41 224.42 542.69 283 510.37 285.18Z" fill="#97C941"/>
<path d="M510.36 290.6C508 290.6 505.9 289.07 505.18 286.79C504.92 285.96 498.94 266.24 509.06 247.18C516.03 234.05 528.74 224.64 546.84 219.21C548.57 218.69 550.45 219.07 551.84 220.22C553.24 221.37 553.97 223.14 553.79 224.94C553.54 227.52 547.21 288.13 510.72 290.59C510.61 290.6 510.48 290.6 510.36 290.6ZM541.73 232.57C530.89 237.2 523.14 243.81 518.65 252.27C513.25 262.44 513.69 273.02 514.57 278.91C530.62 273.87 538.67 248.9 541.73 232.57Z" fill="#779B1E"/>
<path d="M500 781.01C428.5 781.01 362.06 774.59 322.28 763.82C320.18 763.25 318.62 761.48 318.32 759.32L270.24 410.55C270.03 409 270.49 407.43 271.53 406.24C272.56 405.06 274.05 404.38 275.62 404.38H724.39C725.96 404.38 727.45 405.06 728.48 406.24C729.51 407.42 729.98 408.99 729.77 410.55L681.69 759.32C681.39 761.48 679.83 763.25 677.73 763.82C637.95 774.59 571.51 781.01 500 781.01ZM328.58 754.26C367.84 764.24 431.46 770.16 500.01 770.16C568.56 770.16 632.18 764.24 671.44 754.26L718.17 415.25H281.84L328.58 754.26Z" fill="#AF4E23"/>
<path d="M450.26 423.47C450.26 423.47 450.26 374.74 516.47 387.41C516.47 387.41 582.68 343.66 628.2 418.74L450.26 423.47Z" fill="#664435"/>
<path d="M450.26 428.9C448.85 428.9 447.49 428.35 446.47 427.36C445.42 426.34 444.83 424.94 444.83 423.47C444.83 422.67 445.01 403.74 460.48 390.95C473.01 380.59 491.49 377.48 515.41 381.7C522.49 377.56 547.78 364.58 576.81 371.1C598.98 376.08 617.83 391.16 632.85 415.93C633.85 417.58 633.9 419.64 632.97 421.34C632.04 423.04 630.28 424.11 628.35 424.16L450.41 428.89C450.36 428.89 450.31 428.9 450.26 428.9ZM496.06 390.71C483.92 390.71 474.33 393.58 467.4 399.31C460.36 405.13 457.55 412.76 456.43 417.87L618.33 413.57C605.95 396.2 591.25 385.49 574.54 381.71C545.53 375.15 519.72 391.77 519.46 391.94C518.28 392.71 516.84 393 515.46 392.74C508.4 391.39 501.93 390.71 496.06 390.71Z" fill="#4C291B"/>
<path d="M744.76 359.23V467.06C744.76 473.69 736.6 479.97 721.97 485.61C683.02 500.62 598.28 511.02 499.99 511.02C401.7 511.02 316.97 500.62 278.01 485.61C263.39 479.97 255.22 473.69 255.22 467.06V359.23C255.22 383.51 364.8 403.2 499.98 403.2C635.16 403.2 744.76 383.51 744.76 359.23Z" fill="#EC7131"/>
<path d="M500 516.45C404.61 516.45 316.71 506.33 276.07 490.67C258.4 483.85 249.81 476.13 249.81 467.05V359.23C249.81 356.23 252.24 353.8 255.24 353.8C258.24 353.8 260.67 356.23 260.67 359.23C260.67 359.79 261.43 373.04 327.89 384.98C373.81 393.23 434.94 397.77 500.01 397.77C565.08 397.77 626.2 393.23 672.13 384.98C738.59 373.04 739.35 359.79 739.35 359.23C739.35 356.23 741.78 353.8 744.78 353.8C747.78 353.8 750.2 356.23 750.2 359.23V467.06C750.2 476.13 741.61 483.86 723.94 490.68C683.29 506.33 595.39 516.45 500 516.45ZM260.66 375.24V467.06C260.66 468.07 261.59 473.46 279.97 480.55C319.47 495.77 405.83 505.6 500 505.6C594.17 505.6 680.53 495.77 720.02 480.55C738.4 473.46 739.33 468.07 739.33 467.06V375.24C727.47 383.2 705.81 389.95 674.03 395.66C627.49 404.02 565.69 408.62 500 408.62C434.31 408.62 372.5 404.02 325.97 395.66C294.18 389.95 272.53 383.19 260.66 375.24Z" fill="#AF4E23"/>
<path d="M530.353 712.033C531.453 711.093 530.523 709.293 529.123 709.703C520.803 712.113 510.753 713.493 499.913 713.433C489.343 713.383 479.533 711.983 471.363 709.613C469.943 709.203 468.993 711.063 470.163 711.953C478.883 719.973 504.883 733.823 530.353 712.033Z" fill="#9C4400"/>
<path d="M634.053 731.773C645.953 727.153 652.843 716.323 649.443 707.583C646.053 698.843 633.653 695.513 621.753 700.133C609.853 704.753 602.963 715.583 606.363 724.323C609.763 733.063 622.153 736.393 634.053 731.773Z" fill="#FFAC67"/>
<path d="M393.623 724.323C397.013 715.583 390.123 704.753 378.223 700.133C366.323 695.513 353.933 698.843 350.533 707.583C347.143 716.323 354.033 727.153 365.933 731.773C377.833 736.393 390.223 733.063 393.623 724.323Z" fill="#FFAC67"/>
<path d="M403.763 610.543C402.173 610.723 400.533 610.033 399.573 608.603C398.213 606.573 398.743 603.823 400.783 602.463C423.863 586.983 448.903 594.473 449.953 594.793C452.283 595.513 453.593 597.993 452.873 600.323C452.153 602.653 449.683 603.963 447.353 603.243C447.063 603.163 425.183 596.753 405.723 609.803C405.113 610.233 404.443 610.463 403.763 610.543Z" fill="white"/>
<path d="M593.573 609.803C574.113 596.753 552.233 603.163 551.943 603.243C549.613 603.963 547.143 602.663 546.423 600.323C545.703 597.993 547.003 595.513 549.343 594.793C550.393 594.463 575.423 586.973 598.513 602.463C600.553 603.823 601.083 606.573 599.723 608.603C598.773 610.033 597.133 610.723 595.533 610.543C594.853 610.463 594.183 610.233 593.573 609.803Z" fill="white"/>
<path d="M394.993 664.013C394.993 684.153 407.493 696.763 422.873 696.763C438.253 696.763 450.753 684.043 450.753 664.013C450.753 643.983 443.453 623.963 428.073 623.963C412.693 623.963 394.993 643.883 394.993 664.013Z" fill="#713D15"/>
<path d="M405.733 679.723C410.373 679.723 414.143 675.963 414.143 671.313C414.143 666.673 410.383 662.903 405.733 662.903C401.093 662.903 397.323 666.663 397.323 671.313C397.323 675.963 401.083 679.723 405.733 679.723Z" fill="white"/>
<path d="M444.333 651.173C445.623 640.743 440.813 631.563 433.603 630.673C426.383 629.783 419.493 637.513 418.203 647.943C416.913 658.373 421.723 667.553 428.933 668.443C436.143 669.333 443.053 661.603 444.333 651.173Z" fill="white"/>
<path d="M568.143 623.963C552.763 623.963 545.463 643.983 545.463 664.013C545.463 684.043 557.963 696.763 573.343 696.763C588.723 696.763 601.223 684.153 601.223 664.013C601.223 643.883 583.513 623.963 568.143 623.963Z" fill="#713D15"/>
<path d="M598.893 671.313C598.893 666.673 595.133 662.903 590.483 662.903C585.833 662.903 582.073 666.663 582.073 671.313C582.073 675.953 585.833 679.723 590.483 679.723C595.133 679.723 598.893 675.963 598.893 671.313Z" fill="white"/>
<path d="M567.273 668.443C574.493 667.553 579.293 658.373 578.003 647.943C576.713 637.513 569.823 629.783 562.603 630.673C555.383 631.563 550.583 640.743 551.873 651.173C553.163 661.603 560.063 669.333 567.273 668.443Z" fill="white"/>
</svg>
