<svg width="1000" height="1000" viewBox="0 0 1000 1000" fill="none" xmlns="http://www.w3.org/2000/svg">
<path d="M724.39 429.47L713.6 507.75L708.33 545.94L676.31 778.24C638.43 788.49 573.6 795.24 500 795.24C426.4 795.24 361.57 788.49 323.69 778.24L291.67 545.94L286.4 507.75L275.61 429.47H724.39Z" fill="#B8EDFD"/>
<path d="M500 800.66C428.5 800.66 362.06 794.24 322.28 783.47C320.18 782.9 318.62 781.13 318.32 778.97L270.24 430.2C270.03 428.65 270.49 427.08 271.52 425.89C272.55 424.71 274.04 424.03 275.61 424.03H724.38C725.95 424.03 727.44 424.71 728.47 425.89C729.5 427.07 729.97 428.64 729.75 430.2L681.67 778.97C681.37 781.13 679.81 782.9 677.71 783.47C637.95 794.24 571.51 800.66 500 800.66ZM328.58 773.91C367.84 783.89 431.46 789.81 500.01 789.81C568.56 789.81 632.18 783.89 671.44 773.91L718.17 434.9H281.84L328.58 773.91Z" fill="#98C9E6"/>
<path d="M500 422.85C635.177 422.85 744.76 403.164 744.76 378.88C744.76 354.596 635.177 334.91 500 334.91C364.823 334.91 255.24 354.596 255.24 378.88C255.24 403.164 364.823 422.85 500 422.85Z" fill="#B8EDFD"/>
<path d="M500 428.27C434.31 428.27 372.5 423.67 325.97 415.31C274.73 406.1 249.82 394.19 249.82 378.88C249.82 363.57 274.73 351.65 325.97 342.45C372.5 334.09 434.31 329.49 500 329.49C565.69 329.49 627.51 334.09 674.03 342.45C725.27 351.65 750.18 363.57 750.18 378.88C750.18 394.19 725.27 406.1 674.03 415.31C627.5 423.67 565.69 428.27 500 428.27ZM500 340.34C434.92 340.34 373.8 344.88 327.88 353.13C261.42 365.07 260.66 378.33 260.66 378.88C260.66 379.44 261.42 392.69 327.88 404.63C373.8 412.88 434.93 417.42 500 417.42C565.07 417.42 626.19 412.88 672.11 404.63C738.57 392.69 739.33 379.44 739.33 378.88C739.33 378.32 738.57 365.06 672.11 353.13C626.2 344.88 565.08 340.34 500 340.34Z" fill="#98C9E6"/>
<path d="M286.41 507.75C329.26 520.94 409.96 530.68 500.01 530.68C590.06 530.68 670.76 520.94 713.61 507.75L708.34 545.94C665.22 558.48 588.05 566.82 500.01 566.82C411.97 566.82 334.81 558.48 291.68 545.94L286.41 507.75Z" fill="#9CE4FD"/>
<path d="M264.8 424.1C264.8 424.1 290.57 351.61 385.47 390.05C385.47 390.05 439.36 339.25 509.66 370.28C509.66 370.28 565.9 337.05 622.13 369.18C622.13 369.18 731.09 357.1 724.06 412.01C717.03 466.94 264.8 424.1 264.8 424.1Z" fill="#664435"/>
<path d="M565.48 445.43C543.06 445.43 518.42 444.98 491.62 444.07C378.82 440.26 265.43 429.6 264.3 429.5C262.64 429.34 261.14 428.43 260.24 427.01C259.34 425.6 259.14 423.85 259.7 422.28C260.11 421.12 270.11 393.81 299.85 380.45C323.15 369.98 351.59 371.11 384.42 383.79C389.53 379.56 401.76 370.4 419.22 363.48C440.03 355.23 472.39 348.81 509.38 364.25C521.11 358.1 571.59 335.07 623.3 363.61C634.74 362.54 695.87 358.1 719.89 382.52C727.77 390.54 730.99 400.69 729.45 412.7C727.42 428.54 702.11 438 649.8 442.47C626.79 444.45 598.57 445.43 565.48 445.43ZM273.07 419.41C300.52 421.86 396.5 430.02 492.02 433.24C557.95 435.46 610.73 434.94 648.89 431.68C711.92 426.29 718.24 414.75 718.68 411.34C719.79 402.68 717.65 395.74 712.15 390.15C689.86 367.47 623.4 374.52 622.73 374.59C621.58 374.72 620.44 374.48 619.44 373.91C566.71 343.78 512.95 374.66 512.41 374.97C510.91 375.85 509.06 375.96 507.47 375.26C479.83 363.06 451.6 362.44 423.58 373.44C402.43 381.74 389.32 393.9 389.19 394.02C387.65 395.47 385.4 395.89 383.44 395.1C352.23 382.46 325.66 380.84 304.45 390.3C287.23 397.96 277.56 411.41 273.07 419.41Z" fill="#4C291B"/>
<path d="M507.56 263.96C507.56 263.96 515.35 195.85 593.68 205.75C593.69 205.75 551.7 280.06 507.56 263.96Z" fill="#97C941"/>
<path d="M520.31 271.65C515.33 271.65 510.45 270.79 505.71 269.06C503.35 268.2 501.89 265.84 502.18 263.35C502.32 262.14 505.85 233.45 529.67 214.76C546.1 201.87 567.86 197.03 594.37 200.38C596.16 200.61 597.73 201.71 598.54 203.33C599.35 204.95 599.3 206.86 598.42 208.43C597.98 209.21 587.39 227.8 571.08 244.67C553.82 262.52 536.53 271.65 520.31 271.65ZM513.82 260.13C528.76 263.31 545.33 255.64 563.14 237.26C572.49 227.61 579.98 217.13 584.44 210.35C564.87 209.28 548.76 213.59 536.46 223.2C521.34 235.02 515.71 252.11 513.82 260.13Z" fill="#779B1E"/>
<path d="M507.79 413.65C507.36 413.65 506.92 413.6 506.48 413.49C503.57 412.77 501.8 409.83 502.52 406.92C518.35 342.91 502.61 257.15 502.45 256.29C501.9 253.35 503.84 250.51 506.78 249.96C509.72 249.41 512.56 251.35 513.11 254.29C513.78 257.89 529.44 343.25 513.04 409.52C512.44 411.99 510.23 413.65 507.79 413.65Z" fill="#779B1E"/>
<path d="M503.63 267.96C503.63 267.96 436.56 282.19 421.1 204.76C421.1 204.77 504.89 221 503.63 267.96Z" fill="#97C941"/>
<path d="M491.35 274.44C480.52 274.44 464.72 272.36 449.95 262.63C432.51 251.15 421.01 232.04 415.78 205.83C415.43 204.06 415.98 202.22 417.25 200.94C418.52 199.66 420.35 199.1 422.13 199.44C423.01 199.61 444 203.75 465.17 213.86C494.45 227.84 509.63 246.6 509.05 268.11C508.98 270.62 507.21 272.75 504.75 273.27C504.26 273.38 499.07 274.44 491.35 274.44ZM503.63 267.96H503.64H503.63ZM428.4 212.08C433.6 230.97 442.8 244.88 455.82 253.49C471.82 264.08 489.82 263.99 498.02 263.25C496.29 248.07 483.76 234.79 460.68 223.73C448.56 217.93 436.24 214.15 428.4 212.08Z" fill="#779B1E"/>
<path d="M500 800.66C428.5 800.66 362.06 794.24 322.28 783.47C320.18 782.9 318.62 781.13 318.32 778.97L270.24 430.2C270.03 428.65 270.49 427.08 271.52 425.89C272.55 424.71 274.04 424.03 275.61 424.03H724.38C725.95 424.03 727.44 424.71 728.47 425.89C729.5 427.07 729.97 428.64 729.75 430.2L681.67 778.97C681.37 781.13 679.81 782.9 677.71 783.47C637.95 794.24 571.51 800.66 500 800.66ZM328.58 773.91C367.84 783.89 431.46 789.81 500.01 789.81C568.56 789.81 632.18 783.89 671.44 773.91L718.17 434.9H281.84L328.58 773.91Z" fill="#98C9E6"/>
<path d="M450.26 443.12C450.26 443.12 450.26 394.39 516.47 407.06C516.47 407.06 582.68 363.31 628.2 438.39L450.26 443.12Z" fill="#664435"/>
<path d="M450.26 448.54C448.85 448.54 447.49 447.99 446.47 447C445.42 445.98 444.83 444.58 444.83 443.11C444.83 442.31 445.01 423.38 460.48 410.59C473.01 400.23 491.49 397.12 515.41 401.34C522.49 397.2 547.77 384.22 576.81 390.74C598.98 395.72 617.83 410.8 632.84 435.57C633.84 437.22 633.89 439.28 632.96 440.98C632.03 442.68 630.27 443.75 628.34 443.8L450.4 448.53C450.36 448.54 450.31 448.54 450.26 448.54ZM496.06 410.36C483.93 410.36 474.33 413.23 467.4 418.96C460.36 424.78 457.55 432.41 456.43 437.52L618.33 433.22C605.95 415.85 591.25 405.14 574.54 401.36C545.53 394.79 519.72 411.42 519.46 411.59C518.28 412.36 516.84 412.65 515.46 412.39C508.4 411.04 501.93 410.36 496.06 410.36Z" fill="#4C291B"/>
<path d="M744.76 378.88V486.71C744.76 493.34 736.6 499.62 721.97 505.26C683.02 520.27 598.28 530.67 499.99 530.67C401.7 530.67 316.97 520.27 278.01 505.26C263.39 499.62 255.22 493.34 255.22 486.71V378.88C255.22 403.16 364.8 422.85 499.98 422.85C635.16 422.85 744.76 403.16 744.76 378.88Z" fill="#B8EDFD"/>
<path d="M500 536.1C404.61 536.1 316.71 525.98 276.07 510.32C258.4 503.5 249.81 495.78 249.81 486.7V378.88C249.81 375.88 252.24 373.45 255.24 373.45C258.24 373.45 260.67 375.88 260.67 378.88C260.67 379.44 261.43 392.69 327.89 404.63C373.81 412.88 434.94 417.42 500.01 417.42C565.08 417.42 626.2 412.88 672.12 404.63C738.58 392.69 739.34 379.44 739.34 378.88C739.34 375.88 741.77 373.45 744.77 373.45C747.77 373.45 750.2 375.88 750.2 378.88V486.71C750.2 495.78 741.61 503.51 723.94 510.33C683.29 525.98 595.39 536.1 500 536.1ZM260.66 394.88V486.7C260.66 487.71 261.59 493.1 279.97 500.19C319.46 515.41 405.82 525.24 499.99 525.24C594.16 525.24 680.52 515.41 720.01 500.19C738.39 493.1 739.32 487.71 739.32 486.7V394.88C727.46 402.84 705.8 409.59 674.02 415.3C627.48 423.66 565.68 428.26 499.99 428.26C434.3 428.26 372.49 423.66 325.96 415.3C294.18 409.6 272.53 402.84 260.66 394.88Z" fill="#98C9E6"/>
<path d="M588.846 682.4C588.846 702.54 576.346 715.15 560.966 715.15C545.586 715.15 533.086 702.43 533.086 682.4C533.086 662.38 540.386 642.35 555.766 642.35C571.146 642.35 588.846 662.26 588.846 682.4Z" fill="#713D15"/>
<path d="M578.116 698.11C582.756 698.11 586.526 694.35 586.526 689.7C586.526 685.05 582.766 681.29 578.116 681.29C573.476 681.29 569.706 685.05 569.706 689.7C569.706 694.35 573.466 698.11 578.116 698.11Z" fill="white"/>
<path d="M554.916 686.93C562.136 686.04 566.936 676.86 565.646 666.43C564.356 656 557.466 648.27 550.246 649.16C543.026 650.05 538.226 659.23 539.516 669.66C540.806 680.08 547.696 687.82 554.916 686.93Z" fill="white"/>
<path d="M590.616 620.22C589.176 620.22 587.736 619.56 586.966 618.23C586.856 618.01 572.026 596.44 549.576 600.2C547.146 600.64 544.926 598.98 544.486 596.55C544.046 594.12 545.706 591.9 548.136 591.46C576.236 586.81 593.606 612.26 594.376 613.37C595.706 615.36 595.146 618.13 593.156 619.45C592.386 620 591.496 620.22 590.616 620.22Z" fill="white"/>
<path d="M621.396 743.31C633.296 738.68 640.206 727.87 636.816 719.16C633.426 710.45 621.036 707.13 609.136 711.76C597.236 716.39 590.326 727.2 593.716 735.91C597.106 744.62 609.496 747.94 621.396 743.31Z" fill="#9CE4FD"/>
<path d="M400.326 682.4C400.326 702.54 412.826 715.15 428.206 715.15C443.586 715.15 456.086 702.43 456.086 682.4C456.086 662.38 448.786 642.35 433.406 642.35C418.026 642.35 400.326 662.26 400.326 682.4Z" fill="#713D15"/>
<path d="M411.056 698.11C415.696 698.11 419.466 694.35 419.466 689.7C419.466 685.05 415.706 681.29 411.056 681.29C406.416 681.29 402.646 685.05 402.646 689.7C402.646 694.35 406.416 698.11 411.056 698.11Z" fill="white"/>
<path d="M411.056 698.11C415.696 698.11 419.466 694.35 419.466 689.7C419.466 685.05 415.706 681.29 411.056 681.29C406.416 681.29 402.646 685.05 402.646 689.7C402.646 694.35 406.416 698.11 411.056 698.11Z" fill="white"/>
<path d="M449.666 669.55C450.956 659.12 446.146 649.94 438.936 649.05C431.716 648.16 424.826 655.89 423.536 666.32C422.246 676.75 427.056 685.93 434.266 686.82C441.486 687.72 448.376 679.98 449.666 669.55Z" fill="white"/>
<path d="M398.556 620.22C397.666 620.22 396.896 620 396.126 619.45C394.136 618.12 393.586 615.36 394.906 613.37C395.566 612.26 412.936 586.82 441.146 591.46C443.576 591.9 445.126 594.12 444.796 596.55C444.466 598.98 442.136 600.53 439.706 600.2C417.246 596.44 402.426 618.01 402.316 618.23C401.316 619.56 399.996 620.22 398.556 620.22Z" fill="white"/>
<path d="M395.496 736.02C398.886 727.31 391.976 716.49 380.076 711.87C368.176 707.25 355.776 710.56 352.396 719.27C349.006 727.98 355.916 738.8 367.816 743.42C379.716 748.04 392.106 744.73 395.496 736.02Z" fill="#9CE4FD"/>
</svg>
