<svg width="1000" height="1000" viewBox="0 0 1000 1000" fill="none" xmlns="http://www.w3.org/2000/svg">
<path d="M724.39 552.32L713.6 630.6L708.33 668.79L676.31 901.09C638.43 911.34 573.6 918.09 500 918.09C426.4 918.09 361.57 911.34 323.69 901.09L291.67 668.79L286.4 630.6L275.61 552.32H724.39Z" fill="#B8EDFD"/>
<path d="M500 923.51C428.5 923.51 362.06 917.09 322.28 906.32C320.18 905.75 318.62 903.98 318.32 901.82L270.24 553.05C270.03 551.5 270.49 549.93 271.52 548.74C272.55 547.55 274.04 546.88 275.61 546.88H724.38C725.95 546.88 727.44 547.56 728.47 548.74C729.5 549.92 729.97 551.49 729.75 553.05L681.67 901.82C681.37 903.98 679.81 905.75 677.71 906.32C637.95 917.09 571.51 923.51 500 923.51ZM328.58 896.76C367.84 906.74 431.46 912.66 500.01 912.66C568.56 912.66 632.18 906.74 671.44 896.76L718.17 557.75H281.84L328.58 896.76Z" fill="#98C9E6"/>
<path d="M500 545.7C635.177 545.7 744.76 526.014 744.76 501.73C744.76 477.446 635.177 457.76 500 457.76C364.823 457.76 255.24 477.446 255.24 501.73C255.24 526.014 364.823 545.7 500 545.7Z" fill="#B8EDFD"/>
<path d="M500 551.12C434.31 551.12 372.5 546.52 325.97 538.16C274.73 528.95 249.82 517.04 249.82 501.73C249.82 486.42 274.73 474.5 325.97 465.3C372.5 456.94 434.31 452.34 500 452.34C565.69 452.34 627.51 456.94 674.03 465.3C725.27 474.5 750.18 486.42 750.18 501.73C750.18 517.04 725.27 528.95 674.03 538.16C627.5 546.52 565.69 551.12 500 551.12ZM500 463.19C434.92 463.19 373.8 467.73 327.88 475.98C261.42 487.92 260.66 501.18 260.66 501.73C260.66 502.29 261.42 515.54 327.88 527.48C373.8 535.73 434.93 540.27 500 540.27C565.07 540.27 626.19 535.73 672.11 527.48C738.57 515.54 739.33 502.29 739.33 501.73C739.33 501.17 738.57 487.91 672.11 475.98C626.2 467.73 565.08 463.19 500 463.19Z" fill="#98C9E6"/>
<path d="M286.41 630.6C329.26 643.79 409.96 653.53 500.01 653.53C590.06 653.53 670.76 643.79 713.61 630.6L708.34 668.79C665.22 681.33 588.05 689.67 500.01 689.67C411.97 689.67 334.81 681.33 291.68 668.79L286.41 630.6Z" fill="#9CE4FD"/>
<path d="M264.8 546.959C264.8 546.959 290.57 474.469 385.47 512.909C385.47 512.909 439.36 462.109 509.66 493.139C509.66 493.139 565.9 459.909 622.13 492.039C622.13 492.039 731.09 479.959 724.06 534.869C717.03 589.789 264.8 546.959 264.8 546.959Z" fill="#664435"/>
<path d="M565.48 568.29C543.06 568.29 518.42 567.84 491.62 566.93C378.82 563.12 265.43 552.46 264.3 552.36C262.64 552.2 261.14 551.29 260.24 549.87C259.34 548.46 259.14 546.71 259.7 545.14C260.11 543.98 270.11 516.67 299.85 503.31C323.15 492.84 351.59 493.97 384.42 506.65C389.53 502.42 401.76 493.26 419.22 486.34C440.03 478.09 472.39 471.67 509.38 487.11C521.11 480.96 571.6 457.93 623.3 486.47C634.74 485.4 695.87 480.96 719.89 505.38C727.77 513.4 730.99 523.55 729.45 535.56C727.42 551.4 702.11 560.86 649.8 565.33C626.79 567.3 598.57 568.29 565.48 568.29ZM273.07 542.26C300.52 544.71 396.5 552.87 492.02 556.09C557.95 558.31 610.73 557.79 648.89 554.53C711.92 549.14 718.24 537.6 718.68 534.19C719.79 525.53 717.65 518.59 712.15 513C689.86 490.32 623.4 497.37 622.73 497.44C621.58 497.57 620.44 497.33 619.44 496.76C566.56 466.54 512.96 497.5 512.42 497.82C510.91 498.71 509.07 498.82 507.47 498.11C479.83 485.91 451.6 485.29 423.58 496.29C402.43 504.59 389.32 516.75 389.19 516.87C387.65 518.32 385.4 518.74 383.44 517.95C352.23 505.31 325.66 503.69 304.45 513.15C287.23 520.81 277.56 534.26 273.07 542.26Z" fill="#4C291B"/>
<path d="M500 923.51C428.5 923.51 362.06 917.09 322.28 906.32C320.18 905.75 318.62 903.98 318.32 901.82L270.24 553.05C270.03 551.5 270.49 549.93 271.52 548.74C272.55 547.55 274.04 546.88 275.61 546.88H724.38C725.95 546.88 727.44 547.56 728.47 548.74C729.5 549.92 729.97 551.49 729.75 553.05L681.67 901.82C681.37 903.98 679.81 905.75 677.71 906.32C637.95 917.09 571.51 923.51 500 923.51ZM328.58 896.76C367.84 906.74 431.46 912.66 500.01 912.66C568.56 912.66 632.18 906.74 671.44 896.76L718.17 557.75H281.84L328.58 896.76Z" fill="#98C9E6"/>
<path d="M360.27 82.8196C360.27 82.8196 458.17 66.6196 489.45 171.93C489.45 171.93 373.62 220.63 360.27 82.8196Z" fill="#97C941"/>
<path d="M445.44 185.76C431.13 185.76 415.29 182.97 400.72 174.28C374.63 158.71 359.2 128.11 354.86 83.3498C354.59 80.5098 356.56 77.9398 359.38 77.4798C360.43 77.3098 385.49 73.3198 414.78 82.7298C441.92 91.4398 477.81 113.73 494.64 170.4C495.43 173.05 494.09 175.87 491.54 176.95C490.24 177.49 470.11 185.76 445.44 185.76ZM366.25 87.6398C370.87 125.82 384.31 151.81 406.23 164.93C434.64 181.92 470.19 172.73 482.72 168.6C469.87 129.52 445.92 104.12 411.47 93.0598C392.09 86.8298 374.57 87.0298 366.25 87.6398Z" fill="#779B1E"/>
<path d="M507.36 540.42C507.34 540.42 507.32 540.42 507.3 540.42C504.3 540.39 501.9 537.93 501.93 534.93C503.07 432.35 484.22 164.84 484.03 162.15C483.82 159.16 486.07 156.57 489.06 156.36C492.02 156.13 494.64 158.4 494.85 161.39C495.04 164.08 513.93 432.04 512.78 535.06C512.75 538.03 510.33 540.42 507.36 540.42Z" fill="#779B1E"/>
<path d="M499.59 388.85C499.59 388.85 343.57 420.59 350.17 296.58C350.17 296.58 491.12 313.53 499.59 388.85Z" fill="#97C941"/>
<path d="M458.35 397.91C456.84 397.91 455.3 397.9 453.74 397.86C418.54 397.15 391.19 388.59 372.43 372.42C352.3 355.06 342.98 329.44 344.75 296.29C344.83 294.79 345.53 293.39 346.68 292.43C347.83 291.46 349.32 291.02 350.82 291.2C352.29 291.38 387.13 295.67 423.62 309.4C473.15 328.03 501.28 355.29 504.99 388.25C505.3 391.04 503.43 393.61 500.68 394.17C499.87 394.33 481.96 397.91 458.35 397.91ZM355.4 302.83C355.15 329.54 363.25 350.16 379.5 364.19C391.01 374.13 413.24 386.15 453.72 387.01C471 387.37 485.91 385.55 493.39 384.4C481.46 326.59 380.95 306.92 355.4 302.83Z" fill="#779B1E"/>
<path d="M505.72 477.09C505.72 477.09 541.6 366.5 647.64 396.15C647.64 396.14 608.79 515.49 505.72 477.09Z" fill="#97C941"/>
<path d="M544.96 490.13C531.81 490.13 518.07 487.48 503.82 482.17C501.1 481.16 499.66 478.18 500.55 475.41C500.93 474.24 510.15 446.34 532.93 421.8C554.24 398.85 591.68 374.86 649.09 390.91C650.51 391.31 651.71 392.27 652.41 393.57C653.11 394.87 653.24 396.41 652.79 397.81C651.99 400.26 632.74 457.98 585.11 480.97C572.48 487.08 559.06 490.13 544.96 490.13ZM512.76 473.8C537.4 481.84 560.11 480.99 580.35 471.23C615.71 454.19 634.55 414.4 640.43 399.88C601.19 390.59 567.8 400.35 541.12 428.93C525.34 445.84 516.37 464.96 512.76 473.8Z" fill="#779B1E"/>
<path d="M502.99 480.38C502.99 480.38 392.16 531.73 350.17 411.45C350.17 411.45 494.52 405.05 502.99 480.38Z" fill="#97C941"/>
<path d="M450.15 496.75C436.92 496.75 422.49 494.64 408.26 488.62C379.53 476.46 358.27 451.1 345.05 413.25C344.48 411.63 344.72 409.84 345.68 408.42C346.64 407 348.22 406.12 349.93 406.04C351.43 405.97 387.13 404.5 424.52 412.37C475.63 423.13 504.63 446.44 508.38 479.78C508.64 482.1 507.39 484.33 505.27 485.31C503.85 485.96 480.07 496.75 450.15 496.75ZM357.93 416.76C370.15 447.63 388.45 468.41 412.41 478.59C447.42 493.45 485.19 481.47 496.99 476.98C486.17 420.84 386.38 416.77 357.93 416.76Z" fill="#779B1E"/>
<path d="M499.59 388.85C499.59 388.85 515.26 275.79 650.73 305.48C650.73 305.48 657.1 362.51 499.59 388.85Z" fill="#97C941"/>
<path d="M499.59 394.27C498.19 394.27 496.83 393.73 495.81 392.73C494.57 391.53 493.98 389.81 494.22 388.09C494.48 386.21 501.05 341.68 539.75 314.71C568.09 294.96 605.82 290.06 651.89 300.16C654.16 300.66 655.86 302.55 656.12 304.86C656.4 307.4 661.21 367.31 500.48 394.18C500.19 394.25 499.89 394.27 499.59 394.27ZM608.2 305.93C583.7 305.93 562.86 311.84 545.95 323.63C520.08 341.66 510.07 369.04 506.6 382.13C548.83 374.5 601.61 360.25 629.23 334.55C640.74 323.85 644.05 314.72 644.99 309.82C631.94 307.22 619.67 305.93 608.2 305.93Z" fill="#779B1E"/>
<path d="M504.44 391.03C503.83 391.03 503.21 390.84 502.68 390.46C501.33 389.49 501.03 387.6 502.01 386.25C502.54 385.52 515.25 368.07 535.58 351.44C562.75 329.2 590.48 319.39 615.8 323.07C617.45 323.31 618.59 324.84 618.35 326.49C618.11 328.14 616.58 329.29 614.93 329.04C557.67 320.7 507.4 389.1 506.9 389.79C506.3 390.6 505.38 391.03 504.44 391.03Z" fill="white"/>
<path d="M509.44 480.1C508.34 480.1 507.28 479.49 506.75 478.44C506 476.95 506.6 475.14 508.08 474.39C508.61 474.12 561.74 447.18 603.07 414.87C604.38 413.84 606.28 414.08 607.3 415.39C608.33 416.7 608.09 418.59 606.78 419.62C564.97 452.3 511.33 479.5 510.79 479.77C510.36 479.99 509.89 480.1 509.44 480.1Z" fill="white"/>
<path d="M499.95 481.32C499.28 481.32 498.61 481.1 498.05 480.64C466.3 454.69 439.47 444.38 422.55 440.3C404.27 435.89 393.32 437.61 393.21 437.63C391.57 437.9 390.02 436.8 389.74 435.16C389.46 433.52 390.56 431.97 392.2 431.69C394.07 431.37 438.83 424.46 501.86 475.98C503.15 477.03 503.34 478.93 502.29 480.22C501.69 480.94 500.82 481.32 499.95 481.32Z" fill="white"/>
<path d="M499.59 391.86C498.75 391.86 497.92 391.51 497.32 390.83C456.55 344.36 392.95 335.57 392.31 335.49C390.66 335.27 389.5 333.76 389.71 332.11C389.92 330.46 391.42 329.29 393.09 329.51C395.78 329.86 459.59 338.7 501.84 386.85C502.94 388.1 502.81 390.01 501.56 391.1C501 391.62 500.29 391.86 499.59 391.86Z" fill="white"/>
<path d="M498.45 287.39C498.45 287.39 502.77 181.06 632.72 191.34C632.72 191.34 626.27 293.23 498.45 287.39Z" fill="#97C941"/>
<path d="M508.41 293.04C504.92 293.04 501.51 292.96 498.2 292.8C495.22 292.66 492.91 290.14 493.03 287.16C493.1 285.4 495.17 243.61 528.77 213.81C553.6 191.79 588.72 182.41 633.15 185.92C636.1 186.15 638.32 188.71 638.14 191.67C638.07 192.77 636.22 218.98 617.94 244.68C590.12 283.83 544.84 293.04 508.41 293.04ZM504.48 282.16C552.53 283.15 587.74 268.45 609.1 238.41C620.92 221.78 625.14 204.77 626.59 196.37C588 194.29 557.56 202.85 536.08 221.84C512.67 242.53 506.21 270.5 504.48 282.16Z" fill="#779B1E"/>
<path d="M353.6 201.7C353.6 201.7 464.08 169.91 495.6 284.71C495.61 284.71 373.74 314.62 353.6 201.7Z" fill="#97C941"/>
<path d="M461 293.79C440.66 293.79 414.94 290.14 392.73 275.68C369.13 260.33 354.17 235.76 348.27 202.65C347.78 199.92 349.44 197.25 352.11 196.48C354.16 195.89 402.74 182.33 445.96 206.58C472.49 221.47 490.96 247.27 500.85 283.27C501.24 284.68 501.04 286.19 500.3 287.45C499.56 288.71 498.34 289.62 496.92 289.97C495.69 290.28 480.93 293.79 461 293.79ZM359.93 205.8C365.84 233.25 378.82 253.68 398.58 266.55C431.09 287.74 473.65 283.08 488.72 280.53C479.34 250.4 463.21 228.74 440.72 216.09C408.98 198.24 372.79 203.2 359.93 205.8Z" fill="#779B1E"/>
<path d="M498.45 289.8C498.01 289.8 497.56 289.68 497.16 289.42C496.04 288.71 495.7 287.22 496.42 286.09C496.77 285.54 532.43 230.38 598.27 214.4C599.56 214.08 600.87 214.88 601.18 216.17C601.49 217.46 600.7 218.77 599.41 219.08C535.43 234.61 500.83 288.13 500.49 288.67C500.03 289.4 499.25 289.8 498.45 289.8Z" fill="white"/>
<path d="M492.49 287.4C491.61 287.4 490.74 287.02 490.14 286.28C443.16 228.05 397.72 225.43 397.27 225.41C395.61 225.34 394.32 223.93 394.39 222.27C394.46 220.61 395.87 219.35 397.52 219.38C399.48 219.46 446 221.95 494.84 282.48C495.89 283.78 495.68 285.67 494.39 286.72C493.82 287.18 493.15 287.4 492.49 287.4Z" fill="white"/>
<path d="M489.45 171.35C489.45 171.35 499.59 88.8697 626.53 81.9297C626.53 81.9297 607.63 215.74 489.45 171.35Z" fill="#97C941"/>
<path d="M534.13 185.8C519.75 185.8 504.19 182.68 487.54 176.42C485.19 175.54 483.76 173.17 484.06 170.68C484.17 169.77 487.02 148.18 506.26 125.71C537.93 88.7396 588.98 78.5496 626.23 76.5096C627.87 76.4096 629.43 77.0596 630.52 78.2596C631.62 79.4596 632.12 81.0796 631.9 82.6896C631.53 85.3296 622.24 147.74 577.5 174.29C564.57 181.97 550.06 185.8 534.13 185.8ZM495.72 167.84C525.69 178.17 551.33 177.2 571.96 164.96C604.21 145.82 616.29 104.05 619.88 87.8096C573.19 91.5596 537 106.86 514.95 132.26C502.36 146.76 497.46 161.01 495.72 167.84Z" fill="#779B1E"/>
<path d="M493.17 174.41C492.5 174.41 491.83 174.19 491.28 173.74C489.99 172.69 489.79 170.8 490.83 169.5C525.71 126.42 589.6 109.51 592.3 108.81C593.91 108.39 595.55 109.36 595.97 110.97C596.39 112.58 595.42 114.23 593.81 114.64C593.17 114.81 529.13 131.78 495.51 173.29C494.92 174.03 494.05 174.41 493.17 174.41Z" fill="white"/>
<path d="M486.59 176.91C485.76 176.91 484.93 176.57 484.34 175.9C430.71 115.58 391.15 110.85 390.76 110.81C389.11 110.64 387.9 109.16 388.07 107.51C388.24 105.86 389.71 104.65 391.36 104.81C393.05 104.97 433.43 109.56 488.85 171.89C489.96 173.13 489.84 175.04 488.6 176.14C488.01 176.66 487.3 176.91 486.59 176.91Z" fill="white"/>
<path d="M445.44 185.76C431.13 185.76 415.29 182.97 400.72 174.28C374.63 158.71 359.2 128.11 354.86 83.3498C354.59 80.5098 356.56 77.9398 359.38 77.4798C360.43 77.3098 385.49 73.3198 414.78 82.7298C441.92 91.4398 477.81 113.73 494.64 170.4C495.43 173.05 494.09 175.87 491.54 176.95C490.24 177.49 470.11 185.76 445.44 185.76ZM366.25 87.6398C370.87 125.82 384.31 151.81 406.23 164.93C434.64 181.92 470.19 172.73 482.72 168.6C469.87 129.52 445.92 104.12 411.47 93.0598C392.09 86.8298 374.57 87.0298 366.25 87.6398Z" fill="#779B1E"/>
<path d="M458.35 397.91C456.84 397.91 455.3 397.9 453.74 397.86C418.54 397.15 391.19 388.59 372.43 372.42C352.3 355.06 342.98 329.44 344.75 296.29C344.83 294.79 345.53 293.39 346.68 292.43C347.83 291.46 349.32 291.02 350.82 291.2C352.29 291.38 387.13 295.67 423.62 309.4C473.15 328.03 501.28 355.29 504.99 388.25C505.3 391.04 503.43 393.61 500.68 394.17C499.87 394.33 481.96 397.91 458.35 397.91ZM355.4 302.83C355.15 329.54 363.25 350.16 379.5 364.19C391.01 374.13 413.24 386.15 453.72 387.01C471 387.37 485.91 385.55 493.39 384.4C481.46 326.59 380.95 306.92 355.4 302.83Z" fill="#779B1E"/>
<path d="M544.96 490.13C531.81 490.13 518.07 487.48 503.82 482.17C501.1 481.16 499.66 478.18 500.55 475.41C500.93 474.24 510.15 446.34 532.93 421.8C554.24 398.85 591.68 374.86 649.09 390.91C650.51 391.31 651.71 392.27 652.41 393.57C653.11 394.87 653.24 396.41 652.79 397.81C651.99 400.26 632.74 457.98 585.11 480.97C572.48 487.08 559.06 490.13 544.96 490.13ZM512.76 473.8C537.4 481.84 560.11 480.99 580.35 471.23C615.71 454.19 634.55 414.4 640.43 399.88C601.19 390.59 567.8 400.35 541.12 428.93C525.34 445.84 516.37 464.96 512.76 473.8Z" fill="#779B1E"/>
<path d="M450.15 496.75C436.92 496.75 422.49 494.64 408.26 488.62C379.53 476.46 358.27 451.1 345.05 413.25C344.48 411.63 344.72 409.84 345.68 408.42C346.64 407 348.22 406.12 349.93 406.04C351.43 405.97 387.13 404.5 424.52 412.37C475.63 423.13 504.63 446.44 508.38 479.78C508.64 482.1 507.39 484.33 505.27 485.31C503.85 485.96 480.07 496.75 450.15 496.75ZM357.93 416.76C370.15 447.63 388.45 468.41 412.41 478.59C447.42 493.45 485.19 481.47 496.99 476.98C486.17 420.84 386.38 416.77 357.93 416.76Z" fill="#779B1E"/>
<path d="M499.59 394.27C498.19 394.27 496.83 393.73 495.81 392.73C494.57 391.53 493.98 389.81 494.22 388.09C494.48 386.21 501.05 341.68 539.75 314.71C568.09 294.96 605.82 290.06 651.89 300.16C654.16 300.66 655.86 302.55 656.12 304.86C656.4 307.4 661.21 367.31 500.48 394.18C500.19 394.25 499.89 394.27 499.59 394.27ZM608.2 305.93C583.7 305.93 562.86 311.84 545.95 323.63C520.08 341.66 510.07 369.04 506.6 382.13C548.83 374.5 601.61 360.25 629.23 334.55C640.74 323.85 644.05 314.72 644.99 309.82C631.94 307.22 619.67 305.93 608.2 305.93Z" fill="#779B1E"/>
<path d="M508.41 293.04C504.92 293.04 501.51 292.96 498.2 292.8C495.22 292.66 492.91 290.14 493.03 287.16C493.1 285.4 495.17 243.61 528.77 213.81C553.6 191.79 588.72 182.41 633.15 185.92C636.1 186.15 638.32 188.71 638.14 191.67C638.07 192.77 636.22 218.98 617.94 244.68C590.12 283.83 544.84 293.04 508.41 293.04ZM504.48 282.16C552.53 283.15 587.74 268.45 609.1 238.41C620.92 221.78 625.14 204.77 626.59 196.37C588 194.29 557.56 202.85 536.08 221.84C512.67 242.53 506.21 270.5 504.48 282.16Z" fill="#779B1E"/>
<path d="M461 293.79C440.66 293.79 414.94 290.14 392.73 275.68C369.13 260.33 354.17 235.76 348.27 202.65C347.78 199.92 349.44 197.25 352.11 196.48C354.16 195.89 402.74 182.33 445.96 206.58C472.49 221.47 490.96 247.27 500.85 283.27C501.24 284.68 501.04 286.19 500.3 287.45C499.56 288.71 498.34 289.62 496.92 289.97C495.69 290.28 480.93 293.79 461 293.79ZM359.93 205.8C365.84 233.25 378.82 253.68 398.58 266.55C431.09 287.74 473.65 283.08 488.72 280.53C479.34 250.4 463.21 228.74 440.72 216.09C408.98 198.24 372.79 203.2 359.93 205.8Z" fill="#779B1E"/>
<path d="M534.13 185.8C519.75 185.8 504.19 182.68 487.54 176.42C485.19 175.54 483.76 173.17 484.06 170.68C484.17 169.77 487.02 148.18 506.26 125.71C537.93 88.7396 588.98 78.5496 626.23 76.5096C627.87 76.4096 629.43 77.0596 630.52 78.2596C631.62 79.4596 632.12 81.0796 631.9 82.6896C631.53 85.3296 622.24 147.74 577.5 174.29C564.57 181.97 550.06 185.8 534.13 185.8ZM495.72 167.84C525.69 178.17 551.33 177.2 571.96 164.96C604.21 145.82 616.29 104.05 619.88 87.8096C573.19 91.5596 537 106.86 514.95 132.26C502.36 146.76 497.46 161.01 495.72 167.84Z" fill="#779B1E"/>
<path d="M450.26 565.97C450.26 565.97 450.26 517.24 516.47 529.91C516.47 529.91 582.68 486.16 628.2 561.24L450.26 565.97Z" fill="#664435"/>
<path d="M450.26 571.4C448.85 571.4 447.49 570.85 446.47 569.86C445.42 568.84 444.83 567.44 444.83 565.97C444.83 565.17 445.01 546.24 460.48 533.45C473.01 523.09 491.49 519.98 515.41 524.2C522.49 520.06 547.77 507.08 576.81 513.6C598.98 518.58 617.83 533.66 632.84 558.43C633.84 560.08 633.89 562.14 632.96 563.84C632.03 565.54 630.27 566.61 628.34 566.66L450.4 571.39C450.36 571.39 450.31 571.4 450.26 571.4ZM496.06 533.22C483.93 533.22 474.33 536.09 467.4 541.82C460.36 547.64 457.55 555.27 456.43 560.38L618.33 556.08C605.95 538.71 591.25 528 574.54 524.22C545.53 517.65 519.72 534.28 519.46 534.45C518.28 535.22 516.84 535.51 515.46 535.25C508.4 533.89 501.93 533.22 496.06 533.22Z" fill="#4C291B"/>
<path d="M744.76 501.73V609.56C744.76 616.19 736.6 622.47 721.97 628.11C683.02 643.12 598.28 653.52 499.99 653.52C401.7 653.52 316.97 643.12 278.01 628.11C263.39 622.47 255.22 616.19 255.22 609.56V501.73C255.22 526.01 364.8 545.7 499.98 545.7C635.16 545.7 744.76 526.01 744.76 501.73Z" fill="#B8EDFD"/>
<path d="M500 658.95C404.61 658.95 316.71 648.83 276.07 633.17C258.4 626.35 249.81 618.63 249.81 609.55V501.73C249.81 498.73 252.24 496.3 255.24 496.3C258.24 496.3 260.67 498.73 260.67 501.73C260.67 502.29 261.43 515.54 327.89 527.48C373.81 535.73 434.94 540.27 500.01 540.27C565.08 540.27 626.2 535.73 672.12 527.48C738.58 515.54 739.34 502.29 739.34 501.73C739.34 498.73 741.77 496.3 744.77 496.3C747.77 496.3 750.2 498.73 750.2 501.73V609.56C750.2 618.63 741.61 626.36 723.94 633.18C683.29 648.83 595.39 658.95 500 658.95ZM260.66 517.74V609.56C260.66 610.57 261.59 615.96 279.97 623.05C319.47 638.27 405.83 648.1 500 648.1C594.17 648.1 680.53 638.27 720.02 623.05C738.4 615.96 739.33 610.57 739.33 609.56V517.74C727.47 525.7 705.81 532.45 674.03 538.16C627.49 546.52 565.69 551.12 500 551.12C434.31 551.12 372.5 546.52 325.97 538.16C294.18 532.45 272.53 525.69 260.66 517.74Z" fill="#98C9E6"/>
<g clip-path="url(#clip0_5_515)">
<path d="M597.23 806.4C597.23 826.54 584.73 839.15 569.35 839.15C553.97 839.15 541.47 826.43 541.47 806.4C541.47 786.38 548.77 766.35 564.15 766.35C579.53 766.35 597.23 786.26 597.23 806.4Z" fill="#713D15"/>
<path d="M586.5 822.11C591.14 822.11 594.91 818.35 594.91 813.7C594.91 809.05 591.15 805.29 586.5 805.29C581.86 805.29 578.09 809.05 578.09 813.7C578.09 818.35 581.85 822.11 586.5 822.11Z" fill="white"/>
<path d="M563.3 810.93C570.52 810.04 575.32 800.86 574.03 790.43C572.74 780 565.85 772.27 558.63 773.16C551.41 774.05 546.61 783.23 547.9 793.66C549.19 804.08 556.08 811.82 563.3 810.93Z" fill="white"/>
<path d="M599 744.22C597.56 744.22 596.12 743.56 595.35 742.23C595.24 742.01 580.41 720.44 557.96 724.2C555.53 724.64 553.31 722.98 552.87 720.55C552.43 718.12 554.09 715.9 556.52 715.46C584.62 710.81 601.99 736.26 602.76 737.37C604.09 739.36 603.53 742.13 601.54 743.45C600.77 744 599.88 744.22 599 744.22Z" fill="white"/>
<path d="M629.78 867.31C641.68 862.68 648.59 851.87 645.2 843.16C641.81 834.45 629.42 831.13 617.52 835.76C605.62 840.39 598.71 851.2 602.1 859.91C605.49 868.62 617.88 871.94 629.78 867.31Z" fill="#9CE4FD"/>
<path d="M408.71 806.4C408.71 826.54 421.21 839.15 436.59 839.15C451.97 839.15 464.47 826.43 464.47 806.4C464.47 786.38 457.17 766.35 441.79 766.35C426.41 766.35 408.71 786.26 408.71 806.4Z" fill="#713D15"/>
<path d="M419.44 822.11C424.08 822.11 427.85 818.35 427.85 813.7C427.85 809.05 424.09 805.29 419.44 805.29C414.8 805.29 411.03 809.05 411.03 813.7C411.03 818.35 414.8 822.11 419.44 822.11Z" fill="white"/>
<path d="M419.44 822.11C424.08 822.11 427.85 818.35 427.85 813.7C427.85 809.05 424.09 805.29 419.44 805.29C414.8 805.29 411.03 809.05 411.03 813.7C411.03 818.35 414.8 822.11 419.44 822.11Z" fill="white"/>
<path d="M458.05 793.55C459.34 783.12 454.53 773.94 447.32 773.05C440.1 772.16 433.21 779.89 431.92 790.32C430.63 800.75 435.44 809.93 442.65 810.82C449.87 811.72 456.76 803.98 458.05 793.55Z" fill="white"/>
<path d="M406.94 744.22C406.05 744.22 405.28 744 404.51 743.45C402.52 742.12 401.97 739.36 403.29 737.37C403.95 736.26 421.32 710.82 449.53 715.46C451.96 715.9 453.51 718.12 453.18 720.55C452.85 722.98 450.52 724.53 448.09 724.2C425.63 720.44 410.81 742.01 410.7 742.23C409.7 743.56 408.38 744.22 406.94 744.22Z" fill="white"/>
<path d="M403.88 860.02C407.27 851.31 400.36 840.49 388.46 835.87C376.56 831.25 364.16 834.56 360.78 843.27C357.39 851.98 364.3 862.8 376.2 867.42C388.1 872.04 400.49 868.73 403.88 860.02Z" fill="#9CE4FD"/>
</g>
<path d="M480 875.763C495.206 870.437 503.98 870.636 520 875.763" stroke="#AD5317" stroke-width="5" stroke-linecap="round"/>
<defs>
<clipPath id="clip0_5_515">
<rect width="288" height="156" fill="white" transform="translate(358.99 714)"/>
</clipPath>
</defs>
</svg>
