<svg width="1000" height="1000" viewBox="0 0 1000 1000" fill="none" xmlns="http://www.w3.org/2000/svg">
<path d="M724.39 497.96L713.6 576.24L708.33 614.43L676.31 846.73C638.43 856.98 573.6 863.73 500 863.73C426.4 863.73 361.57 856.98 323.69 846.73L291.67 614.43L286.4 576.24L275.61 497.96H724.39Z" fill="#B8EDFD"/>
<path d="M500 869.15C428.5 869.15 362.06 862.73 322.28 851.96C320.18 851.39 318.62 849.62 318.32 847.46L270.24 498.7C270.03 497.15 270.49 495.58 271.52 494.39C272.55 493.2 274.04 492.53 275.61 492.53H724.38C725.95 492.53 727.44 493.21 728.47 494.39C729.5 495.57 729.97 497.14 729.75 498.7L681.67 847.47C681.37 849.63 679.81 851.4 677.71 851.97C637.95 862.72 571.51 869.15 500 869.15ZM328.58 842.4C367.84 852.38 431.46 858.3 500.01 858.3C568.56 858.3 632.18 852.38 671.44 842.4L718.17 503.39H281.84L328.58 842.4Z" fill="#98C9E6"/>
<path d="M500 491.34C635.177 491.34 744.76 471.654 744.76 447.37C744.76 423.086 635.177 403.4 500 403.4C364.823 403.4 255.24 423.086 255.24 447.37C255.24 471.654 364.823 491.34 500 491.34Z" fill="#B8EDFD"/>
<path d="M500 496.76C434.31 496.76 372.5 492.16 325.97 483.8C274.73 474.59 249.82 462.68 249.82 447.37C249.82 432.06 274.73 420.14 325.97 410.94C372.5 402.58 434.31 397.98 500 397.98C565.69 397.98 627.51 402.58 674.03 410.94C725.27 420.14 750.18 432.06 750.18 447.37C750.18 462.68 725.27 474.59 674.03 483.8C627.5 492.16 565.69 496.76 500 496.76ZM500 408.83C434.92 408.83 373.8 413.37 327.88 421.62C261.42 433.56 260.66 446.82 260.66 447.37C260.66 447.93 261.42 461.18 327.88 473.12C373.8 481.37 434.93 485.91 500 485.91C565.07 485.91 626.19 481.37 672.11 473.12C738.57 461.18 739.33 447.93 739.33 447.37C739.33 446.81 738.57 433.55 672.11 421.62C626.2 413.37 565.08 408.83 500 408.83Z" fill="#98C9E6"/>
<path d="M286.41 576.24C329.26 589.43 409.96 599.17 500.01 599.17C590.06 599.17 670.76 589.43 713.61 576.24L708.34 614.43C665.22 626.97 588.05 635.31 500.01 635.31C411.97 635.31 334.81 626.97 291.68 614.43L286.41 576.24Z" fill="#9CE4FD"/>
<path d="M264.8 492.59C264.8 492.59 290.57 420.1 385.47 458.54C385.47 458.54 439.36 407.74 509.66 438.77C509.66 438.77 565.9 405.54 622.13 437.67C622.13 437.67 731.09 425.59 724.06 480.5C717.03 535.43 264.8 492.59 264.8 492.59Z" fill="#664435"/>
<path d="M565.48 513.92C543.06 513.92 518.42 513.47 491.62 512.56C378.82 508.75 265.43 498.09 264.3 497.99C262.63 497.83 261.14 496.92 260.24 495.5C259.34 494.09 259.14 492.34 259.7 490.77C260.11 489.61 270.11 462.3 299.85 448.94C323.15 438.47 351.59 439.6 384.42 452.28C389.53 448.05 401.76 438.89 419.22 431.97C440.03 423.72 472.38 417.3 509.38 432.74C521.11 426.59 571.6 403.56 623.3 432.1C634.74 431.03 695.87 426.59 719.89 451.01C727.77 459.03 730.99 469.18 729.45 481.19C727.42 497.03 702.11 506.49 649.8 510.96C626.79 512.94 598.57 513.92 565.48 513.92ZM273.07 487.9C300.52 490.35 396.5 498.51 492.02 501.73C557.95 503.95 610.73 503.43 648.89 500.17C711.92 494.78 718.24 483.24 718.68 479.83C719.79 471.17 717.65 464.23 712.15 458.64C689.86 435.96 623.4 443.01 622.73 443.08C621.58 443.21 620.44 442.97 619.44 442.4C566.55 412.18 512.96 443.14 512.42 443.46C510.91 444.35 509.07 444.46 507.47 443.75C479.83 431.55 451.61 430.93 423.58 441.93C402.43 450.23 389.32 462.39 389.19 462.51C387.65 463.96 385.4 464.38 383.44 463.59C352.23 450.95 325.66 449.33 304.45 458.79C287.23 466.45 277.56 479.9 273.07 487.9Z" fill="#4C291B"/>
<path d="M500 869.15C428.5 869.15 362.06 862.73 322.28 851.96C320.18 851.39 318.62 849.62 318.32 847.46L270.24 498.7C270.03 497.15 270.49 495.58 271.52 494.39C272.55 493.2 274.04 492.53 275.61 492.53H724.38C725.95 492.53 727.44 493.21 728.47 494.39C729.5 495.57 729.97 497.14 729.75 498.7L681.67 847.47C681.37 849.63 679.81 851.4 677.71 851.97C637.95 862.72 571.51 869.15 500 869.15ZM328.58 842.4C367.84 852.38 431.46 858.3 500.01 858.3C568.56 858.3 632.18 852.38 671.44 842.4L718.17 503.39H281.84L328.58 842.4Z" fill="#98C9E6"/>
<path d="M507.36 486.05C507.34 486.05 507.32 486.05 507.3 486.05C504.3 486.02 501.9 483.56 501.93 480.56C503.07 377.97 493.11 219.78 493.01 218.2C492.82 215.21 495.09 212.63 498.08 212.44C501.06 212.26 503.65 214.52 503.84 217.51C503.94 219.1 513.93 377.68 512.78 480.68C512.75 483.67 510.33 486.05 507.36 486.05Z" fill="#779B1E"/>
<path d="M499.59 334.49C499.59 334.49 343.57 366.23 350.17 242.22C350.17 242.22 491.12 259.16 499.59 334.49Z" fill="#97C941"/>
<path d="M458.35 343.55C456.84 343.55 455.3 343.54 453.74 343.5C418.54 342.79 391.19 334.23 372.43 318.06C352.3 300.7 342.98 275.08 344.75 241.93C344.83 240.43 345.53 239.03 346.68 238.07C347.83 237.1 349.32 236.66 350.82 236.84C352.29 237.02 387.13 241.31 423.62 255.04C473.15 273.67 501.28 300.93 504.99 333.89C505.3 336.68 503.43 339.25 500.68 339.81C499.87 339.97 481.96 343.55 458.35 343.55ZM355.4 248.47C355.15 275.18 363.25 295.8 379.5 309.83C391.01 319.77 413.24 331.79 453.72 332.65C471 333.01 485.91 331.19 493.39 330.04C481.46 272.23 380.95 252.56 355.4 248.47Z" fill="#779B1E"/>
<path d="M505.72 422.72C505.72 422.72 541.6 312.13 647.64 341.78C647.64 341.78 608.79 461.13 505.72 422.72Z" fill="#97C941"/>
<path d="M544.96 435.77C531.81 435.77 518.07 433.12 503.82 427.81C501.1 426.8 499.66 423.82 500.55 421.05C500.93 419.87 510.15 391.98 532.93 367.44C554.23 344.49 591.68 320.5 649.09 336.55C650.51 336.95 651.71 337.91 652.41 339.21C653.11 340.51 653.24 342.05 652.79 343.45C651.99 345.9 632.74 403.62 585.11 426.61C572.48 432.72 559.06 435.77 544.96 435.77ZM512.76 419.44C537.4 427.48 560.11 426.63 580.35 416.87C615.71 399.83 634.55 360.04 640.43 345.52C601.19 336.23 567.8 345.99 541.12 374.57C525.34 391.48 516.37 410.6 512.76 419.44Z" fill="#779B1E"/>
<path d="M502.99 426.021C502.99 426.021 392.16 477.371 350.17 357.091C350.17 357.091 494.52 350.691 502.99 426.021Z" fill="#97C941"/>
<path d="M450.15 442.38C436.92 442.38 422.49 440.27 408.26 434.25C379.53 422.09 358.27 396.73 345.05 358.88C344.48 357.26 344.72 355.47 345.68 354.05C346.64 352.63 348.22 351.75 349.93 351.67C351.43 351.6 387.13 350.13 424.52 358C475.63 368.76 504.63 392.07 508.38 425.41C508.64 427.73 507.39 429.96 505.27 430.94C503.85 431.59 480.07 442.38 450.15 442.38ZM357.93 362.4C370.15 393.27 388.45 414.05 412.41 424.23C447.42 439.09 485.19 427.11 496.99 422.62C486.17 366.48 386.38 362.41 357.93 362.4Z" fill="#779B1E"/>
<path d="M499.59 334.49C499.59 334.49 515.26 221.43 650.73 251.12C650.73 251.12 657.1 308.15 499.59 334.49Z" fill="#97C941"/>
<path d="M499.59 339.91C498.19 339.91 496.83 339.37 495.81 338.37C494.57 337.17 493.98 335.45 494.22 333.73C494.48 331.85 501.05 287.32 539.75 260.35C568.09 240.6 605.82 235.7 651.89 245.8C654.16 246.3 655.86 248.19 656.12 250.5C656.4 253.04 661.21 312.95 500.48 339.82C500.19 339.89 499.89 339.91 499.59 339.91ZM608.2 251.57C583.7 251.57 562.86 257.48 545.95 269.27C520.08 287.3 510.07 314.68 506.6 327.77C548.83 320.14 601.61 305.89 629.23 280.19C640.74 269.49 644.05 260.36 644.99 255.46C631.94 252.86 619.67 251.57 608.2 251.57Z" fill="#779B1E"/>
<path d="M504.44 336.67C503.83 336.67 503.21 336.48 502.68 336.1C501.33 335.13 501.03 333.24 502.01 331.89C502.54 331.16 515.25 313.71 535.58 297.08C562.75 274.84 590.49 265.03 615.8 268.71C617.45 268.95 618.59 270.48 618.35 272.13C618.11 273.78 616.57 274.93 614.93 274.68C557.68 266.34 507.4 334.74 506.9 335.43C506.3 336.23 505.38 336.67 504.44 336.67Z" fill="white"/>
<path d="M509.44 425.74C508.34 425.74 507.28 425.13 506.75 424.08C506 422.59 506.6 420.78 508.08 420.03C508.61 419.76 561.74 392.82 603.07 360.51C604.38 359.48 606.27 359.72 607.3 361.03C608.33 362.34 608.09 364.23 606.78 365.26C564.97 397.94 511.33 425.14 510.79 425.41C510.36 425.63 509.89 425.74 509.44 425.74Z" fill="white"/>
<path d="M499.95 426.96C499.28 426.96 498.61 426.74 498.05 426.28C466.3 400.33 439.47 390.02 422.55 385.94C404.26 381.53 393.32 383.25 393.21 383.27C391.57 383.54 390.02 382.44 389.74 380.8C389.46 379.16 390.56 377.61 392.2 377.33C394.07 377.01 438.83 370.1 501.86 421.62C503.15 422.67 503.34 424.57 502.29 425.86C501.69 426.58 500.82 426.96 499.95 426.96Z" fill="white"/>
<path d="M499.59 337.5C498.75 337.5 497.92 337.15 497.32 336.47C456.55 290 392.95 281.21 392.31 281.13C390.66 280.91 389.5 279.4 389.71 277.75C389.93 276.1 391.43 274.93 393.09 275.15C395.78 275.5 459.59 284.34 501.84 332.49C502.94 333.74 502.81 335.65 501.56 336.74C501 337.26 500.29 337.5 499.59 337.5Z" fill="white"/>
<path d="M498.45 233.02C498.45 233.02 502.77 126.69 632.72 136.97C632.72 136.98 626.27 238.86 498.45 233.02Z" fill="#97C941"/>
<path d="M508.41 238.68C504.92 238.68 501.51 238.6 498.2 238.44C495.22 238.3 492.91 235.78 493.03 232.8C493.1 231.04 495.17 189.25 528.77 159.45C553.6 137.43 588.72 128.05 633.15 131.56C636.1 131.79 638.32 134.35 638.14 137.31C638.07 138.41 636.22 164.62 617.94 190.32C590.12 229.47 544.84 238.68 508.41 238.68ZM504.48 227.8C552.51 228.79 587.74 214.09 609.1 184.05C620.92 167.42 625.14 150.41 626.59 142.01C588 139.93 557.56 148.49 536.08 167.48C512.67 188.17 506.21 216.14 504.48 227.8Z" fill="#779B1E"/>
<path d="M353.6 147.34C353.6 147.34 464.08 115.55 495.6 230.35C495.61 230.35 373.74 260.26 353.6 147.34Z" fill="#97C941"/>
<path d="M461 239.43C440.66 239.43 414.94 235.78 392.73 221.32C369.13 205.97 354.17 181.4 348.27 148.29C347.78 145.56 349.44 142.89 352.11 142.12C354.16 141.53 402.74 127.97 445.96 152.22C472.49 167.11 490.96 192.91 500.85 228.91C501.24 230.32 501.04 231.83 500.3 233.09C499.56 234.35 498.34 235.26 496.92 235.61C495.69 235.91 480.93 239.43 461 239.43ZM359.93 151.43C365.84 178.88 378.82 199.31 398.58 212.18C431.09 233.37 473.64 228.71 488.72 226.16C479.34 196.03 463.21 174.38 440.72 161.72C408.98 143.87 372.79 148.84 359.93 151.43Z" fill="#779B1E"/>
<path d="M498.45 235.44C498.01 235.44 497.56 235.32 497.16 235.06C496.04 234.35 495.7 232.86 496.42 231.73C496.77 231.18 532.43 176.02 598.27 160.04C599.56 159.72 600.87 160.52 601.18 161.81C601.49 163.1 600.7 164.41 599.41 164.72C535.51 180.23 500.83 233.77 500.49 234.31C500.03 235.04 499.24 235.44 498.45 235.44Z" fill="white"/>
<path d="M492.49 233.03C491.61 233.03 490.74 232.65 490.14 231.91C443.16 173.68 397.72 171.06 397.27 171.04C395.61 170.97 394.32 169.56 394.39 167.9C394.46 166.24 395.84 164.98 397.52 165.01C399.48 165.09 446 167.58 494.84 228.11C495.89 229.41 495.68 231.3 494.39 232.35C493.82 232.81 493.15 233.03 492.49 233.03Z" fill="white"/>
<path d="M458.35 343.55C456.84 343.55 455.3 343.54 453.74 343.5C418.54 342.79 391.19 334.23 372.43 318.06C352.3 300.7 342.98 275.08 344.75 241.93C344.83 240.43 345.53 239.03 346.68 238.07C347.83 237.1 349.32 236.66 350.82 236.84C352.29 237.02 387.13 241.31 423.62 255.04C473.15 273.67 501.28 300.93 504.99 333.89C505.3 336.68 503.43 339.25 500.68 339.81C499.87 339.97 481.96 343.55 458.35 343.55ZM355.4 248.47C355.15 275.18 363.25 295.8 379.5 309.83C391.01 319.77 413.24 331.79 453.72 332.65C471 333.01 485.91 331.19 493.39 330.04C481.46 272.23 380.95 252.56 355.4 248.47Z" fill="#779B1E"/>
<path d="M544.96 435.77C531.81 435.77 518.07 433.12 503.82 427.81C501.1 426.8 499.66 423.82 500.55 421.05C500.93 419.87 510.15 391.98 532.93 367.44C554.23 344.49 591.68 320.5 649.09 336.55C650.51 336.95 651.71 337.91 652.41 339.21C653.11 340.51 653.24 342.05 652.79 343.45C651.99 345.9 632.74 403.62 585.11 426.61C572.48 432.72 559.06 435.77 544.96 435.77ZM512.76 419.44C537.4 427.48 560.11 426.63 580.35 416.87C615.71 399.83 634.55 360.04 640.43 345.52C601.19 336.23 567.8 345.99 541.12 374.57C525.34 391.48 516.37 410.6 512.76 419.44Z" fill="#779B1E"/>
<path d="M450.15 442.38C436.92 442.38 422.49 440.27 408.26 434.25C379.53 422.09 358.27 396.73 345.05 358.88C344.48 357.26 344.72 355.47 345.68 354.05C346.64 352.63 348.22 351.75 349.93 351.67C351.43 351.6 387.13 350.13 424.52 358C475.63 368.76 504.63 392.07 508.38 425.41C508.64 427.73 507.39 429.96 505.27 430.94C503.85 431.59 480.07 442.38 450.15 442.38ZM357.93 362.4C370.15 393.27 388.45 414.05 412.41 424.23C447.42 439.09 485.19 427.11 496.99 422.62C486.17 366.48 386.38 362.41 357.93 362.4Z" fill="#779B1E"/>
<path d="M499.59 339.91C498.19 339.91 496.83 339.37 495.81 338.37C494.57 337.17 493.98 335.45 494.22 333.73C494.48 331.85 501.05 287.32 539.75 260.35C568.09 240.6 605.82 235.7 651.89 245.8C654.16 246.3 655.86 248.19 656.12 250.5C656.4 253.04 661.21 312.95 500.48 339.82C500.19 339.89 499.89 339.91 499.59 339.91ZM608.2 251.57C583.7 251.57 562.86 257.48 545.95 269.27C520.08 287.3 510.07 314.68 506.6 327.77C548.83 320.14 601.61 305.89 629.23 280.19C640.74 269.49 644.05 260.36 644.99 255.46C631.94 252.86 619.67 251.57 608.2 251.57Z" fill="#779B1E"/>
<path d="M508.41 238.68C504.92 238.68 501.51 238.6 498.2 238.44C495.22 238.3 492.91 235.78 493.03 232.8C493.1 231.04 495.17 189.25 528.77 159.45C553.6 137.43 588.72 128.05 633.15 131.56C636.1 131.79 638.32 134.35 638.14 137.31C638.07 138.41 636.22 164.62 617.94 190.32C590.12 229.47 544.84 238.68 508.41 238.68ZM504.48 227.8C552.51 228.79 587.74 214.09 609.1 184.05C620.92 167.42 625.14 150.41 626.59 142.01C588 139.93 557.56 148.49 536.08 167.48C512.67 188.17 506.21 216.14 504.48 227.8Z" fill="#779B1E"/>
<path d="M461 239.43C440.66 239.43 414.94 235.78 392.73 221.32C369.13 205.97 354.17 181.4 348.27 148.29C347.78 145.56 349.44 142.89 352.11 142.12C354.16 141.53 402.74 127.97 445.96 152.22C472.49 167.11 490.96 192.91 500.85 228.91C501.24 230.32 501.04 231.83 500.3 233.09C499.56 234.35 498.34 235.26 496.92 235.61C495.69 235.91 480.93 239.43 461 239.43ZM359.93 151.43C365.84 178.88 378.82 199.31 398.58 212.18C431.09 233.37 473.64 228.71 488.72 226.16C479.34 196.03 463.21 174.38 440.72 161.72C408.98 143.87 372.79 148.84 359.93 151.43Z" fill="#779B1E"/>
<path d="M450.26 511.61C450.26 511.61 450.26 462.88 516.47 475.55C516.47 475.55 582.68 431.8 628.2 506.88L450.26 511.61Z" fill="#664435"/>
<path d="M450.26 517.03C448.85 517.03 447.49 516.48 446.47 515.49C445.42 514.47 444.83 513.07 444.83 511.6C444.83 510.8 445.01 491.87 460.48 479.08C473.01 468.72 491.49 465.61 515.41 469.83C522.49 465.69 547.77 452.71 576.81 459.23C598.98 464.21 617.83 479.29 632.84 504.06C633.84 505.71 633.89 507.77 632.96 509.47C632.03 511.17 630.27 512.24 628.34 512.29L450.4 517.02C450.36 517.03 450.31 517.03 450.26 517.03ZM496.06 478.85C483.93 478.85 474.33 481.72 467.4 487.45C460.36 493.27 457.55 500.9 456.43 506.01L618.33 501.71C605.95 484.34 591.25 473.63 574.54 469.85C545.53 463.28 519.72 479.91 519.46 480.08C518.28 480.85 516.84 481.14 515.46 480.88C508.4 479.53 501.93 478.85 496.06 478.85Z" fill="#4C291B"/>
<path d="M744.76 447.371V555.201C744.76 561.831 736.6 568.111 721.97 573.751C683.02 588.761 598.28 599.161 499.99 599.161C401.7 599.161 316.97 588.761 278.01 573.751C263.39 568.111 255.22 561.831 255.22 555.201V447.371C255.22 471.651 364.8 491.341 499.98 491.341C635.16 491.341 744.76 471.651 744.76 447.371Z" fill="#B8EDFD"/>
<path d="M500 604.59C404.61 604.59 316.71 594.47 276.07 578.81C258.4 571.99 249.81 564.27 249.81 555.19V447.37C249.81 444.37 252.24 441.94 255.24 441.94C258.24 441.94 260.67 444.37 260.67 447.37C260.67 447.93 261.43 461.18 327.89 473.12C373.81 481.37 434.94 485.91 500.01 485.91C565.08 485.91 626.2 481.37 672.12 473.12C738.58 461.18 739.34 447.93 739.34 447.37C739.34 444.37 741.77 441.94 744.77 441.94C747.77 441.94 750.2 444.37 750.2 447.37V555.2C750.2 564.27 741.61 572 723.94 578.82C683.29 594.47 595.39 604.59 500 604.59ZM260.66 463.37V555.19C260.66 556.2 261.59 561.59 279.97 568.68C319.46 583.9 405.82 593.73 499.99 593.73C594.16 593.73 680.52 583.9 720.01 568.68C738.39 561.59 739.32 556.2 739.32 555.19V463.37C727.46 471.33 705.8 478.08 674.02 483.79C627.48 492.15 565.68 496.75 499.99 496.75C434.3 496.75 372.49 492.15 325.96 483.79C294.18 478.09 272.53 471.33 260.66 463.37Z" fill="#98C9E6"/>
<g clip-path="url(#clip0_3_986)">
<path d="M599.263 748.4C599.263 768.54 586.763 781.15 571.383 781.15C556.003 781.15 543.503 768.43 543.503 748.4C543.503 728.38 550.803 708.35 566.183 708.35C581.563 708.35 599.263 728.26 599.263 748.4Z" fill="#713D15"/>
<path d="M588.534 764.11C593.174 764.11 596.944 760.35 596.944 755.7C596.944 751.05 593.184 747.29 588.534 747.29C583.894 747.29 580.124 751.05 580.124 755.7C580.124 760.35 583.884 764.11 588.534 764.11Z" fill="white"/>
<path d="M565.334 752.93C572.554 752.04 577.354 742.86 576.064 732.43C574.774 722 567.884 714.27 560.664 715.16C553.444 716.05 548.644 725.23 549.934 735.66C551.224 746.08 558.114 753.82 565.334 752.93Z" fill="white"/>
<path d="M601.033 686.22C599.593 686.22 598.153 685.56 597.383 684.23C597.273 684.01 582.443 662.44 559.993 666.2C557.563 666.64 555.343 664.98 554.903 662.55C554.463 660.12 556.123 657.9 558.553 657.46C586.653 652.81 604.023 678.26 604.793 679.37C606.123 681.36 605.563 684.13 603.573 685.45C602.803 686 601.913 686.22 601.033 686.22Z" fill="white"/>
<path d="M631.814 809.31C643.714 804.68 650.624 793.87 647.234 785.16C643.844 776.45 631.454 773.13 619.554 777.76C607.654 782.39 600.744 793.2 604.134 801.91C607.524 810.62 619.914 813.94 631.814 809.31Z" fill="#9CE4FD"/>
<path d="M410.744 748.4C410.744 768.54 423.244 781.15 438.624 781.15C454.004 781.15 466.504 768.43 466.504 748.4C466.504 728.38 459.204 708.35 443.824 708.35C428.444 708.35 410.744 728.26 410.744 748.4Z" fill="#713D15"/>
<path d="M421.473 764.11C426.113 764.11 429.883 760.35 429.883 755.7C429.883 751.05 426.123 747.29 421.473 747.29C416.833 747.29 413.063 751.05 413.063 755.7C413.063 760.35 416.833 764.11 421.473 764.11Z" fill="white"/>
<path d="M421.473 764.11C426.113 764.11 429.883 760.35 429.883 755.7C429.883 751.05 426.123 747.29 421.473 747.29C416.833 747.29 413.063 751.05 413.063 755.7C413.063 760.35 416.833 764.11 421.473 764.11Z" fill="white"/>
<path d="M460.083 735.55C461.373 725.12 456.563 715.94 449.353 715.05C442.133 714.16 435.243 721.89 433.953 732.32C432.663 742.75 437.473 751.93 444.683 752.82C451.903 753.72 458.793 745.98 460.083 735.55Z" fill="white"/>
<path d="M408.974 686.22C408.084 686.22 407.313 686 406.543 685.45C404.553 684.12 404.003 681.36 405.323 679.37C405.983 678.26 423.354 652.82 451.564 657.46C453.994 657.9 455.544 660.12 455.214 662.55C454.884 664.98 452.554 666.53 450.124 666.2C427.664 662.44 412.843 684.01 412.733 684.23C411.733 685.56 410.414 686.22 408.974 686.22Z" fill="white"/>
<path d="M405.914 802.02C409.304 793.31 402.394 782.49 390.494 777.87C378.594 773.25 366.194 776.56 362.814 785.27C359.424 793.98 366.334 804.8 378.234 809.42C390.134 814.04 402.524 810.73 405.914 802.02Z" fill="#9CE4FD"/>
<path d="M505.004 805.71C494.824 805.71 485.094 804.16 477.454 801.17L479.444 795.97C486.414 798.63 495.484 800.06 505.004 800.06C514.514 800.06 523.594 798.62 530.564 795.97L532.554 801.17C524.914 804.16 515.184 805.71 505.004 805.71Z" fill="#AD5317"/>
<path d="M475.353 804.27C474.243 804.27 473.253 803.72 472.813 802.61C472.153 801.28 472.813 799.62 474.143 798.96C476.463 797.85 476.683 794.53 476.683 794.53C476.793 792.98 478.013 791.87 479.563 791.99C481.113 792.1 482.223 793.32 482.223 794.87C482.113 797.3 480.783 802.06 476.473 804.05C476.123 804.16 475.793 804.27 475.353 804.27Z" fill="#AD5317"/>
<path d="M534.654 804.27C534.324 804.27 533.884 804.16 533.544 804.05C529.234 802.06 527.904 797.41 527.794 794.87C527.684 793.32 528.904 792.1 530.454 791.99C532.004 791.88 533.224 793.1 533.334 794.65C533.334 794.76 533.554 797.97 535.874 799.08C537.204 799.74 537.864 801.4 537.204 802.73C536.644 803.6 535.644 804.27 534.654 804.27Z" fill="#AD5317"/>
</g>
<defs>
<clipPath id="clip0_3_986">
<rect width="288" height="156" fill="white" transform="translate(361.023 656)"/>
</clipPath>
</defs>
</svg>
