<svg width="512" height="512" viewBox="0 0 512 512" fill="none" xmlns="http://www.w3.org/2000/svg">
<mask id="mask0_107_4283" style="mask-type:alpha" maskUnits="userSpaceOnUse" x="0" y="0" width="512" height="512">
<path d="M256 512C397.385 512 512 397.385 512 256C512 114.615 397.385 0 256 0C114.615 0 0 114.615 0 256C0 397.385 114.615 512 256 512Z" fill="#D3ECF4"/>
</mask>
<g mask="url(#mask0_107_4283)">
<path d="M256 512C397.385 512 512 397.385 512 256C512 114.615 397.385 0 256 0C114.615 0 0 114.615 0 256C0 397.385 114.615 512 256 512Z" fill="#D3ECF4"/>
<path d="M368.478 342.878C368.478 422.454 317.629 486.993 254.949 486.993C192.243 486.993 141.42 422.454 141.42 342.878C141.42 330.779 142.605 319.003 144.842 307.766C157.184 245.113 201.809 198.764 254.976 198.764C307.577 198.764 351.798 244.116 364.706 305.745C367.185 317.602 368.478 330.051 368.478 342.878Z" fill="#DDBDF4"/>
<path d="M368.478 342.878C368.478 422.454 317.629 486.993 254.949 486.993C192.243 486.993 141.42 422.454 141.42 342.878C141.42 330.779 142.605 319.003 144.842 307.766C171.628 321.374 210.109 329.89 252.874 329.89C297.688 329.89 337.812 320.539 364.706 305.745C367.185 317.602 368.478 330.051 368.478 342.878Z" fill="#CBA7EA"/>
<path d="M313.56 317.305C313.56 328.812 306.419 336.088 297.607 336.088C288.795 336.088 281.654 328.839 281.654 317.305C281.654 305.799 285.831 294.373 294.643 294.373C303.454 294.373 313.56 305.799 313.56 317.305Z" fill="#9669BC"/>
<path d="M301.137 308.44C303.801 308.44 305.96 306.28 305.96 303.616C305.96 300.952 303.801 298.792 301.137 298.792C298.473 298.792 296.313 300.952 296.313 303.616C296.313 306.28 298.473 308.44 301.137 308.44Z" fill="white"/>
<path d="M294 331.363C298.129 330.924 300.932 325.446 300.26 319.127C299.588 312.807 295.696 308.04 291.567 308.479C287.438 308.918 284.636 314.397 285.307 320.716C285.979 327.035 289.871 331.802 294 331.363Z" fill="white"/>
<path d="M316.712 281.196C315.419 281.196 314.125 280.576 313.344 279.417C312.994 278.878 304.397 266.402 290.897 268.638C288.714 268.989 286.612 267.507 286.235 265.324C285.858 263.114 287.367 261.039 289.55 260.662C307.766 257.617 318.814 273.112 320.027 274.917C321.267 276.776 320.781 279.283 318.922 280.522C318.275 280.98 317.494 281.196 316.712 281.196Z" fill="white"/>
<path d="M194.856 317.305C194.856 328.812 201.998 336.088 210.809 336.088C219.621 336.088 226.762 328.839 226.762 317.305C226.762 305.799 222.585 294.373 213.774 294.373C204.962 294.373 194.856 305.799 194.856 317.305Z" fill="#9669BC"/>
<path d="M207.279 308.44C209.943 308.44 212.103 306.28 212.103 303.616C212.103 300.952 209.943 298.792 207.279 298.792C204.615 298.792 202.456 300.952 202.456 303.616C202.456 306.28 204.615 308.44 207.279 308.44Z" fill="white"/>
<path d="M223.092 320.725C223.764 314.405 220.962 308.927 216.833 308.488C212.704 308.049 208.812 312.816 208.14 319.135C207.468 325.455 210.271 330.933 214.4 331.372C218.529 331.811 222.421 327.044 223.092 320.725Z" fill="white"/>
<path d="M191.704 281.196C190.949 281.196 190.168 280.98 189.467 280.522C187.608 279.283 187.096 276.777 188.335 274.917C188.82 274.217 200.111 257.536 218.813 260.662C221.022 261.039 222.504 263.114 222.127 265.324C221.75 267.534 219.675 269.016 217.465 268.638C203.857 266.375 195.395 278.851 195.045 279.39C194.291 280.549 193.024 281.196 191.704 281.196Z" fill="white"/>
<path d="M254.949 491.035C190.114 491.035 137.378 424.583 137.378 342.878C137.378 330.725 138.563 318.653 140.881 306.984C153.896 240.883 200.812 194.722 254.976 194.722C308.332 194.722 355.059 240.047 368.64 304.909C371.227 317.197 372.547 329.97 372.547 342.878C372.52 424.583 319.784 491.035 254.949 491.035ZM254.949 202.806C204.719 202.806 161.064 246.299 148.776 308.547C146.567 319.704 145.435 331.264 145.435 342.878C145.435 420.109 194.56 482.951 254.922 482.951C315.284 482.951 364.409 420.109 364.409 342.878C364.409 330.536 363.143 318.329 360.691 306.58C347.917 245.491 304.424 202.806 254.949 202.806Z" fill="#9062B7"/>
<path d="M452.958 396.504H58.7722V536.306H452.958V396.504Z" fill="#FFF3F6"/>
<path d="M452.985 396.504V465.92C409.007 454.764 337.165 447.488 256 447.488C174.7 447.488 102.75 454.791 58.7992 466.001V396.504H452.985Z" fill="#F2E2E7"/>
<path d="M472.28 341.154H39.7205V423.424H472.28V341.154Z" fill="#FFF3F6"/>
<path d="M472.28 427.493H312.886C310.649 427.493 308.844 425.688 308.844 423.451C308.844 421.214 310.649 419.409 312.886 419.409H468.237V345.196H43.7626V419.382H140.854C143.091 419.382 144.896 421.187 144.896 423.424C144.896 425.661 143.091 427.466 140.854 427.466H39.7205C37.4838 427.466 35.6783 425.661 35.6783 423.424V341.154C35.6783 338.917 37.4838 337.112 39.7205 337.112H472.28C474.516 337.112 476.322 338.917 476.322 341.154V423.424C476.322 425.661 474.516 427.493 472.28 427.493Z" fill="#CEB6BD"/>
<path d="M452.958 540.349H58.7722C56.5356 540.349 54.7301 538.543 54.7301 536.306V423.451C54.7301 421.214 56.5356 419.409 58.7722 419.409C61.0088 419.409 62.8143 421.214 62.8143 423.451V532.264H448.916V423.451C448.916 421.214 450.722 419.409 452.958 419.409C455.195 419.409 457 421.214 457 423.451V536.306C457 538.516 455.195 540.349 452.958 540.349Z" fill="#CEB6BD"/>
<path d="M435.092 338.297V338.486C435.092 352.876 425.876 362.766 407.471 362.766C389.066 362.766 368.478 352.876 368.478 338.486C368.478 337.92 368.505 337.354 368.586 336.815C370.014 323.207 388.824 312.643 406.501 312.643C424.825 312.643 435.011 323.961 435.092 338.297Z" fill="#DDBDF4"/>
<path d="M435.092 338.297V338.486C435.092 352.876 425.876 362.766 407.471 362.766C389.066 362.766 368.478 352.876 368.478 338.486C368.478 337.92 368.505 337.354 368.586 336.815C382.006 344.118 409.061 354.493 435.092 338.297Z" fill="#CBA7EA"/>
<path d="M414.046 355.436C412.672 355.436 411.352 354.735 410.597 353.496C409.438 351.582 410.031 349.103 411.944 347.944C419.705 343.229 418.6 335.926 418.574 335.63C418.223 333.447 419.678 331.345 421.861 330.968C424.071 330.59 426.119 332.019 426.523 334.174C426.631 334.713 428.787 347.136 416.148 354.843C415.475 355.247 414.747 355.436 414.046 355.436Z" fill="white"/>
<path d="M407.471 366.808C386.695 366.808 364.436 355.436 364.436 338.486C364.436 337.705 364.49 336.95 364.598 336.222C366.323 319.784 387.665 308.628 406.501 308.628C425.903 308.628 439.027 320.539 439.134 338.297V338.513C439.134 355.948 427.008 366.808 407.471 366.808ZM406.501 316.686C389.902 316.686 373.733 326.467 372.601 337.246C372.52 337.785 372.52 338.136 372.52 338.486C372.52 350.073 390.979 358.723 407.471 358.723C422.67 358.723 431.05 351.529 431.05 338.486L435.092 338.297L431.05 338.324C430.969 325.174 421.349 316.686 406.501 316.686Z" fill="#9062B7"/>
<path d="M74.8059 338.297V338.486C74.8059 352.876 84.0219 362.766 102.427 362.766C120.832 362.766 141.42 352.876 141.42 338.486C141.42 337.92 141.393 337.354 141.312 336.815C139.884 323.207 121.075 312.643 103.397 312.643C85.0729 312.643 74.8868 323.961 74.8059 338.297Z" fill="#DDBDF4"/>
<path d="M74.8059 338.297V338.486C74.8059 352.876 84.0219 362.765 102.427 362.765C120.832 362.765 141.42 352.876 141.42 338.486C141.42 337.92 141.393 337.354 141.312 336.815C127.892 344.118 100.837 354.493 74.8059 338.297Z" fill="#CBA7EA"/>
<path d="M95.8518 355.436C95.1242 355.436 94.3967 355.247 93.7499 354.843C81.1386 347.136 83.2943 334.713 83.3752 334.174C83.7794 331.992 85.8813 330.537 88.091 330.941C90.2737 331.345 91.7289 333.447 91.3246 335.63C91.2708 336.007 90.2198 343.256 97.9537 347.945C99.867 349.103 100.46 351.582 99.3011 353.496C98.5465 354.762 97.2261 355.436 95.8518 355.436Z" fill="white"/>
<path d="M102.427 366.808C82.8901 366.808 70.7638 355.948 70.7638 338.486V338.27C70.8716 320.539 83.968 308.601 103.397 308.601C122.233 308.601 143.576 319.758 145.327 336.384C145.408 336.95 145.462 337.704 145.462 338.459C145.462 355.409 123.203 366.808 102.427 366.808ZM78.848 338.297V338.459C78.848 351.502 87.2286 358.696 102.427 358.696C118.919 358.696 137.378 350.046 137.378 338.459C137.378 338.109 137.378 337.731 137.324 337.381C136.165 326.44 120.024 316.659 103.424 316.659C88.576 316.686 78.9288 325.174 78.848 338.297Z" fill="#9062B7"/>
<path d="M275.725 157.965C281.869 163.382 292.163 169.472 306.526 167.99C306.526 167.99 302.376 139.129 292.514 134.521L286.801 133.228C279.956 131.692 273.112 135.761 271.198 142.471C269.608 148.076 271.36 154.085 275.725 157.965Z" fill="#D9EA94"/>
<path d="M302.161 172.248C288.795 172.248 279.067 166.292 273.058 160.984C267.56 156.133 265.297 148.426 267.318 141.339C269.824 132.554 278.798 127.246 287.69 129.24L293.403 130.533C293.699 130.587 293.969 130.695 294.238 130.803C305.502 136.084 309.787 162.196 310.515 167.37C310.676 168.448 310.38 169.553 309.706 170.442C309.032 171.304 308.035 171.87 306.931 171.978C305.287 172.167 303.697 172.248 302.161 172.248ZM283.891 136.92C279.875 136.92 276.238 139.56 275.079 143.576C273.92 147.672 275.213 152.118 278.393 154.947C283.271 159.232 291.085 164.056 301.784 164.163C299.789 153.735 295.747 140.989 291.139 138.348L285.912 137.162C285.238 137 284.564 136.92 283.891 136.92Z" fill="#B2C65D"/>
<path d="M244.898 159.043C251.042 164.46 261.336 170.55 275.699 169.068C275.699 169.068 271.549 140.207 261.686 135.599L255.973 134.306C249.128 132.77 242.284 136.839 240.371 143.549C238.781 149.154 240.532 155.19 244.898 159.043Z" fill="#D9EA94"/>
<path d="M271.333 173.352C257.967 173.352 248.239 167.397 242.23 162.088C236.733 157.238 234.469 149.531 236.49 142.444C238.996 133.659 247.943 128.35 256.862 130.344L262.575 131.638C262.872 131.692 263.141 131.8 263.411 131.907C274.674 137.189 278.959 163.301 279.714 168.475C279.875 169.553 279.579 170.658 278.905 171.547C278.232 172.409 277.234 172.975 276.13 173.083C274.459 173.272 272.869 173.352 271.333 173.352ZM253.063 138.024C249.048 138.024 245.41 140.665 244.251 144.68C243.092 148.776 244.386 153.25 247.565 156.052C252.443 160.337 260.258 165.16 270.956 165.268C268.962 154.84 264.92 142.094 260.312 139.453L255.084 138.267C254.41 138.078 253.736 138.024 253.063 138.024Z" fill="#B2C65D"/>
<path d="M326.71 122.88C326.71 122.88 338.27 101.268 371.119 111.427C371.119 111.454 341.881 155.702 326.71 122.88Z" fill="#D9EA94"/>
<path d="M341.235 139.049C340.83 139.049 340.399 139.022 339.995 138.995C332.935 138.456 327.222 133.605 323.045 124.578C322.506 123.419 322.56 122.099 323.153 120.967C323.288 120.724 336.68 96.5525 372.305 107.574C373.517 107.951 374.488 108.867 374.919 110.08C375.35 111.266 375.188 112.613 374.488 113.664C372.736 116.332 357.241 139.049 341.235 139.049ZM331.372 123.177C334.013 128.054 337.112 130.668 340.588 130.937C348.483 131.557 358.616 121.075 364.328 113.853C344.064 109.595 334.417 119.161 331.372 123.177Z" fill="#B2C65D"/>
<path d="M180.089 126.707C180.089 126.707 170.253 99.4627 135.491 115.901C135.491 115.901 161.388 171.197 180.089 126.707Z" fill="#D9EA94"/>
<path d="M163.005 148.076C146.567 148.076 133.309 120.751 131.827 117.625C130.883 115.604 131.746 113.206 133.767 112.263C146.809 106.092 158.208 104.96 167.693 108.867C179.604 113.772 183.727 124.901 183.889 125.359C184.239 126.302 184.212 127.353 183.808 128.296C178.365 141.258 171.466 147.914 163.301 148.076C163.22 148.049 163.112 148.076 163.005 148.076ZM141.043 117.895C146.324 127.677 155.459 139.992 163.005 139.992C163.059 139.992 163.085 139.992 163.139 139.992C168.502 139.884 172.813 133.066 175.67 126.76C174.376 124.254 170.981 118.919 164.514 116.278C158.1 113.664 150.232 114.23 141.043 117.895Z" fill="#B2C65D"/>
<path d="M281.6 109.352C288.984 99.7053 302.242 87.9023 323.584 85.9352C323.584 85.9352 325.794 129.159 312.778 138.698L304.829 142.228C295.316 146.432 284.187 142.471 279.444 133.228C275.51 125.521 276.345 116.224 281.6 109.352Z" fill="#D9EA94"/>
<path d="M296.906 147.968C288.283 147.968 280.01 143.225 275.833 135.087C271.198 126.033 272.195 114.984 278.366 106.927C286.208 96.6872 300.355 84.0489 323.207 81.947C324.312 81.8392 325.389 82.1895 326.225 82.9171C327.06 83.6447 327.572 84.6687 327.626 85.7735C327.869 90.4354 329.539 131.503 315.176 142.013C314.934 142.174 314.691 142.336 314.422 142.444L306.472 145.974C303.373 147.321 300.113 147.968 296.906 147.968ZM284.807 111.832C280.522 117.41 279.848 125.117 283.055 131.395C286.801 138.752 295.64 141.878 303.185 138.536L310.703 135.222C317.925 129.32 320 106.388 319.704 90.5163C302.242 93.3996 291.166 103.532 284.807 111.832Z" fill="#B2C65D"/>
<path d="M237.406 159.286C230.589 166.616 218.759 175.239 201.108 175.158C201.108 175.158 202.725 139.507 214.178 132.743L220.968 130.479C229.106 127.784 237.918 131.907 241.071 139.884C243.685 146.513 242.257 154.085 237.406 159.286Z" fill="#D9EA94"/>
<path d="M201.378 179.2C201.27 179.2 201.162 179.2 201.081 179.2C199.976 179.2 198.925 178.742 198.171 177.933C197.416 177.125 197.012 176.074 197.066 174.969C198.71 138.968 209.866 130.56 212.103 129.24C212.345 129.078 212.615 128.97 212.884 128.889L219.702 126.626C229.861 123.257 240.909 128.431 244.844 138.402C248.024 146.459 246.272 155.729 240.37 162.061C233.041 169.876 220.376 179.2 201.378 179.2ZM215.902 136.408C210.162 140.342 206.552 157.561 205.42 170.954C219.298 169.768 228.783 162.627 234.442 156.537C238.215 152.495 239.346 146.54 237.298 141.366C234.954 135.384 228.325 132.285 222.235 134.306L215.902 136.408Z" fill="#B2C65D"/>
<path d="M197.497 113.449C197.389 99.7862 200.273 79.3601 215.902 65.078C215.902 65.078 247.539 91.9715 244.979 117.787C243.981 128 238.403 147.672 229.78 148.453C222.936 149.073 214.824 143.495 208.626 138.025C201.593 131.8 197.578 122.853 197.497 113.449Z" fill="#D9EA94"/>
<path d="M228.756 152.549C222.262 152.549 214.609 148.696 205.959 141.043C198.09 134.09 193.536 124.039 193.455 113.448C193.347 98.331 196.662 77.1504 213.181 62.0598C214.69 60.6855 216.98 60.6316 218.516 61.952C219.864 63.1108 251.715 90.5432 248.994 118.137C248.158 126.68 242.877 151.283 230.131 152.441C229.699 152.522 229.241 152.549 228.756 152.549ZM216.01 70.656C203.965 83.5369 201.459 100.81 201.539 113.422C201.593 121.694 205.15 129.563 211.321 135.006C218.651 141.474 225.064 144.842 229.43 144.438C234.173 144.007 239.805 128.97 240.963 117.41C242.85 98.2771 223.34 77.6893 216.01 70.656Z" fill="#B2C65D"/>
<path d="M276.588 106.604C276.157 106.739 275.725 106.873 275.321 107.062C276.372 104.448 276.561 101.511 275.699 98.6004C273.677 91.7827 266.509 87.9023 259.692 89.9233C253.467 91.7827 249.694 97.8998 250.611 104.125C247.539 102.077 243.604 101.376 239.805 102.508C232.987 104.529 229.107 111.697 231.128 118.515C232.61 123.473 236.813 126.895 241.637 127.596C237.056 130.641 234.792 136.434 236.436 141.986C238.457 148.803 245.625 152.684 252.443 150.663C255.784 149.666 258.425 147.429 260.015 144.626C262.899 149.773 269.043 152.414 274.917 150.663C281.735 148.642 285.615 141.474 283.594 134.656C283.271 133.578 282.84 132.581 282.274 131.665C282.813 131.584 283.379 131.449 283.917 131.288C290.735 129.267 294.616 122.099 292.595 115.281C290.6 108.463 283.432 104.583 276.588 106.604Z" fill="#FFC5D8"/>
<path d="M271.198 155.271C267.048 155.271 263.087 153.762 260.015 151.013C258.183 152.63 256.027 153.843 253.602 154.57C249.263 155.864 244.682 155.379 240.721 153.223C236.733 151.067 233.849 147.51 232.556 143.171C231.101 138.321 231.909 133.255 234.496 129.213C231.074 127.057 228.433 123.715 227.247 119.7C224.579 110.754 229.699 101.322 238.646 98.6544C241.368 97.8459 244.197 97.7381 246.919 98.304C248.32 92.6181 252.659 87.8215 258.533 86.0699C262.872 84.7765 267.453 85.2615 271.414 87.4173C275.402 89.5731 278.285 93.1301 279.579 97.4687C280.037 98.9508 280.253 100.487 280.28 102.05C283.055 102.05 285.804 102.75 288.31 104.098C292.298 106.254 295.181 109.811 296.475 114.149C297.768 118.488 297.283 123.069 295.128 127.03C293.43 130.183 290.816 132.662 287.663 134.198C288.714 138.321 288.175 142.632 286.127 146.405C283.971 150.393 280.414 153.277 276.076 154.57C274.459 155.028 272.815 155.271 271.198 155.271ZM243.496 106.038C242.661 106.038 241.799 106.146 240.963 106.415C236.301 107.816 233.634 112.748 235.008 117.41C235.978 120.697 238.808 123.15 242.23 123.635C243.874 123.877 245.221 125.117 245.598 126.734C245.976 128.35 245.302 130.048 243.901 130.991C240.667 133.147 239.239 137.135 240.344 140.854C241.017 143.118 242.526 144.977 244.601 146.109C246.676 147.24 249.075 147.483 251.338 146.809C253.548 146.163 255.407 144.68 256.512 142.659C257.24 141.393 258.587 140.584 260.042 140.584C261.497 140.584 262.845 141.366 263.572 142.659C265.566 146.216 269.878 147.968 273.785 146.809C276.049 146.136 277.908 144.627 279.04 142.552C280.172 140.477 280.414 138.078 279.741 135.815C279.525 135.087 279.229 134.414 278.851 133.767C278.151 132.608 278.07 131.207 278.663 129.967C279.229 128.755 280.36 127.892 281.681 127.677C282.058 127.623 282.435 127.542 282.813 127.434C285.076 126.76 286.936 125.251 288.067 123.176C289.199 121.102 289.442 118.703 288.768 116.44C288.094 114.176 286.585 112.317 284.51 111.185C282.435 110.053 280.037 109.811 277.773 110.484C277.477 110.565 277.181 110.673 276.911 110.808C275.402 111.427 273.677 111.077 272.519 109.945C271.36 108.814 271.01 107.089 271.603 105.58C272.357 103.72 272.438 101.699 271.872 99.7861C271.198 97.5226 269.689 95.6632 267.614 94.5314C265.539 93.3996 263.141 93.1571 260.877 93.8308C256.701 95.0704 254.006 99.2741 254.653 103.586C254.895 105.176 254.168 106.739 252.82 107.601C251.473 108.463 249.748 108.436 248.428 107.547C246.919 106.523 245.221 106.038 243.496 106.038Z" fill="#F99BBD"/>
<path d="M261.389 127.218C264.098 127.218 266.294 125.023 266.294 122.314C266.294 119.605 264.098 117.41 261.389 117.41C258.681 117.41 256.485 119.605 256.485 122.314C256.485 125.023 258.681 127.218 261.389 127.218Z" fill="#FFE6F0"/>
<path d="M348.726 128.916C348.268 128.943 347.837 128.997 347.379 129.078C348.968 126.761 349.831 123.931 349.642 120.913C349.184 113.826 343.04 108.436 335.953 108.894C329.486 109.326 324.446 114.473 323.961 120.751C321.428 118.084 317.763 116.521 313.775 116.79C306.688 117.248 301.299 123.392 301.757 130.479C302.107 135.653 305.448 139.911 309.976 141.662C304.829 143.63 301.352 148.777 301.73 154.543C302.188 161.63 308.332 167.02 315.419 166.562C318.895 166.319 321.967 164.729 324.123 162.331C325.794 167.99 331.183 171.924 337.327 171.52C344.414 171.062 349.804 164.918 349.346 157.831C349.265 156.726 349.049 155.648 348.726 154.624C349.292 154.651 349.831 154.651 350.397 154.624C357.484 154.166 362.873 148.022 362.415 140.935C361.957 133.821 355.813 128.458 348.726 128.916Z" fill="#FFC5D8"/>
<path d="M336.465 175.616C330.887 175.616 325.848 172.921 322.722 168.556C320.593 169.742 318.195 170.442 315.688 170.604C306.365 171.224 298.307 164.137 297.688 154.84C297.364 149.801 299.251 145.031 302.673 141.662C299.79 138.806 297.984 134.953 297.715 130.776C297.418 126.275 298.9 121.91 301.864 118.515C304.856 115.119 308.979 113.071 313.479 112.775C316.308 112.586 319.111 113.098 321.617 114.257C324.258 109.002 329.512 105.283 335.656 104.879C340.184 104.583 344.522 106.065 347.918 109.029C351.313 112.02 353.361 116.143 353.657 120.643C353.765 122.179 353.657 123.742 353.334 125.251C356.056 125.871 358.562 127.138 360.718 129.024C364.113 132.015 366.161 136.138 366.457 140.638C366.754 145.139 365.272 149.504 362.307 152.899C359.936 155.594 356.864 157.427 353.442 158.235C353.55 162.493 352.067 166.589 349.238 169.795C346.247 173.191 342.124 175.239 337.624 175.535C337.246 175.589 336.842 175.616 336.465 175.616ZM324.15 158.289C324.446 158.289 324.743 158.316 325.039 158.397C326.467 158.72 327.599 159.798 328.03 161.199C329.189 165.134 332.989 167.774 337.085 167.505C339.429 167.343 341.585 166.292 343.148 164.514C344.711 162.735 345.465 160.472 345.331 158.1C345.277 157.346 345.142 156.618 344.899 155.891C344.468 154.624 344.711 153.223 345.546 152.145C346.355 151.094 347.675 150.501 348.995 150.582C349.373 150.609 349.75 150.609 350.154 150.582C352.526 150.42 354.681 149.369 356.217 147.591C357.78 145.812 358.535 143.549 358.4 141.177C358.265 138.806 357.187 136.677 355.409 135.114C353.63 133.551 351.394 132.797 348.995 132.931C348.672 132.958 348.376 132.985 348.079 133.039C346.462 133.336 344.872 132.608 343.983 131.234C343.121 129.859 343.148 128.108 344.064 126.761C345.196 125.117 345.735 123.177 345.6 121.155C345.438 118.784 344.387 116.655 342.609 115.092C340.83 113.529 338.54 112.775 336.195 112.91C331.83 113.206 328.3 116.682 327.976 121.048C327.869 122.638 326.818 124.012 325.309 124.551C323.8 125.09 322.129 124.686 321.024 123.527C319.219 121.614 316.659 120.643 314.045 120.805C311.7 120.967 309.544 122.018 307.982 123.796C306.419 125.575 305.664 127.838 305.799 130.21C306.014 133.632 308.251 136.65 311.458 137.89C313.021 138.483 314.045 139.992 314.045 141.662C314.045 143.333 313.021 144.842 311.458 145.435C307.82 146.836 305.529 150.366 305.799 154.274C306.122 159.151 310.353 162.816 315.203 162.52C317.521 162.358 319.623 161.334 321.186 159.609C321.94 158.774 323.018 158.289 324.15 158.289Z" fill="#F99BBD"/>
<path d="M330.429 145.785C333.137 145.785 335.333 143.59 335.333 140.881C335.333 138.172 333.137 135.977 330.429 135.977C327.72 135.977 325.524 138.172 325.524 140.881C325.524 143.59 327.72 145.785 330.429 145.785Z" fill="#FFE6F0"/>
<path d="M197.416 112.559C197.093 112.883 196.797 113.233 196.527 113.583C196.15 110.808 194.883 108.14 192.701 106.038C187.581 101.107 179.416 101.268 174.484 106.388C169.984 111.05 169.715 118.245 173.595 123.23C169.903 122.961 166.157 124.281 163.409 127.138C158.477 132.258 158.639 140.423 163.759 145.354C167.505 148.938 172.84 149.827 177.368 148.076C174.888 152.98 175.778 159.151 179.955 163.139C185.075 168.071 193.24 167.909 198.171 162.789C200.596 160.283 201.782 157.022 201.755 153.789C206.794 156.834 213.45 156.133 217.708 151.687C222.639 146.567 222.478 138.402 217.358 133.47C216.549 132.689 215.687 132.042 214.744 131.53C215.175 131.18 215.606 130.803 215.983 130.398C220.915 125.278 220.753 117.113 215.633 112.182C210.486 107.278 202.348 107.439 197.416 112.559Z" fill="#FFC5D8"/>
<path d="M188.847 170.792C184.455 170.792 180.305 169.122 177.125 166.077C173.487 162.574 171.682 157.777 171.951 152.98C167.909 152.792 163.975 151.175 160.957 148.264C157.696 145.139 155.864 140.908 155.756 136.408C155.675 131.88 157.346 127.596 160.472 124.335C162.439 122.287 164.864 120.805 167.478 119.943C165.888 114.284 167.289 108.005 171.547 103.559C178.014 96.8489 188.739 96.6333 195.476 103.101C196.608 104.179 197.551 105.418 198.333 106.739C204.665 103.155 212.884 103.963 218.408 109.272C224.445 115.092 225.226 124.362 220.618 131.045C226.87 137.566 226.897 147.914 220.591 154.489C216.414 158.828 210.459 160.525 204.854 159.313C204.072 161.63 202.779 163.759 201.027 165.565C197.901 168.825 193.671 170.658 189.171 170.765C189.09 170.792 188.982 170.792 188.847 170.792ZM177.368 144.034C178.499 144.034 179.577 144.492 180.359 145.354C181.491 146.594 181.733 148.399 180.979 149.881C179.227 153.357 179.928 157.507 182.757 160.229C184.455 161.873 186.718 162.762 189.063 162.708C191.434 162.654 193.617 161.711 195.261 159.987C196.851 158.316 197.74 156.133 197.74 153.816C197.74 152.36 198.521 151.013 199.788 150.285C201.054 149.558 202.617 149.585 203.884 150.339C207.387 152.468 211.968 151.848 214.824 148.911C216.468 147.213 217.331 144.977 217.304 142.605C217.277 140.234 216.307 138.051 214.582 136.408C214.043 135.896 213.423 135.438 212.776 135.06C211.618 134.414 210.836 133.201 210.728 131.854C210.621 130.506 211.187 129.213 212.237 128.377C212.534 128.135 212.83 127.892 213.1 127.596C216.468 124.093 216.36 118.488 212.857 115.092C209.354 111.724 203.749 111.832 200.354 115.335C200.138 115.55 199.923 115.793 199.734 116.035C198.737 117.329 197.066 117.868 195.503 117.437C193.94 117.006 192.781 115.685 192.566 114.068C192.296 112.074 191.38 110.296 189.925 108.894C186.422 105.526 180.817 105.634 177.421 109.137C174.403 112.29 174.134 117.248 176.802 120.697C177.772 121.964 177.933 123.661 177.179 125.09C176.424 126.491 174.915 127.326 173.325 127.219C170.712 127.03 168.152 128 166.319 129.913C164.675 131.611 163.813 133.848 163.84 136.219C163.867 138.59 164.837 140.773 166.562 142.417C169.041 144.788 172.706 145.516 175.912 144.276C176.371 144.115 176.856 144.034 177.368 144.034Z" fill="#F99BBD"/>
<path d="M191.919 138.617C194.628 138.617 196.824 136.422 196.824 133.713C196.824 131.004 194.628 128.808 191.919 128.808C189.211 128.808 187.015 131.004 187.015 133.713C187.015 136.422 189.211 138.617 191.919 138.617Z" fill="#FFE6F0"/>
</g>
</svg>
