<svg width="513" height="510" viewBox="0 0 513 510" fill="none" xmlns="http://www.w3.org/2000/svg">
<g clip-path="url(#clip0_123_126)">
<mask id="mask0_123_126" style="mask-type:alpha" maskUnits="userSpaceOnUse" x="1" y="0" width="511" height="510">
<path d="M256.625 510C397.27 510 511.285 395.985 511.285 255.34C511.285 114.696 397.27 0.680664 256.625 0.680664C115.98 0.680664 1.96558 114.696 1.96558 255.34C1.96558 395.985 115.98 510 256.625 510Z" fill="#FFF9DE"/>
</mask>
<g mask="url(#mask0_123_126)">
<path d="M256.625 510C397.27 510 511.285 395.985 511.285 255.34C511.285 114.696 397.27 0.680664 256.625 0.680664C115.98 0.680664 1.96558 114.696 1.96558 255.34C1.96558 395.985 115.98 510 256.625 510Z" fill="#FFF4EB"/>
<path d="M368.515 341.764C368.515 420.923 317.931 485.124 255.58 485.124C193.202 485.124 142.645 420.923 142.645 341.764C142.645 329.728 143.824 318.013 146.049 306.835C158.327 244.51 202.718 198.404 255.607 198.404C307.932 198.404 351.922 243.519 364.762 304.825C367.228 316.62 368.515 329.004 368.515 341.764Z" fill="#AEDEFF"/>
<path d="M368.515 341.764C368.515 420.923 317.931 485.124 255.58 485.124C193.202 485.124 142.645 420.923 142.645 341.764C142.645 329.728 143.824 318.013 146.049 306.835C172.695 320.372 210.974 328.843 253.516 328.843C298.095 328.843 338.009 319.541 364.762 304.825C367.228 316.619 368.515 329.004 368.515 341.764Z" fill="#91D0F2"/>
<path d="M313.883 316.325C313.883 327.771 306.78 335.009 298.014 335.009C289.248 335.009 282.145 327.798 282.145 316.325C282.145 304.878 286.3 293.512 295.065 293.512C303.831 293.512 313.883 304.878 313.883 316.325Z" fill="#3D82AD"/>
<path d="M301.526 307.505C304.177 307.505 306.324 305.355 306.324 302.707C306.324 300.056 304.177 297.909 301.526 297.909C298.875 297.909 296.728 300.056 296.728 302.707C296.728 305.355 298.875 307.505 301.526 307.505Z" fill="white"/>
<path d="M294.425 330.309C298.534 329.873 301.322 324.423 300.655 318.137C299.984 311.851 296.114 307.109 292.007 307.546C287.9 307.98 285.112 313.432 285.78 319.718C286.447 326.004 290.318 330.746 294.425 330.309Z" fill="white"/>
<path d="M317.02 280.404C315.733 280.404 314.446 279.788 313.669 278.635C313.32 278.099 304.769 265.687 291.339 267.912C289.168 268.261 287.077 266.786 286.702 264.615C286.327 262.417 287.828 260.353 289.999 259.978C308.12 256.948 319.111 272.362 320.317 274.158C321.55 276.008 321.068 278.501 319.218 279.734C318.575 280.19 317.797 280.404 317.02 280.404Z" fill="white"/>
<path d="M195.802 316.325C195.802 327.771 202.905 335.009 211.671 335.009C220.437 335.009 227.54 327.798 227.54 316.325C227.54 304.878 223.385 293.512 214.62 293.512C205.854 293.512 195.802 304.878 195.802 316.325Z" fill="#3D82AD"/>
<path d="M208.16 307.505C210.81 307.505 212.958 305.355 212.958 302.707C212.958 300.056 210.81 297.909 208.16 297.909C205.509 297.909 203.361 300.056 203.361 302.707C203.361 305.355 205.509 307.505 208.16 307.505Z" fill="white"/>
<path d="M223.89 319.726C224.558 313.44 221.77 307.991 217.663 307.554C213.555 307.117 209.684 311.859 209.016 318.145C208.348 324.431 211.136 329.881 215.243 330.317C219.35 330.754 223.222 326.012 223.89 319.726Z" fill="white"/>
<path d="M192.666 280.404C191.915 280.404 191.138 280.19 190.441 279.734C188.591 278.501 188.082 276.008 189.315 274.158C189.797 273.461 201.029 256.868 219.633 259.978C221.831 260.353 223.305 262.417 222.93 264.615C222.555 266.813 220.49 268.288 218.292 267.912C204.755 265.661 196.338 278.072 195.989 278.608C195.239 279.761 193.979 280.404 192.666 280.404Z" fill="white"/>
<path d="M255.58 489.145C191.084 489.145 138.624 423.04 138.624 341.764C138.624 329.674 139.803 317.665 142.109 306.058C155.056 240.302 201.726 194.383 255.607 194.383C308.683 194.383 355.165 239.471 368.676 303.994C371.249 316.217 372.562 328.924 372.562 341.764C372.536 423.04 320.076 489.145 255.58 489.145ZM255.58 202.424C205.613 202.424 162.187 245.69 149.963 307.613C147.765 318.71 146.639 330.21 146.639 341.764C146.639 418.591 195.507 481.103 255.553 481.103C315.599 481.103 364.467 418.591 364.467 341.764C364.467 329.486 363.207 317.343 360.768 305.656C348.062 244.886 304.796 202.424 255.58 202.424Z" fill="#5196C2"/>
<path d="M452.552 395.108H60.4301V534.179H452.552V395.108Z" fill="#FFCD92"/>
<path d="M452.579 395.108V464.161C408.831 453.063 337.366 445.826 256.625 445.826C175.751 445.826 104.178 453.09 60.4569 464.242V395.108H452.579Z" fill="#F9BF80"/>
<path d="M471.772 340.048H41.478V421.888H471.772V340.048Z" fill="#FFCD92"/>
<path d="M471.772 425.935H313.213C310.988 425.935 309.192 424.139 309.192 421.915C309.192 419.69 310.988 417.894 313.213 417.894H467.752V344.069H45.499V417.867H142.082C144.307 417.867 146.103 419.663 146.103 421.888C146.103 424.113 144.307 425.909 142.082 425.909H41.478C39.2531 425.909 37.4571 424.113 37.4571 421.888V340.048C37.4571 337.823 39.2531 336.027 41.478 336.027H471.772C473.997 336.027 475.793 337.823 475.793 340.048V421.888C475.793 424.113 473.997 425.935 471.772 425.935Z" fill="#EA9242"/>
<path d="M452.552 538.2H60.4301C58.2052 538.2 56.4092 536.404 56.4092 534.179V421.915C56.4092 419.69 58.2052 417.894 60.4301 417.894C62.655 417.894 64.4511 419.69 64.4511 421.915V530.158H448.531V421.915C448.531 419.69 450.328 417.894 452.552 417.894C454.777 417.894 456.573 419.69 456.573 421.915V534.179C456.573 536.377 454.777 538.2 452.552 538.2Z" fill="#EA9242"/>
<path d="M434.78 337.207V337.394C434.78 351.709 425.612 361.547 407.303 361.547C388.995 361.547 368.515 351.709 368.515 337.394C368.515 336.831 368.541 336.268 368.622 335.732C370.043 322.195 388.753 311.687 406.338 311.687C424.567 311.687 434.699 322.946 434.78 337.207Z" fill="#AEDEFF"/>
<path d="M434.78 337.207V337.394C434.78 351.709 425.612 361.547 407.303 361.547C388.995 361.547 368.515 351.709 368.515 337.394C368.515 336.831 368.541 336.269 368.622 335.732C381.971 342.997 408.885 353.317 434.78 337.207Z" fill="#91D0F2"/>
<path d="M413.844 354.256C412.477 354.256 411.163 353.559 410.413 352.325C409.26 350.422 409.85 347.956 411.753 346.803C419.473 342.112 418.374 334.848 418.348 334.553C417.999 332.382 419.447 330.291 421.618 329.915C423.816 329.54 425.853 330.961 426.255 333.105C426.363 333.642 428.507 345.999 415.935 353.666C415.265 354.068 414.541 354.256 413.844 354.256Z" fill="white"/>
<path d="M407.303 365.568C386.636 365.568 364.494 354.255 364.494 337.394C364.494 336.617 364.547 335.866 364.655 335.143C366.37 318.791 387.601 307.693 406.338 307.693C425.639 307.693 438.694 319.541 438.801 337.207V337.421C438.801 354.765 426.738 365.568 407.303 365.568ZM406.338 315.708C389.826 315.708 373.742 325.439 372.616 336.161C372.536 336.697 372.536 337.046 372.536 337.394C372.536 348.921 390.898 357.526 407.303 357.526C422.422 357.526 430.759 350.369 430.759 337.394L434.78 337.207L430.759 337.234C430.678 324.152 421.109 315.708 406.338 315.708Z" fill="#5196C2"/>
<path d="M76.3798 337.207V337.394C76.3798 351.709 85.5475 361.547 103.856 361.547C122.165 361.547 142.645 351.709 142.645 337.394C142.645 336.831 142.618 336.268 142.538 335.732C141.117 322.195 122.406 311.687 104.821 311.687C86.593 311.687 76.4602 322.946 76.3798 337.207Z" fill="#AEDEFF"/>
<path d="M76.3798 337.207V337.394C76.3798 351.709 85.5475 361.547 103.856 361.547C122.165 361.547 142.645 351.709 142.645 337.394C142.645 336.831 142.618 336.269 142.538 335.732C129.188 342.997 102.275 353.317 76.3798 337.207Z" fill="#91D0F2"/>
<path d="M97.3155 354.255C96.5917 354.255 95.8679 354.068 95.2246 353.666C82.6792 345.999 84.8237 333.642 84.9042 333.105C85.3063 330.934 87.3971 329.487 89.5953 329.889C91.7666 330.291 93.2141 332.382 92.812 334.553C92.7584 334.928 91.713 342.139 99.4064 346.803C101.31 347.956 101.899 350.422 100.747 352.325C99.9961 353.585 98.6826 354.255 97.3155 354.255Z" fill="white"/>
<path d="M103.856 365.568C84.4217 365.568 72.3589 354.765 72.3589 337.394V337.18C72.4661 319.541 85.494 307.666 104.821 307.666C123.559 307.666 144.789 318.764 146.532 335.303C146.612 335.866 146.666 336.617 146.666 337.368C146.666 354.229 124.524 365.568 103.856 365.568ZM80.4008 337.207V337.368C80.4008 350.342 88.7375 357.499 103.856 357.499C120.262 357.499 138.624 348.894 138.624 337.368C138.624 337.019 138.624 336.644 138.57 336.295C137.418 325.412 121.361 315.681 104.848 315.681C90.0778 315.708 80.4812 324.152 80.4008 337.207Z" fill="#5196C2"/>
<path d="M545.731 125.839C545.731 125.839 490.457 149.321 519.943 173.742C540.45 190.71 596.931 199.503 632.476 197.01C649.069 195.857 669.683 178.62 681.719 167.147L710.214 131.2L545.731 125.839Z" fill="#FFEDA1"/>
<path d="M619.422 201.433C582.885 201.433 536.161 192.372 517.397 176.825C509.73 170.472 506.379 163.448 507.479 155.943C510.24 137.071 540.718 123.614 544.176 122.14C544.712 121.899 545.302 121.791 545.892 121.818L710.375 127.179C711.903 127.233 713.243 128.118 713.887 129.512C714.53 130.879 714.343 132.514 713.378 133.693L684.882 169.641C684.775 169.775 684.641 169.936 684.507 170.043C670.353 183.499 649.9 199.798 632.771 201.004C628.536 201.299 624.059 201.433 619.422 201.433ZM546.508 129.887C537.716 133.801 517.156 145.247 515.413 157.095C514.743 161.706 517.075 166.129 522.49 170.632C541.63 186.475 596.207 195.509 632.181 192.989C643.628 192.185 660.167 182.052 678.744 164.413L702.092 134.953L546.508 129.887Z" fill="#F7CD1C"/>
<path d="M339.966 89.1947C339.966 70.8324 325.088 55.9817 306.753 55.9817C302.008 55.9817 297.505 57.0004 293.403 58.7964C287.667 40.3805 270.484 27.0043 250.165 27.0043C234.162 27.0043 220.142 35.3141 212.1 47.8326C209.473 47.2429 206.739 46.9212 203.951 46.9212C183.096 46.9212 166.181 63.836 166.181 84.6913C166.181 89.1143 166.985 93.3229 168.379 97.2634C163.286 102.196 160.096 109.085 160.096 116.725C160.096 130.798 170.845 142.352 184.597 143.638C187.974 158.409 201.163 169.453 216.952 169.453C225.423 169.453 233.143 166.263 239.014 161.036C246.278 170.096 257.429 175.913 269.975 175.913C287.426 175.913 302.223 164.628 307.53 148.973C309.273 149.321 311.096 149.509 312.945 149.509C327.876 149.509 339.993 137.392 339.993 122.461C339.993 116.618 338.116 111.203 334.953 106.78C338.116 101.633 339.966 95.655 339.966 89.1947Z" fill="white"/>
<path d="M269.975 179.907C258.019 179.907 246.761 175.082 238.531 166.531C232.232 171.008 224.726 173.447 216.952 173.447C200.412 173.447 186.178 162.805 181.38 147.23C166.744 144.523 156.048 131.87 156.048 116.698C156.048 109.058 158.782 101.847 163.795 96.1912C162.696 92.4115 162.16 88.5514 162.16 84.6645C162.16 61.6379 180.898 42.8735 203.951 42.8735C206.042 42.8735 208.16 43.0343 210.277 43.356C219.552 30.5158 234.296 22.9297 250.192 22.9297C270.484 22.9297 288.31 35.0729 295.843 53.5692C299.381 52.4701 303.027 51.934 306.78 51.934C327.313 51.934 344.014 68.6343 344.014 89.1679C344.014 95.2262 342.513 101.204 339.671 106.565C342.513 111.364 344.014 116.778 344.014 122.381C344.014 139.51 330.075 153.449 312.945 153.449C312.007 153.449 311.069 153.396 310.131 153.315C303.295 169.372 287.56 179.907 269.975 179.907ZM239.014 156.961C239.121 156.961 239.228 156.961 239.335 156.988C240.434 157.068 241.453 157.631 242.123 158.489C248.932 166.987 259.091 171.865 269.948 171.865C285.228 171.865 298.792 162.135 303.697 147.632C304.34 145.702 306.324 144.577 308.308 144.979C309.836 145.273 311.364 145.434 312.918 145.434C325.625 145.434 335.945 135.114 335.945 122.408C335.945 117.609 334.471 112.999 331.656 109.058C330.718 107.745 330.664 105.975 331.522 104.582C334.417 99.9441 335.945 94.6096 335.945 89.1679C335.945 73.0574 322.837 59.9759 306.753 59.9759C302.705 59.9759 298.765 60.8069 295.039 62.4421C293.993 62.8978 292.787 62.8978 291.742 62.4153C290.696 61.9327 289.919 61.0481 289.57 59.9491C284.182 42.6322 268.34 30.9715 250.165 30.9715C236.092 30.9715 223.117 38.0752 215.478 49.9503C214.566 51.3711 212.877 52.068 211.242 51.6927C208.803 51.1566 206.337 50.8886 203.951 50.8886C185.347 50.8886 170.202 66.0341 170.202 84.6377C170.202 88.4174 170.872 92.197 172.159 95.8695C172.695 97.3438 172.293 99.0058 171.167 100.105C166.61 104.501 164.09 110.372 164.09 116.671C164.09 128.627 173.07 138.465 184.945 139.591C186.688 139.751 188.108 141.011 188.484 142.7C191.54 156.05 203.227 165.378 216.925 165.378C224.056 165.378 230.945 162.751 236.306 157.98C237.083 157.336 238.022 156.961 239.014 156.961Z" fill="#FFB600"/>
<path d="M353.771 186.877C361.853 186.877 368.407 180.324 368.407 172.241C368.407 164.157 361.853 157.604 353.771 157.604C345.689 157.604 339.135 164.157 339.135 172.241C339.135 180.324 345.689 186.877 353.771 186.877Z" fill="white"/>
<path d="M353.771 190.898C343.478 190.898 335.114 182.534 335.114 172.241C335.114 161.947 343.478 153.583 353.771 153.583C364.065 153.583 372.428 161.947 372.428 172.241C372.428 182.534 364.038 190.898 353.771 190.898ZM353.771 161.652C347.927 161.652 343.156 166.397 343.156 172.267C343.156 178.138 347.901 182.883 353.771 182.883C359.642 182.883 364.386 178.138 364.386 172.267C364.386 166.397 359.615 161.652 353.771 161.652Z" fill="#FFB600"/>
<path d="M358.784 231.938C364.084 231.938 368.381 227.641 368.381 222.342C368.381 217.041 364.084 212.745 358.784 212.745C353.484 212.745 349.187 217.041 349.187 222.342C349.187 227.641 353.484 231.938 358.784 231.938Z" fill="white"/>
<path d="M358.784 235.959C351.278 235.959 345.166 229.847 345.166 222.342C345.166 214.836 351.278 208.724 358.784 208.724C366.29 208.724 372.402 214.836 372.402 222.342C372.402 229.847 366.317 235.959 358.784 235.959ZM358.784 216.766C355.701 216.766 353.208 219.259 353.208 222.342C353.208 225.424 355.701 227.917 358.784 227.917C361.867 227.917 364.36 225.424 364.36 222.342C364.36 219.259 361.867 216.766 358.784 216.766Z" fill="#FFB600"/>
</g>
</g>
<defs>
<clipPath id="clip0_123_126">
<rect width="512" height="509.319" fill="white" transform="translate(0.625244 0.680664)"/>
</clipPath>
</defs>
</svg>
