<svg width="512" height="512" viewBox="0 0 512 512" fill="none" xmlns="http://www.w3.org/2000/svg">
<mask id="mask0_107_4023" style="mask-type:alpha" maskUnits="userSpaceOnUse" x="0" y="0" width="512" height="512">
<path d="M256 512C397.385 512 512 397.385 512 256C512 114.615 397.385 0 256 0C114.615 0 0 114.615 0 256C0 397.385 114.615 512 256 512Z" fill="#FFF6CF"/>
</mask>
<g mask="url(#mask0_107_4023)">
<path d="M256 512C397.385 512 512 397.385 512 256C512 114.615 397.385 0 256 0C114.615 0 0 114.615 0 256C0 397.385 114.615 512 256 512Z" fill="#FFF6CF"/>
<path d="M368.478 342.878C368.478 422.454 317.629 486.993 254.949 486.993C192.243 486.993 141.42 422.454 141.42 342.878C141.42 330.779 142.605 319.003 144.842 307.766C157.184 245.113 201.809 198.764 254.976 198.764C307.577 198.764 351.798 244.116 364.706 305.745C367.185 317.602 368.478 330.051 368.478 342.878Z" fill="#FFE180"/>
<path d="M368.478 342.878C368.478 422.454 317.629 486.993 254.949 486.993C192.243 486.993 141.42 422.454 141.42 342.878C141.42 330.779 142.605 319.003 144.842 307.766C171.628 321.374 210.109 329.89 252.874 329.89C297.688 329.89 337.812 320.539 364.706 305.745C367.185 317.602 368.478 330.051 368.478 342.878Z" fill="#F9D369"/>
<path d="M313.56 317.305C313.56 328.812 306.419 336.088 297.607 336.088C288.795 336.088 281.654 328.839 281.654 317.305C281.654 305.799 285.831 294.373 294.643 294.373C303.454 294.373 313.56 305.799 313.56 317.305Z" fill="#B0871E"/>
<path d="M301.137 308.44C303.801 308.44 305.96 306.28 305.96 303.616C305.96 300.952 303.801 298.792 301.137 298.792C298.473 298.792 296.313 300.952 296.313 303.616C296.313 306.28 298.473 308.44 301.137 308.44Z" fill="white"/>
<path d="M294 331.363C298.129 330.924 300.932 325.446 300.26 319.127C299.588 312.807 295.696 308.04 291.567 308.479C287.438 308.918 284.636 314.397 285.307 320.716C285.979 327.035 289.871 331.802 294 331.363Z" fill="white"/>
<path d="M316.712 281.196C315.419 281.196 314.125 280.576 313.344 279.417C312.994 278.878 304.397 266.402 290.897 268.638C288.714 268.989 286.612 267.506 286.235 265.324C285.858 263.114 287.367 261.039 289.549 260.662C307.766 257.617 318.814 273.112 320.027 274.917C321.267 276.776 320.781 279.282 318.922 280.522C318.275 280.98 317.494 281.196 316.712 281.196Z" fill="white"/>
<path d="M194.856 317.305C194.856 328.812 201.997 336.088 210.809 336.088C219.621 336.088 226.762 328.839 226.762 317.305C226.762 305.799 222.585 294.373 213.773 294.373C204.962 294.373 194.856 305.799 194.856 317.305Z" fill="#B0871E"/>
<path d="M207.279 308.44C209.943 308.44 212.103 306.28 212.103 303.616C212.103 300.952 209.943 298.792 207.279 298.792C204.615 298.792 202.456 300.952 202.456 303.616C202.456 306.28 204.615 308.44 207.279 308.44Z" fill="white"/>
<path d="M223.092 320.725C223.764 314.405 220.961 308.927 216.832 308.488C212.703 308.049 208.812 312.816 208.14 319.135C207.468 325.455 210.271 330.933 214.4 331.372C218.529 331.811 222.421 327.044 223.092 320.725Z" fill="white"/>
<path d="M191.704 281.196C190.949 281.196 190.168 280.98 189.467 280.522C187.608 279.283 187.096 276.776 188.335 274.917C188.82 274.216 200.111 257.536 218.813 260.662C221.022 261.039 222.504 263.114 222.127 265.324C221.75 267.533 219.675 269.016 217.465 268.638C203.857 266.375 195.395 278.851 195.045 279.39C194.291 280.549 193.024 281.196 191.704 281.196Z" fill="white"/>
<path d="M254.949 491.035C190.114 491.035 137.378 424.583 137.378 342.878C137.378 330.725 138.563 318.653 140.881 306.984C153.896 240.883 200.812 194.722 254.976 194.722C308.332 194.722 355.059 240.047 368.64 304.909C371.227 317.197 372.547 329.97 372.547 342.878C372.52 424.583 319.784 491.035 254.949 491.035ZM254.949 202.806C204.719 202.806 161.064 246.299 148.776 308.547C146.567 319.704 145.435 331.264 145.435 342.878C145.435 420.109 194.56 482.951 254.922 482.951C315.284 482.951 364.409 420.109 364.409 342.878C364.409 330.536 363.143 318.329 360.691 306.58C347.917 245.491 304.424 202.806 254.949 202.806Z" fill="#BD8A09"/>
<path d="M452.958 396.504H58.7722V536.306H452.958V396.504Z" fill="#F9C0D3"/>
<path d="M452.985 396.504V465.92C409.007 454.764 337.165 447.488 256 447.488C174.7 447.488 102.75 454.791 58.7992 466.001V396.504H452.985Z" fill="#EFACC6"/>
<path d="M472.28 341.154H39.7204V423.424H472.28V341.154Z" fill="#F9C0D3"/>
<path d="M472.28 427.493H312.886C310.649 427.493 308.844 425.688 308.844 423.451C308.844 421.214 310.649 419.409 312.886 419.409H468.237V345.196H43.7625V419.382H140.854C143.091 419.382 144.896 421.187 144.896 423.424C144.896 425.661 143.091 427.466 140.854 427.466H39.7204C37.4838 427.466 35.6783 425.661 35.6783 423.424V341.154C35.6783 338.917 37.4838 337.112 39.7204 337.112H472.28C474.516 337.112 476.322 338.917 476.322 341.154V423.424C476.322 425.661 474.516 427.493 472.28 427.493Z" fill="#EA86AE"/>
<path d="M452.958 540.349H58.7722C56.5356 540.349 54.7301 538.543 54.7301 536.306V423.451C54.7301 421.214 56.5356 419.409 58.7722 419.409C61.0088 419.409 62.8143 421.214 62.8143 423.451V532.264H448.916V423.451C448.916 421.214 450.722 419.409 452.958 419.409C455.195 419.409 457 421.214 457 423.451V536.306C457 538.516 455.195 540.349 452.958 540.349Z" fill="#EA86AE"/>
<path d="M435.092 338.297V338.486C435.092 352.876 425.876 362.765 407.471 362.765C389.066 362.765 368.478 352.876 368.478 338.486C368.478 337.92 368.505 337.354 368.586 336.815C370.014 323.207 388.824 312.643 406.501 312.643C424.825 312.643 435.011 323.961 435.092 338.297Z" fill="#FFE180"/>
<path d="M435.092 338.297V338.486C435.092 352.876 425.876 362.765 407.471 362.765C389.066 362.765 368.478 352.876 368.478 338.486C368.478 337.92 368.505 337.354 368.586 336.815C382.006 344.118 409.061 354.493 435.092 338.297Z" fill="#F9D369"/>
<path d="M414.046 355.436C412.672 355.436 411.352 354.735 410.597 353.496C409.438 351.582 410.031 349.103 411.944 347.944C419.705 343.229 418.6 335.926 418.573 335.629C418.223 333.447 419.678 331.345 421.861 330.968C424.071 330.59 426.119 332.018 426.523 334.174C426.631 334.713 428.786 347.136 416.148 354.843C415.474 355.247 414.747 355.436 414.046 355.436Z" fill="white"/>
<path d="M407.471 366.808C386.695 366.808 364.436 355.436 364.436 338.486C364.436 337.704 364.49 336.95 364.598 336.222C366.323 319.784 387.665 308.628 406.501 308.628C425.903 308.628 439.027 320.539 439.134 338.297V338.513C439.134 355.948 427.008 366.808 407.471 366.808ZM406.501 316.685C389.901 316.685 373.733 326.467 372.601 337.246C372.52 337.785 372.52 338.136 372.52 338.486C372.52 350.073 390.979 358.723 407.471 358.723C422.669 358.723 431.05 351.528 431.05 338.486L435.092 338.297L431.05 338.324C430.969 325.174 421.349 316.685 406.501 316.685Z" fill="#BD8A09"/>
<path d="M74.8059 338.297V338.486C74.8059 352.876 84.0219 362.765 102.427 362.765C120.832 362.765 141.42 352.876 141.42 338.486C141.42 337.92 141.393 337.354 141.312 336.815C139.884 323.207 121.075 312.643 103.397 312.643C85.0729 312.643 74.8868 323.961 74.8059 338.297Z" fill="#FFE180"/>
<path d="M74.8059 338.297V338.486C74.8059 352.876 84.0219 362.765 102.427 362.765C120.832 362.765 141.42 352.876 141.42 338.486C141.42 337.92 141.393 337.354 141.312 336.815C127.892 344.118 100.837 354.493 74.8059 338.297Z" fill="#F9D369"/>
<path d="M95.8518 355.436C95.1242 355.436 94.3967 355.247 93.7499 354.843C81.1386 347.136 83.2943 334.713 83.3752 334.174C83.7794 331.992 85.8813 330.536 88.091 330.941C90.2737 331.345 91.7289 333.447 91.3246 335.629C91.2708 336.007 90.2198 343.255 97.9537 347.944C99.867 349.103 100.46 351.582 99.3011 353.495C98.5465 354.762 97.2261 355.436 95.8518 355.436Z" fill="white"/>
<path d="M102.427 366.807C82.8901 366.807 70.7638 355.948 70.7638 338.486V338.27C70.8716 320.539 83.968 308.601 103.397 308.601C122.233 308.601 143.576 319.757 145.327 336.384C145.408 336.95 145.462 337.704 145.462 338.459C145.462 355.409 123.203 366.807 102.427 366.807ZM78.848 338.297V338.459C78.848 351.501 87.2286 358.696 102.427 358.696C118.919 358.696 137.378 350.046 137.378 338.459C137.378 338.109 137.378 337.731 137.324 337.381C136.165 326.44 120.024 316.658 103.424 316.658C88.576 316.685 78.9288 325.174 78.848 338.297Z" fill="#BD8A09"/>
<path d="M321.913 114.041V100.594C321.913 97.0374 319.03 94.181 315.5 94.181C312.751 94.181 310.272 92.4294 309.41 89.7886C308.52 87.0669 307.443 84.453 306.149 81.9469C304.883 79.4677 305.395 76.4766 307.335 74.5364C309.841 72.0303 309.841 67.9612 307.335 65.4551L297.822 55.9427C295.316 53.4366 291.247 53.4366 288.741 55.9427C286.801 57.8829 283.837 58.4219 281.384 57.1823C278.824 55.8888 276.184 54.784 273.408 53.8677C270.821 53.0324 269.096 50.5263 269.096 47.8046C269.096 44.2475 266.213 41.3911 262.683 41.3911H249.236C245.679 41.3911 242.823 44.2745 242.823 47.8046C242.823 50.5263 241.098 53.0324 238.511 53.8677C235.763 54.757 233.095 55.8618 230.535 57.1823C228.083 58.4219 225.118 57.8829 223.178 55.9427C220.672 53.4366 216.603 53.4366 214.097 55.9427L204.584 65.4551C202.078 67.9612 202.078 72.0303 204.584 74.5364C206.552 76.5035 207.037 79.4677 205.77 81.9469C204.504 84.453 203.399 87.0669 202.536 89.7886C201.674 92.4025 199.222 94.181 196.446 94.181C192.889 94.181 190.033 97.0644 190.033 100.594V114.041C190.033 117.598 192.916 120.455 196.446 120.455C199.195 120.455 201.674 122.206 202.536 124.847C203.426 127.569 204.504 130.183 205.77 132.689C207.01 135.141 206.525 138.132 204.584 140.099C202.078 142.605 202.078 146.674 204.584 149.181L214.097 158.693C216.603 161.199 220.672 161.199 223.178 158.693C225.118 156.753 228.083 156.214 230.535 157.453C233.095 158.747 235.736 159.852 238.511 160.768C241.098 161.603 242.823 164.109 242.823 166.831C242.823 170.388 245.706 173.245 249.236 173.245H262.683C266.24 173.245 269.096 170.361 269.096 166.831C269.096 164.109 270.821 161.603 273.408 160.768C276.157 159.879 278.824 158.774 281.384 157.453C283.837 156.214 286.801 156.753 288.741 158.693C291.247 161.199 295.316 161.199 297.822 158.693L307.335 149.181C309.841 146.674 309.841 142.605 307.335 140.099C305.368 138.132 304.883 135.141 306.149 132.689C307.416 130.183 308.52 127.569 309.41 124.847C310.272 122.233 312.724 120.455 315.5 120.455C319.03 120.455 321.913 117.598 321.913 114.041ZM269.15 137.351C268.746 137.539 268.369 137.701 267.938 137.836C264.246 139.291 260.204 140.099 256 140.099C251.769 140.099 247.754 139.318 244.035 137.836C243.631 137.701 243.227 137.512 242.85 137.351C235.304 134.063 229.241 128 225.927 120.455C225.738 120.05 225.603 119.673 225.442 119.269C223.987 115.577 223.178 111.535 223.178 107.304C223.178 103.101 223.96 99.0585 225.442 95.3397C225.603 94.9355 225.765 94.5583 225.927 94.1541C229.214 86.6088 235.277 80.5456 242.85 77.2581C243.227 77.0694 243.631 76.9077 244.035 76.773C247.727 75.3179 251.769 74.5094 256 74.5094C260.204 74.5094 264.246 75.2909 267.938 76.773C268.342 76.9077 268.746 77.0964 269.15 77.2581C276.696 80.5456 282.759 86.6088 286.046 94.1541C286.235 94.5583 286.397 94.9355 286.531 95.3397C287.987 99.0315 288.795 103.074 288.795 107.304C288.795 111.508 288.013 115.55 286.531 119.269C286.397 119.673 286.208 120.05 286.046 120.455C282.759 128 276.696 134.063 269.15 137.351Z" fill="#DAE1E5"/>
<path d="M262.737 177.287H249.263C243.496 177.287 238.808 172.598 238.808 166.831C238.808 165.807 238.188 164.891 237.272 164.595C234.334 163.651 231.451 162.439 228.729 161.064C227.894 160.633 226.789 160.822 226.061 161.549C221.992 165.618 215.336 165.618 211.267 161.549L201.755 152.037C199.788 150.07 198.683 147.429 198.683 144.626C198.683 141.824 199.761 139.21 201.755 137.216C202.483 136.488 202.671 135.384 202.213 134.494C200.839 131.8 199.68 128.97 198.737 126.087C198.413 125.144 197.524 124.497 196.5 124.497C190.733 124.497 186.045 119.808 186.045 114.041V100.595C186.045 94.8278 190.733 90.1389 196.5 90.1389C197.524 90.1389 198.44 89.4922 198.737 88.549C199.68 85.6657 200.839 82.8362 202.213 80.1414C202.671 79.2522 202.483 78.1473 201.755 77.4198C199.788 75.4526 198.683 72.8118 198.683 70.0092C198.683 67.2067 199.761 64.5928 201.755 62.5987L211.267 53.0863C215.336 49.0172 221.992 49.0172 226.061 53.0863C226.789 53.8139 227.867 54.0025 228.729 53.5713C231.478 52.1701 234.334 50.9844 237.272 50.0412C238.161 49.7448 238.808 48.8286 238.808 47.8316C238.808 42.0648 243.496 37.376 249.263 37.376H262.71C268.477 37.376 273.165 42.0648 273.165 47.8316C273.165 48.8556 273.785 49.7718 274.701 50.0682C277.639 51.0383 280.522 52.224 283.244 53.6252C284.079 54.0564 285.184 53.8678 285.912 53.1402C289.846 49.1789 296.744 49.1789 300.706 53.1402L310.218 62.6526C312.185 64.6198 313.29 67.2606 313.29 70.0631C313.29 72.8657 312.212 75.4796 310.218 77.4737C309.491 78.2012 309.302 79.3061 309.76 80.1953C311.134 82.8901 312.32 85.7196 313.236 88.6029C313.56 89.5461 314.449 90.1928 315.473 90.1928C321.24 90.1928 325.928 94.8817 325.928 100.648V114.095C325.928 119.862 321.24 124.551 315.473 124.551C314.449 124.551 313.533 125.197 313.236 126.141C312.293 129.024 311.134 131.853 309.76 134.548C309.302 135.437 309.491 136.542 310.218 137.27C312.185 139.237 313.29 141.878 313.29 144.68C313.29 147.483 312.212 150.097 310.218 152.091L300.706 161.603C296.744 165.565 289.846 165.565 285.912 161.603C285.184 160.876 284.106 160.687 283.244 161.118C280.495 162.52 277.639 163.705 274.701 164.675C273.812 164.972 273.165 165.888 273.165 166.885C273.192 172.571 268.504 177.287 262.737 177.287ZM227.759 152.738C229.349 152.738 230.939 153.115 232.394 153.842C234.765 155.055 237.245 156.079 239.778 156.914C244.035 158.289 246.892 162.277 246.892 166.831C246.892 168.152 247.97 169.202 249.263 169.202H262.71C264.03 169.202 265.081 168.125 265.081 166.831C265.081 162.277 267.938 158.316 272.195 156.914C274.728 156.079 277.235 155.055 279.579 153.842C283.567 151.821 288.418 152.603 291.624 155.81C292.514 156.699 294.077 156.699 294.993 155.81L304.505 146.324C304.963 145.866 305.206 145.273 305.206 144.653C305.206 144.007 304.963 143.414 304.505 142.983C301.299 139.776 300.517 134.898 302.565 130.883C303.751 128.539 304.775 126.114 305.583 123.635C306.984 119.35 310.973 116.467 315.5 116.467C316.82 116.467 317.871 115.389 317.871 114.095V100.648C317.871 99.328 316.793 98.277 315.5 98.277C310.973 98.277 306.984 95.3937 305.583 91.109C304.775 88.6299 303.751 86.1777 302.565 83.8602C300.517 79.8181 301.299 74.9676 304.505 71.7608C304.963 71.3027 305.206 70.7099 305.206 70.0901C305.206 69.4433 304.963 68.8505 304.505 68.4193L294.993 58.9069C294.104 58.0177 292.514 58.0177 291.624 58.9069C288.418 62.1137 283.567 62.9221 279.579 60.8741C277.208 59.6614 274.728 58.6375 272.195 57.8021C267.938 56.4278 265.081 52.4396 265.081 47.8855C265.081 46.565 264.003 45.5141 262.71 45.5141H249.263C247.943 45.5141 246.892 46.592 246.892 47.8855C246.892 52.4396 244.035 56.4008 239.778 57.8021C237.245 58.6375 234.765 59.6614 232.394 60.8741C228.406 62.8951 223.555 62.1137 220.349 58.9069C219.432 57.9907 217.923 57.9638 216.98 58.9069L207.495 68.3116C207.037 68.7697 206.794 69.3625 206.794 69.9823C206.794 70.629 207.037 71.2219 207.495 71.653C210.701 74.8598 211.483 79.7372 209.435 83.7524C208.249 86.0968 207.225 88.5221 206.417 91.0012C205.016 95.2859 201.027 98.1692 196.5 98.1692C195.18 98.1692 194.129 99.2471 194.129 100.541V113.987C194.129 115.308 195.207 116.359 196.5 116.359C201.027 116.359 205.016 119.242 206.417 123.527C207.225 126.006 208.249 128.458 209.435 130.776C211.483 134.818 210.701 139.668 207.495 142.875C207.037 143.333 206.794 143.926 206.794 144.573C206.794 145.219 207.037 145.812 207.495 146.243L217.007 155.756C217.923 156.672 219.432 156.672 220.376 155.756C222.397 153.789 225.064 152.738 227.759 152.738ZM256 144.141C251.338 144.141 246.811 143.279 242.553 141.608C242.149 141.474 241.637 141.258 241.152 141.016C232.717 137.351 225.981 130.614 222.235 122.072C222.073 121.694 221.885 121.236 221.723 120.805C220.025 116.493 219.163 111.966 219.163 107.304C219.163 102.643 220.025 98.1153 221.696 93.8577C221.885 93.3726 222.073 92.9145 222.262 92.4833C225.981 83.9949 232.717 77.2581 241.233 73.5663C241.637 73.3777 242.149 73.1621 242.688 72.9734C250.907 69.7128 260.904 69.6589 269.42 73.0273C269.797 73.1621 270.309 73.3777 270.821 73.5932C279.283 77.285 286.019 84.0488 289.738 92.5642C289.927 92.9953 290.142 93.5073 290.331 93.9924C291.975 98.1423 292.837 102.669 292.837 107.331C292.837 111.993 291.975 116.52 290.304 120.778C290.169 121.155 289.954 121.667 289.738 122.152C286.046 130.614 279.309 137.351 270.794 141.069C270.309 141.285 269.797 141.501 269.312 141.689C265.162 143.306 260.662 144.141 256 144.141ZM256 78.5785C252.362 78.5785 248.832 79.2522 245.544 80.5457C245.113 80.7073 244.844 80.8151 244.574 80.9499C237.837 83.8871 232.556 89.1419 229.645 95.7979C229.484 96.1751 229.349 96.4715 229.241 96.7949C227.894 100.163 227.247 103.693 227.247 107.331C227.247 110.969 227.921 114.499 229.214 117.787C229.376 118.164 229.484 118.488 229.619 118.784C232.556 125.494 237.811 130.749 244.467 133.659C244.817 133.821 245.113 133.955 245.383 134.036C252.254 136.758 259.827 136.704 266.429 134.09C266.86 133.928 267.156 133.794 267.453 133.686L267.507 133.659C274.163 130.749 279.417 125.494 282.328 118.838C282.489 118.488 282.624 118.191 282.732 117.868C284.079 114.472 284.753 110.942 284.753 107.304C284.753 103.667 284.079 100.136 282.786 96.8488C282.624 96.4446 282.516 96.1482 282.355 95.8248C279.444 89.1419 274.163 83.8602 267.533 80.9768C267.183 80.8151 266.887 80.7073 266.59 80.5996C263.141 79.2252 259.638 78.5785 256 78.5785Z" fill="#8997A5"/>
<path d="M407.202 153.115L409.277 145.327C409.816 143.279 408.603 141.177 406.528 140.611C404.938 140.18 403.779 138.779 403.672 137.135C403.564 135.437 403.348 133.74 402.998 132.096C402.648 130.479 403.402 128.808 404.83 127.973C406.663 126.895 407.283 124.551 406.232 122.718L402.189 115.739C401.112 113.907 398.767 113.287 396.935 114.338C395.507 115.173 393.701 115.011 392.488 113.933C391.222 112.802 389.848 111.751 388.365 110.808C386.991 109.918 386.371 108.221 386.802 106.631C387.341 104.583 386.129 102.481 384.054 101.915L376.266 99.84C374.218 99.301 372.116 100.514 371.55 102.589C371.119 104.179 369.745 105.337 368.128 105.445C366.403 105.553 364.679 105.768 363.008 106.146C361.391 106.496 359.774 105.715 358.939 104.313C357.861 102.481 355.517 101.861 353.684 102.912L346.705 106.954C344.872 108.032 344.253 110.376 345.304 112.209C346.139 113.637 345.95 115.443 344.845 116.682C343.714 117.949 342.69 119.296 341.773 120.724C340.884 122.125 339.187 122.745 337.57 122.341C335.522 121.802 333.42 123.015 332.854 125.09L330.779 132.877C330.24 134.925 331.453 137.027 333.528 137.593C335.117 138.024 336.276 139.426 336.384 141.069C336.492 142.767 336.707 144.465 337.058 146.109C337.408 147.725 336.653 149.396 335.225 150.232C333.393 151.309 332.773 153.654 333.824 155.486L337.866 162.466C338.944 164.298 341.288 164.918 343.121 163.867C344.549 163.032 346.354 163.193 347.567 164.271C348.834 165.403 350.208 166.454 351.69 167.397C353.064 168.286 353.684 169.984 353.253 171.574C352.714 173.622 353.927 175.724 356.002 176.29L363.789 178.365C365.837 178.904 367.939 177.691 368.505 175.616C368.936 174.026 370.311 172.867 371.928 172.76C373.652 172.652 375.377 172.436 377.048 172.059C378.664 171.709 380.281 172.49 381.117 173.891C382.194 175.724 384.539 176.344 386.371 175.293L393.351 171.251C395.183 170.173 395.803 167.828 394.752 165.996C393.917 164.568 394.105 162.762 395.21 161.523C396.342 160.256 397.366 158.909 398.309 157.48C399.198 156.079 400.896 155.459 402.513 155.864C404.561 156.403 406.663 155.163 407.202 153.115ZM373.032 158.531C372.763 158.585 372.52 158.612 372.251 158.639C369.88 158.909 367.427 158.774 364.975 158.127C362.523 157.48 360.313 156.403 358.4 154.974C358.184 154.84 357.969 154.678 357.78 154.516C353.9 151.444 351.313 146.998 350.558 142.12C350.504 141.851 350.477 141.608 350.451 141.366C350.181 138.995 350.343 136.542 350.989 134.09C351.636 131.638 352.714 129.428 354.142 127.515C354.304 127.299 354.439 127.111 354.6 126.895C357.672 123.015 362.119 120.455 366.996 119.7C367.239 119.646 367.508 119.619 367.751 119.592C370.122 119.323 372.574 119.458 375.027 120.131C377.479 120.778 379.688 121.856 381.602 123.284C381.817 123.419 382.033 123.581 382.221 123.742C386.102 126.814 388.662 131.261 389.416 136.138C389.47 136.408 389.497 136.65 389.524 136.893C389.794 139.264 389.632 141.716 388.985 144.168C388.339 146.621 387.261 148.83 385.832 150.744C385.698 150.959 385.536 151.148 385.374 151.363C382.356 155.19 377.91 157.777 373.032 158.531Z" fill="#DAE1E5"/>
<path d="M364.814 182.514C364.14 182.514 363.439 182.434 362.765 182.245L354.978 180.17C350.828 179.065 348.322 174.808 349.346 170.658C347.837 169.688 346.408 168.583 345.061 167.397C341.315 169.499 336.546 168.178 334.39 164.46L330.348 157.48C329.297 155.648 329 153.519 329.539 151.498C330.078 149.477 331.372 147.752 333.204 146.701C332.719 145.058 332.45 143.171 332.342 141.285C330.456 140.935 328.758 139.641 327.68 137.836C326.602 136.03 326.333 133.874 326.872 131.853L328.947 124.066C329.486 122.018 330.779 120.32 332.611 119.269C334.444 118.218 336.573 117.922 338.594 118.461C339.402 116.978 340.561 115.442 341.827 114.014C340.723 112.424 340.453 110.296 340.992 108.274C341.531 106.226 342.824 104.529 344.657 103.478L351.636 99.4357C355.355 97.2799 360.125 98.5195 362.361 102.184C364.113 101.807 365.918 101.565 367.697 101.457C368.263 99.4896 369.529 97.8189 371.335 96.7949C373.167 95.7439 375.296 95.4475 377.317 95.9865L385.105 98.0614C387.153 98.6004 388.851 99.8938 389.901 101.726C390.925 103.505 391.222 105.58 390.737 107.574C392.246 108.544 393.674 109.649 395.021 110.834C396.8 109.837 398.875 109.568 400.869 110.107C402.917 110.646 404.615 111.939 405.666 113.772L409.708 120.751C410.759 122.584 411.055 124.685 410.516 126.733C409.977 128.781 408.684 130.479 406.851 131.53C407.336 133.147 407.606 135.06 407.714 136.973C411.783 137.89 414.289 142.228 413.184 146.432L411.109 154.22C410.004 158.424 405.666 160.93 401.462 159.825C400.653 161.334 399.495 162.843 398.228 164.271C400.438 167.801 399.171 172.625 395.399 174.808L388.446 178.85C384.728 181.005 379.958 179.793 377.721 176.101C375.97 176.478 374.164 176.721 372.386 176.829C371.82 178.796 370.553 180.466 368.748 181.49C367.535 182.164 366.188 182.514 364.814 182.514ZM357.241 172.409L364.679 174.376C365.595 171.17 368.424 168.879 371.739 168.717C373.248 168.637 374.757 168.421 376.239 168.098C379.5 167.397 382.814 168.825 384.566 171.682L391.195 167.828C389.578 164.891 389.982 161.28 392.219 158.801C393.216 157.696 394.105 156.51 394.941 155.244C396.746 152.441 400.141 151.094 403.375 151.875L405.342 144.438C402.136 143.495 399.872 140.665 399.683 137.351C399.603 135.869 399.387 134.386 399.091 132.931C398.39 129.644 399.818 126.329 402.675 124.578L398.821 117.949C395.884 119.565 392.3 119.161 389.821 116.952C388.689 115.954 387.476 115.011 386.21 114.203C383.434 112.397 382.087 109.029 382.868 105.768L375.431 103.801C374.488 107.008 371.685 109.298 368.371 109.46C366.861 109.541 365.352 109.757 363.87 110.08C360.61 110.781 357.295 109.325 355.544 106.496L348.915 110.349C350.531 113.287 350.127 116.898 347.891 119.377C346.894 120.482 345.977 121.694 345.169 122.934C343.336 125.736 339.968 127.084 336.734 126.302L334.767 133.74C337.974 134.683 340.238 137.512 340.426 140.854C340.507 142.336 340.723 143.818 341.019 145.273C341.72 148.534 340.291 151.875 337.435 153.627L341.288 160.256C344.226 158.639 347.81 159.043 350.289 161.253C351.421 162.25 352.633 163.193 353.9 164.002C356.702 165.807 358.023 169.176 357.241 172.409ZM370.014 162.816C368.02 162.816 365.972 162.546 363.951 162.008C361.041 161.226 358.373 159.96 356.002 158.208C355.813 158.073 355.517 157.858 355.22 157.615C350.585 153.95 347.513 148.642 346.597 142.713C346.543 142.471 346.516 142.12 346.462 141.797C346.112 138.887 346.328 135.922 347.109 133.012C347.891 130.102 349.157 127.434 350.909 125.063C351.151 124.739 351.313 124.497 351.502 124.281C355.193 119.646 360.502 116.547 366.403 115.658C366.673 115.604 367.05 115.55 367.454 115.523C370.23 115.2 373.194 115.416 376.104 116.17C379.015 116.952 381.683 118.218 384.054 119.97C384.243 120.104 384.539 120.32 384.835 120.562C389.47 124.254 392.569 129.563 393.459 135.464C393.512 135.761 393.566 136.138 393.593 136.515C393.917 139.318 393.701 142.255 392.947 145.165C392.192 148.049 390.899 150.744 389.147 153.115C389.012 153.33 388.797 153.6 388.554 153.896C384.889 158.531 379.581 161.603 373.679 162.52C373.329 162.573 372.952 162.627 372.601 162.654C371.739 162.762 370.877 162.816 370.014 162.816ZM370.041 123.473C369.448 123.473 368.856 123.5 368.263 123.581C367.993 123.608 367.885 123.634 367.751 123.634C363.736 124.254 360.232 126.275 357.78 129.374L357.457 129.778C356.244 131.422 355.409 133.174 354.897 135.087C354.385 137 354.25 138.941 354.466 140.854C354.493 141.042 354.52 141.231 354.547 141.393C355.166 145.381 357.187 148.857 360.286 151.309C360.448 151.444 360.556 151.525 360.664 151.606C362.334 152.845 364.113 153.681 366.026 154.193C367.939 154.705 369.88 154.84 371.793 154.597C372.089 154.57 372.224 154.543 372.359 154.516H372.413C376.32 153.923 379.796 151.875 382.248 148.803C382.383 148.642 382.491 148.507 382.572 148.372C383.784 146.728 384.62 144.977 385.105 143.064C385.617 141.15 385.752 139.21 385.536 137.297C385.509 137.027 385.482 136.893 385.455 136.758C384.835 132.797 382.814 129.293 379.715 126.841C379.554 126.706 379.446 126.626 379.338 126.545C377.667 125.332 375.916 124.497 374.003 123.985C372.709 123.634 371.362 123.473 370.041 123.473Z" fill="#8997A5"/>
<path d="M109.487 155.837C111.077 155.405 112.802 156.052 113.691 157.453C114.607 158.882 115.658 160.229 116.79 161.496C117.895 162.735 118.083 164.541 117.248 165.969C116.17 167.801 116.817 170.173 118.649 171.224L125.629 175.266C127.461 176.344 129.832 175.724 130.883 173.864C131.719 172.436 133.363 171.682 134.952 172.032C136.623 172.382 138.348 172.625 140.072 172.733C141.716 172.813 143.091 173.999 143.495 175.589C144.034 177.637 146.136 178.877 148.211 178.338L155.998 176.263C158.046 175.724 159.286 173.622 158.747 171.547C158.316 169.957 158.936 168.259 160.31 167.37C161.765 166.427 163.139 165.376 164.433 164.244C165.645 163.139 167.451 163.005 168.879 163.84C170.712 164.918 173.083 164.298 174.134 162.439L178.176 155.459C179.254 153.627 178.634 151.256 176.775 150.205C175.346 149.369 174.592 147.725 174.942 146.082C175.293 144.438 175.535 142.74 175.616 141.042C175.724 139.399 176.856 137.997 178.472 137.566C180.52 137.027 181.76 134.925 181.221 132.85L179.146 125.063C178.607 123.015 176.505 121.775 174.43 122.314C172.84 122.745 171.143 122.098 170.226 120.697C169.31 119.269 168.259 117.922 167.154 116.655C166.05 115.416 165.888 113.61 166.696 112.182C167.774 110.349 167.128 107.978 165.295 106.927L158.316 102.885C156.483 101.807 154.112 102.454 153.061 104.286C152.226 105.714 150.582 106.469 148.992 106.119C147.321 105.768 145.597 105.526 143.872 105.418C142.228 105.337 140.854 104.152 140.45 102.562C139.911 100.514 137.809 99.274 135.734 99.813L127.946 101.888C125.898 102.427 124.659 104.529 125.197 106.604C125.629 108.194 125.009 109.891 123.635 110.781C122.179 111.724 120.805 112.775 119.512 113.906C118.299 115.011 116.493 115.146 115.065 114.311C113.233 113.233 110.861 113.88 109.811 115.712L105.768 122.691C104.691 124.524 105.337 126.895 107.17 127.946C108.598 128.781 109.352 130.452 109.002 132.069C108.652 133.713 108.409 135.41 108.328 137.108C108.221 138.752 107.089 140.153 105.472 140.584C103.424 141.123 102.184 143.225 102.723 145.3L104.798 153.088C105.337 155.163 107.439 156.402 109.487 155.837ZM126.572 151.336C126.41 151.148 126.248 150.932 126.114 150.717C124.685 148.803 123.608 146.567 122.961 144.141C122.314 141.716 122.152 139.237 122.422 136.866C122.449 136.623 122.476 136.354 122.53 136.111C123.284 131.234 125.871 126.787 129.725 123.715C129.913 123.554 130.129 123.392 130.344 123.257C132.258 121.829 134.467 120.751 136.92 120.104C139.372 119.458 141.824 119.296 144.195 119.565C144.465 119.592 144.707 119.619 144.95 119.673C149.827 120.428 154.274 123.015 157.346 126.868C157.507 127.057 157.669 127.272 157.804 127.488C159.232 129.401 160.31 131.638 160.957 134.063C161.603 136.515 161.765 138.968 161.496 141.339C161.469 141.581 161.442 141.851 161.388 142.093C160.633 146.971 158.046 151.417 154.166 154.489C153.977 154.651 153.762 154.813 153.546 154.947C151.633 156.375 149.423 157.453 146.971 158.1C144.519 158.747 142.067 158.909 139.695 158.612C139.426 158.585 139.183 158.558 138.914 158.504C134.09 157.777 129.644 155.19 126.572 151.336Z" fill="#DAE1E5"/>
<path d="M147.213 182.514C143.764 182.514 140.584 180.224 139.614 176.775C137.836 176.667 136.03 176.424 134.279 176.047C132.042 179.712 127.272 180.925 123.554 178.769L116.574 174.727C112.802 172.544 111.535 167.693 113.718 163.948C112.532 162.816 111.373 161.334 110.376 159.798C106.2 160.822 101.969 158.316 100.864 154.166L98.789 146.378C97.6842 142.174 100.19 137.836 104.394 136.731C104.367 135.033 104.61 133.147 105.014 131.288C103.289 130.452 101.996 128.754 101.43 126.706C100.891 124.658 101.187 122.53 102.238 120.724L106.28 113.772C108.436 110.053 113.206 108.76 116.952 110.834C118.299 109.649 119.727 108.544 121.236 107.574C120.751 105.58 121.048 103.505 122.072 101.726C123.123 99.8938 124.847 98.6004 126.868 98.0614L134.656 95.9865C136.704 95.4475 138.806 95.7439 140.638 96.7949C142.417 97.8189 143.71 99.4896 144.276 101.457C146.055 101.565 147.86 101.807 149.612 102.184C150.69 100.433 152.36 99.1663 154.328 98.6543C156.376 98.1153 158.477 98.4117 160.31 99.4627L167.289 103.505C169.122 104.556 170.415 106.28 170.954 108.301C171.493 110.349 171.197 112.478 170.146 114.284C171.358 115.469 172.544 116.978 173.568 118.568C175.373 117.922 177.502 118.218 179.335 119.269C181.167 120.32 182.461 122.045 183 124.066L185.075 131.853C185.613 133.901 185.317 136.003 184.266 137.836C183.215 139.668 181.491 140.962 179.469 141.501C179.496 143.144 179.254 145.004 178.877 146.809C180.736 147.968 181.922 149.612 182.434 151.525C182.973 153.573 182.676 155.702 181.625 157.507L177.583 164.487C175.427 168.205 170.658 169.499 166.912 167.397C165.565 168.583 164.136 169.688 162.627 170.658C163.112 172.652 162.816 174.727 161.792 176.505C160.741 178.338 159.016 179.631 156.995 180.17L149.208 182.245C148.561 182.434 147.86 182.514 147.213 182.514ZM134.144 167.936C134.683 167.936 135.249 167.99 135.788 168.098C137.27 168.421 138.779 168.61 140.288 168.717C143.603 168.906 146.405 171.17 147.348 174.376L154.786 172.409C154.004 169.149 155.325 165.78 158.127 164.002C159.394 163.193 160.606 162.25 161.738 161.253C164.217 159.043 167.801 158.639 170.739 160.256L174.592 153.6C171.736 151.848 170.307 148.507 171.008 145.246C171.331 143.791 171.52 142.309 171.601 140.827C171.789 137.485 174.053 134.656 177.26 133.713L175.293 126.275C172.032 127.057 168.664 125.709 166.858 122.907C166.05 121.667 165.133 120.455 164.163 119.35C161.927 116.844 161.549 113.233 163.139 110.322L156.483 106.469C154.732 109.325 151.417 110.754 148.157 110.053C146.675 109.73 145.165 109.541 143.656 109.433C140.342 109.245 137.539 106.981 136.596 103.774L129.159 105.741C129.94 109.002 128.62 112.37 125.817 114.149C124.551 114.984 123.338 115.901 122.206 116.898C119.727 119.107 116.143 119.512 113.206 117.895L109.352 124.524C112.209 126.275 113.637 129.617 112.936 132.877C112.613 134.333 112.424 135.815 112.344 137.297C112.155 140.638 109.891 143.468 106.685 144.384L108.652 151.821C111.885 151.04 115.281 152.387 117.086 155.19C117.895 156.429 118.811 157.642 119.808 158.747C122.045 161.253 122.449 164.864 120.832 167.774L127.461 171.628C128.916 169.337 131.449 167.936 134.144 167.936ZM141.986 162.816C141.069 162.816 140.153 162.762 139.237 162.654C139.021 162.627 138.644 162.6 138.267 162.52C132.419 161.603 127.111 158.531 123.392 153.869C123.176 153.6 122.961 153.33 122.772 153.034C121.075 150.744 119.808 148.076 119.027 145.165C118.245 142.255 118.056 139.318 118.38 136.381C118.407 136.138 118.461 135.788 118.515 135.41C119.404 129.563 122.503 124.254 127.192 120.536C127.461 120.32 127.731 120.104 128.054 119.889C130.291 118.218 132.985 116.952 135.869 116.17C138.779 115.389 141.743 115.2 144.653 115.55C144.896 115.577 145.3 115.631 145.677 115.685C151.471 116.574 156.78 119.646 160.499 124.335C160.66 124.524 160.849 124.793 161.037 125.036C162.816 127.434 164.083 130.102 164.864 133.012C165.645 135.922 165.834 138.86 165.511 141.797C165.457 142.174 165.43 142.471 165.376 142.767C164.46 148.642 161.388 153.95 156.699 157.642C156.483 157.831 156.187 158.046 155.864 158.289C153.627 159.96 150.932 161.226 148.049 162.008C146.028 162.546 144.007 162.816 141.986 162.816ZM141.959 123.473C140.611 123.473 139.291 123.634 137.971 123.985C136.057 124.497 134.306 125.332 132.77 126.464C132.527 126.626 132.419 126.733 132.285 126.814C129.159 129.293 127.138 132.797 126.518 136.677C126.491 136.893 126.464 137.027 126.437 137.189C126.195 139.21 126.329 141.15 126.841 143.064C127.353 144.977 128.189 146.728 129.32 148.291C129.455 148.507 129.563 148.615 129.671 148.749L129.698 148.803C132.15 151.875 135.626 153.923 139.533 154.516C139.722 154.543 139.857 154.57 140.019 154.57C142.093 154.813 144.007 154.678 145.92 154.166C147.833 153.654 149.585 152.818 151.148 151.687C151.363 151.525 151.471 151.444 151.579 151.363C154.759 148.857 156.78 145.354 157.4 141.447L157.48 140.881C157.723 138.887 157.588 136.946 157.076 135.033C156.564 133.12 155.729 131.368 154.597 129.805C154.462 129.644 154.381 129.509 154.274 129.374C151.768 126.221 148.264 124.2 144.384 123.608C144.141 123.554 144.034 123.554 143.899 123.527C143.225 123.5 142.579 123.473 141.959 123.473Z" fill="#8997A5"/>
<path d="M239.32 67.9612C239.32 67.9612 214.959 74.5094 213.477 104.798" stroke="white" stroke-width="2" stroke-miterlimit="10" stroke-linecap="round"/>
<path d="M116.574 126.033L118.083 122.961" stroke="white" stroke-width="2" stroke-miterlimit="10" stroke-linecap="round"/>
<path d="M130.344 114.473C130.344 114.473 134.144 112.29 138.59 111.939" stroke="white" stroke-width="2" stroke-miterlimit="10" stroke-linecap="round"/>
<path d="M351.016 120.131C351.016 120.131 354.574 115.173 359.047 113.691" stroke="white" stroke-width="2" stroke-miterlimit="10" stroke-linecap="round"/>
<path d="M344.333 129.051C344.333 129.051 342.824 132.635 343.094 136.084" stroke="white" stroke-width="2" stroke-miterlimit="10" stroke-linecap="round"/>
<path d="M247.862 65.8054C247.862 65.8054 253.817 64.7275 259.907 65.8054" stroke="white" stroke-width="2" stroke-miterlimit="10" stroke-linecap="round"/>
</g>
</svg>
