<svg width="512" height="512" viewBox="0 0 512 512" fill="none" xmlns="http://www.w3.org/2000/svg">
<mask id="mask0_107_4799" style="mask-type:alpha" maskUnits="userSpaceOnUse" x="0" y="0" width="512" height="512">
<path d="M256 512C397.385 512 512 397.385 512 256C512 114.615 397.385 0 256 0C114.615 0 0 114.615 0 256C0 397.385 114.615 512 256 512Z" fill="#E5E5E5"/>
</mask>
<g mask="url(#mask0_107_4799)">
<path d="M256 512C397.385 512 512 397.385 512 256C512 114.615 397.385 0 256 0C114.615 0 0 114.615 0 256C0 397.385 114.615 512 256 512Z" fill="#DFFFD8"/>
<path d="M368.478 342.878C368.478 422.454 317.629 486.993 254.949 486.993C192.243 486.993 141.42 422.454 141.42 342.878C141.42 330.779 142.605 319.003 144.842 307.766C157.184 245.113 201.809 198.764 254.976 198.764C307.577 198.764 351.798 244.116 364.706 305.745C367.185 317.602 368.478 330.051 368.478 342.878Z" fill="#B0E8A1"/>
<path d="M254.949 487.667C191.973 487.667 140.746 422.723 140.746 342.878C140.746 330.941 141.905 319.084 144.168 307.631C156.861 243.146 202.429 198.09 254.949 198.09C306.688 198.09 352.067 242.311 365.325 305.61C367.859 317.656 369.152 330.213 369.152 342.878C369.152 422.723 317.925 487.667 254.949 487.667ZM254.949 199.438C203.075 199.438 158.073 244.035 145.489 307.901C143.225 319.273 142.093 331.049 142.093 342.878C142.093 421.969 192.728 486.319 254.949 486.319C317.171 486.319 367.805 421.969 367.805 342.878C367.805 330.294 366.538 317.844 364.005 305.88C350.882 243.227 306.041 199.438 254.949 199.438Z" fill="#B7DEEC"/>
<path d="M368.478 342.878C368.478 422.454 317.629 486.993 254.949 486.993C192.243 486.993 141.42 422.454 141.42 342.878C141.42 330.779 142.605 319.003 144.842 307.766C171.628 321.374 210.109 329.89 252.874 329.89C297.688 329.89 337.812 320.539 364.706 305.745C367.185 317.602 368.478 330.051 368.478 342.878Z" fill="#97D685"/>
<path d="M313.56 317.305C313.56 328.812 306.419 336.088 297.607 336.088C288.795 336.088 281.654 328.839 281.654 317.305C281.654 305.799 285.831 294.373 294.643 294.373C303.454 294.373 313.56 305.799 313.56 317.305Z" fill="#53893F"/>
<path d="M301.137 308.44C303.801 308.44 305.96 306.28 305.96 303.616C305.96 300.952 303.801 298.792 301.137 298.792C298.473 298.792 296.313 300.952 296.313 303.616C296.313 306.28 298.473 308.44 301.137 308.44Z" fill="white"/>
<path d="M294 331.363C298.129 330.925 300.932 325.446 300.26 319.127C299.588 312.807 295.696 308.04 291.567 308.479C287.438 308.918 284.636 314.397 285.307 320.716C285.979 327.035 289.871 331.802 294 331.363Z" fill="white"/>
<path d="M316.712 281.196C315.419 281.196 314.125 280.576 313.344 279.417C312.994 278.878 304.397 266.402 290.897 268.638C288.714 268.989 286.612 267.507 286.235 265.324C285.858 263.114 287.367 261.039 289.549 260.662C307.766 257.617 318.814 273.112 320.027 274.917C321.267 276.777 320.781 279.283 318.922 280.522C318.275 280.98 317.494 281.196 316.712 281.196Z" fill="white"/>
<path d="M194.856 317.305C194.856 328.812 201.997 336.088 210.809 336.088C219.621 336.088 226.762 328.839 226.762 317.305C226.762 305.799 222.585 294.373 213.773 294.373C204.962 294.373 194.856 305.799 194.856 317.305Z" fill="#53893F"/>
<path d="M207.279 308.44C209.943 308.44 212.103 306.28 212.103 303.616C212.103 300.952 209.943 298.792 207.279 298.792C204.615 298.792 202.456 300.952 202.456 303.616C202.456 306.28 204.615 308.44 207.279 308.44Z" fill="white"/>
<path d="M223.092 320.725C223.764 314.406 220.961 308.927 216.832 308.488C212.703 308.049 208.812 312.816 208.14 319.136C207.468 325.455 210.271 330.933 214.4 331.372C218.529 331.811 222.421 327.044 223.092 320.725Z" fill="white"/>
<path d="M191.704 281.196C190.949 281.196 190.168 280.98 189.467 280.522C187.608 279.283 187.096 276.777 188.335 274.917C188.82 274.217 200.111 257.536 218.813 260.662C221.022 261.039 222.504 263.114 222.127 265.324C221.75 267.534 219.675 269.016 217.465 268.638C203.857 266.375 195.395 278.851 195.045 279.39C194.291 280.549 193.024 281.196 191.704 281.196Z" fill="white"/>
<path d="M254.949 491.035C190.114 491.035 137.378 424.583 137.378 342.878C137.378 330.725 138.563 318.653 140.881 306.984C153.896 240.883 200.812 194.722 254.976 194.722C308.332 194.722 355.059 240.047 368.64 304.909C371.227 317.197 372.547 329.971 372.547 342.878C372.52 424.583 319.784 491.035 254.949 491.035ZM254.949 202.806C204.719 202.806 161.064 246.299 148.776 308.547C146.567 319.704 145.435 331.264 145.435 342.878C145.435 420.109 194.56 482.951 254.922 482.951C315.284 482.951 364.409 420.109 364.409 342.878C364.409 330.536 363.143 318.329 360.691 306.58C347.917 245.491 304.424 202.806 254.949 202.806Z" fill="#4F9638"/>
<path d="M452.958 396.504H58.7722V536.307H452.958V396.504Z" fill="#FF8682"/>
<path d="M452.985 396.504V465.92C409.007 454.764 337.165 447.488 256 447.488C174.7 447.488 102.75 454.791 58.7992 466.001V396.504H452.985Z" fill="#F77272"/>
<path d="M472.28 341.154H39.7204V423.424H472.28V341.154Z" fill="#FF8682"/>
<path d="M472.28 427.493H312.886C310.649 427.493 308.844 425.688 308.844 423.451C308.844 421.214 310.649 419.409 312.886 419.409H468.237V345.196H43.7625V419.382H140.854C143.091 419.382 144.896 421.187 144.896 423.424C144.896 425.661 143.091 427.466 140.854 427.466H39.7204C37.4838 427.466 35.6783 425.661 35.6783 423.424V341.154C35.6783 338.917 37.4838 337.112 39.7204 337.112H472.28C474.516 337.112 476.322 338.917 476.322 341.154V423.424C476.322 425.661 474.516 427.493 472.28 427.493Z" fill="#ED5454"/>
<path d="M452.958 540.349H58.7722C56.5356 540.349 54.7301 538.543 54.7301 536.306V423.451C54.7301 421.214 56.5356 419.409 58.7722 419.409C61.0088 419.409 62.8143 421.214 62.8143 423.451V532.264H448.916V423.451C448.916 421.214 450.722 419.409 452.958 419.409C455.195 419.409 457 421.214 457 423.451V536.306C457 538.516 455.195 540.349 452.958 540.349Z" fill="#ED5454"/>
<path d="M435.092 338.297V338.486C435.092 352.876 425.876 362.766 407.471 362.766C389.066 362.766 368.478 352.876 368.478 338.486C368.478 337.92 368.505 337.354 368.586 336.815C370.014 323.207 388.824 312.643 406.501 312.643C424.825 312.643 435.011 323.961 435.092 338.297Z" fill="#B0E8A1"/>
<path d="M407.471 363.439C388.716 363.439 367.805 353.199 367.805 338.486C367.805 337.812 367.832 337.219 367.912 336.707C369.448 322.129 389.47 311.97 406.474 311.97C423.882 311.97 435.631 322.533 435.739 338.297V338.486C435.766 354.088 425.176 363.439 407.471 363.439ZM406.501 313.317C386.021 313.317 370.419 325.74 369.26 336.896C369.179 337.381 369.152 337.893 369.152 338.486C369.152 352.391 389.336 362.092 407.471 362.092C424.583 362.092 434.419 353.496 434.419 338.486V338.297C434.338 323.126 423.37 313.317 406.501 313.317Z" fill="#B7DEEC"/>
<path d="M435.092 338.297V338.486C435.092 352.876 425.876 362.765 407.471 362.765C389.066 362.765 368.478 352.876 368.478 338.486C368.478 337.92 368.505 337.354 368.586 336.815C382.006 344.118 409.061 354.493 435.092 338.297Z" fill="#97D685"/>
<path d="M414.046 355.436C412.672 355.436 411.352 354.735 410.597 353.496C409.438 351.582 410.031 349.103 411.944 347.944C419.705 343.229 418.6 335.926 418.573 335.63C418.223 333.447 419.678 331.345 421.861 330.968C424.071 330.59 426.119 332.019 426.523 334.174C426.631 334.713 428.786 347.136 416.148 354.843C415.474 355.247 414.747 355.436 414.046 355.436Z" fill="white"/>
<path d="M407.471 366.808C386.695 366.808 364.436 355.436 364.436 338.486C364.436 337.705 364.49 336.95 364.598 336.222C366.323 319.784 387.665 308.628 406.501 308.628C425.903 308.628 439.027 320.539 439.134 338.297V338.513C439.134 355.948 427.008 366.808 407.471 366.808ZM406.501 316.686C389.901 316.686 373.733 326.467 372.601 337.246C372.52 337.785 372.52 338.136 372.52 338.486C372.52 350.073 390.979 358.723 407.471 358.723C422.669 358.723 431.05 351.529 431.05 338.486L435.092 338.297L431.05 338.324C430.969 325.174 421.349 316.686 406.501 316.686Z" fill="#4F9638"/>
<path d="M74.8059 338.297V338.486C74.8059 352.876 84.0219 362.766 102.427 362.766C120.832 362.766 141.42 352.876 141.42 338.486C141.42 337.92 141.393 337.354 141.312 336.815C139.884 323.207 121.075 312.643 103.397 312.643C85.0728 312.643 74.8867 323.961 74.8059 338.297Z" fill="#B0E8A1"/>
<path d="M102.427 363.439C84.7225 363.439 74.1322 354.115 74.1322 338.486V338.297C74.213 322.56 85.989 311.97 103.397 311.97C120.428 311.97 140.45 322.156 141.986 336.734C142.067 337.219 142.093 337.812 142.093 338.459C142.093 353.172 121.182 363.439 102.427 363.439ZM75.4796 338.297V338.486C75.4796 353.496 85.2884 362.092 102.427 362.092C120.536 362.092 140.746 352.391 140.746 338.486C140.746 337.893 140.719 337.381 140.638 336.923C139.453 325.74 123.877 313.317 103.397 313.317C86.528 313.317 75.5874 323.126 75.4796 338.297Z" fill="#B7DEEC"/>
<path d="M74.8059 338.297V338.486C74.8059 352.876 84.0219 362.766 102.427 362.766C120.832 362.766 141.42 352.876 141.42 338.486C141.42 337.92 141.393 337.354 141.312 336.815C127.892 344.118 100.837 354.493 74.8059 338.297Z" fill="#97D685"/>
<path d="M95.8518 355.436C95.1242 355.436 94.3967 355.247 93.7499 354.843C81.1386 347.136 83.2943 334.713 83.3752 334.174C83.7794 331.992 85.8813 330.537 88.091 330.941C90.2737 331.345 91.7289 333.447 91.3246 335.63C91.2708 336.007 90.2198 343.256 97.9537 347.945C99.867 349.103 100.46 351.582 99.3011 353.496C98.5465 354.762 97.2261 355.436 95.8518 355.436Z" fill="white"/>
<path d="M102.427 366.808C82.8901 366.808 70.7638 355.948 70.7638 338.486V338.27C70.8716 320.539 83.968 308.601 103.397 308.601C122.233 308.601 143.576 319.758 145.327 336.384C145.408 336.95 145.462 337.704 145.462 338.459C145.462 355.409 123.203 366.808 102.427 366.808ZM78.848 338.297V338.459C78.848 351.502 87.2286 358.696 102.427 358.696C118.919 358.696 137.378 350.046 137.378 338.459C137.378 338.109 137.378 337.731 137.324 337.381C136.165 326.44 120.024 316.659 103.424 316.659C88.576 316.686 78.9288 325.174 78.848 338.297Z" fill="#4F9638"/>
<path d="M267.372 44.9214L278.636 68.3117C280.468 72.1382 284.106 74.7791 288.31 75.3449L314.045 78.8212C324.527 80.2494 328.731 93.1572 321.078 100.46L302.323 118.407C299.251 121.344 297.876 125.602 298.631 129.779L303.266 155.325C305.152 165.726 294.184 173.703 284.861 168.691L262.009 156.403C258.264 154.382 253.79 154.382 250.045 156.403L227.166 168.691C217.843 173.703 206.875 165.726 208.761 155.325L213.396 129.779C214.151 125.602 212.776 121.317 209.704 118.407L190.949 100.46C183.296 93.1572 187.5 80.2494 197.982 78.8212L223.717 75.3449C227.921 74.7791 231.559 72.1382 233.391 68.3117L244.655 44.9214C249.209 35.382 262.791 35.382 267.372 44.9214Z" fill="#FFE180"/>
<path d="M221.157 174.269C217.708 174.269 214.312 173.191 211.375 171.062C206.147 167.262 203.614 160.957 204.773 154.597L209.408 129.051C209.92 126.195 208.977 123.311 206.902 121.317L188.147 103.37C183.485 98.8969 181.814 92.3217 183.808 86.1777C185.802 80.0337 191.03 75.6683 197.416 74.8059L223.151 71.3297C226.008 70.9525 228.487 69.147 229.726 66.5601L240.99 43.1697C243.793 37.3491 249.56 33.7382 256 33.7382C262.467 33.7382 268.207 37.3491 271.01 43.1697L282.274 66.5601C283.54 69.1739 285.992 70.9525 288.849 71.3297L314.584 74.8059C320.997 75.6683 326.198 80.0337 328.192 86.1777C330.186 92.3217 328.515 98.9238 323.853 103.37L305.098 121.317C302.996 123.311 302.08 126.222 302.592 129.051L307.227 154.597C308.386 160.957 305.853 167.262 300.625 171.062C295.397 174.862 288.633 175.32 282.92 172.248L260.069 159.96C257.509 158.585 254.491 158.585 251.931 159.96L229.08 172.248C226.573 173.595 223.852 174.269 221.157 174.269ZM256 41.7954C252.632 41.7954 249.721 43.6009 248.266 46.6459L237.002 70.0632C234.577 75.1293 229.78 78.6055 224.229 79.3601L198.494 82.8363C195.153 83.2944 192.539 85.4771 191.488 88.6838C190.437 91.8906 191.272 95.2051 193.725 97.5495L212.48 115.496C216.549 119.377 218.355 124.982 217.357 130.506L212.723 156.052C212.13 159.367 213.396 162.547 216.118 164.541C218.84 166.535 222.262 166.75 225.226 165.16L248.077 152.872C253.036 150.205 258.937 150.205 263.869 152.872L286.72 165.16C289.684 166.75 293.107 166.535 295.828 164.541C298.55 162.547 299.843 159.394 299.224 156.052L294.589 130.506C293.592 124.982 295.397 119.377 299.466 115.496L318.221 97.5495C320.674 95.2051 321.509 91.8906 320.458 88.6838C319.407 85.4771 316.793 83.2944 313.452 82.8363L287.717 79.3601C282.139 78.6055 277.369 75.1293 274.944 70.0632L263.68 46.6729C262.279 43.6278 259.368 41.7954 256 41.7954Z" fill="#E0A000"/>
<path d="M232.313 145.112C231.774 145.112 231.235 144.95 230.777 144.627C229.565 143.764 229.268 142.094 230.131 140.881L253.79 107.17C254.653 105.957 256.323 105.661 257.536 106.523C258.749 107.385 259.045 109.056 258.183 110.269L234.523 143.98C234.011 144.707 233.176 145.112 232.313 145.112Z" fill="white"/>
<path d="M282.247 146.109C281.438 146.109 280.63 145.731 280.091 145.031L253.305 109.595V64.1078C253.305 62.6257 254.518 61.4131 256 61.4131C257.482 61.4131 258.695 62.6257 258.695 64.1078V107.79L284.403 141.797C285.292 142.983 285.076 144.68 283.864 145.57C283.379 145.947 282.813 146.109 282.247 146.109Z" fill="white"/>
<path d="M255.973 111.508L214.824 99.2202C213.396 98.789 212.588 97.28 213.019 95.8787C213.45 94.4505 214.932 93.6421 216.36 94.0732L256 105.93L295.559 94.6122C296.987 94.208 298.469 95.0433 298.9 96.4716C299.304 97.8998 298.469 99.3819 297.041 99.813L255.973 111.508Z" fill="white"/>
</g>
</svg>
