<svg width="512" height="512" viewBox="0 0 512 512" fill="none" xmlns="http://www.w3.org/2000/svg">
<mask id="mask0_107_3682" style="mask-type:alpha" maskUnits="userSpaceOnUse" x="0" y="0" width="512" height="512">
<path d="M256 512C397.385 512 512 397.385 512 256C512 114.615 397.385 0 256 0C114.615 0 0 114.615 0 256C0 397.385 114.615 512 256 512Z" fill="#DFDFF2"/>
</mask>
<g mask="url(#mask0_107_3682)">
<path d="M256 512C397.385 512 512 397.385 512 256C512 114.615 397.385 0 256 0C114.615 0 0 114.615 0 256C0 397.385 114.615 512 256 512Z" fill="#DFDFF2"/>
<path d="M368.478 342.878C368.478 422.454 317.629 486.993 254.949 486.993C192.243 486.993 141.42 422.454 141.42 342.878C141.42 330.779 142.605 319.003 144.842 307.766C157.184 245.113 201.809 198.764 254.976 198.764C307.577 198.764 351.798 244.116 364.706 305.745C367.185 317.602 368.478 330.051 368.478 342.878Z" fill="#9BC1E6"/>
<path d="M254.949 487.667C191.973 487.667 140.746 422.723 140.746 342.878C140.746 330.941 141.905 319.084 144.168 307.631C156.861 243.146 202.429 198.09 254.949 198.09C306.688 198.09 352.067 242.311 365.325 305.61C367.859 317.656 369.152 330.213 369.152 342.878C369.152 422.723 317.925 487.667 254.949 487.667ZM254.949 199.437C203.075 199.437 158.073 244.035 145.489 307.901C143.225 319.272 142.093 331.048 142.093 342.878C142.093 421.969 192.728 486.319 254.949 486.319C317.171 486.319 367.805 421.969 367.805 342.878C367.805 330.294 366.538 317.844 364.005 305.88C350.882 243.227 306.041 199.437 254.949 199.437Z" fill="#9BC1E6"/>
<path d="M368.478 342.878C368.478 422.454 317.629 486.993 254.949 486.993C192.243 486.993 141.42 422.454 141.42 342.878C141.42 330.779 142.605 319.003 144.842 307.766C171.628 321.374 210.109 329.89 252.874 329.89C297.688 329.89 337.812 320.539 364.706 305.745C367.185 317.602 368.478 330.051 368.478 342.878Z" fill="#7AB1DD"/>
<path d="M313.56 317.305C313.56 328.812 306.419 336.088 297.607 336.088C288.795 336.088 281.654 328.839 281.654 317.305C281.654 305.799 285.831 294.373 294.643 294.373C303.454 294.373 313.56 305.799 313.56 317.305Z" fill="#2F6F9B"/>
<path d="M301.137 308.44C303.801 308.44 305.96 306.28 305.96 303.616C305.96 300.952 303.801 298.792 301.137 298.792C298.473 298.792 296.313 300.952 296.313 303.616C296.313 306.28 298.473 308.44 301.137 308.44Z" fill="white"/>
<path d="M294 331.363C298.129 330.925 300.932 325.446 300.26 319.127C299.588 312.807 295.696 308.04 291.567 308.479C287.438 308.918 284.636 314.397 285.307 320.716C285.979 327.035 289.871 331.802 294 331.363Z" fill="white"/>
<path d="M316.712 281.196C315.419 281.196 314.125 280.576 313.344 279.417C312.994 278.878 304.397 266.402 290.897 268.638C288.714 268.989 286.612 267.506 286.235 265.324C285.858 263.114 287.367 261.039 289.549 260.662C307.766 257.617 318.814 273.111 320.027 274.917C321.267 276.776 320.781 279.282 318.922 280.522C318.275 280.98 317.494 281.196 316.712 281.196Z" fill="white"/>
<path d="M194.856 317.305C194.856 328.812 201.997 336.087 210.809 336.087C219.621 336.087 226.762 328.838 226.762 317.305C226.762 305.798 222.585 294.373 213.773 294.373C204.962 294.373 194.856 305.798 194.856 317.305Z" fill="#2F6F9B"/>
<path d="M207.279 308.439C209.943 308.439 212.103 306.28 212.103 303.616C212.103 300.952 209.943 298.792 207.279 298.792C204.615 298.792 202.456 300.952 202.456 303.616C202.456 306.28 204.615 308.439 207.279 308.439Z" fill="white"/>
<path d="M223.092 320.725C223.764 314.405 220.961 308.927 216.832 308.488C212.703 308.049 208.812 312.816 208.14 319.135C207.468 325.455 210.271 330.933 214.4 331.372C218.529 331.811 222.421 327.044 223.092 320.725Z" fill="white"/>
<path d="M191.704 281.196C190.949 281.196 190.168 280.98 189.467 280.522C187.608 279.282 187.096 276.776 188.335 274.917C188.82 274.216 200.111 257.536 218.813 260.662C221.022 261.039 222.504 263.114 222.127 265.324C221.75 267.533 219.675 269.015 217.465 268.638C203.857 266.375 195.395 278.851 195.045 279.39C194.291 280.549 193.024 281.196 191.704 281.196Z" fill="white"/>
<path d="M254.949 491.035C190.114 491.035 137.378 424.583 137.378 342.878C137.378 330.725 138.563 318.653 140.881 306.984C153.896 240.883 200.812 194.722 254.976 194.722C308.332 194.722 355.059 240.047 368.64 304.909C371.227 317.197 372.547 329.971 372.547 342.878C372.52 424.583 319.784 491.035 254.949 491.035ZM254.949 202.806C204.719 202.806 161.064 246.299 148.776 308.547C146.567 319.704 145.435 331.264 145.435 342.878C145.435 420.109 194.56 482.951 254.922 482.951C315.284 482.951 364.409 420.109 364.409 342.878C364.409 330.536 363.143 318.329 360.691 306.58C347.917 245.491 304.424 202.806 254.949 202.806Z" fill="#407AA5"/>
<path d="M452.958 396.504H58.7722V536.307H452.958V396.504Z" fill="#FFF780"/>
<path d="M452.985 396.504V465.92C409.007 454.764 337.165 447.488 256 447.488C174.7 447.488 102.75 454.791 58.7992 466.001V396.504H452.985Z" fill="#F9E35F"/>
<path d="M472.28 341.154H39.7204V423.424H472.28V341.154Z" fill="#FFF780"/>
<path d="M472.28 427.493H312.886C310.649 427.493 308.844 425.688 308.844 423.451C308.844 421.214 310.649 419.409 312.886 419.409H468.237V345.196H43.7625V419.382H140.854C143.091 419.382 144.896 421.187 144.896 423.424C144.896 425.661 143.091 427.466 140.854 427.466H39.7204C37.4838 427.466 35.6783 425.661 35.6783 423.424V341.154C35.6783 338.917 37.4838 337.112 39.7204 337.112H472.28C474.516 337.112 476.322 338.917 476.322 341.154V423.424C476.322 425.661 474.516 427.493 472.28 427.493Z" fill="#FFCB12"/>
<path d="M452.958 540.349H58.7722C56.5356 540.349 54.7301 538.543 54.7301 536.306V423.451C54.7301 421.214 56.5356 419.409 58.7722 419.409C61.0088 419.409 62.8143 421.214 62.8143 423.451V532.264H448.916V423.451C448.916 421.214 450.722 419.409 452.958 419.409C455.195 419.409 457 421.214 457 423.451V536.306C457 538.516 455.195 540.349 452.958 540.349Z" fill="#FFCB12"/>
<path d="M435.092 338.297V338.486C435.092 352.876 425.876 362.766 407.471 362.766C389.066 362.766 368.478 352.876 368.478 338.486C368.478 337.92 368.505 337.354 368.586 336.815C370.014 323.207 388.824 312.644 406.501 312.644C424.825 312.644 435.011 323.961 435.092 338.297Z" fill="#9BC1E6"/>
<path d="M407.471 363.439C388.716 363.439 367.805 353.199 367.805 338.486C367.805 337.812 367.832 337.219 367.912 336.707C369.448 322.129 389.47 311.97 406.474 311.97C423.882 311.97 435.631 322.533 435.739 338.297V338.486C435.766 354.088 425.176 363.439 407.471 363.439ZM406.501 313.317C386.021 313.317 370.419 325.74 369.26 336.896C369.179 337.381 369.152 337.893 369.152 338.486C369.152 352.391 389.336 362.092 407.471 362.092C424.583 362.092 434.419 353.496 434.419 338.486V338.297C434.338 323.126 423.37 313.317 406.501 313.317Z" fill="#9BC1E6"/>
<path d="M435.092 338.297V338.486C435.092 352.876 425.876 362.766 407.471 362.766C389.066 362.766 368.478 352.876 368.478 338.486C368.478 337.92 368.505 337.354 368.586 336.815C382.006 344.118 409.061 354.493 435.092 338.297Z" fill="#7AB1DD"/>
<path d="M414.046 355.436C412.672 355.436 411.352 354.735 410.597 353.496C409.438 351.582 410.031 349.103 411.944 347.944C419.705 343.229 418.6 335.926 418.573 335.63C418.223 333.447 419.678 331.345 421.861 330.968C424.071 330.59 426.119 332.019 426.523 334.174C426.631 334.713 428.786 347.136 416.148 354.843C415.474 355.247 414.747 355.436 414.046 355.436Z" fill="white"/>
<path d="M407.471 366.808C386.695 366.808 364.436 355.436 364.436 338.486C364.436 337.704 364.49 336.95 364.598 336.222C366.323 319.784 387.665 308.628 406.501 308.628C425.903 308.628 439.027 320.539 439.134 338.297V338.513C439.134 355.948 427.008 366.808 407.471 366.808ZM406.501 316.685C389.901 316.685 373.733 326.467 372.601 337.246C372.52 337.785 372.52 338.136 372.52 338.486C372.52 350.073 390.979 358.723 407.471 358.723C422.669 358.723 431.05 351.528 431.05 338.486L435.092 338.297L431.05 338.324C430.969 325.174 421.349 316.685 406.501 316.685Z" fill="#407AA5"/>
<path d="M74.8059 338.297V338.486C74.8059 352.875 84.0219 362.765 102.427 362.765C120.832 362.765 141.42 352.875 141.42 338.486C141.42 337.92 141.393 337.354 141.312 336.815C139.884 323.206 121.075 312.643 103.397 312.643C85.0728 312.643 74.8867 323.961 74.8059 338.297Z" fill="#9BC1E6"/>
<path d="M102.427 363.439C84.7225 363.439 74.1322 354.115 74.1322 338.486V338.297C74.2131 322.56 85.989 311.969 103.397 311.969C120.428 311.969 140.45 322.156 141.986 336.734C142.067 337.219 142.093 337.812 142.093 338.459C142.093 353.172 121.182 363.439 102.427 363.439ZM75.4796 338.297V338.486C75.4796 353.495 85.2884 362.092 102.427 362.092C120.536 362.092 140.746 352.391 140.746 338.486C140.746 337.893 140.719 337.381 140.638 336.923C139.453 325.74 123.877 313.317 103.397 313.317C86.528 313.317 75.5874 323.126 75.4796 338.297Z" fill="#9BC1E6"/>
<path d="M74.8059 338.297V338.486C74.8059 352.876 84.0219 362.765 102.427 362.765C120.832 362.765 141.42 352.876 141.42 338.486C141.42 337.92 141.393 337.354 141.312 336.815C127.892 344.118 100.837 354.492 74.8059 338.297Z" fill="#7AB1DD"/>
<path d="M95.8518 355.436C95.1242 355.436 94.3966 355.247 93.7499 354.843C81.1385 347.136 83.2943 334.713 83.3752 334.174C83.7794 331.991 85.8813 330.536 88.0909 330.94C90.2737 331.345 91.7288 333.447 91.3246 335.629C91.2707 336.007 90.2198 343.255 97.9537 347.944C99.8669 349.103 100.46 351.582 99.301 353.495C98.5465 354.762 97.2261 355.436 95.8518 355.436Z" fill="white"/>
<path d="M102.427 366.807C82.8901 366.807 70.7638 355.948 70.7638 338.486V338.27C70.8716 320.539 83.968 308.601 103.397 308.601C122.233 308.601 143.576 319.757 145.327 336.384C145.408 336.95 145.462 337.704 145.462 338.459C145.462 355.409 123.203 366.807 102.427 366.807ZM78.848 338.297V338.459C78.848 351.501 87.2286 358.696 102.427 358.696C118.919 358.696 137.378 350.046 137.378 338.459C137.378 338.108 137.378 337.731 137.324 337.381C136.165 326.44 120.024 316.658 103.424 316.658C88.576 316.685 78.9288 325.174 78.848 338.297Z" fill="#407AA5"/>
<path d="M362.388 121.452C362.388 133.578 355.759 144.168 345.896 149.989V150.016C345.735 150.097 345.6 150.177 345.438 150.258C342.69 151.794 339.699 152.98 336.546 153.788C318.707 159.124 295.02 158.423 295.02 158.423L291.597 146.971L206.363 146.674C166.4 145.004 151.283 102.75 151.283 102.75L151.363 102.723C149.288 97.9265 148.157 92.6987 148.157 87.1745C148.157 82.8899 148.857 78.767 150.124 74.9135C155.405 58.772 170.819 47.1038 189.09 47.1038C196.527 47.1038 203.453 49.071 209.462 52.4394C209.489 52.1969 209.516 51.9274 209.57 51.6849C212.426 32.3097 229.403 17.3809 249.991 17.3809C268.989 17.3809 284.941 30.127 289.549 47.2924C295.936 42.4419 303.939 39.5316 312.67 39.5316C333.581 39.5316 350.558 56.1581 350.558 76.6381C350.558 82.6474 349.076 88.3063 346.462 93.3185C356.056 99.22 362.388 109.595 362.388 121.452Z" fill="white"/>
<path d="M298.038 162.466C296.232 162.466 295.128 162.439 294.912 162.439C293.16 162.385 291.651 161.226 291.166 159.555L288.606 150.959L206.39 150.663C164.029 148.884 148.157 105.876 147.51 104.044C147.429 103.828 147.375 103.612 147.348 103.397C145.219 98.1961 144.168 92.6988 144.168 87.0938C144.168 82.4858 144.896 77.9316 146.351 73.5662C152.333 55.2689 169.526 42.9809 189.144 42.9809C195.126 42.9809 201.054 44.1666 206.579 46.4571C211.591 27.2436 229.511 13.2849 250.072 13.2849C268.584 13.2849 285.022 24.4411 291.786 40.9868C298.146 37.3489 305.314 35.4356 312.778 35.4356C335.899 35.4356 354.708 53.8946 354.708 76.5843C354.708 81.8121 353.657 87.0129 351.69 91.8634C361.041 98.9237 366.511 109.73 366.511 121.398C366.511 134.44 359.774 146.297 348.429 153.169C348.322 153.276 348.187 153.357 348.052 153.438C347.971 153.492 347.648 153.654 347.567 153.708C344.414 155.459 341.1 156.78 337.624 157.642C323.126 162.007 305.179 162.466 298.038 162.466ZM155.379 102.076C156.376 104.583 160.121 113.125 167.155 121.694C178.014 134.925 191.272 141.959 206.552 142.605L291.624 142.902C293.403 142.902 294.966 144.087 295.478 145.785L298.038 154.381C304.775 154.354 321.994 153.896 335.387 149.881C338.351 149.127 340.992 148.076 343.444 146.701C343.471 146.701 343.525 146.647 343.579 146.62C343.66 146.567 343.741 146.513 343.821 146.459C352.903 141.096 358.319 131.719 358.319 121.398C358.319 111.346 353.091 102.103 344.36 96.687C342.555 95.5822 341.935 93.2647 342.905 91.3784C345.304 86.7434 346.543 81.7582 346.543 76.5843C346.543 58.3409 331.345 43.5199 312.697 43.5199C305.152 43.5199 297.984 45.9182 292.002 50.4723C290.924 51.2807 289.523 51.5232 288.256 51.0651C286.989 50.634 286.019 49.583 285.669 48.2895C281.411 32.4445 266.752 21.3691 250.018 21.3691C231.855 21.3691 216.199 34.6272 213.612 52.1969C213.585 52.3317 213.558 52.4664 213.531 52.6011L213.504 52.8706C213.342 54.218 212.507 55.3767 211.321 55.9695C210.109 56.6163 208.68 56.5893 207.495 55.9426C201.863 52.7898 195.503 51.119 189.09 51.119C172.975 51.119 158.855 61.1704 153.977 76.1262C152.792 79.6832 152.199 83.375 152.199 87.1207C152.199 91.9443 153.169 96.6331 155.082 101.079C155.217 101.403 155.325 101.726 155.379 102.076Z" fill="#A1C4DB"/>
<path d="M221.292 28.9144C221.292 28.9144 268.719 16.1414 290.924 57.4247C290.924 57.4517 282.867 -4.31167 221.292 28.9144Z" fill="#EAF0F4"/>
<path d="M300.248 41.5797C300.248 41.5797 348.753 51.9275 336.6 105.445C336.6 105.445 381.898 39.8012 300.248 41.5797Z" fill="#EAF0F4"/>
<path d="M341.45 100.837C341.45 100.837 359.801 120.562 354.951 142.201C354.951 142.201 372.898 106.011 348.591 95.5823L341.45 100.837Z" fill="#EAF0F4"/>
<path d="M229.996 82.4588C197.039 54.1641 166.966 64.97 150.124 74.8866C155.405 58.7451 170.819 47.0769 189.09 47.0769C196.527 47.0769 203.453 49.0441 209.462 52.4125C209.489 52.17 209.516 51.9005 209.57 51.658C231.181 64.5119 229.996 82.4588 229.996 82.4588Z" fill="#EAF0F4"/>
<path d="M151.39 106.766C149.827 106.766 148.345 105.849 147.672 104.313C145.327 98.8699 144.115 93.0763 144.115 87.1209C144.115 62.7874 164.271 43.0081 189.063 43.0081C213.854 43.0081 234.011 62.7874 234.011 87.1209C234.011 89.3575 232.205 91.163 229.969 91.163C227.732 91.163 225.927 89.3575 225.927 87.1209C225.927 67.2607 209.381 51.0923 189.063 51.0923C168.744 51.0923 152.199 67.2607 152.199 87.1209C152.199 91.9714 153.169 96.6872 155.082 101.107C155.971 103.155 155.028 105.526 152.98 106.415C152.468 106.658 151.929 106.766 151.39 106.766Z" fill="#A1C4DB"/>
<path d="M289.199 73.0543C288.795 73.0543 288.418 73.0004 288.013 72.8656C285.885 72.2189 284.672 69.9553 285.319 67.8265C286.343 64.4581 286.882 60.9549 286.882 57.4248C286.882 54.2989 286.477 51.2269 285.696 48.2896C285.588 47.8585 285.453 47.4273 285.292 46.9962C284.941 45.8374 284.645 44.9751 284.268 44.1667C284.214 44.0858 284.187 43.9781 284.16 43.8703C284.025 43.52 283.891 43.1966 283.729 42.8463C283.675 42.7385 283.648 42.6576 283.594 42.5498C283.459 42.1995 283.271 41.8492 283.082 41.5258C282.328 40.0168 281.627 38.8042 280.792 37.5915C280.226 36.7562 279.66 36.0016 279.067 35.2471C279.013 35.1663 278.959 35.1124 278.905 35.0315C278.717 34.789 278.555 34.5465 278.312 34.304C278.205 34.1962 278.124 34.1153 278.043 34.0075C277.504 33.3608 276.884 32.6871 276.13 31.9595C275.725 31.5553 275.375 31.232 275.025 30.9086C274.701 30.6122 274.351 30.3157 274.028 30.0463C272.788 28.9953 271.603 28.133 270.228 27.2707C269.474 26.7587 268.827 26.3545 268.153 26.0042C267.533 25.6538 267.075 25.4113 266.59 25.1957C266.051 24.9263 265.62 24.7376 265.189 24.549C265.108 24.5221 265 24.4682 264.92 24.4143C264.596 24.2526 264.273 24.1178 263.896 23.9831C263.815 23.9562 263.734 23.9292 263.626 23.8753C263.249 23.7136 262.872 23.552 262.494 23.4442C262.413 23.4172 262.306 23.3903 262.225 23.3633C260.231 22.6627 258.237 22.1507 256.108 21.8273C255.623 21.7195 255.353 21.6926 255.111 21.6926C253.871 21.5309 252.901 21.4501 251.904 21.3962C251.23 21.3692 250.611 21.3423 250.018 21.3423C237.541 21.3423 225.981 27.4593 219.109 37.6993C218.516 38.5886 217.977 39.5048 217.465 40.4749C216.899 41.4989 216.441 42.4421 216.091 43.3044C214.744 46.4033 213.881 49.5831 213.45 52.7898C213.208 54.8109 211.51 56.3738 209.435 56.3738C207.198 56.3738 205.393 54.5684 205.393 52.3587C205.393 52.1701 205.393 51.9814 205.42 51.7928C205.932 47.8315 207.01 43.9242 208.627 40.2054C209.058 39.1006 209.677 37.861 210.378 36.5945C210.998 35.4627 211.645 34.3309 212.399 33.2261C220.78 20.7225 234.846 13.2581 250.018 13.2581C250.745 13.2581 251.473 13.285 252.227 13.312C253.575 13.3928 254.787 13.4736 255.973 13.6623C256.323 13.6892 256.97 13.7701 257.563 13.9048C259.88 14.2551 262.387 14.8749 264.812 15.7372C265.459 15.9258 266.051 16.1684 266.671 16.4109C267.129 16.5726 267.776 16.8151 268.369 17.1115C268.935 17.3541 269.501 17.6235 270.013 17.8661C270.605 18.1355 271.279 18.4858 271.98 18.8901C272.734 19.2673 273.651 19.8332 274.594 20.48C276.157 21.4501 277.72 22.5818 279.121 23.7945C279.498 24.0909 280.01 24.5221 280.468 24.9532C280.899 25.3574 281.331 25.7616 281.762 26.1928C282.651 27.0551 283.459 27.8905 284.16 28.7528C284.591 29.184 284.968 29.669 285.4 30.2349C286.181 31.1781 286.855 32.1212 287.501 33.0644C288.525 34.5465 289.442 36.1094 290.25 37.7802C290.493 38.1844 290.762 38.7503 291.032 39.3701C291.301 39.909 291.544 40.4749 291.759 41.0408C292.244 42.1456 292.648 43.3044 292.999 44.544C293.133 44.9212 293.322 45.5141 293.484 46.1608C294.481 49.7987 294.966 53.5983 294.966 57.4248C294.966 61.7633 294.319 66.048 293.053 70.1978C292.514 71.9494 290.924 73.0543 289.199 73.0543Z" fill="#A1C4DB"/>
<path d="M323.368 116.305C321.617 116.305 320 115.146 319.488 113.367C318.868 111.212 320.135 108.975 322.264 108.382C331.21 105.822 338.755 99.6782 342.959 91.5132C343.848 89.7616 344.576 88.01 345.061 86.3123C346.031 83.1595 346.543 79.9258 346.543 76.6652C346.543 58.4218 331.345 43.6008 312.697 43.6008C310.299 43.6008 307.847 43.8702 305.421 44.3553C305.017 44.4361 304.667 44.5439 304.29 44.6248C303.643 44.7864 303.185 44.8942 302.7 45.0559C302.565 45.1098 302.43 45.1368 302.296 45.1637C302.134 45.1906 301.972 45.2445 301.811 45.3254C301.703 45.3523 301.622 45.4062 301.514 45.4332C299.843 45.9721 298.173 46.6997 296.583 47.562C296.475 47.6159 296.34 47.6698 296.232 47.7237C295.559 48.074 294.912 48.4782 294.265 48.9094C293.403 49.4483 292.729 49.9334 292.056 50.4454C291.786 50.661 291.49 50.8226 291.193 50.9574C290.708 51.173 290.142 51.3077 289.576 51.3077C287.34 51.3077 285.534 49.5022 285.534 47.2925C285.534 45.8643 286.262 44.5978 287.367 43.8702C288.094 43.3043 288.957 42.6845 289.927 42.0917C290.789 41.4989 291.759 40.933 292.702 40.4479C292.783 40.421 292.837 40.3671 292.918 40.3401C294.831 39.3161 296.825 38.4538 298.846 37.7801C299.304 37.5915 299.763 37.4568 300.221 37.322C300.894 37.1064 301.568 36.9178 302.269 36.7561C302.727 36.6483 303.239 36.4866 303.778 36.3789C306.688 35.7591 309.706 35.4626 312.67 35.4626C335.791 35.4626 354.6 53.9216 354.6 76.6113C354.6 80.7073 353.981 84.7494 352.768 88.6029C352.148 90.7317 351.232 92.9683 350.1 95.1511C344.872 105.31 335.522 112.936 324.419 116.116C324.096 116.251 323.719 116.305 323.368 116.305Z" fill="#A1C4DB"/>
<path d="M362.388 125.494C360.152 125.494 358.346 123.688 358.346 121.452C358.346 111.373 353.145 102.13 344.414 96.714C342.528 95.5283 341.935 93.0492 343.094 91.1628C344.28 89.2765 346.759 88.6837 348.672 89.8424C359.801 96.7409 366.43 108.544 366.43 121.452C366.43 123.688 364.625 125.494 362.388 125.494Z" fill="#A1C4DB"/>
<path d="M297.203 158.423C304.397 157.103 307.631 152.738 309.086 149.1C310.38 145.839 310.541 142.228 309.787 138.806C307.038 126.599 294.077 124.928 294.077 124.928C280.253 106.28 256.485 117.221 256.485 117.221C225.63 106.765 203.237 122.53 203.237 122.53C192.97 128.458 205.339 135.707 205.339 135.707L297.203 158.423Z" fill="#EAF0F4"/>
<path d="M257.752 95.5823C257.752 95.5823 258.695 111.185 253.197 127.03L257.752 95.5823Z" fill="white"/>
<path d="M253.197 131.072C252.766 131.072 252.308 130.991 251.877 130.856C249.775 130.129 248.643 127.811 249.371 125.709C254.518 110.888 253.709 95.9865 253.709 95.8248C253.575 93.5882 255.272 91.6749 257.509 91.5402C259.746 91.4055 261.659 93.1032 261.794 95.3398C261.821 96.0135 262.71 111.939 257.024 128.35C256.431 130.021 254.868 131.072 253.197 131.072Z" fill="#A1C4DB"/>
<path d="M300.948 118.11C300.948 118.11 292.918 130.318 287.151 131.773L300.948 118.11Z" fill="white"/>
<path d="M287.151 135.815C285.346 135.815 283.702 134.602 283.244 132.77C282.705 130.614 283.998 128.404 286.154 127.865C288.687 127.218 294.104 121.155 297.553 115.901C298.792 114.041 301.272 113.529 303.158 114.742C305.017 115.981 305.529 118.461 304.317 120.347C302.835 122.61 295.074 133.955 288.148 135.707C287.825 135.761 287.475 135.815 287.151 135.815Z" fill="#A1C4DB"/>
<path d="M201.405 112.101C201.405 112.101 205.716 127.946 213.181 132.958L201.405 112.101Z" fill="white"/>
<path d="M213.181 137C212.399 137 211.618 136.785 210.944 136.327C202.483 130.641 198.009 114.958 197.524 113.179C196.931 111.023 198.198 108.814 200.354 108.221C202.509 107.628 204.719 108.894 205.312 111.05C206.848 116.628 210.944 126.599 215.444 129.617C217.304 130.856 217.789 133.363 216.549 135.222C215.768 136.381 214.501 137 213.181 137Z" fill="#A1C4DB"/>
<path d="M298.038 162.466C296.232 162.466 295.128 162.439 294.912 162.439C293.16 162.385 291.651 161.226 291.166 159.555L288.606 150.959L206.39 150.663C164.029 148.884 148.157 105.876 147.51 104.044C147.429 103.828 147.375 103.612 147.348 103.397C145.219 98.1961 144.168 92.6988 144.168 87.0938C144.168 82.4858 144.896 77.9316 146.351 73.5662C152.333 55.2689 169.526 42.9809 189.144 42.9809C195.126 42.9809 201.054 44.1666 206.579 46.4571C211.591 27.2436 229.511 13.2849 250.072 13.2849C268.584 13.2849 285.022 24.4411 291.786 40.9868C298.146 37.3489 305.314 35.4356 312.778 35.4356C335.899 35.4356 354.708 53.8946 354.708 76.5843C354.708 81.8121 353.657 87.0129 351.69 91.8634C361.041 98.9237 366.511 109.73 366.511 121.398C366.511 134.44 359.774 146.297 348.429 153.169C348.322 153.276 348.187 153.357 348.052 153.438C347.971 153.492 347.648 153.654 347.567 153.708C344.414 155.459 341.1 156.78 337.624 157.642C323.126 162.007 305.179 162.466 298.038 162.466ZM155.379 102.076C156.376 104.583 160.121 113.125 167.155 121.694C178.014 134.925 191.272 141.959 206.552 142.605L291.624 142.902C293.403 142.902 294.966 144.087 295.478 145.785L298.038 154.381C304.775 154.354 321.994 153.896 335.387 149.881C338.351 149.127 340.992 148.076 343.444 146.701C343.471 146.701 343.525 146.647 343.579 146.62C343.66 146.567 343.741 146.513 343.821 146.459C352.903 141.096 358.319 131.719 358.319 121.398C358.319 111.346 353.091 102.103 344.36 96.687C342.555 95.5822 341.935 93.2647 342.905 91.3784C345.304 86.7434 346.543 81.7582 346.543 76.5843C346.543 58.3409 331.345 43.5199 312.697 43.5199C305.152 43.5199 297.984 45.9182 292.002 50.4723C290.924 51.2807 289.523 51.5232 288.256 51.0651C286.989 50.634 286.019 49.583 285.669 48.2895C281.411 32.4445 266.752 21.3691 250.018 21.3691C231.855 21.3691 216.199 34.6272 213.612 52.1969C213.585 52.3317 213.558 52.4664 213.531 52.6011L213.504 52.8706C213.342 54.218 212.507 55.3767 211.321 55.9695C210.109 56.6163 208.68 56.5893 207.495 55.9426C201.863 52.7898 195.503 51.119 189.09 51.119C172.975 51.119 158.855 61.1704 153.977 76.1262C152.792 79.6832 152.199 83.375 152.199 87.1207C152.199 91.9443 153.169 96.6331 155.082 101.079C155.217 101.403 155.325 101.726 155.379 102.076Z" fill="#A1C4DB"/>
<path d="M299.089 135.707L291.247 189.844C271.306 180.628 248.886 178.85 227.975 184.482C227.948 184.509 227.921 184.509 227.921 184.509C222.909 185.856 218.004 187.608 213.234 189.817L213.208 189.844L205.312 135.707H205.366C206.713 135.195 208.034 134.71 209.408 134.225C209.408 134.225 209.408 134.225 209.435 134.225C238.511 124.147 270.282 124.632 299.089 135.707Z" fill="white"/>
<path d="M291.247 193.886C290.681 193.886 290.088 193.752 289.549 193.509C270.713 184.805 249.29 182.973 229.214 188.308C229.133 188.335 229.026 188.362 228.945 188.389C224.121 189.683 219.459 191.353 215.04 193.401C214.097 193.886 212.992 193.967 211.941 193.644C210.486 193.159 209.408 191.919 209.192 190.41L201.297 136.246C201.135 135.087 201.459 133.901 202.24 133.012C202.779 132.392 203.48 131.961 204.234 131.746C205.474 131.261 206.74 130.803 208.007 130.344C208.115 130.317 208.222 130.264 208.33 130.237C238.269 119.943 270.983 120.509 300.517 131.853C302.269 132.527 303.347 134.333 303.077 136.219L295.235 190.383C295.047 191.65 294.292 192.755 293.16 193.347C292.568 193.725 291.894 193.886 291.247 193.886ZM252.173 177.233C264.381 177.233 276.561 179.523 287.987 184.051L294.616 138.348C267.587 128.755 237.945 128.62 210.755 138.024C210.675 138.051 210.594 138.078 210.513 138.105C210.27 138.186 210.028 138.267 209.785 138.375L216.441 184.051C219.729 182.757 223.151 181.625 226.6 180.682C226.708 180.655 226.816 180.601 226.924 180.574C235.197 178.338 243.712 177.233 252.173 177.233Z" fill="#A1C4DB"/>
<path d="M299.089 135.707L291.247 189.844C271.306 180.628 248.886 178.85 227.975 184.482C229.322 183.565 250.826 169.256 265.809 169.014C281.277 168.798 283.352 157.696 283.567 146.863C283.81 136.192 211.402 134.279 209.435 134.225C238.511 124.147 270.282 124.632 299.089 135.707Z" fill="#EAF0F4"/>
<path d="M292.918 178.257C291.301 178.23 274.001 165.618 241.098 171.762L292.918 178.257Z" fill="white"/>
<path d="M292.918 182.299C292.891 182.299 292.891 182.299 292.864 182.299C291.705 182.272 290.816 181.841 289.226 181.059C284.052 178.526 268.261 170.792 241.853 175.751C239.643 176.182 237.541 174.727 237.137 172.517C236.733 170.334 238.161 168.205 240.371 167.801C269.42 162.358 287.016 170.981 292.783 173.81C293.241 174.026 293.592 174.215 293.834 174.322C295.64 174.754 296.987 176.37 296.96 178.311C296.933 180.547 295.128 182.299 292.918 182.299Z" fill="#A1C4DB"/>
<path d="M207.225 148.669C207.225 148.669 223.987 141.096 256.485 142.309L207.225 148.669Z" fill="white"/>
<path d="M207.225 152.711C205.689 152.711 204.207 151.821 203.533 150.312C202.617 148.291 203.533 145.893 205.555 144.977C206.282 144.653 223.528 137.027 256.647 138.267C258.883 138.348 260.608 140.234 260.527 142.471C260.446 144.707 258.533 146.432 256.35 146.351C225.388 145.192 209.058 152.28 208.896 152.36C208.33 152.603 207.764 152.711 207.225 152.711Z" fill="#A1C4DB"/>
<path d="M291.247 193.886C290.681 193.886 290.088 193.752 289.549 193.509C270.713 184.805 249.29 182.973 229.214 188.308C229.133 188.335 229.026 188.362 228.945 188.389C224.121 189.683 219.459 191.353 215.04 193.401C214.097 193.886 212.992 193.967 211.941 193.644C210.486 193.159 209.408 191.919 209.192 190.41L201.297 136.246C201.135 135.087 201.459 133.901 202.24 133.012C202.779 132.392 203.48 131.961 204.234 131.746C205.474 131.261 206.74 130.803 208.007 130.344C208.115 130.317 208.222 130.264 208.33 130.237C238.269 119.943 270.983 120.509 300.517 131.853C302.269 132.527 303.347 134.333 303.077 136.219L295.235 190.383C295.047 191.65 294.292 192.755 293.16 193.347C292.568 193.725 291.894 193.886 291.247 193.886ZM252.173 177.233C264.381 177.233 276.561 179.523 287.987 184.051L294.616 138.348C267.587 128.755 237.945 128.62 210.755 138.024C210.675 138.051 210.594 138.078 210.513 138.105C210.27 138.186 210.028 138.267 209.785 138.375L216.441 184.051C219.729 182.757 223.151 181.625 226.6 180.682C226.708 180.655 226.816 180.601 226.924 180.574C235.197 178.338 243.712 177.233 252.173 177.233Z" fill="#A1C4DB"/>
</g>
</svg>
