<svg width="513" height="513" viewBox="0 0 513 513" fill="none" xmlns="http://www.w3.org/2000/svg">
<mask id="mask0_228_90" style="mask-type:alpha" maskUnits="userSpaceOnUse" x="0" y="0" width="513" height="513">
<path d="M256.625 512.683C398.01 512.683 512.625 398.068 512.625 256.683C512.625 115.298 398.01 0.682831 256.625 0.682831C115.24 0.682831 0.625244 115.298 0.625244 256.683C0.625244 398.068 115.24 512.683 256.625 512.683Z" fill="#FFF6CF"/>
</mask>
<g mask="url(#mask0_228_90)">
<path d="M256.625 512.683C398.01 512.683 512.625 398.068 512.625 256.683C512.625 115.298 398.01 0.682831 256.625 0.682831C115.24 0.682831 0.625244 115.298 0.625244 256.683C0.625244 398.068 115.24 512.683 256.625 512.683Z" fill="#FFF6CF"/>
<path d="M369.104 343.561C369.104 423.137 318.254 487.676 255.574 487.676C192.868 487.676 142.045 423.137 142.045 343.561C142.045 331.462 143.231 319.686 145.467 308.449C157.809 245.796 202.434 199.447 255.601 199.447C308.202 199.447 352.423 244.799 365.331 306.428C367.81 318.285 369.104 330.734 369.104 343.561Z" fill="#FFE180"/>
<path d="M369.104 343.561C369.104 423.137 318.254 487.676 255.574 487.676C192.868 487.676 142.045 423.137 142.045 343.561C142.045 331.462 143.231 319.686 145.467 308.449C172.253 322.057 210.734 330.573 253.499 330.573C298.313 330.573 338.437 321.222 365.331 306.428C367.81 318.285 369.104 330.734 369.104 343.561Z" fill="#F9D369"/>
<path d="M314.185 317.988C314.185 329.495 307.044 336.77 298.232 336.77C289.42 336.77 282.279 329.522 282.279 317.988C282.279 306.482 286.456 295.056 295.268 295.056C304.08 295.056 314.185 306.482 314.185 317.988Z" fill="#B0871E"/>
<path d="M301.762 309.122C304.426 309.122 306.586 306.963 306.586 304.299C306.586 301.635 304.426 299.475 301.762 299.475C299.098 299.475 296.938 301.635 296.938 304.299C296.938 306.963 299.098 309.122 301.762 309.122Z" fill="white"/>
<path d="M294.625 332.046C298.754 331.607 301.557 326.129 300.885 319.809C300.213 313.49 296.322 308.723 292.193 309.162C288.064 309.601 285.261 315.079 285.933 321.399C286.604 327.718 290.496 332.485 294.625 332.046Z" fill="white"/>
<path d="M317.338 281.879C316.044 281.879 314.751 281.259 313.969 280.1C313.619 279.561 305.023 267.085 291.522 269.321C289.339 269.671 287.237 268.189 286.86 266.007C286.483 263.797 287.992 261.722 290.175 261.345C308.391 258.3 319.44 273.794 320.652 275.6C321.892 277.459 321.407 279.965 319.547 281.205C318.901 281.663 318.119 281.879 317.338 281.879Z" fill="white"/>
<path d="M195.482 317.988C195.482 329.495 202.623 336.77 211.435 336.77C220.246 336.77 227.387 329.522 227.387 317.988C227.387 306.482 223.211 295.056 214.399 295.056C205.587 295.056 195.482 306.482 195.482 317.988Z" fill="#B0871E"/>
<path d="M207.904 309.122C210.568 309.122 212.728 306.963 212.728 304.299C212.728 301.635 210.568 299.475 207.904 299.475C205.24 299.475 203.081 301.635 203.081 304.299C203.081 306.963 205.24 309.122 207.904 309.122Z" fill="white"/>
<path d="M223.718 321.408C224.389 315.088 221.587 309.61 217.458 309.171C213.329 308.732 209.437 313.499 208.765 319.818C208.094 326.138 210.896 331.616 215.025 332.055C219.154 332.494 223.046 327.727 223.718 321.408Z" fill="white"/>
<path d="M192.329 281.879C191.574 281.879 190.793 281.663 190.092 281.205C188.233 279.965 187.721 277.459 188.96 275.6C189.446 274.899 200.736 258.219 219.438 261.345C221.648 261.722 223.13 263.797 222.752 266.007C222.375 268.216 220.3 269.698 218.091 269.321C204.482 267.058 196.021 279.534 195.67 280.073C194.916 281.232 193.649 281.879 192.329 281.879Z" fill="white"/>
<path d="M255.574 491.718C190.739 491.718 138.003 425.266 138.003 343.561C138.003 331.408 139.189 319.335 141.506 307.667C154.522 241.565 201.437 195.405 255.601 195.405C308.957 195.405 355.684 240.73 369.265 305.592C371.852 317.88 373.173 330.653 373.173 343.561C373.146 425.266 320.41 491.718 255.574 491.718ZM255.574 203.489C205.344 203.489 161.69 246.982 149.402 309.23C147.192 320.386 146.06 331.947 146.06 343.561C146.06 420.792 195.185 483.634 255.547 483.634C315.909 483.634 365.035 420.792 365.035 343.561C365.035 331.219 363.768 319.012 361.316 307.263C348.543 246.173 305.05 203.489 255.574 203.489Z" fill="#BD8A09"/>
<path d="M453.583 397.186H59.3975V536.989H453.583V397.186Z" fill="#F9C0D3"/>
<path d="M453.611 397.186V466.603C409.632 455.447 337.791 448.171 256.625 448.171C175.325 448.171 103.376 455.474 59.4244 466.684V397.186H453.611Z" fill="#EFACC6"/>
<path d="M472.905 341.837H40.3457V424.107H472.905V341.837Z" fill="#F9C0D3"/>
<path d="M472.905 428.176H313.511C311.275 428.176 309.469 426.37 309.469 424.134C309.469 421.897 311.275 420.092 313.511 420.092H468.863V345.879H44.3878V420.065H141.479C143.716 420.065 145.521 421.87 145.521 424.107C145.521 426.343 143.716 428.149 141.479 428.149H40.3457C38.1091 428.149 36.3036 426.343 36.3036 424.107V341.836C36.3036 339.6 38.1091 337.794 40.3457 337.794H472.905C475.141 337.794 476.947 339.6 476.947 341.836V424.107C476.947 426.343 475.141 428.176 472.905 428.176Z" fill="#EA86AE"/>
<path d="M453.584 541.031H59.3975C57.1608 541.031 55.3553 539.226 55.3553 536.989V424.134C55.3553 421.897 57.1608 420.092 59.3975 420.092C61.6341 420.092 63.4396 421.897 63.4396 424.134V532.947H449.542V424.134C449.542 421.897 451.347 420.092 453.584 420.092C455.82 420.092 457.626 421.897 457.626 424.134V536.989C457.626 539.199 455.82 541.031 453.584 541.031Z" fill="#EA86AE"/>
<path d="M435.718 338.98V339.169C435.718 353.559 426.502 363.448 408.096 363.448C389.691 363.448 369.104 353.559 369.104 339.169C369.104 338.603 369.131 338.037 369.211 337.498C370.64 323.89 389.449 313.326 407.126 313.326C425.451 313.326 435.637 324.644 435.718 338.98Z" fill="#FFE180"/>
<path d="M435.718 338.98V339.169C435.718 353.559 426.502 363.448 408.096 363.448C389.691 363.448 369.104 353.559 369.104 339.169C369.104 338.603 369.131 338.037 369.211 337.498C382.631 344.801 409.686 355.175 435.718 338.98Z" fill="#F9D369"/>
<path d="M414.672 356.119C413.297 356.119 411.977 355.418 411.222 354.178C410.064 352.265 410.656 349.786 412.57 348.627C420.331 343.911 419.226 336.609 419.199 336.312C418.848 334.13 420.304 332.028 422.486 331.65C424.696 331.273 426.744 332.701 427.148 334.857C427.256 335.396 429.412 347.819 416.773 355.526C416.1 355.93 415.372 356.119 414.672 356.119Z" fill="white"/>
<path d="M408.096 367.49C387.32 367.49 365.062 356.119 365.062 339.169C365.062 338.387 365.115 337.633 365.223 336.905C366.948 320.467 388.29 309.311 407.126 309.311C426.528 309.311 439.652 321.222 439.76 338.98V339.196C439.76 356.631 427.633 367.49 408.096 367.49ZM407.126 317.368C390.527 317.368 374.358 327.15 373.227 337.929C373.146 338.468 373.146 338.818 373.146 339.169C373.146 350.756 391.605 359.406 408.096 359.406C423.295 359.406 431.675 352.211 431.675 339.169L435.718 338.98L431.675 339.007C431.595 325.857 421.974 317.368 407.126 317.368Z" fill="#BD8A09"/>
<path d="M75.4312 338.98V339.169C75.4312 353.559 84.6471 363.448 103.052 363.448C121.457 363.448 142.045 353.559 142.045 339.169C142.045 338.603 142.018 338.037 141.937 337.498C140.509 323.89 121.7 313.326 104.022 313.326C85.6981 313.326 75.512 324.644 75.4312 338.98Z" fill="#FFE180"/>
<path d="M75.4312 338.98V339.169C75.4312 353.559 84.6471 363.448 103.052 363.448C121.457 363.448 142.045 353.559 142.045 339.169C142.045 338.603 142.018 338.037 141.937 337.498C128.517 344.801 101.462 355.175 75.4312 338.98Z" fill="#F9D369"/>
<path d="M96.477 356.119C95.7494 356.119 95.0218 355.93 94.3751 355.526C81.7637 347.819 83.9195 335.396 84.0004 334.857C84.4046 332.674 86.5065 331.219 88.7161 331.623C90.8989 332.028 92.354 334.13 91.9498 336.312C91.8959 336.69 90.845 343.938 98.5789 348.627C100.492 349.786 101.085 352.265 99.9262 354.178C99.1717 355.445 97.8513 356.119 96.477 356.119Z" fill="white"/>
<path d="M103.052 367.49C83.5153 367.49 71.389 356.631 71.389 339.169V338.953C71.4968 321.222 84.5932 309.284 104.022 309.284C122.859 309.284 144.201 320.44 145.952 337.067C146.033 337.633 146.087 338.387 146.087 339.142C146.087 356.092 123.829 367.49 103.052 367.49ZM79.4732 338.98V339.142C79.4732 352.184 87.8539 359.379 103.052 359.379C119.544 359.379 138.003 350.729 138.003 339.142C138.003 338.791 138.003 338.414 137.949 338.064C136.79 327.123 120.649 317.341 104.049 317.341C89.2013 317.368 79.5541 325.857 79.4732 338.98Z" fill="#BD8A09"/>
<path d="M322.539 114.724V101.277C322.539 97.7203 319.655 94.8639 316.125 94.8639C313.376 94.8639 310.897 93.1123 310.035 90.4715C309.146 87.7498 308.068 85.1359 306.774 82.6298C305.508 80.1506 306.02 77.1595 307.96 75.2193C310.466 72.7132 310.466 68.6441 307.96 66.138L298.448 56.6256C295.941 54.1195 291.872 54.1195 289.366 56.6256C287.426 58.5658 284.462 59.1047 282.01 57.8651C279.45 56.5717 276.809 55.4668 274.033 54.5506C271.446 53.7153 269.722 51.2091 269.722 48.4875C269.722 44.9304 266.838 42.074 263.308 42.074H249.861C246.304 42.074 243.448 44.9574 243.448 48.4875C243.448 51.2091 241.723 53.7153 239.136 54.5506C236.388 55.4399 233.72 56.5447 231.16 57.8651C228.708 59.1047 225.744 58.5658 223.803 56.6256C221.297 54.1195 217.228 54.1195 214.722 56.6256L205.21 66.138C202.704 68.6441 202.704 72.7132 205.21 75.2193C207.177 77.1864 207.662 80.1506 206.395 82.6298C205.129 85.1359 204.024 87.7498 203.162 90.4715C202.299 93.0854 199.847 94.8639 197.072 94.8639C193.515 94.8639 190.658 97.7473 190.658 101.277V114.724C190.658 118.281 193.541 121.138 197.072 121.138C199.82 121.138 202.299 122.889 203.162 125.53C204.051 128.252 205.129 130.866 206.395 133.372C207.635 135.824 207.15 138.815 205.21 140.782C202.704 143.288 202.704 147.357 205.21 149.863L214.722 159.376C217.228 161.882 221.297 161.882 223.803 159.376C225.744 157.436 228.708 156.897 231.16 158.136C233.72 159.43 236.361 160.535 239.136 161.451C241.723 162.286 243.448 164.792 243.448 167.514C243.448 171.071 246.331 173.927 249.861 173.927H263.308C266.865 173.927 269.722 171.044 269.722 167.514C269.722 164.792 271.446 162.286 274.033 161.451C276.782 160.562 279.45 159.457 282.01 158.136C284.462 156.897 287.426 157.436 289.366 159.376C291.872 161.882 295.941 161.882 298.448 159.376L307.96 149.863C310.466 147.357 310.466 143.288 307.96 140.782C305.993 138.815 305.508 135.824 306.774 133.372C308.041 130.866 309.146 128.252 310.035 125.53C310.897 122.916 313.349 121.138 316.125 121.138C319.655 121.138 322.539 118.281 322.539 114.724ZM269.776 138.034C269.371 138.222 268.994 138.384 268.563 138.519C264.871 139.974 260.829 140.782 256.625 140.782C252.395 140.782 248.379 140.001 244.661 138.519C244.256 138.384 243.852 138.195 243.475 138.034C235.93 134.746 229.867 128.683 226.552 121.138C226.363 120.733 226.229 120.356 226.067 119.952C224.612 116.26 223.803 112.218 223.803 107.987C223.803 103.783 224.585 99.7414 226.067 96.0226C226.229 95.6184 226.39 95.2411 226.552 94.8369C229.84 87.2917 235.903 81.2285 243.475 77.9409C243.852 77.7523 244.256 77.5906 244.661 77.4559C248.352 76.0007 252.395 75.1923 256.625 75.1923C260.829 75.1923 264.871 75.9738 268.563 77.4559C268.967 77.5906 269.371 77.7793 269.776 77.9409C277.321 81.2285 283.384 87.2917 286.672 94.8369C286.86 95.2411 287.022 95.6184 287.157 96.0226C288.612 99.7144 289.42 103.757 289.42 107.987C289.42 112.191 288.639 116.233 287.157 119.952C287.022 120.356 286.833 120.733 286.672 121.138C283.384 128.683 277.321 134.746 269.776 138.034Z" fill="#DDBDF4"/>
<path d="M263.362 177.97H249.888C244.122 177.97 239.433 173.281 239.433 167.514C239.433 166.49 238.813 165.574 237.897 165.277C234.96 164.334 232.076 163.122 229.355 161.747C228.519 161.316 227.414 161.505 226.687 162.232C222.618 166.301 215.962 166.301 211.893 162.232L202.38 152.72C200.413 150.753 199.308 148.112 199.308 145.309C199.308 142.507 200.386 139.893 202.38 137.899C203.108 137.171 203.296 136.066 202.838 135.177C201.464 132.482 200.305 129.653 199.362 126.77C199.039 125.826 198.149 125.18 197.125 125.18C191.359 125.18 186.67 120.491 186.67 114.724V101.277C186.67 95.5106 191.359 90.8218 197.125 90.8218C198.149 90.8218 199.066 90.175 199.362 89.2319C200.305 86.3485 201.464 83.519 202.838 80.8243C203.296 79.935 203.108 78.8302 202.38 78.1026C200.413 76.1355 199.308 73.4946 199.308 70.6921C199.308 67.8896 200.386 65.2757 202.38 63.2816L211.893 53.7692C215.962 49.7001 222.618 49.7001 226.687 53.7692C227.414 54.4967 228.492 54.6854 229.355 54.2542C232.103 52.8529 234.96 51.6673 237.897 50.7241C238.786 50.4277 239.433 49.5115 239.433 48.5144C239.433 42.7477 244.122 38.0588 249.888 38.0588H263.335C269.102 38.0588 273.791 42.7477 273.791 48.5144C273.791 49.5384 274.411 50.4546 275.327 50.751C278.264 51.7212 281.147 52.9068 283.869 54.3081C284.704 54.7393 285.809 54.5506 286.537 53.823C290.471 49.8618 297.37 49.8618 301.331 53.823L310.843 63.3355C312.811 65.3026 313.915 67.9435 313.915 70.746C313.915 73.5485 312.838 76.1624 310.843 78.1565C310.116 78.8841 309.927 79.9889 310.385 80.8782C311.76 83.5729 312.945 86.4024 313.861 89.2858C314.185 90.2289 315.074 90.8757 316.098 90.8757C321.865 90.8757 326.554 95.5645 326.554 101.331V114.778C326.554 120.545 321.865 125.234 316.098 125.234C315.074 125.234 314.158 125.88 313.861 126.823C312.918 129.707 311.76 132.536 310.385 135.231C309.927 136.12 310.116 137.225 310.843 137.953C312.811 139.92 313.915 142.561 313.915 145.363C313.915 148.166 312.838 150.78 310.843 152.774L301.331 162.286C297.37 166.247 290.471 166.247 286.537 162.286C285.809 161.559 284.731 161.37 283.869 161.801C281.12 163.202 278.264 164.388 275.327 165.358C274.438 165.655 273.791 166.571 273.791 167.568C273.818 173.254 269.129 177.97 263.362 177.97ZM228.384 153.421C229.974 153.421 231.564 153.798 233.019 154.525C235.391 155.738 237.87 156.762 240.403 157.597C244.661 158.972 247.517 162.96 247.517 167.514C247.517 168.834 248.595 169.885 249.888 169.885H263.335C264.656 169.885 265.707 168.807 265.707 167.514C265.707 162.96 268.563 158.999 272.821 157.597C275.354 156.762 277.86 155.738 280.204 154.525C284.192 152.504 289.043 153.286 292.25 156.493C293.139 157.382 294.702 157.382 295.618 156.493L305.131 147.007C305.589 146.549 305.831 145.956 305.831 145.336C305.831 144.69 305.589 144.097 305.131 143.666C301.924 140.459 301.142 135.581 303.19 131.566C304.376 129.222 305.4 126.797 306.208 124.317C307.61 120.033 311.598 117.149 316.125 117.149C317.445 117.149 318.496 116.071 318.496 114.778V101.331C318.496 100.011 317.419 98.9599 316.125 98.9599C311.598 98.9599 307.61 96.0765 306.208 91.7919C305.4 89.3127 304.376 86.8605 303.19 84.543C301.142 80.5009 301.924 75.6504 305.131 72.4437C305.589 71.9856 305.831 71.3927 305.831 70.7729C305.831 70.1262 305.589 69.5334 305.131 69.1022L295.618 59.5898C294.729 58.7005 293.139 58.7005 292.25 59.5898C289.043 62.7965 284.192 63.6049 280.204 61.5569C277.833 60.3443 275.354 59.3203 272.821 58.4849C268.563 57.1106 265.707 53.1224 265.707 48.5683C265.707 47.2479 264.629 46.1969 263.335 46.1969H249.888C248.568 46.1969 247.517 47.2748 247.517 48.5683C247.517 53.1224 244.661 57.0837 240.403 58.4849C237.87 59.3203 235.391 60.3443 233.019 61.5569C229.031 63.578 224.181 62.7965 220.974 59.5898C220.058 58.6736 218.549 58.6466 217.605 59.5898L208.12 68.9944C207.662 69.4525 207.419 70.0454 207.419 70.6651C207.419 71.3119 207.662 71.9047 208.12 72.3359C211.327 75.5426 212.108 80.4201 210.06 84.4353C208.875 86.7797 207.851 89.2049 207.042 91.6841C205.641 95.9687 201.653 98.8521 197.125 98.8521C195.805 98.8521 194.754 99.93 194.754 101.223V114.67C194.754 115.991 195.832 117.042 197.125 117.042C201.653 117.042 205.641 119.925 207.042 124.21C207.851 126.689 208.875 129.141 210.06 131.458C212.108 135.501 211.327 140.351 208.12 143.558C207.662 144.016 207.419 144.609 207.419 145.255C207.419 145.902 207.662 146.495 208.12 146.926L217.632 156.439C218.549 157.355 220.058 157.355 221.001 156.439C223.022 154.471 225.69 153.421 228.384 153.421ZM256.625 144.824C251.963 144.824 247.436 143.962 243.179 142.291C242.774 142.157 242.262 141.941 241.777 141.698C233.343 138.034 226.606 131.297 222.86 122.754C222.699 122.377 222.51 121.919 222.348 121.488C220.651 117.176 219.788 112.649 219.788 107.987C219.788 103.325 220.651 98.7982 222.321 94.5405C222.51 94.0555 222.699 93.5974 222.887 93.1662C226.606 84.6778 233.343 77.9409 241.858 74.2491C242.262 74.0605 242.774 73.8449 243.313 73.6563C251.532 70.3957 261.53 70.3418 270.045 73.7102C270.422 73.8449 270.934 74.0605 271.446 74.2761C279.908 77.9679 286.645 84.7317 290.363 93.247C290.552 93.6782 290.768 94.1902 290.956 94.6753C292.6 98.8252 293.462 103.352 293.462 108.014C293.462 112.676 292.6 117.203 290.929 121.461C290.795 121.838 290.579 122.35 290.363 122.835C286.672 131.297 279.935 138.034 271.419 141.752C270.934 141.968 270.422 142.183 269.937 142.372C265.787 143.989 261.287 144.824 256.625 144.824ZM256.625 79.2614C252.987 79.2614 249.457 79.935 246.17 81.2285C245.739 81.3902 245.469 81.498 245.2 81.6327C238.463 84.57 233.181 89.8247 230.271 96.4807C230.109 96.858 229.974 97.1544 229.867 97.4778C228.519 100.846 227.872 104.376 227.872 108.014C227.872 111.652 228.546 115.182 229.84 118.47C230.001 118.847 230.109 119.17 230.244 119.467C233.181 126.177 238.436 131.431 245.092 134.342C245.442 134.503 245.739 134.638 246.008 134.719C252.88 137.441 260.452 137.387 267.054 134.773C267.485 134.611 267.781 134.477 268.078 134.369L268.132 134.342C274.788 131.431 280.043 126.177 282.953 119.521C283.115 119.17 283.249 118.874 283.357 118.551C284.704 115.155 285.378 111.625 285.378 107.987C285.378 104.349 284.704 100.819 283.411 97.5317C283.249 97.1275 283.141 96.8311 282.98 96.5077C280.069 89.8247 274.788 84.543 268.159 81.6597C267.808 81.498 267.512 81.3902 267.216 81.2824C263.766 79.9081 260.263 79.2614 256.625 79.2614Z" fill="#9062B7"/>
<path d="M407.827 153.798L409.902 146.01C410.441 143.962 409.228 141.86 407.153 141.294C405.563 140.863 404.405 139.462 404.297 137.818C404.189 136.12 403.973 134.423 403.623 132.779C403.273 131.162 404.027 129.491 405.456 128.656C407.288 127.578 407.908 125.234 406.857 123.401L402.815 116.422C401.737 114.589 399.392 113.97 397.56 115.021C396.132 115.856 394.326 115.694 393.114 114.616C391.847 113.485 390.473 112.434 388.991 111.49C387.616 110.601 386.997 108.903 387.428 107.314C387.967 105.266 386.754 103.164 384.679 102.598L376.891 100.523C374.843 99.9839 372.741 101.197 372.176 103.271C371.744 104.861 370.37 106.02 368.753 106.128C367.029 106.236 365.304 106.451 363.633 106.829C362.016 107.179 360.4 106.397 359.564 104.996C358.486 103.164 356.142 102.544 354.309 103.595L347.33 107.637C345.498 108.715 344.878 111.059 345.929 112.892C346.764 114.32 346.576 116.125 345.471 117.365C344.339 118.631 343.315 119.979 342.399 121.407C341.509 122.808 339.812 123.428 338.195 123.024C336.147 122.485 334.045 123.698 333.479 125.773L331.404 133.56C330.865 135.608 332.078 137.71 334.153 138.276C335.743 138.707 336.901 140.109 337.009 141.752C337.117 143.45 337.333 145.148 337.683 146.791C338.033 148.408 337.279 150.079 335.851 150.914C334.018 151.992 333.398 154.337 334.449 156.169L338.491 163.149C339.569 164.981 341.914 165.601 343.746 164.55C345.174 163.714 346.98 163.876 348.192 164.954C349.459 166.086 350.833 167.137 352.315 168.08C353.69 168.969 354.309 170.667 353.878 172.257C353.339 174.305 354.552 176.407 356.627 176.973L364.415 179.047C366.463 179.586 368.565 178.374 369.13 176.299C369.562 174.709 370.936 173.55 372.553 173.442C374.277 173.335 376.002 173.119 377.673 172.742C379.29 172.391 380.906 173.173 381.742 174.574C382.82 176.407 385.164 177.026 386.997 175.975L393.976 171.933C395.808 170.855 396.428 168.511 395.377 166.679C394.542 165.25 394.731 163.445 395.835 162.205C396.967 160.939 397.991 159.591 398.934 158.163C399.824 156.762 401.521 156.142 403.138 156.546C405.186 157.085 407.288 155.846 407.827 153.798ZM373.658 159.214C373.388 159.268 373.146 159.295 372.876 159.322C370.505 159.591 368.053 159.457 365.6 158.81C363.148 158.163 360.938 157.085 359.025 155.657C358.81 155.522 358.594 155.361 358.405 155.199C354.525 152.127 351.938 147.681 351.184 142.803C351.13 142.534 351.103 142.291 351.076 142.049C350.806 139.677 350.968 137.225 351.615 134.773C352.261 132.321 353.339 130.111 354.768 128.198C354.929 127.982 355.064 127.794 355.226 127.578C358.298 123.698 362.744 121.138 367.621 120.383C367.864 120.329 368.133 120.302 368.376 120.275C370.747 120.006 373.2 120.141 375.652 120.814C378.104 121.461 380.314 122.539 382.227 123.967C382.442 124.102 382.658 124.263 382.847 124.425C386.727 127.497 389.287 131.943 390.042 136.821C390.096 137.09 390.123 137.333 390.149 137.575C390.419 139.947 390.257 142.399 389.611 144.851C388.964 147.303 387.886 149.513 386.458 151.426C386.323 151.642 386.161 151.831 386 152.046C382.981 155.873 378.535 158.46 373.658 159.214Z" fill="#DDBDF4"/>
<path d="M365.439 183.197C364.765 183.197 364.064 183.117 363.391 182.928L355.603 180.853C351.453 179.748 348.947 175.49 349.971 171.341C348.462 170.37 347.034 169.266 345.686 168.08C341.941 170.182 337.171 168.861 335.015 165.143L330.973 158.163C329.922 156.331 329.626 154.202 330.165 152.181C330.704 150.16 331.997 148.435 333.83 147.384C333.344 145.741 333.075 143.854 332.967 141.968C331.081 141.618 329.383 140.324 328.305 138.519C327.227 136.713 326.958 134.557 327.497 132.536L329.572 124.749C330.111 122.701 331.404 121.003 333.237 119.952C335.069 118.901 337.198 118.605 339.219 119.143C340.027 117.661 341.186 116.125 342.453 114.697C341.348 113.107 341.078 110.978 341.617 108.957C342.156 106.909 343.45 105.212 345.282 104.161L352.262 100.119C355.98 97.9628 360.75 99.2024 362.987 102.867C364.738 102.49 366.544 102.247 368.322 102.14C368.888 100.173 370.155 98.5018 371.96 97.4778C373.792 96.4268 375.921 96.1304 377.942 96.6694L385.73 98.7443C387.778 99.2833 389.476 100.577 390.527 102.409C391.551 104.188 391.847 106.263 391.362 108.257C392.871 109.227 394.299 110.332 395.647 111.517C397.425 110.52 399.5 110.251 401.494 110.79C403.542 111.329 405.24 112.622 406.291 114.455L410.333 121.434C411.384 123.266 411.68 125.368 411.141 127.416C410.603 129.464 409.309 131.162 407.477 132.213C407.962 133.83 408.231 135.743 408.339 137.656C412.408 138.573 414.914 142.911 413.809 147.115L411.734 154.903C410.629 159.106 406.291 161.613 402.087 160.508C401.279 162.017 400.12 163.526 398.853 164.954C401.063 168.484 399.797 173.308 396.024 175.49L389.072 179.533C385.353 181.688 380.583 180.476 378.347 176.784C376.595 177.161 374.79 177.404 373.011 177.511C372.445 179.479 371.179 181.149 369.373 182.173C368.16 182.847 366.813 183.197 365.439 183.197ZM357.867 173.092L365.304 175.059C366.22 171.853 369.05 169.562 372.364 169.4C373.873 169.319 375.382 169.104 376.864 168.781C380.125 168.08 383.44 169.508 385.191 172.365L391.82 168.511C390.203 165.574 390.608 161.963 392.844 159.484C393.841 158.379 394.731 157.193 395.566 155.927C397.371 153.124 400.767 151.777 404 152.558L405.968 145.121C402.761 144.178 400.497 141.348 400.309 138.034C400.228 136.551 400.012 135.069 399.716 133.614C399.015 130.327 400.443 127.012 403.3 125.261L399.446 118.631C396.509 120.248 392.925 119.844 390.446 117.634C389.314 116.637 388.102 115.694 386.835 114.886C384.059 113.08 382.712 109.712 383.494 106.451L376.056 104.484C375.113 107.691 372.31 109.981 368.996 110.143C367.487 110.224 365.978 110.439 364.496 110.763C361.235 111.463 357.92 110.008 356.169 107.179L349.54 111.032C351.157 113.97 350.752 117.581 348.516 120.06C347.519 121.165 346.603 122.377 345.794 123.617C343.962 126.419 340.593 127.767 337.36 126.985L335.392 134.423C338.599 135.366 340.863 138.195 341.051 141.537C341.132 143.019 341.348 144.501 341.644 145.956C342.345 149.217 340.917 152.558 338.06 154.31L341.914 160.939C344.851 159.322 348.435 159.726 350.914 161.936C352.046 162.933 353.259 163.876 354.525 164.685C357.328 166.49 358.648 169.858 357.867 173.092ZM370.64 163.499C368.645 163.499 366.597 163.229 364.576 162.69C361.666 161.909 358.998 160.642 356.627 158.891C356.438 158.756 356.142 158.541 355.846 158.298C351.211 154.633 348.139 149.325 347.222 143.396C347.168 143.154 347.142 142.803 347.088 142.48C346.737 139.57 346.953 136.605 347.734 133.695C348.516 130.785 349.782 128.117 351.534 125.746C351.776 125.422 351.938 125.18 352.127 124.964C355.819 120.329 361.127 117.23 367.029 116.341C367.298 116.287 367.675 116.233 368.08 116.206C370.855 115.883 373.819 116.098 376.73 116.853C379.64 117.634 382.308 118.901 384.679 120.653C384.868 120.787 385.164 121.003 385.461 121.245C390.096 124.937 393.195 130.246 394.084 136.147C394.138 136.444 394.192 136.821 394.219 137.198C394.542 140.001 394.326 142.938 393.572 145.848C392.817 148.732 391.524 151.426 389.772 153.798C389.638 154.013 389.422 154.283 389.179 154.579C385.515 159.214 380.206 162.286 374.304 163.202C373.954 163.256 373.577 163.31 373.227 163.337C372.364 163.445 371.502 163.499 370.64 163.499ZM370.667 124.156C370.074 124.156 369.481 124.183 368.888 124.263C368.619 124.29 368.511 124.317 368.376 124.317C364.361 124.937 360.858 126.958 358.406 130.057L358.082 130.461C356.869 132.105 356.034 133.857 355.522 135.77C355.01 137.683 354.875 139.623 355.091 141.537C355.118 141.725 355.145 141.914 355.172 142.076C355.792 146.064 357.813 149.54 360.912 151.992C361.073 152.127 361.181 152.208 361.289 152.289C362.96 153.528 364.738 154.364 366.651 154.876C368.565 155.388 370.505 155.522 372.418 155.28C372.715 155.253 372.849 155.226 372.984 155.199H373.038C376.945 154.606 380.422 152.558 382.874 149.486C383.008 149.325 383.116 149.19 383.197 149.055C384.41 147.411 385.245 145.66 385.73 143.746C386.242 141.833 386.377 139.893 386.161 137.98C386.134 137.71 386.107 137.575 386.08 137.441C385.461 133.479 383.44 129.976 380.341 127.524C380.179 127.389 380.071 127.309 379.963 127.228C378.293 126.015 376.541 125.18 374.628 124.668C373.334 124.317 371.987 124.156 370.667 124.156Z" fill="#9062B7"/>
<path d="M110.112 156.519C111.702 156.088 113.427 156.735 114.316 158.136C115.232 159.565 116.283 160.912 117.415 162.178C118.52 163.418 118.709 165.223 117.873 166.652C116.795 168.484 117.442 170.855 119.275 171.906L126.254 175.949C128.086 177.026 130.458 176.407 131.509 174.547C132.344 173.119 133.988 172.365 135.578 172.715C137.248 173.065 138.973 173.308 140.698 173.415C142.341 173.496 143.716 174.682 144.12 176.272C144.659 178.32 146.761 179.559 148.836 179.021L156.624 176.946C158.672 176.407 159.911 174.305 159.372 172.23C158.941 170.64 159.561 168.942 160.935 168.053C162.39 167.11 163.765 166.059 165.058 164.927C166.271 163.822 168.076 163.687 169.504 164.523C171.337 165.601 173.708 164.981 174.759 163.122L178.801 156.142C179.879 154.31 179.259 151.938 177.4 150.887C175.972 150.052 175.217 148.408 175.568 146.765C175.918 145.121 176.16 143.423 176.241 141.725C176.349 140.082 177.481 138.68 179.098 138.249C181.146 137.71 182.385 135.608 181.846 133.533L179.771 125.746C179.232 123.698 177.131 122.458 175.056 122.997C173.466 123.428 171.768 122.781 170.852 121.38C169.936 119.952 168.885 118.605 167.78 117.338C166.675 116.098 166.513 114.293 167.322 112.865C168.4 111.032 167.753 108.661 165.92 107.61L158.941 103.568C157.109 102.49 154.737 103.137 153.686 104.969C152.851 106.397 151.207 107.152 149.617 106.802C147.947 106.451 146.222 106.209 144.497 106.101C142.853 106.02 141.479 104.834 141.075 103.245C140.536 101.197 138.434 99.957 136.359 100.496L128.571 102.571C126.523 103.11 125.284 105.212 125.823 107.287C126.254 108.877 125.634 110.574 124.26 111.463C122.805 112.407 121.43 113.458 120.137 114.589C118.924 115.694 117.119 115.829 115.691 114.994C113.858 113.916 111.487 114.562 110.436 116.395L106.394 123.374C105.316 125.207 105.963 127.578 107.795 128.629C109.223 129.464 109.978 131.135 109.627 132.752C109.277 134.396 109.035 136.093 108.954 137.791C108.846 139.435 107.714 140.836 106.097 141.267C104.049 141.806 102.81 143.908 103.349 145.983L105.424 153.771C105.963 155.846 108.064 157.085 110.112 156.519ZM127.197 152.019C127.035 151.831 126.874 151.615 126.739 151.399C125.311 149.486 124.233 147.25 123.586 144.824C122.939 142.399 122.778 139.92 123.047 137.549C123.074 137.306 123.101 137.037 123.155 136.794C123.909 131.917 126.496 127.47 130.35 124.398C130.539 124.237 130.754 124.075 130.97 123.94C132.883 122.512 135.093 121.434 137.545 120.787C139.997 120.141 142.449 119.979 144.821 120.248C145.09 120.275 145.333 120.302 145.575 120.356C150.453 121.111 154.899 123.698 157.971 127.551C158.133 127.74 158.294 127.955 158.429 128.171C159.857 130.084 160.935 132.321 161.582 134.746C162.229 137.198 162.39 139.65 162.121 142.022C162.094 142.264 162.067 142.534 162.013 142.776C161.259 147.654 158.672 152.1 154.791 155.172C154.603 155.334 154.387 155.495 154.171 155.63C152.258 157.058 150.048 158.136 147.596 158.783C145.144 159.43 142.692 159.591 140.32 159.295C140.051 159.268 139.808 159.241 139.539 159.187C134.715 158.46 130.269 155.873 127.197 152.019Z" fill="#DDBDF4"/>
<path d="M147.839 183.197C144.389 183.197 141.21 180.907 140.24 177.458C138.461 177.35 136.656 177.107 134.904 176.73C132.667 180.395 127.898 181.607 124.179 179.452L117.2 175.41C113.427 173.227 112.16 168.376 114.343 164.631C113.157 163.499 111.999 162.017 111.002 160.481C106.825 161.505 102.594 158.999 101.489 154.849L99.4143 147.061C98.3094 142.857 100.816 138.519 105.019 137.414C104.992 135.716 105.235 133.83 105.639 131.97C103.914 131.135 102.621 129.437 102.055 127.389C101.516 125.341 101.813 123.213 102.864 121.407L106.906 114.455C109.061 110.736 113.831 109.442 117.577 111.517C118.924 110.332 120.352 109.227 121.861 108.257C121.376 106.263 121.673 104.188 122.697 102.409C123.748 100.577 125.472 99.2833 127.493 98.7443L135.281 96.6694C137.329 96.1304 139.431 96.4268 141.264 97.4778C143.042 98.5018 144.336 100.173 144.901 102.14C146.68 102.247 148.485 102.49 150.237 102.867C151.315 101.116 152.986 99.8492 154.953 99.3372C157.001 98.7982 159.103 99.0946 160.935 100.146L167.914 104.188C169.747 105.239 171.04 106.963 171.579 108.984C172.118 111.032 171.822 113.161 170.771 114.967C171.984 116.152 173.169 117.661 174.193 119.251C175.999 118.605 178.128 118.901 179.96 119.952C181.792 121.003 183.086 122.727 183.625 124.749L185.7 132.536C186.239 134.584 185.942 136.686 184.891 138.519C183.84 140.351 182.116 141.645 180.095 142.183C180.122 143.827 179.879 145.687 179.502 147.492C181.361 148.651 182.547 150.295 183.059 152.208C183.598 154.256 183.301 156.385 182.25 158.19L178.208 165.17C176.053 168.888 171.283 170.182 167.537 168.08C166.19 169.266 164.762 170.37 163.253 171.341C163.738 173.335 163.441 175.41 162.417 177.188C161.366 179.021 159.642 180.314 157.621 180.853L149.833 182.928C149.186 183.117 148.485 183.197 147.839 183.197ZM134.769 168.619C135.308 168.619 135.874 168.673 136.413 168.781C137.895 169.104 139.404 169.293 140.913 169.4C144.228 169.589 147.03 171.853 147.973 175.059L155.411 173.092C154.629 169.831 155.95 166.463 158.752 164.685C160.019 163.876 161.232 162.933 162.363 161.936C164.842 159.726 168.426 159.322 171.364 160.939L175.217 154.283C172.361 152.531 170.933 149.19 171.633 145.929C171.957 144.474 172.145 142.992 172.226 141.51C172.415 138.168 174.678 135.339 177.885 134.396L175.918 126.958C172.657 127.74 169.289 126.392 167.483 123.59C166.675 122.35 165.759 121.138 164.789 120.033C162.552 117.527 162.175 113.916 163.765 111.005L157.109 107.152C155.357 110.008 152.042 111.437 148.782 110.736C147.3 110.413 145.791 110.224 144.282 110.116C140.967 109.927 138.165 107.664 137.221 104.457L129.784 106.424C130.565 109.685 129.245 113.053 126.442 114.832C125.176 115.667 123.963 116.583 122.832 117.581C120.352 119.79 116.768 120.194 113.831 118.578L109.978 125.207C112.834 126.958 114.262 130.3 113.562 133.56C113.238 135.015 113.05 136.498 112.969 137.98C112.78 141.321 110.517 144.151 107.31 145.067L109.277 152.504C112.511 151.723 115.906 153.07 117.712 155.873C118.52 157.112 119.436 158.325 120.433 159.43C122.67 161.936 123.074 165.547 121.457 168.457L128.086 172.311C129.541 170.02 132.074 168.619 134.769 168.619ZM142.611 163.499C141.695 163.499 140.778 163.445 139.862 163.337C139.647 163.31 139.269 163.283 138.892 163.202C133.045 162.286 127.736 159.214 124.017 154.552C123.802 154.283 123.586 154.013 123.397 153.717C121.7 151.426 120.433 148.759 119.652 145.848C118.87 142.938 118.682 140.001 119.005 137.063C119.032 136.821 119.086 136.471 119.14 136.093C120.029 130.246 123.128 124.937 127.817 121.218C128.086 121.003 128.356 120.787 128.679 120.572C130.916 118.901 133.61 117.634 136.494 116.853C139.404 116.071 142.368 115.883 145.279 116.233C145.521 116.26 145.925 116.314 146.303 116.368C152.096 117.257 157.405 120.329 161.124 125.018C161.285 125.207 161.474 125.476 161.663 125.719C163.441 128.117 164.708 130.785 165.489 133.695C166.271 136.605 166.459 139.543 166.136 142.48C166.082 142.857 166.055 143.154 166.001 143.45C165.085 149.325 162.013 154.633 157.324 158.325C157.109 158.514 156.812 158.729 156.489 158.972C154.252 160.642 151.557 161.909 148.674 162.69C146.653 163.229 144.632 163.499 142.611 163.499ZM142.584 124.156C141.237 124.156 139.916 124.317 138.596 124.668C136.682 125.18 134.931 126.015 133.395 127.147C133.152 127.309 133.045 127.416 132.91 127.497C129.784 129.976 127.763 133.479 127.143 137.36C127.116 137.575 127.089 137.71 127.062 137.872C126.82 139.893 126.954 141.833 127.466 143.746C127.978 145.66 128.814 147.411 129.946 148.974C130.08 149.19 130.188 149.298 130.296 149.432L130.323 149.486C132.775 152.558 136.251 154.606 140.159 155.199C140.347 155.226 140.482 155.253 140.644 155.253C142.719 155.495 144.632 155.361 146.545 154.849C148.458 154.337 150.21 153.501 151.773 152.37C151.989 152.208 152.096 152.127 152.204 152.046C155.384 149.54 157.405 146.037 158.025 142.13L158.106 141.564C158.348 139.57 158.213 137.629 157.701 135.716C157.189 133.803 156.354 132.051 155.222 130.488C155.088 130.327 155.007 130.192 154.899 130.057C152.393 126.904 148.89 124.883 145.009 124.29C144.767 124.237 144.659 124.237 144.524 124.21C143.85 124.183 143.204 124.156 142.584 124.156Z" fill="#9062B7"/>
<path d="M239.945 68.644C239.945 68.644 215.584 75.1923 214.102 105.481" stroke="white" stroke-width="2" stroke-miterlimit="10" stroke-linecap="round"/>
<path d="M117.2 126.716L118.709 123.644" stroke="white" stroke-width="2" stroke-miterlimit="10" stroke-linecap="round"/>
<path d="M130.97 115.155C130.97 115.155 134.769 112.973 139.216 112.622" stroke="white" stroke-width="2" stroke-miterlimit="10" stroke-linecap="round"/>
<path d="M351.642 120.814C351.642 120.814 355.199 115.856 359.672 114.374" stroke="white" stroke-width="2" stroke-miterlimit="10" stroke-linecap="round"/>
<path d="M344.959 129.734C344.959 129.734 343.45 133.318 343.719 136.767" stroke="white" stroke-width="2" stroke-miterlimit="10" stroke-linecap="round"/>
<path d="M248.487 66.4882C248.487 66.4882 254.442 65.4103 260.533 66.4882" stroke="white" stroke-width="2" stroke-miterlimit="10" stroke-linecap="round"/>
</g>
</svg>
