<svg width="512" height="512" viewBox="0 0 512 512" fill="none" xmlns="http://www.w3.org/2000/svg">
<mask id="mask0_107_4479" style="mask-type:alpha" maskUnits="userSpaceOnUse" x="0" y="0" width="512" height="512">
<path d="M256 512C397.385 512 512 397.385 512 256C512 114.615 397.385 0 256 0C114.615 0 0 114.615 0 256C0 397.385 114.615 512 256 512Z" fill="white"/>
</mask>
<g mask="url(#mask0_107_4479)">
<path d="M256 512C397.385 512 512 397.385 512 256C512 114.615 397.385 0 256 0C114.615 0 0 114.615 0 256C0 397.385 114.615 512 256 512Z" fill="#FFECF5"/>
<path d="M368.478 342.501C368.478 422.265 317.521 486.939 254.68 486.939C191.838 486.939 140.881 422.265 140.881 342.501C140.881 330.375 142.067 318.572 144.303 307.308C156.672 244.52 201.405 198.063 254.68 198.063C307.389 198.063 351.717 243.523 364.652 305.287C367.158 317.17 368.478 329.647 368.478 342.501Z" fill="#FFB3C9"/>
<path d="M254.68 490.981C189.709 490.981 136.839 424.367 136.839 342.501C136.839 330.321 138.024 318.221 140.342 306.526C153.384 240.29 200.408 194.021 254.68 194.021C308.143 194.021 354.978 239.427 368.613 304.451C371.2 316.766 372.52 329.566 372.52 342.501C372.52 424.367 319.65 490.981 254.68 490.981ZM254.68 202.105C204.315 202.105 160.552 245.679 148.264 308.089C146.055 319.272 144.923 330.86 144.923 342.501C144.923 419.921 194.156 482.897 254.68 482.897C315.203 482.897 364.436 419.921 364.436 342.501C364.436 330.132 363.17 317.898 360.691 306.122C347.864 244.871 304.263 202.105 254.68 202.105Z" fill="#D7699D"/>
<path d="M368.478 342.501C368.478 422.265 317.521 486.939 254.68 486.939C191.838 486.939 140.881 422.265 140.881 342.501C140.881 330.375 142.067 318.572 144.303 307.308C171.143 320.943 209.731 329.485 252.578 329.485C297.499 329.485 337.704 320.108 364.652 305.287C367.158 317.17 368.478 329.647 368.478 342.501Z" fill="#FC9FBE"/>
<path d="M313.425 316.874C313.425 328.407 306.284 335.683 297.445 335.683C288.606 335.683 281.465 328.407 281.465 316.874C281.465 305.34 285.642 293.888 294.481 293.888C303.32 293.888 313.425 305.313 313.425 316.874Z" fill="#AA4880"/>
<path d="M300.975 307.981C303.639 307.981 305.799 305.822 305.799 303.158C305.799 300.494 303.639 298.334 300.975 298.334C298.311 298.334 296.152 300.494 296.152 303.158C296.152 305.822 298.311 307.981 300.975 307.981Z" fill="white"/>
<path d="M293.814 330.958C297.943 330.519 300.744 325.028 300.071 318.694C299.398 312.36 295.505 307.581 291.376 308.02C287.247 308.459 284.445 313.949 285.119 320.284C285.792 326.618 289.685 331.397 293.814 330.958Z" fill="white"/>
<path d="M316.578 280.657C315.284 280.657 313.991 280.037 313.209 278.878C312.859 278.339 304.236 265.836 290.708 268.072C288.499 268.423 286.424 266.94 286.046 264.758C285.669 262.548 287.178 260.473 289.361 260.096C307.631 257.051 318.68 272.572 319.892 274.378C321.132 276.237 320.647 278.743 318.787 279.983C318.141 280.441 317.359 280.657 316.578 280.657Z" fill="white"/>
<path d="M194.425 316.874C194.425 328.407 201.566 335.683 210.405 335.683C219.217 335.683 226.385 328.407 226.385 316.874C226.385 305.34 222.208 293.888 213.369 293.888C204.558 293.888 194.425 305.313 194.425 316.874Z" fill="#AA4880"/>
<path d="M206.902 307.981C209.566 307.981 211.726 305.822 211.726 303.158C211.726 300.494 209.566 298.334 206.902 298.334C204.238 298.334 202.078 300.494 202.078 303.158C202.078 305.822 204.238 307.981 206.902 307.981Z" fill="white"/>
<path d="M222.723 320.272C223.396 313.938 220.595 308.447 216.466 308.008C212.337 307.569 208.444 312.348 207.771 318.682C207.097 325.017 209.899 330.507 214.028 330.946C218.157 331.385 222.05 326.606 222.723 320.272Z" fill="white"/>
<path d="M191.273 280.657C190.518 280.657 189.737 280.441 189.036 279.983C187.177 278.743 186.665 276.237 187.904 274.378C188.362 273.677 199.653 256.943 218.462 260.069C220.672 260.446 222.154 262.521 221.777 264.731C221.4 266.94 219.325 268.396 217.115 268.045C203.48 265.782 194.722 278.689 194.641 278.824C193.886 280.01 192.593 280.657 191.273 280.657Z" fill="white"/>
<path d="M175.508 201.431L87.3094 111.993C87.3094 111.993 109.137 128.188 124.497 110.538C124.497 110.538 134.952 150.501 161.927 131.584C192.216 110.349 176.856 82.7013 176.856 82.7013C176.856 82.7013 208.141 119.08 227.732 106.307C231.208 104.044 233.553 100.46 234.765 96.4984C236.786 89.8693 237.972 78.5514 224.633 74.3746C224.633 74.3746 243.82 72.0841 252.578 46.4302C261.336 72.0841 280.522 74.3746 280.522 74.3746C267.183 78.5514 268.369 89.8693 270.39 96.4984C271.602 100.46 273.947 104.044 277.423 106.307C297.041 119.053 328.3 82.7013 328.3 82.7013C328.3 82.7013 312.913 110.349 343.229 131.584C370.203 150.501 380.658 110.538 380.658 110.538C396.018 128.188 417.846 111.993 417.846 111.993L329.647 201.458C329.62 201.431 262.656 145.354 175.508 201.431Z" fill="#FFE443"/>
<path d="M175.508 205.474C174.457 205.474 173.406 205.069 172.625 204.261L84.4261 114.796C82.944 113.287 82.8632 110.888 84.2644 109.298C85.6387 107.709 88.037 107.439 89.7347 108.706C90.4893 109.271 108.787 122.422 121.479 107.843C122.476 106.711 123.985 106.226 125.44 106.55C126.895 106.9 128.054 108.005 128.431 109.46C129.779 114.58 135.249 128.593 144.168 131.853C148.723 133.524 153.762 132.338 159.609 128.215C186.611 109.271 173.864 85.6117 173.325 84.5877C172.328 82.7822 172.84 80.4917 174.538 79.306C176.236 78.1203 178.553 78.4168 179.928 79.9797C187.985 89.3574 211.914 111.724 225.549 102.858C228.002 101.268 229.915 98.5734 230.912 95.2589C235.035 81.7852 226.304 79.0635 223.448 78.1742C221.642 77.6083 220.456 75.8298 220.618 73.9435C220.807 72.0572 222.262 70.5212 224.175 70.3056C224.822 70.2248 241.017 67.7995 248.778 45.0829C249.344 43.4391 250.88 42.3342 252.605 42.3342C254.329 42.3342 255.865 43.4391 256.431 45.0829C264.192 67.7995 280.36 70.2248 281.061 70.3056C282.947 70.5481 284.403 72.0841 284.564 73.9704C284.726 75.8568 283.567 77.6083 281.762 78.1742C278.905 79.0635 270.174 81.8121 274.297 95.2589C275.321 98.5734 277.208 101.268 279.66 102.858C293.295 111.724 317.224 89.3574 325.282 79.9797C326.629 78.4168 328.947 78.1203 330.671 79.306C332.369 80.4917 332.908 82.7822 331.884 84.5877C331.345 85.5848 318.76 109.379 345.6 128.215C351.448 132.311 356.514 133.524 361.068 131.826C370.014 128.539 375.458 114.553 376.805 109.433C377.182 107.978 378.341 106.873 379.796 106.523C381.251 106.173 382.787 106.685 383.758 107.816C396.45 122.395 414.72 109.245 415.501 108.679C417.199 107.439 419.571 107.682 420.945 109.298C422.319 110.888 422.238 113.287 420.783 114.769L332.584 204.234C331.102 205.716 328.731 205.851 327.114 204.503C326.952 204.369 310.515 190.841 283.971 184.185C248.536 175.319 212.803 182.245 177.772 204.8C177.017 205.285 176.263 205.474 175.508 205.474ZM103.451 122.61L176.101 196.285C253.063 148.588 315.123 186.125 329.216 196.096L401.677 122.61C395.399 123.338 388.581 122.26 382.437 117.706C379.608 124.766 373.733 135.842 363.763 139.479C356.648 142.093 348.941 140.557 340.884 134.871C323.8 122.88 320.269 108.813 320.35 99.1393C320.35 98.1153 320.404 97.1182 320.485 96.1751C308.736 106.523 289.819 119.188 275.213 109.703C271.171 107.062 268.072 102.804 266.509 97.6841C263.626 88.2256 265.243 80.357 270.767 75.237C265.135 72.3536 258.021 66.8833 252.551 56.6433C247.08 66.9102 239.966 72.3805 234.334 75.2639C239.885 80.3839 241.475 88.2525 238.592 97.7111C237.029 102.831 233.93 107.089 229.888 109.73C215.283 119.215 196.365 106.55 184.616 96.202C184.697 97.1721 184.724 98.1422 184.751 99.1662C184.805 108.867 181.302 122.934 164.217 134.898C156.133 140.557 148.453 142.093 141.339 139.506C131.395 135.869 125.521 124.793 122.664 117.733C116.547 122.26 109.757 123.311 103.451 122.61Z" fill="#FFB600"/>
<path d="M272.33 135.815L253.467 154.678C251.742 156.402 248.967 156.402 247.242 154.678L228.379 135.815C226.654 134.09 226.654 131.314 228.379 129.59L247.242 110.727C248.967 109.002 251.742 109.002 253.467 110.727L272.33 129.59C274.055 131.287 274.055 134.09 272.33 135.815Z" fill="#61DAAC"/>
<path d="M259.881 142.228L250.368 151.713V132.716H250.395L259.881 142.228Z" fill="white"/>
<path d="M250.368 153.061C250.206 153.061 250.018 153.034 249.856 152.953C249.344 152.737 249.021 152.252 249.021 151.713V132.716C249.021 131.611 250.557 130.991 251.338 131.772L260.851 141.285C261.093 141.527 261.255 141.878 261.255 142.228C261.255 142.578 261.12 142.929 260.851 143.171L251.338 152.684C251.069 152.926 250.718 153.061 250.368 153.061ZM251.715 135.949V148.48L257.994 142.228L251.715 135.949Z" fill="#61DAAC"/>
<path d="M250.368 132.716V151.714L240.856 142.228L250.368 132.716Z" fill="#C2F2DE"/>
<path d="M250.368 153.061C250.018 153.061 249.667 152.926 249.425 152.657L239.913 143.144C239.374 142.605 239.374 141.77 239.913 141.231L249.425 131.719C249.802 131.341 250.395 131.207 250.88 131.422C251.392 131.638 251.715 132.123 251.715 132.662V151.66C251.715 152.199 251.392 152.684 250.88 152.899C250.718 153.034 250.53 153.061 250.368 153.061ZM242.769 142.228L249.021 148.48V135.976L242.769 142.228Z" fill="#61DAAC"/>
<path d="M250.368 132.688V132.715L240.856 142.228L231.37 132.688H250.368Z" fill="#C2F2DE"/>
<path d="M240.856 143.575C240.505 143.575 240.155 143.441 239.912 143.171L230.4 133.659C230.023 133.281 229.888 132.689 230.104 132.204C230.319 131.692 230.804 131.368 231.343 131.368H250.341C251.096 131.368 251.688 131.961 251.688 132.716V132.742C251.688 133.093 251.554 133.443 251.284 133.686L241.772 143.198C241.556 143.414 241.233 143.575 240.856 143.575ZM234.604 134.036L240.856 140.315L247.134 134.036H234.604Z" fill="#61DAAC"/>
<path d="M250.368 132.689H231.37L240.856 123.203L250.368 132.689Z" fill="#C2F2DE"/>
<path d="M250.368 134.036H231.37C230.831 134.036 230.346 133.713 230.131 133.201C229.915 132.689 230.05 132.123 230.427 131.745L239.939 122.233C240.478 121.694 241.314 121.694 241.853 122.233L251.365 131.745C251.742 132.123 251.877 132.716 251.662 133.201C251.392 133.713 250.907 134.036 250.368 134.036ZM234.604 131.341H247.107L240.856 125.089L234.604 131.341Z" fill="#61DAAC"/>
<path d="M250.368 113.664V132.689L240.856 123.203L250.368 113.664Z" fill="#C2F2DE"/>
<path d="M250.368 134.036C250.018 134.036 249.667 133.901 249.425 133.632L239.913 124.119C239.374 123.58 239.374 122.745 239.913 122.206L249.425 112.694C249.802 112.316 250.395 112.182 250.88 112.397C251.392 112.613 251.715 113.098 251.715 113.637V132.662C251.715 133.201 251.392 133.686 250.88 133.901C250.718 134.009 250.53 134.036 250.368 134.036ZM242.769 123.203L249.021 129.455V116.951L242.769 123.203Z" fill="#61DAAC"/>
<path d="M259.881 123.203L250.395 132.689H250.368V113.664L259.881 123.203Z" fill="white"/>
<path d="M250.395 134.036C249.641 134.036 249.021 133.443 249.021 132.689V113.664C249.021 113.125 249.344 112.64 249.856 112.424C250.368 112.209 250.934 112.343 251.311 112.721L260.824 122.233C261.066 122.476 261.228 122.826 261.228 123.176C261.228 123.526 261.093 123.877 260.824 124.119L251.311 133.632C251.096 133.901 250.745 134.036 250.395 134.036ZM251.715 116.924V129.455L257.994 123.176L251.715 116.924Z" fill="#61DAAC"/>
<path d="M269.393 132.689H250.395L259.88 123.203L269.393 132.689Z" fill="#C2F2DE"/>
<path d="M269.393 134.036H250.395C249.856 134.036 249.371 133.713 249.155 133.201C248.94 132.689 249.075 132.123 249.452 131.746L258.964 122.233C259.476 121.721 260.365 121.721 260.877 122.233L270.39 131.746C270.767 132.123 270.902 132.716 270.686 133.201C270.471 133.686 269.932 134.036 269.393 134.036ZM253.629 131.341H266.132L259.88 125.09L253.629 131.341Z" fill="#61DAAC"/>
<path d="M269.393 132.689L259.881 142.228L250.395 132.716V132.689H269.393Z" fill="#C2F2DE"/>
<path d="M259.881 143.575C259.53 143.575 259.18 143.441 258.937 143.171L249.425 133.659C249.182 133.416 249.021 133.066 249.021 132.716C249.021 131.961 249.614 131.341 250.368 131.341H269.366C269.905 131.341 270.39 131.665 270.606 132.177C270.821 132.689 270.713 133.255 270.309 133.632L260.797 143.144C260.581 143.414 260.258 143.575 259.881 143.575ZM253.629 134.036L259.907 140.315L266.159 134.036H253.629Z" fill="#61DAAC"/>
<path d="M250.395 132.689H250.368V132.716H250.395V132.689Z" fill="#C2F2DE"/>
<path d="M250.395 134.063C249.641 134.063 249.021 133.47 249.021 132.716C249.021 131.961 249.614 131.341 250.368 131.341C251.123 131.341 251.742 131.934 251.742 132.689V132.716C251.742 133.47 251.123 134.063 250.395 134.063Z" fill="#61DAAC"/>
<path d="M328.974 163.975H310.757C309.086 163.975 307.739 162.627 307.739 160.956V142.74C307.739 141.069 309.086 139.722 310.757 139.722H328.974C330.644 139.722 331.992 141.069 331.992 142.74V160.956C331.992 162.627 330.644 163.975 328.974 163.975Z" fill="#61DAAC"/>
<path d="M319.865 161.064L310.649 161.037L319.838 151.875H319.865V161.064Z" fill="#C2F2DE"/>
<path d="M310.003 161.711C309.922 161.63 309.841 161.522 309.814 161.415C309.679 161.064 309.76 160.687 310.003 160.417L319.192 151.228C319.731 150.689 320.782 151.148 320.782 151.902V161.091C320.782 161.334 320.674 161.576 320.512 161.738C320.35 161.9 320.108 162.007 319.865 162.007H310.676C310.407 161.98 310.164 161.873 310.003 161.711ZM318.922 154.085L312.859 160.148H318.922V154.085Z" fill="#61DAAC"/>
<path d="M319.838 151.875L310.649 161.037V151.875H319.838Z" fill="#C2F2DE"/>
<path d="M310.003 161.711C309.841 161.549 309.733 161.307 309.733 161.064V151.875C309.733 151.633 309.841 151.39 310.003 151.228C310.164 151.067 310.407 150.959 310.649 150.959H319.838C320.216 150.959 320.539 151.175 320.701 151.525C320.835 151.875 320.755 152.252 320.512 152.522L311.323 161.711C311.053 161.98 310.649 162.061 310.326 161.9C310.191 161.846 310.083 161.792 310.003 161.711ZM311.565 152.791V158.828L317.602 152.791H311.565Z" fill="#61DAAC"/>
<path d="M319.865 151.848L319.838 151.875H310.649L310.676 142.659L319.865 151.848Z" fill="white"/>
<path d="M310.003 152.522C309.841 152.36 309.733 152.118 309.733 151.875V142.686C309.733 142.309 309.949 141.986 310.299 141.824C310.649 141.689 311.026 141.77 311.296 142.013L320.485 151.202C320.835 151.552 320.835 152.145 320.485 152.495C320.323 152.657 320.081 152.765 319.838 152.765H310.649C310.407 152.792 310.164 152.684 310.003 152.522ZM311.592 144.896V150.959H317.656L311.592 144.896Z" fill="#61DAAC"/>
<path d="M319.865 151.848L310.676 142.659H319.865V151.848Z" fill="white"/>
<path d="M319.192 152.495L310.003 143.306C309.733 143.037 309.652 142.659 309.814 142.309C309.949 141.959 310.299 141.743 310.676 141.743H319.865C320.35 141.743 320.781 142.174 320.781 142.659V151.848C320.781 152.226 320.566 152.549 320.216 152.711C319.865 152.845 319.461 152.765 319.192 152.495ZM312.886 143.576L318.922 149.612V143.576H312.886Z" fill="#61DAAC"/>
<path d="M329.054 142.659L319.865 151.848V142.659H329.054Z" fill="#C2F2DE"/>
<path d="M319.192 152.495C319.03 152.333 318.922 152.091 318.922 151.848V142.659C318.922 142.147 319.326 141.743 319.838 141.743H329.027C329.405 141.743 329.728 141.959 329.89 142.309C330.024 142.659 329.944 143.037 329.701 143.306L320.512 152.495C320.243 152.765 319.838 152.845 319.515 152.684C319.38 152.657 319.272 152.576 319.192 152.495ZM320.781 143.576V149.612L326.845 143.549L320.781 143.576Z" fill="#61DAAC"/>
<path d="M329.054 151.875H319.865V151.848L329.054 142.659V151.875Z" fill="#C2F2DE"/>
<path d="M319.218 152.522C318.868 152.172 318.841 151.579 319.218 151.202L328.408 142.013C328.677 141.743 329.081 141.662 329.405 141.824C329.755 141.959 329.97 142.309 329.97 142.686V151.902C329.97 152.414 329.566 152.818 329.054 152.818H319.865C319.623 152.792 319.38 152.684 319.218 152.522ZM328.138 144.869L322.075 150.932H328.138V144.869Z" fill="#61DAAC"/>
<path d="M329.054 161.037L319.865 151.875H329.054V161.037Z" fill="#C2F2DE"/>
<path d="M328.408 161.711L319.218 152.522C318.949 152.252 318.868 151.875 319.03 151.525C319.165 151.175 319.515 150.959 319.892 150.959H329.081C329.566 150.959 329.997 151.39 329.997 151.875V161.064C329.997 161.442 329.782 161.765 329.432 161.927C329.054 162.034 328.65 161.954 328.408 161.711ZM322.075 152.791L328.111 158.828V152.791H322.075Z" fill="#61DAAC"/>
<path d="M329.054 161.037L319.865 161.064V151.875L329.054 161.037Z" fill="#C2F2DE"/>
<path d="M319.192 161.711C319.03 161.549 318.922 161.307 318.922 161.064V151.875C318.922 151.633 319.03 151.39 319.192 151.229C319.542 150.878 320.135 150.851 320.512 151.229L329.701 160.418C329.971 160.687 330.051 161.064 329.89 161.415C329.755 161.765 329.405 161.98 329.027 161.98H319.838C319.596 161.98 319.38 161.873 319.192 161.711ZM320.781 154.085V160.148H326.845L320.781 154.085Z" fill="#61DAAC"/>
<path d="M319.849 151.845L319.83 151.864L319.849 151.883L319.868 151.864L319.849 151.845Z" fill="#C2F2DE"/>
<path d="M319.192 152.522C318.841 152.172 318.814 151.579 319.192 151.202C319.569 150.824 320.135 150.824 320.512 151.202C320.862 151.552 320.889 152.145 320.512 152.522C320.135 152.872 319.569 152.872 319.192 152.522Z" fill="#61DAAC"/>
<path d="M176.155 163.975H194.371C196.042 163.975 197.389 162.627 197.389 160.956V142.74C197.389 141.069 196.042 139.722 194.371 139.722H176.155C174.484 139.722 173.137 141.069 173.137 142.74V160.956C173.164 162.627 174.511 163.975 176.155 163.975Z" fill="#61DAAC"/>
<path d="M185.29 161.064L194.479 161.037L185.29 151.875V161.064Z" fill="#C2F2DE"/>
<path d="M194.479 161.98H185.29C185.048 161.98 184.805 161.873 184.643 161.711C184.482 161.549 184.374 161.307 184.374 161.064V151.875C184.374 151.121 185.425 150.689 185.964 151.201L195.153 160.39C195.422 160.66 195.503 161.037 195.342 161.388C195.288 161.495 195.234 161.603 195.153 161.684C194.964 161.873 194.722 161.98 194.479 161.98ZM186.206 160.148H192.27L186.206 154.085V160.148Z" fill="#61DAAC"/>
<path d="M185.29 151.875L194.479 161.037V151.875H185.29Z" fill="#C2F2DE"/>
<path d="M194.83 161.9C194.479 162.034 194.102 161.954 193.832 161.711L184.643 152.522C184.374 152.252 184.293 151.848 184.455 151.525C184.59 151.175 184.94 150.959 185.317 150.959H194.506C194.749 150.959 194.991 151.067 195.153 151.228C195.315 151.39 195.422 151.633 195.422 151.875V161.064C195.422 161.307 195.315 161.549 195.153 161.711C195.045 161.792 194.937 161.846 194.83 161.9ZM187.527 152.791L193.563 158.828V152.791H187.527Z" fill="#61DAAC"/>
<path d="M185.29 151.848V151.875H194.479V142.659L185.29 151.848Z" fill="white"/>
<path d="M194.479 152.791H185.29C185.048 152.791 184.805 152.684 184.643 152.522C184.293 152.172 184.293 151.579 184.643 151.228L193.832 142.039C194.102 141.77 194.479 141.689 194.829 141.851C195.18 141.986 195.395 142.336 195.395 142.713V151.902C195.395 152.145 195.288 152.387 195.126 152.549C194.964 152.684 194.722 152.791 194.479 152.791ZM187.5 150.932H193.563V144.869L187.5 150.932Z" fill="#61DAAC"/>
<path d="M185.29 151.848L194.479 142.659H185.29V151.848Z" fill="white"/>
<path d="M184.94 152.71C184.59 152.576 184.374 152.225 184.374 151.848V142.659C184.374 142.174 184.805 141.743 185.29 141.743H194.479C194.857 141.743 195.18 141.959 195.342 142.309C195.476 142.659 195.395 143.036 195.153 143.306L185.937 152.495C185.668 152.764 185.263 152.845 184.94 152.71ZM186.206 143.575V149.612L192.243 143.575H186.206Z" fill="#61DAAC"/>
<path d="M176.074 142.659L185.29 151.848V142.659H176.074Z" fill="#C2F2DE"/>
<path d="M185.641 152.711C185.29 152.845 184.913 152.765 184.643 152.522L175.454 143.333C175.185 143.063 175.104 142.659 175.266 142.336C175.401 141.986 175.751 141.77 176.128 141.77H185.317C185.829 141.77 186.233 142.174 186.233 142.686V151.875C186.233 152.118 186.126 152.36 185.964 152.522C185.856 152.576 185.748 152.657 185.641 152.711ZM178.311 143.575L184.374 149.639V143.602L178.311 143.575Z" fill="#61DAAC"/>
<path d="M176.074 151.875H185.263L185.29 151.848L176.074 142.659V151.875Z" fill="#C2F2DE"/>
<path d="M185.263 152.791H176.074C175.562 152.791 175.158 152.387 175.158 151.875V142.659C175.158 142.282 175.374 141.959 175.724 141.797C176.074 141.662 176.451 141.743 176.721 141.985L185.937 151.201C186.287 151.552 186.287 152.145 185.937 152.522C185.748 152.684 185.506 152.791 185.263 152.791ZM177.017 150.932H183.08L177.017 144.869V150.932Z" fill="#61DAAC"/>
<path d="M176.074 161.037L185.263 151.875H176.074V161.037Z" fill="#C2F2DE"/>
<path d="M175.724 161.899C175.4 161.765 175.158 161.414 175.158 161.037V151.848C175.158 151.363 175.589 150.932 176.074 150.932H185.263C185.64 150.932 185.964 151.147 186.126 151.498C186.287 151.848 186.179 152.225 185.937 152.495L176.748 161.684C176.478 161.953 176.074 162.034 175.724 161.899ZM177.017 152.791V158.827L183.054 152.791H177.017Z" fill="#61DAAC"/>
<path d="M176.074 161.037L185.29 161.064V151.875H185.263L176.074 161.037Z" fill="#C2F2DE"/>
<path d="M185.937 161.711C185.775 161.873 185.533 161.98 185.29 161.98H176.101C175.724 161.98 175.4 161.765 175.239 161.414C175.104 161.064 175.185 160.687 175.427 160.417L184.616 151.228C184.967 150.878 185.56 150.878 185.937 151.228C186.099 151.39 186.206 151.633 186.206 151.875V161.064C186.206 161.307 186.099 161.549 185.937 161.711ZM178.311 160.121H184.374V154.058L178.311 160.121Z" fill="#61DAAC"/>
<path d="M185.276 151.846L185.256 151.865L185.276 151.884L185.295 151.865L185.276 151.846Z" fill="#C2F2DE"/>
<path d="M185.937 152.522C186.287 152.171 186.314 151.579 185.937 151.201C185.56 150.824 184.994 150.824 184.616 151.201C184.266 151.552 184.239 152.145 184.616 152.522C184.994 152.872 185.56 152.872 185.937 152.522Z" fill="#61DAAC"/>
<path d="M254.68 490.981C189.709 490.981 136.839 424.367 136.839 342.501C136.839 330.321 138.024 318.221 140.342 306.526C153.384 240.29 200.408 194.021 254.68 194.021C308.143 194.021 354.978 239.427 368.613 304.451C371.2 316.766 372.52 329.566 372.52 342.501C372.52 424.367 319.65 490.981 254.68 490.981ZM254.68 202.105C204.315 202.105 160.552 245.679 148.264 308.089C146.055 319.272 144.923 330.86 144.923 342.501C144.923 419.921 194.156 482.897 254.68 482.897C315.203 482.897 364.436 419.921 364.436 342.501C364.436 330.132 363.17 317.898 360.691 306.122C347.864 244.871 304.263 202.105 254.68 202.105Z" fill="#CE3980"/>
<path d="M356.783 162.196C356.083 162.196 355.409 161.927 354.87 161.415C353.819 160.364 353.819 158.666 354.87 157.615L386.425 126.06C387.476 125.009 389.174 125.009 390.225 126.06C391.276 127.111 391.276 128.808 390.225 129.859L358.697 161.415C358.158 161.954 357.484 162.196 356.783 162.196Z" fill="white"/>
<path d="M177.017 189.44C176.236 189.44 175.454 189.09 174.915 188.443C173.972 187.284 174.134 185.587 175.293 184.643C176.02 184.051 193.24 170.2 222.505 164.541C223.96 164.244 225.388 165.214 225.657 166.669C225.927 168.125 224.984 169.553 223.529 169.822C195.584 175.239 178.877 188.685 178.715 188.82C178.203 189.224 177.61 189.44 177.017 189.44Z" fill="white"/>
<path d="M231.316 167.963C230.023 167.963 228.891 167.047 228.675 165.726C228.433 164.271 229.403 162.87 230.858 162.6C234.092 162.034 242.284 160.795 248.562 161.469C250.045 161.63 251.122 162.951 250.961 164.433C250.799 165.915 249.506 166.966 247.997 166.831C242.392 166.238 234.792 167.397 231.774 167.909C231.64 167.963 231.478 167.963 231.316 167.963Z" fill="white"/>
<path d="M289.684 120.158C288.04 120.158 286.37 120.024 284.618 119.754C283.163 119.512 282.139 118.137 282.382 116.655C282.624 115.2 283.971 114.176 285.454 114.418C300.032 116.736 310.838 105.903 310.946 105.795C311.997 104.744 313.694 104.717 314.745 105.741C315.796 106.765 315.823 108.49 314.799 109.541C314.341 110.053 304.344 120.158 289.684 120.158Z" fill="white"/>
<path d="M243.038 107.089C242.58 107.089 242.122 106.981 241.691 106.738C240.398 105.984 239.966 104.34 240.721 103.047C247.916 90.597 241.017 78.0665 240.721 77.5545C240.344 76.8808 240.263 76.0993 240.505 75.3717C240.748 74.6441 241.287 74.0513 241.987 73.7549C248.886 70.7637 251.015 66.2905 251.096 66.1018C251.715 64.7545 253.305 64.1616 254.653 64.7545C256 65.3473 256.62 66.9102 256.027 68.2846C255.919 68.5271 253.629 73.6471 246.622 77.5006C248.724 82.5397 252.12 94.1271 245.383 105.795C244.871 106.604 243.982 107.089 243.038 107.089Z" fill="white"/>
<path d="M146.729 161.522C146.028 161.522 145.327 161.253 144.815 160.714L116.332 131.692C115.281 130.641 115.308 128.916 116.359 127.892C117.41 126.841 119.134 126.868 120.158 127.919L148.615 156.941C149.666 157.992 149.639 159.717 148.588 160.741C148.076 161.253 147.402 161.522 146.729 161.522Z" fill="white"/>
<path d="M180.035 129.967C179.362 129.967 178.688 129.725 178.176 129.213C177.098 128.189 177.071 126.464 178.095 125.413C185.075 118.164 185.587 107.439 185.587 107.331C185.641 105.849 186.88 104.744 188.389 104.744C189.871 104.798 191.03 106.038 190.976 107.52C190.949 108.032 190.437 120.374 181.976 129.159C181.437 129.698 180.736 129.967 180.035 129.967Z" fill="white"/>
<path d="M230.643 132.824C230.292 132.824 229.969 132.689 229.699 132.446C229.16 131.934 229.16 131.072 229.699 130.533L247.35 112.721C247.862 112.182 248.724 112.182 249.263 112.721C249.802 113.26 249.802 114.095 249.263 114.634L231.613 132.446C231.343 132.689 230.993 132.824 230.643 132.824Z" fill="white"/>
<path d="M239.454 144.923C239.077 144.923 238.727 144.761 238.457 144.465L231.047 136.138C230.562 135.572 230.589 134.737 231.154 134.225C231.72 133.74 232.556 133.767 233.068 134.332L240.478 142.659C240.963 143.225 240.936 144.06 240.37 144.572C240.101 144.815 239.778 144.923 239.454 144.923Z" fill="white"/>
<path d="M175.158 154.112C174.403 154.112 173.811 153.492 173.811 152.764L173.891 142.282C173.891 141.554 174.511 140.935 175.239 140.935C175.993 140.935 176.586 141.554 176.586 142.282L176.505 152.791C176.505 153.519 175.912 154.112 175.158 154.112Z" fill="white"/>
<path d="M322.533 143.09H310.326C309.571 143.09 308.979 142.498 308.979 141.743C308.979 140.989 309.571 140.396 310.326 140.396H322.533C323.288 140.396 323.88 140.989 323.88 141.743C323.88 142.498 323.261 143.09 322.533 143.09Z" fill="white"/>
<path d="M452.958 403.133H58.7722V517.309H452.958V403.133Z" fill="#D9F4A4"/>
<path d="M452.958 521.351H58.7722C56.5356 521.351 54.7301 519.545 54.7301 517.309V403.133C54.7301 400.896 56.5356 399.091 58.7722 399.091H452.958C455.195 399.091 457 400.896 457 403.133V517.309C457 519.545 455.195 521.351 452.958 521.351ZM62.8143 513.267H448.916V407.175H62.8143V513.267Z" fill="#64A56A"/>
<g opacity="0.5">
<path opacity="0.5" d="M452.985 403.133V480.876C409.007 468.372 337.165 460.234 256 460.234C174.7 460.234 102.75 468.399 58.7992 480.957V403.133H452.985Z" fill="#9CCC7D"/>
</g>
<path d="M472.28 341.154H39.7205V433.314H472.28V341.154Z" fill="#D9F4A4"/>
<path d="M472.28 437.356H312.886C310.649 437.356 308.844 435.55 308.844 433.314C308.844 431.077 310.649 429.272 312.886 429.272H468.237V345.196H43.7626V429.272H140.854C143.091 429.272 144.896 431.077 144.896 433.314C144.896 435.55 143.091 437.356 140.854 437.356H39.7205C37.4838 437.356 35.6783 435.55 35.6783 433.314V341.154C35.6783 338.917 37.4838 337.112 39.7205 337.112H472.28C474.516 337.112 476.322 338.917 476.322 341.154V433.314C476.322 435.55 474.516 437.356 472.28 437.356Z" fill="#64A56A"/>
<path d="M452.958 521.351H58.7722C56.5356 521.351 54.7301 519.545 54.7301 517.309V433.314C54.7301 431.077 56.5356 429.271 58.7722 429.271C61.0088 429.271 62.8143 431.077 62.8143 433.314V513.266H448.916V433.314C448.916 431.077 450.722 429.271 452.958 429.271C455.195 429.271 457 431.077 457 433.314V517.309C457 519.545 455.195 521.351 452.958 521.351Z" fill="#64A56A"/>
<path d="M435.227 337.893V338.082C435.227 352.499 425.984 362.415 407.552 362.415C389.093 362.415 368.478 352.499 368.478 338.082C368.478 337.516 368.505 336.95 368.586 336.411C370.014 322.776 388.878 312.185 406.582 312.185C424.933 312.185 435.146 323.53 435.227 337.893Z" fill="#FFB3C9"/>
<path d="M407.552 366.457C386.722 366.457 364.436 355.058 364.436 338.082C364.436 337.3 364.49 336.546 364.598 335.791C366.323 319.326 387.719 308.143 406.582 308.143C426.038 308.143 439.161 320.081 439.269 337.866V338.082C439.269 355.597 427.116 366.457 407.552 366.457ZM406.582 316.227C389.928 316.227 373.733 326.036 372.601 336.842C372.52 337.381 372.52 337.731 372.52 338.082C372.52 349.696 391.006 358.373 407.552 358.373C422.804 358.373 431.185 351.178 431.185 338.082L435.227 337.893L431.185 337.92C431.104 324.743 421.43 316.227 406.582 316.227Z" fill="#D7699D"/>
<path d="M435.227 337.893V338.082C435.227 352.498 425.984 362.415 407.552 362.415C389.093 362.415 368.478 352.498 368.478 338.082C368.478 337.516 368.505 336.95 368.586 336.411C382.033 343.741 409.142 354.142 435.227 337.893Z" fill="#FC9FBE"/>
<path d="M414.127 355.085C412.753 355.085 411.433 354.385 410.678 353.145C409.519 351.232 410.112 348.753 412.025 347.594C419.813 342.851 418.708 335.549 418.654 335.225C418.304 333.043 419.759 330.941 421.942 330.563C424.152 330.186 426.2 331.614 426.604 333.77C426.712 334.309 428.867 346.759 416.202 354.466C415.555 354.897 414.828 355.085 414.127 355.085Z" fill="white"/>
<path d="M407.552 366.457C386.722 366.457 364.436 355.058 364.436 338.082C364.436 337.3 364.49 336.546 364.598 335.791C366.323 319.326 387.719 308.143 406.582 308.143C426.038 308.143 439.161 320.081 439.269 337.866V338.082C439.269 355.597 427.116 366.457 407.552 366.457ZM406.582 316.227C389.928 316.227 373.733 326.036 372.601 336.842C372.52 337.381 372.52 337.731 372.52 338.082C372.52 349.696 391.006 358.373 407.552 358.373C422.804 358.373 431.185 351.178 431.185 338.082L435.227 337.893L431.185 337.92C431.104 324.743 421.43 316.227 406.582 316.227Z" fill="#CE3980"/>
<path d="M74.1322 337.893V338.082C74.1322 352.499 83.3751 362.415 101.807 362.415C120.266 362.415 140.881 352.499 140.881 338.082C140.881 337.516 140.854 336.95 140.773 336.411C139.345 322.776 120.482 312.185 102.777 312.185C84.4261 312.185 74.213 323.53 74.1322 337.893Z" fill="#FFB3C9"/>
<path d="M101.807 366.457C82.2433 366.457 70.0901 355.597 70.0901 338.082V337.866C70.1979 320.081 83.3212 308.143 102.777 308.143C121.667 308.143 143.037 319.326 144.788 335.98C144.869 336.519 144.923 337.3 144.923 338.082C144.923 355.058 122.611 366.457 101.807 366.457ZM78.1743 337.92V338.109C78.1743 351.205 86.5549 358.4 101.807 358.4C118.353 358.4 136.839 349.723 136.839 338.109C136.839 337.758 136.839 337.381 136.785 337.058C135.626 326.09 119.431 316.254 102.777 316.254C87.9023 316.227 78.2551 324.743 78.1743 337.92Z" fill="#D7699D"/>
<path d="M74.1322 337.893V338.082C74.1322 352.498 83.3751 362.415 101.807 362.415C120.266 362.415 140.881 352.498 140.881 338.082C140.881 337.516 140.854 336.95 140.773 336.411C127.326 343.741 100.217 354.142 74.1322 337.893Z" fill="#FC9FBE"/>
<path d="M95.2051 355.085C94.4775 355.085 93.7499 354.897 93.1032 354.493C80.4648 346.786 82.6206 334.309 82.7284 333.797C83.1326 331.614 85.2345 330.159 87.4442 330.563C89.627 330.967 91.0821 333.069 90.6779 335.252C90.624 335.629 89.5731 342.878 97.307 347.621C99.2202 348.78 99.8131 351.259 98.6543 353.172C97.8998 354.412 96.5794 355.085 95.2051 355.085Z" fill="white"/>
<path d="M101.807 366.457C82.2433 366.457 70.0901 355.597 70.0901 338.082V337.866C70.1979 320.081 83.3212 308.143 102.777 308.143C121.667 308.143 143.037 319.326 144.788 335.98C144.869 336.519 144.923 337.3 144.923 338.082C144.923 355.058 122.611 366.457 101.807 366.457ZM78.1743 337.92V338.109C78.1743 351.205 86.5549 358.4 101.807 358.4C118.353 358.4 136.839 349.723 136.839 338.109C136.839 337.758 136.839 337.381 136.785 337.058C135.626 326.09 119.431 316.254 102.777 316.254C87.9023 316.227 78.2551 324.743 78.1743 337.92Z" fill="#CE3980"/>
</g>
</svg>
