<svg width="512" height="512" viewBox="0 0 512 512" fill="none" xmlns="http://www.w3.org/2000/svg">
<mask id="mask0_214_174" style="mask-type:alpha" maskUnits="userSpaceOnUse" x="0" y="0" width="512" height="512">
<path d="M256 512C397.385 512 512 397.385 512 256C512 114.615 397.385 0 256 0C114.615 0 0 114.615 0 256C0 397.385 114.615 512 256 512Z" fill="#E5E5E5"/>
</mask>
<g mask="url(#mask0_214_174)">
<path d="M256 512C397.385 512 512 397.385 512 256C512 114.615 397.385 0 256 0C114.615 0 0 114.615 0 256C0 397.385 114.615 512 256 512Z" fill="#DFFFD8"/>
<path d="M368.478 342.879C368.478 422.454 317.628 486.993 254.949 486.993C192.242 486.993 141.42 422.454 141.42 342.879C141.42 330.779 142.605 319.003 144.842 307.766C157.184 245.114 201.809 198.764 254.976 198.764C307.577 198.764 351.798 244.117 364.706 305.745C367.185 317.602 368.478 330.052 368.478 342.879Z" fill="#B0E8A1"/>
<path d="M254.949 487.667C191.973 487.667 140.746 422.724 140.746 342.879C140.746 330.941 141.905 319.084 144.168 307.631C156.861 243.146 202.429 198.09 254.949 198.09C306.688 198.09 352.067 242.311 365.325 305.61C367.859 317.656 369.152 330.213 369.152 342.879C369.152 422.724 317.925 487.667 254.949 487.667ZM254.949 199.438C203.075 199.438 158.073 244.036 145.489 307.901C143.225 319.273 142.093 331.049 142.093 342.879C142.093 421.969 192.728 486.319 254.949 486.319C317.171 486.319 367.805 421.969 367.805 342.879C367.805 330.294 366.538 317.844 364.005 305.88C350.882 243.227 306.041 199.438 254.949 199.438Z" fill="#B7DEEC"/>
<path d="M368.478 342.879C368.478 422.454 317.628 486.993 254.949 486.993C192.242 486.993 141.42 422.454 141.42 342.879C141.42 330.779 142.605 319.003 144.842 307.766C171.628 321.375 210.109 329.89 252.874 329.89C297.687 329.89 337.812 320.539 364.706 305.745C367.185 317.602 368.478 330.052 368.478 342.879Z" fill="#97D685"/>
<path d="M313.56 317.306C313.56 328.812 306.418 336.088 297.607 336.088C288.795 336.088 281.654 328.839 281.654 317.306C281.654 305.799 285.831 294.374 294.642 294.374C303.454 294.374 313.56 305.799 313.56 317.306Z" fill="#53893F"/>
<path d="M301.137 308.44C303.801 308.44 305.96 306.281 305.96 303.617C305.96 300.953 303.801 298.793 301.137 298.793C298.473 298.793 296.313 300.953 296.313 303.617C296.313 306.281 298.473 308.44 301.137 308.44Z" fill="white"/>
<path d="M294 331.364C298.129 330.925 300.931 325.446 300.26 319.127C299.588 312.808 295.696 308.041 291.567 308.48C287.438 308.919 284.636 314.397 285.307 320.717C285.979 327.036 289.871 331.803 294 331.364Z" fill="white"/>
<path d="M316.712 281.196C315.419 281.196 314.125 280.576 313.344 279.418C312.994 278.879 304.397 266.402 290.897 268.639C288.714 268.989 286.612 267.507 286.235 265.324C285.858 263.114 287.367 261.04 289.549 260.662C307.766 257.617 318.814 273.112 320.027 274.917C321.266 276.777 320.781 279.283 318.922 280.522C318.275 280.981 317.494 281.196 316.712 281.196Z" fill="white"/>
<path d="M194.856 317.306C194.856 328.812 201.997 336.088 210.809 336.088C219.621 336.088 226.762 328.839 226.762 317.306C226.762 305.799 222.585 294.374 213.773 294.374C204.961 294.374 194.856 305.799 194.856 317.306Z" fill="#53893F"/>
<path d="M207.279 308.44C209.943 308.44 212.102 306.281 212.102 303.617C212.102 300.953 209.943 298.793 207.279 298.793C204.615 298.793 202.455 300.953 202.455 303.617C202.455 306.281 204.615 308.44 207.279 308.44Z" fill="white"/>
<path d="M223.092 320.725C223.764 314.406 220.961 308.928 216.832 308.489C212.703 308.05 208.812 312.817 208.14 319.136C207.468 325.455 210.271 330.934 214.4 331.373C218.529 331.812 222.421 327.045 223.092 320.725Z" fill="white"/>
<path d="M191.703 281.196C190.949 281.196 190.167 280.981 189.467 280.522C187.607 279.283 187.095 276.777 188.335 274.917C188.82 274.217 200.111 257.536 218.812 260.662C221.022 261.04 222.504 263.114 222.127 265.324C221.75 267.534 219.675 269.016 217.465 268.639C203.857 266.375 195.395 278.852 195.045 279.391C194.29 280.549 193.024 281.196 191.703 281.196Z" fill="white"/>
<path d="M254.949 491.035C190.114 491.035 137.378 424.583 137.378 342.878C137.378 330.725 138.563 318.653 140.881 306.984C153.896 240.883 200.812 194.722 254.976 194.722C308.332 194.722 355.059 240.047 368.64 304.909C371.227 317.197 372.547 329.971 372.547 342.878C372.52 424.583 319.784 491.035 254.949 491.035ZM254.949 202.806C204.719 202.806 161.064 246.299 148.776 308.547C146.567 319.704 145.435 331.264 145.435 342.878C145.435 420.109 194.56 482.951 254.922 482.951C315.284 482.951 364.409 420.109 364.409 342.878C364.409 330.536 363.143 318.329 360.691 306.58C347.917 245.491 304.424 202.806 254.949 202.806Z" fill="#4F9638"/>
<path d="M452.958 396.504H58.7722V536.307H452.958V396.504Z" fill="#FF8682"/>
<path d="M452.985 396.504V465.92C409.007 454.764 337.165 447.488 256 447.488C174.7 447.488 102.75 454.791 58.7991 466.001V396.504H452.985Z" fill="#F77272"/>
<path d="M472.279 341.154H39.7202V423.424H472.279V341.154Z" fill="#FF8682"/>
<path d="M472.279 427.493H312.886C310.649 427.493 308.844 425.688 308.844 423.451C308.844 421.215 310.649 419.409 312.886 419.409H468.237V345.196H43.7624V419.382H140.854C143.09 419.382 144.896 421.188 144.896 423.424C144.896 425.661 143.09 427.466 140.854 427.466H39.7203C37.4837 427.466 35.6782 425.661 35.6782 423.424V341.154C35.6782 338.917 37.4837 337.112 39.7203 337.112H472.279C474.516 337.112 476.322 338.917 476.322 341.154V423.424C476.322 425.661 474.516 427.493 472.279 427.493Z" fill="#ED5454"/>
<path d="M452.958 540.349H58.7721C56.5355 540.349 54.73 538.543 54.73 536.307V423.451C54.73 421.215 56.5355 419.409 58.7721 419.409C61.0087 419.409 62.8142 421.215 62.8142 423.451V532.265H448.916V423.451C448.916 421.215 450.722 419.409 452.958 419.409C455.195 419.409 457 421.215 457 423.451V536.307C457 538.517 455.195 540.349 452.958 540.349Z" fill="#ED5454"/>
<path d="M435.092 338.297V338.486C435.092 352.876 425.876 362.766 407.471 362.766C389.066 362.766 368.478 352.876 368.478 338.486C368.478 337.92 368.505 337.354 368.586 336.815C370.014 323.207 388.823 312.644 406.501 312.644C424.825 312.644 435.011 323.961 435.092 338.297Z" fill="#B0E8A1"/>
<path d="M407.471 363.439C388.716 363.439 367.804 353.199 367.804 338.486C367.804 337.812 367.831 337.219 367.912 336.707C369.448 322.129 389.47 311.97 406.474 311.97C423.882 311.97 435.631 322.533 435.739 338.297V338.486C435.766 354.088 425.175 363.439 407.471 363.439ZM406.501 313.317C386.021 313.317 370.418 325.74 369.26 336.896C369.179 337.381 369.152 337.893 369.152 338.486C369.152 352.391 389.335 362.092 407.471 362.092C424.583 362.092 434.418 353.496 434.418 338.486V338.297C434.337 323.126 423.37 313.317 406.501 313.317Z" fill="#B7DEEC"/>
<path d="M435.092 338.298V338.486C435.092 352.876 425.876 362.766 407.471 362.766C389.066 362.766 368.478 352.876 368.478 338.486C368.478 337.92 368.505 337.354 368.586 336.815C382.006 344.118 409.061 354.493 435.092 338.298Z" fill="#97D685"/>
<path d="M414.046 355.436C412.672 355.436 411.351 354.735 410.597 353.496C409.438 351.582 410.031 349.103 411.944 347.944C419.705 343.229 418.6 335.926 418.573 335.63C418.223 333.447 419.678 331.345 421.861 330.968C424.071 330.59 426.119 332.019 426.523 334.174C426.631 334.713 428.786 347.136 416.148 354.843C415.474 355.247 414.747 355.436 414.046 355.436Z" fill="white"/>
<path d="M407.471 366.808C386.695 366.808 364.436 355.436 364.436 338.486C364.436 337.705 364.49 336.95 364.598 336.223C366.322 319.785 387.665 308.628 406.501 308.628C425.903 308.628 439.026 320.539 439.134 338.297V338.513C439.134 355.948 427.008 366.808 407.471 366.808ZM406.501 316.686C389.901 316.686 373.733 326.468 372.601 337.247C372.52 337.785 372.52 338.136 372.52 338.486C372.52 350.073 390.979 358.724 407.471 358.724C422.669 358.724 431.05 351.529 431.05 338.486L435.092 338.297L431.05 338.324C430.969 325.174 421.349 316.686 406.501 316.686Z" fill="#4F9638"/>
<path d="M74.8057 338.298V338.487C74.8057 352.876 84.0217 362.766 102.427 362.766C120.832 362.766 141.42 352.876 141.42 338.487C141.42 337.921 141.393 337.355 141.312 336.816C139.884 323.207 121.074 312.644 103.397 312.644C85.0726 312.644 74.8865 323.962 74.8057 338.298Z" fill="#B0E8A1"/>
<path d="M102.427 363.44C84.7224 363.44 74.1321 354.116 74.1321 338.486V338.298C74.2129 322.561 85.9889 311.97 103.397 311.97C120.428 311.97 140.45 322.156 141.986 336.735C142.066 337.22 142.093 337.813 142.093 338.459C142.093 353.173 121.182 363.44 102.427 363.44ZM75.4794 338.298V338.486C75.4794 353.496 85.2883 362.092 102.427 362.092C120.535 362.092 140.746 352.391 140.746 338.486C140.746 337.894 140.719 337.382 140.638 336.923C139.452 325.74 123.877 313.318 103.397 313.318C86.5279 313.318 75.5872 323.126 75.4794 338.298Z" fill="#B7DEEC"/>
<path d="M74.8057 338.298V338.486C74.8057 352.876 84.0217 362.766 102.427 362.766C120.832 362.766 141.42 352.876 141.42 338.486C141.42 337.92 141.393 337.354 141.312 336.815C127.892 344.118 100.837 354.493 74.8057 338.298Z" fill="#97D685"/>
<path d="M95.8516 355.436C95.124 355.436 94.3965 355.247 93.7497 354.843C81.1384 347.136 83.2942 334.714 83.375 334.175C83.7792 331.992 85.8811 330.537 88.0908 330.941C90.2735 331.345 91.7287 333.447 91.3245 335.63C91.2706 336.007 90.2196 343.256 97.9535 347.945C99.8668 349.103 100.46 351.583 99.3009 353.496C98.5464 354.762 97.2259 355.436 95.8516 355.436Z" fill="white"/>
<path d="M102.427 366.808C82.89 366.808 70.7637 355.948 70.7637 338.486V338.271C70.8715 320.539 83.9679 308.602 103.397 308.602C122.233 308.602 143.575 319.758 145.327 336.384C145.408 336.95 145.462 337.705 145.462 338.459C145.462 355.409 123.203 366.808 102.427 366.808ZM78.8479 338.298V338.459C78.8479 351.502 87.2285 358.697 102.427 358.697C118.919 358.697 137.378 350.047 137.378 338.459C137.378 338.109 137.378 337.732 137.324 337.381C136.165 326.441 120.023 316.659 103.424 316.659C88.5759 316.686 78.9287 325.174 78.8479 338.298Z" fill="#4F9638"/>
<path d="M267.372 44.9216L278.636 68.3119C280.468 72.1385 284.106 74.7793 288.31 75.3452L314.044 78.8214C324.527 80.2496 328.731 93.1574 321.078 100.46L302.322 118.407C299.25 121.344 297.876 125.602 298.631 129.779L303.265 155.325C305.152 165.727 294.184 173.703 284.86 168.691L262.009 156.403C258.263 154.382 253.79 154.382 250.044 156.403L227.166 168.691C217.842 173.703 206.875 165.727 208.761 155.325L213.396 129.779C214.151 125.602 212.776 121.317 209.704 118.407L190.949 100.46C183.296 93.1574 187.5 80.2496 197.982 78.8214L223.717 75.3452C227.921 74.7793 231.559 72.1385 233.391 68.3119L244.655 44.9216C249.209 35.3822 262.791 35.3822 267.372 44.9216Z" fill="#3C3B6E"/>
<path d="M221.157 174.269C217.708 174.269 214.312 173.191 211.375 171.062C206.147 167.262 203.614 160.957 204.773 154.597L209.408 129.051C209.92 126.195 208.977 123.311 206.902 121.317L188.146 103.37C183.484 98.897 181.814 92.3219 183.808 86.1779C185.802 80.0339 191.03 75.6684 197.416 74.8061L223.151 71.3299C226.007 70.9526 228.487 69.1471 229.726 66.5602L240.99 43.1699C243.793 37.3492 249.559 33.7383 256 33.7383C262.467 33.7383 268.207 37.3492 271.01 43.1699L282.274 66.5602C283.54 69.1741 285.992 70.9526 288.849 71.3299L314.583 74.8061C320.997 75.6684 326.198 80.0339 328.192 86.1779C330.186 92.3219 328.515 98.924 323.853 103.37L305.098 121.317C302.996 123.311 302.08 126.222 302.592 129.051L307.227 154.597C308.386 160.957 305.852 167.262 300.625 171.062C295.397 174.862 288.633 175.32 282.92 172.248L260.069 159.96C257.509 158.585 254.491 158.585 251.931 159.96L229.079 172.248C226.573 173.595 223.852 174.269 221.157 174.269ZM256 41.7955C252.631 41.7955 249.721 43.601 248.266 46.6461L237.002 70.0633C234.577 75.1294 229.78 78.6056 224.229 79.3602L198.494 82.8364C195.153 83.2945 192.539 85.4772 191.488 88.684C190.437 91.8907 191.272 95.2052 193.724 97.5496L212.48 115.497C216.549 119.377 218.354 124.982 217.357 130.506L212.722 156.052C212.13 159.367 213.396 162.547 216.118 164.541C218.839 166.535 222.262 166.75 225.226 165.161L248.077 152.873C253.036 150.205 258.937 150.205 263.868 152.873L286.72 165.161C289.684 166.75 293.106 166.535 295.828 164.541C298.55 162.547 299.843 159.394 299.223 156.052L294.588 130.506C293.591 124.982 295.397 119.377 299.466 115.497L318.221 97.5496C320.674 95.2052 321.509 91.8907 320.458 88.684C319.407 85.4772 316.793 83.2945 313.452 82.8364L287.717 79.3602C282.139 78.6056 277.369 75.1294 274.944 70.0633L263.68 46.673C262.279 43.628 259.368 41.7955 256 41.7955Z" fill="#B22234"/>
<path d="M232.313 145.112C231.774 145.112 231.235 144.95 230.777 144.626C229.564 143.764 229.268 142.093 230.13 140.881L253.79 107.17C254.652 105.957 256.323 105.661 257.536 106.523C258.748 107.385 259.045 109.056 258.183 110.269L234.523 143.98C234.011 144.707 233.175 145.112 232.313 145.112Z" fill="white"/>
<path d="M282.247 146.109C281.438 146.109 280.63 145.731 280.091 145.031L253.305 109.595V64.1078C253.305 62.6257 254.518 61.4131 256 61.4131C257.482 61.4131 258.695 62.6257 258.695 64.1078V107.79L284.402 141.797C285.292 142.983 285.076 144.68 283.863 145.57C283.378 145.947 282.813 146.109 282.247 146.109Z" fill="white"/>
<path d="M255.973 111.508L214.824 99.2204C213.396 98.7893 212.588 97.2802 213.019 95.879C213.45 94.4508 214.932 93.6423 216.36 94.0735L256 105.93L295.559 94.6124C296.987 94.2082 298.469 95.0436 298.9 96.4718C299.304 97.9 298.469 99.3821 297.041 99.8133L255.973 111.508Z" fill="white"/>
</g>
</svg>
