<svg width="512" height="512" viewBox="0 0 512 512" fill="none" xmlns="http://www.w3.org/2000/svg">
<mask id="mask0_114_88" style="mask-type:alpha" maskUnits="userSpaceOnUse" x="0" y="0" width="512" height="512">
<path d="M256 512C397.385 512 512 397.385 512 256C512 114.615 397.385 0 256 0C114.615 0 0 114.615 0 256C0 397.385 114.615 512 256 512Z" fill="#FFF9DE"/>
</mask>
<g mask="url(#mask0_114_88)">
<path d="M256 512C397.385 512 512 397.385 512 256C512 114.615 397.385 0 256 0C114.615 0 0 114.615 0 256C0 397.385 114.615 512 256 512Z" fill="#E6F5FF"/>
<path d="M368.478 342.878C368.478 422.454 317.629 486.993 254.949 486.993C192.243 486.993 141.42 422.454 141.42 342.878C141.42 330.779 142.605 319.003 144.842 307.766C157.184 245.113 201.809 198.764 254.976 198.764C307.577 198.764 351.798 244.116 364.706 305.745C367.185 317.602 368.478 330.051 368.478 342.878Z" fill="#AEDEFF"/>
<path d="M368.478 342.878C368.478 422.454 317.629 486.993 254.949 486.993C192.243 486.993 141.42 422.454 141.42 342.878C141.42 330.779 142.605 319.003 144.842 307.766C171.628 321.374 210.109 329.89 252.874 329.89C297.688 329.89 337.812 320.539 364.706 305.745C367.185 317.602 368.478 330.051 368.478 342.878Z" fill="#91D0F2"/>
<path d="M313.56 317.305C313.56 328.812 306.419 336.088 297.607 336.088C288.795 336.088 281.654 328.839 281.654 317.305C281.654 305.799 285.831 294.373 294.643 294.373C303.454 294.373 313.56 305.799 313.56 317.305Z" fill="#3D82AD"/>
<path d="M301.137 308.44C303.801 308.44 305.96 306.28 305.96 303.616C305.96 300.952 303.801 298.792 301.137 298.792C298.473 298.792 296.313 300.952 296.313 303.616C296.313 306.28 298.473 308.44 301.137 308.44Z" fill="white"/>
<path d="M294 331.363C298.129 330.924 300.932 325.446 300.26 319.127C299.588 312.807 295.696 308.04 291.567 308.479C287.438 308.918 284.636 314.397 285.307 320.716C285.979 327.035 289.871 331.802 294 331.363Z" fill="white"/>
<path d="M316.712 281.196C315.419 281.196 314.125 280.576 313.344 279.417C312.994 278.878 304.397 266.402 290.897 268.638C288.714 268.989 286.612 267.507 286.235 265.324C285.858 263.114 287.367 261.039 289.55 260.662C307.766 257.617 318.814 273.112 320.027 274.917C321.267 276.776 320.781 279.283 318.922 280.522C318.275 280.98 317.494 281.196 316.712 281.196Z" fill="white"/>
<path d="M194.856 317.305C194.856 328.812 201.997 336.088 210.809 336.088C219.621 336.088 226.762 328.839 226.762 317.305C226.762 305.799 222.585 294.373 213.773 294.373C204.962 294.373 194.856 305.799 194.856 317.305Z" fill="#3D82AD"/>
<path d="M207.279 308.44C209.943 308.44 212.103 306.28 212.103 303.616C212.103 300.952 209.943 298.792 207.279 298.792C204.615 298.792 202.456 300.952 202.456 303.616C202.456 306.28 204.615 308.44 207.279 308.44Z" fill="white"/>
<path d="M223.092 320.725C223.764 314.405 220.961 308.927 216.832 308.488C212.703 308.049 208.812 312.816 208.14 319.135C207.468 325.455 210.271 330.933 214.4 331.372C218.529 331.811 222.421 327.044 223.092 320.725Z" fill="white"/>
<path d="M191.704 281.196C190.949 281.196 190.168 280.98 189.467 280.522C187.608 279.283 187.096 276.776 188.335 274.917C188.82 274.216 200.111 257.536 218.813 260.662C221.022 261.039 222.504 263.114 222.127 265.324C221.75 267.533 219.675 269.016 217.465 268.638C203.857 266.375 195.395 278.851 195.045 279.39C194.291 280.549 193.024 281.196 191.704 281.196Z" fill="white"/>
<path d="M254.949 491.035C190.114 491.035 137.378 424.583 137.378 342.878C137.378 330.725 138.563 318.653 140.881 306.984C153.896 240.882 200.812 194.722 254.976 194.722C308.332 194.722 355.059 240.047 368.64 304.909C371.227 317.197 372.547 329.97 372.547 342.878C372.52 424.583 319.784 491.035 254.949 491.035ZM254.949 202.806C204.719 202.806 161.064 246.299 148.776 308.547C146.567 319.704 145.435 331.264 145.435 342.878C145.435 420.109 194.56 482.951 254.922 482.951C315.284 482.951 364.409 420.109 364.409 342.878C364.409 330.536 363.143 318.329 360.691 306.58C347.917 245.491 304.424 202.806 254.949 202.806Z" fill="#5196C2"/>
<path d="M452.958 396.504H58.7722V536.307H452.958V396.504Z" fill="#FFCD92"/>
<path d="M452.985 396.504V465.92C409.007 454.764 337.165 447.488 256 447.488C174.7 447.488 102.75 454.791 58.7992 466.001V396.504H452.985Z" fill="#F9BF80"/>
<path d="M472.28 341.154H39.7204V423.424H472.28V341.154Z" fill="#FFCD92"/>
<path d="M472.28 427.493H312.886C310.649 427.493 308.844 425.688 308.844 423.451C308.844 421.214 310.649 419.409 312.886 419.409H468.237V345.196H43.7625V419.382H140.854C143.091 419.382 144.896 421.187 144.896 423.424C144.896 425.661 143.091 427.466 140.854 427.466H39.7204C37.4838 427.466 35.6783 425.661 35.6783 423.424V341.154C35.6783 338.917 37.4838 337.112 39.7204 337.112H472.28C474.516 337.112 476.322 338.917 476.322 341.154V423.424C476.322 425.661 474.516 427.493 472.28 427.493Z" fill="#EA9242"/>
<path d="M452.958 540.349H58.7722C56.5356 540.349 54.7301 538.543 54.7301 536.307V423.451C54.7301 421.214 56.5356 419.409 58.7722 419.409C61.0088 419.409 62.8143 421.214 62.8143 423.451V532.265H448.916V423.451C448.916 421.214 450.722 419.409 452.958 419.409C455.195 419.409 457 421.214 457 423.451V536.307C457 538.516 455.195 540.349 452.958 540.349Z" fill="#EA9242"/>
<path d="M435.092 338.297V338.486C435.092 352.876 425.876 362.765 407.471 362.765C389.066 362.765 368.478 352.876 368.478 338.486C368.478 337.92 368.505 337.354 368.586 336.815C370.014 323.207 388.824 312.643 406.501 312.643C424.825 312.643 435.011 323.961 435.092 338.297Z" fill="#AEDEFF"/>
<path d="M435.092 338.297V338.486C435.092 352.876 425.876 362.766 407.471 362.766C389.066 362.766 368.478 352.876 368.478 338.486C368.478 337.92 368.505 337.354 368.586 336.815C382.006 344.118 409.061 354.493 435.092 338.297Z" fill="#91D0F2"/>
<path d="M414.046 355.436C412.672 355.436 411.352 354.735 410.597 353.496C409.438 351.582 410.031 349.103 411.944 347.944C419.705 343.229 418.6 335.926 418.573 335.629C418.223 333.447 419.678 331.345 421.861 330.968C424.071 330.59 426.119 332.018 426.523 334.174C426.631 334.713 428.786 347.136 416.148 354.843C415.474 355.247 414.747 355.436 414.046 355.436Z" fill="white"/>
<path d="M407.471 366.808C386.695 366.808 364.436 355.436 364.436 338.486C364.436 337.704 364.49 336.95 364.598 336.222C366.323 319.784 387.665 308.628 406.501 308.628C425.903 308.628 439.027 320.539 439.134 338.297V338.513C439.134 355.948 427.008 366.808 407.471 366.808ZM406.501 316.685C389.901 316.685 373.733 326.467 372.601 337.246C372.52 337.785 372.52 338.136 372.52 338.486C372.52 350.073 390.979 358.723 407.471 358.723C422.669 358.723 431.05 351.528 431.05 338.486L435.092 338.297L431.05 338.324C430.969 325.174 421.349 316.685 406.501 316.685Z" fill="#5196C2"/>
<path d="M74.8059 338.297V338.486C74.8059 352.876 84.0219 362.765 102.427 362.765C120.832 362.765 141.42 352.876 141.42 338.486C141.42 337.92 141.393 337.354 141.312 336.815C139.884 323.207 121.075 312.643 103.397 312.643C85.0728 312.643 74.8867 323.961 74.8059 338.297Z" fill="#AEDEFF"/>
<path d="M74.8059 338.297V338.486C74.8059 352.876 84.0219 362.765 102.427 362.765C120.832 362.765 141.42 352.876 141.42 338.486C141.42 337.92 141.393 337.354 141.312 336.815C127.892 344.118 100.837 354.493 74.8059 338.297Z" fill="#91D0F2"/>
<path d="M95.8518 355.436C95.1242 355.436 94.3966 355.247 93.7499 354.843C81.1385 347.136 83.2943 334.713 83.3752 334.174C83.7794 331.992 85.8813 330.536 88.0909 330.941C90.2737 331.345 91.7288 333.447 91.3246 335.629C91.2707 336.007 90.2198 343.256 97.9537 347.944C99.8669 349.103 100.46 351.582 99.301 353.496C98.5465 354.762 97.2261 355.436 95.8518 355.436Z" fill="white"/>
<path d="M102.427 366.807C82.8901 366.807 70.7638 355.948 70.7638 338.486V338.27C70.8716 320.539 83.968 308.601 103.397 308.601C122.233 308.601 143.576 319.757 145.327 336.384C145.408 336.95 145.462 337.704 145.462 338.459C145.462 355.409 123.203 366.807 102.427 366.807ZM78.848 338.297V338.459C78.848 351.501 87.2286 358.696 102.427 358.696C118.919 358.696 137.378 350.046 137.378 338.459C137.378 338.109 137.378 337.731 137.324 337.381C136.165 326.44 120.024 316.658 103.424 316.658C88.576 316.685 78.9288 325.174 78.848 338.297Z" fill="#5196C2"/>
<path d="M192.269 201.674L140.504 213.72C140.504 213.72 121.479 217.923 129.186 232.394C136.893 246.838 256.108 228.19 256.108 228.19L192.269 201.674Z" fill="#FFEDA1"/>
<path d="M156.672 241.933C133.632 241.933 127.704 238.269 125.602 234.28C122.26 228.029 123.149 223.286 124.497 220.403C128.135 212.534 138.456 210.028 139.614 209.785L191.353 197.767C192.189 197.578 193.024 197.659 193.832 197.982L257.644 224.472C259.315 225.172 260.312 226.897 260.096 228.675C259.88 230.454 258.506 231.909 256.701 232.179C256.404 232.232 226.412 236.894 195.88 239.724C179.119 241.287 166.373 241.933 156.672 241.933ZM191.919 205.905L141.393 217.654C139.264 218.139 133.47 220.16 131.827 223.798C131.53 224.472 130.587 226.493 132.743 230.481C136.488 235.655 178.419 235.304 241.125 226.331L191.919 205.905Z" fill="#FFB600"/>
<path d="M180.817 207.09L198.279 148.076C198.279 148.076 205.339 118.568 280.172 134.818C355.005 151.067 345.196 198.629 345.196 198.629L333.743 238.376C333.743 238.403 242.23 248.643 180.817 207.09Z" fill="#FFEDA1"/>
<path d="M307.577 243.631C275.429 243.631 220.564 238.861 178.553 210.432C177.098 209.435 176.451 207.629 176.936 205.932L194.398 146.917C194.668 145.758 203.21 113.96 281.007 130.856C358.858 147.779 349.238 198.925 349.13 199.437C349.103 199.545 349.076 199.653 349.049 199.734L337.597 239.481C337.139 241.044 335.791 242.203 334.174 242.392C332.989 242.553 322.829 243.631 307.577 243.631ZM185.56 205.366C239.131 239.912 315.473 235.843 330.644 234.631L341.261 197.74C341.827 194.668 347.864 153.708 279.309 138.806C210.163 123.796 202.267 148.857 202.186 149.127L185.56 205.366Z" fill="#FFB600"/>
<path d="M218.381 229.672C218.328 229.672 218.274 229.672 218.193 229.672C215.956 229.565 214.232 227.678 214.339 225.442C216.522 176.451 227.382 145.435 246.595 133.282C261.255 124.012 275.025 129.617 275.618 129.859C277.666 130.722 278.636 133.093 277.773 135.141C276.911 137.189 274.54 138.159 272.492 137.297C272.007 137.108 261.767 133.12 250.772 140.18C239.266 147.564 224.984 168.421 222.424 225.792C222.316 227.975 220.537 229.672 218.381 229.672Z" fill="#FFB600"/>
<path d="M303.643 243.523C303.266 243.523 302.888 243.469 302.484 243.362C300.355 242.742 299.116 240.478 299.763 238.349C299.924 237.784 316.308 181.275 299.547 153.196C294.912 145.408 288.283 140.719 279.336 138.806C277.154 138.348 275.752 136.192 276.211 134.009C276.669 131.826 278.824 130.425 281.007 130.883C292.136 133.255 300.733 139.345 306.499 149.046C325.039 180.17 308.251 238.161 307.523 240.613C307.011 242.392 305.395 243.523 303.643 243.523Z" fill="#FFB600"/>
<path d="M289.641 136.669C290.842 132.369 287.574 127.698 282.341 126.238C277.109 124.777 271.894 127.079 270.694 131.379C269.493 135.68 272.761 140.35 277.994 141.811C283.226 143.272 288.441 140.97 289.641 136.669Z" fill="#FFEDA1"/>
<path d="M281.115 146.324C279.741 146.324 278.312 146.136 276.911 145.731C269.555 143.683 265.027 136.758 266.806 130.317C268.611 123.877 276.049 120.293 283.432 122.368C290.789 124.416 295.316 131.341 293.538 137.782C292.083 142.983 286.909 146.324 281.115 146.324ZM279.175 129.859C276.938 129.859 275.052 130.883 274.594 132.5C274.001 134.629 276.049 137.108 279.067 137.971C282.112 138.806 285.13 137.728 285.723 135.626C286.316 133.497 284.268 131.018 281.25 130.156C280.549 129.94 279.848 129.859 279.175 129.859Z" fill="#FFB600"/>
</g>
</svg>
