<svg width="512" height="512" viewBox="0 0 512 512" fill="none" xmlns="http://www.w3.org/2000/svg">
<mask id="mask0_109_2" style="mask-type:alpha" maskUnits="userSpaceOnUse" x="0" y="0" width="512" height="512">
<path d="M256 512C397.385 512 512 397.385 512 256C512 114.615 397.385 0 256 0C114.615 0 0 114.615 0 256C0 397.385 114.615 512 256 512Z" fill="white"/>
</mask>
<g mask="url(#mask0_109_2)">
<path d="M256 512C397.385 512 512 397.385 512 256C512 114.615 397.385 0 256 0C114.615 0 0 114.615 0 256C0 397.385 114.615 512 256 512Z" fill="#FFF4EB"/>
<path d="M368.478 342.878C368.478 422.454 317.629 486.993 254.949 486.993C192.243 486.993 141.42 422.454 141.42 342.878C141.42 330.779 142.606 319.003 144.842 307.766C157.184 245.113 201.809 198.764 254.976 198.764C307.577 198.764 351.798 244.116 364.706 305.745C367.185 317.602 368.478 330.051 368.478 342.878Z" fill="#FFCFAE"/>
<path d="M368.478 342.878C368.478 422.454 317.629 486.993 254.949 486.993C192.243 486.993 141.42 422.454 141.42 342.878C141.42 330.779 142.606 319.003 144.842 307.766C171.628 321.374 210.109 329.889 252.874 329.889C297.688 329.889 337.812 320.539 364.706 305.745C367.185 317.601 368.478 330.051 368.478 342.878Z" fill="#F4BC9D"/>
<path d="M313.56 317.305C313.56 328.812 306.419 336.088 297.607 336.088C288.795 336.088 281.654 328.839 281.654 317.305C281.654 305.799 285.831 294.373 294.643 294.373C303.454 294.373 313.56 305.799 313.56 317.305Z" fill="#D3805F"/>
<path d="M301.137 308.44C303.801 308.44 305.96 306.28 305.96 303.616C305.96 300.952 303.801 298.792 301.137 298.792C298.473 298.792 296.313 300.952 296.313 303.616C296.313 306.28 298.473 308.44 301.137 308.44Z" fill="white"/>
<path d="M294 331.364C298.129 330.925 300.932 325.446 300.26 319.127C299.588 312.808 295.696 308.041 291.567 308.479C287.438 308.918 284.636 314.397 285.307 320.716C285.979 327.036 289.871 331.803 294 331.364Z" fill="white"/>
<path d="M316.712 281.196C315.419 281.196 314.125 280.576 313.344 279.417C312.994 278.878 304.397 266.402 290.897 268.638C288.714 268.989 286.612 267.507 286.235 265.324C285.858 263.114 287.367 261.039 289.549 260.662C307.766 257.617 318.814 273.112 320.027 274.917C321.266 276.777 320.781 279.283 318.922 280.522C318.275 280.98 317.494 281.196 316.712 281.196Z" fill="white"/>
<path d="M194.857 317.305C194.857 328.812 201.998 336.088 210.809 336.088C219.621 336.088 226.762 328.839 226.762 317.305C226.762 305.799 222.585 294.373 213.774 294.373C204.962 294.373 194.857 305.799 194.857 317.305Z" fill="#D3805F"/>
<path d="M207.279 308.44C209.943 308.44 212.103 306.28 212.103 303.616C212.103 300.952 209.943 298.792 207.279 298.792C204.615 298.792 202.456 300.952 202.456 303.616C202.456 306.28 204.615 308.44 207.279 308.44Z" fill="white"/>
<path d="M223.093 320.725C223.764 314.406 220.962 308.927 216.833 308.488C212.704 308.05 208.812 312.816 208.14 319.136C207.468 325.455 210.271 330.934 214.4 331.373C218.529 331.811 222.421 327.044 223.093 320.725Z" fill="white"/>
<path d="M191.704 281.196C190.949 281.196 190.168 280.98 189.467 280.522C187.608 279.282 187.096 276.776 188.335 274.917C188.82 274.216 200.111 257.536 218.813 260.662C221.022 261.039 222.505 263.114 222.127 265.324C221.75 267.533 219.675 269.015 217.465 268.638C203.857 266.375 195.396 278.851 195.045 279.39C194.291 280.549 193.024 281.196 191.704 281.196Z" fill="white"/>
<path d="M254.949 491.035C190.114 491.035 137.378 424.583 137.378 342.878C137.378 330.725 138.563 318.653 140.881 306.984C153.896 240.883 200.812 194.722 254.976 194.722C308.332 194.722 355.059 240.047 368.64 304.909C371.227 317.197 372.547 329.97 372.547 342.878C372.521 424.583 319.785 491.035 254.949 491.035ZM254.949 202.806C204.719 202.806 161.064 246.299 148.776 308.547C146.567 319.704 145.435 331.264 145.435 342.878C145.435 420.109 194.56 482.951 254.922 482.951C315.284 482.951 364.409 420.109 364.409 342.878C364.409 330.536 363.143 318.329 360.691 306.58C347.918 245.49 304.425 202.806 254.949 202.806Z" fill="#D07957"/>
<path d="M452.958 396.504H58.7722V536.307H452.958V396.504Z" fill="#CADEFF"/>
<path d="M452.985 396.504V465.92C409.007 454.764 337.166 447.488 256 447.488C174.7 447.488 102.75 454.791 58.7992 466.001V396.504H452.985Z" fill="#B2CEF7"/>
<path d="M472.28 341.154H39.7205V423.424H472.28V341.154Z" fill="#CADEFF"/>
<path d="M472.28 427.493H312.886C310.649 427.493 308.844 425.688 308.844 423.451C308.844 421.214 310.649 419.409 312.886 419.409H468.237V345.196H43.7626V419.382H140.854C143.091 419.382 144.896 421.187 144.896 423.424C144.896 425.661 143.091 427.466 140.854 427.466H39.7204C37.4838 427.466 35.6783 425.661 35.6783 423.424V341.154C35.6783 338.917 37.4838 337.112 39.7204 337.112H472.28C474.516 337.112 476.322 338.917 476.322 341.154V423.424C476.322 425.661 474.516 427.493 472.28 427.493Z" fill="#7FACE2"/>
<path d="M452.958 540.349H58.7722C56.5356 540.349 54.7301 538.543 54.7301 536.307V423.451C54.7301 421.214 56.5356 419.409 58.7722 419.409C61.0088 419.409 62.8143 421.214 62.8143 423.451V532.265H448.916V423.451C448.916 421.214 450.722 419.409 452.958 419.409C455.195 419.409 457 421.214 457 423.451V536.307C457 538.516 455.195 540.349 452.958 540.349Z" fill="#7FACE2"/>
<path d="M435.092 338.297V338.486C435.092 352.876 425.876 362.766 407.471 362.766C389.066 362.766 368.478 352.876 368.478 338.486C368.478 337.92 368.505 337.354 368.586 336.815C370.014 323.207 388.824 312.644 406.501 312.644C424.825 312.644 435.011 323.961 435.092 338.297Z" fill="#FFCFAE"/>
<path d="M435.092 338.298V338.486C435.092 352.876 425.876 362.766 407.471 362.766C389.066 362.766 368.478 352.876 368.478 338.486C368.478 337.92 368.505 337.354 368.586 336.815C382.006 344.118 409.061 354.493 435.092 338.298Z" fill="#F4BC9D"/>
<path d="M414.046 355.436C412.672 355.436 411.351 354.735 410.597 353.496C409.438 351.583 410.031 349.103 411.944 347.945C419.705 343.229 418.6 335.926 418.573 335.63C418.223 333.447 419.678 331.345 421.861 330.968C424.071 330.591 426.119 332.019 426.523 334.175C426.631 334.714 428.786 347.136 416.148 354.843C415.474 355.247 414.747 355.436 414.046 355.436Z" fill="white"/>
<path d="M407.471 366.808C386.695 366.808 364.436 355.436 364.436 338.486C364.436 337.705 364.49 336.95 364.598 336.223C366.323 319.785 387.665 308.628 406.501 308.628C425.903 308.628 439.027 320.539 439.134 338.297V338.513C439.134 355.948 427.008 366.808 407.471 366.808ZM406.501 316.686C389.902 316.686 373.733 326.468 372.601 337.247C372.52 337.785 372.52 338.136 372.52 338.486C372.52 350.073 390.979 358.724 407.471 358.724C422.67 358.724 431.05 351.529 431.05 338.486L435.092 338.297L431.05 338.324C430.969 325.174 421.349 316.686 406.501 316.686Z" fill="#D07957"/>
<path d="M74.8062 338.297V338.486C74.8062 352.876 84.0221 362.766 102.427 362.766C120.832 362.766 141.42 352.876 141.42 338.486C141.42 337.92 141.393 337.354 141.312 336.815C139.884 323.207 121.075 312.644 103.397 312.644C85.0731 312.644 74.887 323.961 74.8062 338.297Z" fill="#FFCFAE"/>
<path d="M74.8062 338.297V338.486C74.8062 352.876 84.0221 362.766 102.427 362.766C120.832 362.766 141.42 352.876 141.42 338.486C141.42 337.92 141.393 337.354 141.312 336.815C127.892 344.118 100.837 354.493 74.8062 338.297Z" fill="#F4BC9D"/>
<path d="M95.852 355.436C95.1244 355.436 94.3968 355.247 93.7501 354.843C81.1387 347.136 83.2945 334.714 83.3754 334.175C83.7796 331.992 85.8815 330.537 88.0912 330.941C90.2739 331.345 91.729 333.447 91.3248 335.63C91.2709 336.007 90.22 343.256 97.9539 347.945C99.8672 349.103 100.46 351.583 99.3013 353.496C98.5467 354.762 97.2263 355.436 95.852 355.436Z" fill="white"/>
<path d="M102.427 366.808C82.8902 366.808 70.7639 355.948 70.7639 338.486V338.27C70.8717 320.539 83.9681 308.601 103.397 308.601C122.233 308.601 143.576 319.758 145.327 336.384C145.408 336.95 145.462 337.705 145.462 338.459C145.462 355.409 123.203 366.808 102.427 366.808ZM78.8481 338.297V338.459C78.8481 351.502 87.2288 358.697 102.427 358.697C118.919 358.697 137.378 350.046 137.378 338.459C137.378 338.109 137.378 337.731 137.324 337.381C136.165 326.44 120.024 316.659 103.424 316.659C88.5761 316.686 78.929 325.174 78.8481 338.297Z" fill="#D07957"/>
<path d="M256 105.364C192.323 105.364 140.719 120.859 140.719 139.992C140.719 159.124 192.323 174.619 256 174.619C319.677 174.619 371.281 159.124 371.281 139.992C371.281 120.859 319.677 105.364 256 105.364ZM256 154.786C203.695 154.786 161.307 146.755 161.307 136.866C161.307 126.976 203.695 118.973 256 118.973C308.305 118.973 350.693 126.976 350.693 136.866C350.693 146.755 308.305 154.786 256 154.786Z" fill="#FFF780"/>
<path d="M256 178.661C198.144 178.661 136.677 165.106 136.677 139.992C136.677 114.877 198.144 101.322 256 101.322C313.856 101.322 375.323 114.877 375.323 139.992C375.323 165.106 313.856 178.661 256 178.661ZM256 109.406C190.437 109.406 144.761 125.521 144.761 139.992C144.761 154.462 190.437 170.577 256 170.577C321.563 170.577 367.239 154.462 367.239 139.992C367.239 125.521 321.563 109.406 256 109.406ZM256 158.828C251.958 158.828 157.265 158.585 157.265 136.866C157.265 115.173 251.958 114.93 256 114.93C260.042 114.93 354.735 115.173 354.735 136.866C354.735 158.585 260.042 158.828 256 158.828ZM165.376 136.866C167.667 141.932 199.411 150.744 256 150.744C312.59 150.744 344.334 141.932 346.624 136.866C344.334 131.826 312.59 123.015 256 123.015C199.411 123.015 167.667 131.826 165.376 136.866Z" fill="#FFCB12"/>
<path d="M300.355 188.362C298.307 188.362 296.529 186.799 296.34 184.697C296.125 182.488 297.768 180.493 299.978 180.305C343.336 176.209 365.891 160.337 366.134 160.175C367.939 158.882 370.472 159.286 371.766 161.091C373.059 162.897 372.655 165.43 370.85 166.723C369.88 167.424 346.274 184.05 300.76 188.335C300.625 188.362 300.49 188.362 300.355 188.362Z" fill="#FFCB12"/>
<path d="M131.611 156.295C130.318 156.295 129.024 155.675 128.243 154.516C120.428 142.902 122.395 133.713 125.413 128.054C133.39 113.071 156.995 106.415 158.343 106.415C160.579 106.415 162.385 108.221 162.385 110.457C162.385 112.478 160.93 114.122 158.99 114.446C155.406 115.281 136.327 122.018 131.8 133.443C129.806 138.483 130.83 143.899 134.926 150.016C136.165 151.875 135.68 154.382 133.821 155.621C133.174 156.079 132.392 156.295 131.611 156.295Z" fill="#FFCB12"/>
<path d="M187.203 139.641C185.371 139.641 183.727 138.402 183.269 136.542C182.757 134.359 184.078 132.204 186.26 131.665C187.069 131.476 206.12 126.976 239.885 125.898C242.149 125.844 243.982 127.569 244.062 129.805C244.143 132.042 242.392 133.901 240.155 133.982C207.333 135.033 188.362 139.479 188.174 139.533C187.823 139.614 187.5 139.641 187.203 139.641Z" fill="#FFCB12"/>
<path d="M157.292 175.427C156.861 175.427 156.429 175.373 156.025 175.212C149.073 172.894 137.701 164.621 136.435 163.705C134.629 162.385 134.252 159.852 135.572 158.046C136.893 156.241 139.426 155.863 141.231 157.184C144.411 159.501 153.708 165.915 158.585 167.532C160.714 168.232 161.846 170.523 161.145 172.652C160.552 174.349 158.989 175.427 157.292 175.427Z" fill="#FFCB12"/>
</g>
</svg>
