<svg width="200" viewBox="0 0 278 85" fill="none" xmlns="http://www.w3.org/2000/svg" style="transform: scale(.8)">
<g clip-path="url(#clip0)">
<path d="M187.19 0.579934H182.72C181.475 0.526389 180.246 0.87601 179.215 1.57684C178.185 2.27767 177.408 3.29229 177 4.46993L162.76 49.8899L146.92 3.63993C146.08 1.33993 144.79 0.639934 139.63 0.639934C134.47 0.639934 133.18 1.50993 132.43 3.63993L117.14 49.9399L102.14 4.51993C101.732 3.33696 100.953 2.31736 99.9185 1.61286C98.8843 0.908354 97.6502 0.556598 96.4 0.609934H91.46C84.97 0.609934 84.37 3.60993 85.46 6.75993L109.83 79.3199C111.5 84.0599 115.58 83.5599 117.14 83.5599C118.7 83.5599 123.05 84.0599 124.7 79.3199L139.81 34.6399L155.18 79.3399C157.36 84.0599 158.82 83.5499 162.66 83.5499C166.1 83.5499 168.47 84.0599 170.29 79.3399L195.39 6.79993C195.595 6.22543 195.684 5.61622 195.653 5.00715C195.622 4.39808 195.471 3.80109 195.209 3.25034C194.947 2.69958 194.579 2.20586 194.127 1.79741C193.674 1.38896 193.145 1.07379 192.57 0.869934C192.016 0.668608 191.428 0.580203 190.84 0.609934C189.33 0.609934 188 0.599934 187.19 0.579934Z" fill="#9CA9B3"/>
<path d="M42 84.07C33.6932 84.07 25.5729 81.6067 18.6661 76.9917C11.7592 72.3767 6.37596 65.8172 3.19708 58.1427C0.0181978 50.4682 -0.813542 42.0234 0.807037 33.8762C2.42762 25.729 6.42773 18.2453 12.3015 12.3715C18.1753 6.49768 25.659 2.49756 33.8062 0.876983C41.9534 -0.743596 50.3982 0.0881441 58.0727 3.26702C65.7472 6.44591 72.3067 11.8292 76.9217 18.736C81.5368 25.6429 84 33.7632 84 42.07C84 53.2091 79.575 63.8919 71.6985 71.7684C63.822 79.645 53.1391 84.07 42 84.07V84.07ZM42 16.81C37.0021 16.808 32.1158 18.2881 27.9591 21.0632C23.8023 23.8382 20.5619 27.7836 18.6474 32.4003C16.733 37.017 16.2305 42.0978 17.2036 47.0001C18.1767 51.9024 20.5817 56.406 24.1144 59.9415C27.647 63.4769 32.1488 65.8855 37.0503 66.8624C41.9518 67.8394 47.0329 67.341 51.6512 65.4302C56.2694 63.5194 60.2174 60.2821 62.9957 56.1275C65.774 51.973 67.258 47.0879 67.26 42.09V42.09C67.2627 35.387 64.6032 28.9574 59.8663 24.2149C55.1294 19.4724 48.703 16.8053 42 16.8V16.81Z" fill="#9CA9B3"/>
<path d="M261 52.29C258.654 57.5881 254.559 61.9192 249.401 64.5577C244.242 67.1963 238.334 67.982 232.665 66.7832C226.996 65.5845 221.912 62.4741 218.263 57.9731C214.614 53.4722 212.623 47.8541 212.623 42.06C212.623 36.2659 214.614 30.6477 218.263 26.1468C221.912 21.6458 226.996 18.5354 232.665 17.3367C238.334 16.138 244.242 16.9237 249.401 19.5622C254.559 22.2008 258.654 26.5319 261 31.83C261.449 32.8485 262.182 33.7158 263.111 34.3278C264.041 34.9398 265.127 35.2704 266.24 35.28H272C273.519 35.2747 274.974 34.6676 276.046 33.5917C277.118 32.5158 277.72 31.0589 277.72 29.54C277.723 28.8569 277.601 28.1792 277.36 27.54C273.962 18.2784 267.413 10.5083 258.86 5.59198C250.307 0.67568 240.297 -1.07307 230.584 0.652331C220.871 2.37773 212.075 7.46715 205.739 15.0283C199.402 22.5895 195.93 32.1398 195.93 42.005C195.93 51.8701 199.402 61.4204 205.739 68.9816C212.075 76.5428 220.871 81.6322 230.584 83.3576C240.297 85.083 250.307 83.3342 258.86 78.4179C267.413 73.5016 273.962 65.7316 277.36 56.47C277.613 55.7635 277.723 55.0142 277.686 54.2648C277.649 53.5155 277.464 52.7809 277.143 52.103C276.821 51.425 276.37 50.817 275.813 50.3138C275.257 49.8105 274.607 49.4218 273.9 49.17C273.278 48.9457 272.621 48.834 271.96 48.84H266.2C265.092 48.8485 264.01 49.1792 263.087 49.7918C262.164 50.4044 261.439 51.2724 261 52.29V52.29Z" fill="#9CA9B3"/>
</g>
<defs>
<clipPath id="clip0">
    <rect width="277.67" height="84.07" fill="#9CA9B3"/>
</clipPath>
</defs>
 </svg>
