<svg viewBox="0 0 977 229" fill="none" xmlns="http://www.w3.org/2000/svg">
    <g clip-path="url(#clip0_4_121)">
        <path d="M353.56 30.35H367.56V35.88C369.134 33.8423 371.198 32.2359 373.56 31.21C376.257 30.0582 379.168 29.4924 382.1 29.55C386.407 29.4508 390.655 30.563 394.36 32.76C397.889 34.9589 400.7 38.1386 402.45 41.91C404.44 46.2226 405.421 50.9316 405.32 55.68C405.422 60.4312 404.369 65.1361 402.25 69.39C400.314 73.1939 397.334 76.3678 393.66 78.54C389.784 80.7709 385.371 81.8983 380.9 81.8C378.221 81.8377 375.56 81.3625 373.06 80.4C370.904 79.6015 368.997 78.2495 367.53 76.48V101.48H353.53L353.56 30.35ZM370.14 65.88C372.402 68.2639 375.518 69.6525 378.803 69.7406C382.088 69.8287 385.273 68.6092 387.66 66.35C387.82 66.2 387.98 66.04 388.13 65.88C390.503 63.026 391.723 59.3877 391.55 55.68C391.736 51.9401 390.516 48.2661 388.13 45.38C385.871 42.9953 382.758 41.6052 379.474 41.5152C376.191 41.4252 373.006 42.6426 370.62 44.9L370.14 45.38C367.758 48.2676 366.542 51.9414 366.73 55.68C366.553 59.3865 367.77 63.025 370.14 65.88V65.88ZM423.3 78.44C419.307 76.2788 416.001 73.039 413.76 69.09C411.514 64.9753 410.337 60.3627 410.337 55.675C410.337 50.9873 411.514 46.3746 413.76 42.26C415.999 38.3117 419.305 35.0746 423.3 32.92C427.553 30.7078 432.276 29.5529 437.07 29.5529C441.864 29.5529 446.587 30.7078 450.84 32.92C454.835 35.0746 458.141 38.3117 460.38 42.26C462.626 46.3746 463.803 50.9873 463.803 55.675C463.803 60.3627 462.626 64.9753 460.38 69.09C458.139 73.039 454.833 76.2788 450.84 78.44C446.587 80.6522 441.864 81.8071 437.07 81.8071C432.276 81.8071 427.553 80.6522 423.3 78.44V78.44ZM427.93 65.83C429.073 67.0309 430.442 67.9947 431.958 68.6663C433.475 69.338 435.108 69.7042 436.766 69.7441C438.424 69.7841 440.073 69.4969 441.62 68.8991C443.166 68.3012 444.58 67.4045 445.78 66.26C445.93 66.12 446.07 65.97 446.21 65.83C448.629 63.016 449.887 59.3874 449.73 55.68C449.9 51.9404 448.641 48.2762 446.21 45.43C445.067 44.2291 443.698 43.2652 442.182 42.5936C440.665 41.922 439.032 41.5558 437.374 41.5158C435.716 41.4759 434.067 41.7631 432.52 42.3609C430.974 42.9587 429.56 43.8555 428.36 45C428.21 45.14 428.07 45.29 427.93 45.44C425.498 48.2862 424.24 51.9504 424.41 55.69C424.253 59.3974 425.511 63.026 427.93 65.84V65.83ZM472.24 8.34999H486.24V81H472.24V8.34999ZM511.13 80.6L492.74 30.35H507L517.66 63L528.21 30.34H542.58L524.19 80.8L517.06 101.5H503.69L511.13 80.6ZM550.57 74.72C546.12 69.4196 543.841 62.6318 544.19 55.72C544.09 50.9728 545.068 46.2648 547.05 41.95C548.821 38.1611 551.67 34.9784 555.24 32.8C559.085 30.5784 563.471 29.4672 567.91 29.59C570.717 29.5508 573.504 30.0815 576.1 31.15C578.362 32.0518 580.353 33.5227 581.88 35.42V30.42H595.94V84C596.043 86.3717 595.63 88.7376 594.728 90.9338C593.827 93.1301 592.459 95.1043 590.72 96.72C586.88 100.031 581.914 101.738 576.85 101.49H551.33V90.49H574.64C575.63 90.5191 576.614 90.332 577.524 89.9417C578.435 89.5514 579.249 88.9672 579.91 88.23C581.312 86.6602 582.059 84.6136 582 82.51V75.88C580.59 77.8546 578.633 79.3736 576.37 80.25C573.754 81.3108 570.953 81.8378 568.13 81.8C564.863 81.9749 561.598 81.4316 558.564 80.2084C555.53 78.9852 552.802 77.1117 550.57 74.72V74.72ZM561.32 65.93C562.444 67.1933 563.834 68.1912 565.391 68.8518C566.947 69.5125 568.631 69.8192 570.32 69.75C572.008 69.8088 573.688 69.4973 575.243 68.8374C576.798 68.1774 578.19 67.1851 579.32 65.93C581.708 63.0645 582.929 59.405 582.74 55.68C582.926 51.9401 581.706 48.2661 579.32 45.38C578.158 44.1639 576.761 43.196 575.214 42.5347C573.667 41.8734 572.002 41.5325 570.32 41.5325C568.638 41.5325 566.973 41.8734 565.426 42.5347C563.879 43.196 562.482 44.1639 561.32 45.38C558.982 48.2871 557.8 51.9549 558 55.68C557.802 59.3961 559.001 63.0519 561.36 65.93H561.32ZM617.35 78.44C613.352 76.282 610.042 73.0417 607.8 69.09C605.56 64.9733 604.387 60.3615 604.387 55.675C604.387 50.9885 605.56 46.3766 607.8 42.26C610.04 38.309 613.35 35.0713 617.35 32.92C621.601 30.7079 626.323 29.5529 631.115 29.5529C635.907 29.5529 640.629 30.7079 644.88 32.92C648.88 35.0713 652.19 38.309 654.43 42.26C656.67 46.3766 657.843 50.9885 657.843 55.675C657.843 60.3615 656.67 64.9733 654.43 69.09C652.188 73.0417 648.878 76.282 644.88 78.44C640.629 80.6521 635.907 81.8071 631.115 81.8071C626.323 81.8071 621.601 80.6521 617.35 78.44ZM622 65.83C623.143 67.0309 624.512 67.9947 626.028 68.6663C627.545 69.338 629.178 69.7042 630.836 69.7441C632.494 69.7841 634.143 69.4969 635.69 68.8991C637.236 68.3012 638.65 67.4045 639.85 66.26L640.29 65.83C642.704 63.0134 643.962 59.3867 643.81 55.68C643.98 51.9404 642.721 48.2762 640.29 45.43C639.146 44.2246 637.775 43.257 636.257 42.5827C634.738 41.9084 633.101 41.5408 631.439 41.5008C629.778 41.4609 628.125 41.7494 626.576 42.3499C625.026 42.9504 623.611 43.851 622.41 45C622.26 45.14 622.11 45.29 621.97 45.44C619.538 48.2862 618.28 51.9504 618.45 55.69C618.304 59.398 619.573 63.023 622 65.83V65.83ZM665.48 30.35H679.55V37.35C680.97 34.8541 683.105 32.8409 685.68 31.57C688.551 30.1538 691.72 29.4473 694.92 29.51C698.386 29.4355 701.808 30.303 704.82 32.02C707.652 33.6773 709.954 36.1048 711.46 39.02C713.071 42.2288 713.881 45.78 713.82 49.37V81H699.75V52.56C699.836 49.7807 698.852 47.0745 697 45C696.119 44.0245 695.037 43.2513 693.829 42.7334C692.62 42.2156 691.314 41.9654 690 42C688.589 41.9515 687.184 42.2097 685.882 42.757C684.58 43.3043 683.413 44.1276 682.46 45.17C680.48 47.3849 679.437 50.2814 679.55 53.25V81H665.48V30.35ZM361.42 216.45C358.317 213.81 355.805 210.547 354.048 206.872C352.29 203.197 351.327 199.192 351.22 195.12H366.69C366.805 197.316 367.377 199.464 368.371 201.425C369.364 203.387 370.757 205.119 372.46 206.51C376.332 209.379 381.077 210.82 385.89 210.59C390.026 210.767 394.109 209.602 397.53 207.27C398.901 206.369 400.028 205.142 400.808 203.699C401.588 202.255 401.998 200.641 402 199C402.087 197.665 401.898 196.327 401.443 195.069C400.989 193.811 400.28 192.661 399.36 191.69C397.519 189.947 395.27 188.692 392.82 188.04C389.24 187.1 385.617 186.337 381.95 185.75C376.908 184.988 371.935 183.821 367.08 182.26C363.233 180.933 359.865 178.498 357.4 175.26C354.475 170.972 353.067 165.83 353.4 160.65C353.307 157.216 354.028 153.809 355.506 150.708C356.983 147.607 359.175 144.901 361.9 142.81C368.198 138.071 375.946 135.668 383.82 136.01C392.313 135.65 400.666 138.263 407.44 143.4C410.404 145.727 412.823 148.675 414.524 152.037C416.226 155.399 417.17 159.094 417.29 162.86H401.86C401.673 160.778 401.009 158.767 399.918 156.984C398.827 155.201 397.339 153.694 395.57 152.58C392.087 150.3 388.013 149.09 383.85 149.1C380.048 148.904 376.287 149.958 373.14 152.1C371.857 152.997 370.815 154.196 370.105 155.591C369.396 156.987 369.04 158.535 369.07 160.1C368.893 161.789 369.248 163.491 370.085 164.968C370.922 166.445 372.2 167.624 373.74 168.34C378.349 170.139 383.179 171.31 388.1 171.82C393.345 172.487 398.519 173.625 403.56 175.22C407.636 176.665 411.185 179.298 413.75 182.78C416.877 187.472 418.371 193.064 418 198.69C418.124 202.275 417.396 205.839 415.875 209.088C414.354 212.338 412.083 215.179 409.25 217.38C403.41 222.047 395.623 224.38 385.89 224.38C377.043 224.782 368.35 221.965 361.42 216.45V216.45ZM460.31 110.51V137.35H485.63V151.62H460.31V194.44C460.066 198.277 461.313 202.06 463.79 205C465.061 206.28 466.589 207.275 468.273 207.92C469.957 208.565 471.759 208.844 473.56 208.74H485.63V223H472.2C468.42 223.199 464.639 222.64 461.079 221.355C457.519 220.071 454.252 218.087 451.47 215.52C448.857 212.807 446.831 209.585 445.516 206.054C444.202 202.524 443.628 198.761 443.83 195V151.62H426.33V137.35H443.83V110.51H460.31ZM574.83 223H558.35V207.87C556.25 213.003 552.517 217.301 547.73 220.1C542.582 223.021 536.737 224.489 530.82 224.35C526.497 224.529 522.186 223.772 518.183 222.128C514.18 220.485 510.58 217.995 507.63 214.83C501.611 207.997 498.475 199.097 498.88 190V137.35H515.36V186.8C515.081 192.789 517.05 198.667 520.88 203.28C522.681 205.343 524.921 206.979 527.434 208.067C529.948 209.155 532.673 209.668 535.41 209.57C538.527 209.652 541.624 209.038 544.474 207.773C547.325 206.509 549.858 204.626 551.89 202.26C556.296 197.119 558.602 190.506 558.35 183.74V137.35H574.83V223ZM609.92 218.66C603.799 214.92 598.9 209.478 595.82 203C592.626 195.806 590.975 188.022 590.975 180.15C590.975 172.278 592.626 164.494 595.82 157.3C598.901 150.83 603.801 145.399 609.92 141.67C616.573 137.742 624.197 135.767 631.92 135.97C637.487 135.912 642.982 137.228 647.92 139.8C652.508 142.09 656.386 145.585 659.14 149.91V101.5H675.62V223H659.11V210.24C656.402 214.646 652.516 218.207 647.89 220.52C643.017 223.073 637.591 224.388 632.09 224.35C624.313 224.566 616.632 222.595 609.92 218.66V218.66ZM614.92 201.75C617.279 204.439 620.21 206.566 623.497 207.976C626.785 209.386 630.346 210.043 633.92 209.9C637.511 210.041 641.089 209.383 644.396 207.973C647.702 206.564 650.654 204.438 653.04 201.75C658.061 195.713 660.637 188.013 660.26 180.17C660.637 172.327 658.061 164.627 653.04 158.59C650.663 155.912 647.724 153.793 644.432 152.384C641.141 150.975 637.578 150.311 634 150.44C630.426 150.297 626.865 150.954 623.577 152.364C620.29 153.774 617.359 155.901 615 158.59C610.027 164.65 607.483 172.34 607.86 180.17C607.483 188 610.027 195.69 615 201.75H614.92ZM713.68 102.62V121.11H697.3V102.62H713.68ZM697.34 137.35H713.82V223H697.34V137.35ZM751.2 218.66C744.615 214.964 739.176 209.525 735.48 202.94C731.743 195.932 729.788 188.112 729.788 180.17C729.788 172.228 731.743 164.408 735.48 157.4C739.174 150.816 744.614 145.38 751.2 141.69C758.206 137.953 766.025 135.998 773.965 135.998C781.906 135.998 789.724 137.953 796.73 141.69C803.302 145.368 808.715 150.809 812.36 157.4C816.046 164.424 817.972 172.238 817.972 180.17C817.972 188.102 816.046 195.916 812.36 202.94C808.713 209.531 803.3 214.975 796.73 218.66C789.723 222.393 781.905 224.345 773.965 224.345C766.025 224.345 758.207 222.393 751.2 218.66V218.66ZM754.2 201.58C759.283 206.806 766.234 209.798 773.523 209.899C780.813 210.001 787.844 207.202 793.07 202.12L793.62 201.58C798.511 195.516 801.179 187.961 801.179 180.17C801.179 172.379 798.511 164.824 793.62 158.76C788.535 153.534 781.583 150.541 774.292 150.44C767.001 150.338 759.968 153.137 754.74 158.22L754.2 158.76C749.304 164.82 746.631 172.374 746.626 180.165C746.62 187.955 749.283 195.513 754.17 201.58H754.2ZM838.87 216.45C835.769 213.81 833.259 210.545 831.503 206.87C829.747 203.195 828.785 199.192 828.68 195.12H844.14C844.255 197.316 844.827 199.464 845.821 201.425C846.814 203.387 848.207 205.119 849.91 206.51C853.782 209.379 858.527 210.82 863.34 210.59C867.483 210.771 871.574 209.606 875 207.27C876.373 206.376 877.502 205.155 878.288 203.717C879.073 202.279 879.49 200.668 879.5 199.03C879.587 197.696 879.398 196.359 878.945 195.101C878.493 193.844 877.786 192.693 876.87 191.72C875.026 189.975 872.774 188.72 870.32 188.07C866.74 187.13 863.117 186.367 859.45 185.78C854.408 185.018 849.435 183.851 844.58 182.29C840.733 180.963 837.365 178.528 834.9 175.29C831.975 171.002 830.567 165.86 830.9 160.68C830.807 157.246 831.528 153.839 833.006 150.738C834.483 147.637 836.675 144.931 839.4 142.84C845.687 138.091 853.428 135.674 861.3 136C869.794 135.638 878.147 138.252 884.92 143.39C887.884 145.717 890.303 148.665 892.004 152.027C893.706 155.389 894.65 159.084 894.77 162.85H879.31C879.123 160.764 878.456 158.75 877.361 156.965C876.267 155.18 874.774 153.673 873 152.56C869.517 150.28 865.443 149.07 861.28 149.08C857.478 148.884 853.717 149.938 850.57 152.08C849.287 152.977 848.245 154.176 847.535 155.571C846.826 156.967 846.47 158.515 846.5 160.08C846.323 161.769 846.678 163.471 847.515 164.948C848.352 166.425 849.63 167.604 851.17 168.32C855.779 170.119 860.609 171.29 865.53 171.8C870.775 172.467 875.949 173.605 880.99 175.2C885.066 176.645 888.615 179.278 891.18 182.76C894.303 187.446 895.796 193.03 895.43 198.65C895.557 202.236 894.83 205.8 893.308 209.05C891.787 212.299 889.515 215.141 886.68 217.34C880.847 222.007 873.06 224.34 863.32 224.34C854.485 224.748 845.8 221.946 838.87 216.45V216.45ZM316.63 174.73C316.677 174.669 316.72 174.606 316.76 174.54C316.82 174.45 316.89 174.36 316.94 174.27C316.976 174.227 317.006 174.18 317.03 174.13L317.08 174.04L317.21 173.78V173.69C317.251 173.622 317.287 173.552 317.32 173.48L317.41 173.22C317.41 173.12 317.48 173.02 317.52 172.91C317.56 172.8 317.58 172.73 317.6 172.63C317.605 172.57 317.605 172.51 317.6 172.45V172.31C317.606 172.217 317.606 172.123 317.6 172.03C317.606 171.937 317.606 171.843 317.6 171.75V171.13L317.61 61C317.607 59.9495 317.329 58.9182 316.802 58.0091C316.276 57.1001 315.52 56.3452 314.61 55.82L219.48 0.809988L219.25 0.689988L219 0.549988L218.7 0.419988L218.42 0.319988L218.17 0.239988L217.83 0.159988L217.51 0.0899883H216.12C216.02 0.0800299 215.92 0.0800299 215.82 0.0899883H215.52L215.2 0.159988C215.085 0.178256 214.971 0.204995 214.86 0.239988L214.61 0.319988L214.33 0.419988L214 0.549988L213.7 0.689988L213.49 0.789988L118 55.87C117.087 56.3969 116.33 57.155 115.803 58.0678C115.276 58.9807 114.999 60.0161 115 61.07V171.74C114.995 171.837 114.995 171.933 115 172.03C115.012 172.124 115.028 172.218 115.05 172.31V172.62L115.14 172.91C115.14 173.01 115.21 173.11 115.24 173.21C115.27 173.31 115.3 173.38 115.34 173.47C115.373 173.542 115.409 173.612 115.45 173.68V173.77C115.487 173.86 115.531 173.946 115.58 174.03V174.12L115.68 174.26C115.68 174.35 115.79 174.44 115.85 174.53C115.91 174.62 115.94 174.67 116 174.74C116.061 174.818 116.128 174.891 116.2 174.96C116.27 175.04 116.33 175.12 116.41 175.2L116.6 175.4L116.8 175.57C116.832 175.608 116.869 175.642 116.91 175.67C116.959 175.722 117.012 175.769 117.07 175.81L117.28 175.96L117.55 176.14L117.83 176.32H117.88L213.35 228.56C214.234 229.045 215.226 229.299 216.235 229.299C217.243 229.299 218.236 229.045 219.12 228.56L314.48 176.32H314.53L314.81 176.15L315.07 175.97C315.14 175.97 315.22 175.88 315.29 175.82L315.45 175.68L315.56 175.58L315.76 175.41L315.95 175.21L316.16 174.97C316.232 174.898 316.298 174.821 316.36 174.74L316.63 174.73ZM174.11 91.57L216.48 18L298.53 160.07L301.45 165.13H131.45L174.11 91.57ZM305.79 148.67L232.89 22.43L305.62 64.51L305.79 148.67ZM200.07 22.39L127 148.77V64.53L200.07 22.39ZM216.47 216.54L144.47 177.13H288.4L216.47 216.54Z" fill="#9CA9B3"/>
    </g>
    <defs>
        <clipPath id="clip0_4_121">
            <rect width="977" height="229" fill="white"/>
        </clipPath>
    </defs>
</svg>
