<svg width="800" height="176" viewBox="0 0 800 176" fill="none" xmlns="http://www.w3.org/2000/svg">
    <path d="M312.979 56.0533C317.887 59.0246 322.038 63.1088 324.678 68.6786C327.701 74.2485 329.213 80.9313 329.213 88.3595C329.213 95.7825 327.701 102.098 324.306 107.668C321.283 113.238 316.753 117.322 311.09 119.92C305.427 122.892 298.63 124.372 291.461 124.372C287.453 124.389 283.479 123.633 279.757 122.146C275.978 121.033 272.582 118.807 269.937 116.204V154.82H248.041V53.082H266.919L268.809 61.2504C277.112 54.5728 286.176 51.2288 295.612 51.2288C302.031 51.2288 308.072 52.7145 312.979 56.0533ZM300.898 102.098C304.676 98.7538 306.561 94.2969 306.561 88.727C306.561 83.1624 304.671 78.7054 301.276 74.9887C297.875 71.2772 293.345 69.7916 288.438 69.7916C284.286 69.7916 280.513 70.537 277.49 72.3902C274.472 73.8758 272.205 76.4796 270.315 79.8184V96.528C271.454 99.8668 273.716 102.465 276.356 104.324C279.379 106.182 282.775 107.295 286.926 107.295C292.589 107.295 297.124 105.437 300.898 102.098Z" fill="#9CA9B3"/>
    <path d="M342.051 69.041C345.446 63.8438 349.976 59.3869 356.017 56.4208C362.348 53.2551 369.328 51.6019 376.407 51.5912C383.954 51.5912 390.751 53.0768 396.792 56.4156C402.455 59.3869 406.989 63.8438 410.385 69.4137C413.781 74.9835 415.292 80.9261 415.292 87.9816C415.292 95.0319 413.781 100.975 410.385 106.544C406.984 112.114 402.832 116.571 396.792 119.537C391.128 122.509 383.954 124.367 376.407 124.367C368.854 124.367 362.057 122.881 356.017 119.915C349.976 116.939 345.446 112.854 342.051 107.285C338.799 101.371 337.11 94.7252 337.143 87.9764C337.143 80.9261 339.027 74.6108 342.051 69.041ZM364.325 101.342C367.343 105.059 371.499 106.544 376.407 106.544C381.314 106.544 385.465 104.686 388.488 101.347C391.506 98.0032 393.018 93.1788 393.018 87.9816C393.018 82.4117 391.506 77.9548 388.488 74.6108C385.088 70.8993 381.314 69.041 376.029 69.041C371.121 69.041 367.343 70.8993 363.947 74.2433C360.924 77.9548 359.417 82.4117 359.417 87.9816C359.417 93.1788 360.924 97.6305 364.325 101.347V101.342Z" fill="#9CA9B3"/>
    <path d="M450.782 0.354603V122.519H428.885V0.349426H450.782V0.354603Z" fill="#9CA9B3"/>
    <path d="M540.635 54.9351L496.081 155.187H474.94L491.557 119.17L459.841 54.9351H484.755L502.878 95.0371L521 54.9351H540.635Z" fill="#9CA9B3"/>
    <path d="M624.447 54.9351V122.509C624.447 128.824 622.557 134.761 618.784 139.964C615.005 145.161 610.098 149.245 603.679 152.216C597.26 155.187 590.468 156.668 582.916 156.668C577.253 156.668 572.346 155.928 568.189 154.815C564.037 153.329 560.642 151.844 557.996 150.363C554.656 148.282 551.499 145.919 548.56 143.302L561.397 128.451C564.172 131.161 567.357 133.416 570.834 135.134C574.493 136.861 578.492 137.749 582.538 137.732C588.201 137.732 592.731 136.247 596.504 133.648C600.283 131.05 602.167 126.971 602.167 122.141V112.487C599.722 116.164 596.332 119.114 592.353 121.028C587.823 123.254 582.538 124.367 576.497 124.367C570.456 124.367 564.415 122.881 559.13 119.542C553.845 116.571 549.693 112.114 546.293 106.55C543.275 100.975 541.385 95.0319 541.385 88.3491C541.385 81.6715 542.897 75.3562 546.293 69.7864C549.693 64.2165 553.845 59.7596 559.508 56.4208C564.793 53.0768 570.456 51.5912 576.497 51.5912C582.16 51.5912 587.067 52.3314 591.597 53.817C596.131 55.3027 599.527 57.5337 601.794 60.1323L604.057 54.9351H624.447ZM602.167 96.5176V79.808C600.728 76.4732 598.201 73.7249 594.998 72.0123C591.418 70.03 587.386 69.0065 583.294 69.041C578.27 69.0044 573.416 70.8619 569.7 74.2433C565.927 77.5821 564.037 82.0391 564.037 87.6089C564.037 92.8061 565.927 97.6305 569.7 101.347C571.473 103.145 573.591 104.565 575.927 105.523C578.264 106.48 580.769 106.954 583.294 106.917C591.975 106.544 598.394 103.2 602.167 96.5176Z" fill="#9CA9B3"/>
    <path d="M642.569 69.0513C645.965 63.4815 650.494 59.3973 656.535 56.0585C662.865 52.8939 669.843 51.2407 676.92 51.2288C684.473 51.2288 691.269 52.7145 697.31 56.0533C702.973 59.0246 707.503 63.4815 710.899 69.0462C713.922 74.6212 715.811 80.5586 715.811 87.6141C715.811 94.6696 714.3 100.607 710.899 106.182C707.854 111.838 703.097 116.386 697.31 119.175C691.647 122.146 684.473 124.005 676.92 124.005C669.373 124.005 662.576 122.519 656.535 119.548C650.494 116.576 645.965 112.492 642.569 106.922C639.168 101.352 637.657 95.0423 637.657 87.2466C637.657 80.9313 639.168 74.616 642.569 69.0513ZM664.466 101.352C667.484 105.069 671.635 106.555 676.548 106.555C681.455 106.555 685.606 104.691 688.624 101.352C691.647 98.0136 693.159 93.184 693.159 87.9868C693.159 82.417 691.647 77.96 688.624 74.6212C685.606 71.2772 681.455 69.4189 676.548 69.4189C671.635 69.4189 667.862 71.2824 664.466 74.6212C661.065 77.96 659.558 82.7897 659.558 87.9868C659.931 93.184 661.443 97.6409 664.466 101.352Z" fill="#9CA9B3"/>
    <path d="M793.204 57.1609C797.734 60.8725 799.623 65.7021 800.001 71.6395V122.508H777.727V79.8079C777.349 73.1303 773.948 69.7863 767.529 69.7863C762.622 69.7863 758.47 72.0122 755.452 76.8418C752.429 81.6663 750.918 87.6088 750.918 94.6643V122.514H729.021V54.9299H749.033L750.54 65.6969C753.073 61.3481 756.725 57.7572 761.115 55.2974C765.645 52.6988 770.93 51.5859 776.971 51.5859C783.39 51.5859 789.053 53.4443 793.204 57.1558V57.1609Z" fill="#9CA9B3"/>
    <path d="M154.414 53.6462C150.636 51.4203 145.733 51.4203 141.577 53.6462L112.128 70.7284L92.121 81.863L62.6721 98.9453C58.8933 101.171 53.9912 101.171 49.8345 98.9453L26.4318 85.5797C22.653 83.3538 20.013 79.2644 20.013 74.8127V48.4438C20.013 43.9869 22.2751 39.9027 26.4318 37.6768L49.4618 24.6787C53.2354 22.4529 58.1427 22.4529 62.2994 24.6787L85.3243 37.6716C89.1031 39.8975 91.7431 43.9869 91.7431 48.4386V65.5209L111.755 54.0085V36.9262C111.755 32.4745 109.488 28.3902 105.336 26.1592L62.6721 1.66941C58.8933 -0.556469 53.9912 -0.556469 49.8345 1.66941L6.41959 26.1696C4.46191 27.1991 2.82659 28.7493 1.69396 30.6492C0.56133 32.549 -0.0245972 34.7248 0.000791391 36.9366V86.3199C0.000791391 90.7717 2.26808 94.8611 6.41959 97.0869L49.8345 121.592C53.6133 123.818 58.5206 123.818 62.6721 121.592L92.121 104.888L112.128 93.3754L141.582 76.6658C145.356 74.44 150.263 74.44 154.414 76.6658L177.444 89.6587C181.223 91.8846 183.863 95.974 183.863 100.426V126.789C183.889 129.001 183.303 131.177 182.17 133.077C181.037 134.977 179.402 136.527 177.444 137.556L154.414 150.927C150.636 153.153 145.733 153.153 141.577 150.927L118.547 137.934C114.773 135.708 112.128 131.619 112.128 127.167V110.085L92.121 121.592V138.675C92.121 143.126 94.3882 147.216 98.5398 149.442L141.955 173.947C145.733 176.173 150.641 176.173 154.792 173.947L198.207 149.442C201.986 147.216 204.626 143.126 204.626 138.675V89.2912C204.626 84.8395 202.359 80.7501 198.207 78.5242L154.414 53.6462Z" fill="#9CA9B3"/>
</svg>

