<svg width="236" height="56" viewBox="0 0 236 56" fill="none" xmlns="http://www.w3.org/2000/svg">
    <path d="M115.073 9.78174L111.447 26.7326L111.266 28.9081V37.0662H107.368V29.3613C107.368 28.4548 107.277 27.5484 107.005 26.6419L102.292 9.78174H92.6832L88.0602 26.4606C87.7883 27.3671 87.6977 28.2736 87.6977 29.18V36.9756H83.7999V28.9987C83.7999 28.2736 83.7999 27.639 83.6186 26.9139L79.9927 9.78174H70.1123V10.8695L79.1769 45.4963H90.1451L94.9493 28.3642C95.2213 27.4577 95.4026 26.5513 95.4026 25.6448V18.3931H99.2097V25.6448C99.2097 26.5513 99.391 27.4577 99.5723 28.3642L104.467 45.587H115.435L124.5 10.8695V9.78174H114.982H115.073Z" fill="#9CA9B3"/>
    <path d="M235.904 26.3699C235.904 15.4017 229.378 8.96582 218.5 8.96582C209.436 8.96582 202.818 13.2262 200.824 21.6563C200.712 22.0607 200.695 22.4856 200.775 22.8976C200.855 23.3096 201.029 23.6976 201.283 24.0312C201.538 24.3648 201.866 24.635 202.243 24.8206C202.619 25.0061 203.033 25.102 203.453 25.1008H207.804V28.908H203.181C202.782 28.9024 202.387 28.9845 202.024 29.1486C201.66 29.3127 201.338 29.5546 201.078 29.8573C200.819 30.1601 200.629 30.5161 200.522 30.9003C200.416 31.2845 200.395 31.6875 200.462 32.0806C202.093 41.5984 208.892 46.312 218.591 46.312C229.74 46.312 234.091 39.9668 235.27 35.0719V34.1654H226.568C226.024 36.2503 223.848 38.9697 218.409 38.9697C212.971 38.9697 209.889 35.3438 209.707 30.449H235.995V26.3699H235.904ZM209.889 23.6505C210.251 19.6621 213.061 16.3082 218.409 16.3082C223.848 16.3082 226.568 19.5714 226.568 23.5598H209.889V23.6505Z" fill="#9CA9B3"/>
    <path d="M192.485 9.69043C187.952 9.69043 184.961 13.9508 183.42 18.4831H179.16C179.16 18.4831 182.786 13.9508 183.148 9.78108H173.449V45.4957H183.42V26.9132C183.42 20.568 186.139 17.8486 191.669 17.8486H196.836V9.69043H192.485Z" fill="#9CA9B3"/>
    <path d="M157.677 9.78174L151.059 28.3642C150.697 29.4519 150.425 30.5397 150.425 31.7181V36.9756H146.618V31.7181C146.601 30.572 146.386 29.4374 145.983 28.3642L139.457 9.87238H129.032V10.7788L141.723 42.2331H145.439L143.717 46.7654H132.658V55.4674H143.354C145.262 55.4645 147.125 54.894 148.707 53.8285C150.289 52.7631 151.518 51.251 152.238 49.4847L167.829 10.8695V9.78174H157.677V9.78174Z" fill="#9CA9B3"/>
    <path d="M46.7257 27.5475L49.717 20.5677V13.3161H39.7459L42.1934 7.42406V0.172363H14.8182L0.133545 35.615V42.3228H10.1953L7.56653 48.6681V55.0133H39.1114L55.9716 33.2582V27.6381H46.7257V27.5475ZM47.2695 20.1145L44.0969 27.6381H30.5906L14.2743 48.7587H10.2859L23.8828 15.9448H47.2695V20.1145ZM16.4499 2.71046H39.7459V6.88018L37.0265 13.2254L22.2512 13.3161L6.75071 35.7057H2.85293L16.4499 2.71046Z" fill="#9CA9B3"/>
</svg>
